<svg xmlns="http://www.w3.org/2000/svg" xmlns:xlink="http://www.w3.org/1999/xlink" width="180" height="180" viewBox="0 0 180 180">
  <defs>
    <clipPath id="clip-path">
      <rect id="Rectangle_405185" data-name="Rectangle 405185" width="95.635" height="97.38" fill="#12263f"/>
    </clipPath>
  </defs>
  <g id="img12" transform="translate(-358.668 -5326)">
    <rect id="Rectangle_403656" data-name="Rectangle 403656" width="180" height="180" transform="translate(358.668 5326)" fill="none"/>
    <g id="Group_1101106" data-name="Group 1101106" transform="translate(-148.045 -2662)">
      <g id="Group_1101010" data-name="Group 1101010" transform="translate(601.04 7999.387)">
        <path id="Path_875656" data-name="Path 875656" d="M213.638,10.626,141.848,82.417v2.494h2.494L216.133,13.12V10.626Z" transform="translate(-141.846 -10.626)" fill="#225a78"/>
        <path id="Path_875657" data-name="Path 875657" d="M202.64,10.626,141.848,71.419v4.989l65.781-65.782Z" transform="translate(-141.846 -10.626)" fill="#225a78"/>
        <path id="Path_875658" data-name="Path 875658" d="M191.64,10.626,141.847,60.42v4.988l54.782-54.783Z" transform="translate(-141.846 -10.626)" fill="#225a78"/>
        <path id="Path_875659" data-name="Path 875659" d="M180.642,10.626l-38.8,38.8V54.41l43.784-43.784Z" transform="translate(-141.846 -10.626)" fill="#225a78"/>
        <path id="Path_875660" data-name="Path 875660" d="M169.644,10.626l-27.8,27.8v4.988l32.786-32.786Z" transform="translate(-141.846 -10.626)" fill="#225a78"/>
        <path id="Path_875661" data-name="Path 875661" d="M158.645,10.626l-16.8,16.8v4.989l21.787-21.787Z" transform="translate(-141.846 -10.626)" fill="#225a78"/>
        <path id="Path_875662" data-name="Path 875662" d="M147.646,10.626l-5.8,5.8v4.989l10.788-10.788Z" transform="translate(-141.846 -10.626)" fill="#225a78"/>
        <path id="Path_875663" data-name="Path 875663" d="M268.109,147.676H273.1l5.8-5.8v-4.988Z" transform="translate(-204.61 -73.39)" fill="#225a78"/>
        <path id="Path_875664" data-name="Path 875664" d="M246.238,136.8h4.989l16.8-16.8v-4.988Z" transform="translate(-193.738 -62.518)" fill="#225a78"/>
        <path id="Path_875665" data-name="Path 875665" d="M224.368,125.933h4.989l27.8-27.8V93.147Z" transform="translate(-182.867 -51.646)" fill="#225a78"/>
        <path id="Path_875666" data-name="Path 875666" d="M202.5,115.061h4.989l38.795-38.8V71.277Z" transform="translate(-171.996 -40.775)" fill="#225a78"/>
        <path id="Path_875667" data-name="Path 875667" d="M180.628,104.19h4.988L235.41,54.4V49.407Z" transform="translate(-161.123 -29.904)" fill="#225a78"/>
        <path id="Path_875668" data-name="Path 875668" d="M158.757,93.318h4.989l60.792-60.793V27.536Z" transform="translate(-150.252 -19.032)" fill="#225a78"/>
      </g>
      <rect id="Rectangle_403642" data-name="Rectangle 403642" width="62.268" height="62.267" transform="translate(518.1 8094.346)" fill="none" stroke="#225a78" stroke-linecap="round" stroke-linejoin="round" stroke-width="2"/>
      <rect id="Rectangle_403641" data-name="Rectangle 403641" width="135.46" height="135.39" transform="translate(530.661 8008.6)" fill="#88c0de"/>
      <g id="Group_1102949" data-name="Group 1102949" transform="translate(550.661 8027.6)">
        <g id="Group_1102948" data-name="Group 1102948" clip-path="url(#clip-path)">
          <path id="Path_879843" data-name="Path 879843" d="M119.973,105.109a25.8,25.8,0,0,0,2.42,2.594,11.345,11.345,0,0,0,3.206.053l3.562-3.928a1.624,1.624,0,0,1,1.821-.365,45.022,45.022,0,0,1,5.531,2.321,1.573,1.573,0,0,1,.687,1.125c.152,1.262-.571,5.04-.13,5.808a23.556,23.556,0,0,0,2.024,1.962c1.8.184,3.759-.4,5.538-.223a1.525,1.525,0,0,1,1.369.926,43.536,43.536,0,0,1,2.281,5.571,1.616,1.616,0,0,1-.334,1.421c-.782,1.066-2.714,2.283-3.685,3.318-.159.169-.377.294-.419.551l.024,3.053,3.9,3.409a1.749,1.749,0,0,1,.488,1.815,47.807,47.807,0,0,1-2.38,5.593,1.452,1.452,0,0,1-.893.678c-1.918.3-4.2-.439-6.129.007l-1.872,1.9c-.033.553-.048,1.118-.03,1.671.041,1.241.626,3.778-.064,4.758a2.388,2.388,0,0,1-1.058.754c-1.69.813-3.626,1.376-5.347,2.151a2.07,2.07,0,0,1-1.319-.478c-.918-.77-1.946-2.3-2.834-3.207-.308-.316-.721-.827-1.157-.9a9.205,9.205,0,0,0-2.756.129l-3.694,4.037c-.786.564-1.138.434-1.97.147a41.9,41.9,0,0,1-5.205-2.164,1.8,1.8,0,0,1-.8-1.389c-.041-.936.218-2.274.24-3.24a8.662,8.662,0,0,0-.119-2.428,21.886,21.886,0,0,0-1.9-1.841c-1.86-.2-3.813.273-5.657.1a1.393,1.393,0,0,1-1.288-.766c-.941-1.657-1.5-4.088-2.387-5.833a1.51,1.51,0,0,1,.357-1.2l4.1-3.87-.059-3.075-3.869-3.5a1.939,1.939,0,0,1-.511-1.486,47.106,47.106,0,0,1,2.458-5.881,1.891,1.891,0,0,1,1.074-.739c1.723-.235,3.8.406,5.559.244l2.213-2.136c.03-.755.048-1.52.03-2.275-.025-1.046-.479-3.187.06-4.037a2.491,2.491,0,0,1,.792-.658c1.655-.877,3.864-1.471,5.6-2.251,1.191-.188,1.821,1.009,2.529,1.765m9.543,3.121c-.6.645-2.068,2.594-2.825,2.792a34.431,34.431,0,0,1-5.444,0,1.9,1.9,0,0,1-.6-.363l-3.34-3.675-3.105,1.183c-.133.1-.092,1.044-.08,1.286.054,1.131.254,2.507.246,3.619a2.449,2.449,0,0,1-.491,1.293,37.155,37.155,0,0,1-3.028,3.035,5.181,5.181,0,0,1-.7.511,48.262,48.262,0,0,1-5.566-.13,22,22,0,0,0-1.279,2.962c-.022.175-.033.249.124.369a36.083,36.083,0,0,1,3.871,3.624l.012,5.8-4.034,3.937,1.308,3.005a.97.97,0,0,0,.417.065c1.242.128,3.173-.3,4.47-.252a2.322,2.322,0,0,1,1.095.366,33,33,0,0,1,3.2,3.2,2.077,2.077,0,0,1,.6,1.332c0,.206-.119.409-.12.605,0,1.441-.112,2.861-.063,4.289l2.924,1.307c.184.017.672-.541.824-.7.822-.873,1.776-2.236,2.637-2.98a1.677,1.677,0,0,1,.861-.407c1.654-.2,3.795.1,5.494.069,1.44,1.154,2.5,2.733,3.827,4.016l2.993-1.193.2-.406a27.328,27.328,0,0,1-.251-4.962,1.671,1.671,0,0,1,.366-.842,29.848,29.848,0,0,1,3.077-3.084c1.033-.838,1.186-.488,2.293-.476,1.349.016,2.687.07,4.032.1.2-.812,1.087-2.105,1.206-2.85.023-.139.062-.265-.036-.391L141,131.016a1.646,1.646,0,0,1-.423-.906,33.47,33.47,0,0,1,0-4.841,1.168,1.168,0,0,1,.1-.507c1.148-1.452,2.767-2.479,4-3.863l-1.311-3.116a22.151,22.151,0,0,0-2.836.188,10.86,10.86,0,0,1-2.793-.116,38.935,38.935,0,0,1-3.557-3.45,2.8,2.8,0,0,1-.451-.636,27.665,27.665,0,0,1,.218-5.171.492.492,0,0,0-.118-.366,19.86,19.86,0,0,0-2.964-1.263,6.012,6.012,0,0,0-1.343,1.262" transform="translate(-52.693 -54.657)" fill="#12263f"/>
          <path id="Path_879844" data-name="Path 879844" d="M8.027,150.731c-.058-.18-1.367-.373-1.689-.486A5.092,5.092,0,0,1,3.1,146.231c.228-5.057-.408-10.55-.035-15.558a8.352,8.352,0,0,1,6.161-7.49c.954-.217,1.846-.1,2.782-.3a9.776,9.776,0,0,1,4.949-15.889c9.273-2.3,15.92,8.766,9.669,15.889a7.711,7.711,0,0,0,1.857.138,8.233,8.233,0,0,1,7.086,7.531c.39,5.076-.276,10.672-.033,15.8a5.045,5.045,0,0,1-4.8,4.2v3.08l-.181.181h-3.08V150.55a4.988,4.988,0,0,1-4.938-4.666,21.864,21.864,0,0,1-.016-3.369c.165-1.538,2.344-2.8,3.262-3.986v-4.108l.181-.181h2.9l.181.181v5.195c0,.547-2.83,2.875-3.237,3.528-.016,1.3-.434,3.856,1.372,4.135a23.254,23.254,0,0,0,3.73,0,1.846,1.846,0,0,0,1.4-1.5L32.3,130.446a5.083,5.083,0,0,0-4.878-4.3c-5.226.263-10.767-.334-15.956,0a5.085,5.085,0,0,0-5.116,4.428l.044,15.514a2,2,0,0,0,1.147,1.148,22.308,22.308,0,0,0,4.023.029c1.766-.36,1.288-2.925,1.234-4.2-.44-.585-3.2-2.93-3.2-3.445v-5.195l.181-.181h2.9l.181.181v4.108c.9,1.176,3.133,2.469,3.267,3.982.266,3,.043,6.6-3.269,7.734a8.459,8.459,0,0,0-1.689.486v3.081H8.027Zm10.6-40.742c-9.469,1.1-6.17,15.825,2.991,12.536,7.054-2.533,4.494-13.4-2.991-12.536" transform="translate(-1.56 -56.436)" fill="#12263f"/>
          <path id="Path_879845" data-name="Path 879845" d="M134.339,17.825l.716-.432h20.471c.734.285,1.028,1.006,1.379,1.641,1.083,1.963,2,4.164,3,6.186l-.085,16.934a1.953,1.953,0,0,1-1.027,1.027l-26.49.1a1.671,1.671,0,0,1-1.627-1.513l.01-16.546Zm.684,6h4.047a.448.448,0,0,0,.155-.208c.068-.128.7-2.66.705-2.8s-.019-.157-.135-.249h-3.141Zm7.671,0h5.194l.133-.248-.79-2.961h-3.88a19.669,19.669,0,0,0-.79,2.96c0,.143.012.158.133.248m12.865,0-1.631-3.262h-3.141c-.116.092-.14.1-.135.249s.637,2.677.705,2.8a.447.447,0,0,0,.155.208Zm-16.791,3.262h-4.832V40.013h22.71V27.086h-4.832V32.22c0,.331-.823,1.273-1.275,1.262-3.288-.229-7.035.326-10.268.012a1.635,1.635,0,0,1-1.028-.421,5.193,5.193,0,0,1-.476-.853Zm9.785,0h-6.523v3.08l.181.181h6.16l.181-.181Z" transform="translate(-69.123 -9.201)" fill="#12263f"/>
          <path id="Path_879846" data-name="Path 879846" d="M49.695,27.789a4.175,4.175,0,0,1,.348.558l.06,23.386a1.506,1.506,0,0,1-1.51,1.51l-20.123-.06a1.861,1.861,0,0,1-.99-1.064l-.033-23.526a1.771,1.771,0,0,1,1.808-1.333c6.126.41,12.929-.528,18.975,0a2.544,2.544,0,0,1,1.465.528m-2.858,2.738H30.83l-.181.181V49.976H46.836Z" transform="translate(-14.519 -14.332)" fill="#12263f"/>
          <path id="Path_879847" data-name="Path 879847" d="M19.392,3.267H3.2V35.644h6.4v3.262H1.09A1.966,1.966,0,0,1,0,37.822L.038,1.006A1.893,1.893,0,0,1,1.326,0L21.449.063a2.307,2.307,0,0,1,1.2,1.211V9.61l-.181.181h-2.9l-.181-.181Z" fill="#12263f"/>
          <path id="Path_879848" data-name="Path 879848" d="M82.412,46.135l-.977-3.007c1.332-.351,2.631-.865,3.983-1.152a29.689,29.689,0,0,1,13.8.34c.4.105,2.688.742,2.725.988l-1.136,2.835c-1.19-.238-2.314-.689-3.5-.943a26.468,26.468,0,0,0-11.429.018,29.132,29.132,0,0,1-3.465.922" transform="translate(-43.078 -21.859)" fill="#12263f"/>
          <path id="Path_879849" data-name="Path 879849" d="M101.126,28.57c-1.305-.2-2.623-.593-3.952-.8a34.693,34.693,0,0,0-14.461.816c-.167,0-.21-.082-.283-.207a26.038,26.038,0,0,1-.748-2.637A.343.343,0,0,1,81.8,25.5a22.693,22.693,0,0,1,3-.749,36.632,36.632,0,0,1,17.13.807Z" transform="translate(-43.209 -12.749)" fill="#12263f"/>
          <path id="Path_879850" data-name="Path 879850" d="M156.514,77.977a35.792,35.792,0,0,1,2.3,8.511c.035.339.215,1.636-.077,1.733-.525-.126-2.768.365-3.007.022a31.028,31.028,0,0,0-1.689-7.613c-.1-.288-.642-1.233-.525-1.435.428-.141,2.781-1.406,3-1.219" transform="translate(-81.199 -41.239)" fill="#12263f"/>
          <path id="Path_879851" data-name="Path 879851" d="M174.978,78.232a37.736,37.736,0,0,1,1.815,10.148c-.9-.186-2.134.274-2.961.12-.138-.025-.244-.041-.285-.2a37.57,37.57,0,0,0-1.594-8.921c0-.171.084-.209.209-.284a16.12,16.12,0,0,1,2.816-.865" transform="translate(-90.96 -41.379)" fill="#12263f"/>
          <path id="Path_879852" data-name="Path 879852" d="M86.651,155.707a13.417,13.417,0,0,1-.431,3.268,30.1,30.1,0,0,1-8.395-2.381l1.295-2.936a27.156,27.156,0,0,0,7.532,2.049" transform="translate(-41.168 -81.283)" fill="#12263f"/>
          <path id="Path_879853" data-name="Path 879853" d="M78.126,175.112l.9-3.015c1.464.246,2.9.778,4.374,1.062a25.69,25.69,0,0,0,3.212.412l.2.289c-.25.843,0,1.95-.268,2.755-.106.318-.727.207-.992.185a38.99,38.99,0,0,1-7.433-1.687" transform="translate(-41.327 -91.036)" fill="#12263f"/>
          <path id="Path_879854" data-name="Path 879854" d="M44.4,95.638H41.138c-.178-.719.518-6.849.915-6.888l3.015.841a27.393,27.393,0,0,0-.667,6.047" transform="translate(-21.746 -46.947)" fill="#12263f"/>
          <path id="Path_879855" data-name="Path 879855" d="M23.958,95.766c-.143-.75.346-6.687.676-6.774l3.07.492-.665,6.282Z" transform="translate(-12.66 -47.075)" fill="#12263f"/>
          <path id="Path_879856" data-name="Path 879856" d="M30.583,13.862v3.262H27.5l-.181-.181v-3.08Z" transform="translate(-14.452 -7.333)" fill="#12263f"/>
          <rect id="Rectangle_405180" data-name="Rectangle 405180" width="3.141" height="3.262" transform="translate(6.467 6.529)" fill="#12263f"/>
          <rect id="Rectangle_405181" data-name="Rectangle 405181" width="3.141" height="3.262" transform="translate(6.467 19.456)" fill="#12263f"/>
          <rect id="Rectangle_405182" data-name="Rectangle 405182" width="3.141" height="3.262" transform="translate(6.467 12.932)" fill="#12263f"/>
          <rect id="Rectangle_405183" data-name="Rectangle 405183" width="3.141" height="3.262" transform="translate(6.467 25.979)" fill="#12263f"/>
          <path id="Path_879857" data-name="Path 879857" d="M137.66,130.843a11.469,11.469,0,0,1,12.091,13.662c-1.977,9.476-14.389,12.318-20.209,4.534a11.414,11.414,0,0,1,8.119-18.2m.119,3.259a8.125,8.125,0,1,0,8.664,10.236,8.17,8.17,0,0,0-8.664-10.236" transform="translate(-67.315 -69.19)" fill="#12263f"/>
          <rect id="Rectangle_405184" data-name="Rectangle 405184" width="3.262" height="3.262" transform="translate(19.392 19.456)" fill="#12263f"/>
          <path id="Path_879858" data-name="Path 879858" d="M44.432,55.156v3.08l-.181.181H41.17V55.156Z" transform="translate(-21.778 -29.177)" fill="#12263f"/>
          <path id="Path_879859" data-name="Path 879859" d="M55.02,44.568V41.306H58.1l.181.181v2.9l-.181.181Z" transform="translate(-29.104 -21.85)" fill="#12263f"/>
          <path id="Path_879860" data-name="Path 879860" d="M55.02,58.418V55.156H58.1l.181.181v2.9l-.181.181Z" transform="translate(-29.104 -29.177)" fill="#12263f"/>
        </g>
      </g>
    </g>
  </g>
</svg>
