<svg xmlns="http://www.w3.org/2000/svg" xmlns:xlink="http://www.w3.org/1999/xlink" width="180" height="180" viewBox="0 0 180 180">
  <defs>
    <clipPath id="clip-path">
      <rect id="Rectangle_405186" data-name="Rectangle 405186" width="87.924" height="95.641" fill="#12263f"/>
    </clipPath>
  </defs>
  <g id="img13" transform="translate(-358.668 -5326)">
    <rect id="Rectangle_403656" data-name="Rectangle 403656" width="180" height="180" transform="translate(358.668 5326)" fill="none"/>
    <g id="Group_1101106" data-name="Group 1101106" transform="translate(-148.045 -2662)">
      <g id="Group_1101010" data-name="Group 1101010" transform="translate(601.04 7999.387)">
        <path id="Path_875656" data-name="Path 875656" d="M213.638,10.626,141.848,82.417v2.494h2.494L216.133,13.12V10.626Z" transform="translate(-141.846 -10.626)" fill="#225a78"/>
        <path id="Path_875657" data-name="Path 875657" d="M202.64,10.626,141.848,71.419v4.989l65.781-65.782Z" transform="translate(-141.846 -10.626)" fill="#225a78"/>
        <path id="Path_875658" data-name="Path 875658" d="M191.64,10.626,141.847,60.42v4.988l54.782-54.783Z" transform="translate(-141.846 -10.626)" fill="#225a78"/>
        <path id="Path_875659" data-name="Path 875659" d="M180.642,10.626l-38.8,38.8V54.41l43.784-43.784Z" transform="translate(-141.846 -10.626)" fill="#225a78"/>
        <path id="Path_875660" data-name="Path 875660" d="M169.644,10.626l-27.8,27.8v4.988l32.786-32.786Z" transform="translate(-141.846 -10.626)" fill="#225a78"/>
        <path id="Path_875661" data-name="Path 875661" d="M158.645,10.626l-16.8,16.8v4.989l21.787-21.787Z" transform="translate(-141.846 -10.626)" fill="#225a78"/>
        <path id="Path_875662" data-name="Path 875662" d="M147.646,10.626l-5.8,5.8v4.989l10.788-10.788Z" transform="translate(-141.846 -10.626)" fill="#225a78"/>
        <path id="Path_875663" data-name="Path 875663" d="M268.109,147.676H273.1l5.8-5.8v-4.988Z" transform="translate(-204.61 -73.39)" fill="#225a78"/>
        <path id="Path_875664" data-name="Path 875664" d="M246.238,136.8h4.989l16.8-16.8v-4.988Z" transform="translate(-193.738 -62.518)" fill="#225a78"/>
        <path id="Path_875665" data-name="Path 875665" d="M224.368,125.933h4.989l27.8-27.8V93.147Z" transform="translate(-182.867 -51.646)" fill="#225a78"/>
        <path id="Path_875666" data-name="Path 875666" d="M202.5,115.061h4.989l38.795-38.8V71.277Z" transform="translate(-171.996 -40.775)" fill="#225a78"/>
        <path id="Path_875667" data-name="Path 875667" d="M180.628,104.19h4.988L235.41,54.4V49.407Z" transform="translate(-161.123 -29.904)" fill="#225a78"/>
        <path id="Path_875668" data-name="Path 875668" d="M158.757,93.318h4.989l60.792-60.793V27.536Z" transform="translate(-150.252 -19.032)" fill="#225a78"/>
      </g>
      <rect id="Rectangle_403642" data-name="Rectangle 403642" width="62.268" height="62.267" transform="translate(518.1 8094.346)" fill="none" stroke="#225a78" stroke-linecap="round" stroke-linejoin="round" stroke-width="2"/>
      <rect id="Rectangle_403641" data-name="Rectangle 403641" width="135.46" height="135.39" transform="translate(530.661 8008.801)" fill="#88c0de"/>
      <g id="Group_1102951" data-name="Group 1102951" transform="translate(554.661 8028.801)">
        <g id="Group_1102950" data-name="Group 1102950" clip-path="url(#clip-path)">
          <path id="Path_879861" data-name="Path 879861" d="M15.98,2.593A3.266,3.266,0,0,1,18.565.007l48.16,0A2.628,2.628,0,0,1,68.39.636c2.651,3.121,6.551,5.948,9.079,9.081a3.669,3.669,0,0,1,.807,2.411,90.093,90.093,0,0,1,0,10.7c-.086,1.065-.435,1.955-1.672,1.9-.539-.024-1.435-.541-1.435-1.1v-10.8l-.173-.173h-7.47a4.946,4.946,0,0,1-.829-.32,2.754,2.754,0,0,1-1.182-1.921V3.11H19.083V7.765l.173.173H59.02a4.915,4.915,0,0,1,1.461.7c2.553,3.054,6.415,5.817,8.862,8.858a3.618,3.618,0,0,1,.883,1.766,27.629,27.629,0,0,1,.005,4.029,1.577,1.577,0,0,1-2.594,1.089,5.808,5.808,0,0,1-.514-.865V20.581H59.365c-.655,0-1.781-1.248-1.781-1.9V11.213l-.173-.173H11.153v4.828H50.515a3.581,3.581,0,0,1,2.186.917c3.02,2.489,5.729,6.141,8.733,8.737A4.782,4.782,0,0,1,62.3,27.19V33.4l.226.115a14.141,14.141,0,0,1,18.716,6.113,14.465,14.465,0,0,1-2.965,17.107l0,19.428a3.876,3.876,0,0,1-.966,2.655,6.568,6.568,0,0,1-1.4.845H70.4l-.173.173v5.4c0,.948-1.763,2.471-2.7,2.471H62.3V93.05a3.419,3.419,0,0,1-2.811,2.591l-57.16-.083A3.355,3.355,0,0,1,0,92.6V19.025a3.28,3.28,0,0,1,3.165-3.157H7.878L8.05,15.7V10.409a3.573,3.573,0,0,1,2.586-2.471H15.98c.171-1.645-.231-3.757,0-5.345M72.754,9.547,68.616,5.409V9.374l.173.173Zm-7.93,7.931-4.137-4.023v4.023ZM49.539,18.972H3.4c-.038,0-.175.152-.288.115V92.533h7.47V78.222a4.725,4.725,0,0,1,.4-.869,2.074,2.074,0,0,1,1.052-.557c2.6.149,5.476-.233,8.039-.014a2.02,2.02,0,0,1,1.26.464,2.913,2.913,0,0,1,.518,1.091V92.533h3.792V67.878c0-.18.8-1,1.1-.971L35.58,66.9a1.637,1.637,0,0,1,1.2,1.442V92.533h3.792V71.326a1.621,1.621,0,0,1,1.217-1.081c2.721.18,5.825-.275,8.5-.016a1.528,1.528,0,0,1,.916.348,5.808,5.808,0,0,1,.514.865V92.533h7.47V69.717a4.5,4.5,0,0,1,.343-.576,1.5,1.5,0,0,1,2.248-.06,3.1,3.1,0,0,1,.512.752V84.6h4.827V69.947a5.311,5.311,0,0,1,.247-.557,1.569,1.569,0,0,1,2.274-.469,2.416,2.416,0,0,1,.582.8v6.839h4.769l.173-.173V59.028l-.238-.127A14.162,14.162,0,0,1,59.192,35.7V28.626l-7.961-.141a2.33,2.33,0,0,1-1.439-1.319,9.041,9.041,0,0,1-.253-.9Zm3.1,6.437c.113-.037.249.115.288.115h3.677l.117-.347-3.674-3.682-.408-.109Zm15.032,9.8a11.075,11.075,0,0,0-9.572,7.9c-2.89,9.911,8.342,18.065,16.872,12.162,9.265-6.411,4.089-20.961-7.3-20.059M28.737,92.533h4.77l.173-.173V70.177a1.953,1.953,0,0,0-.287-.287H28.909l-.173.173Zm19.883,0V73.4l-.173-.173H43.965c-.038,0-.175.152-.287.115v19.2Zm-30-12.643h-4.77l-.172.173V92.533h5.057V80.176c0-.038-.153-.175-.115-.287" transform="translate(0 0)" fill="#12263f"/>
          <path id="Path_879862" data-name="Path 879862" d="M145.6,47.76c.073-.271-.07-.195-.147-.263a8.512,8.512,0,0,1-1.055-.891,1.556,1.556,0,0,1,2.177-2.177,42.718,42.718,0,0,1,4.774,3.731,1.568,1.568,0,0,1,0,2.42L146.2,54.514a1.562,1.562,0,0,1-1.851-2.311c.333-.564,1.122-.736,1.361-1.339h-13.5c-.4,0-.993-.856-1.067-1.234a1.731,1.731,0,0,1,1.528-1.869Z" transform="translate(-63.995 -21.547)" fill="#12263f"/>
          <path id="Path_879863" data-name="Path 879863" d="M25.319,49.364c.581.486.5,1.22.511,1.9,1.739.283,4.465,2.467,4.36,4.329a1.511,1.511,0,0,1-2.013,1.313c-.868-.285-.835-.878-1.278-1.479a3.356,3.356,0,0,0-4.707-.471,1.641,1.641,0,0,0-.158,2.463c.968.922,3.589,1.058,4.961,1.59,5.445,2.113,4.494,8.74-1.067,9.682-.2.959,0,1.789-1.178,2.154-1.379.427-2.223-.947-2.053-2.193A6.263,6.263,0,0,1,18.262,65.1c-.39-1.039-.414-2.446.951-2.661,1.95-.306,1.611,1.851,2.931,2.686a4.476,4.476,0,0,0,3.694.377c1.258-.376,2.232-1.374,1.356-2.669-.94-1.389-4.379-1.425-6.014-2.261a4.8,4.8,0,0,1-.207-8.557c.323-.192,1.635-.651,1.686-.728.11-.166.032-.79.13-1.134a1.6,1.6,0,0,1,2.531-.788" transform="translate(-8.8 -23.919)" fill="#12263f"/>
          <path id="Path_879864" data-name="Path 879864" d="M102.925,122.686c-.188.166,1.034.979,1.151,1.123,1.189,1.454-.381,3.4-2.29,2.143a44.481,44.481,0,0,1-4.317-3.384c-.819-.765-1.107-1.433-.4-2.458,1.623-1.056,3.274-2.876,4.873-3.862a1.567,1.567,0,0,1,2.3,2.066c-.286.463-1.081.832-1.432,1.269h13.275a2.425,2.425,0,0,1,.809.455,1.507,1.507,0,0,1,0,2.306,4.53,4.53,0,0,1-.576.343Z" transform="translate(-47.181 -56.59)" fill="#12263f"/>
          <path id="Path_879865" data-name="Path 879865" d="M22.711,118.362l20.542-.026a1.553,1.553,0,0,1,.117,3.1l-20.575,0a1.551,1.551,0,0,1-.084-3.078" transform="translate(-10.438 -57.755)" fill="#12263f"/>
          <path id="Path_879866" data-name="Path 879866" d="M57,59.757l20.893-.029a1.558,1.558,0,0,1-.118,3.106l-20.34,0A1.567,1.567,0,0,1,57,59.757" transform="translate(-27.262 -29.151)" fill="#12263f"/>
          <path id="Path_879867" data-name="Path 879867" d="M22.478,103.089l21.008-.029a1.563,1.563,0,0,1-.349,3.1H23.028a1.577,1.577,0,0,1-.55-3.075" transform="translate(-10.437 -50.3)" fill="#12263f"/>
          <path id="Path_879868" data-name="Path 879868" d="M57.234,75.032,77.659,75a1.557,1.557,0,0,1,.234,3.1H57.2a1.55,1.55,0,0,1,.033-3.076" transform="translate(-27.261 -36.607)" fill="#12263f"/>
          <path id="Path_879869" data-name="Path 879869" d="M130.689,77.183c-1.381-1.424-4.828-.309-3.674,1.537.449.719,3.063,1.01,3.974,1.324,4.009,1.386,4.9,6.292.892,8.194-.264.125-1.44.463-1.482.53-.141.225.168.727-.416,1.365a1.507,1.507,0,0,1-2.646-.69c-.083-.243,0-.577-.168-.752-.12-.122-1-.372-1.3-.535-1.163-.621-2.931-2.615-2.554-4a1.754,1.754,0,0,1,1.28-1.138c2.076-.232,1.312,2.3,3.6,2.7,1.159.2,3.583-.1,3.057-1.794-.341-1.1-3.5-1.377-4.542-1.778a4.368,4.368,0,0,1,.568-8.45,1.64,1.64,0,0,1,2.636-1.652c.651.6.328,1.249.523,1.546.05.076,1.354.552,1.659.754,1.122.743,2.887,3,1.451,4.185a1.516,1.516,0,0,1-1.957,0c-.388-.33-.563-.993-.9-1.341" transform="translate(-60.159 -34.954)" fill="#12263f"/>
        </g>
      </g>
    </g>
  </g>
</svg>
