<svg xmlns="http://www.w3.org/2000/svg" xmlns:xlink="http://www.w3.org/1999/xlink" width="180" height="180" viewBox="0 0 180 180">
  <defs>
    <clipPath id="clip-path">
      <rect id="Rectangle_405179" data-name="Rectangle 405179" width="96.221" height="95.986" fill="#12263f"/>
    </clipPath>
  </defs>
  <g id="img11" transform="translate(-358.668 -5326)">
    <rect id="Rectangle_403656" data-name="Rectangle 403656" width="180" height="180" transform="translate(358.668 5326)" fill="none"/>
    <g id="Group_1101106" data-name="Group 1101106" transform="translate(-148.045 -2662)">
      <g id="Group_1101010" data-name="Group 1101010" transform="translate(601.04 7999.387)">
        <path id="Path_875656" data-name="Path 875656" d="M213.638,10.626,141.848,82.417v2.494h2.494L216.133,13.12V10.626Z" transform="translate(-141.846 -10.626)" fill="#225a78"/>
        <path id="Path_875657" data-name="Path 875657" d="M202.64,10.626,141.848,71.419v4.989l65.781-65.782Z" transform="translate(-141.846 -10.626)" fill="#225a78"/>
        <path id="Path_875658" data-name="Path 875658" d="M191.64,10.626,141.847,60.42v4.988l54.782-54.783Z" transform="translate(-141.846 -10.626)" fill="#225a78"/>
        <path id="Path_875659" data-name="Path 875659" d="M180.642,10.626l-38.8,38.8V54.41l43.784-43.784Z" transform="translate(-141.846 -10.626)" fill="#225a78"/>
        <path id="Path_875660" data-name="Path 875660" d="M169.644,10.626l-27.8,27.8v4.988l32.786-32.786Z" transform="translate(-141.846 -10.626)" fill="#225a78"/>
        <path id="Path_875661" data-name="Path 875661" d="M158.645,10.626l-16.8,16.8v4.989l21.787-21.787Z" transform="translate(-141.846 -10.626)" fill="#225a78"/>
        <path id="Path_875662" data-name="Path 875662" d="M147.646,10.626l-5.8,5.8v4.989l10.788-10.788Z" transform="translate(-141.846 -10.626)" fill="#225a78"/>
        <path id="Path_875663" data-name="Path 875663" d="M268.109,147.676H273.1l5.8-5.8v-4.988Z" transform="translate(-204.61 -73.39)" fill="#225a78"/>
        <path id="Path_875664" data-name="Path 875664" d="M246.238,136.8h4.989l16.8-16.8v-4.988Z" transform="translate(-193.738 -62.518)" fill="#225a78"/>
        <path id="Path_875665" data-name="Path 875665" d="M224.368,125.933h4.989l27.8-27.8V93.147Z" transform="translate(-182.867 -51.646)" fill="#225a78"/>
        <path id="Path_875666" data-name="Path 875666" d="M202.5,115.061h4.989l38.795-38.8V71.277Z" transform="translate(-171.996 -40.775)" fill="#225a78"/>
        <path id="Path_875667" data-name="Path 875667" d="M180.628,104.19h4.988L235.41,54.4V49.407Z" transform="translate(-161.123 -29.904)" fill="#225a78"/>
        <path id="Path_875668" data-name="Path 875668" d="M158.757,93.318h4.989l60.792-60.793V27.536Z" transform="translate(-150.252 -19.032)" fill="#225a78"/>
      </g>
      <rect id="Rectangle_403642" data-name="Rectangle 403642" width="62.268" height="62.267" transform="translate(518.1 8094.346)" fill="none" stroke="#225a78" stroke-linecap="round" stroke-linejoin="round" stroke-width="2"/>
      <rect id="Rectangle_403641" data-name="Rectangle 403641" width="135.46" height="135.39" transform="translate(530.661 8008.6)" fill="#88c0de"/>
      <g id="Group_1102947" data-name="Group 1102947" transform="translate(550.661 8028.6)">
        <g id="Group_1102947-2" data-name="Group 1102947" clip-path="url(#clip-path)">
          <path id="Path_879833" data-name="Path 879833" d="M15.72,1.106a1.557,1.557,0,0,1,1.437-1.1l65.7.057A1.828,1.828,0,0,1,83.9,1.794L83.889,40.3c8.063,5.912,8.224,18.712,0,24.536V73.95c2.28-.658,4.517-1.848,6.781-2.5,5.175-1.5,7.568,5.011,3.475,7.974L83.911,84.926l-.029,9.488a1.749,1.749,0,0,1-1.228,1.54l-73.8.032A9.438,9.438,0,0,1,.408,88.743C-.186,78.372.316,67.912.143,57.507c-.092-.571.665-1.783,1.216-1.783H15.547l.173-.173v-18.4H4.128a9.973,9.973,0,0,1-1.942-.826A4.95,4.95,0,0,1,.163,32.581c.316-7.057-.47-14.555-.02-21.561A4.9,4.9,0,0,1,2.724,6.681a7.126,7.126,0,0,1,1.634-.557H15.72ZM80.777,3.124H18.835v3h23.7c1.826,0,4.207,2.415,4.1,4.321l-.018,22.832c-.141,1.662-2.31,3.877-3.967,3.877H18.835l.005,49.663L18.23,89.9l-1.7,2.969h64.25V86.926l-.239-.127a31.515,31.515,0,0,1-5.411,2.552,13,13,0,0,1-7.639-.324c-3.809-1.23-7.474-3.327-11.511-3.773v1.788a2.087,2.087,0,0,1-1.334,1.2c-3.066-.21-6.558.305-9.572.013a1.686,1.686,0,0,1-1.552-1.505H22.007l-.173-.173V83.639H43.519V80.525H29.678V77.41H43.519V64.895c0-.036.22-.6.257-.665a1.606,1.606,0,0,1,1.294-.783c3.014-.292,6.507.224,9.572.013a2.087,2.087,0,0,1,1.334,1.2v1.9A46.258,46.258,0,0,1,66.5,68.331c1.016.305,2.886,1.215,3.732,1.343,2.516.381,6.06-.691,8.321.676a4.248,4.248,0,0,1,2,2.906c.116.049.229-.269.229-.288V67.086c0-.427-1.17.2-1.36.256-11.257,3.3-22.06-5.576-20.181-17.3,1.55-9.671,12.262-15.68,21.3-11.668l.239-.128ZM4.617,9.265a1.653,1.653,0,0,0-1.3,1.24l-.06,21.978a1.693,1.693,0,0,0,1.555,1.56H42.083A1.493,1.493,0,0,0,43.525,32.6l-.1-22.409a1.62,1.62,0,0,0-1.461-.961ZM73.141,40.3c-8.646.8-13.569,10.568-9.5,18.193a12.389,12.389,0,1,0,9.5-18.193M15.72,58.839H3.263V87.157c0,3.4,3.717,6.04,6.964,5.7,2.57-.272,5.493-2.9,5.493-5.58Zm37.143,7.729H46.634V85.139h6.229Zm3.114,3.23V82.139c4.3.3,8.15,2.468,12.167,3.809,4.645,1.55,6.562.413,10.559-1.672,4.618-2.409,9.131-5.036,13.753-7.44.982-.921.965-2.542-.633-2.518-4.521,1.378-9.466,4.3-14.213,4.6-3.515.216-7.252-.172-10.79,0V75.968l.173-.173h9.574a2.825,2.825,0,0,0,.752-.516,1.582,1.582,0,0,0-.777-2.459c-2.131-.237-4.694.239-6.771-.034a33.571,33.571,0,0,1-3.734-1.341A36.5,36.5,0,0,0,55.977,69.8" transform="translate(0 -0.001)" fill="#12263f"/>
          <path id="Path_879834" data-name="Path 879834" d="M87.243,116.225v3.115H54.714V116.4l.173-.173Z" transform="translate(-32.88 -69.845)" fill="#12263f"/>
          <path id="Path_879835" data-name="Path 879835" d="M54.887,131.834H84.07l.173.173v2.768l-.173.173H54.887l-.173-.173v-2.768Z" transform="translate(-32.88 -79.225)" fill="#12263f"/>
          <rect id="Rectangle_405178" data-name="Rectangle 405178" width="27.914" height="3.115" transform="translate(49.748 12.352)" fill="#12263f"/>
          <path id="Path_879836" data-name="Path 879836" d="M105.186,100.9v2.941l-.173.173H82.058l-.173-.173V100.9Z" transform="translate(-49.208 -60.638)" fill="#12263f"/>
          <path id="Path_879837" data-name="Path 879837" d="M54.887,147.443H73.227l.173.173v2.768l-.173.173H54.887l-.173-.173v-2.768Z" transform="translate(-32.88 -88.605)" fill="#12263f"/>
          <path id="Path_879838" data-name="Path 879838" d="M166.65,18.457H148.078V15.342h18.4l.173.173Z" transform="translate(-88.987 -9.22)" fill="#12263f"/>
          <path id="Path_879839" data-name="Path 879839" d="M27.532,38.3a7.369,7.369,0,0,1,3.807,5.711,26.058,26.058,0,0,1-.111,4.627,1.605,1.605,0,0,1-1.217.859c-4.08-.292-8.679.379-12.7,0a1.576,1.576,0,0,1-1.442-1.557,18.255,18.255,0,0,1,.27-5.047,7.8,7.8,0,0,1,3.552-4.664,4.834,4.834,0,0,1,2.139-6.948,4.651,4.651,0,0,1,6.29,5.482c-.148.559-.482,1.01-.59,1.534m-4.306-4.238c-2.177.5-.806,4.151,1.291,2.791a1.566,1.566,0,0,0-1.291-2.791m5.109,12.318V44.71c0-4.374-6.236-6.222-8.628-2.284a8.57,8.57,0,0,0-.715,1.707v2.249Z" transform="translate(-9.5 -18.574)" fill="#12263f"/>
          <path id="Path_879840" data-name="Path 879840" d="M63.581,30.97l12.783-.032a1.684,1.684,0,0,1,1.552,1.678,40.961,40.961,0,0,1,0,6,1.734,1.734,0,0,1-1.783,1.677c-3.869-.271-8.192.345-12.006,0a1.7,1.7,0,0,1-1.786-1.559,42.582,42.582,0,0,1,0-6.232,1.728,1.728,0,0,1,1.238-1.53M74.8,34.058H65.458V37l.173.173h9L74.8,37Z" transform="translate(-37.395 -18.592)" fill="#12263f"/>
          <path id="Path_879841" data-name="Path 879841" d="M66.565,72.8V69.686H80.349l.173.173v2.768l-.173.173Z" transform="translate(-40.002 -41.877)" fill="#12263f"/>
          <path id="Path_879842" data-name="Path 879842" d="M181.34,108.709c.079.079-.128,1.4.106,1.769.066.1,1.038.544,1.27.719a4.664,4.664,0,0,1,1.738,3.626H181.34a1.525,1.525,0,1,0-2.946.581c.313,1.144,1.865.948,2.74,1.182a4.648,4.648,0,0,1,1.645,8.038c-.295.238-1.439.755-1.439.983v1.673H178.4l-.173-.173V125.32a4.379,4.379,0,0,1-3-4.268h2.941c.318.6.353,1.22,1.116,1.421a1.5,1.5,0,0,0,2.065-1.364c.043-1.821-1.8-1.471-3-1.851a4.617,4.617,0,0,1-.121-8.7v-1.846Z" transform="translate(-105.292 -65.328)" fill="#12263f"/>
        </g>
      </g>
    </g>
  </g>
</svg>
