<svg xmlns="http://www.w3.org/2000/svg" xmlns:xlink="http://www.w3.org/1999/xlink" width="180" height="180" viewBox="0 0 180 180">
  <defs>
    <clipPath id="clip-path">
      <rect id="Rectangle_405173" data-name="Rectangle 405173" width="90.154" height="90.22" fill="#12263f"/>
    </clipPath>
  </defs>
  <g id="img8" transform="translate(-358.668 -5326)">
    <rect id="Rectangle_403656" data-name="Rectangle 403656" width="180" height="180" transform="translate(358.668 5326)" fill="none"/>
    <g id="Group_1101106" data-name="Group 1101106" transform="translate(-148.045 -2662)">
      <g id="Group_1101010" data-name="Group 1101010" transform="translate(601.04 7999.387)">
        <path id="Path_875656" data-name="Path 875656" d="M213.638,10.626,141.848,82.417v2.494h2.494L216.133,13.12V10.626Z" transform="translate(-141.846 -10.626)" fill="#225a78"/>
        <path id="Path_875657" data-name="Path 875657" d="M202.64,10.626,141.848,71.419v4.989l65.781-65.782Z" transform="translate(-141.846 -10.626)" fill="#225a78"/>
        <path id="Path_875658" data-name="Path 875658" d="M191.64,10.626,141.847,60.42v4.988l54.782-54.783Z" transform="translate(-141.846 -10.626)" fill="#225a78"/>
        <path id="Path_875659" data-name="Path 875659" d="M180.642,10.626l-38.8,38.8V54.41l43.784-43.784Z" transform="translate(-141.846 -10.626)" fill="#225a78"/>
        <path id="Path_875660" data-name="Path 875660" d="M169.644,10.626l-27.8,27.8v4.988l32.786-32.786Z" transform="translate(-141.846 -10.626)" fill="#225a78"/>
        <path id="Path_875661" data-name="Path 875661" d="M158.645,10.626l-16.8,16.8v4.989l21.787-21.787Z" transform="translate(-141.846 -10.626)" fill="#225a78"/>
        <path id="Path_875662" data-name="Path 875662" d="M147.646,10.626l-5.8,5.8v4.989l10.788-10.788Z" transform="translate(-141.846 -10.626)" fill="#225a78"/>
        <path id="Path_875663" data-name="Path 875663" d="M268.109,147.676H273.1l5.8-5.8v-4.988Z" transform="translate(-204.61 -73.39)" fill="#225a78"/>
        <path id="Path_875664" data-name="Path 875664" d="M246.238,136.8h4.989l16.8-16.8v-4.988Z" transform="translate(-193.738 -62.518)" fill="#225a78"/>
        <path id="Path_875665" data-name="Path 875665" d="M224.368,125.933h4.989l27.8-27.8V93.147Z" transform="translate(-182.867 -51.646)" fill="#225a78"/>
        <path id="Path_875666" data-name="Path 875666" d="M202.5,115.061h4.989l38.795-38.8V71.277Z" transform="translate(-171.996 -40.775)" fill="#225a78"/>
        <path id="Path_875667" data-name="Path 875667" d="M180.628,104.19h4.988L235.41,54.4V49.407Z" transform="translate(-161.123 -29.904)" fill="#225a78"/>
        <path id="Path_875668" data-name="Path 875668" d="M158.757,93.318h4.989l60.792-60.793V27.536Z" transform="translate(-150.252 -19.032)" fill="#225a78"/>
      </g>
      <rect id="Rectangle_403642" data-name="Rectangle 403642" width="62.268" height="62.267" transform="translate(518.1 8094.346)" fill="none" stroke="#225a78" stroke-linecap="round" stroke-linejoin="round" stroke-width="2"/>
      <rect id="Rectangle_403641" data-name="Rectangle 403641" width="135.46" height="135.39" transform="translate(530.428 8008.8)" fill="#88c0de"/>
      <g id="Group_1102943" data-name="Group 1102943" transform="translate(553.428 8031.8)">
        <g id="Group_1102942" data-name="Group 1102942" clip-path="url(#clip-path)">
          <path id="Path_879806" data-name="Path 879806" d="M83.272,53.564c10.861,9.72,8.466,27.5-4.361,34.216A20.947,20.947,0,0,1,52,81.318l-.219-.1-48.688,0A3.2,3.2,0,0,1,0,78.55L.062,13.023,12.542.425l.637-.412L60.5,0A3.1,3.1,0,0,1,63.07,2.573l-.009,45.547.266.883a4.306,4.306,0,0,1,1.186-.385,21.08,21.08,0,0,1,18.76,4.945M60.128,3.05H15.01v9.706a9.374,9.374,0,0,1-.437.927,3.9,3.9,0,0,1-1.819,1.329H3.048V78.177H50.054c-.211-.866-.639-1.65-.914-2.5A20.992,20.992,0,0,1,54.932,53.62a25.64,25.64,0,0,1,5.2-3.51ZM11.967,5.358,5.3,11.864l.106.21h6.4l.157-.157ZM56.394,81.908a18.032,18.032,0,1,0,6.5-29.666,18.062,18.062,0,0,0-6.5,29.666" fill="#12263f"/>
          <path id="Path_879807" data-name="Path 879807" d="M17.842,36.142l40.06-.03a3.052,3.052,0,0,1,2.522,2.1c.248,7.563.251,15.221,0,22.783a2.911,2.911,0,0,1-2.521,2.1L17.574,63.01a3.1,3.1,0,0,1-2.117-2.6l-.005-21.512a3.024,3.024,0,0,1,2.39-2.752m.814,2.913-.158.157v5.771l.158.158H57.374l.157-.158V39.212l-.157-.157Zm5.823,9.128c-.1.034-.228-.1-.262-.1H18.656l-.158.157v11.91h5.823l.158-.158ZM40.953,52.59V48.235l-.157-.157H27.68l-.158.157V52.59ZM44,48.183v4.25l.157.157H57.374l.157-.157v-4.2l-.157-.157H44.258c-.035,0-.159.139-.262.1m-3.043,7.45H27.522v4.512h13.43Zm3.2,0L44,55.79v4.2l.157.158H57.374l.157-.158v-4.2l-.157-.157Z" transform="translate(-6.427 -15.019)" fill="#12263f"/>
          <path id="Path_879808" data-name="Path 879808" d="M69.587,13.393a1.59,1.59,0,0,1-1.381,2.6l-35.679,0c-2.2-.237-2.089-2.868-.214-3.048l36.316,0a1.87,1.87,0,0,1,.958.458" transform="translate(-12.849 -5.379)" fill="#12263f"/>
          <path id="Path_879809" data-name="Path 879809" d="M32.246,25.726,68.42,25.7a1.529,1.529,0,0,1,.212,3.045l-36.307,0a1.516,1.516,0,0,1-.079-3.018" transform="translate(-12.856 -10.689)" fill="#12263f"/>
          <path id="Path_879810" data-name="Path 879810" d="M20.995,93.042c.5.476.354,1.112.551,1.39.11.155,1.022.545,1.318.781,1.048.835,1.945,2.623.265,3.3-1.548.626-1.735-.951-2.627-1.253a1.519,1.519,0,0,0-1.611,2.451c.558.593,2.144.475,3.072.915a4.51,4.51,0,0,1,.614,7.723c-.192.137-1,.52-1.03.568-.119.173-.071.546-.147.774a1.5,1.5,0,0,1-2.8.071c-.1-.233-.15-.8-.213-.888-.037-.052-.892-.436-1.121-.61a4.305,4.305,0,0,1-1.274-1.558,1.5,1.5,0,0,1,2.368-1.635c.283.236.443.678.793.885a1.5,1.5,0,0,0,1.985-2.195c-.582-.742-1.419-.51-2.244-.694a4.53,4.53,0,0,1-1.734-7.9c.234-.183,1.157-.635,1.2-.692.1-.136.166-.707.291-.967a1.526,1.526,0,0,1,2.349-.466" transform="translate(-6.44 -38.543)" fill="#12263f"/>
          <path id="Path_879811" data-name="Path 879811" d="M37.226,92.732l26-.025a1.493,1.493,0,0,1,.533,2.841c-8.782.227-17.641.03-26.452.1a1.489,1.489,0,0,1-.078-2.916" transform="translate(-15.004 -38.558)" fill="#12263f"/>
          <path id="Path_879812" data-name="Path 879812" d="M36.542,108.132c-1.152-.866-.218-2.878,1.265-2.685l22.142,0a1.532,1.532,0,0,1,.318,3.044l-23.224-.074a1.652,1.652,0,0,1-.5-.29" transform="translate(-14.983 -43.851)" fill="#12263f"/>
          <path id="Path_879813" data-name="Path 879813" d="M37.328,118.424,58.6,118.4c2.051.208,2,2.83-.1,3.04H37.617a1.518,1.518,0,0,1-.289-3.014" transform="translate(-14.998 -49.243)" fill="#12263f"/>
          <path id="Path_879814" data-name="Path 879814" d="M116.481,100.438a4.546,4.546,0,0,1,5.138,5.768,9.8,9.8,0,0,1-1.711,2.695c-2.766,3.722-5.788,7.627-8.706,11.23-2.248,2.776-4.66,4.087-7.759,1.376a51.4,51.4,0,0,1-4.354-4.354c-4.492-5.263,3.152-10.842,7.19-5.618.153-.159.328-.3.47-.473,2.37-2.846,4.531-6.244,6.978-8.97a4.935,4.935,0,0,1,2.755-1.652m-.251,3.369-8.536,10.927c-2.214,2.235-3.7-2.421-5.5-2.364a1.543,1.543,0,0,0-1.152,2.413l4.964,4.9a1.488,1.488,0,0,0,2.062-.486l10.421-13.4a1.511,1.511,0,0,0-2.254-1.991" transform="translate(-40.642 -41.752)" fill="#12263f"/>
        </g>
      </g>
    </g>
  </g>
</svg>
