<svg xmlns="http://www.w3.org/2000/svg" xmlns:xlink="http://www.w3.org/1999/xlink" width="180" height="180" viewBox="0 0 180 180">
  <defs>
    <clipPath id="clip-path">
      <rect id="Rectangle_405174" data-name="Rectangle 405174" width="89.411" height="91.818" fill="#12263f"/>
    </clipPath>
  </defs>
  <g id="img9" transform="translate(-358.668 -5326)">
    <rect id="Rectangle_403656" data-name="Rectangle 403656" width="180" height="180" transform="translate(358.668 5326)" fill="none"/>
    <g id="Group_1101106" data-name="Group 1101106" transform="translate(-148.045 -2662)">
      <g id="Group_1101010" data-name="Group 1101010" transform="translate(601.04 7999.387)">
        <path id="Path_875656" data-name="Path 875656" d="M213.638,10.626,141.848,82.417v2.494h2.494L216.133,13.12V10.626Z" transform="translate(-141.846 -10.626)" fill="#225a78"/>
        <path id="Path_875657" data-name="Path 875657" d="M202.64,10.626,141.848,71.419v4.989l65.781-65.782Z" transform="translate(-141.846 -10.626)" fill="#225a78"/>
        <path id="Path_875658" data-name="Path 875658" d="M191.64,10.626,141.847,60.42v4.988l54.782-54.783Z" transform="translate(-141.846 -10.626)" fill="#225a78"/>
        <path id="Path_875659" data-name="Path 875659" d="M180.642,10.626l-38.8,38.8V54.41l43.784-43.784Z" transform="translate(-141.846 -10.626)" fill="#225a78"/>
        <path id="Path_875660" data-name="Path 875660" d="M169.644,10.626l-27.8,27.8v4.988l32.786-32.786Z" transform="translate(-141.846 -10.626)" fill="#225a78"/>
        <path id="Path_875661" data-name="Path 875661" d="M158.645,10.626l-16.8,16.8v4.989l21.787-21.787Z" transform="translate(-141.846 -10.626)" fill="#225a78"/>
        <path id="Path_875662" data-name="Path 875662" d="M147.646,10.626l-5.8,5.8v4.989l10.788-10.788Z" transform="translate(-141.846 -10.626)" fill="#225a78"/>
        <path id="Path_875663" data-name="Path 875663" d="M268.109,147.676H273.1l5.8-5.8v-4.988Z" transform="translate(-204.61 -73.39)" fill="#225a78"/>
        <path id="Path_875664" data-name="Path 875664" d="M246.238,136.8h4.989l16.8-16.8v-4.988Z" transform="translate(-193.738 -62.518)" fill="#225a78"/>
        <path id="Path_875665" data-name="Path 875665" d="M224.368,125.933h4.989l27.8-27.8V93.147Z" transform="translate(-182.867 -51.646)" fill="#225a78"/>
        <path id="Path_875666" data-name="Path 875666" d="M202.5,115.061h4.989l38.795-38.8V71.277Z" transform="translate(-171.996 -40.775)" fill="#225a78"/>
        <path id="Path_875667" data-name="Path 875667" d="M180.628,104.19h4.988L235.41,54.4V49.407Z" transform="translate(-161.123 -29.904)" fill="#225a78"/>
        <path id="Path_875668" data-name="Path 875668" d="M158.757,93.318h4.989l60.792-60.793V27.536Z" transform="translate(-150.252 -19.032)" fill="#225a78"/>
      </g>
      <rect id="Rectangle_403642" data-name="Rectangle 403642" width="62.268" height="62.267" transform="translate(518.1 8094.346)" fill="none" stroke="#225a78" stroke-linecap="round" stroke-linejoin="round" stroke-width="2"/>
      <rect id="Rectangle_403641" data-name="Rectangle 403641" width="135.46" height="135.39" transform="translate(530.428 8008.8)" fill="#88c0de"/>
      <g id="Group_1102944" data-name="Group 1102944" transform="translate(553.428 8030.8)">
        <g id="Group_1102944-2" data-name="Group 1102944" clip-path="url(#clip-path)">
          <path id="Path_879815" data-name="Path 879815" d="M71.858,18.367V35.5a2.143,2.143,0,0,1-.926,1.1l-5.9,2.43,23.925,40.11c1.458,2.347-.812,6.477-3.487,6.477H72.018l-.16.16v4.8c0,.3-.748,1.059-1.072,1.17l-69.65.065c-.412-.323-.854-.557-1.067-1.07C.023,77.859-.083,64.921.122,52.042l.335-.519c5.678-2.564,11.6-4.666,17.36-7.084A2.2,2.2,0,0,1,19.2,44.6a2.683,2.683,0,0,1,.67.937V52.74l20.893-8.3a1.69,1.69,0,0,1,2.056,1.2v7.1l.3-.178,3.956-6.6c-.575-.336-1.27-.855-1.27-1.6V37.475l-21,8.408c-.58.3-1.843-.547-1.843-1.1V37.635l-.217-.114L1.863,45.883A1.683,1.683,0,0,1,.07,44.844L.034,9.573A11.019,11.019,0,0,1,9.675,0h64.7c4.758.493,9.253,4.584,9.659,9.448a43.56,43.56,0,0,1-.029,6.6,3.33,3.33,0,0,1-2.483,2.32Zm-3.1,0H20.888a3.537,3.537,0,0,1-1.912-1.183c-1.362-1.771-.3-6.157-.947-8.554C15.838.514,3.569,1.43,3,10.836l.02,31.053c.045.11.068.157.206.134a10.881,10.881,0,0,0,1.086-.412c6.78-2.5,13.359-5.629,20.19-7.969.476-.074,1.451.693,1.451,1.111v7.152l.221.118,21.18-8.372c.489-.043,1.548.62,1.548,1.1v7.312a1.065,1.065,0,0,0,.794-.433c2.551-3.331,4.928-12.25,10.683-9.071,1.5.83,1.977,2.487,3,3.72l5.377-2.169ZM74.26,3.1H18.273a12.028,12.028,0,0,1,2.592,4.292,14.472,14.472,0,0,1,.5,1.952v5.764l.16.16H80.878c.152-.094.147-.212.165-.368a25.628,25.628,0,0,0-.25-6.058A7.9,7.9,0,0,0,74.26,3.1M57.849,35.043a1.56,1.56,0,0,0-.725.347C47.9,50.343,38.978,65.508,29.933,80.573a1.617,1.617,0,0,0,1.625,2.062H84.618a1.6,1.6,0,0,0,1.418-2.494l-26.579-44.3a1.636,1.636,0,0,0-1.608-.8M16.779,48.257l-13.77,5.6V88.555l.16.16H68.762v-3.1H30.709c-2.52,0-4.779-3.8-3.653-6.109L40.61,56.764c.221-.412-.4-.5-.612-.824a3.715,3.715,0,0,1-.27-.691V48.257L19.043,56.446a1.634,1.634,0,0,1-2.264-1.3Z" transform="translate(0)" fill="#12263f"/>
          <path id="Path_879816" data-name="Path 879816" d="M28.594,165.292l8.509-.019a1.531,1.531,0,0,1-.111,2.973c-2.534-.232-5.747.348-8.2,0a1.525,1.525,0,0,1-.2-2.955" transform="translate(-13.766 -82.637)" fill="#12263f"/>
          <path id="Path_879817" data-name="Path 879817" d="M13.267,165.252a9.5,9.5,0,0,1,2.739.1,1.541,1.541,0,0,1-.424,2.859,6.34,6.34,0,0,1-2.659-.2,1.565,1.565,0,0,1,.343-2.753" transform="translate(-6.127 -82.599)" fill="#12263f"/>
          <path id="Path_879818" data-name="Path 879818" d="M111.442,88.695a4.633,4.633,0,0,1,4.631,4.385c.355,5.083-.281,10.575,0,15.7a4.6,4.6,0,0,1-9.19-.106c-.329-5.068.259-10.488,0-15.594a4.636,4.636,0,0,1,4.558-4.386m0,3.1a1.508,1.508,0,0,0-1.461,1.292l.061,16.063a1.523,1.523,0,0,0,2.93-.369l.005-15.59a1.463,1.463,0,0,0-1.536-1.4" transform="translate(-53.39 -44.347)" fill="#12263f"/>
          <path id="Path_879819" data-name="Path 879819" d="M111.094,140.734c5.7-.626,7.1,7.559,1.815,8.967-6.466,1.723-8.112-8.277-1.815-8.967m.1,3.091c-1.527.316-1.351,2.932.4,2.972a1.518,1.518,0,1,0-.4-2.972" transform="translate(-53.564 -70.35)" fill="#12263f"/>
          <path id="Path_879820" data-name="Path 879820" d="M65.6,12.2,107,12.175a1.561,1.561,0,0,1,.214,3.1l-41.744,0A1.553,1.553,0,0,1,65.6,12.2" transform="translate(-32.094 -6.088)" fill="#12263f"/>
          <path id="Path_879821" data-name="Path 879821" d="M50.3,12.171a4.15,4.15,0,0,1,2.594.343,1.511,1.511,0,0,1-.7,2.729,11.885,11.885,0,0,1-2.023-.009,1.558,1.558,0,0,1,.126-3.063" transform="translate(-24.478 -6.055)" fill="#12263f"/>
        </g>
      </g>
    </g>
  </g>
</svg>
