<svg id="img14" xmlns="http://www.w3.org/2000/svg" xmlns:xlink="http://www.w3.org/1999/xlink" width="89.018" height="96" viewBox="0 0 89.018 96">
  <defs>
    <clipPath id="clip-path">
      <rect id="Rectangle_404788" data-name="Rectangle 404788" width="89.018" height="96" fill="none"/>
    </clipPath>
  </defs>
  <g id="Group_1102486" data-name="Group 1102486" clip-path="url(#clip-path)">
    <path id="Path_877206" data-name="Path 877206" d="M55.92.3l.021,13.712a7.019,7.019,0,0,0,6.122,5.911c3.586.334,8.326.03,12.037,0,.436,0,1.191.183,1.439-.262l.277.628L75.8,54.449A21.579,21.579,0,0,0,46.893,68.311c-3.436,12.237,3.931,24.146,16.09,27.208-.247.446-1,.258-1.439.262-18.568.2-37.147-.147-55.716,0-.935-.681-1.783-.1-2.74-.924-.239-.2-.282-.592-.548-.772-.207-.14-.555-.077-.711-.191C1.579,93.71-.347,90,.2,89.5V6.317c-.59-.8.251-2.8.784-3.532.554-.762,1.046-.683,1.559-1.057.258-.188.341-.593.7-.872C4.149.145,4.947.724,5.828.039L55.293.024c.308-.117.525.237.627.276M9.271,18.133c-1.759.934-1.673,3.145.47,3.365l20.151-.009c1.714-.719,1.908-2.483.145-3.284Zm0,9.94c-1.646.887-1.727,2.88.228,3.346l10.453.01c1.943-.816,1.806-2.885-.271-3.391Zm16.48,0c-1.863,1.056-1.51,2.878.465,3.37l39.522,0a1.71,1.71,0,1,0,0-3.418ZM9.279,38.022a1.719,1.719,0,0,0,.457,3.362l32.982-.005a1.709,1.709,0,1,0,0-3.418Zm39.76,0-1.1.729c-.439,1.3-.088,2.354,1.321,2.611,5.256-.391,11.324.554,16.48.018,1.573-.163,2.035-1.158,1.565-2.629l-1.322-.771ZM9.279,47.962c-1.982.76-1.457,2.942.48,3.339H29.621c2.063-.5,2.227-2.566.271-3.391Zm26.42,0c-1.882.693-1.487,2.732.209,3.349L49.5,51.3a1.74,1.74,0,0,0,.271-3.391Zm4.991,10.209-1.37-.332-30.312.055a1.733,1.733,0,0,0,.334,3.242l29.976.124c1.781-.23,2.413-1.625,1.373-3.089M9.008,67.834a1.67,1.67,0,0,0,.218,3.1H20.213a1.6,1.6,0,0,0-.272-3.128Zm16.48,0a1.67,1.67,0,0,0,.218,3.1H36.693a1.642,1.642,0,0,0,0-3.139Zm-16.48,9.94a1.67,1.67,0,0,0,.218,3.1H23.353a1.618,1.618,0,0,0,0-3.139Zm19.883,0a1.634,1.634,0,0,0,.216,3.094c2.3-.271,5.4.368,7.586,0,1.381-.233,1.565-2.475.218-3.1Z" transform="translate(0 0)" fill="#fff"/>
    <path id="Path_877207" data-name="Path 877207" d="M205.782,203.535a21.614,21.614,0,0,1,8.108,33.874c-4.682,5.561-13.778,8.995-20.926,7.2-12.159-3.062-19.527-14.971-16.09-27.208a21.579,21.579,0,0,1,28.908-13.862m2.88,13.6c-3.36-9.589-16.254-11.637-22.611-3.643-.874,1.1-2.734,3.665-1.03,4.654,2.049,1.19,2.708-1.43,3.76-2.709,4.763-5.8,13.622-4.205,16.737,2.354l-2.01-.865a1.6,1.6,0,0,0-1.773,2.558A49.844,49.844,0,0,0,207,223.111c1.265.6,1.589.366,2.441-.614a53.352,53.352,0,0,0,3.406-5.237c.425-2.7-3.019-2.764-3.655-.29Zm-19.1,11.772c.255-.26,1.377.889,1.752.993,2,.555,3.261-1.528,1.634-2.942a45.865,45.865,0,0,0-5.028-3.341,1.759,1.759,0,0,0-2.138.332,42.744,42.744,0,0,0-3.329,5.039,2.23,2.23,0,0,0-.42,1.046,1.755,1.755,0,0,0,3.014,1.156c.406-.376.546-1.615,1.375-1.5,1.222,4.705,6.352,8.236,11.114,8.637a14.049,14.049,0,0,0,11.12-4.584c.938-1.115,3.149-3.936,1.412-5.07-1.86-1.214-2.324.611-3.021,1.63-4.047,5.928-12.633,6.358-16.656.257-.189-.286-1.042-1.438-.829-1.654" transform="translate(-129.982 -149.086)" fill="#6fd1ef"/>
    <path id="Path_877208" data-name="Path 877208" d="M233.39,20.506c-.248.445-1,.258-1.439.262-3.711.033-8.452.338-12.037,0a7.019,7.019,0,0,1-6.122-5.911l-.021-13.712c.255.1.589.05.792.378Z" transform="translate(-157.851 -0.848)" fill="#c3c6c7"/>
    <path id="Path_877209" data-name="Path 877209" d="M94.989,107.168l39.988-.053a1.71,1.71,0,1,1,0,3.418l-39.522,0c-1.975-.492-2.328-2.314-.465-3.37" transform="translate(-69.238 -79.095)" fill="#c3c6c7"/>
    <path id="Path_877210" data-name="Path 877210" d="M31.988,145.177l33.439-.061a1.709,1.709,0,1,1,0,3.418l-32.982.005a1.718,1.718,0,0,1-.457-3.362" transform="translate(-22.709 -107.155)" fill="#c3c6c7"/>
    <path id="Path_877211" data-name="Path 877211" d="M63.358,221.434c1.04,1.464.409,2.859-1.373,3.089L32.009,224.4a1.733,1.733,0,0,1-.334-3.242l30.312-.055Z" transform="translate(-22.667 -163.264)" fill="#c3c6c7"/>
    <path id="Path_877212" data-name="Path 877212" d="M31.952,69.318l20.766.072c1.762.8,1.568,2.566-.145,3.284l-20.151.009c-2.144-.22-2.23-2.431-.47-3.365" transform="translate(-22.681 -51.185)" fill="#c3c6c7"/>
    <path id="Path_877213" data-name="Path 877213" d="M31.933,183.2l20.613-.052c1.956.825,1.792,2.893-.271,3.391H32.413c-1.938-.4-2.462-2.579-.48-3.339" transform="translate(-22.654 -135.239)" fill="#c3c6c7"/>
    <path id="Path_877214" data-name="Path 877214" d="M183.855,145.226l16.943-.041,1.322.77c.47,1.471.008,2.466-1.565,2.629-5.155.536-11.223-.409-16.48-.018-1.409-.257-1.76-1.315-1.322-2.611Z" transform="translate(-134.817 -107.206)" fill="#c3c6c7"/>
    <path id="Path_877215" data-name="Path 877215" d="M132.951,183.2l14.074-.053a1.74,1.74,0,0,1-.271,3.392l-13.594.01c-1.7-.617-2.091-2.656-.209-3.349" transform="translate(-97.252 -135.238)" fill="#c3c6c7"/>
    <path id="Path_877216" data-name="Path 877216" d="M31.776,297.191l14.344-.043a1.618,1.618,0,0,1,0,3.14H31.994a1.67,1.67,0,0,1-.218-3.1" transform="translate(-22.768 -219.417)" fill="#c2c5c6"/>
    <path id="Path_877217" data-name="Path 877217" d="M31.95,107.22l10.41-.035c2.077.506,2.214,2.575.271,3.391l-10.453-.01c-1.955-.466-1.873-2.459-.228-3.346" transform="translate(-22.679 -79.147)" fill="#c3c6c7"/>
    <path id="Path_877218" data-name="Path 877218" d="M94.776,259.192l11.2-.043a1.642,1.642,0,0,1,0,3.139H94.994a1.67,1.67,0,0,1-.218-3.1" transform="translate(-69.288 -191.358)" fill="#c2c5c6"/>
    <path id="Path_877219" data-name="Path 877219" d="M31.776,259.222l10.933-.033a1.6,1.6,0,0,1,.272,3.129H31.994a1.67,1.67,0,0,1-.218-3.1" transform="translate(-22.768 -191.388)" fill="#c2c5c6"/>
    <path id="Path_877220" data-name="Path 877220" d="M107.592,297.316l8.021,0c1.346.621,1.162,2.863-.218,3.1-2.183.368-5.29-.271-7.586,0a1.634,1.634,0,0,1-.216-3.094" transform="translate(-78.701 -219.54)" fill="#c2c5c6"/>
    <path id="Path_877221" data-name="Path 877221" d="M206.515,289.617c-.212.216.641,1.368.83,1.654,4.022,6.1,12.609,5.671,16.656-.257.7-1.02,1.16-2.845,3.021-1.63,1.737,1.134-.474,3.955-1.412,5.07a14.049,14.049,0,0,1-11.12,4.584c-4.762-.4-9.893-3.932-11.114-8.637-.828-.114-.969,1.125-1.375,1.5a1.755,1.755,0,0,1-3.014-1.156,2.23,2.23,0,0,1,.42-1.046,42.741,42.741,0,0,1,3.329-5.04,1.759,1.759,0,0,1,2.138-.332,45.857,45.857,0,0,1,5.028,3.341c1.627,1.414.364,3.5-1.634,2.942-.376-.1-1.5-1.254-1.752-.994" transform="translate(-146.932 -209.793)" fill="#e5ecf1"/>
    <path id="Path_877222" data-name="Path 877222" d="M232.086,235.91l.53-.167c.637-2.474,4.08-2.413,3.655.29a53.3,53.3,0,0,1-3.406,5.237c-.851.98-1.175,1.21-2.441.614a49.842,49.842,0,0,1-5.267-3.626,1.6,1.6,0,0,1,1.773-2.558l2.01.865c-3.114-6.56-11.973-8.15-16.737-2.354-1.051,1.279-1.711,3.9-3.76,2.709-1.7-.989.156-3.555,1.03-4.654,6.357-7.993,19.251-5.945,22.611,3.643" transform="translate(-153.405 -167.858)" fill="#e5ecf1"/>
  </g>
</svg>
