<svg xmlns="http://www.w3.org/2000/svg" xmlns:xlink="http://www.w3.org/1999/xlink" width="400" height="488.001" viewBox="0 0 400 488.001">
  <defs>
    <clipPath id="clip-path">
      <rect id="Rectangle_405096" data-name="Rectangle 405096" width="329.275" height="389.671" fill="none"/>
    </clipPath>
    <clipPath id="clip-path-2">
      <rect id="Rectangle_405079" data-name="Rectangle 405079" width="400" height="350.852" fill="none"/>
    </clipPath>
  </defs>
  <g id="img17" transform="translate(-915 -12564)">
    <rect id="Rectangle_405066" data-name="Rectangle 405066" width="400" height="488" transform="translate(915 12564)" fill="none"/>
    <g id="Group_1102807" data-name="Group 1102807">
      <path id="Path_879388" data-name="Path 879388" d="M370.5,276.73a134.258,134.258,0,0,1-7.133,21.72,102.3,102.3,0,0,1-9.351,17.181q-1.961,2.882-4.058,5.509a81.79,81.79,0,0,1-7.75,8.425c-.265.255-.534.5-.8.756a79.335,79.335,0,0,1-6.343,5.229q-1.287.956-2.609,1.836c-.753.518-1.515,1.012-2.284,1.487-.238.154-.478.3-.716.442-.937.569-1.886,1.122-2.845,1.641a.475.475,0,0,1-.131.077q-2.7,1.479-5.49,2.72-1.5.676-3.016,1.275a85.711,85.711,0,0,1-31.775,5.824H50.787s-37.5-127.77-14.509-202.658c45.3-147.557,87.34-17.329,117.857-7.2,25.7,8.536,19.922-28.663,32.459-66.419C225.794-43.482,277.052.266,305.457,58.192,323.464,94.925,389.294,198.63,370.5,276.73" transform="translate(909.964 12701.148)" fill="#d9eeff"/>
      <g id="Group_1102806" data-name="Group 1102806" transform="translate(941.339 12584.564)">
        <g id="Group_1102805" data-name="Group 1102805" clip-path="url(#clip-path)">
          <path id="Path_879357" data-name="Path 879357" d="M268.885,127.017a53.909,53.909,0,0,0-46.761-54.032c0-.045.009-.091.012-.136a57.271,57.271,0,0,0-88.873-51.214,48.9,48.9,0,0,0-89.4,24.271c-.033.525-.041,1.044-.057,1.565A32.426,32.426,0,0,0,22.079,91.748a35.059,35.059,0,1,0,36.34,58.707,66.158,66.158,0,0,0,121.1,15.631,53.282,53.282,0,0,0,32.418,13.66,53.916,53.916,0,0,0,56.855-50.263Z" transform="translate(0 0)" fill="#fff"/>
          <path id="Path_879358" data-name="Path 879358" d="M167.945,163.076H84.093a4.525,4.525,0,0,1-4.525-4.525V49.945a4.525,4.525,0,0,1,4.525-4.525h83.852a4.525,4.525,0,0,1,4.525,4.525V158.551a4.525,4.525,0,0,1-4.525,4.525" transform="translate(-0.966 -0.551)" fill="#4d6bff"/>
          <path id="Path_879359" data-name="Path 879359" d="M163.074,80.517H89.162a1.508,1.508,0,0,1-1.508-1.508V56.09a1.508,1.508,0,0,1,1.508-1.508h73.912a1.507,1.507,0,0,1,1.507,1.508V79.009a1.508,1.508,0,0,1-1.507,1.508" transform="translate(-1.064 -0.663)" fill="#859fff"/>
          <path id="Path_879360" data-name="Path 879360" d="M102.757,94.287h-13.6a1.509,1.509,0,0,1-1.508-1.508v-5.29a1.508,1.508,0,0,1,1.508-1.507h13.6a1.508,1.508,0,0,1,1.508,1.507v5.29a1.509,1.509,0,0,1-1.508,1.508" transform="translate(-1.064 -1.044)" fill="#859fff"/>
          <path id="Path_879361" data-name="Path 879361" d="M123.11,94.287h-13.6a1.509,1.509,0,0,1-1.508-1.508v-5.29a1.508,1.508,0,0,1,1.508-1.507h13.6a1.508,1.508,0,0,1,1.508,1.507v5.29a1.509,1.509,0,0,1-1.508,1.508" transform="translate(-1.311 -1.044)" fill="#859fff"/>
          <path id="Path_879362" data-name="Path 879362" d="M143.462,94.287h-13.6a1.509,1.509,0,0,1-1.508-1.508v-5.29a1.508,1.508,0,0,1,1.508-1.507h13.6a1.508,1.508,0,0,1,1.508,1.507v5.29a1.509,1.509,0,0,1-1.508,1.508" transform="translate(-1.558 -1.044)" fill="#859fff"/>
          <path id="Path_879363" data-name="Path 879363" d="M163.815,94.287h-13.6a1.509,1.509,0,0,1-1.508-1.508v-5.29a1.508,1.508,0,0,1,1.508-1.507h13.6a1.507,1.507,0,0,1,1.507,1.507v5.29a1.508,1.508,0,0,1-1.507,1.508" transform="translate(-1.805 -1.044)" fill="#859fff"/>
          <path id="Path_879364" data-name="Path 879364" d="M102.757,114.538h-13.6a1.509,1.509,0,0,1-1.508-1.508v-13.6a1.509,1.509,0,0,1,1.508-1.508h13.6a1.509,1.509,0,0,1,1.508,1.508v13.6a1.509,1.509,0,0,1-1.508,1.508" transform="translate(-1.064 -1.189)" fill="#a9c0ff"/>
          <path id="Path_879365" data-name="Path 879365" d="M123.11,114.538h-13.6a1.509,1.509,0,0,1-1.508-1.508v-13.6a1.509,1.509,0,0,1,1.508-1.508h13.6a1.509,1.509,0,0,1,1.508,1.508v13.6a1.509,1.509,0,0,1-1.508,1.508" transform="translate(-1.311 -1.189)" fill="#a9c0ff"/>
          <path id="Path_879366" data-name="Path 879366" d="M143.462,114.538h-13.6a1.509,1.509,0,0,1-1.508-1.508v-13.6a1.509,1.509,0,0,1,1.508-1.508h13.6a1.509,1.509,0,0,1,1.508,1.508v13.6a1.509,1.509,0,0,1-1.508,1.508" transform="translate(-1.558 -1.189)" fill="#a9c0ff"/>
          <path id="Path_879367" data-name="Path 879367" d="M163.815,114.538h-13.6a1.509,1.509,0,0,1-1.508-1.508v-13.6a1.509,1.509,0,0,1,1.508-1.508h13.6a1.508,1.508,0,0,1,1.507,1.508v13.6a1.508,1.508,0,0,1-1.507,1.508" transform="translate(-1.805 -1.189)" fill="#859fff"/>
          <path id="Path_879368" data-name="Path 879368" d="M102.757,134.89h-13.6a1.509,1.509,0,0,1-1.508-1.508v-13.6a1.509,1.509,0,0,1,1.508-1.508h13.6a1.509,1.509,0,0,1,1.508,1.508v13.6a1.509,1.509,0,0,1-1.508,1.508" transform="translate(-1.064 -1.436)" fill="#a9c0ff"/>
          <path id="Path_879369" data-name="Path 879369" d="M123.11,134.89h-13.6a1.509,1.509,0,0,1-1.508-1.508v-13.6a1.509,1.509,0,0,1,1.508-1.508h13.6a1.509,1.509,0,0,1,1.508,1.508v13.6a1.509,1.509,0,0,1-1.508,1.508" transform="translate(-1.311 -1.436)" fill="#a9c0ff"/>
          <path id="Path_879370" data-name="Path 879370" d="M143.462,134.89h-13.6a1.509,1.509,0,0,1-1.508-1.508v-13.6a1.509,1.509,0,0,1,1.508-1.508h13.6a1.509,1.509,0,0,1,1.508,1.508v13.6a1.509,1.509,0,0,1-1.508,1.508" transform="translate(-1.558 -1.436)" fill="#a9c0ff"/>
          <path id="Path_879371" data-name="Path 879371" d="M102.757,155.243h-13.6a1.509,1.509,0,0,1-1.508-1.508v-13.6a1.509,1.509,0,0,1,1.508-1.508h13.6a1.509,1.509,0,0,1,1.508,1.508v13.6a1.509,1.509,0,0,1-1.508,1.508" transform="translate(-1.064 -1.683)" fill="#a9c0ff"/>
          <path id="Path_879372" data-name="Path 879372" d="M123.11,155.243h-13.6a1.509,1.509,0,0,1-1.508-1.508v-13.6a1.509,1.509,0,0,1,1.508-1.508h13.6a1.509,1.509,0,0,1,1.508,1.508v13.6a1.509,1.509,0,0,1-1.508,1.508" transform="translate(-1.311 -1.683)" fill="#a9c0ff"/>
          <path id="Path_879373" data-name="Path 879373" d="M143.462,155.243h-13.6a1.509,1.509,0,0,1-1.508-1.508v-13.6a1.509,1.509,0,0,1,1.508-1.508h13.6a1.509,1.509,0,0,1,1.508,1.508v13.6a1.509,1.509,0,0,1-1.508,1.508" transform="translate(-1.558 -1.683)" fill="#a9c0ff"/>
          <path id="Path_879374" data-name="Path 879374" d="M163.815,155h-13.6a1.509,1.509,0,0,1-1.508-1.508v-33.7a1.508,1.508,0,0,1,1.508-1.508h13.6a1.507,1.507,0,0,1,1.507,1.508v33.7A1.508,1.508,0,0,1,163.815,155" transform="translate(-1.805 -1.436)" fill="#859fff"/>
          <path id="Path_879375" data-name="Path 879375" d="M157.742,77.082h-4.255a3.272,3.272,0,0,1-3.268-3.268V61.37a3.272,3.272,0,0,1,3.268-3.269h4.255a3.272,3.272,0,0,1,3.268,3.269V73.814a3.272,3.272,0,0,1-3.268,3.268m-4.255-16.718a1.007,1.007,0,0,0-1.006,1.006V73.814a1.007,1.007,0,0,0,1.006,1.006h4.255a1.008,1.008,0,0,0,1.007-1.006V61.37a1.007,1.007,0,0,0-1.007-1.006Z" transform="translate(-1.823 -0.705)" fill="#4d6bff"/>
          <path id="Path_879376" data-name="Path 879376" d="M144.254,77.082H140a3.272,3.272,0,0,1-3.268-3.268V61.37A3.272,3.272,0,0,1,140,58.1h4.255a3.272,3.272,0,0,1,3.268,3.269V73.814a3.272,3.272,0,0,1-3.268,3.268M140,60.364a1.007,1.007,0,0,0-1.006,1.006V73.814A1.007,1.007,0,0,0,140,74.82h4.255a1.008,1.008,0,0,0,1.007-1.006V61.37a1.007,1.007,0,0,0-1.007-1.006Z" transform="translate(-1.66 -0.705)" fill="#4d6bff"/>
          <path id="Path_879377" data-name="Path 879377" d="M130.766,77.082h-4.255a3.272,3.272,0,0,1-3.268-3.268V61.37a3.272,3.272,0,0,1,3.268-3.269h4.255a3.272,3.272,0,0,1,3.268,3.269V73.814a3.272,3.272,0,0,1-3.268,3.268m-4.255-16.718a1.007,1.007,0,0,0-1.006,1.006V73.814a1.007,1.007,0,0,0,1.006,1.006h4.255a1.008,1.008,0,0,0,1.007-1.006V61.37a1.007,1.007,0,0,0-1.007-1.006Z" transform="translate(-1.496 -0.705)" fill="#4d6bff"/>
          <rect id="Rectangle_405080" data-name="Rectangle 405080" width="107.091" height="148.105" transform="translate(76.857 241.566)" fill="#fff"/>
          <path id="Path_879378" data-name="Path 879378" d="M322.715,244.534v93.527a54.586,54.586,0,0,1-54.578,54.578H215.624V244.534Z" transform="translate(-2.617 -2.968)" fill="#fff"/>
          <rect id="Rectangle_405081" data-name="Rectangle 405081" width="38.458" height="7.939" transform="translate(205.01 260.976) rotate(-45)" fill="#a9c0ff"/>
          <rect id="Rectangle_405082" data-name="Rectangle 405082" width="7.939" height="38.458" transform="translate(296.467 239.396) rotate(-45)" fill="#a9c0ff"/>
          <rect id="Rectangle_405083" data-name="Rectangle 405083" width="8.735" height="28.861" transform="translate(126.034 227.135)" fill="#c8c0ff"/>
          <rect id="Rectangle_405084" data-name="Rectangle 405084" width="24.315" height="24.315" transform="translate(86.971 262.106)" fill="#e6f5ff"/>
          <rect id="Rectangle_405085" data-name="Rectangle 405085" width="50.202" height="8.849" transform="translate(118.13 277.572)" fill="#e6f5ff"/>
          <rect id="Rectangle_405086" data-name="Rectangle 405086" width="50.202" height="11.261" transform="translate(118.13 262.106)" fill="#e6f5ff"/>
          <rect id="Rectangle_405087" data-name="Rectangle 405087" width="81.361" height="28.154" transform="translate(86.971 294.185)" fill="#e6f5ff"/>
          <rect id="Rectangle_405088" data-name="Rectangle 405088" width="47.436" height="8.436" transform="translate(86.971 362.105)" fill="#e6f5ff"/>
          <rect id="Rectangle_405089" data-name="Rectangle 405089" width="81.361" height="26.526" transform="translate(86.971 329.658)" fill="#e6f5ff"/>
          <rect id="Rectangle_405090" data-name="Rectangle 405090" width="24.1" height="26.307" transform="translate(223.83 274.36)" fill="#e6f5ff"/>
          <rect id="Rectangle_405091" data-name="Rectangle 405091" width="24.1" height="65.767" transform="translate(223.83 307.462)" fill="#e6f5ff"/>
          <rect id="Rectangle_405092" data-name="Rectangle 405092" width="24.1" height="17.045" transform="translate(253.124 356.184)" fill="#e6f5ff"/>
          <rect id="Rectangle_405093" data-name="Rectangle 405093" width="24.1" height="74.974" transform="translate(253.124 274.361)" fill="#e6f5ff"/>
          <rect id="Rectangle_405094" data-name="Rectangle 405094" width="24.1" height="90.347" transform="translate(283.109 274.36)" fill="#e6f5ff"/>
          <rect id="Rectangle_405095" data-name="Rectangle 405095" width="48.996" height="7.548" transform="translate(240.785 259.14)" fill="#e6f5ff"/>
          <path id="Path_879379" data-name="Path 879379" d="M323.36,319.5V338.97a54.586,54.586,0,0,1-54.578,54.579s33.768-8.36,28.16-32.4c0,0,26.418,4.557,26.418-41.652" transform="translate(-3.263 -3.878)" fill="#c2e6ff"/>
          <path id="Path_879380" data-name="Path 879380" d="M191.725,67.443a1.344,1.344,0,0,1-.582-2.556l14.32-6.869a1.344,1.344,0,0,1,1.163,2.424L192.305,67.31a1.339,1.339,0,0,1-.58.132" transform="translate(-2.311 -0.703)" fill="#c8c0ff"/>
          <path id="Path_879381" data-name="Path 879381" d="M194.692,73.632a1.344,1.344,0,0,1-.583-2.556l14.321-6.869a1.344,1.344,0,0,1,1.163,2.424L195.272,73.5a1.339,1.339,0,0,1-.58.132" transform="translate(-2.347 -0.778)" fill="#c8c0ff"/>
          <path id="Path_879382" data-name="Path 879382" d="M217.911,126.114a2.43,2.43,0,0,1-1.728-.716l-22.9-22.9a2.444,2.444,0,1,1,3.457-3.457l22.9,22.9a2.444,2.444,0,0,1-1.728,4.173" transform="translate(-2.338 -1.194)" fill="#d9eeff"/>
          <path id="Path_879383" data-name="Path 879383" d="M195.01,126.114a2.444,2.444,0,0,1-1.728-4.173l22.9-22.9a2.444,2.444,0,1,1,3.457,3.457l-22.9,22.9a2.431,2.431,0,0,1-1.728.716" transform="translate(-2.338 -1.194)" fill="#d9eeff"/>
          <path id="Path_879384" data-name="Path 879384" d="M65.76,61.348a1.516,1.516,0,0,1-.738-.191l-11-6.076A1.527,1.527,0,0,1,55.5,52.409l8.779,4.85.36-20.269a1.526,1.526,0,0,1,.829-1.33l12.447-6.4a1.526,1.526,0,0,1,1.395,2.716L67.676,37.957l-.389,21.891a1.525,1.525,0,0,1-1.526,1.5" transform="translate(-0.646 -0.353)" fill="#d9eeff"/>
          <path id="Path_879385" data-name="Path 879385" d="M232.286,150.343a1.526,1.526,0,0,1-1.184-2.487l13.375-16.5a1.527,1.527,0,0,1,2.372,1.922l-13.375,16.5a1.528,1.528,0,0,1-1.187.565" transform="translate(-2.801 -1.588)" fill="#859fff"/>
          <path id="Path_879386" data-name="Path 879386" d="M244.39,152.256a4.208,4.208,0,1,1,4.154-3.548,4.211,4.211,0,0,1-4.154,3.548m0-5.364a1.155,1.155,0,1,0,.936.477,1.145,1.145,0,0,0-.755-.462,1.129,1.129,0,0,0-.182-.015" transform="translate(-2.915 -1.746)" fill="#859fff"/>
          <path id="Path_879387" data-name="Path 879387" d="M233.066,137.082a4.209,4.209,0,1,1,4.154-3.548,4.2,4.2,0,0,1-4.154,3.548m0-5.363a1.152,1.152,0,1,0,.184.014,1.148,1.148,0,0,0-.184-.014m2.651,1.576h0Z" transform="translate(-2.778 -1.562)" fill="#859fff"/>
        </g>
      </g>
      <g id="Group_1102804" data-name="Group 1102804" transform="translate(915 12701.148)">
        <g id="Group_1102803" data-name="Group 1102803" clip-path="url(#clip-path-2)">
          <path id="Path_879323" data-name="Path 879323" d="M452.714,373.607H344.929l-6.748-65.255s38.712-48.892,72.97-42.191c4.982.974,9.4,3.947,13.3,8.307,22.926,25.576,28.263,99.139,28.263,99.139" transform="translate(-59.097 -46.402)" fill="#859fff"/>
          <path id="Path_879324" data-name="Path 879324" d="M224.377,74.7c-3.355,6.376-2.761,11.144.487,20.252,1.7,4.767,4.979,8.947,6,13.9,1.565,7.594-2.446,15.581-.594,23.11,2.177,8.847,12.106,16.079,9.6,24.838-1.071,3.741-4.286,6.532-5.59,10.2-1.847,5.2.507,10.935,3.486,15.577s6.7,9.022,7.978,14.387-1.089,12.174-6.474,13.367c6.3,1.146,12.6-2.5,16.918-7.234s7.252-10.548,11.147-15.634c8.74-11.416,22.072-18.711,36-22.282s28.512-3.69,42.865-2.842c9.646.569,19.518,1.636,28.158,5.962,7.045,3.527,13.038,9.114,20.482,11.7s17.544.646,20.146-6.791c-5.625.862-9.716-5.408-10.785-11s-.943-11.893-4.739-16.131c-5.11-5.7-15.44-5.32-19.08-12.058-3.133-5.8.845-13.036-.486-19.491-2.408-11.674-19.656-14.213-24.139-25.258-3.344-8.239,1.241-19.477-5.3-25.5-4.761-4.38-12.609-2.92-18.13-6.293-7.1-4.338-6.328-14.861-13.766-18.59-5.412-2.713-14.018-4.311-20.04-4.928-7.611-.779-14.336-3.611-21.853-2.193-23.936,4.516-42.546,24.417-52.286,42.927" transform="translate(-38.817 -5.483)" fill="#561515"/>
          <path id="Path_879325" data-name="Path 879325" d="M144.171,354.386s-21.433-4.585-28.129-4.083-25.449,8.706-25.449,8.706l11.343,18.068H154.2l10.395-16.561s-9.122-6.213-20.423-6.13" transform="translate(-15.831 -61.209)" fill="#ef8c81"/>
          <path id="Path_879326" data-name="Path 879326" d="M240.5,224.9s-12.577,89.1-19.86,93.868-65.126,13.71-65.126,13.71,18.164-.4,18.665,11.655H280l-11.3-20.95Z" transform="translate(-27.177 -39.302)" fill="#1d3f6f"/>
          <path id="Path_879327" data-name="Path 879327" d="M325.623,202.084l-.291,7.444-5.163,133.193-22.894-10.3s-19.77-69.565-19.157-70.319,21.939-58.665,21.939-58.665c1.507,2.173-.873,27.245,1.806,27.525,8.038.841,23.76-28.88,23.76-28.88" transform="translate(-48.599 -35.314)" fill="#9b87ff"/>
          <path id="Path_879328" data-name="Path 879328" d="M312.723,354.313l-20.844-26.872s-26.792-46.792-30.81-82.7c-1.527-13.662-4.731-30.97-.4-42.533,7.072-18.835,23.848-28.63,23.848-28.63l4.35,5.053,10.377,12.025s-8.367,23.526-10.126,37.59c-1.306,10.447-6.279,38.614,1.457,69.805a.03.03,0,0,1,.011.02,123.156,123.156,0,0,0,13.29,32.889Z" transform="translate(-45.171 -30.332)" fill="#295984"/>
          <path id="Path_879329" data-name="Path 879329" d="M292.856,299.118c-.352-.834-11.623-27.715-19.106-49.966-7.6-22.6,7.021-29.735,7.021-29.735-11.391-21.246,3.888-33.13,3.888-33.13l6.49-6.59,10.377,12.024s-8.368,23.527-10.126,37.59c-1.306,10.448-6.279,38.615,1.457,69.806" transform="translate(-47.455 -31.402)" fill="#3c72ac"/>
          <path id="Path_879330" data-name="Path 879330" d="M287.045,175.4a15.424,15.424,0,0,1,1.557,17.563c-2.495,3.988-6.821,6.263-9,10.479-2.649,5.121-1.461,11.6-.4,17.461s-7.336,13.913-10.661,18.5c.634-6.088-.059-15.478-4.878-18.505s-7.572-6.9-9.99-12.46c-1.759-4.047.46-10.036,1.915-14.169s4.03-2.34,6.444-5.852c3.082-4.484,6.234-9.042,10.4-12.248s9.585-4.9,14.444-3.076" transform="translate(-44.216 -30.118)" fill="#561515"/>
          <path id="Path_879331" data-name="Path 879331" d="M328.087,195.505l.291-7.445s-12.4,29.823-24.2,29.007c-3.513-.243-1.471-24.235-1.365-27.65L293.872,169.9l18.253-48.058,31.813,23.608Z" transform="translate(-51.354 -21.292)" fill="#fea192"/>
          <path id="Path_879332" data-name="Path 879332" d="M297.353,179.58l-4.288-8.076,21.22-39.5s6.071,27.952-16.932,47.581" transform="translate(-51.213 -23.067)" fill="#ef8c81"/>
          <path id="Path_879333" data-name="Path 879333" d="M297.575,88.722a64.939,64.939,0,0,1,2.475,7.026c2.7,9.391,5.02,19.323,3.541,29.272a49.216,49.216,0,0,1-1.908,7.955,53.052,53.052,0,0,1-8.408,15.69c-3.488,4.47-7.466,9.554-12.449,12.812-.143.091-.542.345-1.117.671-.157.1-.323.186-.517.29-.266.149-.569.3-.9.474-2.137,1.083-5.1,2.19-6.936,1.294-1.05-.514-1.514-1.682-2.008-2.771-.274-.588-.525-1.169-.81-1.71a8.582,8.582,0,0,0-3.547-3.454c-.209-.108-.418-.215-.641-.314a5.864,5.864,0,0,1-3.016-2.309c-.588-1.152,1.013-3.361,1.41-3.874,2.854-3.692,3.2-6.384,2.5-6.829a19.372,19.372,0,0,1-2.135,1.807c-1.468,1.185-5.433,4.548-7.336,1.773a6.654,6.654,0,0,1-.62-2.513c-.674-3.539-1.263-4.856-5.262-4.949-3.617.02-7.31-.305-7.528-2.621-.334-3.563,2.534-6.751,2.364-16.656a5.159,5.159,0,0,0-.785-3.033c-1.765-2.434-5.049-7.322-5.918-10.237-1.556-5.222-3.03-16.432-2.875-20.782.312-9.1,4.678-13.32,8.178-20.507,3.955-8.078,9.614-14.333,16.478-17.346,19.528-8.6,25.676,11.989,37.773,40.839" transform="translate(-41.09 -8.023)" fill="#fea192"/>
          <path id="Path_879334" data-name="Path 879334" d="M231.526,358.345s-26.358-9.479-32.22-9.48c-19.218,0-41.424,26.58-36.916,27.747s20.676.221,34.991.221c13.06,0,22.276,3.1,36.5,1.377s-2.355-19.865-2.355-19.865" transform="translate(-28.275 -60.964)" fill="#fea192"/>
          <path id="Path_879335" data-name="Path 879335" d="M237.835,122.032a.829.829,0,0,1,.081-1.182,35.025,35.025,0,0,1,8.214-5.2,21.239,21.239,0,0,1,5.211-1.527c1.807-.267,4.058-.4,4.824.654.248.342.074.542-.545.768-1.488.541-2.184.824-3.641,1.324a20.691,20.691,0,0,0-4.189,2.02,47.55,47.55,0,0,0-6.908,5.34.818.818,0,0,1-1.159-.068Z" transform="translate(-41.525 -19.91)" fill="#561515"/>
          <path id="Path_879336" data-name="Path 879336" d="M255.386,129.312c1.293,2.239,1.376,4.611.185,5.3s-3.2-.57-4.5-2.809-1.376-4.612-.185-5.3,3.2.571,4.5,2.81" transform="translate(-43.696 -22.074)" fill="#1a1a1a"/>
          <path id="Path_879337" data-name="Path 879337" d="M450.413,363.627H350.21l-5.646-7.473L322.333,326.71s-.984-3.486-2.29-9.172c-.834-3.616-1.8-8.117-2.723-13.169-3.195-17.348-5.967-41.217-1.517-58.022,6.3-23.778,20.161-74.518,25.224-93.021,1.2-4.36,1.9-6.931,1.9-6.931l7.283,4.521s33.9,14.817,49.725,22.351a15.773,15.773,0,0,1,4.349,3.174c12.065,12.065,18.212,47.274,17.078,73.131q-.121,2.607-.332,5.063S414,312.4,450.413,363.627" transform="translate(-54.782 -25.582)" fill="#295984"/>
          <path id="Path_879338" data-name="Path 879338" d="M335.605,213.157s14.315,8.287,13.31,20.342-25.847,33.421-31.633,72.337c-3.195-17.348-5.856-40.992-2.367-58.022,5.618-27.421,21.012-74.518,26.075-93.021l22.994,7.886s5.525,34.405-28.379,50.478" transform="translate(-54.744 -27.05)" fill="#3c72ac"/>
          <path id="Path_879339" data-name="Path 879339" d="M409.514,255.766l-.009.031s-11.624,96.446-24.934,103.478c-5.133,2.712-26.971,3.335-51.854,3.074-39.639-.423-87.024-1-87.024-1V323.362a445.71,445.71,0,0,0,62.5.371c28.72-2.009,42.572-6.65,42.572-6.65s2.663-55.752,6.179-86.14S379.8,177.2,392.438,182.635c12.064,12.065,18.212,47.274,17.076,73.131" transform="translate(-42.935 -31.778)" fill="#3c72ac"/>
          <path id="Path_879340" data-name="Path 879340" d="M327.552,133.636h0c.344,3.491.036,7.144,1.4,10.375,2.013,4.763,7.1,7.375,11.931,9.22s10.061,3.488,13.421,7.418c4.876,5.7,4.191,14.139,3.232,21.582.426-3.806,4.566-5.986,6.355-9.372,1.335-2.527,2.054-6.275,1.194-9-1.521-4.823-3.153-4.529-4.671-6.95.139,4.7,6.694,7.152,11.476,8.056s9.7.35,14.562.147,9.937,0,14.256,2.24A30.6,30.6,0,0,0,388.9,152.8c-6.9-4.475-15.4-6.018-22.236-10.582-5.11-3.409-9-8.305-13.045-12.932s-8.483-9.181-14.156-11.536c-3.8-1.575-15.137-6.24-18.087-2.245-1.488,2.014-3.934,4.369-3.067,6.386,1.243,2.89,8.929,8.6,9.239,11.747" transform="translate(-55.594 -19.909)" fill="#561515"/>
          <path id="Path_879341" data-name="Path 879341" d="M302.034,103.991a10.211,10.211,0,0,1,4.347-6.888c2.64-1.771,6.378-2.916,9.417,1.419,7.5,10.7,1.935,26.358-5.051,22.884-9.173-4.562-9.49-12.622-8.712-17.416" transform="translate(-52.733 -16.692)" fill="#fea192"/>
          <path id="Path_879342" data-name="Path 879342" d="M395.75,420.14H4.251A4.251,4.251,0,0,1,0,415.89V400.748A4.251,4.251,0,0,1,4.251,396.5h391.5A4.251,4.251,0,0,1,400,400.748V415.89a4.251,4.251,0,0,1-4.251,4.251" transform="translate(0 -69.288)" fill="#723333"/>
          <path id="Path_879343" data-name="Path 879343" d="M70.512,419.932,4.25,418.945A4.25,4.25,0,0,1,0,414.695V399.552a4.25,4.25,0,0,1,4.25-4.25l66.262.986a4.251,4.251,0,0,1,4.251,4.251v15.142a4.251,4.251,0,0,1-4.251,4.251" transform="translate(0 -69.079)" fill="#a05050"/>
          <path id="Path_879344" data-name="Path 879344" d="M165.883,382.755H274.594a3.416,3.416,0,0,1,2.879,5.254l-1.6,2.505a7.9,7.9,0,0,1-6.662,3.65H165.883Z" transform="translate(-28.988 -66.887)" fill="#1d3f6f"/>
          <path id="Path_879345" data-name="Path 879345" d="M2.111,232.818l53.211,134.2,6.777-2.689L9.95,232.818l-1.061-2.689a3.645,3.645,0,0,0-3.393-2.3,3.539,3.539,0,0,0-1.339.258,3.651,3.651,0,0,0-2.044,4.733" transform="translate(-0.324 -39.813)" fill="#3c72ac"/>
          <path id="Path_879346" data-name="Path 879346" d="M6.266,227.827l1.786,4.991,48.042,134.2H137.97L88.817,233.3l-.437-5.477Z" transform="translate(-1.095 -39.813)" fill="#3c72ac"/>
          <path id="Path_879347" data-name="Path 879347" d="M101.325,232.818l53.211,134.2,6.777-2.689L108.1,230.129a3.645,3.645,0,0,0-3.393-2.3,3.539,3.539,0,0,0-1.339.258,3.651,3.651,0,0,0-2.044,4.733" transform="translate(-17.662 -39.813)" fill="#1d3f6f"/>
          <path id="Path_879348" data-name="Path 879348" d="M67.9,311.765c1.75,5.549,5.673,9.258,8.76,8.284s4.172-6.262,2.422-11.811-5.672-9.258-8.76-8.284-4.172,6.262-2.422,11.811" transform="translate(-11.72 -52.39)" fill="#f9b134"/>
          <path id="Path_879349" data-name="Path 879349" d="M356.061,375.036H237.86v1.423l19.588,1.005-19.588,2.846v1.674l4.1.838-4.1,1.423v8.5h118.2Z" transform="translate(-41.566 -65.538)" fill="#fff"/>
          <path id="Path_879350" data-name="Path 879350" d="M431.314,375.036H377.4v8.853l-17.413.69,17.413,2.3v5.861h53.91Z" transform="translate(-62.909 -65.538)" fill="#d9eeff"/>
          <path id="Path_879351" data-name="Path 879351" d="M392.452,380.92h36.5a29.458,29.458,0,0,1,15.571,9.376s-20.761-4.521-52.069-9.376" transform="translate(-68.581 -66.566)" fill="#fff"/>
          <path id="Path_879352" data-name="Path 879352" d="M280.042,317.42v13.226h89.907v-22.1Z" transform="translate(-48.938 -53.919)" fill="#fff"/>
          <rect id="Rectangle_405073" data-name="Rectangle 405073" width="89.315" height="4.667" transform="translate(227.008 275.075)" fill="#ff6c77"/>
          <rect id="Rectangle_405074" data-name="Rectangle 405074" width="89.315" height="4.667" transform="translate(227.008 261.188) rotate(-5.988)" fill="#ff6c77"/>
          <rect id="Rectangle_405075" data-name="Rectangle 405075" width="62.015" height="27.87" transform="translate(315.837 251.871)" fill="#e05364"/>
          <path id="Path_879353" data-name="Path 879353" d="M381.939,333.076h-3.668V305.59l3.668-.385Z" transform="translate(-66.103 -53.335)" fill="#ff6c77"/>
          <path id="Path_879354" data-name="Path 879354" d="M449.61,322.9c0,1.851-.843,3.351-1.883,3.351s-1.884-1.5-1.884-3.351.843-3.351,1.884-3.351,1.883,1.5,1.883,3.351" transform="translate(-77.911 -55.842)" fill="#212b44"/>
          <rect id="Rectangle_405076" data-name="Rectangle 405076" width="38.047" height="12.18" transform="translate(325.448 260.823)" fill="#ff6c77"/>
          <rect id="Rectangle_405077" data-name="Rectangle 405077" width="160.811" height="29.745" transform="translate(207.595 279.753)" fill="#e0aa32"/>
          <path id="Path_879355" data-name="Path 879355" d="M268.809,356.068a4.47,4.47,0,1,1,4.47,4.47,4.47,4.47,0,0,1-4.47-4.47" transform="translate(-46.975 -61.442)" fill="#212b44"/>
          <rect id="Rectangle_405078" data-name="Rectangle 405078" width="93.925" height="15.092" transform="translate(257.27 287.079)" fill="#fec73d"/>
          <path id="Path_879356" data-name="Path 879356" d="M233.57,81.458c4,3.4,10.825,3.6,16.055,3.188,2.822-.221,13.468-3.7,15.294-1.542,2.276,2.7,3.259,4.58,5.971,6.835,2.35,1.954,13.716-1.168,17.294,1.932,1.57,1.361,4.695,9.011,6.694,8.448.95-.267.007-6.022.5-8.448,1.795-8.918,7.367-4.314,7.367-4.314S289.068,46.7,280.721,41.743c-4.262-2.534-3.256-.508-8.21-.295-8.481.366-19.312,2.732-23.75,9.968S239.62,67.1,234.872,74.136" transform="translate(-40.817 -7.074)" fill="#561515"/>
        </g>
      </g>
    </g>
  </g>
</svg>
