<svg xmlns="http://www.w3.org/2000/svg" xmlns:xlink="http://www.w3.org/1999/xlink" width="151" height="151" viewBox="0 0 151 151">
  <defs>
    <clipPath id="clip-path">
      <rect id="Rectangle_404768" data-name="Rectangle 404768" width="62.046" height="84.406" fill="#00513f"/>
    </clipPath>
  </defs>
  <g id="img8" transform="translate(-505.713 -7988)">
    <g id="Group_1101010" data-name="Group 1101010" transform="translate(559.448 7988)">
      <path id="Path_875656" data-name="Path 875656" d="M235.845,10.626l-94,94v3.266h3.265l94-94V10.626Z" transform="translate(-141.847 -10.626)" fill="#00503e"/>
      <path id="Path_875657" data-name="Path 875657" d="M221.444,10.626l-79.6,79.6v6.532l86.128-86.13Z" transform="translate(-141.847 -10.626)" fill="#00503e"/>
      <path id="Path_875658" data-name="Path 875658" d="M207.043,10.626l-65.2,65.2v6.531l71.728-71.728Z" transform="translate(-141.847 -10.626)" fill="#00503e"/>
      <path id="Path_875659" data-name="Path 875659" d="M192.642,10.626l-50.8,50.8v6.531l57.327-57.328Z" transform="translate(-141.847 -10.626)" fill="#00503e"/>
      <path id="Path_875660" data-name="Path 875660" d="M178.242,10.626l-36.395,36.4v6.531l42.927-42.927Z" transform="translate(-141.847 -10.626)" fill="#00503e"/>
      <path id="Path_875661" data-name="Path 875661" d="M163.841,10.626,141.847,32.62v6.532l28.526-28.526Z" transform="translate(-141.847 -10.626)" fill="#00503e"/>
      <path id="Path_875662" data-name="Path 875662" d="M149.44,10.626l-7.593,7.593v6.532l14.125-14.125Z" transform="translate(-141.847 -10.626)" fill="#00503e"/>
      <path id="Path_875663" data-name="Path 875663" d="M268.109,151.013h6.532l7.593-7.593v-6.531Z" transform="translate(-184.97 -53.748)" fill="#00503e"/>
      <path id="Path_875664" data-name="Path 875664" d="M246.238,143.543h6.532l21.994-21.995v-6.531Z" transform="translate(-177.499 -46.278)" fill="#00503e"/>
      <path id="Path_875665" data-name="Path 875665" d="M224.368,136.074H230.9l36.394-36.4V93.147Z" transform="translate(-170.03 -38.809)" fill="#00503e"/>
      <path id="Path_875666" data-name="Path 875666" d="M202.5,128.6h6.532l50.795-50.8V71.277Z" transform="translate(-162.562 -31.34)" fill="#00503e"/>
      <path id="Path_875667" data-name="Path 875667" d="M180.628,121.135h6.531l65.2-65.2V49.407Z" transform="translate(-155.091 -23.871)" fill="#00503e"/>
      <path id="Path_875668" data-name="Path 875668" d="M158.757,113.666h6.532l79.6-79.6V27.536Z" transform="translate(-147.622 -16.401)" fill="#00503e"/>
    </g>
    <rect id="Rectangle_403642" data-name="Rectangle 403642" width="71.286" height="71.286" transform="translate(506.713 8066.713)" fill="none" stroke="#00513f" stroke-linecap="round" stroke-linejoin="round" stroke-width="2"/>
    <rect id="Rectangle_403641" data-name="Rectangle 403641" width="125.08" height="125" transform="translate(520.713 7998.799)" fill="#ccf6ec"/>
    <g id="Group_1102474" data-name="Group 1102474" transform="translate(552.713 8018.799)">
      <g id="Group_1102474-2" data-name="Group 1102474" clip-path="url(#clip-path)">
        <path id="Path_877185" data-name="Path 877185" d="M56.9,74.577v2.3c4.35-.306,5.4.562,5.024,4.917-.109,1.265-.448,2.25-1.8,2.593l-51.82.019A8.871,8.871,0,0,1,.327,77.554C-.112,54.029-.1,30.344.324,6.816A8.808,8.808,0,0,1,7.927,0L60.469.067a2.255,2.255,0,0,1,1.359,1.776,43.477,43.477,0,0,1,.1,7.647c-.051.549-.165,1.547-.781,1.732-.515.187-1.735-.064-1.735-.7V2.482H14.9V67.054H59.412V15.334a1.282,1.282,0,0,1,2.4.307l.111,56.333c.164.886-.94,2.6-1.785,2.6ZM12.6,2.482H10.1V67.054H12.6Zm-5.015.209A5.763,5.763,0,0,0,3.226,5.957,11.135,11.135,0,0,0,2.573,8.02V69.561l2.716-1.777,2.3-.521Zm51.825,66.87H7.9c-2.715,0-5.344,3.564-5.344,6.165,0,2.45,2.555,6.165,5.135,6.165h51.72l-.029-2.165-.493-.343L7.74,79.335c-3.807-1.351-3.368-6.91.779-7.275,4.257-.375,9.06.292,13.377.014a1.262,1.262,0,0,1,.122,2.41l-13.485.1c-1.527.284-.83,2.293-.214,2.293H54.4v-2.3H27.126c-1.16,0-1.126-2.508-.209-2.508H59.412Z" transform="translate(0)" fill="#00513f"/>
        <path id="Path_877186" data-name="Path 877186" d="M112.461,49.949a16.991,16.991,0,0,1,17.7,21.46c-.278,1.016-.818,3.284-2.251,2.9-1.71-.464-.327-2.725-.084-3.768,3.565-15.3-15.311-24.7-25.138-12.808-10.395,12.584,5.459,30.59,19.706,20.751.868-.6,3.145-3.277,3.815-1.016.31,1.045-1.223,2.195-2.02,2.81a17.027,17.027,0,0,1-23.381-2.705c-8.648-10.443-1.792-26.5,11.654-27.62" transform="translate(-76.705 -39.463)" fill="#00513f"/>
        <path id="Path_877187" data-name="Path 877187" d="M95.221,250.1l31,.043a2.843,2.843,0,0,1,2.027,1.943,53.493,53.493,0,0,1,0,8.263,2.811,2.811,0,0,1-2.35,2.038l-30.885-.053a2.888,2.888,0,0,1-1.985-1.985,56.159,56.159,0,0,1,.047-8.425,3.227,3.227,0,0,1,2.146-1.825m.266,9.775h30.2l.313-.313v-6.687l-.313-.313h-30.2Z" transform="translate(-73.481 -197.838)" fill="#00513f"/>
        <path id="Path_877188" data-name="Path 877188" d="M130.693,73.794c10.936-1.319,17.878,11.273,10.7,19.683-7.027,8.23-20.839,3.274-21.1-7.525-.029-1.212.573-6.444,2.712-4.58.857.746-.1,2.5-.173,3.57-.658,9.177,11.1,13.883,16.894,6.657,6.44-8.039-2.909-19.179-11.974-14.273-1,.54-1.783,1.853-3.018,1.271-1.7-.8.112-2.314.969-2.9a12.621,12.621,0,0,1,5-1.9" transform="translate(-95.15 -58.297)" fill="#00513f"/>
        <path id="Path_877189" data-name="Path 877189" d="M165.952,109.051c-.338.469.154,1.692-1.215,1.831-1.685.171-1.03-1.062-1.44-1.671-.382-.567-2.914-.864-2.086-2.71.866-1.931,2.811,1.086,3.978.222,1.78-1.317-1.758-1.929-2.52-2.526a3.237,3.237,0,0,1-.774-4.115c.369-.715,1.249-1.05,1.4-1.319.36-.65-.238-1.794,1.066-1.871,1.69-.1,1.151,1.056,1.655,1.66.389.466,2.169.435,1.412,2.041-.771,1.636-3.244-.753-3.409,1-.1,1.066,1.368,1,2.034,1.308a3.365,3.365,0,0,1,.908,5.585,9.891,9.891,0,0,1-1.007.562" transform="translate(-127.391 -76.641)" fill="#00513f"/>
        <path id="Path_877190" data-name="Path 877190" d="M156.479,276.074H144.464a1.23,1.23,0,0,1,0-2.461h12.015a1.23,1.23,0,0,1,0,2.461" transform="translate(-113.302 -216.436)" fill="#00513f"/>
      </g>
    </g>
  </g>
</svg>
