<svg id="img19" xmlns="http://www.w3.org/2000/svg" xmlns:xlink="http://www.w3.org/1999/xlink" width="85" height="84.992" viewBox="0 0 85 84.992">
  <defs>
    <clipPath id="clip-path">
      <rect id="Rectangle_404919" data-name="Rectangle 404919" width="85" height="84.992" fill="none"/>
    </clipPath>
  </defs>
  <g id="Group_1102664" data-name="Group 1102664" transform="translate(0 0)" clip-path="url(#clip-path)">
    <path id="Path_877698" data-name="Path 877698" d="M83.771,2.531c.062,1.907,3.361,2.479,3.364,0l4.206.841c-.705,2.024,2.234,2.56,3.639,3.406,15.068,9.075,9.466,32.677-7.94,33.826-19.428,1.283-27.176-24.054-10.9-33.826,1.521-.914,4.04-1.214,3.639-3.406ZM87.38,14.485c-.382-.605.685-3.327-1.421-3.54-2.53-.257-1.665,2.9-2.08,3.576-.137.223-1.417.749-1.883,1.272a5.059,5.059,0,0,0,2.444,8.256c.98.25,2.413-.09,2.815,1.186a1.681,1.681,0,0,1-2.416,1.992c-.433-.269-.5-.694-.808-.935-1.885-1.486-3.918.824-2.034,2.935a18.494,18.494,0,0,0,1.941,1.317c.4.676-.63,3.263,1.671,3.488,2.5.246,1.388-2.89,1.772-3.5.04-.062.986-.46,1.3-.7,3.632-2.826,2.2-7.82-2.116-8.956-.425-.112-.909,0-1.371-.105-1.437-.34-1.492-2.813-.046-3.093,1.916-.371,1.9,1.266,2.946,1.465,1.925.364,2.738-1.333,1.66-2.928-.58-.86-2.29-1.605-2.369-1.73" transform="translate(-22.147 -0.833)" fill="#fcdd8d"/>
    <path id="Path_877699" data-name="Path 877699" d="M28.988,104.807l-4,.631c-.062-1.907-3.361-2.479-3.365,0l-4.206-.841c.7-2.024-2.235-2.559-3.639-3.405C-2.53,91.366,5.4,65.909,24.9,67.367c17.307,1.294,22.76,24.8,7.732,33.824-1.521.914-4.255,1.306-3.639,3.616M21.593,77.645a12.75,12.75,0,0,0-1.761,1.078,5.16,5.16,0,0,0,1.092,7.965c1.082.57,2.673.466,3.346.86a1.627,1.627,0,0,1-1.062,2.97c-1.221-.085-1.064-.9-1.807-1.361-1.682-1.049-3.394.929-1.986,2.826.489.659,1.947,1.414,2.106,1.679.453.754-.45,2.928,1.309,3.319,3.12.694,1.706-2.514,2.26-3.327.062-.091,1.129-.569,1.473-.84A5.012,5.012,0,0,0,24.9,84.186c-.86-.254-2.189-.111-2.765-.811a1.7,1.7,0,0,1,1.259-2.744c1.559.053,1.392,2.057,3.339,1.632,1.891-.413,1.226-2.6.132-3.619-.378-.353-1.595-.894-1.766-1.178-.495-.82.659-3.992-2.269-3.318-1.757.4-.9,2.961-1.236,3.5" transform="translate(-1.642 -22.145)" fill="#fcdd8d"/>
    <path id="Path_877700" data-name="Path 877700" d="M15.78,85.847c-.921,2.644-5.281-.452-6.671-1.426-14.551-10.205-10.983-32.866,5.83-38.11V30.329h-3.68c-.536,0-1.849-1.608-1.205-2.252L20.1,11.205c1.342-1.544,2.263-.876,3.252.508,3.53,4.94,6.2,11.12,9.714,16.15.658.652-.413,2.466-.992,2.466h-3.89V46.311c16.891,5.142,20.39,28.157,5.744,38.235-1.062.731-5.957,3.866-6.585,1.511-.616-2.31,2.118-2.7,3.639-3.616,15.027-9.026,9.575-32.531-7.732-33.824-19.492-1.457-27.425,24-11.113,33.824,1.4.846,4.344,1.382,3.639,3.406m9.043-57.621c.672-1.688,1.9-1.083,3.264-1.261.29-.038.366.115.305-.309L21.563,15.4l-6.831,11.25c-.056.427.016.273.308.312,1.4.186,2.546-.509,3.264,1.261V45.471c.35.172.72-.2.84-.211a26.142,26.142,0,0,1,5.57.211l.108-.211Z" transform="translate(0 -3.395)" fill="#040404"/>
    <path id="Path_877701" data-name="Path 877701" d="M78.143,3.268c.4,2.191-2.118,2.491-3.639,3.405C58.231,16.447,65.98,41.782,85.408,40.5c17.405-1.149,23.007-24.751,7.94-33.826-1.4-.846-4.344-1.381-3.639-3.405.919-2.638,5.285.445,6.671,1.425a21.573,21.573,0,0,1,7.245,26.475A21.207,21.207,0,0,1,90.55,42.8V58.785h3.68c.536,0,1.849,1.608,1.206,2.253L85.385,77.909c-1.342,1.544-2.263.876-3.252-.507-3.53-4.94-6.2-11.12-9.714-16.151-.658-.652.413-2.466.992-2.466H77.3V42.8c-16.957-5.175-20.4-28.294-5.62-38.321C72.838,3.7,77.658.615,78.143,3.268m2.524,40.587V60.888c-.672,1.689-1.9,1.083-3.264,1.261-.29.038-.366-.115-.305.309l6.829,11.254,6.831-11.25c.056-.427-.016-.273-.308-.312-1.4-.186-2.546.509-3.264-1.261V43.644c-.35-.172-.72.2-.84.211a26.1,26.1,0,0,1-5.57-.211Z" transform="translate(-20.514 -0.727)" fill="#040404"/>
    <path id="Path_877702" data-name="Path 877702" d="M95.2,1.7c0,2.479-3.3,1.907-3.365,0-.064-1.977,3.369-2.536,3.365,0" transform="translate(-30.216 0)" fill="#090907"/>
    <path id="Path_877703" data-name="Path 877703" d="M33.15,123.325c.064,1.977-3.368,2.536-3.365,0,0-2.479,3.3-1.907,3.365,0" transform="translate(-9.8 -40.032)" fill="#090907"/>
    <path id="Path_877704" data-name="Path 877704" d="M93.951,18.6c.079.125,1.789.871,2.369,1.73,1.078,1.6.265,3.292-1.66,2.928-1.051-.2-1.03-1.836-2.946-1.465-1.446.28-1.391,2.752.046,3.093.462.109.946-.007,1.371.105,4.314,1.137,5.748,6.13,2.116,8.956-.31.241-1.257.639-1.3.7-.384.607.731,3.743-1.772,3.5-2.3-.225-1.275-2.813-1.671-3.488a18.493,18.493,0,0,1-1.941-1.317c-1.883-2.111.15-4.421,2.034-2.935.306.242.374.666.808.935a1.681,1.681,0,0,0,2.416-1.992c-.4-1.276-1.835-.935-2.815-1.186a5.059,5.059,0,0,1-2.444-8.256c.466-.523,1.746-1.049,1.883-1.272.415-.674-.45-3.833,2.08-3.576,2.106.213,1.039,2.935,1.421,3.54" transform="translate(-28.717 -4.951)" fill="#050403"/>
    <path id="Path_877705" data-name="Path 877705" d="M28.184,80.955c.337-.535-.521-3.092,1.236-3.5,2.928-.674,1.775,2.5,2.269,3.318.171.283,1.388.825,1.766,1.178,1.094,1.02,1.759,3.206-.132,3.619-1.947.425-1.78-1.579-3.339-1.632a1.7,1.7,0,0,0-1.259,2.744c.576.7,1.9.556,2.765.811a5.012,5.012,0,0,1,1.665,8.628c-.345.271-1.412.749-1.473.84-.554.813.86,4.021-2.26,3.327-1.759-.391-.856-2.565-1.309-3.319-.159-.265-1.616-1.021-2.106-1.679-1.408-1.9.3-3.875,1.986-2.826.743.464.586,1.277,1.807,1.361a1.627,1.627,0,0,0,1.062-2.97c-.673-.393-2.265-.29-3.346-.86a5.16,5.16,0,0,1-1.092-7.965,12.749,12.749,0,0,1,1.761-1.078" transform="translate(-8.233 -25.454)" fill="#050503"/>
    <path id="Path_877706" data-name="Path 877706" d="M25.518,30.719c-.718-1.77-1.864-1.076-3.264-1.261-.292-.039-.364.115-.309-.312L28.778,17.9l6.829,11.254c.061.424-.015.27-.306.309-1.362.178-2.591-.427-3.263,1.261a1.574,1.574,0,0,0-.224.715c-.4,4.484-.048,10.53.01,15.166,0,.356-.135.935.214,1.153l-.109.211a26.134,26.134,0,0,0-5.569-.211l-.648-.512.029-16.018c.076-.241-.18-.4-.222-.5" transform="translate(-7.215 -5.888)" fill="#9ccefc"/>
    <path id="Path_877707" data-name="Path 877707" d="M27.278,37.007c.042.1.3.262.222.5l-.029,16.018.648.512c-.121.012-.49.382-.841.211Z" transform="translate(-8.975 -12.176)" fill="#a5d9fb"/>
    <path id="Path_877708" data-name="Path 877708" d="M36.791,54.041c-.349-.219-.209-.8-.214-1.153-.057-4.637-.415-10.682-.009-15.166a1.566,1.566,0,0,1,.223-.715Z" transform="translate(-11.968 -12.176)" fill="#ace3fe"/>
    <path id="Path_877709" data-name="Path 877709" d="M93.565,64.171l.648.512L94.184,80.7c-.076.24.181.4.223.5.718,1.77,1.864,1.076,3.263,1.261.293.039.364-.115.309.312l-6.831,11.25L84.318,82.774c-.062-.423.015-.27.305-.309,1.363-.178,2.591.427,3.264-1.261a1.566,1.566,0,0,0,.223-.715c.407-4.5.039-10.515-.009-15.166,0-.355.134-.935-.214-1.153L88,63.96a26.1,26.1,0,0,0,5.57.211" transform="translate(-27.735 -21.044)" fill="#9ccefc"/>
    <path id="Path_877710" data-name="Path 877710" d="M98.109,64.148c.12-.012.49-.382.84-.211V81.182c-.042-.1-.3-.262-.223-.5l.03-16.019Z" transform="translate(-32.279 -21.021)" fill="#a5d9fb"/>
    <path id="Path_877711" data-name="Path 877711" d="M89.647,81.308V64.274c.348.218.21.8.214,1.153.049,4.65.416,10.669.009,15.166a1.566,1.566,0,0,1-.223.715" transform="translate(-29.495 -21.147)" fill="#ace3fe"/>
  </g>
</svg>
