<svg xmlns="http://www.w3.org/2000/svg" xmlns:xlink="http://www.w3.org/1999/xlink" width="100" height="100" viewBox="0 0 100 100">
  <defs>
    <clipPath id="clip-path">
      <rect id="Rectangle_405053" data-name="Rectangle 405053" width="52.403" height="34.881" fill="#12263f"/>
    </clipPath>
  </defs>
  <g id="img21" transform="translate(-505.713 -7988)">
    <g id="Group_1101010" data-name="Group 1101010" transform="translate(536.702 7988)">
      <path id="Path_875656" data-name="Path 875656" d="M208.54,10.626,141.848,77.319v2.317h2.317l66.693-66.693V10.626Z" transform="translate(-141.847 -10.626)" fill="#225a78"/>
      <path id="Path_875657" data-name="Path 875657" d="M198.323,10.626,141.848,67.1v4.635l61.109-61.11Z" transform="translate(-141.847 -10.626)" fill="#225a78"/>
      <path id="Path_875658" data-name="Path 875658" d="M188.1,10.626,141.847,56.884v4.634l50.892-50.892Z" transform="translate(-141.847 -10.626)" fill="#225a78"/>
      <path id="Path_875659" data-name="Path 875659" d="M177.887,10.626l-36.04,36.041V51.3l40.675-40.675Z" transform="translate(-141.847 -10.626)" fill="#225a78"/>
      <path id="Path_875660" data-name="Path 875660" d="M167.67,10.626,141.847,36.449v4.634L172.3,10.626Z" transform="translate(-141.847 -10.626)" fill="#225a78"/>
      <path id="Path_875661" data-name="Path 875661" d="M157.452,10.626l-15.6,15.605v4.635l20.239-20.24Z" transform="translate(-141.847 -10.626)" fill="#225a78"/>
      <path id="Path_875662" data-name="Path 875662" d="M147.234,10.626l-5.388,5.388v4.635l10.022-10.022Z" transform="translate(-141.847 -10.626)" fill="#225a78"/>
      <path id="Path_875663" data-name="Path 875663" d="M268.109,146.91h4.634l5.387-5.388v-4.634Z" transform="translate(-209.12 -77.899)" fill="#225a78"/>
      <path id="Path_875664" data-name="Path 875664" d="M246.238,135.257h4.635l15.6-15.606v-4.634Z" transform="translate(-197.467 -66.246)" fill="#225a78"/>
      <path id="Path_875665" data-name="Path 875665" d="M224.368,123.6H229l25.822-25.823V93.147Z" transform="translate(-185.815 -54.594)" fill="#225a78"/>
      <path id="Path_875666" data-name="Path 875666" d="M202.5,111.952h4.634l36.04-36.041V71.277Z" transform="translate(-174.163 -42.941)" fill="#225a78"/>
      <path id="Path_875667" data-name="Path 875667" d="M180.628,100.3h4.634L231.52,54.041V49.407Z" transform="translate(-162.509 -31.289)" fill="#225a78"/>
      <path id="Path_875668" data-name="Path 875668" d="M158.757,88.646h4.634l56.475-56.476V27.536Z" transform="translate(-150.857 -19.636)" fill="#225a78"/>
    </g>
    <rect id="Rectangle_403642" data-name="Rectangle 403642" width="71.286" height="71.286" transform="translate(506.713 8015.713)" fill="none" stroke="#225a78" stroke-linecap="round" stroke-linejoin="round" stroke-width="2"/>
    <rect id="Rectangle_403641" data-name="Rectangle 403641" width="74.08" height="74" transform="translate(521.045 7999)" fill="#88c0de"/>
    <g id="Group_1102755" data-name="Group 1102755" transform="translate(532.045 8018)">
      <g id="Group_1102755-2" data-name="Group 1102755" clip-path="url(#clip-path)">
        <path id="Path_879053" data-name="Path 879053" d="M59.917,6.667H48.382c-4.6,0-9.213.137-13.807,0-.109,0-.225.014-.333,0-.694-.09-.685-.651-.685-1.183,0-1.179-.109-2.412,0-3.586.075-.809.644-.787,1.244-.787H59.235c.58,0,1.262-.1,1.361.7a28.5,28.5,0,0,1,0,3.421c0,.563.117,1.362-.679,1.433-.666.06-.672,1.107,0,1.047,1.7-.153,1.726-1.586,1.726-2.916V2.545A3.568,3.568,0,0,0,61.5,1.107C60.848-.388,58.4.065,57.1.065H39.307c-1.66,0-3.336-.065-5,0a1.829,1.829,0,0,0-1.8,2.021c-.015,1.269-.055,2.556,0,3.823.093,2.14,2.3,1.8,3.793,1.8h8c5.1,0,10.212.087,15.314,0,.1,0,.2,0,.3,0a.524.524,0,0,0,0-1.047" transform="translate(-26.814 0)" fill="#12263f"/>
        <path id="Path_879054" data-name="Path 879054" d="M97.02,19.893v3.3a.524.524,0,0,0,1.047,0v-3.3a.524.524,0,0,0-1.047,0" transform="translate(-80.089 -16.004)" fill="#12263f"/>
        <path id="Path_879055" data-name="Path 879055" d="M129.209,19.893v3.3a.524.524,0,0,0,1.047,0v-3.3a.524.524,0,0,0-1.047,0" transform="translate(-106.661 -16.004)" fill="#12263f"/>
        <path id="Path_879056" data-name="Path 879056" d="M64.832,19.893v3.3a.524.524,0,0,0,1.047,0v-3.3a.524.524,0,0,0-1.047,0" transform="translate(-53.518 -16.004)" fill="#12263f"/>
        <path id="Path_879057" data-name="Path 879057" d="M161.4,19.893v3.3a.524.524,0,0,0,1.047,0v-3.3a.524.524,0,0,0-1.047,0" transform="translate(-133.232 -16.004)" fill="#12263f"/>
        <path id="Path_879058" data-name="Path 879058" d="M33.922,56.009h-16c-1.32,0-2.677.09-3.995,0-.654-.045-.871-.461-.871-1.073V51.822c0-.637-.053-1.295.786-1.368.367-.032.751,0,1.119,0H37.175a.524.524,0,0,0,0-1.047H15.041c-1.216,0-2.8-.118-3.017,1.51A20.73,20.73,0,0,0,12,53.654,5.354,5.354,0,0,0,12.24,56.2c.677,1.159,2.373.855,3.5.855H33.922a.524.524,0,0,0,0-1.047" transform="translate(-9.876 -40.784)" fill="#12263f"/>
        <path id="Path_879059" data-name="Path 879059" d="M76.568,68.94v3.3a.524.524,0,0,0,1.047,0v-3.3a.524.524,0,0,0-1.047,0" transform="translate(-63.206 -56.492)" fill="#12263f"/>
        <path id="Path_879060" data-name="Path 879060" d="M108.757,68.94v3.3a.524.524,0,0,0,1.047,0v-3.3a.524.524,0,0,0-1.047,0" transform="translate(-89.778 -56.492)" fill="#12263f"/>
        <path id="Path_879061" data-name="Path 879061" d="M44.38,68.94v3.3a.524.524,0,0,0,1.047,0v-3.3a.524.524,0,0,0-1.047,0" transform="translate(-36.635 -56.492)" fill="#12263f"/>
        <path id="Path_879062" data-name="Path 879062" d="M40.484,104.837H23.465a2.413,2.413,0,0,1-.749-.046c-.728-.236-.507-1.377-.507-1.98,0-.847-.044-1.707,0-2.554.028-.555.207-.927.82-.974,1.035-.08,2.109,0,3.147,0H40.484a.524.524,0,0,0,0-1.047H32.293c-3.092,0-6.206-.108-9.3,0a1.793,1.793,0,0,0-1.688,1.042,5.313,5.313,0,0,0-.147,2.032c0,1.4-.531,4.13,1.371,4.537a12.931,12.931,0,0,0,2.6.038H40.484a.524.524,0,0,0,0-1.047" transform="translate(-17.413 -81.053)" fill="#12263f"/>
        <path id="Path_879063" data-name="Path 879063" d="M85.86,117.987v3.3a.524.524,0,0,0,1.047,0v-3.3a.524.524,0,0,0-1.047,0" transform="translate(-70.877 -96.98)" fill="#12263f"/>
        <path id="Path_879064" data-name="Path 879064" d="M118.049,117.987v3.3a.524.524,0,0,0,1.047,0v-3.3a.524.524,0,0,0-1.047,0" transform="translate(-97.449 -96.98)" fill="#12263f"/>
        <path id="Path_879065" data-name="Path 879065" d="M53.672,117.987v3.3a.524.524,0,0,0,1.047,0v-3.3a.524.524,0,0,0-1.047,0" transform="translate(-44.306 -96.98)" fill="#12263f"/>
        <path id="Path_879066" data-name="Path 879066" d="M27.485,153.765H4.235c-.735,0-2.962.391-3.109-.679a21.018,21.018,0,0,1,0-2.768c0-.713-.257-1.993.723-2.108a32.34,32.34,0,0,1,3.661,0h18.95a.524.524,0,0,0,0-1.047H13.568c-3.888,0-7.815-.165-11.7,0-2.442.1-1.789,3.4-1.789,5.031,0,1.008.007,2.132,1.167,2.524a3.8,3.8,0,0,0,1.21.094H27.485a.524.524,0,0,0,0-1.047" transform="translate(0.001 -121.422)" fill="#12263f"/>
        <path id="Path_879067" data-name="Path 879067" d="M64.832,167.034v3.3a.524.524,0,0,0,1.047,0v-3.3a.524.524,0,0,0-1.047,0" transform="translate(-53.518 -137.468)" fill="#12263f"/>
        <path id="Path_879068" data-name="Path 879068" d="M97.02,167.034v3.3a.524.524,0,0,0,1.047,0v-3.3a.524.524,0,0,0-1.047,0" transform="translate(-80.089 -137.468)" fill="#12263f"/>
        <path id="Path_879069" data-name="Path 879069" d="M32.643,167.034v3.3a.524.524,0,0,0,1.047,0v-3.3a.524.524,0,0,0-1.047,0" transform="translate(-26.947 -137.468)" fill="#12263f"/>
        <path id="Path_879070" data-name="Path 879070" d="M129.209,167.034v3.3a.524.524,0,0,0,1.047,0v-3.3a.524.524,0,0,0-1.047,0" transform="translate(-106.661 -137.468)" fill="#12263f"/>
        <path id="Path_879071" data-name="Path 879071" d="M172.027,59.2a12.413,12.413,0,1,1-9.916-12.163A12.541,12.541,0,0,1,172.027,59.2a.524.524,0,0,0,1.047,0,13.461,13.461,0,1,0-10.918,13.218A13.621,13.621,0,0,0,173.075,59.2a.524.524,0,0,0-1.047,0" transform="translate(-120.671 -37.766)" fill="#12263f"/>
        <path id="Path_879072" data-name="Path 879072" d="M208.023,88.166c-1.515-1.291-3.74-2.3-5.4-.653a2.837,2.837,0,0,0-.412,3.636c.846,1.174,2.439,1.474,3.679,2.048s2.4,1.769,1.807,3.185c-1,2.379-3.827,1.875-5.677.944-.6-.3-1.131.6-.528.9,1.8.906,4.065,1.513,5.84.213a3.477,3.477,0,0,0,1.52-3.155,3.909,3.909,0,0,0-2.7-3.111c-1.082-.47-3.053-.84-3.345-2.2a1.9,1.9,0,0,1,.769-1.913c1.225-.925,2.724.013,3.7.846.51.435,1.254-.3.74-.74" transform="translate(-166.113 -71.532)" fill="#12263f"/>
        <path id="Path_879073" data-name="Path 879073" d="M220.162,77.02v1.761a.524.524,0,0,0,1.047,0V77.02a.524.524,0,0,0-1.047,0" transform="translate(-181.742 -63.162)" fill="#12263f"/>
        <path id="Path_879074" data-name="Path 879074" d="M220.162,153.745v1.761a.524.524,0,0,0,1.047,0v-1.761a.524.524,0,0,0-1.047,0" transform="translate(-181.742 -126.498)" fill="#12263f"/>
      </g>
    </g>
  </g>
</svg>
