<svg xmlns="http://www.w3.org/2000/svg" xmlns:xlink="http://www.w3.org/1999/xlink" width="100" height="100" viewBox="0 0 100 100">
  <defs>
    <clipPath id="clip-path">
      <rect id="Rectangle_405059" data-name="Rectangle 405059" width="53.27" height="53.093" fill="#12263f"/>
    </clipPath>
  </defs>
  <g id="img27" transform="translate(-505.713 -7988)">
    <g id="Group_1101010" data-name="Group 1101010" transform="translate(536.702 7988)">
      <path id="Path_875656" data-name="Path 875656" d="M208.54,10.626,141.848,77.319v2.317h2.317l66.693-66.693V10.626Z" transform="translate(-141.847 -10.626)" fill="#225a78"/>
      <path id="Path_875657" data-name="Path 875657" d="M198.323,10.626,141.848,67.1v4.635l61.109-61.11Z" transform="translate(-141.847 -10.626)" fill="#225a78"/>
      <path id="Path_875658" data-name="Path 875658" d="M188.1,10.626,141.847,56.884v4.634l50.892-50.892Z" transform="translate(-141.847 -10.626)" fill="#225a78"/>
      <path id="Path_875659" data-name="Path 875659" d="M177.887,10.626l-36.04,36.041V51.3l40.675-40.675Z" transform="translate(-141.847 -10.626)" fill="#225a78"/>
      <path id="Path_875660" data-name="Path 875660" d="M167.67,10.626,141.847,36.449v4.634L172.3,10.626Z" transform="translate(-141.847 -10.626)" fill="#225a78"/>
      <path id="Path_875661" data-name="Path 875661" d="M157.452,10.626l-15.6,15.605v4.635l20.239-20.24Z" transform="translate(-141.847 -10.626)" fill="#225a78"/>
      <path id="Path_875662" data-name="Path 875662" d="M147.234,10.626l-5.388,5.388v4.635l10.022-10.022Z" transform="translate(-141.847 -10.626)" fill="#225a78"/>
      <path id="Path_875663" data-name="Path 875663" d="M268.109,146.91h4.634l5.387-5.388v-4.634Z" transform="translate(-209.12 -77.899)" fill="#225a78"/>
      <path id="Path_875664" data-name="Path 875664" d="M246.238,135.257h4.635l15.6-15.606v-4.634Z" transform="translate(-197.467 -66.246)" fill="#225a78"/>
      <path id="Path_875665" data-name="Path 875665" d="M224.368,123.6H229l25.822-25.823V93.147Z" transform="translate(-185.815 -54.594)" fill="#225a78"/>
      <path id="Path_875666" data-name="Path 875666" d="M202.5,111.952h4.634l36.04-36.041V71.277Z" transform="translate(-174.163 -42.941)" fill="#225a78"/>
      <path id="Path_875667" data-name="Path 875667" d="M180.628,100.3h4.634L231.52,54.041V49.407Z" transform="translate(-162.509 -31.289)" fill="#225a78"/>
      <path id="Path_875668" data-name="Path 875668" d="M158.757,88.646h4.634l56.475-56.476V27.536Z" transform="translate(-150.857 -19.636)" fill="#225a78"/>
    </g>
    <rect id="Rectangle_403642" data-name="Rectangle 403642" width="71.286" height="71.286" transform="translate(506.713 8015.713)" fill="none" stroke="#225a78" stroke-linecap="round" stroke-linejoin="round" stroke-width="2"/>
    <rect id="Rectangle_403641" data-name="Rectangle 403641" width="74.08" height="74" transform="translate(521.045 7999.141)" fill="#88c0de"/>
    <g id="Group_1102766" data-name="Group 1102766" transform="translate(531.045 8009.141)">
      <g id="Group_1102765" data-name="Group 1102765" clip-path="url(#clip-path)">
        <path id="Path_879120" data-name="Path 879120" d="M15.611,165.682H9.354c-2.293,0-4.7.217-6.985,0-1.055-.1-1.065-.837-1.065-1.625V151.981a47.975,47.975,0,0,1,0-5.555c.139-1.167,1.227-.98,2.067-.98H15.125c.814,0,1.387.308,1.445,1.207.053.825,0,1.671,0,2.5v14.075c0,.858.268,2.345-.96,2.455-.8.072-.808,1.331,0,1.258,2.8-.251,2.218-3.451,2.218-5.442V147.612a4.871,4.871,0,0,0-.244-2.2c-.576-1.142-1.687-1.222-2.8-1.222h-4.1c-2.747,0-5.5-.074-8.251,0C-.24,144.26.046,146.795.046,148.7v9.653c0,2.109-.1,4.247,0,6.354.145,2.94,3.979,2.231,5.96,2.231h9.605a.63.63,0,0,0,0-1.258" transform="translate(0 -113.922)" fill="#12263f"/>
        <path id="Path_879121" data-name="Path 879121" d="M17.455,179.328H.93a.63.63,0,0,0,0,1.258H17.455a.63.63,0,0,0,0-1.258" transform="translate(-0.255 -141.718)" fill="#12263f"/>
        <path id="Path_879122" data-name="Path 879122" d="M17.455,201.818H.93a.63.63,0,0,0,0,1.258H17.455a.63.63,0,0,0,0-1.258" transform="translate(-0.255 -159.491)" fill="#12263f"/>
        <path id="Path_879123" data-name="Path 879123" d="M11.947,224.307H.93a.63.63,0,0,0,0,1.258H11.947a.63.63,0,0,0,0-1.258" transform="translate(-0.255 -177.264)" fill="#12263f"/>
        <path id="Path_879124" data-name="Path 879124" d="M26.484,180.039v14.15a.63.63,0,0,0,1.258,0v-14.15a.63.63,0,0,0-1.258,0" transform="translate(-20.93 -141.8)" fill="#12263f"/>
        <path id="Path_879125" data-name="Path 879125" d="M52.748,180.039v14.15a.63.63,0,0,0,1.258,0v-14.15a.63.63,0,0,0-1.258,0" transform="translate(-41.685 -141.8)" fill="#12263f"/>
        <path id="Path_879126" data-name="Path 879126" d="M208.364,23.567c-1.182-.824-2.94-1.275-3.939.082a1.708,1.708,0,0,0,.592,2.526c.7.415,2.628.558,2.818,1.507a.83.83,0,0,1-.476.836c-.845.552-1.951.168-2.792-.179-.748-.309-1.074.908-.335,1.213,1.356.559,3.079.821,4.229-.313a1.929,1.929,0,0,0,.278-2.553c-.659-.932-1.874-1.026-2.834-1.468-.364-.167-.739-.406-.47-.832.527-.832,1.761-.1,2.294.268.665.464,1.3-.626.635-1.087" transform="translate(-161.071 -18.006)" fill="#12263f"/>
        <path id="Path_879127" data-name="Path 879127" d="M213.331,18.887v.921a.629.629,0,0,0,1.258,0v-.921a.629.629,0,0,0-1.258,0" transform="translate(-168.59 -14.428)" fill="#12263f"/>
        <path id="Path_879128" data-name="Path 879128" d="M213.331,52.281V53.2a.629.629,0,1,0,1.258,0v-.921a.629.629,0,0,0-1.258,0" transform="translate(-168.59 -40.819)" fill="#12263f"/>
        <path id="Path_879129" data-name="Path 879129" d="M193.264,10.4a6.642,6.642,0,1,1-12.329-3.43,6.641,6.641,0,0,1,12.329,3.43.63.63,0,0,0,1.258,0,7.9,7.9,0,1,0-14.674,4.066A7.9,7.9,0,0,0,194.523,10.4a.63.63,0,0,0-1.258,0" transform="translate(-141.253 -1.982)" fill="#12263f"/>
        <path id="Path_879130" data-name="Path 879130" d="M106.021,6.292a5.042,5.042,0,0,1-10.084,0,5.042,5.042,0,0,1,10.084,0,.63.63,0,0,0,1.258,0A6.3,6.3,0,1,0,95.585,9.551,6.3,6.3,0,0,0,107.28,6.292a.63.63,0,0,0-1.258,0" transform="translate(-74.833 0)" fill="#12263f"/>
        <path id="Path_879131" data-name="Path 879131" d="M122.928,195.486V181.681a.63.63,0,0,0-1.258,0v13.805a.63.63,0,0,0,1.258,0" transform="translate(-96.153 -143.097)" fill="#12263f"/>
        <path id="Path_879132" data-name="Path 879132" d="M42.563,102.781c-1.049,0-2.146.1-3.189,0-1.069-.105-1.019-.929-1.09-1.72l-.679-7.623c-.341-3.831-.716-7.611-.767-11.455q-.05-3.8-.1-7.6l-.629.629-.445-1.074a6.017,6.017,0,0,1-1.593,1.518,4.445,4.445,0,0,1-1.972.254q-2.578,0-5.156,0c-1.687,0-5.021.641-4.917-1.983a1.816,1.816,0,0,1,1.151-1.706,5.8,5.8,0,0,1,1.874-.1h5.008a7.661,7.661,0,0,0,2.173-.022c.538-.188.968-.967,1.327-1.386L35.4,68.367c.781-.911,1.373-2.008,2.635-2.177,1.165-.155,2.327-.3,3.5-.351a27.223,27.223,0,0,1,4.516.212,4.6,4.6,0,0,1,2.1.479,11.576,11.576,0,0,1,1.574,1.836L51.3,70.2a7.278,7.278,0,0,0,1.439,1.628,5.747,5.747,0,0,0,2.324.086h4.612c1.064,0,2.469-.271,3.128.793a2.161,2.161,0,0,1-.1,2.347c-.764.99-2.373.648-3.456.648q-2.758,0-5.516,0a8.418,8.418,0,0,1-2.3-.114,4.685,4.685,0,0,1-1.98-1.656l-.445,1.074-.629-.629c-.049,3.719.107,7.5-.167,11.206-.363,4.93-.878,9.854-1.317,14.778-.059.657.059,1.942-.649,2.305a4.5,4.5,0,0,1-1.862.108H42.563a.63.63,0,0,0,0,1.258c2.11,0,5.168.582,5.475-2.285.245-2.283.408-4.579.612-6.866.372-4.179.836-8.332.891-12.527q.052-3.99.1-7.979a.629.629,0,1,0-1.074.445c1.094,1.219,2,2.059,3.7,2.132,1.962.085,3.944.006,5.908.006,2.2,0,5.282.523,6.047-2.205a3.15,3.15,0,0,0-2.61-4.081,56.992,56.992,0,0,0-5.78-.02c-.784,0-2.141.266-2.728-.275a27.982,27.982,0,0,1-2.1-2.448c-1-1.163-1.842-2.745-3.47-2.944-1.112-.136-2.215-.309-3.335-.378a27.934,27.934,0,0,0-5.4.216,4.4,4.4,0,0,0-2.719.809c-1.431,1.408-2.558,3.133-3.937,4.593-.647.685-1.763.428-2.667.428H26.229c-1.291,0-2.878-.272-4.042.444A3.09,3.09,0,0,0,20.8,73.374a3.322,3.322,0,0,0,.85,2.715c1.007,1.031,2.416.876,3.74.876q3.355,0,6.711,0a5.978,5.978,0,0,0,2.342-.31,6.294,6.294,0,0,0,2.113-1.83.629.629,0,1,0-1.074-.445c.05,3.834-.142,7.747.2,11.566q.689,7.737,1.379,15.474c.1,1.172.5,2.291,1.817,2.569a18.728,18.728,0,0,0,3.688.048.63.63,0,0,0,0-1.258" transform="translate(-16.417 -51.025)" fill="#12263f"/>
      </g>
    </g>
  </g>
</svg>
