<svg xmlns="http://www.w3.org/2000/svg" xmlns:xlink="http://www.w3.org/1999/xlink" width="100" height="100" viewBox="0 0 100 100">
  <defs>
    <clipPath id="clip-path">
      <rect id="Rectangle_405056" data-name="Rectangle 405056" width="46.806" height="46.79" fill="#12263f"/>
    </clipPath>
  </defs>
  <g id="img24" transform="translate(-505.713 -7988)">
    <g id="Group_1101010" data-name="Group 1101010" transform="translate(536.702 7988)">
      <path id="Path_875656" data-name="Path 875656" d="M208.54,10.626,141.848,77.319v2.317h2.317l66.693-66.693V10.626Z" transform="translate(-141.847 -10.626)" fill="#225a78"/>
      <path id="Path_875657" data-name="Path 875657" d="M198.323,10.626,141.848,67.1v4.635l61.109-61.11Z" transform="translate(-141.847 -10.626)" fill="#225a78"/>
      <path id="Path_875658" data-name="Path 875658" d="M188.1,10.626,141.847,56.884v4.634l50.892-50.892Z" transform="translate(-141.847 -10.626)" fill="#225a78"/>
      <path id="Path_875659" data-name="Path 875659" d="M177.887,10.626l-36.04,36.041V51.3l40.675-40.675Z" transform="translate(-141.847 -10.626)" fill="#225a78"/>
      <path id="Path_875660" data-name="Path 875660" d="M167.67,10.626,141.847,36.449v4.634L172.3,10.626Z" transform="translate(-141.847 -10.626)" fill="#225a78"/>
      <path id="Path_875661" data-name="Path 875661" d="M157.452,10.626l-15.6,15.605v4.635l20.239-20.24Z" transform="translate(-141.847 -10.626)" fill="#225a78"/>
      <path id="Path_875662" data-name="Path 875662" d="M147.234,10.626l-5.388,5.388v4.635l10.022-10.022Z" transform="translate(-141.847 -10.626)" fill="#225a78"/>
      <path id="Path_875663" data-name="Path 875663" d="M268.109,146.91h4.634l5.387-5.388v-4.634Z" transform="translate(-209.12 -77.899)" fill="#225a78"/>
      <path id="Path_875664" data-name="Path 875664" d="M246.238,135.257h4.635l15.6-15.606v-4.634Z" transform="translate(-197.467 -66.246)" fill="#225a78"/>
      <path id="Path_875665" data-name="Path 875665" d="M224.368,123.6H229l25.822-25.823V93.147Z" transform="translate(-185.815 -54.594)" fill="#225a78"/>
      <path id="Path_875666" data-name="Path 875666" d="M202.5,111.952h4.634l36.04-36.041V71.277Z" transform="translate(-174.163 -42.941)" fill="#225a78"/>
      <path id="Path_875667" data-name="Path 875667" d="M180.628,100.3h4.634L231.52,54.041V49.407Z" transform="translate(-162.509 -31.289)" fill="#225a78"/>
      <path id="Path_875668" data-name="Path 875668" d="M158.757,88.646h4.634l56.475-56.476V27.536Z" transform="translate(-150.857 -19.636)" fill="#225a78"/>
    </g>
    <rect id="Rectangle_403642" data-name="Rectangle 403642" width="71.286" height="71.286" transform="translate(506.713 8015.713)" fill="none" stroke="#225a78" stroke-linecap="round" stroke-linejoin="round" stroke-width="2"/>
    <rect id="Rectangle_403641" data-name="Rectangle 403641" width="74.08" height="74" transform="translate(521.045 7999.141)" fill="#88c0de"/>
    <g id="Group_1102760" data-name="Group 1102760" transform="translate(535.045 8012.141)">
      <g id="Group_1102759" data-name="Group 1102759" clip-path="url(#clip-path)">
        <path id="Path_879096" data-name="Path 879096" d="M67.385,80.842q-.033-.984-.066-1.968a.592.592,0,0,0-.421-.553,9.882,9.882,0,0,1-3.041-1.592.557.557,0,0,0-.579,0A8.149,8.149,0,0,1,61.7,77.757c-.634.207-1.045-.761-1.379-1.206-.291-.389-1.086-1.075-.749-1.612A7.566,7.566,0,0,1,61.028,73.7a.556.556,0,0,0,.148-.558,9.863,9.863,0,0,1-.672-3.362.591.591,0,0,0-.421-.553,6.485,6.485,0,0,1-1.786-.59c-.461-.371.006-1.294.131-1.778.119-.456.178-1.541.74-1.637a6.465,6.465,0,0,1,1.847.355.594.594,0,0,0,.648-.264,9.8,9.8,0,0,1,2.253-2.638.557.557,0,0,0,.148-.558,7.082,7.082,0,0,1-.647-1.767c-.021-.68.924-.845,1.431-1.069.456-.2,1.362-.865,1.779-.4a8.509,8.509,0,0,1,.884,1.7.592.592,0,0,0,.648.264,9.578,9.578,0,0,1,3.274.12.594.594,0,0,0,.648-.263,7.217,7.217,0,0,1,.979-1.611c.471-.414,1.331.312,1.777.545.405.211,1.381.483,1.373,1.039a6.031,6.031,0,0,1-.762,1.721.6.6,0,0,0,.09.7,9.957,9.957,0,0,1,2.049,2.756.555.555,0,0,0,.5.284,7.346,7.346,0,0,1,1.869-.24c.687.116.619.962.728,1.521.1.539.571,1.592.013,1.937a7.44,7.44,0,0,1-1.821.478.592.592,0,0,0-.421.553,9.561,9.561,0,0,1-.829,3.175.6.6,0,0,0,.09.7,7.4,7.4,0,0,1,1.352,1.309c.323.578-.6,1.263-.957,1.682s-.727,1.2-1.374.975a7.332,7.332,0,0,1-1.512-1.126.557.557,0,0,0-.579,0,9.951,9.951,0,0,1-3.135,1.4.591.591,0,0,0-.421.553l-.128,1.338c-.051.529-.076.763-.64.812a14.522,14.522,0,0,1-1.653-.051c-.463-.015-1.2.149-1.3-.439-.118-.727-1.224-.418-1.107.305.276,1.693,2.857,1.338,4.113,1.334,1.889-.007,1.725-1.9,1.86-3.3l-.421.553a10.873,10.873,0,0,0,3.409-1.512h-.579c.622.463,1.4,1.3,2.2,1.4,1.049.129,1.668-.951,2.256-1.643s1.513-1.453,1.188-2.454c-.251-.775-1.2-1.405-1.762-1.951l.09.7a11.214,11.214,0,0,0,.985-3.754l-.421.553a7.093,7.093,0,0,0,2.4-.752c.9-.679.443-1.893.266-2.8-.166-.855-.178-2.073-1.079-2.507-.751-.361-1.894.012-2.677.113l.5.284a10.865,10.865,0,0,0-2.229-2.988l.09.7a6.8,6.8,0,0,0,.938-2.468c-.021-1.1-1.228-1.479-2.042-1.9-.769-.4-1.737-1.15-2.632-.706-.756.375-1.2,1.544-1.612,2.227l.648-.264a11.267,11.267,0,0,0-3.884-.12l.648.264a6.677,6.677,0,0,0-1.27-2.161c-.88-.7-1.934,0-2.8.383-.794.351-1.993.633-2.191,1.62-.165.822.436,1.834.711,2.585l.147-.558a10.71,10.71,0,0,0-2.432,2.87l.648-.264a6.568,6.568,0,0,0-2.621-.347c-1.048.279-1.149,1.549-1.378,2.43-.22.845-.725,1.945-.078,2.718.54.644,1.778.812,2.535,1.062l-.421-.553a10.8,10.8,0,0,0,.712,3.667l.148-.558c-.594.508-1.568,1.069-1.857,1.827-.38,1,.535,1.836,1.082,2.566S60.519,79.071,61.555,79c.817-.059,1.642-.846,2.3-1.276h-.579a10.775,10.775,0,0,0,3.315,1.708l-.421-.553q.033.984.066,1.968c.025.737,1.172.74,1.148,0" transform="translate(-46.038 -46.527)" fill="#12263f"/>
        <path id="Path_879097" data-name="Path 879097" d="M102.212,102.137a4.354,4.354,0,1,1,.406-6.145,4.407,4.407,0,0,1-.406,6.145c-.54.507.273,1.317.812.812a5.5,5.5,0,1,0-7.072.238,5.575,5.575,0,0,0,7.072-.238c.565-.476-.25-1.285-.812-.812" transform="translate(-75.939 -75.504)" fill="#12263f"/>
        <path id="Path_879098" data-name="Path 879098" d="M40.844,9.215A19.817,19.817,0,0,0,13.5,9.551a.582.582,0,0,0,0,.811L17.14,14l.253-.959L5.285,15.164l.706.706L8.11,3.762l-.959.253,3.642,3.642a.583.583,0,0,0,.812,0A22.26,22.26,0,0,1,46,11.246a22.482,22.482,0,0,1,3.6,11.81.574.574,0,0,0,1.148,0A23.407,23.407,0,0,0,20.722.942a23.693,23.693,0,0,0-9.929,5.9H11.6L7.963,3.2A.578.578,0,0,0,7,3.457L4.885,15.565a.583.583,0,0,0,.706.706L17.7,14.152a.578.578,0,0,0,.253-.959L14.31,9.551v.811a18.646,18.646,0,0,1,25.723-.335c.539.5,1.352-.305.812-.812" transform="translate(-3.941 0)" fill="#12263f"/>
        <path id="Path_879099" data-name="Path 879099" d="M0,118.2a23.4,23.4,0,0,0,29.9,22.829,23.664,23.664,0,0,0,10.055-5.94H39.14l3.643,3.643a.578.578,0,0,0,.959-.253l2.118-12.11a.583.583,0,0,0-.706-.706l-12.108,2.119a.578.578,0,0,0-.253.959l3.642,3.642v-.811a18.646,18.646,0,0,1-26.4-.343c-.514-.533-1.325.279-.812.811a19.6,19.6,0,0,0,28.025.344.582.582,0,0,0,0-.811L33.6,127.935l-.253.959,12.108-2.119-.706-.706-2.118,12.11.959-.253-3.644-3.643a.583.583,0,0,0-.811,0,22.258,22.258,0,0,1-34.656-4A22.5,22.5,0,0,1,1.148,118.2.574.574,0,0,0,0,118.2" transform="translate(0 -95.148)" fill="#12263f"/>
      </g>
    </g>
  </g>
</svg>
