<svg xmlns="http://www.w3.org/2000/svg" xmlns:xlink="http://www.w3.org/1999/xlink" width="100" height="100" viewBox="0 0 100 100">
  <defs>
    <clipPath id="clip-path">
      <rect id="Rectangle_405058" data-name="Rectangle 405058" width="62.471" height="47.997" fill="#12263f"/>
    </clipPath>
  </defs>
  <g id="img26" transform="translate(-505.713 -7988)">
    <g id="Group_1101010" data-name="Group 1101010" transform="translate(536.702 7988)">
      <path id="Path_875656" data-name="Path 875656" d="M208.54,10.626,141.848,77.319v2.317h2.317l66.693-66.693V10.626Z" transform="translate(-141.847 -10.626)" fill="#225a78"/>
      <path id="Path_875657" data-name="Path 875657" d="M198.323,10.626,141.848,67.1v4.635l61.109-61.11Z" transform="translate(-141.847 -10.626)" fill="#225a78"/>
      <path id="Path_875658" data-name="Path 875658" d="M188.1,10.626,141.847,56.884v4.634l50.892-50.892Z" transform="translate(-141.847 -10.626)" fill="#225a78"/>
      <path id="Path_875659" data-name="Path 875659" d="M177.887,10.626l-36.04,36.041V51.3l40.675-40.675Z" transform="translate(-141.847 -10.626)" fill="#225a78"/>
      <path id="Path_875660" data-name="Path 875660" d="M167.67,10.626,141.847,36.449v4.634L172.3,10.626Z" transform="translate(-141.847 -10.626)" fill="#225a78"/>
      <path id="Path_875661" data-name="Path 875661" d="M157.452,10.626l-15.6,15.605v4.635l20.239-20.24Z" transform="translate(-141.847 -10.626)" fill="#225a78"/>
      <path id="Path_875662" data-name="Path 875662" d="M147.234,10.626l-5.388,5.388v4.635l10.022-10.022Z" transform="translate(-141.847 -10.626)" fill="#225a78"/>
      <path id="Path_875663" data-name="Path 875663" d="M268.109,146.91h4.634l5.387-5.388v-4.634Z" transform="translate(-209.12 -77.899)" fill="#225a78"/>
      <path id="Path_875664" data-name="Path 875664" d="M246.238,135.257h4.635l15.6-15.606v-4.634Z" transform="translate(-197.467 -66.246)" fill="#225a78"/>
      <path id="Path_875665" data-name="Path 875665" d="M224.368,123.6H229l25.822-25.823V93.147Z" transform="translate(-185.815 -54.594)" fill="#225a78"/>
      <path id="Path_875666" data-name="Path 875666" d="M202.5,111.952h4.634l36.04-36.041V71.277Z" transform="translate(-174.163 -42.941)" fill="#225a78"/>
      <path id="Path_875667" data-name="Path 875667" d="M180.628,100.3h4.634L231.52,54.041V49.407Z" transform="translate(-162.509 -31.289)" fill="#225a78"/>
      <path id="Path_875668" data-name="Path 875668" d="M158.757,88.646h4.634l56.475-56.476V27.536Z" transform="translate(-150.857 -19.636)" fill="#225a78"/>
    </g>
    <rect id="Rectangle_403642" data-name="Rectangle 403642" width="71.286" height="71.286" transform="translate(506.713 8015.713)" fill="none" stroke="#225a78" stroke-linecap="round" stroke-linejoin="round" stroke-width="2"/>
    <rect id="Rectangle_403641" data-name="Rectangle 403641" width="74.08" height="74" transform="translate(521.045 7999.141)" fill="#88c0de"/>
    <g id="Group_1102764" data-name="Group 1102764" transform="translate(527.045 8012.141)">
      <g id="Group_1102763" data-name="Group 1102763" clip-path="url(#clip-path)">
        <path id="Path_879106" data-name="Path 879106" d="M124.174,7.554v2.3a.715.715,0,0,0,1.2.5l5.846-4.589a.705.705,0,0,0,0-1L125.377.177a.715.715,0,0,0-1.2.5V5.265l.7-.7H109.341a.705.705,0,0,0,0,1.41h15.537a.715.715,0,0,0,.7-.7V.675l-1.2.5,5.846,4.589v-1L124.38,9.356l1.2.5v-2.3a.705.705,0,0,0-1.41,0" transform="translate(-83.126 0)" fill="#12263f"/>
        <path id="Path_879107" data-name="Path 879107" d="M80.652,166.988v2.3l1.2-.5L76.01,164.2v1l5.846-4.589-1.2-.5V164.7a.715.715,0,0,0,.7.7H96.895a.705.705,0,0,0,0-1.41H81.357l.7.7v-4.589a.714.714,0,0,0-1.2-.5L75.013,164.2a.705.705,0,0,0,0,1l5.846,4.589a.715.715,0,0,0,1.2-.5v-2.3a.705.705,0,0,0-1.41,0" transform="translate(-57.227 -121.967)" fill="#12263f"/>
        <path id="Path_879108" data-name="Path 879108" d="M203.387,124.237l.267,4.643c.052.9,1.462.908,1.41,0l-.267-4.643c-.052-.9-1.462-.908-1.41,0" transform="translate(-155.592 -94.523)" fill="#12263f"/>
        <path id="Path_879109" data-name="Path 879109" d="M239.66,124.237l-.267,4.643c-.052.907,1.358.9,1.41,0l.267-4.643c.052-.907-1.358-.9-1.41,0" transform="translate(-183.136 -94.523)" fill="#12263f"/>
        <path id="Path_879110" data-name="Path 879110" d="M203.206,110.2v-6.032a4.168,4.168,0,0,0-.951-2.955c-1.042-1.149-2.477-1.182-3.9-1.443a33.277,33.277,0,0,0-3.928-.609,18.969,18.969,0,0,0-4.608.431,13.1,13.1,0,0,0-3.907.859,3.8,3.8,0,0,0-1.916,3.329c-.063,2.136,0,4.283,0,6.42a.715.715,0,0,0,.7.7h17.8a.705.705,0,0,0,0-1.41H184.7l.7.7v-5.223a4.87,4.87,0,0,1,.3-2.421c.728-1.279,2.332-1.21,3.614-1.444a29.318,29.318,0,0,1,3.458-.541,17.4,17.4,0,0,1,4.233.38,18.642,18.642,0,0,1,3.324.6c1.217.487,1.464,1.6,1.464,2.755v5.9a.705.705,0,0,0,1.41,0" transform="translate(-140.736 -75.843)" fill="#12263f"/>
        <path id="Path_879111" data-name="Path 879111" d="M212.431,57.215a3.521,3.521,0,1,1-3.521-3.521,3.564,3.564,0,0,1,3.521,3.521c.033.9,1.443.909,1.41,0a4.931,4.931,0,1,0-4.931,4.931,5,5,0,0,0,4.931-4.931c.033-.908-1.377-.906-1.41,0" transform="translate(-156.046 -39.998)" fill="#12263f"/>
        <path id="Path_879112" data-name="Path 879112" d="M55.693,124.237q-.134,2.322-.267,4.643c-.052.907,1.358.9,1.41,0q.134-2.321.267-4.643c.052-.907-1.358-.9-1.41,0" transform="translate(-42.4 -94.523)" fill="#12263f"/>
        <path id="Path_879113" data-name="Path 879113" d="M19.42,124.237q.134,2.322.267,4.643c.052.9,1.462.908,1.41,0q-.134-2.321-.267-4.643c-.052-.9-1.462-.908-1.41,0" transform="translate(-14.856 -94.523)" fill="#12263f"/>
        <path id="Path_879114" data-name="Path 879114" d="M1.438,110.2v-5.223a4.87,4.87,0,0,1,.3-2.421c.728-1.279,2.332-1.21,3.614-1.444a29.318,29.318,0,0,1,3.458-.541,17.4,17.4,0,0,1,4.233.38,18.642,18.642,0,0,1,3.324.6c1.217.487,1.464,1.6,1.464,2.755v5.9l.7-.7H.733a.705.705,0,0,0,0,1.41h17.8a.715.715,0,0,0,.7-.7v-6.032a4.169,4.169,0,0,0-.951-2.955c-1.042-1.149-2.477-1.182-3.9-1.443a33.281,33.281,0,0,0-3.929-.609,18.969,18.969,0,0,0-4.608.431,13.106,13.106,0,0,0-3.908.859A3.8,3.8,0,0,0,.028,103.78c-.063,2.136,0,4.283,0,6.42a.705.705,0,0,0,1.41,0" transform="translate(0 -75.843)" fill="#12263f"/>
        <path id="Path_879115" data-name="Path 879115" d="M20.01,57.215a4.931,4.931,0,1,0,4.931-4.931,5,5,0,0,0-4.931,4.931c-.033.908,1.377.906,1.41,0a3.521,3.521,0,1,1,3.521,3.521,3.564,3.564,0,0,1-3.521-3.521c-.033-.9-1.443-.909-1.41,0" transform="translate(-15.307 -39.998)" fill="#12263f"/>
        <path id="Path_879116" data-name="Path 879116" d="M108.491,68.746a8.852,8.852,0,1,1-7.113-8.683,8.966,8.966,0,0,1,7.113,8.683.705.705,0,0,0,1.41,0,10.264,10.264,0,1,0-8.3,10.072,10.4,10.4,0,0,0,8.3-10.072.705.705,0,0,0-1.41,0" transform="translate(-68.39 -44.748)" fill="#12263f"/>
        <path id="Path_879117" data-name="Path 879117" d="M124.743,83.532c-1.428-1.041-3.558-1.619-4.774.067a2.137,2.137,0,0,0,.739,3.136c.957.579,3.109.688,3.468,1.919a1.125,1.125,0,0,1-.535,1.232c-.992.754-2.385.342-3.412-.1-.824-.356-1.543.858-.712,1.217,1.65.713,3.715,1.169,5.192-.172a2.466,2.466,0,0,0,.537-3.207c-.772-1.233-2.32-1.365-3.52-1.945-.492-.238-.966-.572-.675-1.172.6-1.235,2.277-.27,2.979.243.734.535,1.438-.688.712-1.217" transform="translate(-91.15 -63.139)" fill="#12263f"/>
        <path id="Path_879118" data-name="Path 879118" d="M129.98,78.017v1.192a.7.7,0,0,0,1.41,0V78.017a.7.7,0,0,0-1.41,0" transform="translate(-99.436 -59.144)" fill="#12263f"/>
        <path id="Path_879119" data-name="Path 879119" d="M129.98,116.57v1.192a.7.7,0,1,0,1.41,0V116.57a.7.7,0,1,0-1.41,0" transform="translate(-99.436 -88.638)" fill="#12263f"/>
      </g>
    </g>
  </g>
</svg>
