<svg xmlns="http://www.w3.org/2000/svg" xmlns:xlink="http://www.w3.org/1999/xlink" width="100" height="100" viewBox="0 0 100 100">
  <defs>
    <clipPath id="clip-path">
      <rect id="Rectangle_405060" data-name="Rectangle 405060" width="39.598" height="52.108" fill="#12263f"/>
    </clipPath>
  </defs>
  <g id="img28" transform="translate(-505.713 -7988)">
    <g id="Group_1101010" data-name="Group 1101010" transform="translate(536.702 7988)">
      <path id="Path_875656" data-name="Path 875656" d="M208.54,10.626,141.848,77.319v2.317h2.317l66.693-66.693V10.626Z" transform="translate(-141.847 -10.626)" fill="#225a78"/>
      <path id="Path_875657" data-name="Path 875657" d="M198.323,10.626,141.848,67.1v4.635l61.109-61.11Z" transform="translate(-141.847 -10.626)" fill="#225a78"/>
      <path id="Path_875658" data-name="Path 875658" d="M188.1,10.626,141.847,56.884v4.634l50.892-50.892Z" transform="translate(-141.847 -10.626)" fill="#225a78"/>
      <path id="Path_875659" data-name="Path 875659" d="M177.887,10.626l-36.04,36.041V51.3l40.675-40.675Z" transform="translate(-141.847 -10.626)" fill="#225a78"/>
      <path id="Path_875660" data-name="Path 875660" d="M167.67,10.626,141.847,36.449v4.634L172.3,10.626Z" transform="translate(-141.847 -10.626)" fill="#225a78"/>
      <path id="Path_875661" data-name="Path 875661" d="M157.452,10.626l-15.6,15.605v4.635l20.239-20.24Z" transform="translate(-141.847 -10.626)" fill="#225a78"/>
      <path id="Path_875662" data-name="Path 875662" d="M147.234,10.626l-5.388,5.388v4.635l10.022-10.022Z" transform="translate(-141.847 -10.626)" fill="#225a78"/>
      <path id="Path_875663" data-name="Path 875663" d="M268.109,146.91h4.634l5.387-5.388v-4.634Z" transform="translate(-209.12 -77.899)" fill="#225a78"/>
      <path id="Path_875664" data-name="Path 875664" d="M246.238,135.257h4.635l15.6-15.606v-4.634Z" transform="translate(-197.467 -66.246)" fill="#225a78"/>
      <path id="Path_875665" data-name="Path 875665" d="M224.368,123.6H229l25.822-25.823V93.147Z" transform="translate(-185.815 -54.594)" fill="#225a78"/>
      <path id="Path_875666" data-name="Path 875666" d="M202.5,111.952h4.634l36.04-36.041V71.277Z" transform="translate(-174.163 -42.941)" fill="#225a78"/>
      <path id="Path_875667" data-name="Path 875667" d="M180.628,100.3h4.634L231.52,54.041V49.407Z" transform="translate(-162.509 -31.289)" fill="#225a78"/>
      <path id="Path_875668" data-name="Path 875668" d="M158.757,88.646h4.634l56.475-56.476V27.536Z" transform="translate(-150.857 -19.636)" fill="#225a78"/>
    </g>
    <rect id="Rectangle_403642" data-name="Rectangle 403642" width="71.286" height="71.286" transform="translate(506.713 8015.713)" fill="none" stroke="#225a78" stroke-linecap="round" stroke-linejoin="round" stroke-width="2"/>
    <rect id="Rectangle_403641" data-name="Rectangle 403641" width="74.08" height="74" transform="translate(521.045 7999.141)" fill="#88c0de"/>
    <g id="Group_1102768" data-name="Group 1102768" transform="translate(538.402 8009.663)">
      <g id="Group_1102767" data-name="Group 1102767" clip-path="url(#clip-path)">
        <path id="Path_879133" data-name="Path 879133" d="M36.27,50.865H20.727c-5.738,0-11.5.156-17.237,0-2.32-.063-2.183-2.079-2.183-3.728V7.478c0-1.375-.08-2.777,0-4.15C1.457.754,4.449,1.275,6.232,1.275H35.391A2.776,2.776,0,0,1,37.821,2,2.822,2.822,0,0,1,38.3,4.016V32.571c0,5.291.055,10.584,0,15.875a2.165,2.165,0,0,1-2.033,2.42c-.791.04-.8,1.274,0,1.234a3.341,3.341,0,0,0,3.267-3.345c.016-.538,0-1.079,0-1.617V6.418c0-1.449.308-3.494-.47-4.794C37.853-.4,35.2.041,33.192.041H22.762C16.4.041,10.043,0,3.683.041A3.452,3.452,0,0,0,.421,1.85,4.44,4.44,0,0,0,.072,3.961V33.75c0,5-.163,10.021,0,15.014A3.338,3.338,0,0,0,3.341,52.1c.5.02,1,0,1.493,0H36.27a.618.618,0,0,0,0-1.234" transform="translate(0 0)" fill="#12263f"/>
        <path id="Path_879134" data-name="Path 879134" d="M46.88,38.311H25.7c-1.429,0-2.89.089-4.318,0-1.888-.117-2.052-1.665-2.052-3.146,0-1.165-.328-3.046.482-4.009.947-1.125,3.248-.729,4.554-.729H41.558c1.752,0,3.538-.1,5.288,0,2.075.121,2.067,1.958,2.067,3.536,0,1.681.368,4.227-2.033,4.348-.791.04-.8,1.274,0,1.234a3.349,3.349,0,0,0,3.267-3.434c.02-1.252.075-2.537-.007-3.787a3.325,3.325,0,0,0-3.3-3.132c-.537-.02-1.079,0-1.616,0h-18.2c-1.856,0-3.72-.051-5.576,0a3.338,3.338,0,0,0-3.282,2.569,19.6,19.6,0,0,0-.076,4.065,3.408,3.408,0,0,0,2.7,3.662,9.474,9.474,0,0,0,1.63.056h7.663c5.482,0,10.978.112,16.459,0,.109,0,.218,0,.327,0a.618.618,0,0,0,0-1.234" transform="translate(-14.319 -23.17)" fill="#12263f"/>
        <path id="Path_879135" data-name="Path 879135" d="M135.3,14.74h-7.34a.618.618,0,0,0,0,1.234h7.34a.618.618,0,0,0,0-1.234" transform="translate(-101.165 -11.708)" fill="#12263f"/>
        <path id="Path_879136" data-name="Path 879136" d="M38.14,91.3v9.1a3.433,3.433,0,0,1-.236,1.68,2.223,2.223,0,0,1-2.134,1.081c-1.662.025-3.325,0-4.987,0H26.277a.618.618,0,0,0,0,1.234c3.189,0,6.38.037,9.569,0a3.366,3.366,0,0,0,3.528-3.317c.054-1.583,0-3.178,0-4.762V91.3a.618.618,0,0,0-1.234,0" transform="translate(-20.398 -72.047)" fill="#12263f"/>
        <path id="Path_879137" data-name="Path 879137" d="M40.65,122.17h6.566a.618.618,0,0,0,0-1.234H40.65a.618.618,0,0,0,0,1.234" transform="translate(-31.814 -96.058)" fill="#12263f"/>
        <path id="Path_879138" data-name="Path 879138" d="M55.911,105.674v6.566a.618.618,0,0,0,1.234,0v-6.566a.618.618,0,0,0-1.234,0" transform="translate(-44.409 -83.462)" fill="#12263f"/>
        <path id="Path_879139" data-name="Path 879139" d="M113.033,91.3v9.1a3.436,3.436,0,0,1-.236,1.68,2.223,2.223,0,0,1-2.135,1.081c-1.661.025-3.325,0-4.987,0h-4.506a.618.618,0,0,0,0,1.234c3.189,0,6.38.037,9.569,0a3.366,3.366,0,0,0,3.528-3.317c.054-1.583,0-3.178,0-4.762V91.3a.618.618,0,0,0-1.234,0" transform="translate(-79.885 -72.047)" fill="#12263f"/>
        <path id="Path_879140" data-name="Path 879140" d="M115.543,122.17h6.566a.618.618,0,0,0,0-1.234h-6.566a.618.618,0,0,0,0,1.234" transform="translate(-91.301 -96.058)" fill="#12263f"/>
        <path id="Path_879141" data-name="Path 879141" d="M38.14,166.2v9.1a3.436,3.436,0,0,1-.236,1.68,2.223,2.223,0,0,1-2.134,1.081c-1.662.025-3.325,0-4.987,0H26.277a.618.618,0,0,0,0,1.234c3.189,0,6.38.037,9.569,0a3.366,3.366,0,0,0,3.528-3.317c.054-1.583,0-3.178,0-4.762V166.2a.618.618,0,0,0-1.234,0" transform="translate(-20.398 -131.534)" fill="#12263f"/>
        <path id="Path_879142" data-name="Path 879142" d="M45.677,190.238l4.643-4.643a.617.617,0,0,0-.873-.873L44.8,189.365a.618.618,0,0,0,.873.873" transform="translate(-35.443 -146.578)" fill="#12263f"/>
        <path id="Path_879143" data-name="Path 879143" d="M113.033,166.2v9.1a3.436,3.436,0,0,1-.236,1.68,2.223,2.223,0,0,1-2.135,1.081c-1.661.025-3.325,0-4.987,0h-4.506a.618.618,0,0,0,0,1.234c3.189,0,6.38.037,9.569,0a3.366,3.366,0,0,0,3.528-3.317c.054-1.583,0-3.178,0-4.762V166.2a.618.618,0,0,0-1.234,0" transform="translate(-79.885 -131.534)" fill="#12263f"/>
        <path id="Path_879144" data-name="Path 879144" d="M120.57,190.238l4.643-4.643a.617.617,0,0,0-.873-.873l-4.643,4.643a.618.618,0,0,0,.873.873" transform="translate(-94.93 -146.578)" fill="#12263f"/>
        <path id="Path_879145" data-name="Path 879145" d="M119.7,185.6l4.643,4.643a.617.617,0,0,0,.873-.873l-4.643-4.643a.618.618,0,0,0-.873.873" transform="translate(-94.929 -146.578)" fill="#12263f"/>
      </g>
    </g>
  </g>
</svg>
