<svg xmlns="http://www.w3.org/2000/svg" xmlns:xlink="http://www.w3.org/1999/xlink" width="100" height="100" viewBox="0 0 100 100">
  <defs>
    <clipPath id="clip-path">
      <rect id="Rectangle_405061" data-name="Rectangle 405061" width="48.197" height="51.245" fill="#12263f"/>
    </clipPath>
  </defs>
  <g id="img29" transform="translate(-505.713 -7988)">
    <g id="Group_1101010" data-name="Group 1101010" transform="translate(536.702 7988)">
      <path id="Path_875656" data-name="Path 875656" d="M208.54,10.626,141.848,77.319v2.317h2.317l66.693-66.693V10.626Z" transform="translate(-141.847 -10.626)" fill="#225a78"/>
      <path id="Path_875657" data-name="Path 875657" d="M198.323,10.626,141.848,67.1v4.635l61.109-61.11Z" transform="translate(-141.847 -10.626)" fill="#225a78"/>
      <path id="Path_875658" data-name="Path 875658" d="M188.1,10.626,141.847,56.884v4.634l50.892-50.892Z" transform="translate(-141.847 -10.626)" fill="#225a78"/>
      <path id="Path_875659" data-name="Path 875659" d="M177.887,10.626l-36.04,36.041V51.3l40.675-40.675Z" transform="translate(-141.847 -10.626)" fill="#225a78"/>
      <path id="Path_875660" data-name="Path 875660" d="M167.67,10.626,141.847,36.449v4.634L172.3,10.626Z" transform="translate(-141.847 -10.626)" fill="#225a78"/>
      <path id="Path_875661" data-name="Path 875661" d="M157.452,10.626l-15.6,15.605v4.635l20.239-20.24Z" transform="translate(-141.847 -10.626)" fill="#225a78"/>
      <path id="Path_875662" data-name="Path 875662" d="M147.234,10.626l-5.388,5.388v4.635l10.022-10.022Z" transform="translate(-141.847 -10.626)" fill="#225a78"/>
      <path id="Path_875663" data-name="Path 875663" d="M268.109,146.91h4.634l5.387-5.388v-4.634Z" transform="translate(-209.12 -77.899)" fill="#225a78"/>
      <path id="Path_875664" data-name="Path 875664" d="M246.238,135.257h4.635l15.6-15.606v-4.634Z" transform="translate(-197.467 -66.246)" fill="#225a78"/>
      <path id="Path_875665" data-name="Path 875665" d="M224.368,123.6H229l25.822-25.823V93.147Z" transform="translate(-185.815 -54.594)" fill="#225a78"/>
      <path id="Path_875666" data-name="Path 875666" d="M202.5,111.952h4.634l36.04-36.041V71.277Z" transform="translate(-174.163 -42.941)" fill="#225a78"/>
      <path id="Path_875667" data-name="Path 875667" d="M180.628,100.3h4.634L231.52,54.041V49.407Z" transform="translate(-162.509 -31.289)" fill="#225a78"/>
      <path id="Path_875668" data-name="Path 875668" d="M158.757,88.646h4.634l56.475-56.476V27.536Z" transform="translate(-150.857 -19.636)" fill="#225a78"/>
    </g>
    <rect id="Rectangle_403642" data-name="Rectangle 403642" width="71.286" height="71.286" transform="translate(506.713 8015.713)" fill="none" stroke="#225a78" stroke-linecap="round" stroke-linejoin="round" stroke-width="2"/>
    <rect id="Rectangle_403641" data-name="Rectangle 403641" width="74.08" height="74" transform="translate(521.045 7999.141)" fill="#88c0de"/>
    <g id="Group_1102770" data-name="Group 1102770" transform="translate(534.045 8010.141)">
      <g id="Group_1102769" data-name="Group 1102769" clip-path="url(#clip-path)">
        <path id="Path_879146" data-name="Path 879146" d="M17.351,154.019H10.282c-2.58,0-5.215.157-7.791,0-1.19-.073-1.252-1.008-1.252-1.907V138.439a59.119,59.119,0,0,1,0-6.081c.147-1.39,1.469-1.192,2.478-1.192h4.4c2.945,0,5.893-.044,8.837,0a1.5,1.5,0,0,1,1.219.36,1.439,1.439,0,0,1,.36,1.117c.024.931,0,1.865,0,2.8v10c0,2.4.1,4.826,0,7.224a1.269,1.269,0,0,1-1.182,1.361c-.76.056-.766,1.247,0,1.191,3.059-.225,2.373-3.945,2.373-6.071V133.723a5.488,5.488,0,0,0-.247-2.424c-.641-1.27-1.868-1.323-3.09-1.323H11.751c-3.052,0-6.114-.072-9.166,0a2.451,2.451,0,0,0-2.538,2.436c-.031.841,0,1.69,0,2.531V145.72c0,2.358-.107,4.744,0,7.1.145,3.187,4.441,2.39,6.571,2.39H17.351a.6.6,0,0,0,0-1.191" transform="translate(0 -104.15)" fill="#12263f"/>
        <path id="Path_879147" data-name="Path 879147" d="M19.4,171.493H.918a.6.6,0,0,0,0,1.191H19.4a.6.6,0,0,0,0-1.191" transform="translate(-0.275 -137.452)" fill="#12263f"/>
        <path id="Path_879148" data-name="Path 879148" d="M19.4,198.074H.918a.6.6,0,0,0,0,1.191H19.4a.6.6,0,0,0,0-1.191" transform="translate(-0.275 -158.757)" fill="#12263f"/>
        <path id="Path_879149" data-name="Path 879149" d="M13.241,224.655H.917a.6.6,0,0,0,0,1.191H13.241a.6.6,0,0,0,0-1.191" transform="translate(-0.274 -180.062)" fill="#12263f"/>
        <path id="Path_879150" data-name="Path 879150" d="M31.283,172.17V188a.6.6,0,0,0,1.191,0V172.17a.6.6,0,0,0-1.191,0" transform="translate(-25.073 -137.534)" fill="#12263f"/>
        <path id="Path_879151" data-name="Path 879151" d="M62.325,172.17V188a.6.6,0,0,0,1.191,0V172.17a.6.6,0,0,0-1.191,0" transform="translate(-49.954 -137.534)" fill="#12263f"/>
        <path id="Path_879152" data-name="Path 879152" d="M105.356,75.488a32.866,32.866,0,0,0-11.282-1.006c-.922.081-1.842.2-2.755.358-.982.169-1.952.5-2.932.648a1.586,1.586,0,0,1-1.979-1.124c-.169-1.029.78-1.512,1.6-1.743A33.589,33.589,0,0,1,99.655,71.6a34.957,34.957,0,0,1,5.721.931c.832.207,1.894.488,1.972,1.532.081,1.089-1.076,1.615-1.993,1.427-.748-.153-1.068.994-.317,1.148a2.832,2.832,0,0,0,3.32-1.585,2.562,2.562,0,0,0-.969-3.018,6.137,6.137,0,0,0-2.243-.784q-1.636-.379-3.3-.6a36.5,36.5,0,0,0-5.9-.334,37.083,37.083,0,0,0-6.069.667c-1.443.279-3.366.448-4.244,1.8a2.5,2.5,0,0,0,.457,3.268c1.323,1.172,2.942.464,4.444.151a31.6,31.6,0,0,1,14.508.438.6.6,0,0,0,.317-1.148" transform="translate(-68.304 -56.344)" fill="#12263f"/>
        <path id="Path_879153" data-name="Path 879153" d="M93.056,14.594a47.428,47.428,0,0,0-2.909-4.377c-.722-1.028-1.972-2.469-2-3.8-.015-.645.085-.631.631-.471a11.869,11.869,0,0,0,1.942.469,5.857,5.857,0,0,0,4.552-1.554,8.352,8.352,0,0,0,1.848-2.92c.18-.371.307-.61.718-.693a5.6,5.6,0,0,1,2.108.258,28.811,28.811,0,0,1,5.775,2.215c1.17.546,3.54,1.365,3.844,2.837.106.512-.23.878-.519,1.274-.49.671-1.039,1.3-1.576,1.931-1.311,1.541-2.642,3.066-3.843,4.7-.455.618.578,1.212,1.028.6,1.275-1.73,2.714-3.329,4.1-4.973.689-.819,1.862-1.9,2.02-3.018.223-1.586-1.305-2.713-2.5-3.4a34.945,34.945,0,0,0-6.214-2.81C100.722.422,98.7-.31,97.28.142c-1.059.336-1.293,1.564-1.741,2.432A4.811,4.811,0,0,1,90.37,5.159c-1.018-.21-2.406-1.089-3.128.088-.822,1.34.231,3.067.949,4.2,1.234,1.948,2.725,3.723,3.837,5.75.369.672,1.4.072,1.028-.6" transform="translate(-69.685 0)" fill="#12263f"/>
        <path id="Path_879154" data-name="Path 879154" d="M123.35,53.365a4.321,4.321,0,0,1,.988,3.1c-.059.764,1.132.761,1.191,0a5.531,5.531,0,0,0-1.337-3.938c-.488-.592-1.326.255-.842.842" transform="translate(-98.749 -41.936)" fill="#12263f"/>
        <path id="Path_879155" data-name="Path 879155" d="M145.04,38.036a14.468,14.468,0,0,1,1.292-7.662c.343-.683-.684-1.287-1.028-.6a15.611,15.611,0,0,0-1.454,8.263c.064.758,1.256.765,1.191,0" transform="translate(-115.245 -23.621)" fill="#12263f"/>
        <path id="Path_879156" data-name="Path 879156" d="M82.291,102.051q1.6-2.19,3.207-4.378c.453-.619-.58-1.214-1.028-.6q-1.6,2.191-3.207,4.378c-.453.619.58,1.214,1.028.6" transform="translate(-65.042 -77.596)" fill="#12263f"/>
        <path id="Path_879157" data-name="Path 879157" d="M120.985,97.272c0,.607.869,1.435,1.211,1.923q.952,1.36,1.9,2.719c1.156,1.653,2.307,3.311,3.433,4.984,1.815,2.7,4.394,5.623,3.778,9.094a13.548,13.548,0,0,1-4.278,7.1,15.115,15.115,0,0,1-6.993,4.038,34.35,34.35,0,0,1-6.714.365c-2.483.017-4.964-.082-7.439-.28-.764-.061-.76,1.13,0,1.191a69.617,69.617,0,0,0,13.7,0,14.568,14.568,0,0,0,7.194-3.505,16.881,16.881,0,0,0,5.236-7,8.717,8.717,0,0,0,.537-4.006,10.7,10.7,0,0,0-1.928-4.448c-1.311-2.059-2.685-4.077-4.074-6.084q-1.1-1.585-2.206-3.163l-1.011-1.443-.564-.806a5.24,5.24,0,0,0-.6-.677.6.6,0,0,0-1.191,0" transform="translate(-84.41 -77.503)" fill="#12263f"/>
        <path id="Path_879158" data-name="Path 879158" d="M123.751,154.4l11.038-12.6c.5-.574-.336-1.42-.842-.842l-11.038,12.6c-.5.574.336,1.42.842.842" transform="translate(-98.388 -112.819)" fill="#12263f"/>
        <path id="Path_879159" data-name="Path 879159" d="M161.81,188.267c-.128,2.368-3.7,2.389-3.7,0s3.57-2.369,3.7,0c.041.762,1.232.767,1.191,0a3.04,3.04,0,1,0-3.173,3.033A3.092,3.092,0,0,0,163,188.267c.041-.766-1.15-.764-1.191,0" transform="translate(-125.773 -148.46)" fill="#12263f"/>
        <path id="Path_879160" data-name="Path 879160" d="M124.26,138.381c-.128,2.368-3.7,2.389-3.7,0s3.57-2.369,3.7,0c.041.762,1.232.767,1.191,0a3.04,3.04,0,1,0-3.173,3.033,3.092,3.092,0,0,0,3.173-3.033c.041-.766-1.15-.764-1.191,0" transform="translate(-95.676 -108.476)" fill="#12263f"/>
      </g>
    </g>
  </g>
</svg>
