<svg id="img34" xmlns="http://www.w3.org/2000/svg" xmlns:xlink="http://www.w3.org/1999/xlink" width="137.53" height="137.397" viewBox="0 0 137.53 137.397">
  <defs>
    <clipPath id="clip-path">
      <rect id="Rectangle_404944" data-name="Rectangle 404944" width="137.53" height="137.397" fill="#b0d5e9"/>
    </clipPath>
  </defs>
  <g id="Group_1102683" data-name="Group 1102683" clip-path="url(#clip-path)">
    <path id="Path_877714" data-name="Path 877714" d="M53.666,27.988v10.7c-1.376.019-2.766-.014-4.142,0v8.628c1.376.014,2.766-.02,4.142,0v10.7c-1.376.019-2.766-.014-4.142,0v8.628c1.376.013,2.766-.02,4.142,0v10.7c-1.376.02-2.766-.014-4.142,0v8.628c1.376.014,2.766-.019,4.142,0l.345,10.7q-22.856,0-45.725,0C3.6,96.006.568,92.966.16,88.224.28,68.147.042,48.06.172,27.988ZM19.5,38.687H10.871v8.628H19.5Zm19.327,0H30.2v8.628h8.628ZM19.5,58.014H10.871v8.628H19.5Zm19.327,0H30.2v8.628h8.628ZM19.5,77.34H10.871v8.628H19.5Zm19.327,0H30.2v8.628h8.628Z" fill="#88c0de"/>
    <path id="Path_877715" data-name="Path 877715" d="M107.5,27.988q15,.012,30.025,0V128.763c-2.87.007-5.757-.01-8.628,0-7.126.025-14.271,0-21.4,0v-10.7c4.436.072,12.328.612,16.371-.022,2.759-.432,2.673-3.96-.7-4.433-4.121-.578-11.253-.109-15.671-.032v-4.141c4.436.072,12.328.612,16.371-.022a2.1,2.1,0,0,0,.36-4.112c-5.574.045-11.161-.088-16.731-.007q0-15,0-30.026a17.572,17.572,0,0,0,17.256-17.256c.1-9.361-7.975-17.256-17.256-17.256-.013-4.251.027-8.519,0-12.769m15.44,47.687c-1.155.237-1.518,1.117-1.642,2.176-.738,6.291.578,13.943-.012,20.387.646,2.759,3.436,3.05,4.5.319-.444-6.557.615-13.914.023-20.37-.162-1.766-.877-2.921-2.867-2.512m-10.7,3.451c-1.155.237-1.517,1.117-1.642,2.176a115.185,115.185,0,0,0,0,16.924c.348,2.994,3.535,2.934,4.486.331-.454-5.454.634-11.93.014-17.255-.193-1.659-1.175-2.521-2.858-2.176" fill="#d6d1e1"/>
    <path id="Path_877716" data-name="Path 877716" d="M77.134,36.616l.345,60.051c.013,10.693-.008,21.4,0,32.1q15.006,0,30.028,0v8.628c-12.88.019-25.776-.015-38.656,0q-.006-20.355,0-40.726-.022-30.018,0-60.053Z" fill="#d9d6e4"/>
    <path id="Path_877717" data-name="Path 877717" d="M19.5,6.591c.021,3.08.421,6.24,4.314,6.24s4.293-3.16,4.314-6.24H54.011V27.3l.345.345v.345H.172C.2,23.865-.484,15.625.7,12.123,3.356,4.269,13.182,7.082,19.5,6.591" fill="#f3f9ff"/>
    <path id="Path_877718" data-name="Path 877718" d="M54.011,6.591q13.8,0,27.611,0c-1,8.333,9.926,8.485,8.625,0,3.031.185,6.324-.245,9.32,0,10.383.858,7.885,13.627,7.938,21.052h-.346c-.313-.378-.729-.345-1.167-.37-9.239-.533-19.01.455-28.307.019-.375-.039-.174.446-.206.7q-11.553,0-23.123,0v-.345l-.345-.345Z" fill="#b0d5e9"/>
    <path id="Path_877719" data-name="Path 877719" d="M54.356,27.988q11.553,0,23.123,0c-.313,2.456.017,6.012,0,8.628h-.345l-8.285,0q.022,30.018,0,60.053H54.011l-.345-10.7q.172,0,.345,0c1.376-.019,2.765.014,4.141,0V77.34c-1.376-.014-2.765.02-4.141,0h-.345v-10.7q.172,0,.345,0c1.376-.019,2.765.014,4.141,0V58.013c-1.376-.013-2.765.02-4.141,0h-.345v-10.7q.172,0,.345,0c1.376-.02,2.765.014,4.141,0V38.687c-1.376-.014-2.765.019-4.141,0q-.173,0-.345,0v-10.7Z" fill="#88c0de"/>
    <path id="Path_877720" data-name="Path 877720" d="M128.9,128.763l0,8.63c-7.128,0-14.272-.012-21.4,0v-8.628c7.126,0,14.271.025,21.4,0" fill="#c3bed5"/>
    <path id="Path_877721" data-name="Path 877721" d="M54.011,6.591l27.611-.343c-1.056-8.264,9.848-8.352,8.625,0l9.32.343c-3-.247-6.289.183-9.32,0,1.3,8.485-9.626,8.333-8.625,0q-13.8,0-27.611,0" fill="#7f7d7d"/>
    <path id="Path_877722" data-name="Path 877722" d="M28.127,6.591c-.021,3.08-.421,6.24-4.314,6.24S19.52,9.671,19.5,6.591C19.478,3.594,19.863,0,23.813,0s4.335,3.594,4.314,6.591" fill="#929191"/>
    <path id="Path_877723" data-name="Path 877723" d="M107.5,27.988h-.345v-.345h.345c0,.115,0,.23,0,.345" fill="#b0d5e9"/>
    <rect id="Rectangle_404938" data-name="Rectangle 404938" width="8.628" height="8.628" transform="translate(10.871 38.687)" fill="#435d74"/>
    <rect id="Rectangle_404939" data-name="Rectangle 404939" width="8.628" height="8.628" transform="translate(30.198 38.687)" fill="#435d74"/>
    <rect id="Rectangle_404940" data-name="Rectangle 404940" width="8.628" height="8.628" transform="translate(10.871 58.014)" fill="#435d74"/>
    <rect id="Rectangle_404941" data-name="Rectangle 404941" width="8.628" height="8.628" transform="translate(30.198 58.014)" fill="#435d74"/>
    <rect id="Rectangle_404942" data-name="Rectangle 404942" width="8.628" height="8.628" transform="translate(10.871 77.34)" fill="#435d74"/>
    <rect id="Rectangle_404943" data-name="Rectangle 404943" width="8.628" height="8.628" transform="translate(30.198 77.34)" fill="#435d74"/>
    <path id="Path_877724" data-name="Path 877724" d="M53.666,38.687q.172,0,.345,0v8.628q-.173,0-.345,0c-1.376-.019-2.765.014-4.141,0V38.687c1.376-.014,2.765.019,4.141,0" fill="#425c74"/>
    <path id="Path_877725" data-name="Path 877725" d="M53.666,58.014q.172,0,.345,0v8.628q-.173,0-.345,0c-1.376-.019-2.765.014-4.141,0V58.014c1.376-.014,2.765.019,4.141,0" fill="#425c74"/>
    <path id="Path_877726" data-name="Path 877726" d="M53.666,77.34q.172,0,.345,0v8.628q-.173,0-.345,0c-1.376-.019-2.765.014-4.141,0V77.34c1.376-.014,2.765.019,4.141,0" fill="#425c74"/>
    <path id="Path_877727" data-name="Path 877727" d="M107.159,27.989h.345c.028,4.25-.012,8.518,0,12.769-18.164,0-24.4,25.239-6.557,32.786,2.4,1.016,3.64,1.777,6.557,1.726q0,15,0,30.025c-2.22.032-7.4-.946-7.588,1.923-.206,3.151,5.458,2.184,7.588,2.219v4.141c-2.014.036-7.584-.79-7.619,2.234-.037,3.223,5.337,2.216,7.619,2.253v10.7q-15-.008-30.027,0c-.006-10.693.015-21.4,0-32.1-.024-20.007-.127-40.044,0-60.05.017-2.616-.313-6.172,0-8.628,9.888,0,19.793-.014,29.68,0M101.19,82.58c-.842.255-1.195,1.388-1.286,2.173a90.718,90.718,0,0,0,0,13.474c.379,3.259,4.054,2.66,4.473-.027a88.462,88.462,0,0,0,.027-13.446,2.349,2.349,0,0,0-3.215-2.174M92.921,86.4c-1.059-.992-3.4-.473-3.7,1.126a81.959,81.959,0,0,0,0,11.026c.435,2.317,3.965,2.739,4.446-.713a57.443,57.443,0,0,0,.041-9.295,5.1,5.1,0,0,0-.788-2.144m-2.427,18.963c-1.746.5-1.743,3.5,0,4a31.232,31.232,0,0,0,5.785.064c2.041-.382,2.112-3.534.281-4.06a30.14,30.14,0,0,0-6.066,0m.7,8.294c-2.412.442-2.693,3.448-.939,4.222,1.149.507,6.768.561,7.405-.862,1.737-3.884-4.221-3.771-6.466-3.36" fill="#eceaf1"/>
    <path id="Path_877728" data-name="Path 877728" d="M124.76,58.014H107.5c-.01-5.746.017-11.51,0-17.256,9.281,0,17.351,7.9,17.256,17.256" fill="#225a78"/>
    <path id="Path_877729" data-name="Path 877729" d="M124.76,58.014A17.572,17.572,0,0,1,107.5,75.27c0-5.631.009-11.279,0-16.911v-.345Z" fill="#fdd34e"/>
    <path id="Path_877730" data-name="Path 877730" d="M122.944,75.675c1.991-.408,2.705.747,2.867,2.512.592,6.456-.466,13.814-.023,20.37-1.062,2.731-3.852,2.44-4.5-.319.589-6.444-.727-14.1.011-20.387.125-1.059.487-1.939,1.642-2.176" fill="#60a9ef"/>
    <path id="Path_877731" data-name="Path 877731" d="M112.246,79.126c1.683-.345,2.665.517,2.858,2.176.62,5.325-.468,11.8-.014,17.255-.951,2.6-4.138,2.663-4.486-.331a115.185,115.185,0,0,1,0-16.924c.125-1.059.487-1.939,1.642-2.176" fill="#61a9ef"/>
    <path id="Path_877732" data-name="Path 877732" d="M107.5,118.064v-4.487c4.418-.077,11.55-.546,15.671.032,3.373.473,3.458,4,.7,4.433-4.044.634-11.936.094-16.371.022" fill="#7d7d7d"/>
    <path id="Path_877733" data-name="Path 877733" d="M107.5,109.436v-4.141c5.57-.081,11.156.052,16.73.007a2.1,2.1,0,0,1-.359,4.112c-4.044.634-11.936.094-16.371.022" fill="#7d7d7d"/>
    <path id="Path_877734" data-name="Path 877734" d="M77.479,96.667l-.345-60.051h.345c-.127,20.007-.024,40.043,0,60.051" fill="#c6d0e7"/>
    <path id="Path_877735" data-name="Path 877735" d="M54.356,27.643l-.345-.345Z" fill="#f23849"/>
    <path id="Path_877736" data-name="Path 877736" d="M107.159,27.643v.345c-9.888-.013-19.793,0-29.68,0,.032-.251-.17-.736.206-.7,9.3.437,19.067-.551,28.307-.018.437.025.854-.008,1.167.37" fill="#b0d5e9"/>
    <path id="Path_877737" data-name="Path 877737" d="M54.011,38.687c1.376.019,2.765-.014,4.141,0v8.628c-1.376.014-2.765-.019-4.141,0Z" fill="#334557"/>
    <path id="Path_877738" data-name="Path 877738" d="M54.011,58.014c1.376.019,2.765-.014,4.141,0v8.628c-1.376.014-2.765-.019-4.141,0Z" fill="#334557"/>
    <path id="Path_877739" data-name="Path 877739" d="M54.011,77.34c1.376.019,2.765-.014,4.141,0v8.628c-1.376.014-2.765-.019-4.141,0Z" fill="#334557"/>
    <path id="Path_877740" data-name="Path 877740" d="M107.5,40.757c.016,5.747-.011,11.511,0,17.257v.345l-6.558,15.184C83.1,66,89.34,40.757,107.5,40.757" fill="#b5df8c"/>
    <path id="Path_877741" data-name="Path 877741" d="M101.19,82.579a2.349,2.349,0,0,1,3.215,2.175,88.333,88.333,0,0,1-.027,13.446c-.418,2.687-4.094,3.286-4.472.026a90.583,90.583,0,0,1,0-13.474c.091-.784.445-1.918,1.286-2.173" fill="#85bdf3"/>
    <path id="Path_877742" data-name="Path 877742" d="M92.921,86.4a5.109,5.109,0,0,1,.788,2.145,57.66,57.66,0,0,1-.041,9.294c-.482,3.452-4.011,3.031-4.447.713a81.8,81.8,0,0,1,0-11.026c.3-1.6,2.64-2.118,3.7-1.126" fill="#83bcf3"/>
    <path id="Path_877743" data-name="Path 877743" d="M107.5,75.27c-2.918.051-4.157-.71-6.558-1.726L107.5,58.359c.008,5.632,0,11.28,0,16.911" fill="#fcdc78"/>
    <path id="Path_877744" data-name="Path 877744" d="M91.195,113.662c2.245-.411,8.2-.524,6.466,3.36-.637,1.423-6.256,1.369-7.405.862-1.754-.774-1.473-3.78.939-4.222" fill="#949494"/>
    <path id="Path_877745" data-name="Path 877745" d="M90.494,105.368a30.14,30.14,0,0,1,6.066,0c1.831.526,1.76,3.678-.281,4.06a31.317,31.317,0,0,1-5.785-.065c-1.743-.5-1.746-3.494,0-4" fill="#929292"/>
    <path id="Path_877746" data-name="Path 877746" d="M107.5,113.578v4.487c-2.284-.038-7.657.97-7.62-2.253.035-3.025,5.6-2.2,7.62-2.234" fill="#989799"/>
    <path id="Path_877747" data-name="Path 877747" d="M107.5,105.295v4.141c-2.131-.034-7.8.933-7.589-2.219.188-2.869,5.368-1.89,7.589-1.922" fill="#919191"/>
  </g>
</svg>
