<svg xmlns="http://www.w3.org/2000/svg" xmlns:xlink="http://www.w3.org/1999/xlink" width="74" height="74" viewBox="0 0 74 74">
  <defs>
    <clipPath id="clip-path">
      <rect id="Rectangle_405062" data-name="Rectangle 405062" width="36.057" height="47.365" fill="#225a78"/>
    </clipPath>
  </defs>
  <g id="img30" transform="translate(-206.66 -9153.5)">
    <g id="Group_1101010" data-name="Group 1101010" transform="translate(230.045 9153.5)">
      <path id="Path_875656" data-name="Path 875656" d="M190.763,10.626,141.848,59.541v1.7h1.7l48.915-48.916v-1.7Z" transform="translate(-141.847 -10.626)" fill="#225a78"/>
      <path id="Path_875657" data-name="Path 875657" d="M183.269,10.626,141.848,52.047v3.4l44.82-44.821Z" transform="translate(-141.847 -10.626)" fill="#225a78"/>
      <path id="Path_875658" data-name="Path 875658" d="M175.774,10.626,141.847,44.553v3.4l37.326-37.327Z" transform="translate(-141.847 -10.626)" fill="#225a78"/>
      <path id="Path_875659" data-name="Path 875659" d="M168.28,10.626,141.847,37.059v3.4l29.832-29.833Z" transform="translate(-141.847 -10.626)" fill="#225a78"/>
      <path id="Path_875660" data-name="Path 875660" d="M160.786,10.626l-18.94,18.94v3.4l22.339-22.339Z" transform="translate(-141.847 -10.626)" fill="#225a78"/>
      <path id="Path_875661" data-name="Path 875661" d="M153.292,10.626,141.847,22.071v3.4l14.844-14.845Z" transform="translate(-141.847 -10.626)" fill="#225a78"/>
      <path id="Path_875662" data-name="Path 875662" d="M145.8,10.626l-3.951,3.952v3.4l7.351-7.351Z" transform="translate(-141.847 -10.626)" fill="#225a78"/>
      <path id="Path_875663" data-name="Path 875663" d="M268.109,144.238h3.4l3.951-3.952v-3.4Z" transform="translate(-224.844 -93.623)" fill="#225a78"/>
      <path id="Path_875664" data-name="Path 875664" d="M246.238,129.862h3.4l11.445-11.446v-3.4Z" transform="translate(-210.467 -79.246)" fill="#225a78"/>
      <path id="Path_875665" data-name="Path 875665" d="M224.368,115.486h3.4l18.939-18.94v-3.4Z" transform="translate(-196.091 -64.87)" fill="#225a78"/>
      <path id="Path_875666" data-name="Path 875666" d="M202.5,101.11h3.4L232.33,74.676v-3.4Z" transform="translate(-181.716 -50.494)" fill="#225a78"/>
      <path id="Path_875667" data-name="Path 875667" d="M180.628,86.734h3.4l33.927-33.928v-3.4Z" transform="translate(-167.339 -36.118)" fill="#225a78"/>
      <path id="Path_875668" data-name="Path 875668" d="M158.757,72.357h3.4l41.421-41.422v-3.4Z" transform="translate(-152.963 -21.741)" fill="#225a78"/>
    </g>
    <rect id="Rectangle_403642" data-name="Rectangle 403642" width="37.097" height="37.097" transform="translate(207.66 9189.403)" fill="none" stroke="#225a78" stroke-linecap="round" stroke-linejoin="round" stroke-width="2"/>
    <rect id="Rectangle_403641" data-name="Rectangle 403641" width="60.032" height="59.99" transform="translate(215 9159.352)" fill="#f4f0cd"/>
    <g id="Group_1102771" data-name="Group 1102771" transform="translate(227 9165.352)">
      <g id="Group_1102771-2" data-name="Group 1102771" clip-path="url(#clip-path)">
        <path id="Path_879161" data-name="Path 879161" d="M27.351.662a3.314,3.314,0,0,1,.431,1.5V37.148c-.112,1.162-.322,1.82-1.559,1.937-7.794.738-16.746-.588-24.664,0C.352,39.064.087,38.189,0,37.148V2.165C.089,1.108.362.248,1.559.228,9.481.812,18.422-.5,26.223.228a1.749,1.749,0,0,1,1.129.434M5.288,7.273a1.381,1.381,0,0,0,.155,2.71,58.742,58.742,0,0,0,8.621,0,1.381,1.381,0,0,0,0-2.739Zm0,5.521a1.383,1.383,0,0,0,.324,2.725c5.228-.454,11.449.592,16.558,0a1.384,1.384,0,0,0,0-2.769Zm0,5.521a1.383,1.383,0,0,0,.324,2.725c5.228-.454,11.449.592,16.558,0a1.384,1.384,0,0,0,0-2.769Zm0,5.521a1.382,1.382,0,0,0,.324,2.725c5.228-.454,11.449.593,16.558,0a1.384,1.384,0,0,0,0-2.769Zm11.033,5.521a1.384,1.384,0,0,0,0,2.682,38.721,38.721,0,0,0,6.018.028,1.383,1.383,0,0,0,.155-2.71,40.554,40.554,0,0,0-6.173,0" transform="translate(0 0)" fill="#225a78"/>
        <path id="Path_879162" data-name="Path 879162" d="M71.243,45.868a1.944,1.944,0,0,1,1.386,2.11v34.8c-.07.8-.224,1.616-1.064,1.875l-25.338.058c-.643.049-1.372-.855-1.372-1.388V79.455l.276-.276H63.7c.954,0,3.218-2.024,3.218-3.037v-30l.276-.276c1.221.15,2.89-.2,4.045,0" transform="translate(-36.574 -37.345)" fill="#225a78"/>
      </g>
    </g>
  </g>
</svg>
