<svg xmlns="http://www.w3.org/2000/svg" xmlns:xlink="http://www.w3.org/1999/xlink" width="74" height="74" viewBox="0 0 74 74">
  <defs>
    <clipPath id="clip-path">
      <rect id="Rectangle_405065" data-name="Rectangle 405065" width="42.056" height="36.91" fill="#225a78"/>
    </clipPath>
  </defs>
  <g id="img33" transform="translate(-206.66 -9153.5)">
    <g id="Group_1101010" data-name="Group 1101010" transform="translate(230.045 9153.5)">
      <path id="Path_875656" data-name="Path 875656" d="M190.763,10.626,141.848,59.541v1.7h1.7l48.915-48.916v-1.7Z" transform="translate(-141.847 -10.626)" fill="#225a78"/>
      <path id="Path_875657" data-name="Path 875657" d="M183.269,10.626,141.848,52.047v3.4l44.82-44.821Z" transform="translate(-141.847 -10.626)" fill="#225a78"/>
      <path id="Path_875658" data-name="Path 875658" d="M175.774,10.626,141.847,44.553v3.4l37.326-37.327Z" transform="translate(-141.847 -10.626)" fill="#225a78"/>
      <path id="Path_875659" data-name="Path 875659" d="M168.28,10.626,141.847,37.059v3.4l29.832-29.833Z" transform="translate(-141.847 -10.626)" fill="#225a78"/>
      <path id="Path_875660" data-name="Path 875660" d="M160.786,10.626l-18.94,18.94v3.4l22.339-22.339Z" transform="translate(-141.847 -10.626)" fill="#225a78"/>
      <path id="Path_875661" data-name="Path 875661" d="M153.292,10.626,141.847,22.071v3.4l14.844-14.845Z" transform="translate(-141.847 -10.626)" fill="#225a78"/>
      <path id="Path_875662" data-name="Path 875662" d="M145.8,10.626l-3.951,3.952v3.4l7.351-7.351Z" transform="translate(-141.847 -10.626)" fill="#225a78"/>
      <path id="Path_875663" data-name="Path 875663" d="M268.109,144.238h3.4l3.951-3.952v-3.4Z" transform="translate(-224.844 -93.623)" fill="#225a78"/>
      <path id="Path_875664" data-name="Path 875664" d="M246.238,129.862h3.4l11.445-11.446v-3.4Z" transform="translate(-210.467 -79.246)" fill="#225a78"/>
      <path id="Path_875665" data-name="Path 875665" d="M224.368,115.486h3.4l18.939-18.94v-3.4Z" transform="translate(-196.091 -64.87)" fill="#225a78"/>
      <path id="Path_875666" data-name="Path 875666" d="M202.5,101.11h3.4L232.33,74.676v-3.4Z" transform="translate(-181.716 -50.494)" fill="#225a78"/>
      <path id="Path_875667" data-name="Path 875667" d="M180.628,86.734h3.4l33.927-33.928v-3.4Z" transform="translate(-167.339 -36.118)" fill="#225a78"/>
      <path id="Path_875668" data-name="Path 875668" d="M158.757,72.357h3.4l41.421-41.422v-3.4Z" transform="translate(-152.963 -21.741)" fill="#225a78"/>
    </g>
    <rect id="Rectangle_403642" data-name="Rectangle 403642" width="37.097" height="37.097" transform="translate(207.66 9189.403)" fill="none" stroke="#225a78" stroke-linecap="round" stroke-linejoin="round" stroke-width="2"/>
    <rect id="Rectangle_403641" data-name="Rectangle 403641" width="60.032" height="59.99" transform="translate(215.074 9159.352)" fill="#f4f0cd"/>
    <g id="Group_1102775" data-name="Group 1102775" transform="translate(222.94 9170.352)">
      <g id="Group_1102775-2" data-name="Group 1102775" clip-path="url(#clip-path)">
        <path id="Path_879176" data-name="Path 879176" d="M111.91,22.379l4.74,13.306a1.223,1.223,0,0,1-2.322.376l-5.015-13.586h-1.018L103.384,36c-.9,1.5-2.7.505-2.226-1.083L105.68,22.6c.072-.311,0-.2-.225-.226-.439-.052-.944.038-1.393,0a18.393,18.393,0,0,0,.173-2.2c.223-1.438,2.325-4.106,2.778-5.722a3.658,3.658,0,0,0-6.307-3.526c-.4.508-1.751,3.567-1.955,3.583-.711-.6-2.924-.911-3.037-1.853C96.24,9.18,93.933.872,99.09.165c6.169.32,12.848-.475,18.958-.021a3.9,3.9,0,0,1,3.8,3.233c-.209,4.926.412,10.292.046,15.168a3.934,3.934,0,0,1-2.414,3.47,10.727,10.727,0,0,1-1.435.364ZM102.053,5.415a1.235,1.235,0,0,0-.024,2.407c4.227-.342,9.271.492,13.4.014a1.228,1.228,0,0,0,.15-2.446Zm14.225,4.915a2.285,2.285,0,0,0-1.013-.377,34.6,34.6,0,0,0-5.388.015,1.222,1.222,0,0,0-.165,2.432,42.529,42.529,0,0,0,6.035.006,1.268,1.268,0,0,0,.53-2.075m0,4.576a2.283,2.283,0,0,0-1.013-.377,33.007,33.007,0,0,0-5.221.019c-1.71.24-1.754,2.2-.5,2.433a48.278,48.278,0,0,0,6.2,0,1.268,1.268,0,0,0,.53-2.075" transform="translate(-79.952 0)" fill="#225a78"/>
        <path id="Path_879177" data-name="Path 879177" d="M12.992,49.291c-.1.34-.855.7-1.223.739a53.472,53.472,0,0,1-7.855,0A1.24,1.24,0,0,1,2.689,48.8c-.244-2.113.184-4.676.01-6.84A4.566,4.566,0,0,1,.5,40.04c-.614-1.193-.534-4.679-.433-6.12a7.7,7.7,0,0,1,7.037-7.267l-2.766-1.4a5.345,5.345,0,1,1,6.745.229L9.07,26.488c3.93.463,7.258,3.111,10.864,4.583.309,0,2.12-4.812,2.861-5.488a1.086,1.086,0,0,1,1.734.078c.529.616.338.943.1,1.592-.581,1.586-2.611,4.41-2.9,5.77-.086.406.141.973.015,1.646a3.383,3.383,0,0,1-2.5,2.568c-2.4.416-4.082-1.591-6.255-2.085Z" transform="translate(0 -13.264)" fill="#225a78"/>
      </g>
    </g>
  </g>
</svg>
