<svg xmlns="http://www.w3.org/2000/svg" xmlns:xlink="http://www.w3.org/1999/xlink" width="207" height="176" viewBox="0 0 207 176">
  <defs>
    <clipPath id="clip-path">
      <rect id="Rectangle_404871" data-name="Rectangle 404871" width="207" height="176" transform="translate(285 13066)" fill="none"/>
    </clipPath>
    <clipPath id="clip-path-2">
      <rect id="Rectangle_404872" data-name="Rectangle 404872" width="99.237" height="99.143" fill="none"/>
    </clipPath>
  </defs>
  <g id="img4" transform="translate(-285 -13066)" clip-path="url(#clip-path)">
    <g id="Group_1102562" data-name="Group 1102562" transform="translate(302.542 13054.772)">
      <rect id="Rectangle_404868" data-name="Rectangle 404868" width="185" height="186" transform="translate(0.458 0.228)" fill="none"/>
      <g id="Group_1102561" data-name="Group 1102561" transform="translate(1.484 11.771)">
        <g id="Group_1102560" data-name="Group 1102560" transform="translate(91.272 0)">
          <path id="Path_877403" data-name="Path 877403" d="M220.849,10.626l-79,79v2.745h2.744l79-79V10.626Z" transform="translate(-141.847 -10.626)" fill="#225a78"/>
          <path id="Path_877404" data-name="Path 877404" d="M208.746,10.626l-66.9,66.9v5.49l72.388-72.389Z" transform="translate(-141.847 -10.626)" fill="#225a78"/>
          <path id="Path_877405" data-name="Path 877405" d="M196.642,10.626l-54.8,54.8v5.489l60.285-60.285Z" transform="translate(-141.847 -10.626)" fill="#225a78"/>
          <path id="Path_877406" data-name="Path 877406" d="M184.539,10.626,141.847,53.318v5.489l48.182-48.182Z" transform="translate(-141.847 -10.626)" fill="#225a78"/>
          <path id="Path_877407" data-name="Path 877407" d="M172.436,10.626,141.847,41.215V46.7l36.079-36.079Z" transform="translate(-141.847 -10.626)" fill="#225a78"/>
          <path id="Path_877408" data-name="Path 877408" d="M160.332,10.626,141.847,29.111V34.6l23.975-23.975Z" transform="translate(-141.847 -10.626)" fill="#225a78"/>
          <path id="Path_877409" data-name="Path 877409" d="M148.229,10.626l-6.382,6.382V22.5l11.872-11.872Z" transform="translate(-141.847 -10.626)" fill="#225a78"/>
          <path id="Path_877410" data-name="Path 877410" d="M268.109,148.759h5.49l6.381-6.382v-5.489Z" transform="translate(-198.233 -67.012)" fill="#225a78"/>
          <path id="Path_877411" data-name="Path 877411" d="M246.238,138.992h5.49l18.485-18.486v-5.489Z" transform="translate(-188.465 -57.245)" fill="#225a78"/>
          <path id="Path_877412" data-name="Path 877412" d="M224.368,129.226h5.49l30.588-30.589V93.147Z" transform="translate(-178.699 -47.478)" fill="#225a78"/>
          <path id="Path_877413" data-name="Path 877413" d="M202.5,119.459h5.49l42.691-42.692V71.277Z" transform="translate(-168.933 -37.711)" fill="#225a78"/>
          <path id="Path_877414" data-name="Path 877414" d="M180.628,109.692h5.489l54.8-54.8V49.407Z" transform="translate(-159.165 -27.945)" fill="#225a78"/>
          <path id="Path_877415" data-name="Path 877415" d="M158.757,99.925h5.49l66.9-66.9v-5.49Z" transform="translate(-149.399 -18.177)" fill="#225a78"/>
        </g>
        <rect id="Rectangle_404869" data-name="Rectangle 404869" width="68.522" height="68.522" transform="translate(0 104.497)" fill="none" stroke="#225a78" stroke-linecap="round" stroke-linejoin="round" stroke-width="2"/>
        <rect id="Rectangle_404870" data-name="Rectangle 404870" width="149.066" height="148.988" transform="translate(13.694 10.298)" fill="#88c0de"/>
        <g id="Group_1102563" data-name="Group 1102563" transform="translate(39.124 35.366)">
          <g id="Group_1102563-2" data-name="Group 1102563" clip-path="url(#clip-path-2)">
            <path id="Path_877416" data-name="Path 877416" d="M116.082,134.955a7.7,7.7,0,0,0-1.8-.665c-2.222.11-2.516,3.41-.651,3.855-14.715,19.386-44.262,24.021-64.293,10.061,8.546.034,17.1-.029,25.649.006a3.53,3.53,0,0,0,2.462-1.955c.179-10.125.138-20.3.109-30.442,1.6.667,3.065,1.671,4.666,2.327a28.961,28.961,0,0,0,13.984,2.09,30.615,30.615,0,0,0,19.631-9.08c2.536,1.827,4.036-1.509,5.153-3.19a36.422,36.422,0,0,0,3.19-5.4,48.138,48.138,0,0,1-8.1,32.391m-13.8-8.285c-.271-.271-.9-.282-1.281-.314-4.854-.41-10.29.312-15.208.027-1.549-.21-1.372,3.219-.776,3.688l16.71.222c1.159-.113,1.056-3.123.555-3.623m-16.7,7.6a1.46,1.46,0,0,0-.794.434c-.095,1.042-.6,3.181.6,3.573a48.875,48.875,0,0,0,7.746.115c.455-.053,1.141-.169,1.3-.658.264-.789.279-3.094-.683-3.408a51.132,51.132,0,0,0-8.178-.056m12.765-.012a2.055,2.055,0,0,0,.186,4.094c2.929,0,2.344-4.463-.186-4.094m6.114.031c-2.746.143-2.418,4.272.194,4.092,2.451-.169,2.357-4.224-.194-4.092m-19.129,8.075c-1,.294-1,3.535,0,3.827a63.913,63.913,0,0,0,8.06.061c.479-.064.888-.144,1.043-.674.16-.546.236-3.036-.353-3.229Z" transform="translate(-27.486 -57.14)" fill="#fdc881"/>
            <path id="Path_877417" data-name="Path 877417" d="M49.534,87.966c1.877.009,3.767-.022,5.644,0,2.915.034,7.723-1.2,8.11,2.81.36,3.715-.031,8.546-.012,12.4.007,1.469,0,2.948,0,4.417.028,10.139.07,20.317-.109,30.442a3.529,3.529,0,0,1-2.462,1.955c-8.549-.035-17.1.028-25.649-.005-3.1-.012-6.222.048-9.325,0-2.738-1.211-1.88-3.65-1.963-6.135a5.293,5.293,0,0,0,3.435.736c3.175.028,4.11-.539,3.686-4.055a2.675,2.675,0,0,0-3.931-1.834c-.915-.685-2.352.135-3.19.736-.013-1.387.008-2.784,0-4.172,1.09,1.151,1.988.981,3.435.981,1.959,0,3.466.078,3.692-2.318.3-3.217-.694-3.742-3.692-3.816-1.368-.034-2.4-.049-3.435.982.012-1.387.012-2.786,0-4.172,1.049,1.069,2.063.97,3.435.982,3.105.027,4.088-.717,3.686-4.055-.277-2.3-2.357-2.16-4.177-2.08-1.318.058-1.931-.072-2.945.981,0-2.614.013-5.239,0-7.853,1.318,1.426,3.128.944,4.908.982,9.474.2,19-.054,28.472-.116.787-.316,1.307-.594,1.45-1.494a70.273,70.273,0,0,0-.05-10.231,2.137,2.137,0,0,0-1.765-1.42c-9.443.185-18.915-.212-28.352.01-1.724.041-3.379-.417-4.662.982.131-2.319-.721-4.536,1.963-5.644,7.926-.066,15.877-.039,23.8,0M36.774,117.9c3.344-.043,3.834-.922,3.441-4.3-.24-2.06-2.046-1.857-3.687-1.835-1.4.018-3.21.022-3.449,1.827-.453,3.428.385,4.35,3.694,4.307m9.325,0c1.962.017,3.467.059,3.692-2.319.309-3.283-.7-3.816-3.692-3.816-2.473,0-3.712.147-3.7,3.067.011,2.85,1.281,3.046,3.7,3.068m9.816,8.343c1.258-.038,2.193.009,2.647-1.4-.164-3.516.4-7.552.069-11.006-.166-1.76-1.14-1.994-2.716-2.07-1.353-.066-3.022.036-3.384,1.647-.347,1.549-.232,8.675-.063,10.512.2,2.194,1.545,2.377,3.447,2.319m-19.14,0c1.886,0,3.232.23,3.447-2.074.312-3.345-.159-3.892-3.447-4.061-1.969-.1-3.476.028-3.692,2.319-.325,3.436.523,3.814,3.692,3.815m9.325,0c1.959,0,3.466.078,3.692-2.318.3-3.213-.683-3.722-3.692-3.816-2.267-.071-3.589.291-3.694,2.814-.128,3.057,1.038,3.32,3.694,3.321M36.283,128.7c-1.113.116-2.065-.41-2.811.748a6.064,6.064,0,0,0-.106,4.255c.656,1.167,2.051.85,3.162.887,3.994.134,8.043-.009,12.039-.108,1.624-.534,2.21-5.568-.9-6a60.285,60.285,0,0,0-11.388.223m19.386,0c-2.246.1-3.167.051-3.187,2.822-.019,2.519.873,3.067,3.187,3.067,2.989,0,3.41-1.384,2.931-4.28-.3-1.835-1.6-1.665-2.931-1.609" transform="translate(-13.206 -48.923)" fill="#024c7e"/>
            <path id="Path_877418" data-name="Path 877418" d="M57.677,5.971c-15.3,4.492-24.4,20.216-21.349,35.827-7.926-.039-15.877-.066-23.8,0-.043,0-.332-.345-.568-.235-2.514.58-5.352-.642-6.245,2.625q-.119,15.855-.058,31.72C-2.181,61.79-1.7,44.1,6.017,30.014c9.894-18.058,31.307-28.5,51.66-24.043M28.156,22.707a.936.936,0,0,0-.541.44L27.5,37.5c.05,1.279,3.281,1.05,3.7.521l.222-14.748-.4-.579a14.1,14.1,0,0,0-2.861.015M20.3,28.6c-.53.155-.611.565-.674,1.044a63.985,63.985,0,0,0,.061,8.06c.265.9,3.655,1.32,3.888-.43a64.16,64.16,0,0,0-.061-8.06c-.263-.892-2.516-.818-3.214-.613M12.2,32.514c-.935.313-.857,4.8-.391,5.463.391.555,2.842.546,3.419.265.755-.368.656-4.772.226-5.382-.373-.53-2.677-.539-3.254-.346" transform="translate(0 -2.756)" fill="#fcc881"/>
            <path id="Path_877419" data-name="Path 877419" d="M187.77,46.073a36.447,36.447,0,0,1-3.19,5.4l-13.251-12.76c2.7-7.117-.742-16.183-7.853-19.141V1.167A32.85,32.85,0,0,1,187.77,46.073" transform="translate(-91.076 -0.65)" fill="#fe5527"/>
            <path id="Path_877420" data-name="Path 877420" d="M19.613,87.834c-2.683,1.108-1.833,3.325-1.963,5.644-.218,3.874-.019,7.459,0,11.288.013,2.614,0,5.239,0,7.853,0,1.338-.012,2.835,0,4.171.012,1.386.012,2.786,0,4.172-.012,1.344-.007,2.822,0,4.172.008,1.387-.013,2.784,0,4.171.015,1.49-.054,2.822,0,4.417.084,2.485-.775,4.924,1.963,6.135-2.534-.039-5.719.771-6.756-2.2-.225-5.23-.1-10.479-.115-15.712q-.055-15.853.058-31.72c.893-3.266,3.732-2.045,6.245-2.625.236-.11.525.236.568.235" transform="translate(-7.088 -48.791)" fill="#063c64"/>
            <path id="Path_877421" data-name="Path 877421" d="M112.209,4.47c-.019.159.01.33,0,.491C94.939,7.3,83.437,24.531,86.934,41.524c-1.877-.022-3.767.009-5.644,0C78.24,25.912,87.341,10.188,102.639,5.7a30.361,30.361,0,0,1,9.57-1.227" transform="translate(-44.961 -2.481)" fill="#087fc7"/>
            <path id="Path_877422" data-name="Path 877422" d="M156.872.517v18.4a17.182,17.182,0,0,0-5.153-.981c.225-5.079-.3-10.412,0-15.46.01-.162-.019-.332,0-.491C152.072-.985,154.9.157,156.872.517" transform="translate(-84.472 0)" fill="#fe4a28"/>
            <path id="Path_877423" data-name="Path 877423" d="M195.415,174.865a11.388,11.388,0,0,1,.269,1.6c-.074,1.3-1.6,1.859-2.723,1.592-1.865-.445-1.57-3.745.652-3.855a7.711,7.711,0,0,1,1.8.665" transform="translate(-106.819 -97.05)" fill="#fe8146"/>
            <path id="Path_877424" data-name="Path 877424" d="M119.258,5.6c-.3,5.048.225,10.381,0,15.46a14.717,14.717,0,0,0-13.061,23,14.921,14.921,0,0,0,22.877,2.03c2.287,2.251,4.672,4.41,7,6.62,1.2,1.139,3.16,3.611,4.288,4.423a30.617,30.617,0,0,1-19.632,9.079l-6.137-1.347a33.64,33.64,0,0,1-8.913-4.583,32.746,32.746,0,0,0-3.6-2.9c-.018-3.859.372-8.689.012-12.4-.388-4.005-5.195-2.776-8.11-2.81C90.486,25.17,101.988,7.944,119.258,5.6" transform="translate(-52.01 -3.12)" fill="#368dd6"/>
            <path id="Path_877425" data-name="Path 877425" d="M190.445,98.7c-1.117,1.681-2.617,5.017-5.153,3.19-1.128-.813-3.087-3.284-4.288-4.423-2.328-2.209-4.713-4.369-7-6.619a18.264,18.264,0,0,0,3.19-4.908Z" transform="translate(-96.941 -47.879)" fill="#fd4928"/>
            <path id="Path_877426" data-name="Path 877426" d="M146.623,156.437c.5.5.6,3.509-.555,3.623l-16.711-.222c-.6-.469-.772-3.9.776-3.688,4.918.285,10.355-.437,15.209-.027.381.032,1.009.043,1.281.314" transform="translate(-71.827 -86.907)" fill="#fe7f45"/>
            <path id="Path_877427" data-name="Path 877427" d="M129.953,173.991a51.181,51.181,0,0,1,8.178.055c.962.313.948,2.619.683,3.408-.163.489-.85.606-1.3.659a48.991,48.991,0,0,1-7.747-.115c-1.206-.392-.7-2.532-.6-3.574a1.46,1.46,0,0,1,.794-.433" transform="translate(-71.853 -96.858)" fill="#fe8146"/>
            <path id="Path_877428" data-name="Path 877428" d="M131.7,131.344a28.966,28.966,0,0,1-13.984-2.09c-1.6-.656-3.07-1.66-4.666-2.327,0-1.469.007-2.948,0-4.417a32.945,32.945,0,0,1,3.6,2.9A33.653,33.653,0,0,0,125.566,130Z" transform="translate(-62.984 -68.253)" fill="#0b7fc6"/>
            <path id="Path_877429" data-name="Path 877429" d="M129.677,192.417l8.75-.015c.589.193.513,2.683.353,3.229-.156.53-.565.61-1.043.674a63.91,63.91,0,0,1-8.06-.061c-1-.293-1-3.533,0-3.827" transform="translate(-71.828 -107.191)" fill="#fe7f45"/>
            <path id="Path_877430" data-name="Path 877430" d="M157.738,174.107c2.531-.368,3.116,4.094.186,4.094a2.055,2.055,0,0,1-.186-4.094" transform="translate(-86.873 -96.986)" fill="#fe7f45"/>
            <path id="Path_877431" data-name="Path 877431" d="M171.4,174.2c2.551-.132,2.645,3.924.194,4.092-2.612.18-2.94-3.949-.194-4.092" transform="translate(-94.423 -97.048)" fill="#fe7f45"/>
            <path id="Path_877432" data-name="Path 877432" d="M32.725,98.6c9.437-.222,18.909.174,28.352-.011a2.136,2.136,0,0,1,1.765,1.42,70.15,70.15,0,0,1,.05,10.231c-.143.9-.663,1.178-1.45,1.494-9.476.062-19,.318-28.471.116-2.152-1.233-1.434-3.943-1.473-6.135,4.6,2.726,5.079-5.21,0-2.7.086-1.837-.382-3.044,1.227-4.417m6.3,3.753c-2.606.142-2.462,4.258.19,4.1,2.436-.148,2.375-4.237-.19-4.1m5.165.225c-2.024.6-1.061,4.234,1.119,3.837a2.01,2.01,0,1,0-1.119-3.837" transform="translate(-17.501 -54.892)" fill="#7fdfe7"/>
            <path id="Path_877433" data-name="Path 877433" d="M50.972,185.5c-1.838-1.1-1.662-4.489-.245-5.889a60.283,60.283,0,0,1,11.388-.223c3.105.437,2.52,5.471.9,6-4,.1-8.044.242-12.039.108" transform="translate(-27.649 -99.832)" fill="#348cd4"/>
            <path id="Path_877434" data-name="Path 877434" d="M95.07,141.9c1.576.077,2.55.31,2.716,2.07.326,3.453-.233,7.49-.069,11.006-.454,1.411-1.388,1.364-2.647,1.4.053-.627-.682-.858-.856-1.231a104.772,104.772,0,0,1-.12-11.647c.136-.71.951-.849.977-1.6" transform="translate(-52.362 -79.057)" fill="#fb5426"/>
            <path id="Path_877435" data-name="Path 877435" d="M28.384,98.634c-1.609,1.373-1.141,2.58-1.227,4.417-.052,1.112-.019,1.653,0,2.7.038,2.191-.68,4.9,1.472,6.135-1.779-.038-3.59.444-4.908-.981-.019-3.829-.218-7.414,0-11.288,1.283-1.4,2.938-.941,4.662-.981" transform="translate(-13.159 -54.928)" fill="#2fcdda"/>
            <path id="Path_877436" data-name="Path 877436" d="M91.893,141.885c-.026.751-.84.89-.977,1.6a104.772,104.772,0,0,0,.12,11.647c.174.373.909.6.856,1.231-1.9.057-3.245-.125-3.447-2.32-.169-1.837-.284-8.963.063-10.511.361-1.611,2.031-1.713,3.384-1.647" transform="translate(-49.184 -79.039)" fill="#f0492b"/>
            <path id="Path_877437" data-name="Path 877437" d="M29.725,147.993c-2.137-1.5-1.687-4.144-.491-6.135,1.82-.08,3.9-.222,4.177,2.08.4,3.338-.581,4.082-3.686,4.055" transform="translate(-15.727 -79.012)" fill="#348cd4"/>
            <path id="Path_877438" data-name="Path 877438" d="M29.435,179.759a2.674,2.674,0,0,1,3.931,1.834c.424,3.516-.512,4.083-3.686,4.055-1.955-.857-2.038-5.029-.245-5.889" transform="translate(-15.682 -99.981)" fill="#348cd4"/>
            <path id="Path_877439" data-name="Path 877439" d="M29.666,166.877a3.822,3.822,0,0,1,0-6.135c3,.074,3.995.6,3.692,3.816-.226,2.4-1.733,2.319-3.692,2.319" transform="translate(-15.668 -89.552)" fill="#348cd4"/>
            <path id="Path_877440" data-name="Path 877440" d="M72.557,148.038c-1.8-1.14-1.837-5.033,0-6.135,2.99,0,4,.533,3.692,3.816-.224,2.378-1.729,2.336-3.692,2.319" transform="translate(-39.664 -79.057)" fill="#358cd5"/>
            <path id="Path_877441" data-name="Path 877441" d="M51.222,148.019c-2.145-1.265-2-4.578-.245-6.135,1.641-.021,3.447-.225,3.687,1.835.393,3.378-.1,4.257-3.441,4.3" transform="translate(-27.654 -79.038)" fill="#358cd5"/>
            <path id="Path_877442" data-name="Path 877442" d="M72.557,166.877c-1.837-1.1-1.8-4.995,0-6.135,3.008.094,3.994.6,3.692,3.816-.226,2.4-1.733,2.319-3.692,2.319" transform="translate(-39.664 -89.552)" fill="#358cd5"/>
            <path id="Path_877443" data-name="Path 877443" d="M51.21,166.877a3.749,3.749,0,0,1,0-6.135c3.288.169,3.759.715,3.447,4.061-.215,2.3-1.561,2.075-3.447,2.074" transform="translate(-27.642 -89.552)" fill="#358cd5"/>
            <path id="Path_877444" data-name="Path 877444" d="M94.863,185.984a5.771,5.771,0,0,1,0-5.889c1.332-.056,2.627-.226,2.931,1.609.479,2.9.058,4.281-2.931,4.28" transform="translate(-52.4 -100.317)" fill="#51aea0"/>
            <path id="Path_877445" data-name="Path 877445" d="M69.611,160.732c-1.8,1.14-1.837,5.033,0,6.135-2.656,0-3.822-.264-3.694-3.321.1-2.524,1.427-2.885,3.694-2.814" transform="translate(-36.718 -89.542)" fill="#077dc4"/>
            <path id="Path_877446" data-name="Path 877446" d="M69.614,141.9c-1.837,1.1-1.8,4.995,0,6.135-2.42-.022-3.691-.217-3.7-3.068-.011-2.92,1.228-3.067,3.7-3.067" transform="translate(-36.721 -79.057)" fill="#077dc4"/>
            <path id="Path_877447" data-name="Path 877447" d="M26.786,141.9c-1.2,1.991-1.646,4.639.491,6.135-1.372-.012-2.386.087-3.435-.981-.012-1.337,0-2.834,0-4.172,1.014-1.053,1.626-.923,2.945-.981" transform="translate(-13.279 -79.057)" fill="#077dc4"/>
            <path id="Path_877448" data-name="Path 877448" d="M27.275,160.729a3.822,3.822,0,0,0,0,6.135c-1.448,0-2.345.169-3.435-.981-.008-1.349-.012-2.828,0-4.172,1.031-1.03,2.067-1.015,3.435-.981" transform="translate(-13.277 -89.539)" fill="#077dc4"/>
            <path id="Path_877449" data-name="Path 877449" d="M48.489,160.712a3.749,3.749,0,0,0,0,6.135c-3.169,0-4.017-.38-3.692-3.815.217-2.291,1.723-2.421,3.692-2.319" transform="translate(-24.921 -89.523)" fill="#077dc4"/>
            <path id="Path_877450" data-name="Path 877450" d="M48.18,141.9c-1.752,1.557-1.9,4.87.245,6.135-3.309.042-4.147-.879-3.694-4.307.238-1.806,2.05-1.81,3.448-1.828" transform="translate(-24.858 -79.057)" fill="#077dc4"/>
            <path id="Path_877451" data-name="Path 877451" d="M27.012,179.807c-1.793.86-1.71,5.032.245,5.889a5.293,5.293,0,0,1-3.435-.736c-.054-1.595.014-2.927,0-4.417.838-.6,2.276-1.421,3.191-.736" transform="translate(-13.26 -100.03)" fill="#077dc4"/>
            <path id="Path_877452" data-name="Path 877452" d="M91.87,180.134a5.771,5.771,0,0,0,0,5.889c-2.314,0-3.206-.548-3.187-3.067.02-2.772.941-2.727,3.187-2.822" transform="translate(-49.407 -100.356)" fill="#3e988e"/>
            <path id="Path_877453" data-name="Path 877453" d="M48.016,180.107c-1.416,1.4-1.592,4.794.245,5.889-1.111-.037-2.505.28-3.162-.887a6.064,6.064,0,0,1,.106-4.255c.746-1.158,1.7-.632,2.811-.748" transform="translate(-24.939 -100.329)" fill="#077dc4"/>
            <path id="Path_877454" data-name="Path 877454" d="M62.752,44.929a14.1,14.1,0,0,1,2.861-.015l.4.579L65.794,60.24c-.417.529-3.648.758-3.7-.521l.115-14.35a.931.931,0,0,1,.541-.44" transform="translate(-34.595 -24.977)" fill="#fe4a27"/>
            <path id="Path_877455" data-name="Path 877455" d="M44.877,58.183c.7-.2,2.951-.279,3.214.613a64.16,64.16,0,0,1,.061,8.06c-.233,1.75-3.623,1.33-3.888.43a63.984,63.984,0,0,1-.061-8.06c.063-.479.144-.888.674-1.044" transform="translate(-24.572 -32.342)" fill="#044d7d"/>
            <path id="Path_877456" data-name="Path 877456" d="M26.626,67.048c.578-.194,2.881-.184,3.254.346.43.61.528,5.014-.226,5.382-.577.281-3.028.291-3.419-.265-.467-.663-.545-5.15.391-5.463" transform="translate(-14.428 -37.289)" fill="#3a8fd4"/>
            <path id="Path_877457" data-name="Path 877457" d="M132.159,40.488a17.2,17.2,0,0,1,5.153.982c7.11,2.957,10.557,12.023,7.853,19.14a18.264,18.264,0,0,1-3.19,4.908,14.921,14.921,0,0,1-22.877-2.03,14.717,14.717,0,0,1,13.061-23m-8.415,5.206c-2.675.616-2.675,5.42.7,5.6,4.288.23,3.971-6.675-.7-5.6m13.991.24a2.006,2.006,0,0,0-.919.561L122.477,60.866c-1.352,1.985,1.195,4.6,3.181,3.18l14.6-14.6c1.216-1.652-.585-3.942-2.522-3.512m.229,13.043c-3.849.135-3.535,5.932.2,5.815,3.753-.118,3.671-5.95-.2-5.815" transform="translate(-64.912 -22.548)" fill="#fcf2f3"/>
            <path id="Path_877458" data-name="Path 877458" d="M46.226,107.156c2.566-.14,2.626,3.949.19,4.1-2.652.161-2.8-3.956-.19-4.1" transform="translate(-24.707 -59.696)" fill="#378fd6"/>
            <path id="Path_877459" data-name="Path 877459" d="M31.571,110.731c-.018-1.047-.052-1.587,0-2.7,5.079-2.511,4.6,5.425,0,2.7" transform="translate(-17.574 -59.909)" fill="#378fd6"/>
            <path id="Path_877460" data-name="Path 877460" d="M58.856,107.5a2.01,2.01,0,1,1,1.119,3.837c-2.179.4-3.143-3.232-1.119-3.837" transform="translate(-32.171 -59.812)" fill="#378fd6"/>
            <path id="Path_877461" data-name="Path 877461" d="M144.761,52.738c1.937-.429,3.738,1.861,2.522,3.512l-14.6,14.6c-1.986,1.422-4.532-1.195-3.181-3.179L143.842,53.3a2.01,2.01,0,0,1,.919-.561" transform="translate(-71.937 -29.352)" fill="#054d7f"/>
            <path id="Path_877462" data-name="Path 877462" d="M161.492,82.251c3.869-.135,3.951,5.7.2,5.815-3.733.117-4.047-5.68-.2-5.815" transform="translate(-88.439 -45.822)" fill="#084f80"/>
            <path id="Path_877463" data-name="Path 877463" d="M130.416,52.118c4.666-1.074,4.983,5.831.695,5.6-3.37-.182-3.37-4.986-.695-5.6" transform="translate(-71.584 -28.973)" fill="#084f80"/>
          </g>
        </g>
      </g>
    </g>
  </g>
</svg>
