<svg xmlns="http://www.w3.org/2000/svg" xmlns:xlink="http://www.w3.org/1999/xlink" width="1328.668" height="395" viewBox="0 0 1328.668 395">
  <defs>
    <clipPath id="clip-path">
      <rect id="Rectangle_401506" data-name="Rectangle 401506" width="1328" height="395" fill="#b0d5e9"/>
    </clipPath>
    <clipPath id="clip-path-2">
      <rect id="Rectangle_403583" data-name="Rectangle 403583" width="269.014" height="301.612" fill="none"/>
    </clipPath>
  </defs>
  <g id="imgfondoslyder" transform="translate(-136 -6318)">
    <g id="Mask_Group_1098776" data-name="Mask Group 1098776" transform="translate(136.668 6318)" clip-path="url(#clip-path)">
      <g id="Rectangle_401503" data-name="Rectangle 401503" transform="translate(-13 -21)" fill="#b0d5e9" stroke="#707070" stroke-width="1">
        <rect width="1353" height="528" stroke="none"/>
        <rect x="0.5" y="0.5" width="1352" height="527" fill="none"/>
      </g>
    </g>
    <rect id="Rectangle_403635" data-name="Rectangle 403635" width="53.495" height="327.357" transform="translate(136 6318)" fill="#88c0de"/>
    <rect id="Rectangle_403636" data-name="Rectangle 403636" width="53.494" height="67.542" transform="translate(136 6645.356)" fill="#d7ca51"/>
    <path id="Path_875639" data-name="Path 875639" d="M3.593,106.991l103.4-103.4V0H103.4L0,103.4v3.593Z" transform="translate(136 6605.907)" fill="#225a78"/>
    <path id="Path_875640" data-name="Path 875640" d="M7.185,94.743,94.741,7.185V0L0,94.743Z" transform="translate(148.248 6618.156)" fill="#225a78"/>
    <path id="Path_875641" data-name="Path 875641" d="M7.185,78.9,78.9,7.185V0L0,78.9Z" transform="translate(164.09 6633.997)" fill="#225a78"/>
    <path id="Path_875642" data-name="Path 875642" d="M7.185,63.06,63.06,7.185V0L0,63.06Z" transform="translate(179.93 6649.838)" fill="#225a78"/>
    <path id="Path_875643" data-name="Path 875643" d="M7.185,47.22,47.22,7.185V0L0,47.22Z" transform="translate(195.771 6665.679)" fill="#225a78"/>
    <path id="Path_875644" data-name="Path 875644" d="M7.185,31.379,31.378,7.185V0L0,31.379Z" transform="translate(211.611 6681.52)" fill="#225a78"/>
    <path id="Path_875645" data-name="Path 875645" d="M7.185,15.538l8.353-8.353V0L0,15.538Z" transform="translate(227.453 6697.36)" fill="#225a78"/>
    <path id="Path_875646" data-name="Path 875646" d="M15.537,0H8.352L0,8.353v7.184Z" transform="translate(136 6605.907)" fill="#225a78"/>
    <path id="Path_875647" data-name="Path 875647" d="M31.378,0H24.193L0,24.194v7.184Z" transform="translate(136 6605.907)" fill="#225a78"/>
    <path id="Path_875648" data-name="Path 875648" d="M47.219,0H40.034L0,40.035V47.22Z" transform="translate(136 6605.907)" fill="#225a78"/>
    <path id="Path_875649" data-name="Path 875649" d="M63.059,0H55.874L0,55.876V63.06Z" transform="translate(136 6605.907)" fill="#225a78"/>
    <path id="Path_875650" data-name="Path 875650" d="M78.9,0H71.716L0,71.717V78.9Z" transform="translate(136 6605.907)" fill="#225a78"/>
    <path id="Path_875651" data-name="Path 875651" d="M94.741,0H87.556L0,87.558v7.185Z" transform="translate(136 6605.907)" fill="#225a78"/>
    <g id="Group_1101080" data-name="Group 1101080" transform="translate(310.986 6348.224)">
      <path id="Path_875559" data-name="Path 875559" d="M120.317,78.041,63.058,20.78,0,83.837,57.259,141.1,0,198.358l63.057,63.06,57.259-57.262,57.262,57.262,63.057-63.06L183.374,141.1l57.262-57.262L177.578,20.78Z" transform="translate(0 40.196)" fill="#00d1a1"/>
      <g id="Group_1100920" data-name="Group 1100920">
        <g id="Group_1100919" data-name="Group 1100919" clip-path="url(#clip-path-2)">
          <path id="Path_875560" data-name="Path 875560" d="M249.306,64.057,186.249,1,128.987,58.259,71.728,1,8.671,64.057,65.93,121.316,8.671,178.578l63.057,63.057,57.259-57.259,57.262,57.259,63.057-63.057-57.259-57.262Z" transform="translate(16.773 1.934)" fill="none" stroke="#225a78" stroke-linecap="round" stroke-linejoin="round" stroke-width="2"/>
        </g>
      </g>
    </g>
  </g>
</svg>
