<svg xmlns="http://www.w3.org/2000/svg" xmlns:xlink="http://www.w3.org/1999/xlink" width="190" height="145" viewBox="0 0 190 145">
  <defs>
    <clipPath id="clip-path">
      <rect id="Rectangle_405170" data-name="Rectangle 405170" width="72.078" height="73.794" transform="translate(0 0)" fill="none"/>
    </clipPath>
  </defs>
  <g id="img6" transform="translate(-285 -3401)">
    <g id="Group_1102420" data-name="Group 1102420" transform="translate(311 3402)">
      <g id="Group_1101015" data-name="Group 1101015" transform="translate(0)">
        <g id="Group_1101010" data-name="Group 1101010" transform="translate(49.271)">
          <path id="Path_875656" data-name="Path 875656" d="M227.288,10.626l-85.44,85.442v2.969h2.968l85.441-85.442V10.626Z" transform="translate(-141.847 -10.626)" fill="#225a78"/>
          <path id="Path_875657" data-name="Path 875657" d="M214.2,10.626,141.848,82.978v5.937l78.288-78.289Z" transform="translate(-141.847 -10.626)" fill="#225a78"/>
          <path id="Path_875658" data-name="Path 875658" d="M201.108,10.626,141.847,69.888v5.937l65.2-65.2Z" transform="translate(-141.847 -10.626)" fill="#225a78"/>
          <path id="Path_875659" data-name="Path 875659" d="M188.018,10.626,141.847,56.8v5.937l52.109-52.109Z" transform="translate(-141.847 -10.626)" fill="#225a78"/>
          <path id="Path_875660" data-name="Path 875660" d="M174.929,10.626,141.847,43.708v5.937l39.019-39.019Z" transform="translate(-141.847 -10.626)" fill="#225a78"/>
          <path id="Path_875661" data-name="Path 875661" d="M161.839,10.626,141.847,30.618v5.937l25.929-25.93Z" transform="translate(-141.847 -10.626)" fill="#225a78"/>
          <path id="Path_875662" data-name="Path 875662" d="M148.749,10.626l-6.9,6.9v5.937l12.839-12.84Z" transform="translate(-141.847 -10.626)" fill="#225a78"/>
          <path id="Path_875663" data-name="Path 875663" d="M268.109,149.727h5.937l6.9-6.9v-5.937Z" transform="translate(-192.538 -61.316)" fill="#225a78"/>
          <path id="Path_875664" data-name="Path 875664" d="M246.238,140.947h5.937l19.992-19.993v-5.937Z" transform="translate(-183.756 -52.536)" fill="#225a78"/>
          <path id="Path_875665" data-name="Path 875665" d="M224.368,132.166h5.937l33.081-33.083V93.147Z" transform="translate(-174.977 -43.755)" fill="#225a78"/>
          <path id="Path_875666" data-name="Path 875666" d="M202.5,123.386h5.937l46.171-46.172V71.277Z" transform="translate(-166.197 -34.975)" fill="#225a78"/>
          <path id="Path_875667" data-name="Path 875667" d="M180.628,114.606h5.937l59.261-59.262V49.407Z" transform="translate(-157.416 -26.195)" fill="#225a78"/>
          <path id="Path_875668" data-name="Path 875668" d="M158.757,105.825h5.937l72.351-72.352V27.536Z" transform="translate(-148.636 -17.415)" fill="#225a78"/>
        </g>
        <rect id="Rectangle_403642" data-name="Rectangle 403642" width="65" height="65" transform="translate(0 73)" fill="none" stroke="#225a78" stroke-linecap="round" stroke-linejoin="round" stroke-width="2"/>
        <rect id="Rectangle_403641" data-name="Rectangle 403641" width="115.512" height="115.439" transform="translate(12.469 9.738)" fill="#b0d5e9"/>
      </g>
      <g id="Group_1102938" data-name="Group 1102938" transform="translate(33 31.998)">
        <g id="Group_1102938-2" data-name="Group 1102938" transform="translate(0 0.002)" clip-path="url(#clip-path)">
          <path id="Path_879742" data-name="Path 879742" d="M101.589.02l38.311,0c.2-.1.658.353.658.456V20.548c.358-.122.132-.728.418-.7-.273.942-.5,1.908-.766,2.853-2.816,9.962-5.4,19.99-8.127,29.979l.89,5.79a.6.6,0,0,0,.139.557c.04.919.677.876,1.253.417a59.575,59.575,0,0,0,4.2-4.949l1.713-6.533c.25-.9.518-1.81.765-2.714,0,.763-.511,1.686-.561,2.4-.407,5.846.455,12.383.079,18.306.1.181-.389.657-.457.657h-7.446a.7.7,0,0,0-.1.1v6.611c0,.234-.71.519-.936.455l-48.782,0c-1.518-.1-.454-2.551-.872-3.547.032.007.13-.013.139,0,.269.37-.524,3.3.52,3.413l49.274,0c.22.057.587-.278.587-.457V66.72c0-.317-5.87.125-6.332-.244,6.055-6.271,3.031-17.486-5.5-19.415a11.863,11.863,0,0,0-11.134,2.853l-.066-20.08a5.41,5.41,0,0,0-.143-.866,3.929,3.929,0,0,0-.626-1.461,3.858,3.858,0,0,0-2.644-1.74L89.2,25.6l0-13.12h11.934c.074,0,.533-.413.453-.59ZM98.583,15.351a1.228,1.228,0,0,0-.44,2.415l32.99,0c1.735-.476,1.08-2.636-.629-2.443Zm33.32,8.165a1.309,1.309,0,0,0-1.051-2.135h-32.5a1.29,1.29,0,0,0,.069,2.578h32.432a1.576,1.576,0,0,0,1.051-.445m-18.711,4.078c-1.446.515-1.219,2.219.332,2.417,5.273.673,11.975-.5,17.4,0a1.221,1.221,0,0,0,.139-2.435Zm.282,6.058a1.212,1.212,0,0,0-.162,2.416l17.746,0c1.435-.215,1.582-2.224-.28-2.433-5.352-.6-11.837.428-17.3.019m-.349,6.123a1.233,1.233,0,0,0,.328,2.415c5.415-.52,12.207.694,17.465,0a1.227,1.227,0,0,0,.211-2.435Z" transform="translate(-76.256 -0.001)" fill="#ebeef0"/>
          <path id="Path_879743" data-name="Path 879743" d="M.141,417.906.07,454.755A4.086,4.086,0,0,0,4.21,458.9c8.154.623,17.1-.471,25.331,0a4.091,4.091,0,0,0,3.516-3.408,12.4,12.4,0,0,0,8.7,3.41,12.162,12.162,0,0,0,8.142-3.619c.462.369,6.332-.073,6.332.244v6.472c0,.179-.367.515-.587.457l-49.274,0c-1.044-.117-.251-3.043-.52-3.413-.009-.013-.107.007-.139,0-.7-.147-1.738.062-2.6-.145A4.289,4.289,0,0,1,0,455.275v-37.16c.006-.068-.008-.141,0-.209Z" transform="translate(0 -388.799)" fill="#d0d0d6"/>
          <path id="Path_879744" data-name="Path 879744" d="M25.368.1V11.968c.079.177-.379.59-.453.59H12.981l0,13.12,16.844.171-26.058,0A4.1,4.1,0,0,0,.177,29.19H.038A4.446,4.446,0,0,1,2.158,26.2c1.212-.612,2.365-.416,3.655-.555L5.976,6.005l.356-.27,13.121,0a79.494,79.494,0,0,0-6.195,6.227c-.119.157-.3.3-.277.523h11.8A.837.837,0,0,0,25.3,11.9V.346c0-.241-.358.028-.419.069-1.219.812-4.168,4.083-5.427,5.324.023-.007.093-.174.139-.209,1.675-1.277,3.425-3.961,5.113-5.151.214-.151.352-.341.663-.277" transform="translate(-0.035 -0.083)" fill="#d0d0d6"/>
          <path id="Path_879745" data-name="Path 879745" d="M879.263,346.907a6.131,6.131,0,0,0,1.6.418c-1.815,6.891-3.618,13.794-5.5,20.668-.247.9-.515,1.81-.765,2.714-.571,2.062-1.116,4.134-1.708,6.19-.283.316-1.231-.107-1.632-.205l7.794-29.784c.057.016.152-.016.209,0" transform="translate(-810.579 -322.741)" fill="#f3b231"/>
          <path id="Path_879746" data-name="Path 879746" d="M937.471,206.913a9.329,9.329,0,0,0-1.322-.418c.245-.14,1.237.358,1.357.209a31.554,31.554,0,0,0,.922-3.862,3.282,3.282,0,0,0-3.253-3.235c2.5,1.827,1.271,4.338.626,6.749l-4.593-1.183c.736-2.545.874-6.247,4.735-5.605,3.945.656,2.11,5.091,1.528,7.345" transform="translate(-866.35 -185.601)" fill="#fd646e"/>
          <path id="Path_879747" data-name="Path 879747" d="M923.713,282.209c-.006.022.006.048,0,.07-.261.971-.722,2.165-.878,3.132-.025.156-.029.127.112.208-.057-.016-.152.016-.209,0-1.484-.414-2.953-.9-4.454-1.253.005-.018-.075-.154-.07-.209.267-.946.493-1.912.766-2.853.025-.086.115-.194.139-.278Z" transform="translate(-854.263 -261.453)" fill="#6cf4c1"/>
          <path id="Path_879748" data-name="Path 879748" d="M985.6,298.97a9.321,9.321,0,0,1,1.322.418c-.281,1.09-.548,2.182-.835,3.271a6.132,6.132,0,0,1-1.6-.418c-.141-.081-.137-.052-.112-.208.156-.967.616-2.161.878-3.132a.637.637,0,0,1,.348.07" transform="translate(-915.797 -278.075)" fill="#0be398"/>
          <path id="Path_879749" data-name="Path 879749" d="M96.681,78.153c-.046.035-.117.2-.139.209l-13.121,0-.356.27L82.9,98.264l0-19.385c.015-.473.448-.695.871-.73Z" transform="translate(-77.124 -72.706)" fill="#e6e8e9"/>
          <path id="Path_879750" data-name="Path 879750" d="M.038,458.064v0Z" transform="translate(-0.035 -391.589)" fill="#ebeef0"/>
          <path id="Path_879751" data-name="Path 879751" d="M30.72,369.948a3.858,3.858,0,0,1,2.644,1.74c-.43-.18-.635-.669-.992-.927a10.494,10.494,0,0,0-1.548-.743h-1.5a4.429,4.429,0,0,1,2.847,3.173l0,22.822.282.171a11.357,11.357,0,0,0-.139,12.456c.087.147.195.361.278.487-.015-.018-.347-.258-.418-.209v2.122c0,1.086-1.622,2.738-2.644,3.063a3.786,3.786,0,0,0,3-.877,4.284,4.284,0,0,0,1.377-2.425c-.005-.076-.877-.9-1.037-1.1a3.821,3.821,0,0,1-.282-.57,15.994,15.994,0,0,0,1.392,1.74,4.091,4.091,0,0,1-3.516,3.409c-8.235-.467-17.177.627-25.331,0A4.087,4.087,0,0,1,1,410.138l.072-36.849a4.1,4.1,0,0,1,3.586-3.338ZM6.225,374.541a1.032,1.032,0,0,0-.7.7,58.411,58.411,0,0,0-.14,7.76,1.366,1.366,0,0,0,.819,1.059l22.463.022a1.3,1.3,0,0,0,.893-.707,62.2,62.2,0,0,0,.113-7.615c-.077-.739-.24-1.07-.976-1.32L6.814,374.4a1.167,1.167,0,0,0-.589.142m.4,11.434A1.223,1.223,0,0,0,5.4,387.11a32.29,32.29,0,0,0-.01,4.586,1.3,1.3,0,0,0,.7.966,30.483,30.483,0,0,0,4.9.113,1.294,1.294,0,0,0,1.217-1.009,37.345,37.345,0,0,0,0-4.735,1.41,1.41,0,0,0-.7-.966,28.066,28.066,0,0,0-4.878-.09m8.7,0a1.272,1.272,0,0,0-1.163.925,43.32,43.32,0,0,0-.008,4.938,1.787,1.787,0,0,0,.634.828,32.728,32.728,0,0,0,4.9.111,1.262,1.262,0,0,0,1.287-1.149,23.133,23.133,0,0,0-.208-5.083,3.392,3.392,0,0,0-.463-.442,26,26,0,0,0-4.982-.128m8.769,0a1.254,1.254,0,0,0-1.231,1.135,30.33,30.33,0,0,0-.01,4.447,1.282,1.282,0,0,0,.7,1.1,30.836,30.836,0,0,0,4.9.113,1.282,1.282,0,0,0,1.1-.7,29.748,29.748,0,0,0,.113-4.832,1.316,1.316,0,0,0-.7-1.174,28.042,28.042,0,0,0-4.878-.09m-17.466,8.49A1.223,1.223,0,0,0,5.4,395.6a32.29,32.29,0,0,0-.01,4.586,1.423,1.423,0,0,0,1.358,1.147c1.134.148,5.212.394,5.464-1.077a37.319,37.319,0,0,0,0-4.735,1.29,1.29,0,0,0-.718-.952,25.864,25.864,0,0,0-4.864-.1m8.768,0a1.274,1.274,0,0,0-1.233.924,43.265,43.265,0,0,0-.008,4.938c.247,1.388,4.283,1.14,5.4,1.007a1.4,1.4,0,0,0,1.43-1.284c.1-.738.071-4.55-.251-5.045a1.776,1.776,0,0,0-.479-.425,25.27,25.27,0,0,0-4.854-.114m7.9,15.054a3.343,3.343,0,0,0,.843.305c.771.1,4.42.081,4.96-.262a1.316,1.316,0,0,0,.482-.562c-.181-4.148.555-9.217.094-13.271a1.312,1.312,0,0,0-.752-1.2,25.852,25.852,0,0,0-5.345.045,1.7,1.7,0,0,0-.633.689l-.094,13.271a1.534,1.534,0,0,0,.445.981M5.694,403.375c-.436.523-.442,5.226-.122,5.813a1.535,1.535,0,0,0,1.1.635,30.013,30.013,0,0,0,4.248,0,1.434,1.434,0,0,0,1.289-1.146,34.789,34.789,0,0,0,0-4.667,1.312,1.312,0,0,0-1.359-1.082A40.6,40.6,0,0,0,6.327,403a1.637,1.637,0,0,0-.633.375m13.671-.422A34.89,34.89,0,0,0,15.1,403a1.193,1.193,0,0,0-.941.938,41.1,41.1,0,0,0,0,4.876c.247,1.39,4.294,1.141,5.4,1.009a1.425,1.425,0,0,0,1.425-1.219c.107-.722.068-4.624-.248-5.113-.342-.528-.809-.517-1.366-.54" transform="translate(-0.934 -344.182)" fill="#756575"/>
          <path id="Path_879752" data-name="Path 879752" d="M441.515,670.3a7.282,7.282,0,0,0-2.435-.21c11.817,2.066,13.237,18.41,2.015,22.58l-2.225.663a12.4,12.4,0,0,1-8.7-3.41,16,16,0,0,1-1.392-1.74c-.083-.127-.192-.34-.278-.487a11.694,11.694,0,0,1,13.013-17.4m-5.984,3.479c-4.542,1.349-6.546,7.143-4.686,11.332.762,1.717,3.353,4.434,5.312,4.534a8.374,8.374,0,1,0-.626-15.866" transform="translate(-397.116 -623.243)" fill="#fecf63"/>
          <path id="Path_879753" data-name="Path 879753" d="M301.7,219.9l31.921-.024c1.709-.193,2.364,1.967.629,2.443l-32.99,0a1.228,1.228,0,0,1,.44-2.415" transform="translate(-279.37 -204.555)" fill="#a69aa6"/>
          <path id="Path_879754" data-name="Path 879754" d="M517.537,570.777l18-.021a1.227,1.227,0,0,1-.211,2.435c-5.258.7-12.049-.519-17.465,0a1.233,1.233,0,0,1-.328-2.415" transform="translate(-480.668 -531.004)" fill="#a69aa6"/>
          <path id="Path_879755" data-name="Path 879755" d="M517.388,395.947l17.866-.017a1.221,1.221,0,0,1-.139,2.435c-5.42-.5-12.122.672-17.4,0-1.551-.2-1.778-1.9-.332-2.417" transform="translate(-480.453 -368.354)" fill="#a69ba6"/>
          <path id="Path_879756" data-name="Path 879756" d="M517.925,480.321c5.467.409,11.952-.619,17.3-.019,1.862.209,1.715,2.218.28,2.433l-17.746,0a1.212,1.212,0,0,1,.162-2.416" transform="translate(-480.707 -446.67)" fill="#a69ba6"/>
          <path id="Path_879757" data-name="Path 879757" d="M410.806,397.112l-.282-.171,0-22.822a4.429,4.429,0,0,0-2.847-3.173h1.5a10.48,10.48,0,0,1,1.548.743c.357.258.562.747.992.927a3.929,3.929,0,0,1,.626,1.461l0,20.983c-.448.736-1.054,1.324-1.533,2.051" transform="translate(-379.281 -345.111)" fill="#6b5c6b"/>
          <path id="Path_879758" data-name="Path 879758" d="M602.148,672.358c8.528,1.929,11.552,13.144,5.5,19.415a12.163,12.163,0,0,1-8.142,3.619l2.225-.663c11.221-4.17,9.8-20.514-2.016-22.58a7.285,7.285,0,0,1,2.435.21" transform="translate(-557.749 -625.298)" fill="#f4c161"/>
          <path id="Path_879759" data-name="Path 879759" d="M809.724,326.2c-2.743,9.8-5.35,19.648-8,29.48-.03.178.009.231.154.322.126.078,1.562.45,1.862.539.265.331,2.451.575,2.428.857a52.639,52.639,0,0,1-3.476,4.12c-.06.066-.215-.188-.275.242l-.891-5.789c2.725-9.989,5.312-20.017,8.128-29.979-.005.055.075.191.07.209" transform="translate(-745.701 -303.283)" fill="#f5dbcc"/>
          <path id="Path_879760" data-name="Path 879760" d="M815.551,700.152c.93-.6-1.179-.982-1.253-.9a3.84,3.84,0,0,0,0,.487.6.6,0,0,1-.139-.557c.06-.43.214-.176.275-.242a52.635,52.635,0,0,0,3.476-4.12c.023-.282-2.163-.526-2.428-.857.851.252,1.781.483,2.644.7.4.1,1.349.522,1.632.205.592-2.056,1.138-4.128,1.708-6.19l-1.713,6.533a59.567,59.567,0,0,1-4.2,4.949" transform="translate(-757.443 -640.705)" fill="#efcabb"/>
          <path id="Path_879761" data-name="Path 879761" d="M334.354,309.1a1.575,1.575,0,0,1-1.051.445H300.871a1.29,1.29,0,0,1-.069-2.578h32.5a1.309,1.309,0,0,1,1.051,2.135m-33.39-1.972a1.148,1.148,0,0,0-.3,2.276l32.85,0a1.172,1.172,0,1,0-.419-2.3Z" transform="translate(-278.707 -285.583)" fill="#c4bfc6"/>
          <path id="Path_879762" data-name="Path 879762" d="M428.552,436.854a11.937,11.937,0,0,0-1.879,14.544,11.358,11.358,0,0,1,.139-12.456c.479-.726,1.085-1.315,1.533-2.051l0-20.983a5.415,5.415,0,0,1,.143.866Z" transform="translate(-395.287 -386.941)" fill="#b5986f"/>
          <path id="Path_879763" data-name="Path 879763" d="M817.453,841.307c-.576.459-1.213.5-1.253-.417a3.875,3.875,0,0,1,0-.487c.073-.077,2.183.307,1.253.9" transform="translate(-759.345 -781.86)" fill="#ac9fa8"/>
          <path id="Path_879764" data-name="Path 879764" d="M192.327,7.836c1.258-1.241,4.207-4.512,5.427-5.325.06-.04.419-.31.419-.069V13.995a.837.837,0,0,1-.522.591H185.856c-.018-.224.158-.367.277-.523a79.5,79.5,0,0,1,6.195-6.227" transform="translate(-172.91 -2.181)" fill="#b9b8c5"/>
          <path id="Path_879765" data-name="Path 879765" d="M816.677,330.237l-7.794,29.784c-.864-.213-1.793-.444-2.644-.7-.3-.089-1.736-.46-1.862-.539-.146-.091-.184-.144-.154-.322,2.65-9.832,5.257-19.675,8-29.48,1.5.355,2.97.839,4.453,1.253" transform="translate(-748.2 -306.071)" fill="#fec238"/>
          <path id="Path_879766" data-name="Path 879766" d="M988.783,207.855c.644-2.411,1.871-4.923-.626-6.749a3.282,3.282,0,0,1,3.253,3.235,31.565,31.565,0,0,1-.922,3.862c-.12.149-1.112-.348-1.357-.209a.638.638,0,0,0-.348-.07c.006-.022-.006-.048,0-.07" transform="translate(-919.333 -187.099)" fill="#fb4855"/>
          <path id="Path_879767" data-name="Path 879767" d="M66.675,435.89l21.92.1v6.889c0,.312-.525,1.148-.8,1.148H65.979v-7.446a1.032,1.032,0,0,1,.7-.7" transform="translate(-61.384 -405.531)" fill="#fee077"/>
          <path id="Path_879768" data-name="Path 879768" d="M63.913,433.921a1.168,1.168,0,0,1,.589-.142l21.888.037c.736.251.9.582.976,1.32a62.211,62.211,0,0,1-.113,7.615,1.3,1.3,0,0,1-.893.707L63.9,443.437a1.367,1.367,0,0,1-.819-1.059,58.424,58.424,0,0,1,.14-7.76v7.446H85.032c.276,0,.8-.837.8-1.148v-6.889Z" transform="translate(-58.621 -403.562)" fill="#f4c161"/>
          <path id="Path_879769" data-name="Path 879769" d="M315.173,736.334a1.533,1.533,0,0,1-.445-.981l.094-13.271a1.7,1.7,0,0,1,.633-.689,25.847,25.847,0,0,1,5.345-.045,1.312,1.312,0,0,1,.752,1.2c.461,4.054-.275,9.123-.094,13.271a1.315,1.315,0,0,1-.482.562c-.541.343-4.19.362-4.96.262a3.345,3.345,0,0,1-.843-.305m4.845-14.936h-4.349a1.879,1.879,0,0,0-.8.8v12.978h4.21c.369,0,.939-.715.939-1.079Z" transform="translate(-292.807 -670.998)" fill="#d0d0d6"/>
          <path id="Path_879770" data-name="Path 879770" d="M64.177,721.087a25.867,25.867,0,0,1,4.864.1,1.289,1.289,0,0,1,.718.952,37.331,37.331,0,0,1,0,4.735c-.252,1.472-4.331,1.225-5.464,1.077a1.423,1.423,0,0,1-1.358-1.147,32.31,32.31,0,0,1,.01-4.586,1.223,1.223,0,0,1,1.231-1.135m4.049.118H63.877a1.933,1.933,0,0,0-.8.8v4.384a.7.7,0,0,0,.1.1h4.106a1.633,1.633,0,0,0,.939-.94Z" transform="translate(-58.481 -670.804)" fill="#d0d0d6"/>
          <path id="Path_879771" data-name="Path 879771" d="M63.707,843.512a1.637,1.637,0,0,1,.633-.375,40.612,40.612,0,0,1,4.525-.072,1.312,1.312,0,0,1,1.359,1.082,34.789,34.789,0,0,1,0,4.667,1.435,1.435,0,0,1-1.289,1.146,30,30,0,0,1-4.248,0,1.535,1.535,0,0,1-1.1-.635c-.32-.587-.314-5.29.122-5.813m4.985-.3H64.343a1.933,1.933,0,0,0-.8.8v4.384a.7.7,0,0,0,.1.1h4.106a1.633,1.633,0,0,0,.939-.94Z" transform="translate(-58.948 -784.318)" fill="#d0d0d6"/>
          <path id="Path_879772" data-name="Path 879772" d="M194.075,843.279c.557.023,1.024.012,1.366.54.316.488.356,4.391.248,5.113a1.425,1.425,0,0,1-1.425,1.219c-1.1.131-5.152.381-5.4-1.009a41.1,41.1,0,0,1,0-4.876,1.193,1.193,0,0,1,.941-.938,34.883,34.883,0,0,1,4.268-.049m.012.119h-4.28c-.277,0-.87.673-.87.939v4.349h4.28c.327,0,.87-.655.87-1.009Z" transform="translate(-175.644 -784.508)" fill="#d0d0d6"/>
          <path id="Path_879773" data-name="Path 879773" d="M190.185,721.119a25.279,25.279,0,0,1,4.854.114,1.778,1.778,0,0,1,.479.425c.322.5.349,4.307.251,5.045a1.4,1.4,0,0,1-1.43,1.284c-1.113.134-5.149.381-5.4-1.007a43.263,43.263,0,0,1,.008-4.938,1.274,1.274,0,0,1,1.233-.924m4.05.118a41.506,41.506,0,0,0-4.419,0c-.23,0-.8.724-.8.939v4.349h4.28c.353,0,.747-.57.838-.9a25.436,25.436,0,0,0,.1-4.387" transform="translate(-175.721 -670.836)" fill="#d0d0d6"/>
          <path id="Path_879774" data-name="Path 879774" d="M64.177,599.22a28.059,28.059,0,0,1,4.878.09,1.41,1.41,0,0,1,.7.966,37.345,37.345,0,0,1,0,4.735,1.294,1.294,0,0,1-1.217,1.009,30.484,30.484,0,0,1-4.9-.113,1.3,1.3,0,0,1-.7-.966,32.31,32.31,0,0,1,.01-4.586,1.223,1.223,0,0,1,1.231-1.135m4.049.118H63.877a1.933,1.933,0,0,0-.8.8v4.384a.7.7,0,0,0,.1.1h4.106a1.633,1.633,0,0,0,.939-.94Z" transform="translate(-58.481 -557.427)" fill="#d0d0d6"/>
          <path id="Path_879775" data-name="Path 879775" d="M314.951,599.216a28.033,28.033,0,0,1,4.878.09,1.316,1.316,0,0,1,.7,1.174,29.746,29.746,0,0,1-.113,4.832,1.282,1.282,0,0,1-1.1.7,30.821,30.821,0,0,1-4.9-.113,1.282,1.282,0,0,1-.7-1.1,30.337,30.337,0,0,1,.01-4.447,1.254,1.254,0,0,1,1.231-1.135m4.049.118h-4.349a2.317,2.317,0,0,0-.8.731v4.558h4.21c.4,0,.939-.748.939-1.148Z" transform="translate(-291.789 -557.423)" fill="#d0d0d6"/>
          <path id="Path_879776" data-name="Path 879776" d="M190.113,599.241a25.992,25.992,0,0,1,4.982.128,3.4,3.4,0,0,1,.463.442,23.139,23.139,0,0,1,.208,5.083,1.262,1.262,0,0,1-1.287,1.149,32.733,32.733,0,0,1-4.9-.111,1.787,1.787,0,0,1-.634-.828,43.337,43.337,0,0,1,.008-4.938,1.272,1.272,0,0,1,1.163-.925m4.121.119a41.491,41.491,0,0,0-4.419,0c-.23,0-.8.724-.8.939v4.349h4.21c.6,0,.924-.812.991-1.305a27.6,27.6,0,0,0,.018-3.983" transform="translate(-175.721 -557.449)" fill="#d0d0d6"/>
          <path id="Path_879777" data-name="Path 879777" d="M413.744,929.579a3.819,3.819,0,0,0,.282.57c.16.2,1.032,1.029,1.037,1.1a4.284,4.284,0,0,1-1.377,2.425,3.786,3.786,0,0,1-3,.877c1.021-.325,2.643-1.977,2.643-3.063V929.37c.07-.05.4.191.418.209" transform="translate(-382.079 -864.634)" fill="#6b5c6b"/>
          <path id="Path_879778" data-name="Path 879778" d="M488.343,734.4a2.622,2.622,0,0,0,.348,0,18.383,18.383,0,0,0-1.83-.918,8.382,8.382,0,0,1,1.727-15.017c-.22-.125-.653,0-.871.069a8.374,8.374,0,1,1,.626,15.866m2.141-13.763c-.961.126-.782.921-1.066,1.3-.122.164-.922.516-1.272.955a2.728,2.728,0,0,0,1.275,4.407c.514.2,2.455.315,1.847,1.081-.921,1.16-1.694-1.588-3.135-.422-.718.581-.4,1.466.1,2.054.3.347,1.009.633,1.145.8.395.5.19,1.394,1.434,1.287,1-.086.834-.885,1.146-1.29.069-.09.789-.451,1.007-.663a2.77,2.77,0,0,0-.922-4.643c-.461-.188-2.711-.4-1.97-1.172.963-1,1.957,1.772,3.244.391.813-.873-.011-1.8-.67-2.4-.165-.149-.659-.3-.724-.39-.327-.459-.2-1.468-1.443-1.305" transform="translate(-449.302 -667.994)" fill="#fec238"/>
          <path id="Path_879779" data-name="Path 879779" d="M479.723,724.015c.217-.065.651-.194.871-.069a8.382,8.382,0,0,0-1.727,15.017,18.4,18.4,0,0,1,1.83.918,2.643,2.643,0,0,1-.348,0c-1.959-.1-4.55-2.818-5.312-4.534-1.86-4.189.144-9.982,4.686-11.332" transform="translate(-441.308 -673.475)" fill="#f4b331"/>
          <path id="Path_879780" data-name="Path 879780" d="M302.459,308.883l32.13-.024a1.172,1.172,0,1,1,.419,2.3l-32.85,0a1.148,1.148,0,0,1,.3-2.276" transform="translate(-280.202 -287.34)" fill="#a69aa6"/>
          <path id="Path_879781" data-name="Path 879781" d="M321.905,723.639v12.7c0,.363-.571,1.079-.939,1.079h-4.21V724.439a1.879,1.879,0,0,1,.8-.8Z" transform="translate(-294.694 -673.238)" fill="#ebeef0"/>
          <path id="Path_879782" data-name="Path 879782" d="M71.128,723.639v4.349a1.633,1.633,0,0,1-.939.939H66.083a.7.7,0,0,1-.1-.1v-4.384a1.933,1.933,0,0,1,.8-.8Z" transform="translate(-61.384 -673.238)" fill="#ebeef0"/>
          <path id="Path_879783" data-name="Path 879783" d="M71.128,845.533v4.349a1.633,1.633,0,0,1-.939.94H66.083a.7.7,0,0,1-.1-.1v-4.384a1.933,1.933,0,0,1,.8-.8Z" transform="translate(-61.384 -786.643)" fill="#ebeef0"/>
          <path id="Path_879784" data-name="Path 879784" d="M196.017,845.533v4.28c0,.354-.543,1.009-.87,1.009h-4.28v-4.349c0-.266.593-.939.87-.939Z" transform="translate(-177.574 -786.643)" fill="#ebeef0"/>
          <path id="Path_879785" data-name="Path 879785" d="M196.087,722.712a25.442,25.442,0,0,1-.1,4.387c-.091.331-.485.9-.838.9h-4.28v-4.349c0-.215.57-.939.8-.939a41.491,41.491,0,0,1,4.419,0" transform="translate(-177.574 -672.311)" fill="#ebeef0"/>
          <path id="Path_879786" data-name="Path 879786" d="M71.128,601.746V606.1a1.633,1.633,0,0,1-.939.94H66.083a.7.7,0,0,1-.1-.1v-4.384a1.933,1.933,0,0,1,.8-.8Z" transform="translate(-61.384 -559.835)" fill="#ebeef0"/>
          <path id="Path_879787" data-name="Path 879787" d="M321.905,601.746v4.141c0,.4-.541,1.148-.939,1.148h-4.21v-4.558a2.316,2.316,0,0,1,.8-.731Z" transform="translate(-294.694 -559.835)" fill="#ebeef0"/>
          <path id="Path_879788" data-name="Path 879788" d="M196.087,600.819a27.6,27.6,0,0,1-.018,3.983c-.067.493-.39,1.305-.991,1.305h-4.21v-4.349c0-.215.57-.939.8-.939a41.491,41.491,0,0,1,4.419,0" transform="translate(-177.574 -558.908)" fill="#ebeef0"/>
          <path id="Path_879789" data-name="Path 879789" d="M551.024,755.6c1.244-.163,1.116.846,1.443,1.305.065.091.558.24.724.39.658.6,1.483,1.525.67,2.4-1.287,1.381-2.281-1.393-3.244-.391-.741.77,1.509.984,1.97,1.172a2.77,2.77,0,0,1,.922,4.643c-.218.212-.938.573-1.007.663-.312.4-.147,1.2-1.146,1.29-1.244.107-1.039-.79-1.434-1.287-.136-.171-.844-.457-1.145-.8-.509-.588-.823-1.473-.1-2.055,1.441-1.167,2.215,1.582,3.135.422.608-.766-1.333-.884-1.847-1.081a2.728,2.728,0,0,1-1.275-4.407c.35-.438,1.15-.791,1.272-.955.285-.383.105-1.178,1.066-1.3" transform="translate(-509.842 -702.958)" fill="#fee077"/>
        </g>
      </g>
    </g>
    <rect id="Rectangle_404724" data-name="Rectangle 404724" width="190" height="145" transform="translate(285 3401)" fill="none"/>
  </g>
</svg>
