<svg xmlns="http://www.w3.org/2000/svg" xmlns:xlink="http://www.w3.org/1999/xlink" width="183.614" height="183.614" viewBox="0 0 183.614 183.614">
  <defs>
    <clipPath id="clip-path">
      <rect id="Rectangle_404168" data-name="Rectangle 404168" width="73.608" height="73.592" fill="#225a78"/>
    </clipPath>
  </defs>
  <g id="banner-principal-decorativo-2" transform="translate(-1163.993 -377.595)">
    <path id="Path_875561" data-name="Path 875561" d="M0,0H181.614V181.614H0Z" transform="translate(1164.993 378.595)" fill="none" stroke="#225a78" stroke-linecap="round" stroke-width="2"/>
    <rect id="Rectangle_403592" data-name="Rectangle 403592" width="111" height="111" transform="translate(1195.5 416)" fill="#88c0de"/>
    <g id="Group_1101524" data-name="Group 1101524" transform="translate(1214.196 434.704)">
      <g id="Group_1101523" data-name="Group 1101523" clip-path="url(#clip-path)">
        <path id="Path_876149" data-name="Path 876149" d="M5.6,62.781A7.254,7.254,0,0,1,.009,56.616L0,6.544A6.923,6.923,0,0,1,6.731,0L45.8.012c5.391.611,6.94,5.409,6.337,10.219a5.4,5.4,0,0,0-3.39,2.014c-.239.273-.636,1.141-.875,1.2-.416.1-2.458-.816-3.3-.16-.073-1.877.589-3.337-1.8-3.6L9.385,9.671a1.876,1.876,0,0,0-1.709.946,48.348,48.348,0,0,0-.087,6.937c.064.541.2.944.751,1.146l31.935.076c.329.077.286,1.192.407,1.529.57,1.6,1.8,2.523,2.94,3.694-.727.083-2.057,2.335-2.216,2.374-1.412.34-5.487-.486-6.5.283-.831.629-.831,3.729,0,4.359,1.046.792,5.107-.108,6.506.322a3.714,3.714,0,0,1,1.054,1.351,39.465,39.465,0,0,1-3.772,4.394c-2.049.863-4.946-1.529-4.358,3.417a7.879,7.879,0,0,0,.685,1.621c-.15.574-2.059,3.18-2.527,4.123a17.307,17.307,0,0,0-1.763,5.16l-.421-2.516a1.731,1.731,0,0,0-1.04-.857A40.207,40.207,0,0,0,23.06,48c-2.035.321-1.944,4.524-.305,5.025a40.446,40.446,0,0,0,6.352.074c.592-.094.793-.467,1.242-.748a22.864,22.864,0,0,0,1.14,10.43ZM9.813,26.409c-1.247.365-1.317,4.223-.086,4.749a41.142,41.142,0,0,0,6.688.146c1.6-.19,1.6-2.221,1.407-3.5a1.508,1.508,0,0,0-1.591-1.443,47.554,47.554,0,0,0-6.417.048m12.706,0c-1.247.365-1.317,4.223-.086,4.749a41.16,41.16,0,0,0,6.689.147c1.618-.189,1.57-2.007,1.418-3.323-.131-1.129-.464-1.518-1.6-1.621a47.522,47.522,0,0,0-6.418.048M10,37.219A1.455,1.455,0,0,0,8.916,38.6c-.191,1.646-.215,3.474,1.806,3.7a34.6,34.6,0,0,0,5.314,0c1.853-.223,1.969-1.743,1.8-3.324-.126-1.164-.414-1.7-1.6-1.81A39.58,39.58,0,0,0,10,37.219m20.1.394a1.864,1.864,0,0,0-.979-.442,43.939,43.939,0,0,0-6.56.093c-1.19.373-1.148,2.941-.853,3.908a1.836,1.836,0,0,0,1.544,1.111,29.81,29.81,0,0,0,6.254-.159c1.353-.528,1.333-3.636.594-4.51M10.193,48.029c-1.792.4-2.009,4.81.335,5.085a37.6,37.6,0,0,0,5.7,0c1.719-.2,1.79-2.1,1.59-3.5a1.71,1.71,0,0,0-1.775-1.638,36.706,36.706,0,0,0-5.848.049" fill="#225a78"/>
        <path id="Path_876150" data-name="Path 876150" d="M234.912,66.05a3.256,3.256,0,0,1,3.436,1.4c.273.469.289,1.032.6,1.491,1.09,1.633,2.642-.19,4.057-.089a4.083,4.083,0,0,1,2.394,1.413c1.8,2.744-1.174,4.706-2.85,6.446l-13.552.094c-2.449-1.46-5.807-5.835-1.746-7.616,2.118-.929,2.927.8,4.357.375,1.158-.344.943-3.119,3.308-3.518" transform="translate(-182.613 -53.478)" fill="#225a78"/>
        <path id="Path_876151" data-name="Path 876151" d="M230.668,134.143a92.717,92.717,0,0,1,14.129,0c3.533.592,3.656,5.745-.548,6.19a92.527,92.527,0,0,1-12.879.03c-4.686-.369-4.513-5.669-.7-6.216" transform="translate(-184.623 -108.483)" fill="#225a78"/>
        <path id="Path_876152" data-name="Path 876152" d="M183.088,179.262c5.72.276,11.491.169,17.221.052,6.923,8.133,16.066,17.93,9.958,29.306-7.322,13.639-29.944,13.672-37.151-.027-6.087-11.57,3.025-21.031,9.971-29.331m14.326,14.7c1.338-1.258-1.044-3.792-2.167-4.468-.432-.26-2.183-.871-2.25-.974-.362-.552.387-2.081-1.147-2.279-2.02-.261-1.4,2.2-1.613,2.443-.042.049-.938.224-1.248.364-4.327,1.949-4.738,7.45-.251,9.42,1.866.819,5.306.7,6.449,2.465,1.977,3.05-3.623,4.6-6.06,3.026-1.465-.944-1.353-3.46-3.288-2.89-.863.254-.771,1.358-.619,2.057.368,1.7,2.444,3.222,3.982,3.791.3.11,1.009.148,1.046.186.158.162-.408,2.91,1.767,2.42,1.367-.308.614-1.987,1.08-2.337.172-.129,1.566-.423,2.03-.625a4.646,4.646,0,0,0,2.751-6.232,5.919,5.919,0,0,0-4.167-3.419c-1.434-.429-5.038-.556-5.338-2.436-.54-3.373,4.069-4.2,6.1-2.171.452.452.791,1.573,1.288,1.8a1.966,1.966,0,0,0,1.656-.141" transform="translate(-138.666 -145.266)" fill="#225a78"/>
      </g>
    </g>
  </g>
</svg>
