<svg xmlns="http://www.w3.org/2000/svg" xmlns:xlink="http://www.w3.org/1999/xlink" width="190" height="143.915" viewBox="0 0 190 143.915">
  <defs>
    <clipPath id="clip-path">
      <rect id="Rectangle_405168" data-name="Rectangle 405168" width="66.322" height="65.57" fill="none"/>
    </clipPath>
  </defs>
  <g id="img15" transform="translate(-179.711 -5298)">
    <rect id="Rectangle_404625" data-name="Rectangle 404625" width="190" height="143" transform="translate(179.711 5298)" fill="none"/>
    <g id="Group_1102322" data-name="Group 1102322" transform="translate(-529.117 828.162)">
      <g id="Group_1101015" data-name="Group 1101015" transform="translate(727.664 4469.839)">
        <g id="Group_1101010" data-name="Group 1101010" transform="translate(51.463)">
          <path id="Path_875656" data-name="Path 875656" d="M230.226,10.626l-88.378,88.38v3.071h3.07L233.3,13.7V10.626Z" transform="translate(-141.847 -10.626)" fill="#225a78"/>
          <path id="Path_875657" data-name="Path 875657" d="M216.686,10.626l-74.838,74.84v6.142l80.98-80.981Z" transform="translate(-141.847 -10.626)" fill="#225a78"/>
          <path id="Path_875658" data-name="Path 875658" d="M203.146,10.626l-61.3,61.3v6.141l67.44-67.441Z" transform="translate(-141.847 -10.626)" fill="#225a78"/>
          <path id="Path_875659" data-name="Path 875659" d="M189.606,10.626l-47.759,47.76v6.141l53.9-53.9Z" transform="translate(-141.847 -10.626)" fill="#225a78"/>
          <path id="Path_875660" data-name="Path 875660" d="M176.066,10.626l-34.219,34.22v6.141l40.361-40.361Z" transform="translate(-141.847 -10.626)" fill="#225a78"/>
          <path id="Path_875661" data-name="Path 875661" d="M162.526,10.626,141.847,31.305v6.142l26.821-26.821Z" transform="translate(-141.847 -10.626)" fill="#225a78"/>
          <path id="Path_875662" data-name="Path 875662" d="M148.986,10.626l-7.139,7.14v6.142l13.281-13.281Z" transform="translate(-141.847 -10.626)" fill="#225a78"/>
          <path id="Path_875663" data-name="Path 875663" d="M268.109,150.169h6.141l7.139-7.14v-6.141Z" transform="translate(-189.94 -58.718)" fill="#225a78"/>
          <path id="Path_875664" data-name="Path 875664" d="M246.238,141.838h6.141l20.679-20.68v-6.141Z" transform="translate(-181.608 -50.387)" fill="#225a78"/>
          <path id="Path_875665" data-name="Path 875665" d="M224.368,133.508h6.141l34.219-34.22V93.147Z" transform="translate(-173.278 -42.057)" fill="#225a78"/>
          <path id="Path_875666" data-name="Path 875666" d="M202.5,125.178h6.141L256.4,77.418V71.277Z" transform="translate(-164.949 -33.727)" fill="#225a78"/>
          <path id="Path_875667" data-name="Path 875667" d="M180.628,116.848h6.141l61.3-61.3V49.407Z" transform="translate(-156.617 -25.397)" fill="#225a78"/>
          <path id="Path_875668" data-name="Path 875668" d="M158.757,108.517H164.9l74.838-74.84V27.536Z" transform="translate(-148.288 -17.067)" fill="#225a78"/>
        </g>
        <rect id="Rectangle_403642" data-name="Rectangle 403642" width="67.025" height="67.025" transform="translate(0 75.889)" fill="none" stroke="#225a78" stroke-linecap="round" stroke-linejoin="round" stroke-width="2"/>
        <rect id="Rectangle_403641" data-name="Rectangle 403641" width="119.484" height="119.408" transform="translate(13.395 10.073)" fill="#b0d5e9"/>
      </g>
      <g id="Group_1102935" data-name="Group 1102935" transform="translate(766.914 4509.141)">
        <g id="Group_1102935-2" data-name="Group 1102935" clip-path="url(#clip-path)">
          <path id="Path_879615" data-name="Path 879615" d="M16.52,0h0A4.418,4.418,0,0,0,12.1,4.418V9.95h8.836V4.418A4.418,4.418,0,0,0,16.52,0" transform="translate(-8.652)" fill="#c4c5f6"/>
          <path id="Path_879616" data-name="Path 879616" d="M58,73.825H8.32A8.32,8.32,0,0,1,0,65.505V31.583a8.32,8.32,0,0,1,8.32-8.32H58a8.32,8.32,0,0,1,8.32,8.32V65.505A8.32,8.32,0,0,1,58,73.825" transform="translate(0 -16.632)" fill="#332f4c"/>
          <path id="Path_879617" data-name="Path 879617" d="M31.257,169.751c.378.008.758-.006,1.136,0,.189,0,.379,0,.568,0,.095,0,.189,0,.284,0H62.781c-.039,1.887,0,3.794,0,5.681,0,.944-.007,1.9,0,2.84-.878-.257-1.871.235-2.556.284-4.426.318-9.687.034-14.2,0-3.979-.029-8.2.028-12.212,0l-3.13-2.124a8.9,8.9,0,0,1-2.55-6.681c1.008.076,2.1-.021,3.124,0m20.8,5.606c1.062,1.011,3.379-.006,2.932-1.64-.85-3.112-5.018-.344-2.932,1.64" transform="translate(-20.107 -121.363)" fill="#5c5d8a"/>
          <path id="Path_879618" data-name="Path 879618" d="M96.156,207.626c.473,2.8.662,3.608,2.84,5.4.278.229.5.654.852.852q-10.927.009-21.867,0L80.2,211.7a12.252,12.252,0,0,0,1.467-4.071Z" transform="translate(-55.753 -148.445)" fill="#5c5d8a"/>
          <path id="Path_879619" data-name="Path 879619" d="M105.094,200.65a5.732,5.732,0,0,0,.284,1.988H90.894c.079-.62-.055-1.348,0-1.988,4.513.033,9.774.318,14.2,0" transform="translate(-64.976 -143.457)" fill="#332f4c"/>
          <path id="Path_879620" data-name="Path 879620" d="M56.116,54.375H86.951a1.7,1.7,0,0,1,1.069,1.487c.479,3.662-.271,8.587-.155,12.372l-1.124.58L55.831,68.74l-1.047-1.225c.236-3.571-.341-7.57-.021-11.084.093-1.025.219-1.763,1.352-2.056M70.965,67.664c.748.056,1.524-.039,2.273,0-.2-1.524.368-11.089-.267-11.523a5.067,5.067,0,0,0-2.007-.124c-.991.076-1.285-.224-1.434.981a71.817,71.817,0,0,0,.013,9.956c.177.921.7.655,1.421.709M57.617,59.71c-.428.073-.97-.054-1.422,0,.195,1.218-.369,7.356.274,7.831.3.219.8.1,1.148.124.665.052,2.293.214,2.516-.466a53.169,53.169,0,0,0,.053-6.791c-.2-1.7-1.584-.865-2.57-.7m19.88,0c-.428.073-.97-.054-1.421,0,.195,1.218-.369,7.356.274,7.831.3.219.8.1,1.148.124.665.052,2.293.214,2.516-.466a53.166,53.166,0,0,0,.054-6.791c-.2-1.7-1.584-.865-2.57-.7M64.149,63.119c-.377.022-.761-.021-1.137,0v4.548c.472.006.948-.008,1.422,0,.563.007,1.848.16,2.148-.266l.125-4.28c-.846.037-1.713-.049-2.558,0m20.164.568c-.472.022-.951-.019-1.422,0l0,3.977c.391.16.956-.289,1.135-.283.553.02,1.529.661,2.291.159.568-.395.131-3.048.267-3.853-.753.026-1.521-.034-2.273,0" transform="translate(-39.083 -38.875)" fill="#c4c5f6"/>
          <path id="Path_879621" data-name="Path 879621" d="M194.613,68.182c-2.536-.1-5.127,0-7.668,0-.473,0-.947,0-1.42,0-.089-10.692.12-21.406,0-32.1,3.2.24,7.723-1.164,9.023,2.763Z" transform="translate(-132.626 -25.759)" fill="#65b8fd"/>
          <path id="Path_879622" data-name="Path 879622" d="M32.288,36.225c.127,12.68-.095,25.381,0,38.062-.379-.006-.758.008-1.136,0-1.612-.985-2.617-1.832-2.841-3.834-1.058-9.435.8-20.77-.013-30.408a4.68,4.68,0,0,1,2.854-3.82Z" transform="translate(-20.002 -25.899)" fill="#65b8fd"/>
          <path id="Path_879623" data-name="Path 879623" d="M55.516,40.211H87.892c.534,0,.534,1.42,0,1.42H55.516c-.434,0-.659-1.166,0-1.42" transform="translate(-39.396 -28.749)" fill="#c4c5f6"/>
          <path id="Path_879624" data-name="Path 879624" d="M63.533,131.288a4.666,4.666,0,0,1-.568-3.125c.3.345,1.061.935,1.505.823a27.74,27.74,0,0,0,2.625-2.514c.276-.362.868-1.313-.016-1.154-1.517.274-2.19,3.735-4.115,1.425.21-.31-.324-3.171.568-3.977,1.044-.04,4.918-.244,5.423.4.376.477.42,6.932.116,7.556-.431.886-4.433.608-5.539.567" transform="translate(-44.999 -87.729)" fill="#65b8fd"/>
          <path id="Path_879625" data-name="Path 879625" d="M105.383,16.048a6.1,6.1,0,0,1-1.547.295c-8.048.44-16.5-.371-24.581-.011-.093,0-.193-.013-.284,0l.284-1.136c8.606-.076,17.28-.053,25.862.133.261.185.238.445.266.719" transform="translate(-56.461 -10.835)" fill="#fab640"/>
          <path id="Path_879626" data-name="Path 879626" d="M91.851,126.051c-.115-.33.125-1.136.426-1.136h21.584l.423.429c.028,1.437-.64.707-.991.707Z" transform="translate(-65.649 -89.309)" fill="#c4c5f6"/>
          <path id="Path_879627" data-name="Path 879627" d="M57.719,122.847c-.892.806-.358,3.667-.568,3.977-.056.083-1.336-.132,0,1.42a4.666,4.666,0,0,0,.568,3.124c-.867-.032-2.462.326-2.783-.767a47.362,47.362,0,0,1,0-6.987c.319-1.09,1.891-.734,2.783-.767" transform="translate(-39.185 -87.81)" fill="#4181fe"/>
          <path id="Path_879628" data-name="Path 879628" d="M108.621,136.557H91.865c-.109-.916.143-1.054.979-1.151,4.641-.537,10.309.429,15.067.015.7.127.787.454.71,1.136" transform="translate(-65.663 -96.691)" fill="#c4c5f6"/>
          <path id="Path_879629" data-name="Path 879629" d="M106.1,18.288c.025.23.088.484-.166.6a4.318,4.318,0,0,1-1.383.269c-7.468.626-17.058-.018-24.579-.3v-.284c8.081-.361,16.533.451,24.581.011a6.1,6.1,0,0,0,1.547-.295" transform="translate(-57.174 -13.075)" fill="#f8b646"/>
          <path id="Path_879630" data-name="Path 879630" d="M104.14,147.974H91.5c-.489,0-.49-1.136,0-1.136h12.212c.3,0,.541.806.426,1.136" transform="translate(-65.158 -104.983)" fill="#c4c5f6"/>
          <rect id="Rectangle_405167" data-name="Rectangle 405167" width="7.1" height="1.42" transform="translate(28.758 8.053)" fill="#e44369"/>
          <path id="Path_879631" data-name="Path 879631" d="M70.289,29.489l-.284-1.136c1.851-.022,4.088-.528,6.12-.3,1.3.147,1.374,1.233.269,1.433a43.953,43.953,0,0,1-6.1,0" transform="translate(-50.051 -20.015)" fill="#65b8fd"/>
          <path id="Path_879632" data-name="Path 879632" d="M61.994,14.99l-.284,1.136a.423.423,0,0,0-.284.284c-1.28-.055-5.637.263-6.365-.266-.513-.372-.108-1.036.543-1.155,1.563-.284,4.611.016,6.39,0" transform="translate(-39.2 -10.629)" fill="#f99935"/>
          <path id="Path_879633" data-name="Path 879633" d="M58.865,28.541l.284,1.136c-.744-.011-4.279.125-4.543-.288-1.2-1.884,3.926-.844,4.259-.848" transform="translate(-38.911 -20.204)" fill="#4181fe"/>
          <path id="Path_879634" data-name="Path 879634" d="M78.543,19.271v.284c-.189-.007-.379.008-.568,0a.423.423,0,0,1,.284-.284c.091-.013.19,0,.284,0" transform="translate(-55.749 -13.774)" fill="#fe921d"/>
          <path id="Path_879635" data-name="Path 879635" d="M149,169.045h-.284l.284-.284c0,.095,0,.19,0,.284" transform="translate(-106.327 -120.658)" fill="#c4c5f6"/>
          <path id="Path_879636" data-name="Path 879636" d="M45.38,169.059c-.095,0-.189,0-.284,0l.142-.278Z" transform="translate(-32.242 -120.672)" fill="#c4c5f6"/>
          <path id="Path_879637" data-name="Path 879637" d="M18.876,36.217c.568-.007,1.136,0,1.7,0a4.681,4.681,0,0,0-2.854,3.82c.818,9.638-1.044,20.973.014,30.408.224,2,1.229,2.849,2.841,3.834-1.024-.021-2.116.076-3.124,0-2.267-.172-3.57-1.019-4.242-3.285l-.025-31.233c.831-3.407,2.665-3.5,5.687-3.544" transform="translate(-9.43 -25.891)" fill="#3e7dfa"/>
          <path id="Path_879638" data-name="Path 879638" d="M110.657,181.8c-2.086-1.984,2.082-4.753,2.932-1.64.446,1.634-1.87,2.651-2.932,1.64" transform="translate(-78.702 -127.807)" fill="#dcdcfd"/>
          <path id="Path_879639" data-name="Path 879639" d="M111.852,60.05a5.062,5.062,0,0,1,2.007.124c.635.434.067,10,.267,11.523-.75-.04-1.526.055-2.273,0Z" transform="translate(-79.97 -42.907)" fill="#47cb6b"/>
          <path id="Path_879640" data-name="Path 879640" d="M65.023,80.163V72.21c.986-.169,2.374-1,2.57.7a53.22,53.22,0,0,1-.054,6.791c-.223.679-1.851.518-2.516.466" transform="translate(-46.489 -51.375)" fill="#e44369"/>
          <path id="Path_879641" data-name="Path 879641" d="M134.768,80.163V72.21c.986-.169,2.374-1,2.57.7a53.221,53.221,0,0,1-.054,6.791c-.223.679-1.851.518-2.516.466" transform="translate(-96.354 -51.375)" fill="#f8b646"/>
          <path id="Path_879642" data-name="Path 879642" d="M107.837,60.142V71.788c-.72-.054-1.244.212-1.421-.709a71.818,71.818,0,0,1-.013-9.956c.149-1.2.444-.9,1.434-.98" transform="translate(-75.955 -42.999)" fill="#189e60"/>
          <path id="Path_879643" data-name="Path 879643" d="M87.889,85.013c.844-.051,1.712.036,2.557,0l-.125,4.28c-.3.426-1.586.273-2.149.266-.491-1.461-.224-3.029-.284-4.545" transform="translate(-62.823 -60.769)" fill="#65b8fd"/>
          <path id="Path_879644" data-name="Path 879644" d="M61.346,73.059v7.953c-.349-.027-.852.095-1.148-.124-.642-.475-.079-6.613-.274-7.831.452-.053.994.075,1.422,0" transform="translate(-42.812 -52.224)" fill="#cc2e59"/>
          <path id="Path_879645" data-name="Path 879645" d="M131.091,73.059v7.953c-.349-.027-.852.095-1.148-.124-.642-.475-.079-6.613-.274-7.831.452-.053.994.075,1.422,0" transform="translate(-92.677 -52.224)" fill="#f99935"/>
          <path id="Path_879646" data-name="Path 879646" d="M157.893,87.019c.753-.036,1.52.024,2.273,0-.136.806.3,3.459-.267,3.853-.762.5-1.738-.139-2.291-.159.092-1.217-.265-2.574.284-3.693" transform="translate(-112.662 -62.207)" fill="#e44369"/>
          <path id="Path_879647" data-name="Path 879647" d="M85.086,85.037c.06,1.516-.207,3.084.284,4.545-.473-.006-.949.008-1.421,0V85.036c.376-.019.76.024,1.137,0" transform="translate(-60.02 -60.794)" fill="#3e7dfa"/>
          <path id="Path_879648" data-name="Path 879648" d="M155.115,87.032c-.549,1.118-.192,2.476-.284,3.693-.178-.007-.744.443-1.135.283l0-3.977c.471-.018.95.024,1.422,0" transform="translate(-109.885 -62.22)" fill="#cc2e59"/>
          <path id="Path_879649" data-name="Path 879649" d="M61.509,133.254c1.925,2.311,2.6-1.151,4.115-1.425.884-.16.291.792.016,1.154a27.747,27.747,0,0,1-2.625,2.515c-.444.112-1.208-.478-1.505-.823-1.336-1.552-.056-1.338,0-1.42" transform="translate(-43.543 -94.24)" fill="#dcdcfd"/>
          <path id="Path_879650" data-name="Path 879650" d="M73.736,4.067A4.059,4.059,0,0,0,69.675,0H29.158V.022a4.418,4.418,0,0,1,3.449,2.3h.123a4.49,4.49,0,0,1,.358,1.491,4.433,4.433,0,0,1,.046.6V6.348c.011.378-.009.758,0,1.136.014.66,0,1.324,0,1.986v.478h0c0,.125,0,.251,0,.376.127,12.68-.095,25.381,0,38.062.189,0,.379,0,.568,0l.142-.278.142.278H63.237l.284-.284c.036-1.446-.311-3.316.44-4.531.98-1.585,2.232-1.107,3.82-1.15,1.98-.054,3.982.017,5.964,0-.07-8.333-.03-29.444-.009-38.355m-4.393,8.814H36.967c-.433,0-.658-1.166,0-1.42H69.343c.535,0,.535,1.42,0,1.42M49.6,8.052h7.1v1.42H49.6ZM37.251,4.36c1.563-.284,4.611.016,6.39,0,7.888-.07,15.83-.05,23.71.1V6.139c-7.333.511-16.476-.091-23.71-.359-.189-.007-.379.008-.568,0-1.28-.054-5.637.263-6.365-.265-.513-.372-.108-1.036.543-1.155M40.8,8.336c1.851-.022,4.088-.528,6.12-.3,1.3.147,1.374,1.233.269,1.433a43.909,43.909,0,0,1-6.1,0c-.744-.011-4.279.125-4.543-.288C35.34,7.3,40.468,8.34,40.8,8.336M44.92,42.991c-.431.886-4.433.608-5.539.567-.867-.032-2.462.326-2.783-.767a47.319,47.319,0,0,1,0-6.987c.319-1.09,1.891-.734,2.783-.767,1.044-.04,4.917-.244,5.423.4.375.477.42,6.932.116,7.556m14.909,0H47.191c-.489,0-.49-1.136,0-1.136H59.4c.3,0,.541.806.426,1.136m3.976-3.125H47.049c-.108-.916.143-1.054.98-1.151,4.641-.537,10.309.429,15.067.015.7.127.787.454.71,1.136m4.686-3.124H47.049c-.115-.33.125-1.136.426-1.136H69.059l.423.429c.028,1.437-.64.707-.991.707m1.137-7.384-1.124.58-30.909-.073-1.047-1.226c.236-3.571-.341-7.57-.021-11.083.093-1.026.219-1.763,1.352-2.056H68.715a1.7,1.7,0,0,1,1.069,1.487c.479,3.662-.271,8.587-.155,12.372" transform="translate(-20.847 0.001)" fill="#dcdcfd"/>
          <path id="Path_879651" data-name="Path 879651" d="M148.646,148.832h8.863v11.574H145.8v-8.723a2.85,2.85,0,0,1,2.85-2.85" transform="translate(-104.239 -106.409)" fill="#e44369"/>
          <path id="Path_879652" data-name="Path 879652" d="M145.8,189.436h11.713V201.01h-8.863a2.85,2.85,0,0,1-2.85-2.85Z" transform="translate(-104.239 -135.439)" fill="#47cb6b"/>
          <path id="Path_879653" data-name="Path 879653" d="M186.889,148.832h8.863a2.85,2.85,0,0,1,2.85,2.85v8.723H186.889Z" transform="translate(-133.618 -106.409)" fill="#fab640"/>
          <path id="Path_879654" data-name="Path 879654" d="M186.889,189.436H198.6v8.723a2.85,2.85,0,0,1-2.85,2.85h-8.863Z" transform="translate(-133.618 -135.439)" fill="#65b8fd"/>
          <path id="Path_879655" data-name="Path 879655" d="M150.723,148.831h-2.077a2.85,2.85,0,0,0-2.85,2.85V160.4h2.077v-8.723a2.85,2.85,0,0,1,2.85-2.85" transform="translate(-104.239 -106.408)" fill="#cc2e59"/>
          <path id="Path_879656" data-name="Path 879656" d="M147.873,198.159v-8.723H145.8v8.723a2.85,2.85,0,0,0,2.85,2.85h2.077a2.85,2.85,0,0,1-2.85-2.85" transform="translate(-104.239 -135.439)" fill="#1ea064"/>
          <path id="Path_879657" data-name="Path 879657" d="M206.173,205.251h0a.5.5,0,0,1-.5-.5v-4.941a.5.5,0,1,1,1.007,0v4.941a.5.5,0,0,1-.5.5" transform="translate(-147.046 -142.494)" fill="#dcdcfd"/>
          <path id="Path_879658" data-name="Path 879658" d="M202.949,208.475h0a.5.5,0,0,1-.5.5H197.5a.5.5,0,1,1,0-1.007h4.941a.5.5,0,0,1,.5.5" transform="translate(-140.848 -148.692)" fill="#dcdcfd"/>
          <path id="Path_879659" data-name="Path 879659" d="M162.015,159.558h0a.5.5,0,0,1,0,.712l-4.536,4.536a.5.5,0,0,1-.712-.712l4.536-4.536a.5.5,0,0,1,.712,0" transform="translate(-111.977 -113.972)" fill="#dcdcfd"/>
          <path id="Path_879660" data-name="Path 879660" d="M156.767,159.558h0a.5.5,0,0,0,0,.712l4.536,4.536a.5.5,0,1,0,.712-.712l-4.536-4.536a.5.5,0,0,0-.712,0" transform="translate(-111.977 -113.972)" fill="#dcdcfd"/>
          <path id="Path_879661" data-name="Path 879661" d="M155.908,208.475h0a.5.5,0,0,1,.5-.5h4.941a.5.5,0,1,1,0,1.007h-4.941a.5.5,0,0,1-.5-.5" transform="translate(-111.468 -148.692)" fill="#dcdcfd"/>
          <path id="Path_879662" data-name="Path 879662" d="M202.949,167.89h0a.5.5,0,0,1-.5.5H197.5a.5.5,0,1,1,0-1.007h4.941a.5.5,0,0,1,.5.5" transform="translate(-140.848 -119.675)" fill="#dcdcfd"/>
          <path id="Path_879663" data-name="Path 879663" d="M206.616,159.261a.543.543,0,1,1-.543-.543.543.543,0,0,1,.543.543" transform="translate(-146.946 -113.477)" fill="#dcdcfd"/>
          <path id="Path_879664" data-name="Path 879664" d="M206.616,176.28a.543.543,0,1,1-.543-.543.543.543,0,0,1,.543.543" transform="translate(-146.946 -125.645)" fill="#dcdcfd"/>
        </g>
      </g>
    </g>
  </g>
</svg>
