<svg xmlns="http://www.w3.org/2000/svg" xmlns:xlink="http://www.w3.org/1999/xlink" width="190" height="100.818" viewBox="0 0 190 100.818">
  <defs>
    <clipPath id="clip-path">
      <rect id="Rectangle_405046" data-name="Rectangle 405046" width="101.042" height="100.819" fill="none"/>
    </clipPath>
  </defs>
  <g id="img11" transform="translate(-285 -1829.235)">
    <rect id="Rectangle_404211" data-name="Rectangle 404211" width="190" height="64" transform="translate(285 1847)" fill="none"/>
    <g id="Group_1102751" data-name="Group 1102751" transform="translate(329.132 1829.235)">
      <g id="Group_1102751-2" data-name="Group 1102751" clip-path="url(#clip-path)">
        <path id="Path_878971" data-name="Path 878971" d="M102.405,62.563H15.53c1.3-18.938-1.726-40.2-.021-58.871C15.725,1.332,16.658.04,19.2,0l81.055.215a3.352,3.352,0,0,1,2.159,3.054Zm-6.95-50.381c-.022-1.731.016-3.481,0-5.212H22.48V55.614c2.311.013,4.64-.018,6.95,0,11.572.089,23.177.013,34.75,0,10.419-.012,20.859.007,31.277,0-.139-14.468.179-28.968,0-43.435" transform="translate(-8.446)" fill="#2488fd"/>
        <path id="Path_878972" data-name="Path 878972" d="M94.132,143.531c1.341,6.25,6.209,14.808,6.95,20.847H81.969c-.037-3.212,1.481-11.956-3.475-9.989a2.617,2.617,0,0,0-1.737,1.3c.033-1.292-.091-2.624,0-3.909,6.629,2.66,6.819-4.649,1.172-2.951-1.443.434-1.094,1.856-1.172,2.951-1.078-.432-1.163-1.6-3.04-1.3-.877.139-1.632,1.088-2.172,1.737-.151-1.871-.624-3.792-3.041-3.474a10.873,10.873,0,0,0-2.172,1.3c-.633-1.908-4.633-1.842-5.164-.109-.384.555.392,1.339.386,1.412-.294,3.36-.4,6.149-.434,9.555-.577.025-1.163-.037-1.737,0-2.826.18-3.245.661-3.475,3.474H45.481c-.223-2.732-.655-3.366-3.475-3.474-.578-.022-1.159.015-1.737,0-.037-3.406-.14-6.2-.435-9.555-.006-.073.77-.857.386-1.412-.531-1.733-4.531-1.8-5.164.109a3.539,3.539,0,0,0-2.172-.868c-.132-.028-.288-.484-.962-.376-2.095.338-1.971,1.84-2.079,3.416-.54-.649-1.295-1.6-2.172-1.737-1.877-.3-1.963.87-3.04,1.3-.078-1.1.272-2.517-1.172-2.951-5.647-1.7-5.456,5.611,1.172,2.951.091,1.285-.033,2.617,0,3.909-.656-1.249-1.181-1.024-2.172-1.3-.342-.1-.494-.659-1.407-.381-2.54.772-1.6,7.92-1.633,10.37H.306c.741-6.04,5.609-14.6,6.95-20.847Zm-82.227,5.3a1.73,1.73,0,0,0-1.192,1.452c-.278,2.463,4.279,2.554,5.026,1.065.971-2.5-1.852-3.116-3.834-2.518m33.013,0a1.73,1.73,0,0,0-1.192,1.452c-.278,2.463,4.279,2.554,5.026,1.065.971-2.5-1.852-3.116-3.834-2.518m8.688,0a1.73,1.73,0,0,0-1.192,1.452c-.278,2.463,4.279,2.554,5.026,1.065.971-2.5-1.852-3.116-3.834-2.518m33.013,0a1.73,1.73,0,0,0-1.192,1.452c-.278,2.463,4.279,2.554,5.026,1.065.971-2.5-1.852-3.116-3.834-2.518m-76.45,6.949a1.73,1.73,0,0,0-1.192,1.452C8.7,159.7,13.254,159.789,14,158.3c.971-2.5-1.852-3.116-3.834-2.518m34.75,0a1.73,1.73,0,0,0-1.192,1.452c-.278,2.463,4.279,2.554,5.026,1.066.971-2.5-1.852-3.116-3.834-2.518m8.688,0a1.73,1.73,0,0,0-1.192,1.452c-.278,2.463,4.279,2.554,5.026,1.066.971-2.5-1.852-3.116-3.834-2.518m34.75,0a1.73,1.73,0,0,0-1.192,1.452c-.278,2.463,4.279,2.554,5.026,1.066.971-2.5-1.852-3.116-3.834-2.518" transform="translate(-0.173 -80.968)" fill="#a6a8ab"/>
        <path id="Path_878973" data-name="Path 878973" d="M61.821,157.354c.02.577-.029,1.161,0,1.737.124,2.444-.093,4.937,0,7.385h1.734c.265-2.936-.877-6.3,1.305-8.688.473.068,1.2.712,1.737.869.294,3.36.4,6.149.434,9.555.031,2.89-.025,5.8,0,8.688h1.516l.22-8.689c2.82.109,3.251.742,3.475,3.475a58.293,58.293,0,0,1,0,6.949,10.338,10.338,0,0,1-.334,3.36c-.822,2.448-4.215,3.517-3.139,7.067-5.783-.087-11.6.109-17.377,0,1.146-3.886-1.889-4.657-2.985-6.787-.75-1.457-.772-15.766-.5-18.194a2.561,2.561,0,0,1,1.312-2.381c.991.279,1.516.054,2.172,1.3.03,1.155-.026,2.322,0,3.477h1.734c.265-2.936-.878-6.3,1.305-8.688.877.139,1.632,1.088,2.172,1.737-.158,2.291.112,4.654,0,6.951h1.734c.626-.6-1.234-9.037,1.305-9.991a3.537,3.537,0,0,1,2.172.869" transform="translate(-26.938 -88.276)" fill="#feb7a3"/>
        <path id="Path_878974" data-name="Path 878974" d="M140.328,155.488c2.378,2.808.913,7,1.305,10.426h1.734c-.128-2.279.184-4.691,0-6.951.539-.649,1.295-1.6,2.172-1.737,2.183,2.388,1.04,5.752,1.305,8.688h1.734c.028-1.155-.027-2.322,0-3.477a2.619,2.619,0,0,1,1.737-1.3,1.542,1.542,0,0,1,1.545,1.28c.53,1.666.478,15.3.2,17.623-.376,3.169-4.807,4.215-3.485,8.46-5.782.111-11.594-.085-17.377,0,1.168-3.384-2.576-5.155-3.281-7.36a11.234,11.234,0,0,1-.192-3.066,60.294,60.294,0,0,1,0-6.949c.23-2.814.649-3.295,3.475-3.474l0,8.688h1.516c.43-.061.209-7.723.219-8.689.036-3.406.14-6.2.434-9.555.524-.147,1.289-.82,1.738-.869,2.182,2.387,1.04,5.752,1.305,8.688h1.734c.1-2.447-.128-4.942,0-7.386a11.416,11.416,0,0,1,0-1.737,10.872,10.872,0,0,1,2.172-1.3" transform="translate(-71.998 -87.713)" fill="#feb7a3"/>
        <path id="Path_878975" data-name="Path 878975" d="M206.768,191.359c.268,2.179.377,5.964-2.149,6.755-4,1.251-12.466-.53-16.963.194.09-2.293.026-4.652,0-6.949Z" transform="translate(-105.859 -107.949)" fill="#046eef"/>
        <path id="Path_878976" data-name="Path 878976" d="M19.246,191.359c-.026,2.3-.09,4.656,0,6.949-4.5-.724-12.968,1.057-16.963-.194-2.526-.791-2.417-4.576-2.149-6.755Z" transform="translate(0 -107.949)" fill="#046eef"/>
        <path id="Path_878977" data-name="Path 878977" d="M114.371,191.359a60.294,60.294,0,0,0,0,6.949H103.946a58.3,58.3,0,0,0,0-6.949Z" transform="translate(-58.638 -107.949)" fill="#036def"/>
        <path id="Path_878978" data-name="Path 878978" d="M180.592,178.062c.026,2.3.09,4.656,0,6.949a13.11,13.11,0,0,1-.194,3.5c-.637,2.045-4.549,3.4-3.28,6.927-.577.012-1.16-.014-1.739,0-1.322-4.245,3.109-5.291,3.484-8.46.275-2.32.328-15.957-.2-17.623a1.542,1.542,0,0,0-1.544-1.28c4.956-1.966,3.438,6.777,3.475,9.99" transform="translate(-98.796 -94.651)" fill="#fc967b"/>
        <path id="Path_878979" data-name="Path 878979" d="M47.006,167.851a2.562,2.562,0,0,0-1.312,2.381c-.272,2.427-.252,16.737.5,18.194,1.1,2.13,4.132,2.9,2.985,6.787-.58-.011-1.162.015-1.74,0,1.27-3.528-2.642-4.881-3.28-6.926a13.131,13.131,0,0,1-.194-3.5c-.09-2.293-.026-4.652,0-6.949.028-2.45-.907-9.6,1.633-10.37.913-.278,1.066.285,1.407.381" transform="translate(-24.719 -94.429)" fill="#fc967b"/>
        <path id="Path_878980" data-name="Path 878980" d="M39.146,64.634c-2.31-.018-4.64.013-6.95,0V15.99h72.975c.016,1.732-.021,3.481,0,5.212-.788,2.118-.874,4.411-1.428,6.607C101.73,35.791,97.658,42.643,92.574,49c-2.059-.031-11.92-.333-12.852.394a1.714,1.714,0,0,0-.632,1.538c.218,2.417,7.091,1.511,9.14,1.543l-3.475,3.475c-2.47.059-6.911-.873-5.213,3.04L73.9,61.16q0-18.883,0-37.784l-5.87,2.639-6-2.983-5.653,3.311-5.358-3.312L44.94,26.342l-5.792-2.966ZM88.974,21.263c-1.7.468-.833,2.588-1.376,3.433-.707,1.1-5.918,1.037-4.923,6.173.9,4.656,5.992,3.518,8.844,4.635,4.238,1.659-2.25,4.551-4.834,2.227-.836-.752-.632-2.507-2.169-2.651-2.651-.249-2.136,3.226-.815,4.765.935,1.088,3.664,1.825,3.9,2.185.563.873-.391,3.733,2.128,3.513,2.114-.184,1.183-2.643,1.741-3.512.707-1.1,5.918-1.037,4.923-6.173-.9-4.656-5.992-3.518-8.844-4.635C83.31,29.563,89.8,26.671,92.381,29c.836.753.632,2.507,2.169,2.651,2.783.261,2.057-3.517.639-5.024-1.082-1.15-2.826-1.156-3.49-1.723-.836-.714.165-4.433-2.726-3.637" transform="translate(-18.162 -9.02)" fill="#fee276"/>
        <path id="Path_878981" data-name="Path 878981" d="M48.139,73.745l0-41.258,5.792,2.966,6.076-3.311,5.358,3.312,5.653-3.311,6,2.983,5.87-2.639q.007,18.882,0,37.784v3.474c-11.574.013-23.178.089-34.75,0m6.3-33.008L53.33,42.669a2.677,2.677,0,0,0,1.107,1.543H66.166c.318,0,1.337-1.377,1.107-1.931a2.677,2.677,0,0,0-1.107-1.543Zm17.464.088a1.739,1.739,0,0,0-1.193,1.843c.22,2.447,8.358,2.488,6.764-1.065-.591-1.169-4.417-1.118-5.57-.778M54.438,47.686,53.33,49.618a2.677,2.677,0,0,0,1.107,1.543H66.166c.318,0,1.337-1.377,1.107-1.932a2.678,2.678,0,0,0-1.107-1.543Zm17.464.088a1.739,1.739,0,0,0-1.193,1.843c.22,2.447,8.358,2.487,6.764-1.065-.591-1.169-4.417-1.118-5.57-.778M54.438,54.635,53.33,56.567a2.677,2.677,0,0,0,1.107,1.543H66.166c.318,0,1.337-1.377,1.107-1.931a2.677,2.677,0,0,0-1.107-1.543Zm17.464.088a1.74,1.74,0,0,0-1.193,1.844c.22,2.447,8.358,2.487,6.764-1.065-.591-1.169-4.417-1.118-5.57-.778M54.438,61.585,53.33,63.128c-.23.555.789,1.931,1.107,1.931H66.166a2.677,2.677,0,0,0,1.107-1.543c.23-.555-.789-1.931-1.107-1.931Zm17.464.088a1.738,1.738,0,0,0-1.193,1.455c-.275,3.076,8.519,2.8,6.764-.676-.806-1.193-4.339-1.143-5.57-.778" transform="translate(-27.156 -18.132)" fill="#feb555"/>
        <path id="Path_878982" data-name="Path 878982" d="M159.138,27.947c.181,14.466-.137,28.967,0,43.435-10.419,0-20.859-.014-31.277,0V67.9l5.647-2.172a3.6,3.6,0,0,0,1.923.453c2.706,0,16.323.4,17.623-.235a1.733,1.733,0,0,0-.305-3.169c-2.025-.6-11.237-.155-14.029-.088l3.475-3.474c1.9.029,10.187.329,11.114-.394a1.715,1.715,0,0,0,.633-1.538c-.209-2.34-5.52-1.514-7.4-1.543,5.084-6.356,9.156-13.208,11.169-21.19.554-2.2.64-4.489,1.428-6.607" transform="translate(-72.129 -15.765)" fill="#fddc55"/>
        <path id="Path_878983" data-name="Path 878983" d="M71.045,155.978c-2.539.954-.679,9.394-1.305,9.991H68.006c.11-2.3-.16-4.66,0-6.951.109-1.576-.016-3.078,2.08-3.416.673-.109.83.348.961.375" transform="translate(-38.334 -87.768)" fill="#fd9378"/>
        <path id="Path_878984" data-name="Path 878984" d="M159.8,158.918c.182,2.261-.13,4.673,0,6.951h-1.733c-.392-3.43,1.073-7.617-1.305-10.426,2.417-.318,2.89,1.6,3.041,3.474" transform="translate(-88.432 -87.669)" fill="#fd9378"/>
        <path id="Path_878985" data-name="Path 878985" d="M49.378,158.309c-6.628,2.66-6.819-4.649-1.172-2.951,1.444.434,1.094,1.856,1.172,2.951" transform="translate(-24.919 -87.494)" fill="#929497"/>
        <path id="Path_878986" data-name="Path 878986" d="M175.7,158.309c.078-1.1-.272-2.517,1.172-2.951,5.647-1.7,5.457,5.611-1.172,2.951" transform="translate(-99.113 -87.494)" fill="#929497"/>
        <path id="Path_878987" data-name="Path 878987" d="M25.356,155.423c1.982-.6,4.805.016,3.834,2.518-.747,1.489-5.3,1.4-5.026-1.066a1.73,1.73,0,0,1,1.192-1.452" transform="translate(-13.625 -87.557)" fill="#929497"/>
        <path id="Path_878988" data-name="Path 878988" d="M101.093,155.423c1.982-.6,4.805.016,3.834,2.518-.747,1.489-5.3,1.4-5.026-1.066a1.73,1.73,0,0,1,1.192-1.452" transform="translate(-56.349 -87.557)" fill="#929497"/>
        <path id="Path_878989" data-name="Path 878989" d="M121.023,155.423c1.982-.6,4.805.016,3.834,2.518-.747,1.489-5.3,1.4-5.026-1.066a1.73,1.73,0,0,1,1.192-1.452" transform="translate(-67.592 -87.557)" fill="#929497"/>
        <path id="Path_878990" data-name="Path 878990" d="M196.76,155.423c1.982-.6,4.805.016,3.834,2.518-.747,1.489-5.3,1.4-5.026-1.066a1.73,1.73,0,0,1,1.192-1.452" transform="translate(-110.316 -87.557)" fill="#929497"/>
        <path id="Path_878991" data-name="Path 878991" d="M21.369,171.365c1.982-.6,4.805.016,3.834,2.518-.747,1.489-5.3,1.4-5.026-1.066a1.73,1.73,0,0,1,1.192-1.452" transform="translate(-11.375 -96.55)" fill="#929497"/>
        <path id="Path_878992" data-name="Path 878992" d="M101.093,171.365c1.982-.6,4.805.016,3.834,2.518-.747,1.489-5.3,1.4-5.026-1.066a1.73,1.73,0,0,1,1.192-1.452" transform="translate(-56.349 -96.55)" fill="#929497"/>
        <path id="Path_878993" data-name="Path 878993" d="M121.023,171.365c1.982-.6,4.805.016,3.834,2.518-.747,1.489-5.3,1.4-5.026-1.066a1.73,1.73,0,0,1,1.192-1.452" transform="translate(-67.592 -96.55)" fill="#929497"/>
        <path id="Path_878994" data-name="Path 878994" d="M200.747,171.365c1.982-.6,4.805.016,3.834,2.518-.747,1.489-5.3,1.4-5.026-1.066a1.73,1.73,0,0,1,1.192-1.452" transform="translate(-112.565 -96.55)" fill="#929497"/>
        <path id="Path_878995" data-name="Path 878995" d="M59.145,159.412c-2.183,2.388-1.04,5.753-1.305,8.688H56.106c-.028-1.155.027-2.322,0-3.477-.033-1.292.092-2.624,0-3.909,1.078-.432,1.164-1.6,3.041-1.3" transform="translate(-31.646 -89.9)" fill="#fc9378"/>
        <path id="Path_878996" data-name="Path 878996" d="M171.762,160.715c-.092,1.285.033,2.617,0,3.909-.03,1.155.026,2.322,0,3.477h-1.734c-.265-2.936.878-6.3-1.305-8.688,1.877-.3,1.963.87,3.041,1.3" transform="translate(-95.178 -89.9)" fill="#fc9378"/>
        <path id="Path_878997" data-name="Path 878997" d="M93.718,183.379l-.219,8.689H91.982c-.027-2.89.029-5.8,0-8.688.578.015,1.16-.022,1.737,0" transform="translate(-51.884 -103.443)" fill="#fe9378"/>
        <path id="Path_878998" data-name="Path 878998" d="M137.573,183.373c-.01.966.211,8.628-.22,8.689h-1.516l0-8.688c.574-.037,1.161.025,1.737,0" transform="translate(-76.627 -103.436)" fill="#fe9378"/>
        <path id="Path_878999" data-name="Path 878999" d="M144.959,156.641a11.361,11.361,0,0,0,0,1.737c-.944-.636-1.814-1.437-3.041-1.3-.448.049-1.214.722-1.737.869.007-.073-.77-.857-.386-1.412.531-1.733,4.531-1.8,5.164.109" transform="translate(-78.8 -87.562)" fill="#959597"/>
        <path id="Path_879000" data-name="Path 879000" d="M84.795,157.943c-.537-.156-1.264-.8-1.737-.869-1.483-.214-1.984.493-3.041,1.3-.029-.577.02-1.16,0-1.737.633-1.908,4.633-1.842,5.164-.109.384.555-.392,1.339-.386,1.412" transform="translate(-45.133 -87.562)" fill="#949598"/>
        <path id="Path_879001" data-name="Path 879001" d="M83.04,159.424c-2.182,2.387-1.04,5.753-1.305,8.688H80c-.1-2.448.122-4.941,0-7.386,1.057-.81,1.557-1.517,3.041-1.3" transform="translate(-45.116 -89.911)" fill="#fc9378"/>
        <path id="Path_879002" data-name="Path 879002" d="M147.845,160.758c-.129,2.444.1,4.938,0,7.386h-1.734c-.265-2.936.877-6.3-1.305-8.688,1.227-.134,2.1.666,3.041,1.3" transform="translate(-81.686 -89.943)" fill="#fd9378"/>
        <path id="Path_879003" data-name="Path 879003" d="M154.141,27.943c2.89-.8,1.89,2.923,2.726,3.637.663.567,2.408.573,3.49,1.723,1.418,1.507,2.143,5.285-.639,5.024-1.536-.144-1.332-1.9-2.169-2.651-2.583-2.324-9.071.568-4.833,2.227,2.852,1.116,7.941-.021,8.844,4.635,1,5.136-4.216,5.072-4.923,6.173-.558.87.373,3.328-1.741,3.512-2.52.22-1.565-2.64-2.128-3.513-.232-.36-2.962-1.1-3.9-2.185-1.321-1.539-1.837-5.014.815-4.765,1.536.144,1.333,1.9,2.169,2.651,2.583,2.324,9.071-.568,4.834-2.227-2.852-1.116-7.941.021-8.844-4.635-1-5.136,4.216-5.072,4.923-6.173.542-.845-.324-2.965,1.376-3.433" transform="translate(-83.329 -15.7)" fill="#fe7b56"/>
        <path id="Path_879004" data-name="Path 879004" d="M153.253,91.564c1.883.028,7.195-.8,7.4,1.543a1.713,1.713,0,0,1-.632,1.538c-.928.723-9.213.423-11.114.394-2.05-.031-8.922.874-9.141-1.543a1.714,1.714,0,0,1,.633-1.538c.932-.726,10.793-.425,12.852-.394" transform="translate(-78.841 -51.586)" fill="#fe7a55"/>
        <path id="Path_879005" data-name="Path 879005" d="M145.543,107.373c2.792-.067,12-.513,14.029.088a1.733,1.733,0,0,1,.3,3.169c-1.3.636-14.917.235-17.623.235a3.6,3.6,0,0,1-1.923-.453c-1.7-3.913,2.743-2.981,5.212-3.04" transform="translate(-78.949 -60.445)" fill="#fe7a55"/>
        <path id="Path_879006" data-name="Path 879006" d="M61.114,99.689H72.842c.318,0,1.336,1.377,1.107,1.931a2.674,2.674,0,0,1-1.107,1.543H61.114c-.318,0-1.337-1.377-1.107-1.931Z" transform="translate(-33.832 -56.236)" fill="#fe7955"/>
        <path id="Path_879007" data-name="Path 879007" d="M61.156,83.746H72.885a2.674,2.674,0,0,1,1.107,1.543c.23.555-.789,1.931-1.107,1.931H61.156a2.677,2.677,0,0,1-1.107-1.543Z" transform="translate(-33.874 -47.242)" fill="#fe7955"/>
        <path id="Path_879008" data-name="Path 879008" d="M61.156,67.8H72.885a2.674,2.674,0,0,1,1.107,1.543c.23.555-.789,1.931-1.107,1.931H61.156a2.677,2.677,0,0,1-1.107-1.543Z" transform="translate(-33.874 -38.249)" fill="#fe7955"/>
        <path id="Path_879009" data-name="Path 879009" d="M61.156,51.861H72.885A2.674,2.674,0,0,1,73.991,53.4c.23.555-.789,1.931-1.107,1.931H61.156a2.677,2.677,0,0,1-1.107-1.543Z" transform="translate(-33.874 -29.256)" fill="#fe7955"/>
        <path id="Path_879010" data-name="Path 879010" d="M101.1,83.675c1.153-.34,4.979-.391,5.57.778,1.594,3.552-6.544,3.512-6.764,1.065a1.739,1.739,0,0,1,1.193-1.843" transform="translate(-56.354 -47.083)" fill="#fe7a55"/>
        <path id="Path_879011" data-name="Path 879011" d="M101.1,99.6c1.231-.365,4.765-.415,5.57.778,1.756,3.473-7.039,3.752-6.764.676A1.738,1.738,0,0,1,101.1,99.6" transform="translate(-56.356 -56.054)" fill="#fe7a55"/>
        <path id="Path_879012" data-name="Path 879012" d="M101.1,67.732c1.153-.34,4.979-.391,5.57.778,1.594,3.552-6.544,3.512-6.764,1.065a1.739,1.739,0,0,1,1.193-1.843" transform="translate(-56.354 -38.09)" fill="#fe7a55"/>
        <path id="Path_879013" data-name="Path 879013" d="M101.1,51.789c1.153-.34,4.979-.391,5.57.778,1.594,3.552-6.544,3.512-6.764,1.065a1.739,1.739,0,0,1,1.193-1.843" transform="translate(-56.354 -29.096)" fill="#fe7a55"/>
      </g>
    </g>
  </g>
</svg>
