<svg xmlns="http://www.w3.org/2000/svg" xmlns:xlink="http://www.w3.org/1999/xlink" width="180" height="180" viewBox="0 0 180 180">
  <defs>
    <clipPath id="clip-path">
      <rect id="Rectangle_405177" data-name="Rectangle 405177" width="90.216" height="90.104" fill="#12263f"/>
    </clipPath>
  </defs>
  <g id="img10" transform="translate(-358.668 -5326)">
    <rect id="Rectangle_403656" data-name="Rectangle 403656" width="180" height="180" transform="translate(358.668 5326)" fill="none"/>
    <g id="Group_1101106" data-name="Group 1101106" transform="translate(-148.045 -2662)">
      <g id="Group_1101010" data-name="Group 1101010" transform="translate(601.04 7999.387)">
        <path id="Path_875656" data-name="Path 875656" d="M213.638,10.626,141.848,82.417v2.494h2.494L216.133,13.12V10.626Z" transform="translate(-141.846 -10.626)" fill="#225a78"/>
        <path id="Path_875657" data-name="Path 875657" d="M202.64,10.626,141.848,71.419v4.989l65.781-65.782Z" transform="translate(-141.846 -10.626)" fill="#225a78"/>
        <path id="Path_875658" data-name="Path 875658" d="M191.64,10.626,141.847,60.42v4.988l54.782-54.783Z" transform="translate(-141.846 -10.626)" fill="#225a78"/>
        <path id="Path_875659" data-name="Path 875659" d="M180.642,10.626l-38.8,38.8V54.41l43.784-43.784Z" transform="translate(-141.846 -10.626)" fill="#225a78"/>
        <path id="Path_875660" data-name="Path 875660" d="M169.644,10.626l-27.8,27.8v4.988l32.786-32.786Z" transform="translate(-141.846 -10.626)" fill="#225a78"/>
        <path id="Path_875661" data-name="Path 875661" d="M158.645,10.626l-16.8,16.8v4.989l21.787-21.787Z" transform="translate(-141.846 -10.626)" fill="#225a78"/>
        <path id="Path_875662" data-name="Path 875662" d="M147.646,10.626l-5.8,5.8v4.989l10.788-10.788Z" transform="translate(-141.846 -10.626)" fill="#225a78"/>
        <path id="Path_875663" data-name="Path 875663" d="M268.109,147.676H273.1l5.8-5.8v-4.988Z" transform="translate(-204.61 -73.39)" fill="#225a78"/>
        <path id="Path_875664" data-name="Path 875664" d="M246.238,136.8h4.989l16.8-16.8v-4.988Z" transform="translate(-193.738 -62.518)" fill="#225a78"/>
        <path id="Path_875665" data-name="Path 875665" d="M224.368,125.933h4.989l27.8-27.8V93.147Z" transform="translate(-182.867 -51.646)" fill="#225a78"/>
        <path id="Path_875666" data-name="Path 875666" d="M202.5,115.061h4.989l38.795-38.8V71.277Z" transform="translate(-171.996 -40.775)" fill="#225a78"/>
        <path id="Path_875667" data-name="Path 875667" d="M180.628,104.19h4.988L235.41,54.4V49.407Z" transform="translate(-161.123 -29.904)" fill="#225a78"/>
        <path id="Path_875668" data-name="Path 875668" d="M158.757,93.318h4.989l60.792-60.793V27.536Z" transform="translate(-150.252 -19.032)" fill="#225a78"/>
      </g>
      <rect id="Rectangle_403642" data-name="Rectangle 403642" width="62.268" height="62.267" transform="translate(518.1 8094.346)" fill="none" stroke="#225a78" stroke-linecap="round" stroke-linejoin="round" stroke-width="2"/>
      <rect id="Rectangle_403641" data-name="Rectangle 403641" width="135.46" height="135.39" transform="translate(530.661 8008.6)" fill="#88c0de"/>
      <g id="Group_1101012" data-name="Group 1101012" transform="translate(547.968 8024.675)">
        <g id="Group_1099618" data-name="Group 1099618" transform="translate(0 0)">
          <rect id="Rectangle_401104" data-name="Rectangle 401104" width="96.221" height="97.38" fill="none"/>
        </g>
      </g>
      <g id="Group_1102946" data-name="Group 1102946" transform="translate(553.661 8031.6)">
        <g id="Group_1102945" data-name="Group 1102945" clip-path="url(#clip-path)">
          <path id="Path_879822" data-name="Path 879822" d="M68.432,17.453V33.909a14.527,14.527,0,0,1,21.511,9.83c1.013,5.372-.844,9.992-4.674,13.666-.243.233-.69.38-.706.755h2.111a5.1,5.1,0,0,1,2.491,1.514,4.365,4.365,0,0,1-.06,5.685,4.5,4.5,0,0,1,0,5.847,4.5,4.5,0,0,1,0,5.846,4.5,4.5,0,0,1,.021,5.827A4.387,4.387,0,0,1,86.244,90.1H65.017a4.381,4.381,0,0,1-3.424-6.356c.146-.286.591-.695.566-.95a4.463,4.463,0,0,1-.007-5.741,6.178,6.178,0,0,1-1.081-2.98H49.649l-.163.163V88.961c0,.328-.641.991-.97,1.088L1.469,90.1C.5,90.033.088,89.315.008,88.425v-69.3c-.091-.48.542-1.674,1.032-1.674H28.971l.163-.163V9.063c0-3.827,4.4-8.447,8.2-8.9,12.631-.3,25.31-.065,37.957-.121a8.941,8.941,0,0,1,5.743,3.243c2.911,3.609,1.62,8.536,1.906,12.823a1.729,1.729,0,0,1-1.247,1.351ZM67.674,2.946H38.282c-2.615,0-6.225,3.614-6.225,6.225v8.282h16.4a2.01,2.01,0,0,1,1.028,1.028V71.152H62.153a4.455,4.455,0,0,1-.811-4.33c.188-.536.624-.932.81-1.465a4.414,4.414,0,0,1,1.422-6.8,5.016,5.016,0,0,1,1.123-.393h1.948c.02,0,.192-.173.163-.215a11.128,11.128,0,0,1-2.9-2.891,14.5,14.5,0,0,1,.682-18.008c.293-.36.838-.652.916-1.141L65.51,7.765a8.735,8.735,0,0,1,2.163-4.82M80.015,14.53V7.98a8.486,8.486,0,0,0-.848-2.292,5.836,5.836,0,0,0-10.355.832,7.8,7.8,0,0,0-.381,1.243V14.53ZM46.564,20.376H2.935v66.8H46.564ZM67.5,38.169a11.638,11.638,0,1,0,19.174,4.622A11.692,11.692,0,0,0,67.5,38.169M64.463,63.537a3.808,3.808,0,0,0,.5.312l21.063.052a1.434,1.434,0,0,0,.439-2.717l-21.23-.1a1.425,1.425,0,0,0-.772,2.456m.8,3.31a1.462,1.462,0,0,0,.08,2.9l21.028-.087a1.48,1.48,0,0,0-.564-2.839Zm-.109,5.845a1.47,1.47,0,0,0,.3,2.9H85.918a1.469,1.469,0,0,0,0-2.928Zm-.692,6.183a1.423,1.423,0,0,0,.773,2.456l21.229-.1a1.434,1.434,0,0,0-.439-2.717l-21.063.052a3.769,3.769,0,0,0-.5.311m0,7.938a3.808,3.808,0,0,0,.5.312l21.063.052c1.884-.4,1.536-2.8-.327-2.926H65.562a1.5,1.5,0,0,0-1.1,2.562" transform="translate(0 0)" fill="#12263f"/>
          <path id="Path_879823" data-name="Path 879823" d="M126.911,26.958h-26.2V24.035h26.036l.162.163Z" transform="translate(-64.325 -15.351)" fill="#12263f"/>
          <rect id="Rectangle_405175" data-name="Rectangle 405175" width="10.176" height="2.923" transform="translate(52.409 21.784)" fill="#12263f"/>
          <path id="Path_879824" data-name="Path 879824" d="M155.234,47.035H145.058V44.111h10.014l.162.163Z" transform="translate(-92.649 -28.174)" fill="#12263f"/>
          <path id="Path_879825" data-name="Path 879825" d="M155.234,76.474v2.761l-.162.163H145.058V76.474Z" transform="translate(-92.649 -48.844)" fill="#12263f"/>
          <path id="Path_879826" data-name="Path 879826" d="M17.258,112.8l35.943.057a1.473,1.473,0,0,1,.79,1.267v40.824a1.35,1.35,0,0,1-1.353,1.353L17.1,156.214a1.371,1.371,0,0,1-.842-1L16.2,114.231a1.486,1.486,0,0,1,1.059-1.431m16.376,2.79H19.29l-.162.162v17.214l.162.162H33.635Zm17.429,0H36.72l-.162.162v17.214l.162.162H51.064ZM33.635,135.944H19.29l-.162.162v17.268H33.635Zm17.429,0H36.72l-.162.162v17.268H51.064Z" transform="translate(-10.346 -72.045)" fill="#12263f"/>
          <path id="Path_879827" data-name="Path 879827" d="M55.876,64.65a1.467,1.467,0,0,1,.365.772V77.554a1.358,1.358,0,0,1-1.084,1.189L25.867,78.8a1.624,1.624,0,0,1-1.514-1.084L24.3,65.531a1.623,1.623,0,0,1,1.676-1.355H54.456a2.269,2.269,0,0,1,1.42.474M27.224,75.873H53.26l.163-.162V67.266L53.26,67.1H27.224Z" transform="translate(-15.52 -40.989)" fill="#12263f"/>
          <path id="Path_879828" data-name="Path 879828" d="M203.106,104.641v1.732a4.3,4.3,0,0,1,2.923,4.006h-2.923c-.237-2.441-3.776-1.289-2.728.725.482.927,1.231.664,2,.818a4.4,4.4,0,0,1,.731,8.471v1.678h-2.761c-.394-.362.017-1.352-.215-1.734-.082-.135-.707-.346-.915-.492a4.565,4.565,0,0,1-1.708-2.3c-.06-.193-.385-1.322-.085-1.322h2.761c.194,2.406,3.782,1.458,2.766-.656-.472-.981-1.746-.686-2.683-1a4.339,4.339,0,0,1-.083-8.2v-1.732Z" transform="translate(-126.014 -66.834)" fill="#12263f"/>
          <rect id="Rectangle_405176" data-name="Rectangle 405176" width="8.769" height="2.815" transform="translate(29.134 50.907)" fill="#12263f"/>
          <path id="Path_879829" data-name="Path 879829" d="M38.242,132.809v2.923h2.815v2.815H38.242v2.923H35.319v-2.761l-.163-.162H32.4v-2.815h2.76l.163-.163v-2.761Z" transform="translate(-20.691 -84.825)" fill="#12263f"/>
          <path id="Path_879830" data-name="Path 879830" d="M80.637,187.871v-2.923h8.607l.162.163v2.6l-.162.162Z" transform="translate(-51.503 -118.126)" fill="#12263f"/>
          <path id="Path_879831" data-name="Path 879831" d="M89.406,209.22v2.761l-.162.163H80.8l-.162-.163V209.22Z" transform="translate(-51.503 -133.629)" fill="#12263f"/>
          <path id="Path_879832" data-name="Path 879832" d="M35.213,189.559l3.127-3.1,1.985,1.986-3.135,3.341,3.03,3.041a.294.294,0,0,1,.09.308,13.777,13.777,0,0,1-1.977,1.908l-3.041-3.03a.292.292,0,0,0-.308-.09c-.4.106-2.494,2.642-3.048,3.026a.292.292,0,0,1-.308.09,13.889,13.889,0,0,1-1.9-1.97l3.023-3.044a.418.418,0,0,0,.106-.328c-.042-.434-3.19-3.043-3.137-3.347.561-.455,1.214-1.431,1.774-1.808.109-.073.157-.13.308-.09.4.106,2.493,2.641,3.047,3.025Z" transform="translate(-18.982 -119.08)" fill="#12263f"/>
        </g>
      </g>
    </g>
  </g>
</svg>
