<svg xmlns="http://www.w3.org/2000/svg" xmlns:xlink="http://www.w3.org/1999/xlink" width="505" height="422" viewBox="0 0 505 422">
  <defs>
    <clipPath id="clip-path">
      <rect id="Rectangle_404917" data-name="Rectangle 404917" width="449.744" height="421.42" fill="none"/>
    </clipPath>
    <clipPath id="clip-path-3">
      <rect id="Rectangle_404896" data-name="Rectangle 404896" width="38.025" height="38.026" fill="none"/>
    </clipPath>
    <clipPath id="clip-path-4">
      <rect id="Rectangle_404897" data-name="Rectangle 404897" width="16.162" height="16.162" fill="none"/>
    </clipPath>
    <clipPath id="clip-path-5">
      <rect id="Rectangle_404898" data-name="Rectangle 404898" width="39.349" height="39.349" fill="none"/>
    </clipPath>
    <clipPath id="clip-path-6">
      <rect id="Rectangle_404899" data-name="Rectangle 404899" width="12.73" height="12.73" fill="none"/>
    </clipPath>
    <clipPath id="clip-path-7">
      <rect id="Rectangle_404900" data-name="Rectangle 404900" width="21.074" height="21.074" fill="none"/>
    </clipPath>
    <clipPath id="clip-path-8">
      <rect id="Rectangle_404901" data-name="Rectangle 404901" width="39.648" height="39.648" fill="none"/>
    </clipPath>
    <clipPath id="clip-path-9">
      <rect id="Rectangle_404902" data-name="Rectangle 404902" width="338.432" height="328.692" fill="none"/>
    </clipPath>
    <clipPath id="clip-path-10">
      <rect id="Rectangle_404903" data-name="Rectangle 404903" width="449.744" height="27.858" fill="none"/>
    </clipPath>
    <clipPath id="clip-path-11">
      <rect id="Rectangle_404912" data-name="Rectangle 404912" width="7.935" height="9.67" fill="none"/>
    </clipPath>
  </defs>
  <g id="img18" transform="translate(-915 -7618)">
    <rect id="Rectangle_405071" data-name="Rectangle 405071" width="505" height="422" transform="translate(915 7618)" fill="#fff"/>
    <g id="Group_1102793" data-name="Group 1102793" transform="translate(945 7618)">
      <g id="Group_1102662" data-name="Group 1102662" clip-path="url(#clip-path)">
        <g id="Group_1102659" data-name="Group 1102659">
          <g id="Group_1102658" data-name="Group 1102658" clip-path="url(#clip-path)">
            <g id="Group_1102633" data-name="Group 1102633" transform="translate(58.774 5.546)" opacity="0.4" style="mix-blend-mode: multiply;isolation: isolate">
              <g id="Group_1102632" data-name="Group 1102632">
                <g id="Group_1102631" data-name="Group 1102631" clip-path="url(#clip-path-3)">
                  <path id="Path_877532" data-name="Path 877532" d="M95.043,24.433a18.5,18.5,0,1,1-18.5-18.5A18.5,18.5,0,0,1,95.043,24.433Z" transform="translate(-57.529 -5.419)" fill="none" stroke="#e59322" stroke-miterlimit="10" stroke-width="1"/>
                </g>
              </g>
            </g>
            <g id="Group_1102636" data-name="Group 1102636" transform="translate(143.054 47.129)" opacity="0.4" style="mix-blend-mode: multiply;isolation: isolate">
              <g id="Group_1102635" data-name="Group 1102635">
                <g id="Group_1102634" data-name="Group 1102634" clip-path="url(#clip-path-4)">
                  <path id="Path_877533" data-name="Path 877533" d="M155.691,54.209a7.57,7.57,0,1,1-7.57-7.57A7.571,7.571,0,0,1,155.691,54.209Z" transform="translate(-140.039 -46.128)" fill="none" stroke="#e59322" stroke-miterlimit="10" stroke-width="1"/>
                </g>
              </g>
            </g>
            <g id="Group_1102639" data-name="Group 1102639" transform="translate(386.714)" opacity="0.4" style="mix-blend-mode: multiply;isolation: isolate">
              <g id="Group_1102638" data-name="Group 1102638">
                <g id="Group_1102637" data-name="Group 1102637" clip-path="url(#clip-path-5)">
                  <path id="Path_877534" data-name="Path 877534" d="M417.421,19.663A19.164,19.164,0,1,1,398.258.5,19.164,19.164,0,0,1,417.421,19.663Z" transform="translate(-378.582 0.011)" fill="none" stroke="#e59322" stroke-miterlimit="10" stroke-width="1"/>
                </g>
              </g>
            </g>
            <g id="Group_1102642" data-name="Group 1102642" transform="translate(413.336 136.951)" opacity="0.4" style="mix-blend-mode: multiply;isolation: isolate">
              <g id="Group_1102641" data-name="Group 1102641">
                <g id="Group_1102640" data-name="Group 1102640" clip-path="url(#clip-path-6)">
                  <path id="Path_877535" data-name="Path 877535" d="M416.865,140.43a5.854,5.854,0,1,1-5.855-5.855A5.855,5.855,0,0,1,416.865,140.43Z" transform="translate(-404.645 -134.064)" fill="none" stroke="#e59322" stroke-miterlimit="10" stroke-width="1"/>
                </g>
              </g>
            </g>
            <g id="Group_1102645" data-name="Group 1102645" transform="translate(4.492 298.662)" opacity="0.4" style="mix-blend-mode: multiply;isolation: isolate">
              <g id="Group_1102644" data-name="Group 1102644">
                <g id="Group_1102643" data-name="Group 1102643" clip-path="url(#clip-path-7)">
                  <path id="Path_877536" data-name="Path 877536" d="M24.95,302.916a10.026,10.026,0,1,1-10.027-10.027A10.027,10.027,0,0,1,24.95,302.916Z" transform="translate(-4.387 -292.379)" fill="none" stroke="#e59322" stroke-miterlimit="10" stroke-width="1"/>
                </g>
              </g>
            </g>
            <g id="Group_1102648" data-name="Group 1102648" transform="translate(410.042 282.871)" opacity="0.4" style="mix-blend-mode: multiply;isolation: isolate">
              <g id="Group_1102647" data-name="Group 1102647">
                <g id="Group_1102646" data-name="Group 1102646" clip-path="url(#clip-path-8)">
                  <path id="Path_877537" data-name="Path 877537" d="M440.557,296.745a19.313,19.313,0,1,1-19.314-19.314A19.314,19.314,0,0,1,440.557,296.745Z" transform="translate(-401.42 -276.92)" fill="none" stroke="#e59322" stroke-miterlimit="10" stroke-width="1"/>
                </g>
              </g>
            </g>
            <g id="Group_1102651" data-name="Group 1102651" transform="translate(64.04 34.891)" opacity="0.58">
              <g id="Group_1102650" data-name="Group 1102650">
                <g id="Group_1102649" data-name="Group 1102649" clip-path="url(#clip-path-9)">
                  <path id="Path_877538" data-name="Path 877538" d="M250.221,352.593a83.694,83.694,0,0,0,11.129-13.1c14.894-20.924,28.231-26.65,53.364-30.039,26.814-3.616,47.844-20.334,55.105-46.833a67.669,67.669,0,0,0,1.11-31.859c-2.809-13.134-9.746-25.371-9.207-39.135.894-22.788,19.018-39.245,29.92-57.734,12.974-22,12.935-48.776-1.951-70.083-22.08-31.606-69.664-38.168-101.734-18.629-31.175,18.993-45.536,67.868-86.527,70.283-25.987,1.531-48.548-20.89-74.577-20.583-17.207.2-32.944,10.59-44.081,23.71-11.82,13.925-19.638,31.6-20.06,49.86s7.048,36.941,21.182,48.511c23.038,18.862,60.335,17.83,77.274,42.317,14.056,20.319,7.031,48.745,16.534,71.552,7.578,18.187,26.724,31.374,46.435,32,10.858.343,19.113-3.81,26.085-10.237" transform="translate(-62.695 -34.158)" fill="#f7e66b"/>
                </g>
              </g>
            </g>
            <g id="Group_1102654" data-name="Group 1102654" transform="translate(0 393.562)" opacity="0.4" style="mix-blend-mode: multiply;isolation: isolate">
              <g id="Group_1102653" data-name="Group 1102653">
                <g id="Group_1102652" data-name="Group 1102652" clip-path="url(#clip-path-10)">
                  <path id="Path_877539" data-name="Path 877539" d="M0,399.227c0,7.693,100.678,13.929,224.872,13.929s224.871-6.236,224.871-13.929S349.065,385.3,224.872,385.3,0,391.534,0,399.227" transform="translate(0 -385.297)" fill="#eec12d"/>
                </g>
              </g>
            </g>
            <path id="Path_877540" data-name="Path 877540" d="M275.037,224.291H162.27a20.622,20.622,0,0,1-20.622-20.622V105.911a9.9,9.9,0,0,1,9.9-9.9H282.134a12.553,12.553,0,0,1,12.553,12.553v96.081a19.649,19.649,0,0,1-19.65,19.649" transform="translate(3.038 2.059)" fill="#fff"/>
            <path id="Path_877541" data-name="Path 877541" d="M294.686,120.765v-12.52a12.236,12.236,0,0,0-12.237-12.236H151.1a9.45,9.45,0,0,0-9.45,9.45v15.305Z" transform="translate(3.038 2.059)" fill="#5c45fa"/>
            <path id="Path_877542" data-name="Path 877542" d="M180.187,107.739a3.376,3.376,0,1,1-3.376-3.376,3.376,3.376,0,0,1,3.376,3.376" transform="translate(3.72 2.239)" fill="#fff"/>
            <path id="Path_877543" data-name="Path 877543" d="M155.49,110.126a3.376,3.376,0,1,1,0-4.774,3.375,3.375,0,0,1,0,4.774" transform="translate(3.212 2.239)" fill="#fff"/>
            <path id="Path_877544" data-name="Path 877544" d="M168.333,107.739a3.376,3.376,0,1,1-3.376-3.376,3.376,3.376,0,0,1,3.376,3.376" transform="translate(3.466 2.239)" fill="#fff"/>
            <path id="Path_877545" data-name="Path 877545" d="M162.43,139.122v59.966H269.244" transform="translate(3.484 2.984)" fill="none" stroke="#5c45fa" stroke-linecap="round" stroke-linejoin="round" stroke-width="2.465"/>
            <path id="Path_877546" data-name="Path 877546" d="M162.43,199.028h0l28.109-29.983,23.424,15.929L230.828,157.8l17.8,15.928,20.613-31.857" transform="translate(3.484 3.043)" fill="none" stroke="#5c45fa" stroke-linecap="round" stroke-linejoin="round" stroke-width="2.465"/>
            <path id="Path_877547" data-name="Path 877547" d="M194.217,170.716a4.164,4.164,0,1,1-4.164-4.164,4.164,4.164,0,0,1,4.164,4.164" transform="translate(3.987 3.573)" fill="#de514d"/>
            <path id="Path_877548" data-name="Path 877548" d="M234.988,156.854a4.164,4.164,0,1,1-4.164-4.164,4.164,4.164,0,0,1,4.164,4.164" transform="translate(4.862 3.275)" fill="#de514d"/>
            <path id="Path_877549" data-name="Path 877549" d="M270.866,141.362A4.164,4.164,0,1,1,266.7,137.2a4.164,4.164,0,0,1,4.164,4.164" transform="translate(5.632 2.943)" fill="#de514d"/>
            <rect id="Rectangle_404904" data-name="Rectangle 404904" width="84.225" height="91.999" transform="translate(131.783 316.407)" fill="#463ae8"/>
            <rect id="Rectangle_404905" data-name="Rectangle 404905" width="71.59" height="91.999" transform="translate(131.783 316.407)" fill="#5c45fa"/>
            <rect id="Rectangle_404906" data-name="Rectangle 404906" width="84.225" height="57.644" transform="translate(29.361 350.762)" fill="#463ae8"/>
            <rect id="Rectangle_404907" data-name="Rectangle 404907" width="71.59" height="57.644" transform="translate(29.361 350.762)" fill="#5c45fa"/>
            <rect id="Rectangle_404908" data-name="Rectangle 404908" width="84.225" height="117.151" transform="translate(234.206 291.254)" fill="#463ae8"/>
            <rect id="Rectangle_404909" data-name="Rectangle 404909" width="71.59" height="117.151" transform="translate(234.206 291.254)" fill="#5c45fa"/>
            <rect id="Rectangle_404910" data-name="Rectangle 404910" width="84.225" height="172.006" transform="translate(336.629 236.399)" fill="#463ae8"/>
            <rect id="Rectangle_404911" data-name="Rectangle 404911" width="71.59" height="172.006" transform="translate(336.629 236.399)" fill="#5c45fa"/>
            <path id="Path_877550" data-name="Path 877550" d="M28.75,331.953h71.382L125.9,297.768h63.7l43.192-33.091h73.54l28.87-57.542H395.57l29.342-37.507" transform="translate(0.617 3.639)" fill="none" stroke="#294878" stroke-linecap="round" stroke-linejoin="round" stroke-width="5.748"/>
            <path id="Path_877551" data-name="Path 877551" d="M400.937,168.873l17.447-1.41,2.882,18.217" transform="translate(8.6 3.592)" fill="none" stroke="#294878" stroke-linecap="round" stroke-linejoin="round" stroke-width="5.748"/>
            <path id="Path_877552" data-name="Path 877552" d="M341.729,28.851a5.058,5.058,0,0,0,3.852.5,3.975,3.975,0,0,0,2.083-1.61c2.282-2.813-.677-5.915-.677-5.915l-6-.829a6.748,6.748,0,0,0-.545,6.367,4.707,4.707,0,0,0,1.29,1.488" transform="translate(7.291 0.45)" fill="#ebc4a6"/>
            <path id="Path_877553" data-name="Path 877553" d="M345.354,19.265c-.775-.07-.76.762-1.062.71-.4-.067-1.086-.211-1.412.079a4.266,4.266,0,0,0-.57.638,1.121,1.121,0,0,0-1.155-.006c-.561.371-.3,3.963.521,4.6.592.459,1.506.585,1.323-.9,0,0,.716,1.021,1.419.589a1.3,1.3,0,0,0,.454-1.076s.569,1.34,1.026.922.063-1.323.063-1.323,2.432,1.965,1.448-.4c-.348-.838-1.137-3.749-2.054-3.832" transform="translate(7.312 0.413)" fill="#ebc4a6"/>
            <path id="Path_877554" data-name="Path 877554" d="M347.924,27.124a12.424,12.424,0,0,0,1.663-2.853c.108-.476-1.6-3.26-2.121-3.543s-3.662.952-3.232,1.707,2.279.343,2.279.343Z" transform="translate(7.383 0.444)" fill="#ebc4a6"/>
            <path id="Path_877555" data-name="Path 877555" d="M341,22.741a3.05,3.05,0,0,0,.488,2.017,1.816,1.816,0,0,0,.775.653,1.133,1.133,0,0,0,1-.1,1.075,1.075,0,0,1-1.056.269,1.864,1.864,0,0,1-.9-.685A2.468,2.468,0,0,1,341,22.741" transform="translate(7.312 0.488)" fill="#d7a281"/>
            <path id="Path_877556" data-name="Path 877556" d="M340.972,23.581a.649.649,0,0,1-.3.672.651.651,0,0,1,.3-.672" transform="translate(7.307 0.506)" fill="#d7a281"/>
            <path id="Path_877557" data-name="Path 877557" d="M342.271,20.71a4.373,4.373,0,0,1,.776,2.231c.079.79.107,1.567.2,2.351-.53-1.517-.275-3.155-.976-4.582" transform="translate(7.342 0.444)" fill="#d7a281"/>
            <path id="Path_877558" data-name="Path 877558" d="M344.775,22.682a.99.99,0,0,1,.121.462.246.246,0,1,1-.225,0,1,1,0,0,1,.1-.466" transform="translate(7.393 0.487)" fill="#d7a281"/>
            <path id="Path_877559" data-name="Path 877559" d="M344.419,20.1a.99.99,0,0,1,.314.675,2.253,2.253,0,0,1-.02.74,2.289,2.289,0,0,1-.2-.706,5.274,5.274,0,0,0-.091-.709" transform="translate(7.388 0.431)" fill="#d7a281"/>
            <path id="Path_877560" data-name="Path 877560" d="M346.479,20.808a7.331,7.331,0,0,1-1.174.566,4.992,4.992,0,0,0-1.147.555,2.152,2.152,0,0,1,1.065-.765,7,7,0,0,1,1.255-.355" transform="translate(7.382 0.446)" fill="#d7a281"/>
            <path id="Path_877561" data-name="Path 877561" d="M344.161,21.905a1.074,1.074,0,0,0,.432.528,2.7,2.7,0,0,0,.616.311,4.782,4.782,0,0,0,1.377.3,2.368,2.368,0,0,1-1.459-.095,2.225,2.225,0,0,1-.643-.386.89.89,0,0,1-.324-.662" transform="translate(7.382 0.47)" fill="#d7a281"/>
            <path id="Path_877562" data-name="Path 877562" d="M346.489,22.579a1.95,1.95,0,0,1,.1,1.61,6.165,6.165,0,0,1-.1-1.61" transform="translate(7.432 0.484)" fill="#d7a281"/>
            <path id="Path_877563" data-name="Path 877563" d="M346.645,24.12a2.673,2.673,0,0,0-1.109.072,3.36,3.36,0,0,0-1.011.425,3.659,3.659,0,0,0-1.42,1.668,2.856,2.856,0,0,1,1.3-1.86,3.127,3.127,0,0,1,1.1-.4,2.09,2.09,0,0,1,1.143.1" transform="translate(7.36 0.515)" fill="#d7a281"/>
            <path id="Path_877564" data-name="Path 877564" d="M341.382,28.374c1.2.134,3.623.163,4.823.285l-.025.331c.009,1.021-.055,2.5-.156,4.227l-5.548-.956c.29-1.334.593-2.64.907-3.887" transform="translate(7.303 0.609)" fill="#ebc4a6"/>
            <path id="Path_877565" data-name="Path 877565" d="M372.481,218.326a11.271,11.271,0,0,0,.776,4.977l-.629,3.7-2.11.607-4.935-5.669a26.976,26.976,0,0,1,.149-2.8Z" transform="translate(7.842 4.683)" fill="#ebc4a6"/>
            <path id="Path_877566" data-name="Path 877566" d="M374.133,231.355c-.483.579-4.882.351-6.032.816s-3.839,1.846-6.491,1.922-6.636-.661-7.411-1.516.1-2.318.1-2.318-.089-.975.405-1.335,3.03-1.041,4.811-2.159,4.477-4.124,6.09-4.863a3.533,3.533,0,0,1,2,.3c1.374.493,1.621,2.248,2.786,2.945a1.834,1.834,0,0,0,2.491-.362c.329-.475.538-1.938.943-1.77s.947,3.668.538,5.918c0,0,.255,1.836-.229,2.421" transform="translate(7.591 4.759)" fill="#122030"/>
            <path id="Path_877567" data-name="Path 877567" d="M374.133,231.207c-.483.579-4.882.351-6.032.816s-3.839,1.846-6.491,1.922-6.636-.661-7.411-1.516.1-2.318.1-2.318.748,1.4,5.954,1.307,5.908-1.245,7.659-1.684a28.882,28.882,0,0,1,6.449-.949s.255,1.836-.229,2.421" transform="translate(7.591 4.907)" fill="#fff"/>
            <path id="Path_877568" data-name="Path 877568" d="M386.025,181.863a11.16,11.16,0,0,0,4.725,1.594l2.964,2.247-.432,2.131-7.236,1.741a26.6,26.6,0,0,1-2.387-1.411Z" transform="translate(8.23 3.901)" fill="#ebc4a6"/>
            <path id="Path_877569" data-name="Path 877569" d="M398.124,186.6c.288.689-1.924,4.447-2.042,5.67s-.135,4.216-1.282,6.58-3.615,5.526-4.721,5.814-1.989-1.148-1.989-1.148-.9-.368-.987-.966.472-3.137.3-5.212-1.573-5.818-1.485-7.573a3.5,3.5,0,0,1,1.178-1.616c1.061-.982,2.715-.4,3.86-1.1a1.815,1.815,0,0,0,.822-2.353c-.267-.506-1.456-1.359-1.124-1.637s3.655.846,5.443,2.234c0,0,1.729.615,2.021,1.308" transform="translate(8.278 3.926)" fill="#122030"/>
            <path id="Path_877570" data-name="Path 877570" d="M398.079,186.555c.288.689-1.924,4.447-2.042,5.67s-.135,4.215-1.282,6.58-3.615,5.526-4.721,5.814-1.989-1.148-1.989-1.148,1.569-.017,3.872-4.63,1.608-5.758,2.023-7.5a28.644,28.644,0,0,1,2.116-6.1s1.729.615,2.021,1.308" transform="translate(8.324 3.974)" fill="#fff"/>
            <path id="Path_877571" data-name="Path 877571" d="M383.817,51.745s-1.268-.179-1.253.58a7.359,7.359,0,0,0,1.186,3.151c.661,1.018,1.207.673,1.885.858.6.163-.154-2.233-.154-2.233l-.717-1.319" transform="translate(8.206 1.11)" fill="#d7a281"/>
            <path id="Path_877572" data-name="Path 877572" d="M388.469,62.966a27.182,27.182,0,0,0-.176-4.6A4.918,4.918,0,0,1,386.73,56.9a1.584,1.584,0,0,1-2.064-1.056,3.654,3.654,0,0,1-.231-.9,1.836,1.836,0,0,1-.462-1.26,2.881,2.881,0,0,1-.438-1.621c-.167-.884-.33-1.381.273-1.97.993-.97,4.2-3.106,6.321-.97s1.882,5.133,1.964,7.053a14.819,14.819,0,0,0,1.449,4.651Z" transform="translate(8.224 1.034)" fill="#ebc4a6"/>
            <path id="Path_877573" data-name="Path 877573" d="M387.987,181.528a6.392,6.392,0,0,1-.181,1.565c-.478,2.031-2.032,6.45-4.167,7.86-.693-.343-38.056-11.24-42.835-16.81-3.711-4.317,3.437-26.529,3.462-26.591,2.876-9.026,6.306-18.382,6.306-18.382s-.219-2.682,21.552,2.919a130.886,130.886,0,0,1-7.111,17.89c-3.387,7-6.531,11.925-8.158,14.664,14.539,6.263,31.132,16.886,31.132,16.886" transform="translate(7.288 2.757)" fill="#122030"/>
            <path id="Path_877574" data-name="Path 877574" d="M364.57,129.607a.019.019,0,0,1-.006.012c-.05-.006.006-.012.006-.012" transform="translate(7.82 2.78)" fill="#c35b59"/>
            <path id="Path_877575" data-name="Path 877575" d="M385.166,144.253c-2.9,16.231-8.957,29.81-8.69,31.924,2.758,15.868-.936,45.229-.936,45.229a2.5,2.5,0,0,1-1.205.45,26.973,26.973,0,0,1-9.174-.32c.012-.779-4.148-39.671-4.684-48.023-.536-8.252,4.066-43.083,4.173-43.894.194.062,2.152.249,17.2.817,1.136.044,2.345.087,3.637.137a44.777,44.777,0,0,1-.325,13.679" transform="translate(7.731 2.78)" fill="#122030"/>
            <path id="Path_877576" data-name="Path 877576" d="M363.287,140.306l-1.012,10.122c-.334,3.373-.655,6.748-.927,10.125s-.538,6.757-.614,10.134a41.4,41.4,0,0,0,.234,5.047l.465,5.061,1.935,20.248c.635,6.751,1.286,13.5,1.8,20.265l-2.279-20.216c-.736-6.742-1.416-13.489-2.078-20.24l-.437-5.069-.186-2.542c-.041-.86-.039-1.714-.023-2.566.105-3.4.369-6.786.7-10.163.65-6.755,1.494-13.485,2.415-20.2" transform="translate(7.726 3.01)" fill="#294878"/>
            <path id="Path_877577" data-name="Path 877577" d="M387.572,128.491c-.462,1.129-1.572,3.443-1.616,4.528s-4.335,1.26-7.186,1.317c-.112,0-.224.006-.342,0-5.078.062-17.329-.549-23.348-1.821a24.183,24.183,0,0,1-4.546-1.054c-.188-.973-1.522-1.747-1.3-4.061.823-8.626,3.2-26.572,2.015-35.5-7.854-16.7-12.2-28.849-12.2-28.849-1.659-4.654-.93-24.3,1.248-31.487,0,0,.3-.056.8-.118a16.3,16.3,0,0,1,5.4.193c.143.343.492,2.8.954,6.106s1.024,7.455,1.59,11.191c0,0,2.178,8.608,5.67,12.911,2.67,3.306,5.365,6.893,7.161,9.145a9.362,9.362,0,0,0,2.645,2.183l9.17,2.164a14.433,14.433,0,0,1,9.787,7.174c1.179,2.064,1.447,8.1,1.434,13.878-.006,2.489-.068,4.934-.125,6.993a67.448,67.448,0,0,0,2.638,19.312c.405,1.428.706,4.429.144,5.8" transform="translate(7.253 0.671)" fill="#fff"/>
            <path id="Path_877578" data-name="Path 877578" d="M365.416,78.821c-.3,2.231-.629,4.454-.876,6.687q-.435,3.342-.775,6.69c-.45,4.466-.855,8.932-1.125,13.407s-.376,8.952-.391,13.434c.059,2.238.057,4.484.24,6.718.052,2.248.365,4.469.535,6.718-.434-2.206-.861-4.425-1.108-6.667-.3-2.238-.4-4.491-.57-6.744-.2-4.51-.127-9.027.123-13.53.3-4.5.737-8.991,1.4-13.448s1.444-8.9,2.544-13.266" transform="translate(7.749 1.691)" fill="#efefef"/>
            <path id="Path_877579" data-name="Path 877579" d="M374.632,63.981a3.039,3.039,0,0,0-1.091,1.182c.049-2.036.1-4.912.24-5.861-1.96-.377-6.028-1.25-6.643-2.015-2.132-.145-4.149-.766-4.294-2.931s1.571-5.332,3.175-5.515,1.417.863,1.417.863-1.107-.751-1.11.585c-.028.455,1.6.152,1.508-.914.015.756.086.939-.3,1.352.371.334,1.435-.053,2.228-.209a5.109,5.109,0,0,1,3.676,1.078c.949-.748,5.674-.095,6.422,4.019.2.772,2.285.754,2.278,4.089s-2.478,11.183-8.364,10.4a4.483,4.483,0,0,1-2.608-1.965l1.862-1.334Z" transform="translate(7.783 1.047)" fill="#122030"/>
            <path id="Path_877580" data-name="Path 877580" d="M365.379,76.9c3.065,1.293,5.634-.269,7.835-2.33-1.5-1.418.37-6.451.37-6.451s-6.654,1.337-8.623,2.349c-.035.215-.066.407-.1.57-.156.762-.337,1.062-.532,1.205a.863.863,0,0,1-.346.131s-1.671,3.232,1.4,4.526" transform="translate(7.798 1.461)" fill="#ebc4a6"/>
            <path id="Path_877581" data-name="Path 877581" d="M363.4,57.661c-.1.319-.216.668-.328,1.048-.169.564-.336,1.188-.493,1.849-.032.128-.066.263-.1.4-.833,3.733-1.134,8.448,2,10.2,3.423,1.615,8.987-2.7,9.135-2.758a2.235,2.235,0,0,0,3.151-1.862c.153-2.021-2.358-1.567-2.358-1.567.486-1.065,1.633-4.808,1.633-4.808L371.73,55.22l-7.68.666s-.286.684-.648,1.775" transform="translate(7.763 1.184)" fill="#ebc4a6"/>
            <path id="Path_877582" data-name="Path 877582" d="M373.422,67.352a.154.154,0,0,1,.005-.093,6.212,6.212,0,0,1,.449-1.276,1.116,1.116,0,0,1,.572-.59,1.1,1.1,0,0,1,.593,0,1.562,1.562,0,0,1,.567.228c.725.513.131,1.5-.483,1.806a1.819,1.819,0,0,1-1.648-.016.139.139,0,0,1-.056-.06" transform="translate(8.01 1.402)" fill="#d7a281"/>
            <path id="Path_877583" data-name="Path 877583" d="M364.974,65.661c-1.23-.013-.014-2.559-.014-2.559.135-.417.429-.39.537.584s.415,1.985-.523,1.974" transform="translate(7.817 1.348)" fill="#d7a281"/>
            <path id="Path_877584" data-name="Path 877584" d="M366.6,67.021l-2.491-.175s.037,1.275.832,1.528,1.512-.175,1.659-1.353" transform="translate(7.81 1.434)" fill="#fff"/>
            <path id="Path_877585" data-name="Path 877585" d="M367.919,62.065a.732.732,0,1,0,.964-.548.79.79,0,0,0-.964.548" transform="translate(7.891 1.319)" fill="#122030"/>
            <path id="Path_877586" data-name="Path 877586" d="M362.885,61.142a.732.732,0,1,0,.964-.547.789.789,0,0,0-.964.547" transform="translate(7.783 1.299)" fill="#122030"/>
            <path id="Path_877587" data-name="Path 877587" d="M367.7,58.97a3.771,3.771,0,0,0,.82,1.169c.1.064,2.791.086,3.362,1.57-.158-1.024-.2-2.8-4.182-2.739" transform="translate(7.887 1.265)" fill="#122030"/>
            <path id="Path_877588" data-name="Path 877588" d="M363.378,57.61c-.1.319-.216.668-.328,1.048a9.8,9.8,0,0,1,1.416.436,3.576,3.576,0,0,0,1.149-.7,5.4,5.4,0,0,0-2.237-.779" transform="translate(7.788 1.236)" fill="#122030"/>
            <path id="Path_877589" data-name="Path 877589" d="M363.214,55.54c.739,1.842,4.6,2.873,7.674,2.122,1.367-.283,3.256-.07,3.051,1.744-.092.689-1.743,5.837.446,5.623s2.937-3.607,2.937-3.607.151-2.8.181-3.095a29.123,29.123,0,0,0-2.42-3.367l-3.128-1.579-2.62-.819-5.85,2.727s-.306.165-.272.251" transform="translate(7.791 1.127)" fill="#122030"/>
            <path id="Path_877590" data-name="Path 877590" d="M370.006,63.336a.1.1,0,1,0,.133-.063.1.1,0,0,0-.133.063" transform="translate(7.937 1.357)" fill="#181818"/>
            <path id="Path_877591" data-name="Path 877591" d="M364.31,72.216c3.521.522,5.293-.44,6.9-2.635-2.264,2.47-5.764,1.6-6.372,1.429-.156.763-.338,1.063-.532,1.206" transform="translate(7.815 1.493)" fill="#d7a281"/>
            <path id="Path_877592" data-name="Path 877592" d="M379.038,92.064s20.312,6.607,23.4,2.239.526-13.005.526-13.005-24.765-6.041-30.016-6.89L374.88,82" transform="translate(8 1.596)" fill="#fff"/>
            <path id="Path_877593" data-name="Path 877593" d="M403.344,94.766a4.23,4.23,0,0,1-2.552,1.135h-.006c-7.747,1.522-29.073-1.522-29.073-1.522l18.745-10.067s-1.06-6.1-1.347-8.227c-.811-5.977-1.6-15.645-1.6-15.645l4.76-.986,1.5-.305s15.121,28.162,9.581,35.617" transform="translate(7.973 1.269)" fill="#fff"/>
            <path id="Path_877594" data-name="Path 877594" d="M366.625,74.847,364.388,76.7l.192,1.526a7.623,7.623,0,0,0,2.065.682l.837-1.115Z" transform="translate(7.816 1.606)" fill="#ce4141"/>
            <path id="Path_877595" data-name="Path 877595" d="M373.759,74.663s-.837-1.6-1.186-2.307a7.4,7.4,0,0,1-5.995,2.544l.462,3.471a7.568,7.568,0,0,0,2.783-.564c3.227-1.17,3.936-3.144,3.936-3.144" transform="translate(7.863 1.552)" fill="#efefef"/>
            <path id="Path_877596" data-name="Path 877596" d="M366.666,74.919l-2.131,2.694s-2.909-1.73-1.793-6.14l1.985.084a2.935,2.935,0,0,0,1.939,3.363" transform="translate(7.776 1.533)" fill="#efefef"/>
            <path id="Path_877597" data-name="Path 877597" d="M364.76,78.153s-10.878,13.157-8.394,27.088c1.245,6.981,7.082,13.211,8.545,14.682a1.033,1.033,0,0,0,.795.3l6.033-.344a1.04,1.04,0,0,0,.981-1.09l-.3-6.069a1.037,1.037,0,0,0-.668-.922,14.356,14.356,0,0,1-7.742-6.983c-4.382-9.2,2.812-25.981,2.812-25.981Z" transform="translate(7.636 1.676)" fill="#de514d"/>
            <path id="Path_877598" data-name="Path 877598" d="M387.568,54.763a1.479,1.479,0,0,1,1.215.574.6.6,0,0,1,.082.4.728.728,0,0,1-.188.35,1.884,1.884,0,0,1-.574.413,3.755,3.755,0,0,1-2.632.2,5.5,5.5,0,0,0,1.293-.088,4.651,4.651,0,0,0,1.207-.382c.356-.172.784-.451.6-.78a1.674,1.674,0,0,0-1-.684" transform="translate(8.268 1.175)" fill="#d7a281"/>
            <path id="Path_877599" data-name="Path 877599" d="M384.69,55.124a4.229,4.229,0,0,1,1.9-1.647,5.773,5.773,0,0,1,1.217-.38,5.24,5.24,0,0,1,1.262-.078,11.2,11.2,0,0,0-2.353.732,6.921,6.921,0,0,0-1.065.593,6.1,6.1,0,0,0-.961.778" transform="translate(8.252 1.137)" fill="#d7a281"/>
            <path id="Path_877600" data-name="Path 877600" d="M384.212,53.391a4.256,4.256,0,0,1,1.934-1.561,6.279,6.279,0,0,1,1.208-.348,5.488,5.488,0,0,1,1.246-.066,12.76,12.76,0,0,0-2.336.694,7.336,7.336,0,0,0-1.073.552,6.164,6.164,0,0,0-.98.73" transform="translate(8.242 1.103)" fill="#d7a281"/>
            <path id="Path_877601" data-name="Path 877601" d="M383.727,51.916a4.26,4.26,0,0,1,1.933-1.561,6.309,6.309,0,0,1,1.209-.348,5.487,5.487,0,0,1,1.246-.066,12.76,12.76,0,0,0-2.336.694,7.335,7.335,0,0,0-1.073.552,6.167,6.167,0,0,0-.98.73" transform="translate(8.231 1.071)" fill="#d7a281"/>
            <path id="Path_877602" data-name="Path 877602" d="M386.409,55.459a4.927,4.927,0,0,1,1.327-.779,6.773,6.773,0,0,1,.736-.232,3.532,3.532,0,0,1,.769-.1c-.464.24-.932.406-1.393.609a14.645,14.645,0,0,1-1.439.5" transform="translate(8.289 1.166)" fill="#d7a281"/>
            <path id="Path_877603" data-name="Path 877603" d="M388.255,71.693c.475,2.293.8,4.6,1.176,6.906l.995,6.931A53.439,53.439,0,0,1,389,78.663c-.322-2.315-.627-4.631-.745-6.97" transform="translate(8.328 1.538)" fill="#efefef"/>
            <path id="Path_877604" data-name="Path 877604" d="M402.913,94.766a4.23,4.23,0,0,1-2.552,1.135c.138-.056,1.959-.892,1.548-6.973-.437-6.325-10.074-29.473-10.074-29.473l1.5-.305s15.121,28.162,9.581,35.617" transform="translate(8.405 1.269)" fill="#efefef"/>
            <path id="Path_877605" data-name="Path 877605" d="M386.726,127.129c-.462,1.129-1.572,3.443-1.616,4.528s-4.335,1.26-7.186,1.317c-.112,0-.224.006-.342,0a14.159,14.159,0,0,0,4.434-1.385c1.248-.549,3.044-2.339,2.882-6.237s-2.333-8.733-3.119-14.272-.064-16.276-.064-16.276l2.353.22c-.006,2.489-.068,4.934-.125,6.993a67.446,67.446,0,0,0,2.638,19.312c.405,1.428.706,4.429.144,5.8" transform="translate(8.099 2.034)" fill="#efefef"/>
            <path id="Path_877606" data-name="Path 877606" d="M351.244,91.893c-7.853-16.7-12.194-28.849-12.194-28.849-1.66-4.654-.93-24.3,1.247-31.488a15.4,15.4,0,0,1,1.693-.2,117.814,117.814,0,0,0-1.412,29.832c.811,8.15,10,24.19,10.666,30.708" transform="translate(7.253 0.673)" fill="#efefef"/>
            <path id="Path_877607" data-name="Path 877607" d="M376.16,174.034a57.177,57.177,0,0,1,.962,7.094,38.132,38.132,0,0,1,0,7.162l-.626-7.114c-.174-2.373-.337-4.748-.34-7.142" transform="translate(8.069 3.733)" fill="#294878"/>
            <path id="Path_877608" data-name="Path 877608" d="M161.345,360.451l.936-2.508,5.689,1.607-1,3.85-2.09,3.784s-4.568-1.132-4.581-1.232.078-4.81.078-4.81Z" transform="translate(3.438 7.678)" fill="#ebc4a6"/>
            <path id="Path_877609" data-name="Path 877609" d="M161.389,360.4s-.912,1.006-.594,1.918.9-.059,2.644-.12,3.615.8,4,1.7.359,2.763.366,4.8,1.573,4.3,1.511,5.66a9.866,9.866,0,0,1-.382,3.04c-.285.633-4.454,1.708-9.569-1.363,0,0-1-.584.2-3.272s-1.5-2.642-1.317-5.819,2.222-7.039,3.145-6.543" transform="translate(3.394 7.73)" fill="#122030"/>
            <path id="Path_877610" data-name="Path 877610" d="M158.482,365.179a8.57,8.57,0,0,0,.894,2.4c.557.818,1.583,1.751,1.629,2.669s-.828,2.03-.946,2.9,1.033,2.149,3.034,2.825,5.209.629,6.112.131c0,0-.122,1.7-.5,2.035s-1.6.514-4.649.246-5.317-1.848-5.386-2.86,1.011-3.673.947-4.373-1.591-2.482-1.6-3.017.026-2.443.466-2.957" transform="translate(3.389 7.833)" fill="#fff"/>
            <path id="Path_877611" data-name="Path 877611" d="M174.97,361.763l-2.268-5.087,6.277-2.568,2.229,6.465.718,4.264s-4.28,1.955-4.353,1.885-2.932-3.814-2.932-3.814Z" transform="translate(3.705 7.596)" fill="#ebc4a6"/>
            <path id="Path_877612" data-name="Path 877612" d="M174.932,361.64s.2,1.693,1.018,2.208.174-1.836,1.5-2.97,3.5-1.541,4.392-.26c.562.8,1.821,2.546,3.091,4.134s4.083,1.779,4.883,2.887a5.7,5.7,0,0,1,.972,2.559c.172.673-.587,4.228-6.5,5.006a3.832,3.832,0,0,1-3.355-2.683c-1.056-2.747-2.558-1.2-4.394-3.8s-2.639-6.893-1.608-7.08" transform="translate(3.743 7.718)" fill="#122030"/>
            <path id="Path_877613" data-name="Path 877613" d="M185.53,374.247c-.654.069-2.309.244-3.618-2.317-1.339-2.62-2.671-.925-4.77-3.317a12.282,12.282,0,0,1-2.643-5.487,12.46,12.46,0,0,0,2.041,5.523c1.836,2.6,3.338,1.052,4.394,3.8,1.032,2.684,2.844,2.737,3.915,2.667,4.11-.27,5.149-2.38,5.708-3.7a7.013,7.013,0,0,1-5.027,2.834" transform="translate(3.743 7.789)" fill="#fff"/>
            <path id="Path_877614" data-name="Path 877614" d="M156.047,269.122s-8.612,13.81-10.944,18.7c-2.091,4.387-5.251,13.934-1.843,19.351s6.649,5.477,6.649,5.477,5.325,18.885,7.018,23.1a135.673,135.673,0,0,0,6.386,13.523l-1.778,9.634a6.289,6.289,0,0,0,3.972,3.454,9,9,0,0,0,4.856-.49l.819-2.5,1.458,1.886s4.117-.026,5.793-1a13.153,13.153,0,0,0,3.369-3.1l-2.824-9.121s16.863-35.158,17.555-40.948a44.188,44.188,0,0,0-3.373-22.909c-.359-.9-9.348-15.047-9.348-15.047s-18.576,2.848-27.764,0" transform="translate(3.041 5.773)" fill="#122030"/>
            <path id="Path_877615" data-name="Path 877615" d="M171.149,210.528s-9.946-.271-12.593,10.879c-.829,3.337-4.98,9.239-9.223,9.886s-11.159,5.164-9.591,13.557c.554,3.413-2.029,6.18-7.47,10.514s-12.359,25.916,15.863,26.193c13.65.461,29.806-1.5,39.751-1.5,16.9,0,19.483-10.632,11.72-23.943-2.891-4.957,2.451-7.289-4.527-13.477-4.637-4.111-3.781-7.193-4.15-10.791s-6.272-5.851-7.1-8.136.467-13.434-12.677-13.182" transform="translate(2.732 4.516)" fill="#122030"/>
            <path id="Path_877616" data-name="Path 877616" d="M189.481,278.98a30.059,30.059,0,0,0,5.762-.923,15.433,15.433,0,0,0,5.232-2.4,9.174,9.174,0,0,0,3.351-4.522,12.26,12.26,0,0,0,.372-5.681,22.6,22.6,0,0,0-1.609-5.568,34.937,34.937,0,0,0-2.712-5.169,7.229,7.229,0,0,1-1.088-2.738,13.652,13.652,0,0,1-.049-2.944,7.822,7.822,0,0,0-.293-2.857,7.492,7.492,0,0,0-1.419-2.483,15.466,15.466,0,0,0-2.073-2.023,17.433,17.433,0,0,1-2.169-2.011,9.894,9.894,0,0,1-1.66-2.483,10.351,10.351,0,0,1-.8-2.883c-.142-.982-.2-1.961-.316-2.919a5.256,5.256,0,0,0-.29-1.36,4.721,4.721,0,0,0-.7-1.185,24.091,24.091,0,0,0-4.444-3.677,5.737,5.737,0,0,1-2.051-2.259c-.308-1-.41-1.947-.618-2.9a13.856,13.856,0,0,0-2.122-5.319,9.046,9.046,0,0,0-4.589-3.309,16.282,16.282,0,0,0-5.757-.675l0-.055a15.755,15.755,0,0,1,5.844.47,9.38,9.38,0,0,1,4.829,3.332,14.309,14.309,0,0,1,2.315,5.442c.234.948.356,1.959.628,2.824a5.311,5.311,0,0,0,1.868,1.994,23.165,23.165,0,0,1,4.556,3.778,5.3,5.3,0,0,1,.771,1.336,5.753,5.753,0,0,1,.31,1.5c.11.982.157,1.957.287,2.911a9.3,9.3,0,0,0,2.264,5.158,17.2,17.2,0,0,0,2.084,2.013,15.873,15.873,0,0,1,2.074,2.109,7.79,7.79,0,0,1,1.432,2.6,8.075,8.075,0,0,1,.262,2.945,13.482,13.482,0,0,0,.005,2.906,6.678,6.678,0,0,0,1.077,2.663,29.877,29.877,0,0,1,4.612,10.77,12.274,12.274,0,0,1-.365,5.906A9.633,9.633,0,0,1,200.725,276a15.293,15.293,0,0,1-5.411,2.339,28.076,28.076,0,0,1-5.83.7Z" transform="translate(3.634 4.517)" fill="#202029"/>
            <path id="Path_877617" data-name="Path 877617" d="M170.087,210.766a12.734,12.734,0,0,0-8.509,4.038A14.5,14.5,0,0,0,159,218.821a17.885,17.885,0,0,0-.808,2.258,11.654,11.654,0,0,1-.915,2.32,19.231,19.231,0,0,1-2.842,4.059,13.333,13.333,0,0,1-3.933,3.087,7.4,7.4,0,0,1-2.454.712,10.532,10.532,0,0,0-2.251.612,12.683,12.683,0,0,0-3.968,2.478,10.519,10.519,0,0,0-2.631,3.8,10.7,10.7,0,0,0-.7,4.57c.012.389.065.782.11,1.175a6.971,6.971,0,0,1,.014,1.33,6.232,6.232,0,0,1-.827,2.484,15.208,15.208,0,0,1-3.325,3.751c-1.245,1.082-2.565,2.049-3.886,3.005a11.477,11.477,0,0,0-3.018,3.573,17.646,17.646,0,0,0-2.444,9.146,11.62,11.62,0,0,0,3.865,8.476A18.958,18.958,0,0,0,137.6,279.8a42.4,42.4,0,0,0,9.63,1,69.947,69.947,0,0,0,9.653-1c6.4-1.056,12.734-2.516,19.027-4.11s12.568-3.3,18.779-5.161l-.408.5a144.3,144.3,0,0,0,.557-17.685c-.07-1.468-.183-2.933-.388-4.375a15.377,15.377,0,0,0-1.06-4.129c-.265-.575-.734-1.2-1.124-1.843s-.78-1.29-1.123-1.969a14.983,14.983,0,0,1-1.506-4.325,21.005,21.005,0,0,1-.25-2.26,14.075,14.075,0,0,0-.2-2.118,7.849,7.849,0,0,0-2.455-3.336c-1.075-.992-2.271-1.87-3.313-3.03a4.387,4.387,0,0,1-.677-1.008,4.8,4.8,0,0,1-.3-1.163c-.122-.741-.222-1.466-.367-2.183a14.386,14.386,0,0,0-1.409-4.106,9.946,9.946,0,0,0-2.822-3.252,14.825,14.825,0,0,0-8.317-2.478l0-.111A15.079,15.079,0,0,1,178.1,213.9a10.1,10.1,0,0,1,3.058,3.322,14.981,14.981,0,0,1,1.569,4.239c.167.732.287,1.474.422,2.193a4.235,4.235,0,0,0,.269.981,3.666,3.666,0,0,0,.582.815c.963,1.034,2.2,1.892,3.314,2.9a8.626,8.626,0,0,1,2.767,3.721,13.988,13.988,0,0,1,.26,2.3,20.032,20.032,0,0,0,.269,2.155,13.948,13.948,0,0,0,1.468,4.019c.334.64.714,1.263,1.106,1.877a21.823,21.823,0,0,1,1.212,1.937,16.012,16.012,0,0,1,1.177,4.446c.217,1.493.336,2.988.412,4.481a133.467,133.467,0,0,1-.546,17.852l-.036.389-.371.107a301.639,301.639,0,0,1-38.041,8.809,70.23,70.23,0,0,1-9.749.834,45.79,45.79,0,0,1-9.718-1.111,20.31,20.31,0,0,1-8.784-4.216A12.03,12.03,0,0,1,125.782,272a13.161,13.161,0,0,1-1.156-4.8,18.234,18.234,0,0,1,2.313-9.521,12.228,12.228,0,0,1,3.154-3.886c1.294-.974,2.565-1.977,3.77-3.034a14.363,14.363,0,0,0,3.1-3.524,5.287,5.287,0,0,0,.692-2.11,6.048,6.048,0,0,0-.019-1.1c-.051-.415-.109-.827-.127-1.251a11.235,11.235,0,0,1,.792-4.987,11.461,11.461,0,0,1,2.9-4.126,13.605,13.605,0,0,1,4.28-2.622,11.36,11.36,0,0,1,2.449-.64,6.506,6.506,0,0,0,2.211-.618,13.085,13.085,0,0,0,3.743-2.839,18.605,18.605,0,0,0,2.82-3.848,10.951,10.951,0,0,0,.916-2.189,18.423,18.423,0,0,1,.876-2.314,14.344,14.344,0,0,1,2.78-4.077,12.989,12.989,0,0,1,8.81-3.862Z" transform="translate(2.673 4.519)" fill="#202029"/>
            <path id="Path_877618" data-name="Path 877618" d="M198.148,262.3s4.563,19.154-6.616,22.541-10.41-20.16-10.41-20.16l15.332-9.913Z" transform="translate(3.885 5.465)" fill="#ebc4a6"/>
            <path id="Path_877619" data-name="Path 877619" d="M184.005,237.268a13.119,13.119,0,0,1,8.577,6.825c2.706,5.656,6.394,17.092,6.394,17.092a18.14,18.14,0,0,1-11.19,3.2c-6.272-.492-3.781-27.115-3.781-27.115" transform="translate(3.937 5.09)" fill="#de514d"/>
            <path id="Path_877620" data-name="Path 877620" d="M187.651,250.237s.378,32.964.993,43.047c-6.272,1.353-19.618,5.491-38.924-1.518.492-13.281.057-41.529.057-41.529l2.951-11.218s18.907-.584,19.414-.584,12.589-1.169,12.589-1.169Z" transform="translate(3.212 5.089)" fill="#de514d"/>
            <path id="Path_877621" data-name="Path 877621" d="M186.255,237.967c-.224,2.469-1.858,4.25-4.3,5.456-.156.077-.314.153-.476.225-5.546,2.473-14.744,2.244-21.257.467-.161-.043-.319-.086-.476-.134-3.865-1.114-6.7-2.792-7.082-4.76.982-.638,4.032-1.53,7.082-2.306l.476-.124c1.649-.415,3.269-.8,4.527-1.078,3.626-.814,1.543-7.471,1.472-7.7l8.487,3.369s-.553,2.4.4,3.135c.581.454,3.5,1.187,6.376,1.968.157.048.32.091.476.134,1.639.452,3.222.915,4.3,1.348" transform="translate(3.275 4.891)" fill="#ebc4a6"/>
            <path id="Path_877622" data-name="Path 877622" d="M174.3,233.4a6.679,6.679,0,0,1,.124-2.015l-8.486-3.369a16.2,16.2,0,0,1,.615,3.111,7.086,7.086,0,0,0,4.54,2.7,5.409,5.409,0,0,0,3.207-.43" transform="translate(3.559 4.891)" fill="#d7a281"/>
            <path id="Path_877623" data-name="Path 877623" d="M160.07,236.6v7.324c-.161-.043-.319-.086-.476-.133v-7.067Z" transform="translate(3.423 5.075)" fill="#202222"/>
            <path id="Path_877624" data-name="Path 877624" d="M181.348,236.44v6.8c-.157.076-.315.152-.476.224v-7.162c.156.048.319.091.476.134" transform="translate(3.88 5.069)" fill="#202222"/>
            <path id="Path_877625" data-name="Path 877625" d="M179.025,220.994s.733,12.875-7.172,12.142c-3.423-.652-4.971-2.037-5.867-4.89-1.467-.326-3.9-2.129-2.282-4.319a1.49,1.49,0,0,1,2.364.244c.57-1.874,3.749-6.7,3.749-6.7l3.687-.672,3.647.612Z" transform="translate(3.5 4.65)" fill="#ebc4a6"/>
            <path id="Path_877626" data-name="Path 877626" d="M179.085,221.271a3.8,3.8,0,0,0-1.727-.663,3.1,3.1,0,0,0-.562-2.331,3.893,3.893,0,0,1,.038,2.248,19.646,19.646,0,0,0-3.063-.11,3.944,3.944,0,0,0-.55-2.138,3.35,3.35,0,0,1-.092,2.23,9.389,9.389,0,0,0-2.529.464,2.807,2.807,0,0,0-.651-2.081,5.016,5.016,0,0,1,.06,2.268c-1.049.353-1.92.738-2.17.849-.641,2.106-2.463.263-2.463.263s-6.464-.558-3.282-6.559c2.91-5.487,9.408-5.653,12.466-4.794,5.86,1.645,4.77,10.386,4.524,10.354" transform="translate(3.458 4.516)" fill="#122030"/>
            <path id="Path_877627" data-name="Path 877627" d="M166.912,227.409s-.9-4.232-2.623-2.73c-1.088.947.733,2.3,1.492,1.835l1.022-.963" transform="translate(3.517 4.813)" fill="#d7a281"/>
            <path id="Path_877628" data-name="Path 877628" d="M167.74,221.775s.061,5.99,1.772,6.967a4.772,4.772,0,0,1-2.261.428,6.937,6.937,0,0,1-.488-2.689,9.432,9.432,0,0,0,.285,2.7l-.51.029a13.325,13.325,0,0,1-.509-5.623c.167-1.633.611-2.3.774-2.342s.937.529.937.529" transform="translate(3.56 4.746)" fill="#122030"/>
            <path id="Path_877629" data-name="Path 877629" d="M171.99,227.614l3.571-.25s-.052,1.827-1.193,2.191-2.166-.251-2.378-1.941" transform="translate(3.689 4.877)" fill="#fff"/>
            <path id="Path_877630" data-name="Path 877630" d="M174.111,226.482c1.293-.165-.3-2.7-.3-2.7-.193-.424-.5-.359-.493.681s-.193,2.142.794,2.015" transform="translate(3.717 4.795)" fill="#d7a281"/>
            <path id="Path_877631" data-name="Path 877631" d="M170.846,223.161a.851.851,0,1,1-.9.8.852.852,0,0,1,.9-.8" transform="translate(3.645 4.787)" fill="#122030"/>
            <path id="Path_877632" data-name="Path 877632" d="M176.443,222.792a.851.851,0,1,1-.9.8.851.851,0,0,1,.9-.8" transform="translate(3.765 4.779)" fill="#122030"/>
            <path id="Path_877633" data-name="Path 877633" d="M169.452,222.637c.006-.008.012-.015.017-.023l-.02.028a1.611,1.611,0,0,1,.283-.283l-.029.022a1.729,1.729,0,0,1,.387-.226l-.035.014a1.871,1.871,0,0,1,.362-.11l.107-.017-.04.005a1.832,1.832,0,0,1,.367-.011c.034,0,.068.006.1.011l-.042-.006a1.529,1.529,0,0,1,.181.035c.031.007.06.015.09.025s.058.017.088.025l.05.015.025.008h.005l.039.005.039-.005.011,0-.037.005.05-.006a.117.117,0,0,0,.055-.014.111.111,0,0,0,.039-.04.107.107,0,0,0,0-.11c-.008-.013-.017-.027-.027-.04a.185.185,0,0,0-.066-.065l-.026-.013-.053-.025a.662.662,0,0,0-.088-.037,1.551,1.551,0,0,0-.227-.051,1.876,1.876,0,0,0-.5-.013,2.017,2.017,0,0,0-.489.115,1.879,1.879,0,0,0-.644.4,1.751,1.751,0,0,0-.173.2l-.035.048a.135.135,0,0,0-.014.1.141.141,0,0,0,.062.081.134.134,0,0,0,.1.014l.033-.014a.135.135,0,0,0,.048-.048" transform="translate(3.629 4.756)" fill="#202029"/>
            <path id="Path_877634" data-name="Path 877634" d="M175.32,221.939c.035-.03.07-.059.107-.088l-.027.021a2.173,2.173,0,0,1,.2-.137c.068-.042.136-.085.207-.123.041-.02.082-.041.124-.058l-.042.017a1.375,1.375,0,0,1,.349-.1l-.051.007a1.4,1.4,0,0,1,.174-.011,1.255,1.255,0,0,1,.175.009l-.052-.006a1.024,1.024,0,0,1,.27.073l-.046-.019a.485.485,0,0,1,.047.021l.091.041-.047-.019a.872.872,0,0,1,.146.078c.022.014.045.031.066.046a.259.259,0,0,0,.069.028l.034.013-.031-.013.009,0a.146.146,0,0,0,.062.017.125.125,0,0,0,.075-.027.121.121,0,0,0,.038-.05.062.062,0,0,0,.008-.031.089.089,0,0,0,0-.049.555.555,0,0,0-.016-.074.267.267,0,0,0-.062-.1.271.271,0,0,0-.027-.032,1.119,1.119,0,0,0-.159-.136.391.391,0,0,0-.073-.041,1.2,1.2,0,0,0-.117-.049.882.882,0,0,0-.161-.046,1.412,1.412,0,0,0-.217-.028.911.911,0,0,0-.166.005,1.437,1.437,0,0,0-.218.043,1.478,1.478,0,0,0-.216.081,1.857,1.857,0,0,0-.386.239l.033-.026a1.468,1.468,0,0,0-.188.178,2.086,2.086,0,0,0-.144.171.076.076,0,0,0-.024.038.08.08,0,0,0-.01.046.119.119,0,0,0,.035.084.122.122,0,0,0,.084.035.129.129,0,0,0,.084-.035" transform="translate(3.756 4.742)" fill="#202029"/>
            <path id="Path_877635" data-name="Path 877635" d="M139.861,262.977s-1.967,22.011,14.265,22.38c6.887-.245,17.553,13.669,21.2-11.048" transform="translate(2.998 5.641)" fill="#ebc4a6"/>
            <path id="Path_877636" data-name="Path 877636" d="M152.964,238.983c-3.443,1.507-12.3,8.638-14.265,25.116,3.812,1.845,8.977,5.042,18.814,2.091.246-6.763,0-13,0-13Z" transform="translate(2.975 5.126)" fill="#de514d"/>
            <path id="Path_877637" data-name="Path 877637" d="M150.866,244.456a.681.681,0,1,1-.682-.681.682.682,0,0,1,.682.681" transform="translate(3.207 5.229)" fill="#fff"/>
            <path id="Path_877638" data-name="Path 877638" d="M151.846,253.88a.681.681,0,1,1-.681-.68.681.681,0,0,1,.681.68" transform="translate(3.228 5.431)" fill="#fff"/>
            <path id="Path_877639" data-name="Path 877639" d="M144.406,253.214a.681.681,0,1,1-.681-.681.681.681,0,0,1,.681.681" transform="translate(3.068 5.417)" fill="#fff"/>
            <path id="Path_877640" data-name="Path 877640" d="M143.006,261.618a.681.681,0,1,1-.681-.681.681.681,0,0,1,.681.681" transform="translate(3.038 5.597)" fill="#fff"/>
            <path id="Path_877641" data-name="Path 877641" d="M159.442,247.4a.681.681,0,1,1-.681-.681.681.681,0,0,1,.681.681" transform="translate(3.391 5.292)" fill="#fff"/>
            <path id="Path_877642" data-name="Path 877642" d="M163.143,256.934a.681.681,0,1,1-.681-.681.681.681,0,0,1,.681.681" transform="translate(3.47 5.497)" fill="#fff"/>
            <path id="Path_877643" data-name="Path 877643" d="M169.468,251.243a.681.681,0,1,1-.681-.681.681.681,0,0,1,.681.681" transform="translate(3.606 5.375)" fill="#fff"/>
            <path id="Path_877644" data-name="Path 877644" d="M185.716,256.8a.681.681,0,1,1-.681-.681.681.681,0,0,1,.681.681" transform="translate(3.954 5.494)" fill="#fff"/>
            <path id="Path_877645" data-name="Path 877645" d="M174.716,259.529a.681.681,0,1,1-.68-.681.681.681,0,0,1,.68.681" transform="translate(3.719 5.552)" fill="#fff"/>
            <path id="Path_877646" data-name="Path 877646" d="M192.309,248.07a.681.681,0,1,1-.681-.681.681.681,0,0,1,.681.681" transform="translate(4.096 5.307)" fill="#fff"/>
            <path id="Path_877647" data-name="Path 877647" d="M178.3,254.867a.681.681,0,1,1-.681-.681.681.681,0,0,1,.681.681" transform="translate(3.795 5.452)" fill="#fff"/>
            <path id="Path_877648" data-name="Path 877648" d="M184.213,281.348a.681.681,0,1,1-.682-.681.682.682,0,0,1,.682.681" transform="translate(3.922 6.02)" fill="#fff"/>
            <path id="Path_877649" data-name="Path 877649" d="M177.338,289.9a.681.681,0,1,1-.68-.68.681.681,0,0,1,.68.68" transform="translate(3.775 6.204)" fill="#fff"/>
            <path id="Path_877650" data-name="Path 877650" d="M168.853,286.163a.681.681,0,1,1-.681-.681.68.68,0,0,1,.681.681" transform="translate(3.593 6.124)" fill="#fff"/>
            <path id="Path_877651" data-name="Path 877651" d="M159.442,292.13a.681.681,0,1,1-.681-.681.681.681,0,0,1,.681.681" transform="translate(3.391 6.252)" fill="#fff"/>
            <path id="Path_877652" data-name="Path 877652" d="M149.748,287.9a.681.681,0,1,1-.68-.68.681.681,0,0,1,.68.68" transform="translate(3.183 6.161)" fill="#fff"/>
            <path id="Path_877653" data-name="Path 877653" d="M177.609,248.094a.681.681,0,1,1-.68-.681.681.681,0,0,1,.68.681" transform="translate(3.781 5.307)" fill="#fff"/>
            <path id="Path_877654" data-name="Path 877654" d="M192.976,288.567a.681.681,0,1,1-.681-.681.681.681,0,0,1,.681.681" transform="translate(4.11 6.175)" fill="#fff"/>
            <path id="Path_877655" data-name="Path 877655" d="M184.879,244.456a.681.681,0,1,1-.68-.681.681.681,0,0,1,.68.681" transform="translate(3.937 5.229)" fill="#fff"/>
            <path id="Path_877656" data-name="Path 877656" d="M195.107,257.209a.681.681,0,1,1-.681-.681.682.682,0,0,1,.681.681" transform="translate(4.156 5.503)" fill="#fff"/>
            <path id="Path_877657" data-name="Path 877657" d="M151.514,266.742a17.948,17.948,0,0,1,.149-3.15c.122-1.045.321-2.077.514-3.109a46.039,46.039,0,0,1,1.681-6.063c-.344,2.074-.82,4.108-1.216,6.16-.231,1.018-.422,2.044-.619,3.068s-.379,2.051-.51,3.094" transform="translate(3.25 5.457)" fill="#fff"/>
            <path id="Path_877658" data-name="Path 877658" d="M187.826,253.555c.546,1.716.912,3.467,1.293,5.214.327,1.759.669,3.515.827,5.31-.547-1.714-.913-3.466-1.293-5.216-.326-1.759-.667-3.517-.827-5.308" transform="translate(4.029 5.439)" fill="#fff"/>
            <g id="Group_1102657" data-name="Group 1102657" transform="translate(154.217 269.517)" opacity="0.5" style="mix-blend-mode: multiply;isolation: isolate">
              <g id="Group_1102656" data-name="Group 1102656">
                <g id="Group_1102655" data-name="Group 1102655" clip-path="url(#clip-path-11)">
                  <path id="Path_877659" data-name="Path 877659" d="M150.978,273.527c1.16-1.738,2.442-3.386,3.737-5.022a46.744,46.744,0,0,1,4.2-4.647c-1.33,1.608-2.631,3.231-3.933,4.86-1.325,1.609-2.619,3.242-4,4.809" transform="translate(-150.978 -263.857)" fill="#b7717c"/>
                </g>
              </g>
            </g>
            <path id="Path_877660" data-name="Path 877660" d="M196.547,294.96H143.7V260.848a1.449,1.449,0,0,1,1.448-1.448H195.1a1.449,1.449,0,0,1,1.448,1.448Z" transform="translate(3.082 5.564)" fill="#e2eaf6"/>
            <rect id="Rectangle_404913" data-name="Rectangle 404913" width="52.851" height="1.654" transform="translate(146.778 300.524)" fill="#ced9e8"/>
            <path id="Path_877661" data-name="Path 877661" d="M174.73,276.912a5.058,5.058,0,1,1-5.057-5.057,5.058,5.058,0,0,1,5.057,5.057" transform="translate(3.531 5.831)" fill="#ced9e8"/>
            <path id="Path_877662" data-name="Path 877662" d="M149.879,311.982a12.226,12.226,0,0,1-1.158-2.684,12.044,12.044,0,0,1-.563-2.868,12.062,12.062,0,0,1,1.158,2.684,12.219,12.219,0,0,1,.563,2.868" transform="translate(3.178 6.573)" fill="#294878"/>
            <path id="Path_877663" data-name="Path 877663" d="M163.1,347.634c1.325,1.534,2.52,3.148,3.718,4.759l1.773,2.432c.6.807,1.169,1.63,1.791,2.429a24.521,24.521,0,0,1-4.065-4.491,37.8,37.8,0,0,1-3.217-5.129" transform="translate(3.499 7.457)" fill="#294878"/>
            <path id="Path_877664" data-name="Path 877664" d="M147.2,296.779s11.5-7.372,16.918-.965c3.791,4.484,13.688,48.758,13.688,48.758" transform="translate(3.158 6.289)" fill="#122030"/>
            <path id="Path_877665" data-name="Path 877665" d="M192.227,296.546s-11.107-3.932-15.6.4c-3.267,3.151-6.784,16.206-6.784,16.206" transform="translate(3.643 6.326)" fill="#122030"/>
            <path id="Path_877666" data-name="Path 877666" d="M147.971,296.193a25.936,25.936,0,0,1,7.981-2.954,11.661,11.661,0,0,1,4.3,0,6.6,6.6,0,0,1,4.9,3.985c.3.652.574,1.315.832,1.98.507,1.336.959,2.686,1.4,4.041.871,2.711,1.666,5.442,2.438,8.179,1.516,5.481,2.908,10.994,4.244,16.518l1.932,8.3,1.8,8.334-4.21-16.519c-1.406-5.5-2.835-11-4.354-16.473-.752-2.737-1.527-5.469-2.376-8.175-.424-1.353-.869-2.7-1.355-4.026-.242-.664-.5-1.324-.778-1.965a6.217,6.217,0,0,0-1.046-1.769,6.4,6.4,0,0,0-3.5-2.062,11.912,11.912,0,0,0-4.18-.086,25.777,25.777,0,0,0-8.02,2.692" transform="translate(3.174 6.286)" fill="#294878"/>
            <path id="Path_877667" data-name="Path 877667" d="M191.146,296.151a49.289,49.289,0,0,0-8.093-.673,16.881,16.881,0,0,0-3.969.474,5.577,5.577,0,0,0-1.758.79,5.26,5.26,0,0,0-1.263,1.441,41.71,41.71,0,0,0-3.446,7.3c-.986,2.527-1.886,5.091-2.772,7.664.633-2.649,1.422-5.257,2.317-7.832a38.184,38.184,0,0,1,3.386-7.477,5.83,5.83,0,0,1,1.437-1.581,6.11,6.11,0,0,1,1.952-.851,15.1,15.1,0,0,1,4.116-.4,36.98,36.98,0,0,1,8.093,1.144" transform="translate(3.643 6.328)" fill="#294878"/>
            <path id="Path_877668" data-name="Path 877668" d="M303.921,108.979H287.391A14.921,14.921,0,0,1,272.47,94.057V77.528a14.922,14.922,0,0,1,14.921-14.922h16.529a14.922,14.922,0,0,1,14.921,14.922V94.057a14.921,14.921,0,0,1-14.921,14.921" transform="translate(5.845 1.343)" fill="#294878"/>
            <path id="Path_877669" data-name="Path 877669" d="M284.63,79.735l5.8,15.733,19.873-20.7" transform="translate(6.105 1.604)" fill="none" stroke="#fff8f3" stroke-linecap="round" stroke-linejoin="round" stroke-width="4.053"/>
            <path id="Path_877670" data-name="Path 877670" d="M97.912,294.039H38.424a5.929,5.929,0,0,1-5.929-5.928v-83.2a5.928,5.928,0,0,1,5.929-5.928H97.912a5.928,5.928,0,0,1,5.929,5.928v83.2a5.929,5.929,0,0,1-5.929,5.928" transform="translate(0.697 4.268)" fill="#294878"/>
            <path id="Path_877671" data-name="Path 877671" d="M71.051,243.721a10.195,10.195,0,1,0,10.194-10.194,10.194,10.194,0,0,0-10.194,10.194" transform="translate(1.524 5.009)" fill="#fff"/>
            <path id="Path_877672" data-name="Path 877672" d="M43.825,270.947a10.195,10.195,0,1,0,10.194-10.194,10.195,10.195,0,0,0-10.194,10.194" transform="translate(0.94 5.593)" fill="#fff"/>
            <path id="Path_877673" data-name="Path 877673" d="M64.214,243.721A10.195,10.195,0,1,1,54.02,233.527a10.194,10.194,0,0,1,10.194,10.194" transform="translate(0.94 5.009)" fill="#fff"/>
            <path id="Path_877674" data-name="Path 877674" d="M91.44,270.947a10.195,10.195,0,1,1-10.194-10.194A10.195,10.195,0,0,1,91.44,270.947" transform="translate(1.524 5.593)" fill="#fff"/>
            <rect id="Rectangle_404914" data-name="Rectangle 404914" width="48.199" height="13.605" transform="translate(44.765 215.601)" fill="#dbe8ec"/>
            <path id="Path_877675" data-name="Path 877675" d="M83.233,243.612l2.455-2.455a1.482,1.482,0,1,0-2.1-2.1l-2.454,2.455-2.455-2.455a1.482,1.482,0,1,0-2.1,2.1l2.455,2.455-2.455,2.455a1.482,1.482,0,1,0,2.1,2.1l2.455-2.455,2.454,2.455a1.482,1.482,0,1,0,2.1-2.1Z" transform="translate(1.634 5.119)" fill="#294878"/>
            <path id="Path_877676" data-name="Path 877676" d="M49.352,241.148a1.5,1.5,0,0,1,0-2.073,1.5,1.5,0,0,1,2.549,1.037,1.5,1.5,0,0,1-.444,1.036,1.388,1.388,0,0,1-1.038.446,1.188,1.188,0,0,1-.563-.12,1.275,1.275,0,0,1-.5-.327m6.905,4.8a1.537,1.537,0,0,0-.444,1.068,1.942,1.942,0,0,0,.12.564,1.583,1.583,0,0,0,.8.8,1.457,1.457,0,0,0,1.156,0,1.662,1.662,0,0,0,.474-.327,2.728,2.728,0,0,0,.327-.472,1.88,1.88,0,0,0,.088-.564,1.556,1.556,0,0,0-.415-1.068,1.585,1.585,0,0,0-2.105,0m2.2-6.89a1.482,1.482,0,0,0-2.1,0l-7,7.005a1.482,1.482,0,1,0,2.095,2.1l7-7.005a1.481,1.481,0,0,0,0-2.1" transform="translate(1.05 5.119)" fill="#294878"/>
            <path id="Path_877677" data-name="Path 877677" d="M58.893,269.386H55.422v-3.471a1.482,1.482,0,0,0-2.964,0v3.471H48.987a1.482,1.482,0,1,0,0,2.964h3.471v3.471a1.482,1.482,0,1,0,2.964,0V272.35h3.471a1.482,1.482,0,1,0,0-2.964" transform="translate(1.019 5.672)" fill="#294878"/>
            <path id="Path_877678" data-name="Path 877678" d="M75.528,267.865a1.481,1.481,0,0,1,1.482-1.482h8.279a1.482,1.482,0,0,1,0,2.964H77.01a1.481,1.481,0,0,1-1.482-1.482m9.761,4.443H77.01a1.482,1.482,0,0,0,0,2.964h8.279a1.482,1.482,0,1,0,0-2.964" transform="translate(1.62 5.714)" fill="#de514d"/>
            <path id="Path_877679" data-name="Path 877679" d="M16.146,103c0,27.93,22.839,50.571,51.011,50.571S118.168,130.928,118.168,103,95.331,52.427,67.157,52.427,16.146,75.068,16.146,103" transform="translate(0.346 1.125)" fill="#e59322"/>
            <path id="Path_877680" data-name="Path 877680" d="M25.442,100.9A47.381,47.381,0,1,0,72.823,53.519,47.381,47.381,0,0,0,25.442,100.9" transform="translate(0.546 1.148)" fill="#f7e442"/>
            <path id="Path_877681" data-name="Path 877681" d="M25.192,103.547H14.436a1.113,1.113,0,1,1,0-2.226H25.192a1.113,1.113,0,1,1,0,2.226" transform="translate(0.286 2.173)" fill="#d88016"/>
            <path id="Path_877682" data-name="Path 877682" d="M26.329,93.392H15.189a1.113,1.113,0,1,1,0-2.226h11.14a1.113,1.113,0,0,1,0,2.226" transform="translate(0.302 1.956)" fill="#d88016"/>
            <path id="Path_877683" data-name="Path 877683" d="M28.242,116.71H15.564a1.113,1.113,0,0,1,0-2.226H28.242a1.113,1.113,0,0,1,0,2.226" transform="translate(0.31 2.456)" fill="#d88016"/>
            <path id="Path_877684" data-name="Path 877684" d="M72.837,65.093a35.045,35.045,0,0,0-19.214,5.718q-.579-.636-1.171-1.259a36.718,36.718,0,0,1,20.385-6.159,37.341,37.341,0,0,1,22.479,66.985L93.9,129.317A35.644,35.644,0,0,0,72.837,65.093" transform="translate(1.125 1.36)" fill="#d88016"/>
            <path id="Path_877685" data-name="Path 877685" d="M95.333,130.948l-2.16-1.621.478-.359a35.2,35.2,0,0,0-20.8-63.419,34.641,34.641,0,0,0-18.97,5.645l-.319.207-.256-.281c-.384-.421-.774-.838-1.165-1.253l-.364-.386.442-.293a37.18,37.18,0,0,1,20.632-6.233A37.789,37.789,0,0,1,95.6,130.742Zm-.672-1.623.665.5A36.893,36.893,0,0,0,72.852,63.849a36.278,36.278,0,0,0-19.695,5.795q.279.3.555.6a35.532,35.532,0,0,1,19.14-5.583,36.09,36.09,0,0,1,21.809,64.669" transform="translate(1.111 1.35)" fill="#e59322"/>
            <path id="Path_877686" data-name="Path 877686" d="M42.131,83.23a35.625,35.625,0,0,0,31.057,52.694A35.045,35.045,0,0,0,87.07,133.07l1.551,1.162a36.713,36.713,0,0,1-15.432,3.392A37.328,37.328,0,0,1,40.777,82.161q.679.53,1.354,1.069" transform="translate(0.774 1.762)" fill="#d88016"/>
            <path id="Path_877687" data-name="Path 877687" d="M73.2,138.085a37.777,37.777,0,0,1-32.8-56.128l.254-.457.412.321q.683.532,1.359,1.073l.293.235-.18.329A35.179,35.179,0,0,0,73.2,135.491a34.484,34.484,0,0,0,13.7-2.818l.238-.1,2.355,1.768-.679.314A37,37,0,0,1,73.2,138.085M40.925,82.851A36.881,36.881,0,0,0,73.2,137.19a36.08,36.08,0,0,0,14.557-3.042l-.737-.553A35.354,35.354,0,0,1,73.2,136.385,36.071,36.071,0,0,1,41.569,83.361c-.213-.171-.428-.341-.644-.51" transform="translate(0.764 1.748)" fill="#e59322"/>
          </g>
        </g>
        <text id="_" data-name="$" transform="translate(55.743 116.682)" fill="#d88016" font-size="50" font-family="Montserrat-Bold, Montserrat" font-weight="700"><tspan x="0" y="0">$</tspan></text>
        <g id="Group_1102661" data-name="Group 1102661">
          <g id="Group_1102660" data-name="Group 1102660" clip-path="url(#clip-path)">
            <path id="Path_877688" data-name="Path 877688" d="M91.671,169.245a29.646,29.646,0,1,0,29.645-29.389,29.518,29.518,0,0,0-29.645,29.389" transform="translate(1.966 3)" fill="#e59322"/>
            <path id="Path_877689" data-name="Path 877689" d="M97.073,168.026a27.535,27.535,0,1,0,27.535-27.535,27.535,27.535,0,0,0-27.535,27.535" transform="translate(2.082 3.014)" fill="#f7e442"/>
            <path id="Path_877690" data-name="Path 877690" d="M96.929,169.564H90.677a.647.647,0,1,1,0-1.293h6.252a.647.647,0,0,1,0,1.293" transform="translate(1.931 3.61)" fill="#d88016"/>
            <path id="Path_877691" data-name="Path 877691" d="M97.589,163.663H91.115a.647.647,0,0,1,0-1.293h6.474a.647.647,0,0,1,0,1.293" transform="translate(1.941 3.483)" fill="#d88016"/>
            <path id="Path_877692" data-name="Path 877692" d="M98.7,177.214H91.334a.647.647,0,1,1,0-1.293H98.7a.647.647,0,1,1,0,1.293" transform="translate(1.945 3.774)" fill="#d88016"/>
            <path id="Path_877693" data-name="Path 877693" d="M124.617,147.218a20.365,20.365,0,0,0-11.166,3.323c-.225-.246-.451-.489-.68-.732a21.343,21.343,0,0,1,11.847-3.579,21.7,21.7,0,0,1,13.063,38.927l-.82-.615a20.714,20.714,0,0,0-12.243-37.324" transform="translate(2.419 3.137)" fill="#d88016"/>
            <path id="Path_877694" data-name="Path 877694" d="M137.691,185.488l-1.256-.942.279-.208a20.454,20.454,0,0,0-12.088-36.855,20.139,20.139,0,0,0-11.025,3.28l-.185.121-.149-.162c-.223-.245-.45-.487-.677-.728l-.211-.225.256-.171a21.609,21.609,0,0,1,11.991-3.623,21.961,21.961,0,0,1,13.222,39.394Zm-.391-.943.386.29a21.44,21.44,0,0,0-13.06-38.341,21.082,21.082,0,0,0-11.445,3.368c.108.115.216.23.322.346a20.653,20.653,0,0,1,11.124-3.245A20.974,20.974,0,0,1,137.3,184.545" transform="translate(2.411 3.131)" fill="#e59322"/>
            <path id="Path_877695" data-name="Path 877695" d="M106.772,157.758a20.7,20.7,0,0,0,18.049,30.622,20.365,20.365,0,0,0,8.067-1.659l.9.676a21.336,21.336,0,0,1-8.967,1.971,21.7,21.7,0,0,1-18.837-32.233c.265.205.526.414.788.622" transform="translate(2.215 3.371)" fill="#d88016"/>
            <path id="Path_877696" data-name="Path 877696" d="M124.826,189.636a21.953,21.953,0,0,1-19.063-32.618l.147-.265.24.186q.4.309.79.624l.17.136-.1.191a20.443,20.443,0,0,0,17.821,30.238,20.028,20.028,0,0,0,7.964-1.637l.139-.059,1.369,1.028-.4.183a21.518,21.518,0,0,1-9.077,1.994m-18.755-32.1a21.433,21.433,0,0,0,18.755,31.579,20.969,20.969,0,0,0,8.46-1.768l-.429-.322a20.546,20.546,0,0,1-8.031,1.621,20.962,20.962,0,0,1-18.381-30.814l-.374-.3" transform="translate(2.209 3.362)" fill="#e59322"/>
          </g>
        </g>
        <text id="_2" data-name="" transform="translate(114.056 181.171)" fill="#d88016" font-size="29" font-family="Montserrat-Bold, Montserrat" font-weight="700"><tspan x="0" y="0"></tspan></text>
      </g>
    </g>
  </g>
</svg>
