<svg xmlns="http://www.w3.org/2000/svg" xmlns:xlink="http://www.w3.org/1999/xlink" width="100" height="100" viewBox="0 0 100 100">
  <defs>
    <clipPath id="clip-path">
      <rect id="Rectangle_405055" data-name="Rectangle 405055" width="51.085" height="34.879" fill="#12263f"/>
    </clipPath>
  </defs>
  <g id="img23" transform="translate(-505.713 -7988)">
    <g id="Group_1101010" data-name="Group 1101010" transform="translate(536.702 7988)">
      <path id="Path_875656" data-name="Path 875656" d="M208.54,10.626,141.848,77.319v2.317h2.317l66.693-66.693V10.626Z" transform="translate(-141.847 -10.626)" fill="#225a78"/>
      <path id="Path_875657" data-name="Path 875657" d="M198.323,10.626,141.848,67.1v4.635l61.109-61.11Z" transform="translate(-141.847 -10.626)" fill="#225a78"/>
      <path id="Path_875658" data-name="Path 875658" d="M188.1,10.626,141.847,56.884v4.634l50.892-50.892Z" transform="translate(-141.847 -10.626)" fill="#225a78"/>
      <path id="Path_875659" data-name="Path 875659" d="M177.887,10.626l-36.04,36.041V51.3l40.675-40.675Z" transform="translate(-141.847 -10.626)" fill="#225a78"/>
      <path id="Path_875660" data-name="Path 875660" d="M167.67,10.626,141.847,36.449v4.634L172.3,10.626Z" transform="translate(-141.847 -10.626)" fill="#225a78"/>
      <path id="Path_875661" data-name="Path 875661" d="M157.452,10.626l-15.6,15.605v4.635l20.239-20.24Z" transform="translate(-141.847 -10.626)" fill="#225a78"/>
      <path id="Path_875662" data-name="Path 875662" d="M147.234,10.626l-5.388,5.388v4.635l10.022-10.022Z" transform="translate(-141.847 -10.626)" fill="#225a78"/>
      <path id="Path_875663" data-name="Path 875663" d="M268.109,146.91h4.634l5.387-5.388v-4.634Z" transform="translate(-209.12 -77.899)" fill="#225a78"/>
      <path id="Path_875664" data-name="Path 875664" d="M246.238,135.257h4.635l15.6-15.606v-4.634Z" transform="translate(-197.467 -66.246)" fill="#225a78"/>
      <path id="Path_875665" data-name="Path 875665" d="M224.368,123.6H229l25.822-25.823V93.147Z" transform="translate(-185.815 -54.594)" fill="#225a78"/>
      <path id="Path_875666" data-name="Path 875666" d="M202.5,111.952h4.634l36.04-36.041V71.277Z" transform="translate(-174.163 -42.941)" fill="#225a78"/>
      <path id="Path_875667" data-name="Path 875667" d="M180.628,100.3h4.634L231.52,54.041V49.407Z" transform="translate(-162.509 -31.289)" fill="#225a78"/>
      <path id="Path_875668" data-name="Path 875668" d="M158.757,88.646h4.634l56.475-56.476V27.536Z" transform="translate(-150.857 -19.636)" fill="#225a78"/>
    </g>
    <rect id="Rectangle_403642" data-name="Rectangle 403642" width="71.286" height="71.286" transform="translate(506.713 8015.713)" fill="none" stroke="#225a78" stroke-linecap="round" stroke-linejoin="round" stroke-width="2"/>
    <rect id="Rectangle_403641" data-name="Rectangle 403641" width="74.08" height="74" transform="translate(521.045 7999)" fill="#88c0de"/>
    <g id="Group_1102758" data-name="Group 1102758" transform="translate(532.045 8018)">
      <g id="Group_1102757" data-name="Group 1102757" clip-path="url(#clip-path)">
        <path id="Path_879088" data-name="Path 879088" d="M45.271,110.375q.108,1.512.217,3.023c.056.78,1.279.786,1.222,0q-.108-1.512-.217-3.023c-.056-.78-1.279-.786-1.222,0" transform="translate(-36.048 -87.425)" fill="#12263f"/>
        <path id="Path_879089" data-name="Path 879089" d="M80.377,110.375q-.108,1.512-.217,3.023c-.056.785,1.166.781,1.222,0l.217-3.023c.056-.785-1.166-.781-1.222,0" transform="translate(-63.831 -87.425)" fill="#12263f"/>
        <path id="Path_879090" data-name="Path 879090" d="M42.643,98.123c0-1.329.108-2.7-.015-4.027A3.151,3.151,0,0,0,40.6,91.441a15.437,15.437,0,0,0-2.464-.459,17.357,17.357,0,0,0-6.439-.135c-1.83.335-4.175.317-5,2.322a6.666,6.666,0,0,0-.246,2.578v2.376a.611.611,0,0,0,1.222,0c0-1.195-.034-2.395,0-3.589.059-2.1,2.119-2.1,3.713-2.391a15.381,15.381,0,0,1,5.691-.117c1.6.294,4.214.239,4.354,2.345.082,1.24,0,2.509,0,3.752a.611.611,0,0,0,1.222,0" transform="translate(-21.047 -72.149)" fill="#12263f"/>
        <path id="Path_879091" data-name="Path 879091" d="M51.924,45.134A3.283,3.283,0,1,1,48.5,41.855a3.326,3.326,0,0,1,3.422,3.279c.028.784,1.25.788,1.222,0a4.506,4.506,0,1,0-4.506,4.506,4.569,4.569,0,0,0,4.506-4.506c.028-.787-1.194-.785-1.222,0" transform="translate(-35.145 -32.352)" fill="#12263f"/>
        <path id="Path_879092" data-name="Path 879092" d="M135.727,55.742h18.121a.611.611,0,0,0,0-1.222H135.727a.611.611,0,0,0,0,1.222" transform="translate(-107.61 -43.415)" fill="#12263f"/>
        <path id="Path_879093" data-name="Path 879093" d="M135.727,83.793h18.121a.611.611,0,0,0,0-1.222H135.727a.611.611,0,0,0,0,1.222" transform="translate(-107.61 -65.752)" fill="#12263f"/>
        <path id="Path_879094" data-name="Path 879094" d="M135.727,111.844h8.512a.611.611,0,0,0,0-1.222h-8.512a.611.611,0,0,0,0,1.222" transform="translate(-107.61 -88.089)" fill="#12263f"/>
        <path id="Path_879095" data-name="Path 879095" d="M43.7,33.628H8.813c-1.979,0-3.864-.111-5.457-1.516-2.037-1.8-2.076-4.128-2.076-6.584V8.85c0-.5-.009-1,0-1.5A6.184,6.184,0,0,1,4.3,2.065c1.539-.9,3.175-.833,4.871-.833H41.086a23.48,23.48,0,0,1,3.569.071,6.157,6.157,0,0,1,4.894,4.28,8.651,8.651,0,0,1,.255,2.524v16.3c0,1.97.251,4.168-.7,5.965a6.2,6.2,0,0,1-5.4,3.255.611.611,0,0,0,0,1.222,7.432,7.432,0,0,0,7.326-7.392c.03-1.988,0-3.978,0-5.966V11.748a40.188,40.188,0,0,0-.074-5.417A7.42,7.42,0,0,0,43.581.01c-1.415-.019-2.832,0-4.247,0H20.913C16.474.01,12.034-.014,7.6.01A7.447,7.447,0,0,0,.284,5.52a23.992,23.992,0,0,0-.227,5.724c0,5.37-.036,10.742,0,16.112a7.424,7.424,0,0,0,6.321,7.42,28.491,28.491,0,0,0,3.847.074H43.7a.611.611,0,0,0,0-1.222" transform="translate(0 0.001)" fill="#12263f"/>
      </g>
    </g>
  </g>
</svg>
