<svg xmlns="http://www.w3.org/2000/svg" xmlns:xlink="http://www.w3.org/1999/xlink" width="400" height="243.477" viewBox="0 0 400 243.477">
  <defs>
    <clipPath id="clip-path">
      <rect id="Rectangle_404988" data-name="Rectangle 404988" width="245.353" height="243.477" fill="none"/>
    </clipPath>
    <clipPath id="clip-path-2">
      <rect id="Rectangle_404997" data-name="Rectangle 404997" width="172.655" height="183.395" fill="none"/>
    </clipPath>
  </defs>
  <g id="img20" transform="translate(-240.742 -6187.55)">
    <g id="Group_1102716" data-name="Group 1102716" transform="translate(395.389 6187.55)">
      <g id="Group_1102715" data-name="Group 1102715" clip-path="url(#clip-path)">
        <path id="Path_878042" data-name="Path 878042" d="M94.243,5.523C2.964,30.635-24.243,151.491,73.956,194.223c1.04.453,2.118.846,3.2,1.255,108.185,40.933,146.813,15.6,170.223-32.471,27.016-55.476-27.6-192.021-153.136-157.485" transform="translate(-8.781 0)" fill="#e3f2ff"/>
        <path id="Path_878043" data-name="Path 878043" d="M563.4,571.315c-1.138-.4-3.538.872-4.165,1.513-1.025,1.048-4.171,3.185-5.239,13.412,0,0-.826,1.43-1.819,3.229.391-3.264.709-6.215.907-8.336a2.192,2.192,0,0,0-1.466-2.2c-1.138-.4-3.538.872-4.165,1.513a12.56,12.56,0,0,0-3.814,6.159,7.405,7.405,0,0,0-2.863,1.476c-1.025,1.048-4.17,3.185-5.239,13.412,0,0-5.063,8.763-5.176,10.206,0,0-1,1.152-2.315,2.751-2.778,1.8-7.949,5.122-8.515,5.228s.142,1.162,1.472,2.644c-2.843,1.841-7.607,4.889-8.149,4.991-2.087.393,13.214,13.783,13.214,13.783s3.062-3.574,6.476-7.812l.2.177s4.44-5.182,8.588-10.467c1.843,1.671,3.192,2.852,3.192,2.852s13.6-15.869,15.435-20.384c1.715-4.209,4.158-23.944,4.9-31.941a2.192,2.192,0,0,0-1.466-2.2" transform="translate(-376.895 -419.958)" fill="#fff"/>
        <path id="Path_878044" data-name="Path 878044" d="M618.6,662.91l7.365-10.688a9.456,9.456,0,0,0,1.11-2.163c.975-2.7,3.3-9.18,3.258-9.336" transform="translate(-454.779 -471.04)" fill="none" stroke="#0e0f29" stroke-linecap="round" stroke-linejoin="round" stroke-width="4.39"/>
        <path id="Path_878045" data-name="Path 878045" d="M603.186,643.644s-2.038,8.932-4.161,13.542c-1.444,3.135-2.7,4.271-5.511,7.849" transform="translate(-436.334 -473.188)" fill="none" stroke="#0e0f29" stroke-linecap="round" stroke-linejoin="round" stroke-width="4.39"/>
        <path id="Path_878046" data-name="Path 878046" d="M611.7,594.3c1.105-7.23,2.113-15.852,2.547-20.5a2.192,2.192,0,0,0-1.466-2.2c-1.138-.4-3.538.872-4.165,1.513-1.025,1.048-4.171,3.185-5.239,13.412,0,0-.826,1.43-1.819,3.229.391-3.264.709-6.215.907-8.336a2.192,2.192,0,0,0-1.466-2.2c-1.137-.4-3.538.872-4.165,1.513a12.557,12.557,0,0,0-3.814,6.159,7.4,7.4,0,0,0-2.863,1.476c-1.025,1.048-4.171,3.185-5.239,13.412,0,0-4.013,6.946-4.972,9.486" transform="translate(-426.357 -420.162)" fill="none" stroke="#0e0f29" stroke-linecap="round" stroke-linejoin="round" stroke-width="4.39"/>
        <path id="Path_878047" data-name="Path 878047" d="M203.605,542.561l-3.8.57-1.606,2.71L80.662,536.254a10.007,10.007,0,0,0-5.625,2.146l-47.06,38.4-.054-.591-7.192,5.339-1.075.048.377,2.542c.166.525.683-.2,1.162-.161l122.118,10.968a8.893,8.893,0,0,0,5.328-1.972l52.925-43.312a3.712,3.712,0,0,0,1.4-2.2Z" transform="translate(-14.451 -394.232)" fill="#0e0f29"/>
        <path id="Path_878048" data-name="Path 878048" d="M80.174,536.248a10.006,10.006,0,0,0-5.625,2.146l-47.06,38.4-.053-.591-8.216,3.16-.1,1.427-.1,2.958a.752.752,0,0,0,.74.851l123.061,10.34a6.005,6.005,0,0,0,2.117-.307l-2.989-26.047c.824-.675-61.779-32.338-61.779-32.338" transform="translate(-13.987 -394.227)" fill="#0e0f29"/>
        <path id="Path_878049" data-name="Path 878049" d="M142.465,579.967,20.813,570.726c-1.416-.1-1.341-1.165.167-2.358L76.046,525.5a9.533,9.533,0,0,1,5.522-1.805l121.162,8.889c1.416.1,1.341,1.165-.167,2.358l-54.071,42.782a11.832,11.832,0,0,1-6.028,2.245" transform="translate(-14.555 -384.996)" fill="#b7d9f7"/>
        <path id="Path_878050" data-name="Path 878050" d="M378.573,299.9l-115.938-8.222a4.106,4.106,0,0,1-3.815-4.89l12.942-76.56a5.186,5.186,0,0,1,5.359-4.24l115.938,8.222a4.106,4.106,0,0,1,3.815,4.89l-12.942,76.56a5.186,5.186,0,0,1-5.359,4.24" transform="translate(-190.229 -151.43)" fill="#b7d9f7"/>
        <path id="Path_878051" data-name="Path 878051" d="M367.924,299.2l-115.347-8.18a4.37,4.37,0,0,1-4.061-5.205l12.843-75.972a5.519,5.519,0,0,1,5.7-4.513l115.347,8.18a4.37,4.37,0,0,1,4.061,5.2l-12.843,75.972a5.519,5.519,0,0,1-5.7,4.513" transform="translate(-182.651 -150.94)" fill="#0e0f29"/>
        <path id="Path_878052" data-name="Path 878052" d="M379.114,304.019l-118.255-8.386,12.9-76.289L392.01,227.73Z" transform="translate(-191.776 -161.255)" fill="#b7d9f7"/>
        <line id="Line_3377" data-name="Line 3377" x2="117.591" y2="9.671" transform="translate(68.11 138.613)" fill="none" stroke="#2a234a" stroke-linecap="round" stroke-linejoin="round" stroke-width="4.39"/>
        <path id="Path_878053" data-name="Path 878053" d="M389.949,316.149l-93.788-6.064c-2.68-.173-4.493-2.23-4.03-4.571l11.157-56.388c.463-2.341,3.035-4.114,5.714-3.941l93.788,6.064c2.68.173,4.493,2.23,4.03,4.571l-11.157,56.388c-.463,2.341-3.035,4.114-5.714,3.941" transform="translate(-214.713 -180.245)" fill="#b7d9f7"/>
        <path id="Path_878054" data-name="Path 878054" d="M234.135,196.915,157.9,192.372c-2.779-.166-4.578-2.712-4-5.659l8.751-44.5a6.223,6.223,0,0,1,6.106-5.057l76.236,4.543c2.779.165,4.578,2.712,4,5.659l-8.751,44.5a6.223,6.223,0,0,1-6.106,5.057" transform="translate(-113.063 -100.824)" fill="#fff"/>
        <path id="Path_878055" data-name="Path 878055" d="M234.135,196.915,157.9,192.372c-2.779-.166-4.578-2.712-4-5.659l8.751-44.5a6.223,6.223,0,0,1,6.106-5.057l76.236,4.543c2.779.165,4.578,2.712,4,5.659l-8.751,44.5A6.223,6.223,0,0,1,234.135,196.915Z" transform="translate(-113.063 -100.824)" fill="none" stroke="#0e0f29" stroke-linecap="round" stroke-linejoin="round" stroke-width="4.39"/>
        <path id="Path_878056" data-name="Path 878056" d="M211.208,177.747l2.771-4.127,1.093,4.357" transform="translate(-155.274 -127.64)" fill="none" stroke="#0e0f29" stroke-linecap="round" stroke-linejoin="round" stroke-width="4.39"/>
        <path id="Path_878057" data-name="Path 878057" d="M420.1,323.314l3.6,2.292-4.4,1.805" transform="translate(-308.255 -237.691)" fill="none" stroke="#0e0f29" stroke-linecap="round" stroke-linejoin="round" stroke-width="4.39"/>
        <path id="Path_878058" data-name="Path 878058" d="M261.064,269.073l-9.874-.588,3.745-19.044,9.874.588Z" transform="translate(-184.667 -183.381)" fill="#b7d9f7"/>
        <path id="Path_878059" data-name="Path 878059" d="M317.3,284.132l-9.874-.588,2.915-14.827,9.874.588Z" transform="translate(-226.013 -197.552)" fill="#b7d9f7"/>
        <path id="Path_878060" data-name="Path 878060" d="M373.541,263.863l-9.874-.588,4.589-23.335,9.874.588Z" transform="translate(-267.357 -176.396)" fill="#b7d9f7"/>
        <path id="Path_878061" data-name="Path 878061" d="M200.667,177.2l-7.306,37.153,62.61,3.731" transform="translate(-142.153 -130.275)" fill="none" stroke="#0e0f29" stroke-linecap="round" stroke-linejoin="round" stroke-width="4.39"/>
        <path id="Path_878062" data-name="Path 878062" d="M257.654,210.7l-18.911,13.672-3.52-6,18.911-13.672Z" transform="translate(-172.929 -150.484)" fill="#4ea8f7"/>
        <path id="Path_878063" data-name="Path 878063" d="M343.289,204.7l-26.227,18.963-4.021-6.859,26.227-18.963Z" transform="translate(-230.139 -145.447)" fill="#4ea8f7"/>
        <path id="Path_878064" data-name="Path 878064" d="M301.914,244.75l-8.5-13.983,6.756-5,8.5,13.984Z" transform="translate(-215.711 -165.974)" fill="#4ea8f7"/>
        <path id="Path_878065" data-name="Path 878065" d="M385.29,184.981l16.186.884-5.454,16.558Z" transform="translate(-283.254 -135.993)" fill="#4ea8f7"/>
        <path id="Path_878066" data-name="Path 878066" d="M295.9,580.321l-14.58-.845,6.526-5.49,14.58.845Z" transform="translate(-206.815 -421.977)" fill="none" stroke="#0e0f29" stroke-linecap="round" stroke-linejoin="round" stroke-width="4.39"/>
        <path id="Path_878067" data-name="Path 878067" d="M368.041,583.705l-14.58-.845,6.526-5.49,14.58.845Z" transform="translate(-259.854 -424.465)" fill="none" stroke="#0e0f29" stroke-linecap="round" stroke-linejoin="round" stroke-width="4.39"/>
        <path id="Path_878068" data-name="Path 878068" d="M261.306,613.879l-14.58-.845,6.526-5.49,14.58.845Z" transform="translate(-181.386 -446.648)" fill="none" stroke="#0e0f29" stroke-linecap="round" stroke-linejoin="round" stroke-width="4.39"/>
        <path id="Path_878069" data-name="Path 878069" d="M332.885,618.023l-14.58-.845,6.526-5.49,14.58.845Z" transform="translate(-234.009 -449.695)" fill="none" stroke="#0e0f29" stroke-linecap="round" stroke-linejoin="round" stroke-width="4.39"/>
        <path id="Path_878070" data-name="Path 878070" d="M438.674,589.922l-14.58-.845,6.526-5.49,14.58.845Z" transform="translate(-311.781 -429.036)" fill="none" stroke="#0e0f29" stroke-linecap="round" stroke-linejoin="round" stroke-width="4.39"/>
        <path id="Path_878071" data-name="Path 878071" d="M510.819,593.307l-14.58-.845,6.526-5.49,14.58.845Z" transform="translate(-364.82 -431.524)" fill="none" stroke="#0e0f29" stroke-linecap="round" stroke-linejoin="round" stroke-width="4.39"/>
        <path id="Path_878072" data-name="Path 878072" d="M404.084,623.481l-14.58-.845,6.526-5.49,14.58.845Z" transform="translate(-286.351 -453.707)" fill="none" stroke="#0e0f29" stroke-linecap="round" stroke-linejoin="round" stroke-width="4.39"/>
        <path id="Path_878073" data-name="Path 878073" d="M475.663,627.624l-14.58-.845,6.526-5.49,14.58.845Z" transform="translate(-338.974 -456.753)" fill="none" stroke="#0e0f29" stroke-linecap="round" stroke-linejoin="round" stroke-width="4.39"/>
        <path id="Path_878074" data-name="Path 878074" d="M90.026,590.5c-2.5,1.656-4.3,4.1-6.541,9.41-.966,2.289-.578,2.181-3.529,5.672-1.653,1.955-8.561,2.132-13.171,1.933a42.287,42.287,0,0,1-.281-7.992s6.727-12.232,8.206-14.744l6.118-8.491,6.86-3.38c2.757-.908,8.369-4.088,7.5-6.859a2.541,2.541,0,0,0-2.832-1.753l-7.91,1.353a2.305,2.305,0,0,0,.22-1.757,2.542,2.542,0,0,0-2.831-1.753l-8.3,1.419a2.538,2.538,0,0,0-2.14-.654l-12.444,2.13c-4.669,1.006-8.305,4.9-12.13,9.575-1.117-.077-4.839-.214-7.126,1.125-1.651.967-6.712,5.839-10.422,9.507a17.732,17.732,0,0,0-5.074,10.014c-.69,4.649-5.11,23.9-6.005,29.74a11.284,11.284,0,0,0-.131,1.316L2.2,653.434H46.521l3.068-16.109A241.254,241.254,0,0,0,75.063,624.6s14.161-9.983,15.741-15.542c1.207-4.243,3.854-12.012,4.56-16.7.248-1.648-1.887-4.152-5.338-1.865" transform="translate(-1.62 -413.243)" fill="#fff"/>
        <path id="Path_878075" data-name="Path 878075" d="M46.512,655.139,49.58,639.03a241.266,241.266,0,0,0,25.474-12.721s14.161-9.983,15.742-15.542c1.207-4.243,3.854-12.012,4.559-16.7.248-1.648-1.887-4.152-5.338-1.866-2.5,1.656-4.3,4.1-6.541,9.41-.966,2.289-.578,2.182-3.529,5.672-1.653,1.955-8.561,2.132-13.171,1.934a42.291,42.291,0,0,1-.281-7.992s6.727-12.232,8.206-14.744l6.118-8.49,6.86-3.38c2.757-.908,8.369-4.088,7.5-6.859A2.541,2.541,0,0,0,92.352,566l-7.91,1.354a2.306,2.306,0,0,0,.22-1.757,2.542,2.542,0,0,0-2.831-1.753l-8.3,1.419a2.538,2.538,0,0,0-2.14-.654L58.95,566.738c-4.669,1.006-8.306,4.9-12.13,9.575-1.117-.077-4.84-.214-7.127,1.124-1.651.967-6.712,5.839-10.422,9.507A17.732,17.732,0,0,0,24.2,596.958c-.69,4.649-5.11,23.9-6.005,29.739a11.291,11.291,0,0,0-.131,1.316L2.195,655.139" transform="translate(-1.614 -414.497)" fill="none" stroke="#0e0f29" stroke-linecap="round" stroke-linejoin="round" stroke-width="4.39"/>
        <line id="Line_3378" data-name="Line 3378" x1="9.349" y2="10.003" transform="translate(35.425 162.155)" fill="none" stroke="#0e0f29" stroke-linecap="round" stroke-linejoin="round" stroke-width="4.39"/>
        <path id="Path_878076" data-name="Path 878076" d="M175.611,588.555l8.116-9.423s7.247-7.992,8.563-8.8,8.737-2.748,8.737-2.748" transform="translate(-129.104 -417.274)" fill="none" stroke="#0e0f29" stroke-linecap="round" stroke-linejoin="round" stroke-width="4.39"/>
        <path id="Path_878077" data-name="Path 878077" d="M207.457,598.238l10.88-13.327a7.991,7.991,0,0,1,3.23-2.369l12.555-5.008" transform="translate(-152.516 -424.586)" fill="none" stroke="#0e0f29" stroke-linecap="round" stroke-linejoin="round" stroke-width="4.39"/>
        <path id="Path_878078" data-name="Path 878078" d="M495.148,610.787a2.122,2.122,0,0,0-1.054-2.392c-1.068-.6-3.723.158-4.476.652-1.23.808-4.8,2.253-7.822,11.848,0,0-6.76,7.427-7.149,8.787a113.206,113.206,0,0,0-9.045,7.473s-10.722,4.144-11.532,4.135c-2.173-.023-6.714,2.09-10.426-5.174l-16.1-7.7c-9.436,14.576-12.382,19.77-12.725,28.052l-12.495,34.124,45.026-.7,1.278-19.555,16.1-13.3s16.692-12.6,19.4-16.575c2.526-3.7,8.74-22.147,11.013-29.668" transform="translate(-295.778 -447.111)" fill="#fff"/>
        <path id="Path_878079" data-name="Path 878079" d="M509.521,618.009c-1.148-.973-7.964-13.413-6.657-18.872a42.316,42.316,0,0,1,2.435-7.417c1.86-4.812,2.252-7.627,1.742-10.528-.7-4-4.332-5.817-5.18-4.67-2.412,3.262-5.518,9.817-7.358,13.211-2.411,4.447-9.041,15.161-9.041,15.161s-4.02,7.4-4.356,11.173Z" transform="translate(-353.695 -423.592)" fill="#fff"/>
        <path id="Path_878080" data-name="Path 878080" d="M624.238,656.512a67.236,67.236,0,0,1-16.193,16.26s-10.722,4.144-11.532,4.135" transform="translate(-438.538 -482.648)" fill="none" stroke="#0e0f29" stroke-linecap="round" stroke-linejoin="round" stroke-width="4.39"/>
        <path id="Path_878081" data-name="Path 878081" d="M483.8,614.888c-2.32-4.326-5.427-11.63-4.506-15.474A42.3,42.3,0,0,1,481.733,592c1.86-4.812,2.253-7.628,1.742-10.529-.7-4-4.331-5.817-5.18-4.669-2.412,3.261-5.518,9.817-7.359,13.211-2.411,4.446-9.041,15.161-9.041,15.161-9.436,14.576-12.382,19.77-12.725,28.052" transform="translate(-330.218 -423.796)" fill="none" stroke="#0e0f29" stroke-linecap="round" stroke-linejoin="round" stroke-width="4.39"/>
        <path id="Path_878082" data-name="Path 878082" d="M603.527,621.454l.273-.2s-.107.167-.313.467c-.009.06-.018.123-.028.182.407-.454.659-.731.659-.731,3.022-9.6,6.592-11.04,7.822-11.848.753-.494,3.408-1.25,4.476-.652a2.123,2.123,0,0,1,1.054,2.392c-2.273,7.52-8.488,25.964-11.014,29.668-2.71,3.974-19.4,16.575-19.4,16.575L571.04,670.538l-2.207,18.212" transform="translate(-418.189 -447.315)" fill="none" stroke="#0e0f29" stroke-linecap="round" stroke-linejoin="round" stroke-width="4.39"/>
        <line id="Line_3379" data-name="Line 3379" x1="11.377" y2="33.35" transform="translate(107.577 209.427)" fill="none" stroke="#0e0f29" stroke-linecap="round" stroke-linejoin="round" stroke-width="4.39"/>
        <path id="Path_878083" data-name="Path 878083" d="M567.789,294.444h0c-.126,1.272-.916,2.258-1.763,2.2l-44.837-2.989c-.847-.056-1.431-1.134-1.3-2.406s.915-2.258,1.762-2.2l44.837,2.989c.847.056,1.431,1.134,1.3,2.406" transform="translate(-382.191 -212.499)" fill="#0e0f29"/>
        <path id="Path_878084" data-name="Path 878084" d="M509.788,371.971l-22.219-1.26,10.964-63.372c.679-3.959,4.114-7,7.673-6.8l27.035,1.566c2.643.05,5.21.491,6.26,2.05-2.121-.022-3.952-.419-4.439,1.823l-3.92,22.32-5.315,30.992c-1.645,7.167-7.3,13.179-16.039,12.678" transform="translate(-358.446 -220.943)" fill="#fff"/>
        <path id="Path_878085" data-name="Path 878085" d="M570.936,336.48l-24.655-1.414a.72.72,0,0,1-.706-.7.681.681,0,0,1,.752-.619l24.655,1.414a.72.72,0,0,1,.706.7.681.681,0,0,1-.752.619" transform="translate(-401.09 -245.357)" fill="#b7d9f7"/>
        <path id="Path_878086" data-name="Path 878086" d="M573.925,374.81l-20.137-1.155a.665.665,0,0,1,.08-1.321L574,373.489a.665.665,0,0,1-.08,1.321" transform="translate(-406.72 -273.729)" fill="#b7d9f7"/>
        <path id="Path_878087" data-name="Path 878087" d="M567.124,405.555,546.987,404.4a.665.665,0,0,1,.08-1.321l20.137,1.155a.665.665,0,0,1-.08,1.32" transform="translate(-401.72 -296.331)" fill="#b7d9f7"/>
        <path id="Path_878088" data-name="Path 878088" d="M560.895,438.508l-20.137-1.155a.665.665,0,0,1,.08-1.321l20.137,1.155a.665.665,0,0,1-.08,1.32" transform="translate(-397.14 -320.557)" fill="#b7d9f7"/>
        <path id="Path_878089" data-name="Path 878089" d="M576.435,468.974l-11.512-.66a.665.665,0,0,1,.08-1.32l11.512.66a.665.665,0,0,1-.08,1.321" transform="translate(-414.906 -343.319)" fill="#b7d9f7"/>
        <path id="Path_878090" data-name="Path 878090" d="M572.305,496.676l-11.512-.66a.665.665,0,0,1,.08-1.32l11.512.66a.665.665,0,0,1-.08,1.321" transform="translate(-411.869 -363.685)" fill="#b7d9f7"/>
        <path id="Path_878091" data-name="Path 878091" d="M441.641,436.96l-30.783-1.747c-4.994-.386-9.415-2.439-10.774-10.609-2.191-13.165-2.711-34.93-2.711-34.93l24.592-.589c6.977.412,9.647,3.1,11.082,10.476.349,1.8,1.683,36.641,8.594,37.4" transform="translate(-292.137 -286.044)" fill="#fff"/>
        <path id="Path_878092" data-name="Path 878092" d="M371.618,407.4l-29.409-1.687,3.211-18.091c.93-5.237,7.334-6.95,10.976-6.741l23.055,1.322a34.622,34.622,0,0,1,7.049,1.521c-10.348-.983-11.6,4.814-12.981,11.615Z" transform="translate(-251.582 -279.999)" fill="#fff"/>
        <path id="Path_878093" data-name="Path 878093" d="M399.832,400l-14.285-.819a.566.566,0,0,1-.517-.692.753.753,0,0,1,.75-.62l14.285.82a.565.565,0,0,1,.517.692.753.753,0,0,1-.75.62" transform="translate(-283.054 -292.5)" fill="#b7d9f7"/>
        <path id="Path_878094" data-name="Path 878094" d="M382.737,452.991l-14.285-.819a.566.566,0,0,1-.517-.692.754.754,0,0,1,.75-.62l14.285.82a.566.566,0,0,1,.517.692.753.753,0,0,1-.75.62" transform="translate(-270.487 -331.457)" fill="#b7d9f7"/>
        <path id="Path_878095" data-name="Path 878095" d="M392.494,425.595l-14.285-.819a.566.566,0,0,1-.517-.693.754.754,0,0,1,.75-.62l14.285.82a.566.566,0,0,1,.517.693.753.753,0,0,1-.75.619" transform="translate(-277.66 -311.317)" fill="#b7d9f7"/>
        <path id="Path_878096" data-name="Path 878096" d="M386.5,383.768c-1.245-.957-4.875-1.227-4.875-1.227L356.4,380.925c-10.407.365-10.976,6.742-10.976,6.742l-3.211,18.091,29.409,1.687s1.91-13.5,2.812-16.054,3.158-9.7,13-6.851" transform="translate(-251.582 -280.045)" fill="none" stroke="#0e0f29" stroke-linecap="round" stroke-linejoin="round" stroke-width="4.39"/>
        <path id="Path_878097" data-name="Path 878097" d="M516.719,397.041c4.89,1.516,4.769,17.071,6.336,30.368a46,46,0,0,0,1.185,6.434,2.98,2.98,0,0,0,2.48,2.217c1.315.138,2.9-.687,3.722-4.8" transform="translate(-379.876 -291.893)" fill="none" stroke="#0e0f29" stroke-linecap="round" stroke-linejoin="round" stroke-width="4.39"/>
        <path id="Path_878098" data-name="Path 878098" d="M402.326,479.473l.965,8.711s-.358,12.153,10.711,13.43q.245.028.5.049c11.577.965,30.783,1.747,30.783,1.747" transform="translate(-295.778 -352.494)" fill="none" stroke="#0e0f29" stroke-linecap="round" stroke-linejoin="round" stroke-width="4.39"/>
        <path id="Path_878099" data-name="Path 878099" d="M564.529,381.736s14.252,2.166,17.877-12.566l9.13-52.709s.1-2.247,2-2.415a9.179,9.179,0,0,1,2.54-.011" transform="translate(-415.025 -230.82)" fill="none" stroke="#0e0f29" stroke-linecap="round" stroke-linejoin="round" stroke-width="4.39"/>
        <path id="Path_878100" data-name="Path 878100" d="M517.488,329.682l3.041-17.576a11.286,11.286,0,0,1,2.908-5.089" transform="translate(-380.442 -225.71)" fill="none" stroke="#0e0f29" stroke-linecap="round" stroke-linejoin="round" stroke-width="4.39"/>
        <path id="Path_878101" data-name="Path 878101" d="M480.287,118.088a16.108,16.108,0,0,1-16.108,14.569,13.74,13.74,0,0,1-13.36-15.329,16.109,16.109,0,0,1,16.108-14.569,13.74,13.74,0,0,1,13.36,15.329" transform="translate(-331.382 -75.542)" fill="#ff8469"/>
        <path id="Path_878102" data-name="Path 878102" d="M480.287,118.088a16.108,16.108,0,0,1-16.108,14.569,13.74,13.74,0,0,1-13.36-15.329,16.109,16.109,0,0,1,16.108-14.569A13.74,13.74,0,0,1,480.287,118.088Z" transform="translate(-331.382 -75.542)" fill="none" stroke="#0e0f29" stroke-linecap="round" stroke-linejoin="round" stroke-width="4.39"/>
        <path id="Path_878103" data-name="Path 878103" d="M490.234,137.488a6.4,6.4,0,0,1-3.582-2.155l1.075-1.239a5.045,5.045,0,0,0,3.278,1.89,2.424,2.424,0,0,0,2.9-2.147c.6-3.756-5.876-3.551-5.155-8.072a4.065,4.065,0,0,1,3.911-3.533l.373-2.342,1.365.131-.366,2.3a4.633,4.633,0,0,1,2.949,2.071l-1.182,1.04a3.364,3.364,0,0,0-2.564-1.587,2.289,2.289,0,0,0-2.63,2.008c-.536,3.362,5.958,3.041,5.164,8.026a4.21,4.21,0,0,1-4.169,3.7l-.373,2.341-1.365-.13Z" transform="translate(-357.772 -88.14)" fill="#fff"/>
        <path id="Path_878104" data-name="Path 878104" d="M717.625,322.571s3.026-.334,3.9-5.52l12.694-75.09s.713-4.569-3.815-4.89" transform="translate(-527.576 -174.288)" fill="none" stroke="#0e0f29" stroke-linecap="round" stroke-linejoin="round" stroke-width="4.39"/>
      </g>
    </g>
    <g id="Group_1102718" data-name="Group 1102718" transform="translate(240.742 6204.925)">
      <g id="Group_1102717" data-name="Group 1102717" clip-path="url(#clip-path-2)">
        <line id="Line_3380" data-name="Line 3380" x2="112.527" transform="translate(59.451 45.349)" fill="none" stroke="#e3f2ff" stroke-linecap="round" stroke-linejoin="round" stroke-width="5.127"/>
        <line id="Line_3381" data-name="Line 3381" x2="112.527" transform="translate(59.451 23.013)" fill="none" stroke="#e3f2ff" stroke-linecap="round" stroke-linejoin="round" stroke-width="5.127"/>
        <line id="Line_3382" data-name="Line 3382" x2="112.527" transform="translate(59.451 0.676)" fill="none" stroke="#e3f2ff" stroke-linecap="round" stroke-linejoin="round" stroke-width="5.127"/>
        <line id="Line_3383" data-name="Line 3383" y2="61.979" transform="translate(169.516 0.676)" fill="none" stroke="#e3f2ff" stroke-linecap="round" stroke-linejoin="round" stroke-width="5.127"/>
        <line id="Line_3384" data-name="Line 3384" x2="112.527" transform="translate(59.451 63.27)" fill="none" stroke="#e3f2ff" stroke-linecap="round" stroke-linejoin="round" stroke-width="5.127"/>
        <line id="Line_3385" data-name="Line 3385" y2="61.979" transform="translate(59.451 0.676)" fill="none" stroke="#e3f2ff" stroke-linecap="round" stroke-linejoin="round" stroke-width="5.127"/>
        <line id="Line_3386" data-name="Line 3386" y2="61.979" transform="translate(96.128 0.676)" fill="none" stroke="#e3f2ff" stroke-linecap="round" stroke-linejoin="round" stroke-width="5.127"/>
        <line id="Line_3387" data-name="Line 3387" y2="61.979" transform="translate(134.987 0.676)" fill="none" stroke="#e3f2ff" stroke-linecap="round" stroke-linejoin="round" stroke-width="5.127"/>
        <path id="Path_878105" data-name="Path 878105" d="M608.392,572.876a2.505,2.505,0,1,1-2.488-2.522A2.505,2.505,0,0,1,608.392,572.876Z" transform="translate(-444.278 -419.959)" fill="none" stroke="#0e0f29" stroke-linecap="round" stroke-linejoin="round" stroke-width="3.634"/>
        <path id="Path_878106" data-name="Path 878106" d="M77.718,25.368a2.505,2.505,0,1,1-2.488-2.522A2.505,2.505,0,0,1,77.718,25.368Z" transform="translate(-53.536 -16.822)" fill="none" stroke="#0e0f29" stroke-linecap="round" stroke-linejoin="round" stroke-width="3.634"/>
        <path id="Path_878107" data-name="Path 878107" d="M301.333,224.669l-56.161-.376a15.641,15.641,0,0,1-15.536-15.745l.892-133.291a15.641,15.641,0,0,1,15.745-15.536l56.161.376a15.641,15.641,0,0,1,15.536,15.745l-.892,133.291a15.641,15.641,0,0,1-15.745,15.536" transform="translate(-169.084 -43.973)" fill="#0e0f29"/>
        <path id="Path_878108" data-name="Path 878108" d="M284.939,224.559l-56.161-.376a15.641,15.641,0,0,1-15.536-15.745l.892-133.291A15.641,15.641,0,0,1,229.88,59.611l56.161.376a15.641,15.641,0,0,1,15.536,15.745l-.892,133.291a15.641,15.641,0,0,1-15.745,15.536" transform="translate(-157.013 -43.892)" fill="#fff"/>
        <path id="Path_878109" data-name="Path 878109" d="M291.925,233.3l-50.408-.338a14.355,14.355,0,0,1-14.259-14.451l.834-124.5a14.355,14.355,0,0,1,14.451-14.258l50.408.337A14.355,14.355,0,0,1,307.21,94.536l-.834,124.5A14.355,14.355,0,0,1,291.925,233.3" transform="translate(-167.334 -58.719)" fill="#b7d9f7"/>
        <path id="Path_878110" data-name="Path 878110" d="M284.939,224.559l-56.161-.376a15.641,15.641,0,0,1-15.536-15.745l.892-133.291A15.641,15.641,0,0,1,229.88,59.611l56.161.376a15.641,15.641,0,0,1,15.536,15.745l-.892,133.291A15.641,15.641,0,0,1,284.939,224.559Z" transform="translate(-157.013 -43.892)" fill="none" stroke="#0e0f29" stroke-linecap="round" stroke-linejoin="round" stroke-width="4.521"/>
        <path id="Path_878111" data-name="Path 878111" d="M309.717,187.124H260.831a9.392,9.392,0,0,1-9.365-9.365v-50.4a9.392,9.392,0,0,1,9.365-9.365h48.886a9.392,9.392,0,0,1,9.365,9.365v50.4a9.392,9.392,0,0,1-9.365,9.365" transform="translate(-185.158 -86.878)" fill="#fff"/>
        <line id="Line_3388" data-name="Line 3388" x2="5.12" transform="translate(76.974 86.387)" fill="none" stroke="#0e0f29" stroke-linecap="round" stroke-linejoin="round" stroke-width="4.521"/>
        <line id="Line_3389" data-name="Line 3389" x2="5.12" transform="translate(91.077 86.387)" fill="none" stroke="#0e0f29" stroke-linecap="round" stroke-linejoin="round" stroke-width="4.521"/>
        <line id="Line_3390" data-name="Line 3390" x2="5.12" transform="translate(105.179 86.387)" fill="none" stroke="#0e0f29" stroke-linecap="round" stroke-linejoin="round" stroke-width="4.521"/>
        <line id="Line_3391" data-name="Line 3391" x2="5.12" transform="translate(119.282 86.387)" fill="none" stroke="#0e0f29" stroke-linecap="round" stroke-linejoin="round" stroke-width="4.521"/>
        <rect id="Rectangle_404989" data-name="Rectangle 404989" width="2.832" height="24.441" transform="translate(76.092 57.705)" fill="#4ea8f7"/>
        <rect id="Rectangle_404990" data-name="Rectangle 404990" width="2.832" height="16.685" transform="translate(81.212 65.461)" fill="#ff8469"/>
        <rect id="Rectangle_404991" data-name="Rectangle 404991" width="2.832" height="4.039" transform="translate(88.75 78.107)" fill="#4ea8f7"/>
        <rect id="Rectangle_404992" data-name="Rectangle 404992" width="2.832" height="19.057" transform="translate(93.869 63.431)" fill="#4ea8f7"/>
        <rect id="Rectangle_404993" data-name="Rectangle 404993" width="2.832" height="24.441" transform="translate(103.763 57.705)" fill="#4ea8f7"/>
        <rect id="Rectangle_404994" data-name="Rectangle 404994" width="2.832" height="17.291" transform="translate(108.883 64.855)" fill="#4ea8f7"/>
        <rect id="Rectangle_404995" data-name="Rectangle 404995" width="2.832" height="8.079" transform="translate(117.643 74.068)" fill="#ff8469"/>
        <rect id="Rectangle_404996" data-name="Rectangle 404996" width="2.832" height="28.784" transform="translate(122.763 53.362)" fill="#4ea8f7"/>
        <line id="Line_3392" data-name="Line 3392" x2="58.284" transform="translate(71.701 82.4)" fill="none" stroke="#0e0f29" stroke-linecap="round" stroke-linejoin="round" stroke-width="4.521"/>
        <line id="Line_3393" data-name="Line 3393" x2="40.014" transform="translate(73.862 41.747)" fill="none" stroke="#0e0f29" stroke-linecap="round" stroke-linejoin="round" stroke-width="4.521"/>
        <line id="Line_3394" data-name="Line 3394" x2="13.542" transform="translate(73.862 46.7)" fill="none" stroke="#0e0f29" stroke-linecap="round" stroke-linejoin="round" stroke-width="4.521"/>
        <path id="Path_878112" data-name="Path 878112" d="M13.483,97.342c-.63,1.34-11.549,40.051,9.6,58.939,12.655,11.3,12.178-16.094-5.9-1.765C-3.382,170.809-.54,204.435,12.733,216.272" transform="translate(-1.665 -71.674)" fill="none" stroke="#0e0f29" stroke-linecap="round" stroke-linejoin="round" stroke-width="4.521"/>
        <path id="Path_878113" data-name="Path 878113" d="M446.146,11.564c1.335.253,51.719-4.916,43.966,68.183" transform="translate(-328.503 -8.513)" fill="none" stroke="#0e0f29" stroke-linecap="round" stroke-linejoin="round" stroke-width="3.634"/>
        <path id="Path_878114" data-name="Path 878114" d="M499.124,411.195a17.775,17.775,0,1,1-19.23-16.19,17.775,17.775,0,0,1,19.23,16.19" transform="translate(-341.383 -290.799)" fill="#ff8469"/>
        <path id="Path_878115" data-name="Path 878115" d="M499.124,411.195a17.775,17.775,0,1,1-19.23-16.19A17.775,17.775,0,0,1,499.124,411.195Z" transform="translate(-341.383 -290.799)" fill="none" stroke="#0e0f29" stroke-linecap="round" stroke-linejoin="round" stroke-width="5.071"/>
        <path id="Path_878116" data-name="Path 878116" d="M515.814,436.412a8.409,8.409,0,0,1-4.742-2.048l1.024-1.6a6.616,6.616,0,0,0,4.323,1.779c2.047-.036,3.052-1.189,3.022-2.9-.079-4.483-7.782-3.379-7.877-8.776A4.479,4.479,0,0,1,515.5,418.2l-.049-2.8,1.66-.029.048,2.74a6.1,6.1,0,0,1,3.967,2.034l-1.194,1.378a4.41,4.41,0,0,0-3.4-1.518,2.545,2.545,0,0,0-2.721,2.705c.07,4.013,7.773,2.77,7.877,8.72a4.644,4.644,0,0,1-4.206,4.891l.049,2.8-1.661.029Z" transform="translate(-376.309 -305.848)" fill="#fff"/>
        <path id="Path_878117" data-name="Path 878117" d="M119.989,55.862A22.776,22.776,0,0,0,97.214,78.637h22.775Z" transform="translate(-71.58 -41.132)" fill="#4ea8f7"/>
        <path id="Path_878118" data-name="Path 878118" d="M119.989,55.862A22.776,22.776,0,0,0,97.214,78.637h22.775Z" transform="translate(-71.58 -41.132)" fill="none" stroke="#0e0f29" stroke-linecap="round" stroke-linejoin="round" stroke-width="4.3"/>
        <path id="Path_878119" data-name="Path 878119" d="M144.063,75.7c-.365,0-.726.012-1.086.03l-.2,23.167H121.45a22.624,22.624,0,1,0,22.613-23.2" transform="translate(-89.425 -55.739)" fill="#ff8469"/>
        <path id="Path_878120" data-name="Path 878120" d="M144.063,75.7c-.365,0-.726.012-1.086.03l-.2,23.167H121.45a22.624,22.624,0,1,0,22.613-23.2Z" transform="translate(-89.425 -55.739)" fill="none" stroke="#0e0f29" stroke-linecap="round" stroke-linejoin="round" stroke-width="4.3"/>
        <path id="Path_878121" data-name="Path 878121" d="M276.762,620.538c.514-3.693,1.867-13.268,2.692-19.1a3.185,3.185,0,0,0-5.72-2.33c-3.965,5.293-4.073,14.114-4.539,16.227,0,0-1.714,8.6-17.716,6.552" transform="translate(-185.168 -440.169)" fill="none" stroke="#0e0f29" stroke-linecap="round" stroke-linejoin="round" stroke-width="5.222"/>
        <path id="Path_878122" data-name="Path 878122" d="M361.9,515.3l21.049-.623L376.7,450.767H360.833Z" transform="translate(-265.686 -331.906)" fill="#4ea8f7"/>
        <path id="Path_878123" data-name="Path 878123" d="M388.964,450.767h4.14l6.245,63.911h-16.24" transform="translate(-282.088 -331.906)" fill="none" stroke="#0e0f29" stroke-linecap="round" stroke-linejoin="round" stroke-width="4.476"/>
        <path id="Path_878124" data-name="Path 878124" d="M142.269,514.677H58.231l4.809-63.911h84.038Z" transform="translate(-42.876 -331.905)" fill="#4ea8f7"/>
        <path id="Path_878125" data-name="Path 878125" d="M142.269,514.677H58.231l4.809-63.911h84.038Z" transform="translate(-42.876 -331.905)" fill="none" stroke="#0e0f29" stroke-linecap="round" stroke-linejoin="round" stroke-width="4.476"/>
        <path id="Path_878126" data-name="Path 878126" d="M154.752,547.007H82.21l3.249-41.461H158Z" transform="translate(-60.532 -372.24)" fill="#fff"/>
        <path id="Path_878127" data-name="Path 878127" d="M134.61,467.484a3.261,3.261,0,0,1-3.195,2.963,2.7,2.7,0,0,1-2.731-2.963,3.261,3.261,0,0,1,3.2-2.963,2.7,2.7,0,0,1,2.73,2.963" transform="translate(-94.745 -342.033)" fill="#fff"/>
        <path id="Path_878128" data-name="Path 878128" d="M221.65,467.484a3.261,3.261,0,0,1-3.195,2.963,2.7,2.7,0,0,1-2.731-2.963,3.261,3.261,0,0,1,3.2-2.963,2.7,2.7,0,0,1,2.73,2.963" transform="translate(-158.834 -342.033)" fill="#fff"/>
        <path id="Path_878129" data-name="Path 878129" d="M309.178,467.484a3.261,3.261,0,0,1-3.195,2.963,2.7,2.7,0,0,1-2.731-2.963,3.261,3.261,0,0,1,3.2-2.963,2.7,2.7,0,0,1,2.73,2.963" transform="translate(-223.282 -342.033)" fill="#fff"/>
        <path id="Path_878130" data-name="Path 878130" d="M135.412,426.184a9.76,9.76,0,0,1-3.587-8.619c.447-5.712,5.108-10.359,10.39-10.359s9.214,4.647,8.766,10.359" transform="translate(-97.039 -299.832)" fill="none" stroke="#0e0f29" stroke-linecap="round" stroke-linejoin="round" stroke-width="4.476"/>
        <path id="Path_878131" data-name="Path 878131" d="M221.936,426.184a9.76,9.76,0,0,1-3.587-8.619c.447-5.712,5.108-10.359,10.39-10.359s9.214,4.647,8.766,10.359" transform="translate(-160.748 -299.832)" fill="none" stroke="#0e0f29" stroke-linecap="round" stroke-linejoin="round" stroke-width="4.476"/>
        <path id="Path_878132" data-name="Path 878132" d="M308.459,426.184a9.76,9.76,0,0,1-3.587-8.619c.447-5.712,5.108-10.359,10.39-10.359s9.214,4.647,8.766,10.359" transform="translate(-224.456 -299.832)" fill="none" stroke="#0e0f29" stroke-linecap="round" stroke-linejoin="round" stroke-width="4.476"/>
        <line id="Line_3395" data-name="Line 3395" x1="3.155" y2="40.265" transform="translate(36.001 134.502)" fill="none" stroke="#0e0f29" stroke-linecap="round" stroke-linejoin="round" stroke-width="4.476"/>
        <line id="Line_3396" data-name="Line 3396" x1="3.155" y2="40.265" transform="translate(55.989 134.502)" fill="none" stroke="#0e0f29" stroke-linecap="round" stroke-linejoin="round" stroke-width="4.476"/>
        <line id="Line_3397" data-name="Line 3397" x1="3.155" y2="40.265" transform="translate(75.978 134.502)" fill="none" stroke="#0e0f29" stroke-linecap="round" stroke-linejoin="round" stroke-width="4.476"/>
        <line id="Line_3398" data-name="Line 3398" x2="72.542" transform="translate(23.671 149.329)" fill="none" stroke="#0e0f29" stroke-linecap="round" stroke-linejoin="round" stroke-width="4.476"/>
        <line id="Line_3399" data-name="Line 3399" x2="72.542" transform="translate(22.34 166.315)" fill="none" stroke="#0e0f29" stroke-linecap="round" stroke-linejoin="round" stroke-width="4.476"/>
        <path id="Path_878133" data-name="Path 878133" d="M160.46,524.092a17.14,17.14,0,1,0,17.14-17.14,17.14,17.14,0,0,0-17.14,17.14" transform="translate(-118.149 -373.275)" fill="#ff8469"/>
        <path id="Path_878134" data-name="Path 878134" d="M200.485,555.985l3.645,5.948,7.238-14.362" transform="translate(-147.619 -403.184)" fill="none" stroke="#0e0f29" stroke-linecap="round" stroke-linejoin="round" stroke-width="4.476"/>
      </g>
    </g>
  </g>
</svg>
