<svg xmlns="http://www.w3.org/2000/svg" xmlns:xlink="http://www.w3.org/1999/xlink" width="100" height="100" viewBox="0 0 100 100">
  <defs>
    <clipPath id="clip-path">
      <rect id="Rectangle_405054" data-name="Rectangle 405054" width="54.631" height="33.177" fill="#12263f"/>
    </clipPath>
  </defs>
  <g id="img22" transform="translate(-505.713 -7988)">
    <g id="Group_1101010" data-name="Group 1101010" transform="translate(536.702 7988)">
      <path id="Path_875656" data-name="Path 875656" d="M208.54,10.626,141.848,77.319v2.317h2.317l66.693-66.693V10.626Z" transform="translate(-141.847 -10.626)" fill="#225a78"/>
      <path id="Path_875657" data-name="Path 875657" d="M198.323,10.626,141.848,67.1v4.635l61.109-61.11Z" transform="translate(-141.847 -10.626)" fill="#225a78"/>
      <path id="Path_875658" data-name="Path 875658" d="M188.1,10.626,141.847,56.884v4.634l50.892-50.892Z" transform="translate(-141.847 -10.626)" fill="#225a78"/>
      <path id="Path_875659" data-name="Path 875659" d="M177.887,10.626l-36.04,36.041V51.3l40.675-40.675Z" transform="translate(-141.847 -10.626)" fill="#225a78"/>
      <path id="Path_875660" data-name="Path 875660" d="M167.67,10.626,141.847,36.449v4.634L172.3,10.626Z" transform="translate(-141.847 -10.626)" fill="#225a78"/>
      <path id="Path_875661" data-name="Path 875661" d="M157.452,10.626l-15.6,15.605v4.635l20.239-20.24Z" transform="translate(-141.847 -10.626)" fill="#225a78"/>
      <path id="Path_875662" data-name="Path 875662" d="M147.234,10.626l-5.388,5.388v4.635l10.022-10.022Z" transform="translate(-141.847 -10.626)" fill="#225a78"/>
      <path id="Path_875663" data-name="Path 875663" d="M268.109,146.91h4.634l5.387-5.388v-4.634Z" transform="translate(-209.12 -77.899)" fill="#225a78"/>
      <path id="Path_875664" data-name="Path 875664" d="M246.238,135.257h4.635l15.6-15.606v-4.634Z" transform="translate(-197.467 -66.246)" fill="#225a78"/>
      <path id="Path_875665" data-name="Path 875665" d="M224.368,123.6H229l25.822-25.823V93.147Z" transform="translate(-185.815 -54.594)" fill="#225a78"/>
      <path id="Path_875666" data-name="Path 875666" d="M202.5,111.952h4.634l36.04-36.041V71.277Z" transform="translate(-174.163 -42.941)" fill="#225a78"/>
      <path id="Path_875667" data-name="Path 875667" d="M180.628,100.3h4.634L231.52,54.041V49.407Z" transform="translate(-162.509 -31.289)" fill="#225a78"/>
      <path id="Path_875668" data-name="Path 875668" d="M158.757,88.646h4.634l56.475-56.476V27.536Z" transform="translate(-150.857 -19.636)" fill="#225a78"/>
    </g>
    <rect id="Rectangle_403642" data-name="Rectangle 403642" width="71.286" height="71.286" transform="translate(506.713 8015.713)" fill="none" stroke="#225a78" stroke-linecap="round" stroke-linejoin="round" stroke-width="2"/>
    <rect id="Rectangle_403641" data-name="Rectangle 403641" width="74.08" height="74" transform="translate(521.045 7999)" fill="#88c0de"/>
    <g id="Group_1102756" data-name="Group 1102756" transform="translate(531.045 8019)">
      <g id="Group_1102756-2" data-name="Group 1102756" clip-path="url(#clip-path)">
        <path id="Path_879075" data-name="Path 879075" d="M45.465,88.957c.125,0-.206-.557-.237-.644a1.361,1.361,0,0,1-.06-.707,2,2,0,0,1,.271-.656c.253-.447.545-.876.816-1.312.6-.96,1.425-2.789,2.866-1.868,1.389.889.186,2.371-.4,3.319-.651,1.047-1.373,2.782-2.922,1.958-.744-.4-1.407.734-.661,1.131a2.8,2.8,0,0,0,3.5-.541A14.642,14.642,0,0,0,49.9,87.661a6.916,6.916,0,0,0,1.137-2.187,2.756,2.756,0,0,0-1.587-3c-2.342-1.041-3.54,1.233-4.552,2.86a5.549,5.549,0,0,0-1.05,2.185c-.1.885.457,2.75,1.613,2.75a.656.656,0,0,0,0-1.31" transform="translate(-34.267 -64.257)" fill="#12263f"/>
        <path id="Path_879076" data-name="Path 879076" d="M62.038,90.869c-1.62-1.166.537-3.534,1.243-4.667.653-1.049,1.855-4.021,3.537-2.946,1.646,1.052-.476,3.435-1.13,4.486-.727,1.169-1.854,4.083-3.649,3.127-.744-.4-1.407.734-.661,1.131a2.8,2.8,0,0,0,3.4-.44,9.592,9.592,0,0,0,1.072-1.6c.86-1.382,1.853-2.743,2.6-4.191a2.75,2.75,0,0,0-4-3.524,5.268,5.268,0,0,0-1.264,1.634l-1.593,2.561c-.371.6-.78,1.182-1.118,1.8a2.811,2.811,0,0,0,.9,3.766c.685.493,1.34-.643.661-1.131" transform="translate(-46.97 -63.878)" fill="#12263f"/>
        <path id="Path_879077" data-name="Path 879077" d="M78.162,106.212c-1.479-1.064.07-2.782.732-3.846.633-1.017,1.57-3.287,3.139-2.306,1.522.952-.061,2.769-.675,3.756-.687,1.1-1.535,3.281-3.195,2.4-.744-.4-1.407.734-.661,1.131,1.792.954,3.205,0,4.152-1.523a17.089,17.089,0,0,0,2.24-3.792A2.761,2.761,0,0,0,80.2,98.744c-1.374.57-2.144,2.482-2.882,3.668a7.87,7.87,0,0,0-1.02,1.831,2.822,2.822,0,0,0,1.2,3.1c.685.493,1.34-.643.661-1.131" transform="translate(-59.557 -77.019)" fill="#12263f"/>
        <path id="Path_879078" data-name="Path 879078" d="M94.36,121.5c-1.314-.946-.276-2.227.333-3.206.565-.908,1.319-2.323,2.628-1.486s.342,2.12-.221,3.026c-.623,1-1.3,2.436-2.741,1.666-.744-.4-1.407.734-.661,1.131a2.8,2.8,0,0,0,3.1-.169,7.042,7.042,0,0,0,1.437-1.968,6.151,6.151,0,0,0,1.01-1.984,2.733,2.733,0,0,0-4.289-2.717,5.967,5.967,0,0,0-1.391,1.838A6.828,6.828,0,0,0,92.44,119.8a2.811,2.811,0,0,0,1.259,2.835c.685.493,1.34-.643.661-1.131" transform="translate(-72.216 -90.11)" fill="#12263f"/>
        <path id="Path_879079" data-name="Path 879079" d="M103.989,21.063a5.111,5.111,0,0,1-5.423-.672,5.368,5.368,0,0,0-3.4-1.4c-.908-.009-1.817,0-2.726,0a6.527,6.527,0,0,0-2.409.237,13.184,13.184,0,0,0-3.283,2.424,31.472,31.472,0,0,0-4.016,3.529c-.538.631-1.21,1.582-.641,2.4a3.662,3.662,0,0,0,3.025,1.079,10.073,10.073,0,0,0,5.462-2.309l-.794.1,9.572,5.96,5.858,3.648c.506.315,1.031.612,1.523.948a1.892,1.892,0,0,1,.462.355,1.491,1.491,0,0,1,.217,1.544c-.152.5-.4.68-.987.8-.989.211-2.312-.968-3.084-1.448L100.6,36.565c-.718-.447-1.376.686-.661,1.131l2.654,1.651a12.28,12.28,0,0,0,2.772,1.606,2.742,2.742,0,0,0,2.071-5.044c-4.044-2.672-8.245-5.134-12.36-7.7l-4.63-2.883a.677.677,0,0,0-.794.1,5.8,5.8,0,0,0-.482.332,13,13,0,0,1-1.354.784,5.588,5.588,0,0,1-3.74.718c-.828-.216-1.04-.359-.51-1.047a13.1,13.1,0,0,1,2-1.916c1.365-1.148,2.736-2.415,4.2-3.429,1.432-.99,3.726-.585,5.392-.568,1.757.018,2.772,1.477,4.292,2.143a6.08,6.08,0,0,0,4.882-.123c.769-.317.432-1.585-.348-1.264" transform="translate(-63.994 -14.843)" fill="#12263f"/>
        <path id="Path_879080" data-name="Path 879080" d="M150.543,98.886l1.917,1.193a2.146,2.146,0,0,1,.9.808,1.429,1.429,0,0,1-1.075,2.04c-.837.119-1.761-.685-2.433-1.1l-1.663-1.036c-.718-.447-1.377.686-.662,1.131,1.827,1.137,4.47,3.542,6.493,1.536a2.756,2.756,0,0,0-.276-4.1,29.425,29.425,0,0,0-2.544-1.6c-.718-.447-1.376.686-.661,1.131" transform="translate(-115.074 -76.328)" fill="#12263f"/>
        <path id="Path_879081" data-name="Path 879081" d="M136.753,112.779c.521.324,1.068.625,1.571.978,1.187.833.789,2.895-.875,2.662-1.02-.143-2.171-1.191-3.046-1.736-.718-.447-1.377.686-.661,1.131,1.657,1.031,3.767,2.9,5.668,1.29a2.754,2.754,0,0,0,.4-3.752,8.693,8.693,0,0,0-2.4-1.7c-.718-.447-1.376.686-.661,1.131" transform="translate(-104.295 -87.187)" fill="#12263f"/>
        <path id="Path_879082" data-name="Path 879082" d="M122.963,126.68c.333.207.7.392,1.011.63a1.432,1.432,0,0,1-.6,2.611c-.925.109-2.016-.876-2.76-1.34-.718-.447-1.376.686-.661,1.131,1.534.956,3.312,2.352,5.038.869a2.755,2.755,0,0,0,.64-3.334,4.9,4.9,0,0,0-2.006-1.7c-.718-.447-1.376.686-.661,1.131" transform="translate(-93.516 -98.052)" fill="#12263f"/>
        <path id="Path_879083" data-name="Path 879083" d="M63.268,20.326a6.337,6.337,0,0,0,3.993.235,6.455,6.455,0,0,0,1.869-.951c.754-.539,1.611-1.791,2.624-1.221a.656.656,0,0,0,.661-1.131c-1.426-.8-2.383-.064-3.485.857a5.069,5.069,0,0,1-5.314.948c-.8-.279-1.141.987-.348,1.263" transform="translate(-49.1 -13.221)" fill="#12263f"/>
        <path id="Path_879084" data-name="Path 879084" d="M198.6,75.938a4.32,4.32,0,0,0-2.907,3.294c-.148.825,1.114,1.178,1.264.348a3.02,3.02,0,0,1,1.992-2.379c.795-.268.454-1.534-.348-1.264" transform="translate(-152.95 -59.326)" fill="#12263f"/>
        <path id="Path_879085" data-name="Path 879085" d="M39.659,75.625a3.151,3.151,0,0,0-2.39-2.125.673.673,0,0,0-.806.457.661.661,0,0,0,.457.806,1.852,1.852,0,0,1,1.475,1.21c.268.795,1.534.454,1.264-.348" transform="translate(-28.485 -57.439)" fill="#12263f"/>
        <path id="Path_879086" data-name="Path 879086" d="M187.788,6.019l5.144-3.664-.9-.235,7.4,14.534.235-.9-5.558,2.556.9.235L188.023,5.123c-.389-.748-1.521-.086-1.131.661l6.989,13.427a.671.671,0,0,0,.9.235l5.557-2.556a.666.666,0,0,0,.235-.9l-7.4-14.534a.659.659,0,0,0-.9-.235l-5.144,3.664c-.681.485-.028,1.622.661,1.131" transform="translate(-146.017 -0.884)" fill="#12263f"/>
        <path id="Path_879087" data-name="Path 879087" d="M13.523,3.757,8.379.092a.659.659,0,0,0-.9.235L.08,14.862a.663.663,0,0,0,.235.9l5.558,2.557a.668.668,0,0,0,.9-.235L13.757,4.653c.389-.747-.741-1.41-1.131-.661L5.638,17.418l.9-.235L.976,14.626l.235.9L8.614.989l-.9.235,5.144,3.664c.688.49,1.343-.646.661-1.131" transform="translate(0 0)" fill="#12263f"/>
      </g>
    </g>
  </g>
</svg>
