<svg xmlns="http://www.w3.org/2000/svg" xmlns:xlink="http://www.w3.org/1999/xlink" width="1239" height="282.485" viewBox="0 0 1239 282.485">
  <defs>
    <clipPath id="clip-path">
      <path id="Path_611005" data-name="Path 611005" d="M0,0H1238V281.485H0Z" fill="#d8eaf4"/>
    </clipPath>
    <clipPath id="clip-path-2">
      <rect id="Rectangle_403603" data-name="Rectangle 403603" width="276" height="282" transform="translate(-0.429 70)" fill="#fff" stroke="#707070" stroke-width="1"/>
    </clipPath>
    <clipPath id="clip-path-3">
      <rect id="Rectangle_403607" data-name="Rectangle 403607" width="259" height="153" transform="translate(824.571 70)" fill="#fff" stroke="#707070" stroke-width="1"/>
    </clipPath>
    <clipPath id="clip-path-4">
      <rect id="Rectangle_403605" data-name="Rectangle 403605" width="184.109" height="185.343" fill="none"/>
    </clipPath>
    <clipPath id="clip-path-5">
      <rect id="Rectangle_403608" data-name="Rectangle 403608" width="325" height="208" transform="translate(1252.571 82)" fill="#fff" stroke="#707070" stroke-width="1"/>
    </clipPath>
    <clipPath id="clip-path-6">
      <rect id="Rectangle_403583" data-name="Rectangle 403583" width="201.573" height="225.999" fill="none"/>
    </clipPath>
    <clipPath id="clip-path-7">
      <rect id="Rectangle_403585" data-name="Rectangle 403585" width="19.776" height="234.436" fill="none"/>
    </clipPath>
    <linearGradient id="linear-gradient" x1="1.051" y1="0.256" x2="-0.054" y2="0.246" gradientUnits="objectBoundingBox">
      <stop offset="0" stop-color="#b0d5e9"/>
      <stop offset="1" stop-color="#88c0de"/>
    </linearGradient>
    <clipPath id="clip-path-8">
      <rect id="Rectangle_404865" data-name="Rectangle 404865" width="65" height="65" transform="translate(0.271 -0.175)" fill="#225a78"/>
    </clipPath>
    <clipPath id="clip-path-9">
      <rect id="Rectangle_404866" data-name="Rectangle 404866" width="51.714" height="64.825" fill="#225a78"/>
    </clipPath>
  </defs>
  <g id="img2" transform="translate(-180 -1331)">
    <g id="Group_1102373" data-name="Group 1102373" transform="translate(-104 884.5)">
      <path id="Path_608309" data-name="Path 608309" d="M0,0H1238V281.485H0Z" transform="translate(285 446.5)" fill="#d8eaf4"/>
    </g>
    <g id="Mask_Group_1098818" data-name="Mask Group 1098818" transform="translate(180.429 1261)" opacity="0.2" clip-path="url(#clip-path-2)">
      <g id="Group_1100914" data-name="Group 1100914" transform="translate(242.92 419.054) rotate(180)">
        <rect id="Rectangle_403579" data-name="Rectangle 403579" width="121.399" height="518.689" transform="translate(121.399 54.629)" fill="#88c0de"/>
        <path id="Path_875510" data-name="Path 875510" d="M234.644,0,0,234.644V242.8H8.151L242.8,8.153V0Z" transform="translate(0.002 0)" fill="#225a78"/>
        <path id="Path_875511" data-name="Path 875511" d="M198.7,0,0,198.7V215L215,0Z" transform="translate(0.002 0)" fill="#225a78"/>
        <path id="Path_875512" data-name="Path 875512" d="M162.748,0,0,162.748v16.3L179.054,0Z" transform="translate(0 0)" fill="#225a78"/>
        <path id="Path_875513" data-name="Path 875513" d="M126.8,0,0,126.8v16.3L143.106,0Z" transform="translate(0 0)" fill="#225a78"/>
        <path id="Path_875514" data-name="Path 875514" d="M90.853,0,0,90.853v16.3L107.158,0Z" transform="translate(0 0)" fill="#225a78"/>
        <path id="Path_875515" data-name="Path 875515" d="M54.9,0,0,54.9V71.209L71.209,0Z" transform="translate(0 0)" fill="#225a78"/>
        <path id="Path_875516" data-name="Path 875516" d="M18.955,0,0,18.955V35.261L35.261,0Z" transform="translate(0 0)" fill="#225a78"/>
        <path id="Path_875517" data-name="Path 875517" d="M0,35.259H16.306L35.259,16.3V0Z" transform="translate(207.538 207.538)" fill="#225a78"/>
        <path id="Path_875518" data-name="Path 875518" d="M0,71.209H16.306l54.9-54.9V0Z" transform="translate(171.589 171.589)" fill="#225a78"/>
        <path id="Path_875519" data-name="Path 875519" d="M0,107.156H16.306L107.156,16.3V0Z" transform="translate(135.641 135.641)" fill="#225a78"/>
        <path id="Path_875520" data-name="Path 875520" d="M0,143.1H16.306L143.1,16.3V0Z" transform="translate(99.693 99.693)" fill="#225a78"/>
        <path id="Path_875521" data-name="Path 875521" d="M0,179.052H16.3L179.052,16.3V0Z" transform="translate(63.745 63.745)" fill="#225a78"/>
        <path id="Path_875522" data-name="Path 875522" d="M0,215H16.306L215,16.306V0Z" transform="translate(27.796 27.796)" fill="#225a78"/>
      </g>
    </g>
    <g id="Mask_Group_1098820" data-name="Mask Group 1098820" transform="translate(-180.571 1261)" opacity="0.2" clip-path="url(#clip-path-3)">
      <g id="Group_1100949" data-name="Group 1100949" transform="translate(864.148 19.328)">
        <path id="Path_875573" data-name="Path 875573" d="M33.115,33.116h95.7v95.7h-95.7ZM0,161.93H161.929V0H0Z" transform="translate(0 0)" fill="#d7ca51"/>
        <g id="Group_1100948" data-name="Group 1100948">
          <g id="Group_1100947" data-name="Group 1100947" clip-path="url(#clip-path-4)">
            <rect id="Rectangle_403604" data-name="Rectangle 403604" width="95.698" height="95.698" transform="translate(86.94 88.174)" fill="none" stroke="#225a78" stroke-linecap="round" stroke-linejoin="round" stroke-width="2"/>
          </g>
        </g>
      </g>
    </g>
    <g id="Mask_Group_1098821" data-name="Mask Group 1098821" transform="translate(-180.571 1323)" opacity="0.2" clip-path="url(#clip-path-5)">
      <g id="Group_1100950" data-name="Group 1100950">
        <g id="Group_1100928" data-name="Group 1100928" transform="translate(1363.214 102)">
          <path id="Path_875559" data-name="Path 875559" d="M90.153,63.686,47.249,20.78,0,68.029l42.9,42.906L0,153.839,47.249,201.09l42.9-42.906L133.06,201.09l47.249-47.251-42.906-42.9,42.906-42.906L133.06,20.78Z" transform="translate(0 24.91)" fill="#00d1a1"/>
          <g id="Group_1100920" data-name="Group 1100920">
            <g id="Group_1100919" data-name="Group 1100919" clip-path="url(#clip-path-6)">
              <path id="Path_875560" data-name="Path 875560" d="M188.98,48.249,141.731,1,98.824,43.9,55.92,1,8.671,48.249l42.9,42.9L8.671,134.06,55.92,181.309l42.9-42.9,42.906,42.9L188.98,134.06l-42.9-42.906Z" transform="translate(10.394 1.199)" fill="none" stroke="#225a78" stroke-linecap="round" stroke-linejoin="round" stroke-width="2"/>
            </g>
          </g>
        </g>
        <g id="Group_1100946" data-name="Group 1100946" transform="translate(1295.224 151.564)">
          <g id="Group_1100924" data-name="Group 1100924" clip-path="url(#clip-path-7)">
            <path id="Path_875565" data-name="Path 875565" d="M19.776,104.966a9.888,9.888,0,1,0-9.888,9.888,9.888,9.888,0,0,0,9.888-9.888" fill="#225a78"/>
            <path id="Path_875566" data-name="Path 875566" d="M19.776,57.427a9.888,9.888,0,1,0-9.888,9.888,9.888,9.888,0,0,0,9.888-9.888" fill="#225a78"/>
            <path id="Path_875567" data-name="Path 875567" d="M19.776,152.506a9.888,9.888,0,1,0-9.888,9.888,9.888,9.888,0,0,0,9.888-9.888" fill="#225a78"/>
            <line id="Line_3240" data-name="Line 3240" y2="223.548" transform="translate(9.888 9.888)" fill="none" stroke="#225a78" stroke-linecap="round" stroke-linejoin="round" stroke-width="2"/>
            <path id="Path_875568" data-name="Path 875568" d="M19.776,9.888a9.888,9.888,0,1,0-9.888,9.888,9.888,9.888,0,0,0,9.888-9.888" fill="#00d1a1"/>
            <path id="Path_875569" data-name="Path 875569" d="M9.888,14.568a4.681,4.681,0,1,0-4.68-4.68,4.68,4.68,0,0,0,4.68,4.68" fill="#225a78"/>
          </g>
        </g>
      </g>
    </g>
    <path id="Union_5" data-name="Union 5" d="M-2688.3,11786.51h-659.755a5.3,5.3,0,0,0,2.242-.5c-.084,0-.169.007-.254.007H-3595.68a5.317,5.317,0,0,1-5.318-5.318v-75.38a5.318,5.318,0,0,1,5.318-5.318h249.616a5.319,5.319,0,0,1,2.238.494h875.518a5.3,5.3,0,0,1,4.109,1.94l30.968,37.691a5.345,5.345,0,0,1,1.21,3.321v.109a5.347,5.347,0,0,1-1.21,3.322l-30.968,37.688a5.3,5.3,0,0,1-4.109,1.943Zm.066,0h0Zm-220,0h0Zm255-39.631-30.968,37.688a5.3,5.3,0,0,1-3.958,1.94,5.3,5.3,0,0,0,3.958-1.94l30.968-37.688Zm-220,0-30.968,37.688a5.3,5.3,0,0,1-3.958,1.94,5.3,5.3,0,0,0,3.958-1.94l30.968-37.688Zm221.21-3.322v0Zm-220,0v0Z" transform="translate(3814 -10268)" fill="#5589a5" stroke="rgba(0,0,0,0)" stroke-miterlimit="10" stroke-width="1" opacity="0.308"/>
    <g id="Group_1102554" data-name="Group 1102554" transform="translate(-5883.778 11977)">
      <path id="Subtraction_105" data-name="Subtraction 105" d="M472.937,86.017H252.948a5.3,5.3,0,0,0,4.1-1.942l30.967-37.689a5.339,5.339,0,0,0,1.21-3.323v-.108a5.343,5.343,0,0,0-1.21-3.323L257.045,1.942A5.3,5.3,0,0,0,252.936,0h220a5.3,5.3,0,0,1,4.108,1.942l30.968,37.689a5.341,5.341,0,0,1,1.209,3.323v.108a5.337,5.337,0,0,1-1.209,3.323L477.045,84.074A5.3,5.3,0,0,1,472.937,86.017Z" transform="translate(6099.778 -10547.508)" stroke="rgba(0,0,0,0)" stroke-miterlimit="10" stroke-width="1" fill="url(#linear-gradient)"/>
      <path id="Subtraction_106" data-name="Subtraction 106" d="M472.937,86.017H252.948a5.3,5.3,0,0,0,4.1-1.942l30.967-37.689a5.339,5.339,0,0,0,1.21-3.323v-.108a5.343,5.343,0,0,0-1.21-3.323L257.045,1.942A5.3,5.3,0,0,0,252.936,0h220a5.3,5.3,0,0,1,4.108,1.942l30.968,37.689a5.341,5.341,0,0,1,1.209,3.323v.108a5.337,5.337,0,0,1-1.209,3.323L477.045,84.074A5.3,5.3,0,0,1,472.937,86.017Z" transform="translate(6319.532 -10547.508)" stroke="rgba(0,0,0,0)" stroke-miterlimit="10" stroke-width="1" fill="url(#linear-gradient)"/>
      <path id="Subtraction_107" data-name="Subtraction 107" d="M472.937,86.017H252.948a5.3,5.3,0,0,0,4.1-1.942l30.967-37.689a5.339,5.339,0,0,0,1.21-3.323v-.108a5.343,5.343,0,0,0-1.21-3.323L257.045,1.942A5.3,5.3,0,0,0,252.936,0h220a5.3,5.3,0,0,1,4.108,1.942l30.968,37.689a5.341,5.341,0,0,1,1.209,3.323v.108a5.337,5.337,0,0,1-1.209,3.323L477.045,84.074A5.3,5.3,0,0,1,472.937,86.017Z" transform="translate(6539.532 -10547.508)" stroke="rgba(0,0,0,0)" stroke-miterlimit="10" stroke-width="1" fill="url(#linear-gradient)"/>
      <path id="Subtraction_108" data-name="Subtraction 108" d="M472.937,86.017H252.948a5.3,5.3,0,0,0,4.1-1.942l30.967-37.689a5.339,5.339,0,0,0,1.21-3.323v-.108a5.343,5.343,0,0,0-1.21-3.323L257.045,1.942A5.3,5.3,0,0,0,252.936,0h220a5.3,5.3,0,0,1,4.108,1.942l30.968,37.689a5.341,5.341,0,0,1,1.209,3.323v.108a5.337,5.337,0,0,1-1.209,3.323L477.045,84.074A5.3,5.3,0,0,1,472.937,86.017Z" transform="translate(6759.532 -10547.508)" stroke="rgba(0,0,0,0)" stroke-miterlimit="10" stroke-width="1" fill="url(#linear-gradient)"/>
      <path id="Path_879973" data-name="Path 879973" d="M7.859,12.07h-4.5v3.047H8.641V17H1.016V5.625H8.625v1.9H3.359v2.711h4.5Zm6.586,2.594a.727.727,0,0,0-.41-.652,4.659,4.659,0,0,0-1.316-.426Q9.7,12.953,9.7,11.023a2.323,2.323,0,0,1,.934-1.879,3.766,3.766,0,0,1,2.441-.754,4.053,4.053,0,0,1,2.574.758,2.388,2.388,0,0,1,.965,1.969H14.359a1.092,1.092,0,0,0-.312-.8A1.322,1.322,0,0,0,13.07,10a1.351,1.351,0,0,0-.883.258.814.814,0,0,0-.312.656.7.7,0,0,0,.355.605,3.657,3.657,0,0,0,1.2.4,9.8,9.8,0,0,1,1.422.379,2.336,2.336,0,0,1,1.789,2.273,2.2,2.2,0,0,1-.992,1.871,4.28,4.28,0,0,1-2.562.715,4.47,4.47,0,0,1-1.887-.379,3.166,3.166,0,0,1-1.293-1.039,2.414,2.414,0,0,1-.469-1.426h2.141a1.179,1.179,0,0,0,.445.922,1.766,1.766,0,0,0,1.109.32,1.635,1.635,0,0,0,.98-.246A.766.766,0,0,0,14.445,14.664Zm6.352-8.2V8.547h1.445V10.2H20.8v4.219a1.007,1.007,0,0,0,.18.672.9.9,0,0,0,.688.2,3.6,3.6,0,0,0,.664-.055v1.711a4.648,4.648,0,0,1-1.367.2,2.156,2.156,0,0,1-2.422-2.4V10.2H17.3V8.547h1.234V6.469ZM28.4,17a2.507,2.507,0,0,1-.227-.758,2.732,2.732,0,0,1-2.133.914,3,3,0,0,1-2.059-.719,2.312,2.312,0,0,1-.816-1.812,2.389,2.389,0,0,1,1-2.062,4.915,4.915,0,0,1,2.879-.727h1.039v-.484a1.393,1.393,0,0,0-.3-.937,1.183,1.183,0,0,0-.949-.352,1.345,1.345,0,0,0-.895.273.929.929,0,0,0-.324.75H23.352A2.268,2.268,0,0,1,23.8,9.727a3,3,0,0,1,1.281-.98,4.669,4.669,0,0,1,1.859-.355,3.689,3.689,0,0,1,2.48.785,2.747,2.747,0,0,1,.918,2.207v3.664a4.041,4.041,0,0,0,.336,1.82V17Zm-1.867-1.57a1.945,1.945,0,0,0,.922-.223,1.462,1.462,0,0,0,.625-.6V13.156h-.844q-1.7,0-1.8,1.172l-.008.133a.9.9,0,0,0,.3.7A1.153,1.153,0,0,0,26.531,15.43Zm5.2-2.719a5.094,5.094,0,0,1,.887-3.148,2.877,2.877,0,0,1,2.426-1.172,2.589,2.589,0,0,1,2.039.922V5h2.266V17H37.3l-.109-.9a2.657,2.657,0,0,1-2.172,1.055,2.869,2.869,0,0,1-2.395-1.176A5.258,5.258,0,0,1,31.727,12.711Zm2.258.168A3.337,3.337,0,0,0,34.4,14.7a1.349,1.349,0,0,0,1.2.634,1.511,1.511,0,0,0,1.477-.884V11.111a1.489,1.489,0,0,0-1.461-.884Q33.984,10.227,33.984,12.879Zm6.758-.184a5.013,5.013,0,0,1,.484-2.242A3.546,3.546,0,0,1,42.621,8.93a4.069,4.069,0,0,1,2.113-.539,3.849,3.849,0,0,1,2.793,1.047,4.2,4.2,0,0,1,1.207,2.844l.016.578a4.418,4.418,0,0,1-1.086,3.121,4.209,4.209,0,0,1-5.832,0,4.5,4.5,0,0,1-1.09-3.187Zm2.258.16a3.16,3.16,0,0,0,.453,1.843,1.628,1.628,0,0,0,2.578.008,3.457,3.457,0,0,0,.461-2.015,3.128,3.128,0,0,0-.461-1.831,1.5,1.5,0,0,0-1.3-.649,1.474,1.474,0,0,0-1.281.646A3.516,3.516,0,0,0,43,12.856Zm11.719,1.808a.727.727,0,0,0-.41-.652,4.659,4.659,0,0,0-1.316-.426q-3.016-.633-3.016-2.562a2.323,2.323,0,0,1,.934-1.879,3.766,3.766,0,0,1,2.441-.754,4.053,4.053,0,0,1,2.574.758,2.388,2.388,0,0,1,.965,1.969H54.633a1.092,1.092,0,0,0-.312-.8A1.322,1.322,0,0,0,53.344,10a1.351,1.351,0,0,0-.883.258.814.814,0,0,0-.312.656.7.7,0,0,0,.355.605,3.657,3.657,0,0,0,1.2.4,9.8,9.8,0,0,1,1.422.379,2.336,2.336,0,0,1,1.789,2.273,2.2,2.2,0,0,1-.992,1.871,4.28,4.28,0,0,1-2.562.715,4.47,4.47,0,0,1-1.887-.379,3.166,3.166,0,0,1-1.293-1.039,2.414,2.414,0,0,1-.469-1.426h2.141a1.179,1.179,0,0,0,.445.922,1.766,1.766,0,0,0,1.109.32,1.635,1.635,0,0,0,.98-.246A.766.766,0,0,0,54.719,14.664ZM1.414,37V30.2H.156V28.547H1.414v-.391a3.17,3.17,0,0,1,.98-2.457,3.945,3.945,0,0,1,2.723-.863A9.031,9.031,0,0,1,7.68,25.3l-.328,1.867a10,10,0,0,0-1.187-.293,5.834,5.834,0,0,0-.906-.066q-1.578,0-1.578,1.4v.344H5.344V30.2H3.68V37Zm7.32,0H6.469V28.547H8.734Zm3.945-8.453.07.977a2.951,2.951,0,0,1,2.43-1.133,2.453,2.453,0,0,1,2,.789,3.682,3.682,0,0,1,.672,2.359V37H15.594V31.594a1.465,1.465,0,0,0-.312-1.043,1.4,1.4,0,0,0-1.039-.324,1.553,1.553,0,0,0-1.43.813V37H10.555V28.547ZM24.461,37a2.507,2.507,0,0,1-.227-.758,2.732,2.732,0,0,1-2.133.914,3,3,0,0,1-2.059-.719,2.312,2.312,0,0,1-.816-1.812,2.389,2.389,0,0,1,1-2.062,4.915,4.915,0,0,1,2.879-.727h1.039v-.484a1.393,1.393,0,0,0-.3-.937,1.183,1.183,0,0,0-.949-.352,1.345,1.345,0,0,0-.895.273.929.929,0,0,0-.324.75H19.414a2.268,2.268,0,0,1,.453-1.359,3,3,0,0,1,1.281-.98,4.669,4.669,0,0,1,1.859-.355,3.689,3.689,0,0,1,2.48.785,2.747,2.747,0,0,1,.918,2.207v3.664a4.041,4.041,0,0,0,.336,1.82V37Zm-1.867-1.57a1.945,1.945,0,0,0,.922-.223,1.462,1.462,0,0,0,.625-.6V33.156H23.3q-1.7,0-1.8,1.172l-.008.133a.9.9,0,0,0,.3.7A1.153,1.153,0,0,0,22.594,35.43Zm7.625-6.883.07.977a2.951,2.951,0,0,1,2.43-1.133,2.453,2.453,0,0,1,2,.789,3.682,3.682,0,0,1,.672,2.359V37H33.133V31.594a1.465,1.465,0,0,0-.312-1.043,1.4,1.4,0,0,0-1.039-.324,1.553,1.553,0,0,0-1.43.813V37H28.094V28.547Zm10.4,6.789a1.481,1.481,0,0,0,1.016-.344,1.2,1.2,0,0,0,.406-.914h2.117a2.9,2.9,0,0,1-.469,1.574,3.093,3.093,0,0,1-1.262,1.109,3.949,3.949,0,0,1-1.77.395A3.67,3.67,0,0,1,37.8,36,4.56,4.56,0,0,1,36.75,32.82v-.148a4.508,4.508,0,0,1,1.039-3.117,3.627,3.627,0,0,1,2.852-1.164,3.555,3.555,0,0,1,2.543.9,3.2,3.2,0,0,1,.973,2.4H42.039a1.551,1.551,0,0,0-.406-1.072,1.51,1.51,0,0,0-2.223.163,3.333,3.333,0,0,0-.4,1.866v.235a3.375,3.375,0,0,0,.4,1.878A1.377,1.377,0,0,0,40.617,35.336ZM47.828,37H45.563V28.547h2.266Zm-2.4-10.641a1.112,1.112,0,0,1,.34-.836,1.465,1.465,0,0,1,1.848,0,1.193,1.193,0,0,1,0,1.68,1.448,1.448,0,0,1-1.836,0A1.108,1.108,0,0,1,45.43,26.359Zm8.148,10.8a4.15,4.15,0,0,1-3.027-1.141,4.054,4.054,0,0,1-1.168-3.039v-.219a5.106,5.106,0,0,1,.492-2.277,3.612,3.612,0,0,1,1.395-1.547,3.914,3.914,0,0,1,2.059-.543,3.508,3.508,0,0,1,2.73,1.094,4.444,4.444,0,0,1,1,3.1v.922H51.672a2.1,2.1,0,0,0,.66,1.328,2,2,0,0,0,1.395.5,2.437,2.437,0,0,0,2.039-.945l1.109,1.242A3.389,3.389,0,0,1,55.5,36.754,4.511,4.511,0,0,1,53.578,37.156Zm-.258-6.945a1.411,1.411,0,0,0-1.09.455,2.357,2.357,0,0,0-.535,1.3h3.141v-.181a1.681,1.681,0,0,0-.406-1.165A1.456,1.456,0,0,0,53.32,30.211Zm9.766.453a6.134,6.134,0,0,0-.812-.062,1.654,1.654,0,0,0-1.68.867V37H58.336V28.547h2.133l.063,1.008a2.092,2.092,0,0,1,1.883-1.164,2.366,2.366,0,0,1,.7.1Zm.453,2.031a5.013,5.013,0,0,1,.484-2.242,3.546,3.546,0,0,1,1.395-1.523,4.069,4.069,0,0,1,2.113-.539,3.849,3.849,0,0,1,2.793,1.047,4.2,4.2,0,0,1,1.207,2.844l.016.578a4.418,4.418,0,0,1-1.086,3.121,4.209,4.209,0,0,1-5.832,0,4.5,4.5,0,0,1-1.09-3.187Zm2.258.16A3.16,3.16,0,0,0,66.25,34.7a1.628,1.628,0,0,0,2.578.008,3.457,3.457,0,0,0,.461-2.015,3.128,3.128,0,0,0-.461-1.831,1.5,1.5,0,0,0-1.3-.649,1.474,1.474,0,0,0-1.281.646A3.516,3.516,0,0,0,65.8,32.856Zm11.719,1.808a.727.727,0,0,0-.41-.652,4.659,4.659,0,0,0-1.316-.426q-3.016-.633-3.016-2.562a2.323,2.323,0,0,1,.934-1.879,3.766,3.766,0,0,1,2.441-.754,4.053,4.053,0,0,1,2.574.758,2.388,2.388,0,0,1,.965,1.969H77.43a1.092,1.092,0,0,0-.312-.8A1.322,1.322,0,0,0,76.141,30a1.351,1.351,0,0,0-.883.258.814.814,0,0,0-.312.656.7.7,0,0,0,.355.605,3.657,3.657,0,0,0,1.2.4,9.8,9.8,0,0,1,1.422.379,2.336,2.336,0,0,1,1.789,2.273,2.2,2.2,0,0,1-.992,1.871,4.28,4.28,0,0,1-2.562.715,4.47,4.47,0,0,1-1.887-.379,3.166,3.166,0,0,1-1.293-1.039,2.414,2.414,0,0,1-.469-1.426h2.141a1.179,1.179,0,0,0,.445.922,1.766,1.766,0,0,0,1.109.32,1.635,1.635,0,0,0,.98-.246A.766.766,0,0,0,77.516,34.664Z" transform="translate(7120.467 -10524)" fill="#12263f"/>
      <path id="Path_879972" data-name="Path 879972" d="M1.016,17V5.625H5a5.232,5.232,0,0,1,3.141.793,2.712,2.712,0,0,1,1.07,2.324,2.57,2.57,0,0,1-.43,1.473,2.482,2.482,0,0,1-1.2.934,2.4,2.4,0,0,1,1.379.883,2.61,2.61,0,0,1,.5,1.625,3,3,0,0,1-1.047,2.484A4.713,4.713,0,0,1,5.438,17Zm2.344-4.953v3.07H5.367a1.938,1.938,0,0,0,1.293-.395,1.353,1.353,0,0,0,.465-1.09,1.428,1.428,0,0,0-1.617-1.586Zm0-1.656H5.094q1.773-.031,1.773-1.414a1.307,1.307,0,0,0-.449-1.113A2.363,2.363,0,0,0,5,7.523H3.359ZM15.977,17a2.507,2.507,0,0,1-.227-.758,2.732,2.732,0,0,1-2.133.914,3,3,0,0,1-2.059-.719,2.312,2.312,0,0,1-.816-1.812,2.389,2.389,0,0,1,1-2.062,4.915,4.915,0,0,1,2.879-.727h1.039v-.484a1.393,1.393,0,0,0-.3-.937,1.183,1.183,0,0,0-.949-.352,1.345,1.345,0,0,0-.895.273.929.929,0,0,0-.324.75H10.93a2.268,2.268,0,0,1,.453-1.359,3,3,0,0,1,1.281-.98,4.669,4.669,0,0,1,1.859-.355A3.689,3.689,0,0,1,17,9.176a2.747,2.747,0,0,1,.918,2.207v3.664a4.041,4.041,0,0,0,.336,1.82V17Zm-1.867-1.57a1.945,1.945,0,0,0,.922-.223,1.462,1.462,0,0,0,.625-.6V13.156h-.844q-1.7,0-1.8,1.172L13,14.461a.9.9,0,0,0,.3.7A1.153,1.153,0,0,0,14.109,15.43ZM22.039,17H19.773V5h2.266ZM28.8,17a2.507,2.507,0,0,1-.227-.758,2.732,2.732,0,0,1-2.133.914,3,3,0,0,1-2.059-.719,2.312,2.312,0,0,1-.816-1.812,2.389,2.389,0,0,1,1-2.062,4.915,4.915,0,0,1,2.879-.727h1.039v-.484a1.393,1.393,0,0,0-.3-.937,1.183,1.183,0,0,0-.949-.352,1.345,1.345,0,0,0-.895.273.929.929,0,0,0-.324.75H23.75A2.268,2.268,0,0,1,24.2,9.727a3,3,0,0,1,1.281-.98,4.669,4.669,0,0,1,1.859-.355,3.689,3.689,0,0,1,2.48.785,2.747,2.747,0,0,1,.918,2.207v3.664a4.041,4.041,0,0,0,.336,1.82V17ZM26.93,15.43a1.945,1.945,0,0,0,.922-.223,1.462,1.462,0,0,0,.625-.6V13.156h-.844q-1.7,0-1.8,1.172l-.008.133a.9.9,0,0,0,.3.7A1.153,1.153,0,0,0,26.93,15.43Zm7.625-6.883.07.977a2.951,2.951,0,0,1,2.43-1.133,2.453,2.453,0,0,1,2,.789,3.682,3.682,0,0,1,.672,2.359V17H37.469V11.594a1.465,1.465,0,0,0-.312-1.043,1.4,1.4,0,0,0-1.039-.324,1.553,1.553,0,0,0-1.43.813V17H32.43V8.547Zm10.4,6.789a1.481,1.481,0,0,0,1.016-.344,1.2,1.2,0,0,0,.406-.914h2.117a2.9,2.9,0,0,1-.469,1.574,3.093,3.093,0,0,1-1.262,1.109,3.949,3.949,0,0,1-1.77.395A3.67,3.67,0,0,1,42.133,16a4.56,4.56,0,0,1-1.047-3.184v-.148a4.508,4.508,0,0,1,1.039-3.117,3.627,3.627,0,0,1,2.852-1.164,3.555,3.555,0,0,1,2.543.9,3.2,3.2,0,0,1,.973,2.4H46.375a1.551,1.551,0,0,0-.406-1.072,1.51,1.51,0,0,0-2.223.163,3.333,3.333,0,0,0-.4,1.866v.235a3.375,3.375,0,0,0,.4,1.878A1.377,1.377,0,0,0,44.953,15.336Zm8.719,1.82a4.15,4.15,0,0,1-3.027-1.141,4.054,4.054,0,0,1-1.168-3.039v-.219a5.106,5.106,0,0,1,.492-2.277,3.612,3.612,0,0,1,1.395-1.547,3.914,3.914,0,0,1,2.059-.543,3.508,3.508,0,0,1,2.73,1.094,4.444,4.444,0,0,1,1,3.1v.922H51.766a2.1,2.1,0,0,0,.66,1.328,2,2,0,0,0,1.395.5,2.437,2.437,0,0,0,2.039-.945l1.109,1.242a3.389,3.389,0,0,1-1.375,1.121A4.511,4.511,0,0,1,53.672,17.156Zm-.258-6.945a1.411,1.411,0,0,0-1.09.455,2.357,2.357,0,0,0-.535,1.3H54.93v-.181a1.681,1.681,0,0,0-.406-1.165A1.456,1.456,0,0,0,53.414,10.211Zm8.648,2.5a5.094,5.094,0,0,1,.887-3.148,2.877,2.877,0,0,1,2.426-1.172,2.589,2.589,0,0,1,2.039.922V5H69.68V17H67.641l-.109-.9a2.657,2.657,0,0,1-2.172,1.055,2.869,2.869,0,0,1-2.395-1.176A5.258,5.258,0,0,1,62.063,12.711Zm2.258.168a3.337,3.337,0,0,0,.414,1.823,1.349,1.349,0,0,0,1.2.634,1.511,1.511,0,0,0,1.477-.884V11.111a1.489,1.489,0,0,0-1.461-.884Q64.32,10.227,64.32,12.879Zm11,4.277a4.15,4.15,0,0,1-3.027-1.141,4.054,4.054,0,0,1-1.168-3.039v-.219a5.106,5.106,0,0,1,.492-2.277,3.612,3.612,0,0,1,1.395-1.547,3.914,3.914,0,0,1,2.059-.543A3.508,3.508,0,0,1,77.8,9.484a4.444,4.444,0,0,1,1,3.1v.922H73.414a2.1,2.1,0,0,0,.66,1.328,2,2,0,0,0,1.395.5,2.437,2.437,0,0,0,2.039-.945l1.109,1.242a3.389,3.389,0,0,1-1.375,1.121A4.511,4.511,0,0,1,75.32,17.156Zm-.258-6.945a1.411,1.411,0,0,0-1.09.455,2.357,2.357,0,0,0-.535,1.3h3.141v-.181a1.681,1.681,0,0,0-.406-1.165A1.456,1.456,0,0,0,75.063,10.211ZM4.383,35.336A1.481,1.481,0,0,0,5.4,34.992a1.2,1.2,0,0,0,.406-.914H7.922a2.9,2.9,0,0,1-.469,1.574,3.093,3.093,0,0,1-1.262,1.109,3.949,3.949,0,0,1-1.77.395A3.67,3.67,0,0,1,1.563,36,4.56,4.56,0,0,1,.516,32.82v-.148a4.508,4.508,0,0,1,1.039-3.117,3.627,3.627,0,0,1,2.852-1.164,3.555,3.555,0,0,1,2.543.9,3.2,3.2,0,0,1,.973,2.4H5.8A1.551,1.551,0,0,0,5.4,30.623a1.354,1.354,0,0,0-1.031-.412,1.36,1.36,0,0,0-1.191.575,3.333,3.333,0,0,0-.4,1.866v.235a3.375,3.375,0,0,0,.4,1.878A1.377,1.377,0,0,0,4.383,35.336ZM8.859,32.7a5.013,5.013,0,0,1,.484-2.242,3.546,3.546,0,0,1,1.395-1.523,4.069,4.069,0,0,1,2.113-.539,3.849,3.849,0,0,1,2.793,1.047,4.2,4.2,0,0,1,1.207,2.844l.016.578a4.418,4.418,0,0,1-1.086,3.121,3.775,3.775,0,0,1-2.914,1.176,3.793,3.793,0,0,1-2.918-1.172A4.5,4.5,0,0,1,8.859,32.8Zm2.258.16A3.16,3.16,0,0,0,11.57,34.7a1.5,1.5,0,0,0,1.3.638,1.5,1.5,0,0,0,1.281-.63,3.457,3.457,0,0,0,.461-2.015,3.128,3.128,0,0,0-.461-1.831,1.5,1.5,0,0,0-1.3-.649,1.474,1.474,0,0,0-1.281.646A3.516,3.516,0,0,0,11.117,32.856Zm9.258-4.309.07.945a2.971,2.971,0,0,1,2.43-1.1,2.255,2.255,0,0,1,2.242,1.289,2.9,2.9,0,0,1,2.539-1.289,2.521,2.521,0,0,1,2.047.8,3.681,3.681,0,0,1,.672,2.41V37H28.109V31.609a1.61,1.61,0,0,0-.281-1.051,1.246,1.246,0,0,0-.992-.332,1.409,1.409,0,0,0-1.406.969l.008,5.8H23.18V31.617a1.59,1.59,0,0,0-.289-1.062,1.259,1.259,0,0,0-.984-.328,1.463,1.463,0,0,0-1.391.8V37H18.258V28.547Zm19.344,4.3a5.07,5.07,0,0,1-.887,3.129,2.843,2.843,0,0,1-2.395,1.176,2.633,2.633,0,0,1-2.07-.891V40.25H32.109v-11.7H34.2l.078.828a2.654,2.654,0,0,1,2.141-.984,2.862,2.862,0,0,1,2.43,1.156,5.207,5.207,0,0,1,.867,3.188Zm-2.258-.164a3.327,3.327,0,0,0-.418-1.82,1.361,1.361,0,0,0-1.215-.641,1.478,1.478,0,0,0-1.461.813V34.5a1.5,1.5,0,0,0,1.477.836Q37.461,35.336,37.461,32.688Zm8.406-2.023a6.134,6.134,0,0,0-.812-.062,1.654,1.654,0,0,0-1.68.867V37H41.117V28.547H43.25l.063,1.008A2.092,2.092,0,0,1,45.2,28.391a2.366,2.366,0,0,1,.7.1ZM46.32,32.7a5.013,5.013,0,0,1,.484-2.242A3.546,3.546,0,0,1,48.2,28.93a4.069,4.069,0,0,1,2.113-.539,3.849,3.849,0,0,1,2.793,1.047,4.2,4.2,0,0,1,1.207,2.844l.016.578a4.418,4.418,0,0,1-1.086,3.121,4.209,4.209,0,0,1-5.832,0A4.5,4.5,0,0,1,46.32,32.8Zm2.258.16a3.16,3.16,0,0,0,.453,1.843,1.628,1.628,0,0,0,2.578.008,3.457,3.457,0,0,0,.461-2.015,3.128,3.128,0,0,0-.461-1.831,1.5,1.5,0,0,0-1.3-.649,1.474,1.474,0,0,0-1.281.646A3.516,3.516,0,0,0,48.578,32.856Zm14.758,0a5.119,5.119,0,0,1-.867,3.168,2.872,2.872,0,0,1-2.422,1.137,2.639,2.639,0,0,1-2.2-1.055l-.1.9H55.719V25h2.258v4.3a2.571,2.571,0,0,1,2.055-.914,2.9,2.9,0,0,1,2.426,1.137,5.126,5.126,0,0,1,.879,3.2Zm-2.258-.164a3.363,3.363,0,0,0-.406-1.871,1.374,1.374,0,0,0-1.211-.59,1.489,1.489,0,0,0-1.484.883v3.336a1.509,1.509,0,0,0,1.5.891,1.394,1.394,0,0,0,1.438-1.078A5.562,5.562,0,0,0,61.078,32.688ZM69.625,37a2.507,2.507,0,0,1-.227-.758,2.732,2.732,0,0,1-2.133.914,3,3,0,0,1-2.059-.719,2.312,2.312,0,0,1-.816-1.812,2.389,2.389,0,0,1,1-2.062,4.915,4.915,0,0,1,2.879-.727H69.3v-.484a1.393,1.393,0,0,0-.3-.937,1.183,1.183,0,0,0-.949-.352,1.345,1.345,0,0,0-.895.273.929.929,0,0,0-.324.75H64.578a2.268,2.268,0,0,1,.453-1.359,3,3,0,0,1,1.281-.98,4.669,4.669,0,0,1,1.859-.355,3.689,3.689,0,0,1,2.48.785,2.747,2.747,0,0,1,.918,2.207v3.664a4.041,4.041,0,0,0,.336,1.82V37Zm-1.867-1.57a1.945,1.945,0,0,0,.922-.223,1.462,1.462,0,0,0,.625-.6V33.156h-.844q-1.7,0-1.8,1.172l-.008.133a.9.9,0,0,0,.3.7A1.153,1.153,0,0,0,67.758,35.43Zm9.063-.094a1.481,1.481,0,0,0,1.016-.344,1.2,1.2,0,0,0,.406-.914h2.117a2.9,2.9,0,0,1-.469,1.574,3.093,3.093,0,0,1-1.262,1.109,3.949,3.949,0,0,1-1.77.395A3.67,3.67,0,0,1,74,36a4.56,4.56,0,0,1-1.047-3.184v-.148a4.508,4.508,0,0,1,1.039-3.117,3.627,3.627,0,0,1,2.852-1.164,3.555,3.555,0,0,1,2.543.9,3.2,3.2,0,0,1,.973,2.4H78.242a1.551,1.551,0,0,0-.406-1.072,1.51,1.51,0,0,0-2.223.163,3.333,3.333,0,0,0-.4,1.866v.235a3.375,3.375,0,0,0,.4,1.878A1.377,1.377,0,0,0,76.82,35.336ZM84.031,37H81.766V28.547h2.266Zm-2.4-10.641a1.112,1.112,0,0,1,.34-.836,1.465,1.465,0,0,1,1.848,0,1.193,1.193,0,0,1,0,1.68,1.448,1.448,0,0,1-1.836,0A1.108,1.108,0,0,1,81.633,26.359ZM85.539,32.7a5.013,5.013,0,0,1,.484-2.242,3.546,3.546,0,0,1,1.395-1.523,4.069,4.069,0,0,1,2.113-.539,3.849,3.849,0,0,1,2.793,1.047,4.2,4.2,0,0,1,1.207,2.844l.016.578a4.418,4.418,0,0,1-1.086,3.121,4.209,4.209,0,0,1-5.832,0,4.5,4.5,0,0,1-1.09-3.187Zm2.258.16A3.16,3.16,0,0,0,88.25,34.7a1.628,1.628,0,0,0,2.578.008,3.457,3.457,0,0,0,.461-2.015,3.128,3.128,0,0,0-.461-1.831,1.5,1.5,0,0,0-1.3-.649,1.474,1.474,0,0,0-1.281.646A3.516,3.516,0,0,0,87.8,32.856ZM89.977,25h2.461l-2.164,2.422H88.438Zm7.039,3.547.07.977a2.951,2.951,0,0,1,2.43-1.133,2.453,2.453,0,0,1,2,.789,3.682,3.682,0,0,1,.672,2.359V37H99.93V31.594a1.465,1.465,0,0,0-.312-1.043,1.4,1.4,0,0,0-1.039-.324,1.553,1.553,0,0,0-1.43.813V37H94.891V28.547Z" transform="translate(6914 -10529)" fill="#12263f"/>
      <path id="Path_879971" data-name="Path 879971" d="M3.359,15.117H8.336V17H1.016V5.625H3.359ZM11.914,17H9.648V8.547h2.266ZM9.516,6.359a1.112,1.112,0,0,1,.34-.836,1.277,1.277,0,0,1,.926-.328,1.28,1.28,0,0,1,.922.328,1.105,1.105,0,0,1,.344.836A1.108,1.108,0,0,1,11.7,7.2a1.283,1.283,0,0,1-.918.328A1.283,1.283,0,0,1,9.863,7.2,1.108,1.108,0,0,1,9.516,6.359Zm11.875,6.492a5.119,5.119,0,0,1-.867,3.168A2.872,2.872,0,0,1,18.1,17.156a2.639,2.639,0,0,1-2.2-1.055l-.1.9H13.773V5h2.258V9.3a2.571,2.571,0,0,1,2.055-.914,2.9,2.9,0,0,1,2.426,1.137,5.126,5.126,0,0,1,.879,3.2Zm-2.258-.164a3.363,3.363,0,0,0-.406-1.871,1.374,1.374,0,0,0-1.211-.59,1.489,1.489,0,0,0-1.484.883v3.336a1.509,1.509,0,0,0,1.5.891,1.394,1.394,0,0,0,1.438-1.078A5.562,5.562,0,0,0,19.133,12.688Zm8.4-2.023a6.134,6.134,0,0,0-.812-.062,1.654,1.654,0,0,0-1.68.867V17H22.781V8.547h2.133l.063,1.008a2.092,2.092,0,0,1,1.883-1.164,2.366,2.366,0,0,1,.7.1Zm.453,2.031a5.013,5.013,0,0,1,.484-2.242A3.546,3.546,0,0,1,29.863,8.93a4.069,4.069,0,0,1,2.113-.539A3.849,3.849,0,0,1,34.77,9.438a4.2,4.2,0,0,1,1.207,2.844l.016.578a4.418,4.418,0,0,1-1.086,3.121,3.775,3.775,0,0,1-2.914,1.176,3.793,3.793,0,0,1-2.918-1.172,4.5,4.5,0,0,1-1.09-3.187Zm2.258.16A3.16,3.16,0,0,0,30.7,14.7a1.628,1.628,0,0,0,2.578.008,3.457,3.457,0,0,0,.461-2.015,3.128,3.128,0,0,0-.461-1.831,1.5,1.5,0,0,0-1.3-.649,1.474,1.474,0,0,0-1.281.646A3.516,3.516,0,0,0,30.242,12.856ZM43.484,8.547l.07.945a2.971,2.971,0,0,1,2.43-1.1A2.255,2.255,0,0,1,48.227,9.68a2.9,2.9,0,0,1,2.539-1.289,2.521,2.521,0,0,1,2.047.8,3.681,3.681,0,0,1,.672,2.41V17H51.219V11.609a1.61,1.61,0,0,0-.281-1.051,1.246,1.246,0,0,0-.992-.332,1.409,1.409,0,0,0-1.406.969l.008,5.8H46.289V11.617A1.59,1.59,0,0,0,46,10.555a1.259,1.259,0,0,0-.984-.328,1.463,1.463,0,0,0-1.391.8V17H41.367V8.547ZM60.117,17a2.507,2.507,0,0,1-.227-.758,2.732,2.732,0,0,1-2.133.914,3,3,0,0,1-2.059-.719,2.312,2.312,0,0,1-.816-1.812,2.389,2.389,0,0,1,1-2.062,4.915,4.915,0,0,1,2.879-.727H59.8v-.484a1.393,1.393,0,0,0-.3-.937,1.183,1.183,0,0,0-.949-.352,1.345,1.345,0,0,0-.895.273.929.929,0,0,0-.324.75H55.07a2.268,2.268,0,0,1,.453-1.359,3,3,0,0,1,1.281-.98,4.669,4.669,0,0,1,1.859-.355,3.689,3.689,0,0,1,2.48.785,2.747,2.747,0,0,1,.918,2.207v3.664a4.041,4.041,0,0,0,.336,1.82V17ZM58.25,15.43a1.945,1.945,0,0,0,.922-.223,1.462,1.462,0,0,0,.625-.6V13.156h-.844q-1.7,0-1.8,1.172l-.008.133a.9.9,0,0,0,.3.7A1.153,1.153,0,0,0,58.25,15.43Zm8.7-1.625,1.563-5.258h2.422l-3.4,9.766-.187.445a2.577,2.577,0,0,1-2.5,1.656,3.552,3.552,0,0,1-1-.148V18.555l.344.008a1.857,1.857,0,0,0,.957-.2,1.283,1.283,0,0,0,.5-.648l.266-.7L62.953,8.547h2.43ZM71.477,12.7a5.013,5.013,0,0,1,.484-2.242A3.546,3.546,0,0,1,73.355,8.93a4.069,4.069,0,0,1,2.113-.539,3.849,3.849,0,0,1,2.793,1.047,4.2,4.2,0,0,1,1.207,2.844l.016.578A4.418,4.418,0,0,1,78.4,15.98a4.209,4.209,0,0,1-5.832,0,4.5,4.5,0,0,1-1.09-3.187Zm2.258.16a3.16,3.16,0,0,0,.453,1.843,1.628,1.628,0,0,0,2.578.008,3.457,3.457,0,0,0,.461-2.015,3.128,3.128,0,0,0-.461-1.831,1.5,1.5,0,0,0-1.3-.649,1.474,1.474,0,0,0-1.281.646A3.516,3.516,0,0,0,73.734,12.856Zm11.891-2.192a6.134,6.134,0,0,0-.812-.062,1.654,1.654,0,0,0-1.68.867V17H80.875V8.547h2.133l.063,1.008a2.092,2.092,0,0,1,1.883-1.164,2.366,2.366,0,0,1,.7.1Z" transform="translate(6695.5 -10516.992)" fill="#12263f"/>
      <g id="Group_1102549" data-name="Group 1102549" transform="translate(6619 -10541.825)">
        <path id="Path_877344" data-name="Path 877344" d="M55.994,12.555H67.78c.4,0,1.089,1.074,1.046,1.52V44.867a.986.986,0,0,1-1.568.837,6.639,6.639,0,0,1-.36-.679V14.48h-10.9v6.413h6.333c.493,0,.954,1.016.572,1.536a3.108,3.108,0,0,1-.572.389H55.994v3.448a1.622,1.622,0,0,0,.241.24h6.254c.164,0,.578.61.578.882s-.413.881-.578.881H56.235a1.627,1.627,0,0,0-.241.241v3.448h6.333a3.066,3.066,0,0,1,.572.389c.381.519-.079,1.535-.572,1.535H55.994v3.448a1.627,1.627,0,0,0,.241.241h6.254c.822,0,.588,1.764,0,1.764H55.994V43.02h6.494a2.9,2.9,0,0,1,.48.484,1.042,1.042,0,0,1-.8,1.44H55.994v3.527h6.333c.492,0,.874.938.641,1.44a2.9,2.9,0,0,1-.48.484H55.994v2.966a2.781,2.781,0,0,1-.914,1.009c-.662.2-2.539-.167-2.944.1-.264.176-.25,2.5.09,2.5H66.9V49.355c0-.951,1.706-1.306,1.92-.157l-.005,8.325c.044.373-.778,1.211-1.033,1.211H56.235a1.627,1.627,0,0,0-.241.241v7.857c0,.464-1.165,1.188-1.677,1.048l-30.232-.008c.266,1.3-.7,2.31-1.966,1.726-.45-.207-1.956-1.531-2.282-1.513-.45.024-1.957,1.818-3.032,1.712-1.352-.133-.971-1.839-1.057-1.925-.2-.2-4.846.076-5.69,0A5.592,5.592,0,0,1,5,62.51L5,10.064a5.625,5.625,0,0,1,5.21-5.05l44.109,0c.483-.11,1.675.616,1.675,1.051ZM14.305,6.943H9.735c-.919,0-2.806,1.747-2.806,2.646V53.924a6.57,6.57,0,0,1,2.645-1.283h4.731Zm39.926,0h-38v45.7H53.99a1.588,1.588,0,0,0,.241-.241ZM10.216,61.781c.724.088,1.584-.064,2.325,0-.088-.544-.5-.929-.72-1.445a6.457,6.457,0,0,1-.365-3.408c.088-.558,1.184-2.428,1.084-2.522a13.68,13.68,0,0,0-3.085.2c-3.8,1.073-3.191,6.691.76,7.175M54.231,65.95V58.975c0-.329-1.994-.361-2.175-.09-.508.761.7,4.346-.956,4.656H31.706c-1.015-.173-.577-1.76-.163-1.76H49.982a1.588,1.588,0,0,0,.241-.241V58.975a1.628,1.628,0,0,0-.241-.241H41.964c-.417,0-.89-1.457.031-1.733,1.214-.29,7.461.31,8.076-.1.234-.156.307-2.334-.112-2.473l-32.847-.02c-2.894.107-4.915,2.919-3.357,5.6a2.955,2.955,0,0,0,1.993,1.455V57.532c0-.395.556-.531.879-.562a45.6,45.6,0,0,1,6.426-.009c.3.029,1.033.263,1.033.571v4.249h3.928c.536,0,.536,1.764,0,1.764H24.086V65.95ZM22.161,58.734H17.753a1.628,1.628,0,0,0-.241.241v8.258c.81-.013,1.682-1.337,2.474-1.283.695.047,1.45,1.174,2.175,1.283ZM15.748,65.95c-.1-.488.248-2.217-.263-2.383-2.176-.259-4.982.419-7.011-.364-.387-.149-1.485-1.01-1.542-.941-.346.418.391,1.967.734,2.391a5.99,5.99,0,0,0,1.909,1.3Z" transform="translate(-4.998 -5)" fill="#225a78"/>
        <path id="Path_877345" data-name="Path 877345" d="M52.551,11.9H22.887v37.36H52.31a1.588,1.588,0,0,0,.241-.241V21.6c0-.424,1.625-1.012,1.772.312V49.666a1.23,1.23,0,0,1-1.2,1.365l-30.959-.006c-1.174.013-1.153-1.568-1.206-2.481-.7-11.832.546-24.349,0-36.252.216-1.271-.043-2.181,1.523-2.325l30.757.044c.556.2.968.381,1.068,1.015.312,1.975-.208,4.664.007,6.721-.208,1.119-1.76.664-1.76.325Z" transform="translate(-7.486 -5.785)" fill="#225a78"/>
        <path id="Path_877346" data-name="Path 877346" d="M32.211,18.958l13.765-.04a1.238,1.238,0,0,1,1.359,1.206,41.059,41.059,0,0,1,0,5.943,1.474,1.474,0,0,1-1.366,1.52c-4.172-.308-8.9.4-13,.005-.833-.081-1.414-.321-1.519-1.207a43.767,43.767,0,0,1-.005-6.425,1.355,1.355,0,0,1,.763-1m13.2,1.731H33.461a1.594,1.594,0,0,0-.241.242v4.73H45.407Z" transform="translate(-9.162 -7.201)" fill="#225a78"/>
        <path id="Path_877347" data-name="Path 877347" d="M31.667,41.008a1.492,1.492,0,0,1,.837-.2c4.524-.315,9.4.255,13.965,0,1.346.172,1.169,1.758-.489,1.932-4.165.439-9.064-.327-13.309,0a1.072,1.072,0,0,1-1-1.726" transform="translate(-9.174 -10.646)" fill="#225a78"/>
        <path id="Path_877348" data-name="Path 877348" d="M31.674,47.345c-.406-.407-.285-1.666.516-1.573H46.476a.89.89,0,0,1,0,1.781c-4.562-.258-9.442.314-13.965,0a1.492,1.492,0,0,1-.837-.2" transform="translate(-9.18 -11.446)" fill="#225a78"/>
      </g>
      <path id="Path_879970" data-name="Path 879970" d="M3.359,15.117H8.336V17H1.016V5.625H3.359ZM11.914,17H9.648V8.547h2.266ZM9.516,6.359a1.112,1.112,0,0,1,.34-.836,1.277,1.277,0,0,1,.926-.328,1.28,1.28,0,0,1,.922.328,1.105,1.105,0,0,1,.344.836A1.108,1.108,0,0,1,11.7,7.2a1.283,1.283,0,0,1-.918.328A1.283,1.283,0,0,1,9.863,7.2,1.108,1.108,0,0,1,9.516,6.359Zm11.875,6.492a5.119,5.119,0,0,1-.867,3.168A2.872,2.872,0,0,1,18.1,17.156a2.639,2.639,0,0,1-2.2-1.055l-.1.9H13.773V5h2.258V9.3a2.571,2.571,0,0,1,2.055-.914,2.9,2.9,0,0,1,2.426,1.137,5.126,5.126,0,0,1,.879,3.2Zm-2.258-.164a3.363,3.363,0,0,0-.406-1.871,1.374,1.374,0,0,0-1.211-.59,1.489,1.489,0,0,0-1.484.883v3.336a1.509,1.509,0,0,0,1.5.891,1.394,1.394,0,0,0,1.438-1.078A5.562,5.562,0,0,0,19.133,12.688Zm8.4-2.023a6.134,6.134,0,0,0-.812-.062,1.654,1.654,0,0,0-1.68.867V17H22.781V8.547h2.133l.063,1.008a2.092,2.092,0,0,1,1.883-1.164,2.366,2.366,0,0,1,.7.1Zm.453,2.031a5.013,5.013,0,0,1,.484-2.242A3.546,3.546,0,0,1,29.863,8.93a4.069,4.069,0,0,1,2.113-.539A3.849,3.849,0,0,1,34.77,9.438a4.2,4.2,0,0,1,1.207,2.844l.016.578a4.418,4.418,0,0,1-1.086,3.121,3.775,3.775,0,0,1-2.914,1.176,3.793,3.793,0,0,1-2.918-1.172,4.5,4.5,0,0,1-1.09-3.187Zm2.258.16A3.16,3.16,0,0,0,30.7,14.7a1.628,1.628,0,0,0,2.578.008,3.457,3.457,0,0,0,.461-2.015,3.128,3.128,0,0,0-.461-1.831,1.5,1.5,0,0,0-1.3-.649,1.474,1.474,0,0,0-1.281.646A3.516,3.516,0,0,0,30.242,12.856Zm10.773-.145A5.094,5.094,0,0,1,41.9,9.563a2.877,2.877,0,0,1,2.426-1.172,2.589,2.589,0,0,1,2.039.922V5h2.266V17H46.594l-.109-.9a2.657,2.657,0,0,1-2.172,1.055,2.869,2.869,0,0,1-2.395-1.176A5.258,5.258,0,0,1,41.016,12.711Zm2.258.168a3.337,3.337,0,0,0,.414,1.823,1.349,1.349,0,0,0,1.2.634,1.511,1.511,0,0,0,1.477-.884V11.111a1.489,1.489,0,0,0-1.461-.884Q43.273,10.227,43.273,12.879ZM52.766,17H50.5V8.547h2.266Zm-2.4-10.641a1.112,1.112,0,0,1,.34-.836,1.465,1.465,0,0,1,1.848,0,1.105,1.105,0,0,1,.344.836,1.108,1.108,0,0,1-.348.844,1.448,1.448,0,0,1-1.836,0A1.108,1.108,0,0,1,50.367,6.359ZM59.523,17a2.507,2.507,0,0,1-.227-.758,2.732,2.732,0,0,1-2.133.914,3,3,0,0,1-2.059-.719,2.312,2.312,0,0,1-.816-1.812,2.389,2.389,0,0,1,1-2.062,4.915,4.915,0,0,1,2.879-.727H59.2v-.484a1.393,1.393,0,0,0-.3-.937,1.183,1.183,0,0,0-.949-.352,1.345,1.345,0,0,0-.895.273.929.929,0,0,0-.324.75H54.477a2.268,2.268,0,0,1,.453-1.359,3,3,0,0,1,1.281-.98,4.669,4.669,0,0,1,1.859-.355,3.689,3.689,0,0,1,2.48.785,2.747,2.747,0,0,1,.918,2.207v3.664a4.041,4.041,0,0,0,.336,1.82V17Zm-1.867-1.57a1.945,1.945,0,0,0,.922-.223,1.462,1.462,0,0,0,.625-.6V13.156h-.844q-1.7,0-1.8,1.172l-.008.133a.9.9,0,0,0,.3.7A1.153,1.153,0,0,0,57.656,15.43Zm10.3-4.766a6.134,6.134,0,0,0-.812-.062,1.654,1.654,0,0,0-1.68.867V17H63.2V8.547h2.133L65.4,9.555a2.092,2.092,0,0,1,1.883-1.164,2.366,2.366,0,0,1,.7.1ZM71.422,17H69.156V8.547h2.266Zm-2.4-10.641a1.112,1.112,0,0,1,.34-.836,1.465,1.465,0,0,1,1.848,0,1.105,1.105,0,0,1,.344.836,1.108,1.108,0,0,1-.348.844,1.448,1.448,0,0,1-1.836,0A1.108,1.108,0,0,1,69.023,6.359ZM72.93,12.7a5.013,5.013,0,0,1,.484-2.242A3.546,3.546,0,0,1,74.809,8.93a4.069,4.069,0,0,1,2.113-.539,3.849,3.849,0,0,1,2.793,1.047,4.2,4.2,0,0,1,1.207,2.844l.016.578a4.418,4.418,0,0,1-1.086,3.121,4.209,4.209,0,0,1-5.832,0A4.5,4.5,0,0,1,72.93,12.8Zm2.258.16a3.16,3.16,0,0,0,.453,1.843,1.628,1.628,0,0,0,2.578.008,3.457,3.457,0,0,0,.461-2.015,3.128,3.128,0,0,0-.461-1.831,1.5,1.5,0,0,0-1.3-.649,1.474,1.474,0,0,0-1.281.646A3.516,3.516,0,0,0,75.188,12.856Z" transform="translate(6454.838 -10516.992)" fill="#12263f"/>
      <path id="Path_877335" data-name="Path 877335" d="M90.652,0a5.319,5.319,0,0,0-5.319,5.318V80.7a5.319,5.319,0,0,0,5.319,5.318H340.269a5.317,5.317,0,0,0,4.109-1.942l30.968-37.69a5.311,5.311,0,0,0,1.209-3.322v-.108a5.312,5.312,0,0,0-1.209-3.322L344.378,1.942A5.317,5.317,0,0,0,340.269,0Z" transform="translate(6014.445 -10548)" fill="#99edd9"/>
      <path id="Path_879969" data-name="Path 879969" d="M1.016,17V5.625h3.5A5.315,5.315,0,0,1,7.2,6.3,4.712,4.712,0,0,1,9.047,8.223a5.928,5.928,0,0,1,.664,2.832v.523a5.945,5.945,0,0,1-.652,2.82,4.672,4.672,0,0,1-1.84,1.914A5.355,5.355,0,0,1,4.539,17ZM3.359,7.523v7.594H4.492a2.545,2.545,0,0,0,2.1-.9,4.06,4.06,0,0,0,.742-2.57v-.6a4.124,4.124,0,0,0-.719-2.629,2.537,2.537,0,0,0-2.1-.895ZM13.648,17H11.383V8.547h2.266ZM11.25,6.359a1.112,1.112,0,0,1,.34-.836,1.277,1.277,0,0,1,.926-.328,1.28,1.28,0,0,1,.922.328,1.105,1.105,0,0,1,.344.836,1.108,1.108,0,0,1-.348.844,1.448,1.448,0,0,1-1.836,0A1.108,1.108,0,0,1,11.25,6.359ZM20.406,17a2.507,2.507,0,0,1-.227-.758,2.732,2.732,0,0,1-2.133.914,3,3,0,0,1-2.059-.719,2.312,2.312,0,0,1-.816-1.812,2.389,2.389,0,0,1,1-2.062,4.915,4.915,0,0,1,2.879-.727h1.039v-.484a1.393,1.393,0,0,0-.3-.937,1.183,1.183,0,0,0-.949-.352,1.345,1.345,0,0,0-.895.273.929.929,0,0,0-.324.75H15.359a2.268,2.268,0,0,1,.453-1.359,3,3,0,0,1,1.281-.98,4.669,4.669,0,0,1,1.859-.355,3.689,3.689,0,0,1,2.48.785,2.747,2.747,0,0,1,.918,2.207v3.664a4.041,4.041,0,0,0,.336,1.82V17Zm-1.867-1.57a1.945,1.945,0,0,0,.922-.223,1.462,1.462,0,0,0,.625-.6V13.156h-.844q-1.7,0-1.8,1.172l-.008.133a.9.9,0,0,0,.3.7A1.153,1.153,0,0,0,18.539,15.43Zm5.219-2.719a4.954,4.954,0,0,1,.926-3.133,3,3,0,0,1,2.5-1.187,2.631,2.631,0,0,1,2.164.953l.094-.8h2.047v8.172a3.613,3.613,0,0,1-.5,1.93,3.236,3.236,0,0,1-1.418,1.25,4.985,4.985,0,0,1-2.141.43,4.635,4.635,0,0,1-1.812-.371A3.217,3.217,0,0,1,24.273,19l1-1.375a2.645,2.645,0,0,0,2.047.945,1.936,1.936,0,0,0,1.4-.48,1.8,1.8,0,0,0,.5-1.363v-.453a2.612,2.612,0,0,1-2.055.883A2.992,2.992,0,0,1,24.7,15.965a4.953,4.953,0,0,1-.941-3.16Zm2.258.168a3.085,3.085,0,0,0,.461,1.8,1.466,1.466,0,0,0,1.266.653,1.568,1.568,0,0,0,1.477-.775V11a1.564,1.564,0,0,0-1.461-.775,1.476,1.476,0,0,0-1.277.665A3.477,3.477,0,0,0,26.016,12.879Zm11.953-2.215a6.134,6.134,0,0,0-.812-.062,1.654,1.654,0,0,0-1.68.867V17H33.219V8.547h2.133l.063,1.008A2.092,2.092,0,0,1,37.3,8.391a2.366,2.366,0,0,1,.7.1ZM43.719,17a2.507,2.507,0,0,1-.227-.758,2.732,2.732,0,0,1-2.133.914,3,3,0,0,1-2.059-.719,2.312,2.312,0,0,1-.816-1.812,2.389,2.389,0,0,1,1-2.062,4.915,4.915,0,0,1,2.879-.727H43.4v-.484a1.393,1.393,0,0,0-.3-.937,1.183,1.183,0,0,0-.949-.352,1.345,1.345,0,0,0-.895.273.929.929,0,0,0-.324.75H38.672a2.268,2.268,0,0,1,.453-1.359,3,3,0,0,1,1.281-.98,4.669,4.669,0,0,1,1.859-.355,3.689,3.689,0,0,1,2.48.785,2.747,2.747,0,0,1,.918,2.207v3.664A4.041,4.041,0,0,0,46,16.867V17Zm-1.867-1.57a1.945,1.945,0,0,0,.922-.223,1.462,1.462,0,0,0,.625-.6V13.156h-.844q-1.7,0-1.8,1.172l-.008.133a.9.9,0,0,0,.3.7A1.153,1.153,0,0,0,41.852,15.43Zm7.664-6.883.07.945a2.971,2.971,0,0,1,2.43-1.1A2.255,2.255,0,0,1,54.258,9.68,2.9,2.9,0,0,1,56.8,8.391a2.521,2.521,0,0,1,2.047.8,3.681,3.681,0,0,1,.672,2.41V17H57.25V11.609a1.61,1.61,0,0,0-.281-1.051,1.246,1.246,0,0,0-.992-.332,1.409,1.409,0,0,0-1.406.969l.008,5.8H52.32V11.617a1.59,1.59,0,0,0-.289-1.062,1.259,1.259,0,0,0-.984-.328,1.463,1.463,0,0,0-1.391.8V17H47.4V8.547ZM66.148,17a2.507,2.507,0,0,1-.227-.758,2.732,2.732,0,0,1-2.133.914,3,3,0,0,1-2.059-.719,2.312,2.312,0,0,1-.816-1.812,2.389,2.389,0,0,1,1-2.062,4.915,4.915,0,0,1,2.879-.727h1.039v-.484a1.393,1.393,0,0,0-.3-.937,1.183,1.183,0,0,0-.949-.352,1.345,1.345,0,0,0-.895.273.929.929,0,0,0-.324.75H61.1a2.268,2.268,0,0,1,.453-1.359,3,3,0,0,1,1.281-.98A4.669,4.669,0,0,1,64.7,8.391a3.689,3.689,0,0,1,2.48.785,2.747,2.747,0,0,1,.918,2.207v3.664a4.041,4.041,0,0,0,.336,1.82V17Zm-1.867-1.57a1.945,1.945,0,0,0,.922-.223,1.462,1.462,0,0,0,.625-.6V13.156h-.844q-1.7,0-1.8,1.172l-.008.133a.9.9,0,0,0,.3.7A1.153,1.153,0,0,0,64.281,15.43Zm9.18-2.719a5.094,5.094,0,0,1,.887-3.148,2.877,2.877,0,0,1,2.426-1.172,2.589,2.589,0,0,1,2.039.922V5h2.266V17H79.039l-.109-.9a2.657,2.657,0,0,1-2.172,1.055,2.869,2.869,0,0,1-2.395-1.176A5.258,5.258,0,0,1,73.461,12.711Zm2.258.168a3.337,3.337,0,0,0,.414,1.823,1.349,1.349,0,0,0,1.2.634,1.511,1.511,0,0,0,1.477-.884V11.111a1.489,1.489,0,0,0-1.461-.884Q75.719,10.227,75.719,12.879Zm11,4.277a4.15,4.15,0,0,1-3.027-1.141,4.054,4.054,0,0,1-1.168-3.039v-.219a5.106,5.106,0,0,1,.492-2.277A3.612,3.612,0,0,1,84.41,8.934a3.914,3.914,0,0,1,2.059-.543A3.508,3.508,0,0,1,89.2,9.484a4.444,4.444,0,0,1,1,3.1v.922H84.813a2.1,2.1,0,0,0,.66,1.328,2,2,0,0,0,1.395.5,2.437,2.437,0,0,0,2.039-.945l1.109,1.242a3.389,3.389,0,0,1-1.375,1.121A4.511,4.511,0,0,1,86.719,17.156Zm-.258-6.945a1.411,1.411,0,0,0-1.09.455,2.357,2.357,0,0,0-.535,1.3h3.141v-.181a1.681,1.681,0,0,0-.406-1.165A1.456,1.456,0,0,0,86.461,10.211Zm12.891,6.945a4.15,4.15,0,0,1-3.027-1.141,4.054,4.054,0,0,1-1.168-3.039v-.219a5.106,5.106,0,0,1,.492-2.277,3.612,3.612,0,0,1,1.395-1.547A3.914,3.914,0,0,1,99.1,8.391a3.508,3.508,0,0,1,2.73,1.094,4.444,4.444,0,0,1,1,3.1v.922H97.445a2.1,2.1,0,0,0,.66,1.328,2,2,0,0,0,1.395.5,2.437,2.437,0,0,0,2.039-.945l1.109,1.242a3.389,3.389,0,0,1-1.375,1.121A4.511,4.511,0,0,1,99.352,17.156Zm-.258-6.945a1.411,1.411,0,0,0-1.09.455,2.357,2.357,0,0,0-.535,1.3h3.141v-.181a1.681,1.681,0,0,0-.406-1.165A1.456,1.456,0,0,0,99.094,10.211Zm7.4,6.789h-2.266V5h2.266Zm6.758,0a2.507,2.507,0,0,1-.227-.758,2.732,2.732,0,0,1-2.133.914,3,3,0,0,1-2.059-.719,2.312,2.312,0,0,1-.816-1.812,2.389,2.389,0,0,1,1-2.062,4.915,4.915,0,0,1,2.879-.727h1.039v-.484a1.393,1.393,0,0,0-.3-.937,1.183,1.183,0,0,0-.949-.352,1.345,1.345,0,0,0-.895.273.929.929,0,0,0-.324.75H108.2a2.268,2.268,0,0,1,.453-1.359,3,3,0,0,1,1.281-.98,4.669,4.669,0,0,1,1.859-.355,3.689,3.689,0,0,1,2.48.785,2.747,2.747,0,0,1,.918,2.207v3.664a4.041,4.041,0,0,0,.336,1.82V17Zm-1.867-1.57a1.945,1.945,0,0,0,.922-.223,1.462,1.462,0,0,0,.625-.6V13.156h-.844q-1.7,0-1.8,1.172l-.008.133a.9.9,0,0,0,.3.7A1.153,1.153,0,0,0,111.383,15.43Zm13.164-2.578a5.119,5.119,0,0,1-.867,3.168,2.872,2.872,0,0,1-2.422,1.137,2.639,2.639,0,0,1-2.2-1.055l-.1.9H116.93V5h2.258V9.3a2.571,2.571,0,0,1,2.055-.914,2.9,2.9,0,0,1,2.426,1.137,5.126,5.126,0,0,1,.879,3.2Zm-2.258-.164a3.363,3.363,0,0,0-.406-1.871,1.374,1.374,0,0,0-1.211-.59,1.489,1.489,0,0,0-1.484.883v3.336a1.509,1.509,0,0,0,1.5.891,1.394,1.394,0,0,0,1.438-1.078A5.562,5.562,0,0,0,122.289,12.688Zm3.3.008a5.013,5.013,0,0,1,.484-2.242,3.546,3.546,0,0,1,1.395-1.523,4.069,4.069,0,0,1,2.113-.539,3.849,3.849,0,0,1,2.793,1.047,4.2,4.2,0,0,1,1.207,2.844l.016.578a4.418,4.418,0,0,1-1.086,3.121,4.209,4.209,0,0,1-5.832,0,4.5,4.5,0,0,1-1.09-3.187Zm2.258.16A3.16,3.16,0,0,0,128.3,14.7a1.628,1.628,0,0,0,2.578.008,3.457,3.457,0,0,0,.461-2.015,3.128,3.128,0,0,0-.461-1.831,1.5,1.5,0,0,0-1.3-.649,1.474,1.474,0,0,0-1.281.646A3.516,3.516,0,0,0,127.844,12.856Zm11.891-2.192a6.134,6.134,0,0,0-.812-.062,1.654,1.654,0,0,0-1.68.867V17h-2.258V8.547h2.133l.063,1.008a2.092,2.092,0,0,1,1.883-1.164,2.366,2.366,0,0,1,.7.1ZM145.484,17a2.507,2.507,0,0,1-.227-.758,2.732,2.732,0,0,1-2.133.914,3,3,0,0,1-2.059-.719,2.312,2.312,0,0,1-.816-1.812,2.389,2.389,0,0,1,1-2.062,4.915,4.915,0,0,1,2.879-.727h1.039v-.484a1.393,1.393,0,0,0-.3-.937,1.183,1.183,0,0,0-.949-.352,1.345,1.345,0,0,0-.895.273.929.929,0,0,0-.324.75h-2.258a2.268,2.268,0,0,1,.453-1.359,3,3,0,0,1,1.281-.98,4.669,4.669,0,0,1,1.859-.355,3.689,3.689,0,0,1,2.48.785,2.747,2.747,0,0,1,.918,2.207v3.664a4.041,4.041,0,0,0,.336,1.82V17Zm-1.867-1.57a1.945,1.945,0,0,0,.922-.223,1.462,1.462,0,0,0,.625-.6V13.156h-.844q-1.7,0-1.8,1.172l-.008.133a.9.9,0,0,0,.3.7A1.153,1.153,0,0,0,143.617,15.43Zm9.063-.094a1.481,1.481,0,0,0,1.016-.344,1.2,1.2,0,0,0,.406-.914h2.117a2.9,2.9,0,0,1-.469,1.574,3.093,3.093,0,0,1-1.262,1.109,3.949,3.949,0,0,1-1.77.395A3.67,3.67,0,0,1,149.859,16a4.56,4.56,0,0,1-1.047-3.184v-.148a4.508,4.508,0,0,1,1.039-3.117A3.627,3.627,0,0,1,152.7,8.391a3.555,3.555,0,0,1,2.543.9,3.2,3.2,0,0,1,.973,2.4H154.1a1.551,1.551,0,0,0-.406-1.072,1.51,1.51,0,0,0-2.223.163,3.333,3.333,0,0,0-.4,1.866v.235a3.375,3.375,0,0,0,.4,1.878A1.377,1.377,0,0,0,152.68,15.336ZM159.891,17h-2.266V8.547h2.266Zm-2.4-10.641a1.112,1.112,0,0,1,.34-.836,1.465,1.465,0,0,1,1.848,0,1.105,1.105,0,0,1,.344.836,1.109,1.109,0,0,1-.348.844,1.448,1.448,0,0,1-1.836,0A1.109,1.109,0,0,1,157.492,6.359ZM161.4,12.7a5.013,5.013,0,0,1,.484-2.242,3.546,3.546,0,0,1,1.395-1.523,4.069,4.069,0,0,1,2.113-.539,3.849,3.849,0,0,1,2.793,1.047,4.2,4.2,0,0,1,1.207,2.844l.016.578a4.418,4.418,0,0,1-1.086,3.121,4.209,4.209,0,0,1-5.832,0A4.5,4.5,0,0,1,161.4,12.8Zm2.258.16a3.16,3.16,0,0,0,.453,1.843,1.628,1.628,0,0,0,2.578.008,3.457,3.457,0,0,0,.461-2.015,3.128,3.128,0,0,0-.461-1.831,1.5,1.5,0,0,0-1.3-.649,1.474,1.474,0,0,0-1.281.646A3.516,3.516,0,0,0,163.656,12.856ZM165.836,5H168.3l-2.164,2.422H164.3Zm7.039,3.547.07.977a2.951,2.951,0,0,1,2.43-1.133,2.453,2.453,0,0,1,2,.789,3.682,3.682,0,0,1,.672,2.359V17h-2.258V11.594a1.465,1.465,0,0,0-.312-1.043,1.4,1.4,0,0,0-1.039-.324,1.553,1.553,0,0,0-1.43.813V17H170.75V8.547Zm10.516,4.164a5.094,5.094,0,0,1,.887-3.148A2.877,2.877,0,0,1,186.7,8.391a2.589,2.589,0,0,1,2.039.922V5h2.266V17h-2.039l-.109-.9a2.657,2.657,0,0,1-2.172,1.055,2.869,2.869,0,0,1-2.395-1.176A5.258,5.258,0,0,1,183.391,12.711Zm2.258.168a3.337,3.337,0,0,0,.414,1.823,1.349,1.349,0,0,0,1.2.634,1.511,1.511,0,0,0,1.477-.884V11.111a1.489,1.489,0,0,0-1.461-.884Q185.648,10.227,185.648,12.879Zm11,4.277a4.15,4.15,0,0,1-3.027-1.141,4.054,4.054,0,0,1-1.168-3.039v-.219a5.106,5.106,0,0,1,.492-2.277,3.612,3.612,0,0,1,1.395-1.547,3.914,3.914,0,0,1,2.059-.543,3.508,3.508,0,0,1,2.73,1.094,4.444,4.444,0,0,1,1,3.1v.922h-5.383a2.1,2.1,0,0,0,.66,1.328,2,2,0,0,0,1.395.5,2.437,2.437,0,0,0,2.039-.945l1.109,1.242a3.389,3.389,0,0,1-1.375,1.121A4.511,4.511,0,0,1,196.648,17.156Zm-.258-6.945a1.411,1.411,0,0,0-1.09.455,2.357,2.357,0,0,0-.535,1.3h3.141v-.181a1.681,1.681,0,0,0-.406-1.165A1.456,1.456,0,0,0,196.391,10.211ZM4.758,37.156A4.15,4.15,0,0,1,1.73,36.016,4.054,4.054,0,0,1,.563,32.977v-.219a5.106,5.106,0,0,1,.492-2.277,3.612,3.612,0,0,1,1.395-1.547,3.914,3.914,0,0,1,2.059-.543,3.508,3.508,0,0,1,2.73,1.094,4.444,4.444,0,0,1,1,3.1v.922H2.852a2.1,2.1,0,0,0,.66,1.328,2,2,0,0,0,1.395.5,2.437,2.437,0,0,0,2.039-.945l1.109,1.242A3.389,3.389,0,0,1,6.68,36.754,4.511,4.511,0,0,1,4.758,37.156ZM4.5,30.211a1.411,1.411,0,0,0-1.09.455,2.357,2.357,0,0,0-.535,1.3H6.016v-.181a1.681,1.681,0,0,0-.406-1.165A1.456,1.456,0,0,0,4.5,30.211Zm9.594,4.453a.727.727,0,0,0-.41-.652,4.659,4.659,0,0,0-1.316-.426q-3.016-.633-3.016-2.562a2.323,2.323,0,0,1,.934-1.879,3.766,3.766,0,0,1,2.441-.754,4.053,4.053,0,0,1,2.574.758,2.388,2.388,0,0,1,.965,1.969H14.008a1.092,1.092,0,0,0-.312-.8A1.322,1.322,0,0,0,12.719,30a1.351,1.351,0,0,0-.883.258.814.814,0,0,0-.312.656.7.7,0,0,0,.355.605,3.657,3.657,0,0,0,1.2.4A9.8,9.8,0,0,1,14.5,32.3a2.336,2.336,0,0,1,1.789,2.273,2.2,2.2,0,0,1-.992,1.871,4.28,4.28,0,0,1-2.562.715,4.47,4.47,0,0,1-1.887-.379,3.166,3.166,0,0,1-1.293-1.039,2.414,2.414,0,0,1-.469-1.426h2.141a1.179,1.179,0,0,0,.445.922,1.766,1.766,0,0,0,1.109.32,1.635,1.635,0,0,0,.98-.246A.766.766,0,0,0,14.094,34.664Zm6.352-8.2v2.078h1.445V30.2H20.445v4.219a1.007,1.007,0,0,0,.18.672.9.9,0,0,0,.688.2,3.6,3.6,0,0,0,.664-.055v1.711a4.648,4.648,0,0,1-1.367.2,2.156,2.156,0,0,1-2.422-2.4V30.2H16.953V28.547h1.234V26.469ZM28.047,37a2.507,2.507,0,0,1-.227-.758,2.732,2.732,0,0,1-2.133.914,3,3,0,0,1-2.059-.719,2.312,2.312,0,0,1-.816-1.812,2.389,2.389,0,0,1,1-2.062,4.915,4.915,0,0,1,2.879-.727h1.039v-.484a1.393,1.393,0,0,0-.3-.937,1.183,1.183,0,0,0-.949-.352,1.345,1.345,0,0,0-.895.273.929.929,0,0,0-.324.75H23a2.268,2.268,0,0,1,.453-1.359,3,3,0,0,1,1.281-.98,4.669,4.669,0,0,1,1.859-.355,3.689,3.689,0,0,1,2.48.785,2.747,2.747,0,0,1,.918,2.207v3.664a4.041,4.041,0,0,0,.336,1.82V37ZM26.18,35.43a1.945,1.945,0,0,0,.922-.223,1.462,1.462,0,0,0,.625-.6V33.156h-.844q-1.7,0-1.8,1.172l-.008.133a.9.9,0,0,0,.3.7A1.153,1.153,0,0,0,26.18,35.43Zm5.2-2.719a5.094,5.094,0,0,1,.887-3.148,2.877,2.877,0,0,1,2.426-1.172,2.589,2.589,0,0,1,2.039.922V25h2.266V37H36.953l-.109-.9a2.657,2.657,0,0,1-2.172,1.055,2.869,2.869,0,0,1-2.395-1.176A5.258,5.258,0,0,1,31.375,32.711Zm2.258.168a3.337,3.337,0,0,0,.414,1.823,1.349,1.349,0,0,0,1.2.634,1.511,1.511,0,0,0,1.477-.884V31.111a1.489,1.489,0,0,0-1.461-.884Q33.633,30.227,33.633,32.879Zm6.758-.184a5.013,5.013,0,0,1,.484-2.242A3.546,3.546,0,0,1,42.27,28.93a4.069,4.069,0,0,1,2.113-.539,3.849,3.849,0,0,1,2.793,1.047,4.2,4.2,0,0,1,1.207,2.844l.016.578a4.418,4.418,0,0,1-1.086,3.121,4.209,4.209,0,0,1-5.832,0,4.5,4.5,0,0,1-1.09-3.187Zm2.258.16A3.16,3.16,0,0,0,43.1,34.7a1.628,1.628,0,0,0,2.578.008,3.457,3.457,0,0,0,.461-2.015,3.128,3.128,0,0,0-.461-1.831,1.5,1.5,0,0,0-1.3-.649,1.474,1.474,0,0,0-1.281.646A3.516,3.516,0,0,0,42.648,32.856Zm11.719,1.808a.727.727,0,0,0-.41-.652,4.659,4.659,0,0,0-1.316-.426q-3.016-.633-3.016-2.562a2.323,2.323,0,0,1,.934-1.879A3.766,3.766,0,0,1,53,28.391a4.053,4.053,0,0,1,2.574.758,2.388,2.388,0,0,1,.965,1.969H54.281a1.092,1.092,0,0,0-.312-.8A1.322,1.322,0,0,0,52.992,30a1.351,1.351,0,0,0-.883.258.814.814,0,0,0-.312.656.7.7,0,0,0,.355.605,3.657,3.657,0,0,0,1.2.4,9.8,9.8,0,0,1,1.422.379,2.336,2.336,0,0,1,1.789,2.273,2.205,2.205,0,0,1-.992,1.871,4.28,4.28,0,0,1-2.562.715,4.47,4.47,0,0,1-1.887-.379,3.166,3.166,0,0,1-1.293-1.039,2.414,2.414,0,0,1-.469-1.426H51.5a1.179,1.179,0,0,0,.445.922,1.766,1.766,0,0,0,1.109.32,1.635,1.635,0,0,0,.98-.246A.766.766,0,0,0,54.367,34.664ZM62.547,37V30.2H61.289V28.547h1.258v-.391a3.17,3.17,0,0,1,.98-2.457,3.945,3.945,0,0,1,2.723-.863,9.031,9.031,0,0,1,2.563.461l-.328,1.867a10,10,0,0,0-1.187-.293,5.835,5.835,0,0,0-.906-.066q-1.578,0-1.578,1.4v.344h1.664V30.2H64.813V37Zm7.32,0H67.6V28.547h2.266Zm3.945-8.453.07.977a2.951,2.951,0,0,1,2.43-1.133,2.453,2.453,0,0,1,2,.789,3.682,3.682,0,0,1,.672,2.359V37H76.727V31.594a1.465,1.465,0,0,0-.312-1.043,1.4,1.4,0,0,0-1.039-.324,1.553,1.553,0,0,0-1.43.813V37H71.688V28.547ZM85.594,37a2.507,2.507,0,0,1-.227-.758,2.732,2.732,0,0,1-2.133.914,3,3,0,0,1-2.059-.719,2.312,2.312,0,0,1-.816-1.812,2.389,2.389,0,0,1,1-2.062,4.915,4.915,0,0,1,2.879-.727h1.039v-.484a1.393,1.393,0,0,0-.3-.937,1.183,1.183,0,0,0-.949-.352,1.345,1.345,0,0,0-.895.273.929.929,0,0,0-.324.75H80.547A2.268,2.268,0,0,1,81,29.727a3,3,0,0,1,1.281-.98,4.669,4.669,0,0,1,1.859-.355,3.689,3.689,0,0,1,2.48.785,2.747,2.747,0,0,1,.918,2.207v3.664a4.041,4.041,0,0,0,.336,1.82V37Zm-1.867-1.57a1.945,1.945,0,0,0,.922-.223,1.462,1.462,0,0,0,.625-.6V33.156H84.43q-1.7,0-1.8,1.172l-.008.133a.9.9,0,0,0,.3.7A1.153,1.153,0,0,0,83.727,35.43Zm7.625-6.883.07.977a2.951,2.951,0,0,1,2.43-1.133,2.453,2.453,0,0,1,2,.789,3.682,3.682,0,0,1,.672,2.359V37H94.266V31.594a1.465,1.465,0,0,0-.312-1.043,1.4,1.4,0,0,0-1.039-.324,1.553,1.553,0,0,0-1.43.813V37H89.227V28.547Zm10.4,6.789a1.481,1.481,0,0,0,1.016-.344,1.2,1.2,0,0,0,.406-.914h2.117a2.9,2.9,0,0,1-.469,1.574,3.093,3.093,0,0,1-1.262,1.109,3.949,3.949,0,0,1-1.77.395A3.67,3.67,0,0,1,98.93,36a4.56,4.56,0,0,1-1.047-3.184v-.148a4.508,4.508,0,0,1,1.039-3.117,3.627,3.627,0,0,1,2.852-1.164,3.555,3.555,0,0,1,2.543.9,3.2,3.2,0,0,1,.973,2.4h-2.117a1.551,1.551,0,0,0-.406-1.072,1.51,1.51,0,0,0-2.223.163,3.333,3.333,0,0,0-.4,1.866v.235a3.375,3.375,0,0,0,.4,1.878A1.377,1.377,0,0,0,101.75,35.336ZM108.961,37H106.7V28.547h2.266Zm-2.4-10.641a1.112,1.112,0,0,1,.34-.836,1.465,1.465,0,0,1,1.848,0,1.193,1.193,0,0,1,0,1.68,1.448,1.448,0,0,1-1.836,0A1.108,1.108,0,0,1,106.563,26.359Zm8.148,10.8a4.15,4.15,0,0,1-3.027-1.141,4.054,4.054,0,0,1-1.168-3.039v-.219a5.106,5.106,0,0,1,.492-2.277,3.612,3.612,0,0,1,1.395-1.547,3.914,3.914,0,0,1,2.059-.543,3.508,3.508,0,0,1,2.73,1.094,4.444,4.444,0,0,1,1,3.1v.922H112.8a2.1,2.1,0,0,0,.66,1.328,2,2,0,0,0,1.395.5,2.437,2.437,0,0,0,2.039-.945l1.109,1.242a3.389,3.389,0,0,1-1.375,1.121A4.511,4.511,0,0,1,114.711,37.156Zm-.258-6.945a1.411,1.411,0,0,0-1.09.455,2.357,2.357,0,0,0-.535,1.3h3.141v-.181a1.681,1.681,0,0,0-.406-1.165A1.456,1.456,0,0,0,114.453,30.211Zm9.766.453a6.134,6.134,0,0,0-.812-.062,1.654,1.654,0,0,0-1.68.867V37h-2.258V28.547H121.6l.063,1.008a2.092,2.092,0,0,1,1.883-1.164,2.366,2.366,0,0,1,.7.1Zm.453,2.031a5.013,5.013,0,0,1,.484-2.242,3.546,3.546,0,0,1,1.395-1.523,4.069,4.069,0,0,1,2.113-.539,3.849,3.849,0,0,1,2.793,1.047,4.2,4.2,0,0,1,1.207,2.844l.016.578a4.418,4.418,0,0,1-1.086,3.121,4.209,4.209,0,0,1-5.832,0,4.5,4.5,0,0,1-1.09-3.187Zm2.258.16a3.16,3.16,0,0,0,.453,1.843,1.628,1.628,0,0,0,2.578.008,3.457,3.457,0,0,0,.461-2.015,3.128,3.128,0,0,0-.461-1.831,1.5,1.5,0,0,0-1.3-.649,1.474,1.474,0,0,0-1.281.646A3.516,3.516,0,0,0,126.93,32.856Zm11.719,1.808a.727.727,0,0,0-.41-.652,4.659,4.659,0,0,0-1.316-.426q-3.016-.633-3.016-2.562a2.323,2.323,0,0,1,.934-1.879,3.766,3.766,0,0,1,2.441-.754,4.053,4.053,0,0,1,2.574.758,2.388,2.388,0,0,1,.965,1.969h-2.258a1.092,1.092,0,0,0-.312-.8,1.322,1.322,0,0,0-.977-.316,1.351,1.351,0,0,0-.883.258.814.814,0,0,0-.312.656.7.7,0,0,0,.355.605,3.657,3.657,0,0,0,1.2.4,9.8,9.8,0,0,1,1.422.379,2.336,2.336,0,0,1,1.789,2.273,2.205,2.205,0,0,1-.992,1.871,4.28,4.28,0,0,1-2.562.715,4.47,4.47,0,0,1-1.887-.379,3.166,3.166,0,0,1-1.293-1.039,2.414,2.414,0,0,1-.469-1.426h2.141a1.179,1.179,0,0,0,.445.922,1.766,1.766,0,0,0,1.109.32,1.635,1.635,0,0,0,.98-.246A.766.766,0,0,0,138.648,34.664Z" transform="translate(6132 -10524)" fill="#225a78"/>
      <g id="Group_1102548" data-name="Group 1102548" transform="translate(6393.161 -10542.667)">
        <path id="Path_877351" data-name="Path 877351" d="M56.667,17.74c.035-2.148-2.365-4.856-4.522-4.856H39.723a3.237,3.237,0,0,0-1.814-3.7c-.647-.236-1.416-.155-1.964-.5s-.9-1.478-1.4-2.053a5.019,5.019,0,0,0-7.484.088c-.462.556-.787,1.621-1.327,1.964s-1.317.269-1.964.5a3.239,3.239,0,0,0-1.814,3.7H9.531c-2.157,0-4.558,2.707-4.522,4.856L5,65.459a5.156,5.156,0,0,0,4.854,5.018l41.8,0A5.144,5.144,0,0,0,56.677,65.3ZM23.925,11.976c.161-1.363.973-.891,1.859-1.1,2.4-.576,2.175-3.6,4.69-3.874,3.2-.349,2.846,3.257,5.419,3.874.886.212,1.7-.26,1.859,1.1.219,1.856-.061,4.582-2.385,4.861a62.064,62.064,0,0,1-9.057,0c-2.325-.28-2.6-3.007-2.385-4.861M54.7,65.294a3.212,3.212,0,0,1-2.219,3.046c-14.117.368-28.316.045-42.465.163a3.215,3.215,0,0,1-3.043-3.209V18.225c.141-1.8.907-3,2.763-3.324l12.111-.02c.448.641.524,1.265,1.024,1.937a5.293,5.293,0,0,0,2.692,1.916A41.332,41.332,0,0,0,36.238,18.7a5.587,5.587,0,0,0,3.021-2.574c.242-.446.168-1.171.709-1.265l11.682,0A3.206,3.206,0,0,1,54.7,18.225Z" transform="translate(-5 -5)" fill="#225a78"/>
        <path id="Path_877352" data-name="Path 877352" d="M50.028,25.114H13.5c-1.752.182-2.5,1.579-2.638,3.2V65.348a3.225,3.225,0,0,0,3.043,3.373H49.3c2.188-.162,3.2-1.2,3.372-3.374l-.008-37.189c-.183-1.565-.952-2.871-2.631-3.045m-29.122,35.7a9.832,9.832,0,0,1,0-4.113h5.758v4.113Zm-.165-10.037,5.685,0,.238.169c-.413.473,0,3.454-.163,3.621l-5.6.163h-.164c-.161-1.2.118-2.709,0-3.949M50.522,36.96H44.6V33.012h5.676l.248.247Zm0,5.923H44.6V38.935h5.923Zm0,5.924H44.6V44.859h5.923Zm-7.9-5.924H36.7V38.935h5.923Zm0,5.924H36.7V44.859h5.923Zm0,3.516v2.243H36.7c-.09-1.226.067-2.548,0-3.784h5.923c-.027.5-.015,1.022,0,1.541m-7.953-9.439H28.8V38.935h5.867ZM28.8,44.858h5.867v3.948H28.8Zm0,5.924H34.48a.473.473,0,0,1,.192.236V54.73h-.109L28.8,54.566c-.09-1.226.067-2.548,0-3.784m21.555,3.785-5.6.163H44.6c-.16-1.2.118-2.709,0-3.949l5.685,0,.239.169c-.414.473,0,3.454-.164,3.621M42.625,36.96H36.7V33.012h5.923Zm-7.953,0H28.8V33.012h5.867Zm-8.007,0H20.741V33.012h5.923Zm-5.923,1.974h5.923v3.948H20.742Zm0,5.924h5.923v3.948H20.742ZM28.8,56.7h5.758c.044.177.078.37.109.569V60.25c-.031.2-.066.391-.109.567H28.8Zm7.9,0h5.923v4.113H36.7Zm8.062,0h5.759v4.113H44.763a9.832,9.832,0,0,1,0-4.113M20.742,27.088H50.111a2.719,2.719,0,0,1,.412.412v3.537H20.742Zm-7.734.412a2.719,2.719,0,0,1,.412-.412h5.347v3.948H13.008Zm0,5.512h5.758V36.96H13.008Zm0,5.923h5.758v3.948H13.008Zm0,5.924h5.758v3.948H13.008Zm0,5.924h5.758V54.73H13.008Zm0,5.923h5.758v4.113H13.008Zm.741,10.037a2.777,2.777,0,0,1-.741-.576V62.793h5.758v3.948Zm12.915-.164-.238.168-5.685,0V62.793h5.923Zm2.139.164c.039-1.256-.053-2.53,0-3.784,1.893-.1,3.94.215,5.758-.164h.109v3.361a2.428,2.428,0,0,1-.192.588Zm7.9-3.784h5.923V65.2c-.009.514-.016,1.029,0,1.54H36.7c.039-1.256-.053-2.53,0-3.784m13.08,3.784H44.6V62.793h.164l5.6.163c.157.157-.242,2.559.164,2.963-.053.321-.466.823-.741.823" transform="translate(-5.927 -8.18)" fill="#225a78"/>
        <path id="Path_877353" data-name="Path 877353" d="M35.7,15.586c3.566-.47,3-6.3-.926-5.87-3.721.407-3.421,6.442.926,5.87m-.769-3.908a1.008,1.008,0,0,1,.583,1.915,1.008,1.008,0,1,1-.583-1.915" transform="translate(-9.3 -5.742)" fill="#225a78"/>
      </g>
      <g id="Group_1102551" data-name="Group 1102551" transform="translate(6838.729 -10541.825)">
        <g id="Group_1102550" data-name="Group 1102550" transform="translate(0)" clip-path="url(#clip-path-8)">
          <path id="Path_877356" data-name="Path 877356" d="M62.767,13.3H54.361c-1.084,0-2.962-1.88-2.962-2.962V1.929H23.94A3.417,3.417,0,0,0,21.789,4.1l0,17.516a2.9,2.9,0,0,1,2.837,2.366c.1.594-.1,1.919.119,2.283.1.171,1.445.965,1.759,1.283.516.522.852,1.306,1.361,1.841a37.074,37.074,0,0,0,4.888.083c.586-.072.973-.46,1.508-.573A3.445,3.445,0,0,1,37.139,35c.431.82.76,1.693,1.154,2.529.177.377,1.279,2.663,1.416,2.747.5.306,1.73-.2,2.78.582a2.908,2.908,0,0,1-.224,4.692c-.3.193-.969.322-1.076.446-.191.222-.592,1.3-1,1.8a6.754,6.754,0,0,1-10.24,0c-.391-.472-.791-1.44-1.117-1.765-.271-.271-.669-.262-.962-.479a2.9,2.9,0,0,1-.718-4.228c1.137-1.472,2.83-.658,3.356-1.128l2.32-5.126H27.943c-.53.553-.817,1.3-1.353,1.849-.421.43-1.856,1.2-1.93,1.593L24.65,51.947a11.8,11.8,0,0,1,6.575,4.5l29.018.039a2.826,2.826,0,0,0,2.51-2.454l.006-26.413a.974.974,0,1,1,1.936.161l-.023,26.409a5,5,0,0,1-4.546,4.26H32.346c.241,1.01,1.4,1.118,1.9,2.022a2.882,2.882,0,0,1-2.018,4.184l-20.617.038a2.844,2.844,0,0,1-1.525-5.048c.272-.253.7-.337.877-.565.241-.308.574-1.38.862-1.86a12.075,12.075,0,0,1,7.082-5.274l0-13.725a6.2,6.2,0,0,1-3.048-3.15H10.731l2.427,5.258c2.461-.415,4.71,1.426,3.663,3.955-.57,1.38-1.442,1.1-2.095,1.747-.268.268-.563,1.089-.887,1.515a6.7,6.7,0,0,1-10.925-.415c-.2-.289-.389-.981-.549-1.132s-.693-.21-.979-.384a2.868,2.868,0,0,1,0-4.913c.949-.588,1.621-.143,2.537-.505l2.414-4.805c.244-.549-.409-.748-.645-1.131-1.842-3,.7-6.209,4.112-5.233.375.107.536.388.994.447,1.5.193,3.4-.163,4.944,0A6.627,6.627,0,0,1,18.87,26.4a9.29,9.29,0,0,1,.316-3.127c.188-.428.659-.723.678-1.244.5-5.644-.706-12.565.034-18.058A4.818,4.818,0,0,1,23.821.049L52.128,0,52.9.188,64.618,12.007l.061,11.287c-.242,1.538-1.911.552-1.911.171Zm-1.441-1.922L53.321,3.37v6.8a2.206,2.206,0,0,0,1.2,1.2ZM22.74,25.627c.445-2.849-2.35-2.788-1.923,0ZM21.1,27.59c-5.91.775-5.02,10.153,1.383,9.387,5.981-.716,5.032-10.228-1.383-9.387M7.423,31.125A1.58,1.58,0,1,0,9.7,33.318c1.422-1.567-.944-3.51-2.273-2.193m27.118-.341a1.556,1.556,0,0,0,.445,3.021,1.556,1.556,0,1,0-.445-3.021m-19.328.606H11.851a2.165,2.165,0,0,1,0,1.761h3.362Zm16.492,0H28.343a3.185,3.185,0,0,1,0,1.761h3.362a2.554,2.554,0,0,1,0-1.761M10.891,40.356,8.952,35.971c-.233-.325-.6-.433-.829-.057-.8,1.333-1.371,3.026-2.036,4.443Zm21.775,0h4.8L35.4,35.813a.421.421,0,0,0-.7.1A32.535,32.535,0,0,0,32.74,39.87a1,1,0,0,0-.074.486m-9.927-1.441H20.817V51.484l.253.224a2.4,2.4,0,0,1,1.669.017ZM3.008,42.161c-1.527.232-1.382,1.733-.211,1.886,3.58-.371,8.078.466,11.544,0,.544-.073.754-.353.861-.888-.116-.748-.669-.964-1.35-1.041a70.749,70.749,0,0,0-10.845.043m30.539,3.8c-.588.162-1.807-.118-2.481,0-.07.28.116.32.239.482a4.756,4.756,0,0,0,7.768-.4c.008-.3-2.4.449-2.416-.958-.029-2.007,4.272-.431,4.828-1.311.819-1.3-.549-1.592-1.526-1.662a78.451,78.451,0,0,0-10.1,0c-.914.085-1.563.285-1.356,1.366.285,1.489,5.956-.639,5.611,1.754a1.517,1.517,0,0,1-.565.729m-21.055,0H4.486C5.86,48.591,9.865,49,11.914,46.9c.106-.109.7-.841.578-.944M30.424,58.93c-3.287-7.2-13.943-7.168-17.292,0h3.6a1.073,1.073,0,0,1,.682,1.723c-.528.529-4.653-.069-5.735.269a.928.928,0,0,0-.037,1.816l19.99.044a.96.96,0,0,0,.276-1.9l-11.14-.068c-1.129-.43-.444-1.887.446-1.887Z" transform="translate(0.215)" fill="#225a78"/>
          <path id="Path_877357" data-name="Path 877357" d="M74.608,33.711c.435-.079,1.739.226,1.9-.262.233-2.175-.233-4.742.019-6.866.206-1.734,2.235-1.82,3.615-1.685a2.056,2.056,0,0,1,1.924,1.6c.452,1.95-.187,5.047.06,7.125,1.162.1,1.819,1.1.771,1.895l-21.82.122a.988.988,0,1,1,.243-1.925V24.024a3.267,3.267,0,0,1,.744-1.177c.909-.764,3.47-.75,4.307.128a6.038,6.038,0,0,1,.553.889v9.847h1.921V21.623a2.99,2.99,0,0,1,.88-1.362,4.285,4.285,0,0,1,3.82-.135,3.449,3.449,0,0,1,1.064,1.5Zm-1.922,0V21.943c-.246-.327-.812-.283-1.209-.248a2.02,2.02,0,0,0-.447.034l-.265.214V33.711ZM63.24,24.265v9.447c.395-.067,1.793.2,1.9-.253L65,24.264Zm16.972,2.562c-.618.083-1.457-.229-1.922.24v6.644h1.922Z" transform="translate(-29.238 -9.687)" fill="#225a78"/>
          <path id="Path_877358" data-name="Path 877358" d="M90.972,88.369a1.026,1.026,0,0,1,.671-1.728c3.8.341,8.312-.428,12.02.005,1.428.167,1.357,1.808,0,1.927-3.835-.254-8.074.329-11.858,0a1.435,1.435,0,0,1-.833-.208" transform="translate(-44.281 -42.45)" fill="#225a78"/>
          <path id="Path_877359" data-name="Path 877359" d="M91.216,77.06l12.627-.039a.889.889,0,0,1,0,1.777l-12.832-.153a.991.991,0,0,1,.205-1.586" transform="translate(-44.295 -37.794)" fill="#225a78"/>
          <path id="Path_877360" data-name="Path 877360" d="M90.979,67.088a1.436,1.436,0,0,1,.833-.208,32.161,32.161,0,0,1,4.961.016.953.953,0,0,1,0,1.9,36.116,36.116,0,0,1-5.27.006,1.034,1.034,0,0,1-.524-1.716" transform="translate(-44.287 -32.775)" fill="#225a78"/>
        </g>
      </g>
      <g id="Group_1102553" data-name="Group 1102553" transform="translate(7058.754 -10541.825)">
        <g id="Group_1102552" data-name="Group 1102552" transform="translate(0 0)" clip-path="url(#clip-path-9)">
          <path id="Path_877361" data-name="Path 877361" d="M8.834.051a10.238,10.238,0,0,1,8.693,3.408c.4.463,1.039,1.74,1.532,1.837l28.4,0a4.96,4.96,0,0,1,4.258,4.567l-.041,41.369c-4.2,4.672-8.845,9.033-13.324,13.47l-29.721.12A5.212,5.212,0,0,1,4.047,60.1l0-41.881L3.9,17.883C-3.231,12.613,0,.949,8.834.051M8.507,2.132C.369,3.238-.432,15.978,8.353,17.767c11.925,2.428,13-17.382.155-15.635M49.782,49.9V9.872A4.168,4.168,0,0,0,48.824,8.1a4.668,4.668,0,0,0-1.851-.877H19.617A10.115,10.115,0,0,1,6.139,19.258V60.575a4.009,4.009,0,0,0,2.166,2.166h28.64V54c0-1.466,2.627-4.091,4.091-4.091Zm-1.6,1.925H41.84A3.543,3.543,0,0,0,38.871,54.8v6.338Z" transform="translate(0 0)" fill="#225a78"/>
          <path id="Path_877362" data-name="Path 877362" d="M39.543,25.089a1.276,1.276,0,0,1,1.2-1.046,35.243,35.243,0,0,1,5.45.013,1.226,1.226,0,0,1,.874.57l.178,14.343c1.462-.167,4.036.1,2.4,2L17.8,41.057a.98.98,0,0,1-.725-1.695c.581-.595,1.819-.345,2.573-.394V31.346c0-.177.657-.515.892-.552a35.7,35.7,0,0,1,5.453-.016c.4.037,1.2.235,1.2.729v7.461H29.6V28.3a4.294,4.294,0,0,1,.644-.639,48.681,48.681,0,0,1,6.005-.074c.235.037.891.375.891.552V38.968h2.407Zm5.616,1.043h-3.53V38.968h3.53Zm-9.948,3.53h-3.53v9.306h3.53ZM25.1,32.871h-3.53v6.1H25.1Z" transform="translate(-5.486 -7.836)" fill="#225a78"/>
          <path id="Path_877363" data-name="Path 877363" d="M19.774,66.117l11.183-.03c1.385.22,1.438,1.968.013,2.08L19.579,68.16a1.032,1.032,0,0,1,.2-2.044" transform="translate(-6.136 -21.629)" fill="#225a78"/>
          <path id="Path_877364" data-name="Path 877364" d="M45.534,66.117l11.184-.03c1.384.22,1.438,1.968.012,2.08L45.338,68.16a1.032,1.032,0,0,1,.2-2.044" transform="translate(-14.567 -21.629)" fill="#225a78"/>
          <path id="Path_877365" data-name="Path 877365" d="M31.818,77.515a2.365,2.365,0,0,1-1,.366c-3.392.376-7.452-.292-10.918,0-1.469-.143-1.528-1.917,0-2.093,3.424-.394,7.573.3,11.078,0a1.076,1.076,0,0,1,.837,1.727" transform="translate(-6.146 -24.764)" fill="#225a78"/>
          <path id="Path_877366" data-name="Path 877366" d="M19.047,58.2a1,1,0,0,1,.678-1.723c3.558-.388,7.773.3,11.4-.008a.985.985,0,0,1,.149,1.93c-3.683-.233-7.76.322-11.4.01a1.441,1.441,0,0,1-.835-.209" transform="translate(-6.128 -18.443)" fill="#225a78"/>
          <path id="Path_877367" data-name="Path 877367" d="M44.8,58.193a.992.992,0,0,1,.678-1.726c3.513-.415,7.8.322,11.4-.005a.978.978,0,0,1,0,1.941c-3.637-.252-7.657.308-11.246,0a1.44,1.44,0,0,1-.834-.209" transform="translate(-14.552 -18.438)" fill="#225a78"/>
          <path id="Path_877368" data-name="Path 877368" d="M15.99,10.055a1.046,1.046,0,0,1,1.209,1.37c-.893.718-4.235,4.768-4.971,4.989a1.424,1.424,0,0,1-.733,0,18.355,18.355,0,0,1-3.768-3.779A1,1,0,0,1,9.02,11.342c.55.168,2.124,2.278,2.761,2.694.291,0,3.388-3.809,4.209-3.98" transform="translate(-2.513 -3.284)" fill="#225a78"/>
        </g>
      </g>
    </g>
  </g>
</svg>
