<svg xmlns="http://www.w3.org/2000/svg" xmlns:xlink="http://www.w3.org/1999/xlink" width="505" height="317" viewBox="0 0 505 317">
  <defs>
    <clipPath id="clip-path">
      <rect id="Rectangle_405042" data-name="Rectangle 405042" width="470.79" height="291.592" fill="none"/>
    </clipPath>
    <clipPath id="clip-path-4">
      <path id="Rectangle_405017" data-name="Rectangle 405017" d="M15.244,0h1.5A15.244,15.244,0,0,1,31.987,15.244v0A15.244,15.244,0,0,1,16.743,30.488h-1.5A15.244,15.244,0,0,1,0,15.244v0A15.244,15.244,0,0,1,15.244,0Z" fill="none"/>
    </clipPath>
    <linearGradient id="linear-gradient" x1="-9.924" y1="5.976" x2="-9.921" y2="5.976" gradientUnits="objectBoundingBox">
      <stop offset="0" stop-color="#0d104f"/>
      <stop offset="0.72" stop-color="#2b4673"/>
      <stop offset="1" stop-color="#2b4673"/>
    </linearGradient>
    <clipPath id="clip-path-5">
      <rect id="Rectangle_405019" data-name="Rectangle 405019" width="31.987" height="30.488" rx="15.244" fill="none"/>
    </clipPath>
    <linearGradient id="linear-gradient-2" x1="-9.924" y1="5.993" x2="-9.921" y2="5.993" gradientUnits="objectBoundingBox">
      <stop offset="0" stop-color="#0d234f"/>
      <stop offset="1" stop-color="#36486d"/>
    </linearGradient>
    <clipPath id="clip-path-7">
      <rect id="Rectangle_405020" data-name="Rectangle 405020" width="1.403" height="1.403" fill="none"/>
    </clipPath>
    <clipPath id="clip-path-8">
      <rect id="Rectangle_405021" data-name="Rectangle 405021" width="1.404" height="1.403" fill="none"/>
    </clipPath>
  </defs>
  <g id="img29" transform="translate(-914.711 -7362)">
    <rect id="Rectangle_404706" data-name="Rectangle 404706" width="505" height="317" transform="translate(914.711 7362)" fill="none"/>
    <g id="Group_1102741" data-name="Group 1102741" transform="translate(931.711 7375)">
      <g id="Group_1102740" data-name="Group 1102740" clip-path="url(#clip-path)">
        <g id="Group_1102722" data-name="Group 1102722" transform="translate(0 0)">
          <g id="Group_1102721" data-name="Group 1102721" clip-path="url(#clip-path)">
            <path id="Path_878135" data-name="Path 878135" d="M293.875,26.346A148.419,148.419,0,0,1,315.65,12.069C334.2,2.541,355.543-.4,376.394.04c12.646.27,25.639,1.847,36.722,7.941,33.447,18.393,32.574,61.46,41.464,93.615,5.1,18.451,14.952,37.026,32.083,45.571,14.411,7.189,31.83,6.226,46.263,13.368,16.672,8.25,26.738,26.307,30.064,44.609s.908,42.187-1.517,60.63H180.284C155.95,232.036,149.167,226.089,136,186.63c-6.136-18.384-10.9-37.754-8.516-57.254,1.917-15.7,8.723-31.158,20.66-41.535C159.8,77.705,175.215,73.152,190.3,69.8c24.143-5.37,49.318-8.569,71.041-20.394,11.679-6.357,21.932-15,32.538-23.058" transform="translate(-114.987 0.003)" fill="#b7ebff"/>
            <path id="Path_878136" data-name="Path 878136" d="M214.024,2816.737H656.893a1.524,1.524,0,0,1,0,3.049H214.024a1.524,1.524,0,0,1,0-3.049" transform="translate(-192.62 -2553.218)" fill="#050f5b"/>
            <path id="Path_878137" data-name="Path 878137" d="M4756.828,2161.441s5.157-6.64,6.321-11.342-.259-9.111-3.312-8.868-7.278,6.981-3.008,20.21" transform="translate(-4310.163 -1940.899)" fill="#61c7aa"/>
            <path id="Path_878138" data-name="Path 878138" d="M4630.958,2249.469s4.141-8.947,3.609-14.362-1.85-8.966-5.744-8.859-7.837,4.7,2.135,23.221" transform="translate(-4192.009 -2017.969)" fill="#61c7aa"/>
            <path id="Path_878139" data-name="Path 878139" d="M4506.346,2382.554s2.557-9.521,1.11-14.767-3.351-8.52-7.169-7.751-6.921,5.969,6.059,22.518" transform="translate(-4076.254 -2139.142)" fill="#61c7aa"/>
            <path id="Path_878140" data-name="Path 878140" d="M4568.03,2620.369s8.367-7.9,16.556-10.505,10.015,1.425,9.92,4.6-8.189,6.761-26.476,5.9" transform="translate(-4140.668 -2364.939)" fill="#61c7aa"/>
            <path id="Path_878141" data-name="Path 878141" d="M4692.776,2467.84c1.938-.219,4.206-.131,5.414,1.4,1.241,1.573.667,4.028-.758,5.436a10.608,10.608,0,0,1-5.412,2.412c-2.581.544-17.032,2.915-16.3-1.233.442-2.51,5.157-4.346,7.135-5.249a32.865,32.865,0,0,1,9.923-2.766" transform="translate(-4238.258 -2236.88)" fill="#61c7aa"/>
            <path id="Path_878142" data-name="Path 878142" d="M4868.458,2064.761a12.257,12.257,0,0,1,3.837-4.715,5.092,5.092,0,0,1,5.758-.092c1.83,1.443,1.941,4.312.886,6.39s-2.982,3.55-4.847,4.948c-2.8,2.1-6.866,6.494-10.138,7.279-.7-3.932,2.578-10.437,4.5-13.81" transform="translate(-4408.821 -1866.464)" fill="#61c7aa"/>
            <path id="Path_878143" data-name="Path 878143" d="M4773.176,2278.307a12.247,12.247,0,0,1,5.631-2.291,5.091,5.091,0,0,1,5.093,2.686c.911,2.145-.37,4.715-2.293,6.03s-4.321,1.68-6.629,2.01c-3.464.5-9.142,2.4-12.388,1.511,1.274-3.786,7.277-7.914,10.585-9.947" transform="translate(-4317.027 -2063.069)" fill="#61c7aa"/>
            <path id="Path_878144" data-name="Path 878144" d="M4504.149,2248.485a.48.48,0,0,1,.006-.355c11.481-27.66,38.446-58.718,38.716-59.028a.484.484,0,1,1,.73.636c-.27.31-27.132,31.252-38.553,58.763a.484.484,0,0,1-.9-.016" transform="translate(-4082.737 -1984.15)" fill="#3c549e"/>
            <path id="Path_878145" data-name="Path 878145" d="M4754.861,2352.989a.533.533,0,0,1-.021-.074.485.485,0,0,1,.378-.571,46.706,46.706,0,0,0,11.617-4.34.484.484,0,0,1,.658.191.493.493,0,0,1-.191.658,47.819,47.819,0,0,1-11.89,4.44.485.485,0,0,1-.55-.3" transform="translate(-4309.993 -2128.282)" fill="#3c549e"/>
            <path id="Path_878146" data-name="Path 878146" d="M4737.7,2238.361a.481.481,0,0,1,.045-.43c.055-.086,5.5-8.762,4.961-18.384a.484.484,0,1,1,.967-.054c.556,9.941-4.88,18.6-5.112,18.959a.484.484,0,0,1-.668.148.479.479,0,0,1-.193-.239" transform="translate(-4294.434 -2011.433)" fill="#3c549e"/>
            <path id="Path_878147" data-name="Path 878147" d="M4640.181,2527.428v0a.484.484,0,0,1,.287-.622,84.6,84.6,0,0,1,13.878-3.785.484.484,0,0,1,.134.959,83.487,83.487,0,0,0-13.677,3.735.485.485,0,0,1-.622-.285" transform="translate(-4206.042 -2286.974)" fill="#3c549e"/>
            <path id="Path_878148" data-name="Path 878148" d="M4674.711,2350.993a.48.48,0,0,1-.012-.3,30.214,30.214,0,0,0-.708-15.133.486.486,0,0,1,.328-.6.474.474,0,0,1,.6.327,30.594,30.594,0,0,1,.711,15.667.484.484,0,0,1-.92.039" transform="translate(-4236.699 -2116.494)" fill="#3c549e"/>
            <path id="Path_878149" data-name="Path 878149" d="M4542.58,2676.953a.485.485,0,0,1,.252-.609c.425-.194,10.46-4.775,16.25-6.065a.49.49,0,0,1,.577.368.483.483,0,0,1-.368.578c-5.689,1.268-15.953,5.954-16.056,6a.485.485,0,0,1-.642-.239.321.321,0,0,1-.014-.033" transform="translate(-4117.573 -2420.45)" fill="#3c549e"/>
            <path id="Path_878150" data-name="Path 878150" d="M4573.468,2508.717a.483.483,0,0,1,.008-.361c.022-.053,2.215-5.387-1.268-14.713a.484.484,0,1,1,.907-.339c3.633,9.728,1.349,15.208,1.25,15.436a.484.484,0,0,1-.9-.023" transform="translate(-4144.428 -2259.758)" fill="#3c549e"/>
            <path id="Path_878151" data-name="Path 878151" d="M197.973,2045.968s-4.791-8.1-5.422-13.479,1.569-10.077,4.924-9.379,7.1,8.773.5,22.858" transform="translate(-174.439 -1833.775)" fill="#61c7aa"/>
            <path id="Path_878152" data-name="Path 878152" d="M304.271,2162.149s-3.339-10.514-1.987-16.451,3.314-9.692,7.622-9.026,8.038,6.322-5.635,25.478" transform="translate(-273.712 -1936.706)" fill="#61c7aa"/>
            <path id="Path_878153" data-name="Path 878153" d="M409.254,2327.429s-1.5-10.929.844-16.549,4.917-8.987,9.048-7.6,6.844,7.6-9.892,24.146" transform="translate(-370.538 -2087.517)" fill="#61c7aa"/>
            <path id="Path_878154" data-name="Path 878154" d="M151.342,2559.539s-8.178-9.942-16.9-13.99-11.318.173-11.659,3.716,8.14,8.657,28.561,10.275" transform="translate(-111.285 -2305.901)" fill="#61c7aa"/>
            <path id="Path_878155" data-name="Path 878155" d="M72.058,2376.181c-2.12-.516-4.65-.737-6.207.793-1.6,1.572-1.307,4.377.078,6.141s3.552,2.7,5.669,3.438c2.788.968,18.5,5.631,18.27.924-.138-2.848-5.113-5.551-7.182-6.831a36.773,36.773,0,0,0-10.628-4.466" transform="translate(-58.708 -2153.527)" fill="#61c7aa"/>
            <path id="Path_878156" data-name="Path 878156" d="M12.261,1913.876a13.706,13.706,0,0,0-3.6-5.774c-1.754-1.476-4.413-2.094-6.378-.911C.052,1908.535-.476,1911.7.4,1914.159s2.812,4.36,4.685,6.174c2.813,2.724,6.709,8.175,10.23,9.506,1.332-4.267-1.395-11.949-3.057-15.964" transform="translate(0 -1728.2)" fill="#61c7aa"/>
            <path id="Path_878157" data-name="Path 878157" d="M25.475,2157.356a13.709,13.709,0,0,0-5.929-3.335c-2.248-.452-4.877.285-6.031,2.266-1.313,2.253-.253,5.286,1.7,7.017s4.561,2.473,7.076,3.164c3.776,1.038,9.812,3.945,13.54,3.42-.882-4.382-6.965-9.809-10.352-12.531" transform="translate(-11.724 -1952.385)" fill="#61c7aa"/>
            <path id="Path_878158" data-name="Path 878158" d="M140.17,2131.919a.54.54,0,0,0,.042-.4c-8.855-32.32-34.421-70.59-34.678-70.972a.542.542,0,1,0-.9.6c.256.382,25.725,38.508,34.534,70.655a.542.542,0,0,0,1,.109" transform="translate(-94.762 -1867.559)" fill="#3c549e"/>
            <path id="Path_878159" data-name="Path 878159" d="M136.324,2249.3a.588.588,0,0,0,.034-.079.544.544,0,0,0-.34-.687,52.254,52.254,0,0,1-12.285-6.452.543.543,0,0,0-.758.12.553.553,0,0,0,.12.758,53.474,53.474,0,0,0,12.575,6.6.542.542,0,0,0,.653-.26" transform="translate(-111.381 -2032.23)" fill="#3c549e"/>
            <path id="Path_878160" data-name="Path 878160" d="M239.025,2133.615a.54.54,0,0,0,.01-.484c-.049-.1-4.872-10.5-2.922-21.106a.542.542,0,1,0-1.066-.2c-2.015,10.958,2.8,21.329,3.008,21.766a.542.542,0,0,0,.97.02" transform="translate(-212.612 -1913.854)" fill="#3c549e"/>
            <path id="Path_878161" data-name="Path 878161" d="M217.28,2456.315v0a.541.541,0,0,0-.231-.731c-.085-.045-8.607-4.455-14.874-6.154a.542.542,0,1,0-.284,1.046c6.157,1.669,14.574,6.025,14.658,6.069a.542.542,0,0,0,.73-.229" transform="translate(-182.642 -2220.256)" fill="#3c549e"/>
            <path id="Path_878162" data-name="Path 878162" d="M321.883,2274.362a.539.539,0,0,0,.056-.329,33.814,33.814,0,0,1,2.914-16.7.543.543,0,0,0-.279-.714.53.53,0,0,0-.714.279,34.237,34.237,0,0,0-2.993,17.292.542.542,0,0,0,1.016.173" transform="translate(-290.707 -2045.457)" fill="#3c549e"/>
            <path id="Path_878163" data-name="Path 878163" d="M279.054,2632.8a.543.543,0,0,0-.194-.712c-.444-.275-10.94-6.772-17.186-9.018a.549.549,0,0,0-.693.327.541.541,0,0,0,.327.693c6.137,2.207,16.872,8.853,16.98,8.92a.543.543,0,0,0,.747-.175c.007-.011.013-.023.02-.035" transform="translate(-236.536 -2377.639)" fill="#3c549e"/>
            <path id="Path_878164" data-name="Path 878164" d="M405.024,2463.7a.542.542,0,0,0,.042-.4c-.018-.062-1.7-6.292,3.477-16.155a.542.542,0,1,0-.96-.5c-5.4,10.288-3.636,16.693-3.559,16.96a.541.541,0,0,0,1,.1" transform="translate(-365.921 -2217.481)" fill="#3c549e"/>
            <path id="Path_878165" data-name="Path 878165" d="M734.025,2879.951c0,1.573,8.075,2.848,18.036,2.848s18.036-1.275,18.036-2.848-8.075-2.848-18.036-2.848-18.036,1.275-18.036,2.848" transform="translate(-665.353 -2607.936)" fill="#b7ebff"/>
            <path id="Path_878166" data-name="Path 878166" d="M909.5,2335.882a91.521,91.521,0,0,1-1.606-28.008,47.309,47.309,0,0,1,2.048-10.16l.444.164a46.917,46.917,0,0,0-2.023,10.069,91.062,91.062,0,0,0,1.6,27.84Z" transform="translate(-822.555 -2082.751)" fill="#52a38a"/>
            <path id="Path_878167" data-name="Path 878167" d="M881.96,2116.592s-3.82-1.407-8.7,2.27c0,0,.111-1.855,4.9-3.522a17,17,0,0,0-4.623-.955c-2.753-.2-8.417,1.518-8.987,5.192,0,0-7.654,1.469-5.593,7.791a19.117,19.117,0,0,1,3.359-3.677s-1.888,4.248-2.7,5.512c0,0,1.187,4.109,7.16,3.96,0,0,.251-5.277,1.454-6.684a18.5,18.5,0,0,0,1.476,6.144,12.022,12.022,0,0,0,3.314.213s.227-3.129.2-3.817c0,0,1,2.914,1.675,3.349s1.662.275,2.859-.223,2.768-1.195,3.976.605a10.463,10.463,0,0,1,1.233-4.206c1.054-1.613,1.5-3.362,1.325-3.85s-3.085-2.257-5.09-2.245a7.978,7.978,0,0,1,5.057.507,11.209,11.209,0,0,0-2.3-6.365" transform="translate(-778.277 -1916.559)" fill="#6cd8b7"/>
            <path id="Path_878168" data-name="Path 878168" d="M871.7,2218.356c-.609,1.335-1.688,3.644-2.248,4.521,0,0,1.187,4.109,7.16,3.96,0,0,.251-5.277,1.454-6.684a18.5,18.5,0,0,0,1.476,6.144,12.021,12.021,0,0,0,3.313.213s.227-3.129.2-3.817c0,0,1,2.914,1.675,3.349s1.662.275,2.859-.222,2.768-1.195,3.976.605a12.558,12.558,0,0,1,.533-2.682c-7.964-6.872-15.775-6.539-20.4-5.387" transform="translate(-788.114 -2010.234)" fill="#61c7aa"/>
            <path id="Path_878169" data-name="Path 878169" d="M861.121,2227.345a19.821,19.821,0,0,0-2.3.837,6.992,6.992,0,0,0,.332,1.593,30.17,30.17,0,0,1,1.971-2.43" transform="translate(-778.471 -2018.966)" fill="#61c7aa"/>
            <path id="Path_878170" data-name="Path 878170" d="M935.935,2182.219l-.015.167-.368-.463c-1.681-5.919-6.125-8.745-9.6-10.374a28.5,28.5,0,0,0-7.571-2.255l.353-.083.014-.086a25.741,25.741,0,0,1,7.357,2.168,17.5,17.5,0,0,1,9.83,10.925" transform="translate(-832.462 -1966.193)" fill="#52a38a"/>
            <path id="Path_878171" data-name="Path 878171" d="M939.982,2121.49l-.272-.113c.076-.13,1.9-3.19,8.617-5.358l.57.09a24.047,24.047,0,0,0-7.176,3.576,7.891,7.891,0,0,0-1.739,1.8" transform="translate(-851.796 -1918.055)" fill="#52a38a"/>
            <path id="Path_878172" data-name="Path 878172" d="M1021.176,2170.561c-5.063-.2-10.736,2.444-10.789,2.471l-.137-.24c.053-.027,5.645-2.775,10.8-2.57Z" transform="translate(-915.737 -1967.177)" fill="#52a38a"/>
            <path id="Path_878173" data-name="Path 878173" d="M1051.643,2221.643a27.206,27.206,0,0,0-7.513-2.788l-.256-.3a27.462,27.462,0,0,1,7.891,2.8Z" transform="translate(-946.215 -2011.001)" fill="#52a38a"/>
            <path id="Path_878174" data-name="Path 878174" d="M987.805,2203.693l-.333-.03a23.972,23.972,0,0,1,.135-11.16l.3.048a24.5,24.5,0,0,0-.1,11.142" transform="translate(-894.538 -1987.383)" fill="#52a38a"/>
            <path id="Path_878175" data-name="Path 878175" d="M917.784,2189.99l-.356-.069c-1.253-6.24,3.393-12.638,3.44-12.7l.254.141c-.046.062-4.567,6.5-3.337,12.629" transform="translate(-831.404 -1973.531)" fill="#52a38a"/>
            <path id="Path_878176" data-name="Path 878176" d="M865.975,2465.757c-.955-6.993-2.738-16.865-5.81-24.177-1.838-4.375-3.033-5.49-3.048-5.5l.578-.55c.241.224,5.49,5.636,8.837,30.154Z" transform="translate(-776.93 -2207.671)" fill="#61c7aa"/>
            <path id="Path_878177" data-name="Path 878177" d="M609.628,2258.314s-2.471-6.768-7.783-5.536a5.908,5.908,0,0,1,3.6-1.167c3.666.462,6.8,7.343,6.8,7.343Z" transform="translate(-545.539 -2040.941)" fill="#52a38a"/>
            <path id="Path_878178" data-name="Path 878178" d="M640.278,2251.841a12.154,12.154,0,0,1,4.332,8.188,7.46,7.46,0,0,0,2.218.657,3.6,3.6,0,0,1-1.85.771s.75,8.433,5.27,10.994a31.969,31.969,0,0,0,4.007-1.976,6.58,6.58,0,0,1-2.347,2.574,6.109,6.109,0,0,0,5.42.652c2.749-1.19,3.922-2.726,4.169-4.258,0,0-9.354-16.718-21.219-17.6" transform="translate(-580.377 -2041.171)" fill="#6cd8b7"/>
            <path id="Path_878179" data-name="Path 878179" d="M699.45,2388.487a31.965,31.965,0,0,0,4.007-1.976,6.578,6.578,0,0,1-2.346,2.574,6.108,6.108,0,0,0,5.42.652,8.441,8.441,0,0,0,3.192-2.2,27,27,0,0,1-15.163-7.688c.567,2.693,1.907,6.943,4.891,8.634" transform="translate(-629.58 -2157.206)" fill="#61c7aa"/>
            <path id="Path_878180" data-name="Path 878180" d="M689.912,2310.235a28.427,28.427,0,0,0-11.586-3.935l-.129-.369c7.136.867,10.951,3.493,11.087,3.6Z" transform="translate(-614.748 -2090.2)" fill="#52a38a"/>
            <path id="Path_878181" data-name="Path 878181" d="M709.277,2381.986c-.032-.02-3.941-2.073-13.368-.789l-.082-.341c9.6-1.307,12.859.414,12.992.5l.127.174.132.182Z" transform="translate(-630.729 -2157.672)" fill="#52a38a"/>
            <path id="Path_878182" data-name="Path 878182" d="M722.044,2416.12c-.038-.019-4.062-1.931-13.44-.348-.085.014-.6.117-.689.131l-.147-.335c9.719-1.7,13.809-.018,13.97.063Z" transform="translate(-641.552 -2188.896)" fill="#52a38a"/>
            <path id="Path_878183" data-name="Path 878183" d="M914.448,2514.719l-.544-.141a106.71,106.71,0,0,1,8.489-22.556l.492.272a106.131,106.131,0,0,0-8.436,22.425" transform="translate(-828.404 -2258.881)" fill="#52a38a"/>
            <path id="Path_878184" data-name="Path 878184" d="M952.181,2445.333a11.661,11.661,0,0,0-3.323,2.566c-1,1.358-.311,2.53.923,2.716s3.578-.667,4.052-.2-.037,1.781,1.08,1.976a4.675,4.675,0,0,0,3.6-.82c.794-.773-.878-4.194-1.868-5.126a5.422,5.422,0,0,0-4.468-1.109" transform="translate(-859.654 -2216.431)" fill="#61c7aa"/>
            <path id="Path_878185" data-name="Path 878185" d="M981.293,2430.939s2.461-.74,4.139,2.188,3.921,6.438,7.342,7.47a3.863,3.863,0,0,0,.654-1.479,5.683,5.683,0,0,1,.153,1.9,19.115,19.115,0,0,1,4.962,1.774s1.8-5.377,1.109-9.759a13.759,13.759,0,0,0-3.117-.239,9.336,9.336,0,0,1,2.45-.8,5.208,5.208,0,0,0-2.74-2.32,7.106,7.106,0,0,0-5.5-.484,9.968,9.968,0,0,1-4.189.636,7.806,7.806,0,0,0-5.261,1.121" transform="translate(-889.488 -2201.603)" fill="#6cd8b7"/>
            <path id="Path_878186" data-name="Path 878186" d="M1060.152,2451.946a22.407,22.407,0,0,0-10.716-12.862l.559-.041a21.155,21.155,0,0,1,10.432,12.629l-.116.371Z" transform="translate(-951.256 -2210.858)" fill="#52a38a"/>
            <path id="Path_878187" data-name="Path 878187" d="M1081.5,2486.65l-.273-.179a22.8,22.8,0,0,0,2.333-5.889l.286.284a22.332,22.332,0,0,1-2.345,5.784" transform="translate(-980.072 -2248.512)" fill="#52a38a"/>
            <path id="Path_878188" data-name="Path 878188" d="M1087.778,2452.449l-.228-.321c.044,0,4.411-.042,6.924-1.1l.245.25a23.08,23.08,0,0,1-6.942,1.169" transform="translate(-985.804 -2221.724)" fill="#52a38a"/>
            <path id="Path_878189" data-name="Path 878189" d="M1131.519,2509.3l-.222-.4a15.652,15.652,0,0,1,4.274,1.753l-.046.322a14.653,14.653,0,0,0-4.006-1.679" transform="translate(-1025.459 -2274.181)" fill="#52a38a"/>
            <path id="Path_878190" data-name="Path 878190" d="M786.211,2674.2h14.681a6.413,6.413,0,0,0,6.413-6.413v-17.557a1.46,1.46,0,0,0-1.46-1.459H781.258a1.46,1.46,0,0,0-1.46,1.459v17.557a6.413,6.413,0,0,0,6.413,6.413" transform="translate(-706.844 -2400.961)" fill="#e09b12"/>
            <path id="Path_878191" data-name="Path 878191" d="M781.472,2648.766h24.156a1.675,1.675,0,0,1,1.675,1.675v15.981q0,.2-.01.4a38.685,38.685,0,0,1-11.126,1.723c-7.49,0-13.117-5.649-16.371-17.1v-1a1.675,1.675,0,0,1,1.675-1.675" transform="translate(-706.843 -2400.961)" fill="#fdb813"/>
            <path id="Path_878192" data-name="Path 878192" d="M4114.763,2144.09a78.072,78.072,0,0,1-1.37-23.889,40.372,40.372,0,0,1,1.747-8.666l.378.14a40.047,40.047,0,0,0-1.726,8.588,77.676,77.676,0,0,0,1.366,23.746Z" transform="translate(-3728.224 -1913.99)" fill="#52a38a"/>
            <path id="Path_878193" data-name="Path 878193" d="M4091.275,1957.045s-3.258-1.2-7.424,1.936c0,0,.095-1.582,4.182-3a14.5,14.5,0,0,0-3.944-.815c-2.348-.175-7.179,1.295-7.665,4.428,0,0-6.528,1.253-4.771,6.645a16.31,16.31,0,0,1,2.865-3.136s-1.61,3.623-2.3,4.7c0,0,1.012,3.5,6.107,3.378,0,0,.214-4.5,1.24-5.7a15.776,15.776,0,0,0,1.259,5.241,10.257,10.257,0,0,0,2.826.181s.194-2.669.172-3.256c0,0,.851,2.485,1.429,2.857a2.714,2.714,0,0,0,2.438-.19c1.021-.424,2.361-1.019,3.392.516a8.928,8.928,0,0,1,1.052-3.587,5.625,5.625,0,0,0,1.13-3.284,7.285,7.285,0,0,0-4.341-1.915,6.805,6.805,0,0,1,4.313.432,9.562,9.562,0,0,0-1.962-5.429" transform="translate(-3690.458 -1772.235)" fill="#6cd8b7"/>
            <path id="Path_878194" data-name="Path 878194" d="M4082.527,2043.845c-.52,1.139-1.44,3.109-1.918,3.856,0,0,1.013,3.5,6.107,3.378,0,0,.214-4.5,1.24-5.7a15.781,15.781,0,0,0,1.259,5.24,10.254,10.254,0,0,0,2.826.182s.194-2.669.172-3.256c0,0,.851,2.485,1.429,2.857a2.712,2.712,0,0,0,2.438-.19c1.021-.424,2.361-1.019,3.392.516a10.712,10.712,0,0,1,.455-2.288c-6.793-5.861-13.455-5.577-17.4-4.6" transform="translate(-3698.848 -1852.135)" fill="#61c7aa"/>
            <path id="Path_878195" data-name="Path 878195" d="M4073.5,2051.512a16.963,16.963,0,0,0-1.964.714,5.945,5.945,0,0,0,.283,1.359,25.813,25.813,0,0,1,1.681-2.072" transform="translate(-3690.625 -1859.583)" fill="#61c7aa"/>
            <path id="Path_878196" data-name="Path 878196" d="M4137.312,2013.023l-.012.142-.314-.4c-1.434-5.049-5.225-7.459-8.188-8.848a24.293,24.293,0,0,0-6.458-1.923l.3-.071.013-.073a21.944,21.944,0,0,1,6.274,1.849,14.922,14.922,0,0,1,8.384,9.318" transform="translate(-3736.675 -1814.572)" fill="#52a38a"/>
            <path id="Path_878197" data-name="Path 878197" d="M4140.765,1961.224l-.232-.1c.065-.111,1.622-2.721,7.35-4.57l.487.077a20.505,20.505,0,0,0-6.121,3.051,6.735,6.735,0,0,0-1.483,1.539" transform="translate(-3753.166 -1773.512)" fill="#52a38a"/>
            <path id="Path_878198" data-name="Path 878198" d="M4210.021,2003.078c-4.319-.172-9.158,2.084-9.2,2.108l-.117-.2c.045-.023,4.814-2.367,9.215-2.192Z" transform="translate(-3807.705 -1815.41)" fill="#52a38a"/>
            <path id="Path_878199" data-name="Path 878199" d="M4236,2046.648a23.17,23.17,0,0,0-6.408-2.377l-.218-.254a23.408,23.408,0,0,1,6.73,2.391Z" transform="translate(-3833.7 -1852.789)" fill="#52a38a"/>
            <path id="Path_878200" data-name="Path 878200" d="M4181.555,2031.338l-.284-.025a20.449,20.449,0,0,1,.115-9.519l.257.041a20.89,20.89,0,0,0-.087,9.5" transform="translate(-3789.623 -1832.645)" fill="#52a38a"/>
            <path id="Path_878201" data-name="Path 878201" d="M4121.831,2019.651l-.3-.059c-1.069-5.323,2.894-10.78,2.934-10.833l.217.121c-.04.053-3.9,5.547-2.847,10.772" transform="translate(-3735.773 -1820.829)" fill="#52a38a"/>
            <path id="Path_878202" data-name="Path 878202" d="M4077.641,2254.866c-.815-5.965-2.335-14.385-4.956-20.622-1.567-3.731-2.587-4.683-2.6-4.694l.493-.469c.206.191,4.683,4.807,7.538,25.72Z" transform="translate(-3689.309 -2020.54)" fill="#61c7aa"/>
            <path id="Path_878203" data-name="Path 878203" d="M3858.99,2077.928s-2.108-5.772-6.639-4.722a5.04,5.04,0,0,1,3.067-1c3.127.394,5.8,6.263,5.8,6.263Z" transform="translate(-3491.945 -1878.327)" fill="#52a38a"/>
            <path id="Path_878204" data-name="Path 878204" d="M3885.132,2072.406a10.366,10.366,0,0,1,3.7,6.984,6.367,6.367,0,0,0,1.892.561,3.069,3.069,0,0,1-1.578.657s.64,7.193,4.495,9.378a27.225,27.225,0,0,0,3.417-1.685,5.609,5.609,0,0,1-2,2.2,5.211,5.211,0,0,0,4.623.556c2.344-1.015,3.345-2.325,3.556-3.631,0,0-7.979-14.26-18.1-15.014" transform="translate(-3521.659 -1878.522)" fill="#6cd8b7"/>
            <path id="Path_878205" data-name="Path 878205" d="M3935.6,2188.959a27.246,27.246,0,0,0,3.417-1.685,5.613,5.613,0,0,1-2,2.2,5.211,5.211,0,0,0,4.623.556,7.191,7.191,0,0,0,2.722-1.874,23.021,23.021,0,0,1-12.933-6.557c.483,2.3,1.627,5.922,4.172,7.365" transform="translate(-3563.627 -1977.496)" fill="#61c7aa"/>
            <path id="Path_878206" data-name="Path 878206" d="M3927.467,2122.213a24.25,24.25,0,0,0-9.882-3.357l-.11-.314c6.086.739,9.34,2.98,9.456,3.073Z" transform="translate(-3550.976 -1920.342)" fill="#52a38a"/>
            <path id="Path_878207" data-name="Path 878207" d="M3943.985,2183.412c-.027-.017-3.362-1.768-11.4-.673l-.07-.291c8.189-1.115,10.968.353,11.082.424l.108.148.113.155Z" transform="translate(-3564.606 -1977.892)" fill="#52a38a"/>
            <path id="Path_878208" data-name="Path 878208" d="M3954.874,2212.529c-.033-.016-3.465-1.647-11.464-.3-.072.012-.514.1-.587.112l-.126-.286c8.29-1.446,11.778-.015,11.917.054Z" transform="translate(-3573.838 -2004.526)" fill="#52a38a"/>
            <path id="Path_878209" data-name="Path 878209" d="M4118.986,2296.628l-.464-.12a91.045,91.045,0,0,1,7.24-19.24l.42.232a90.53,90.53,0,0,0-7.2,19.127" transform="translate(-3733.214 -2064.218)" fill="#52a38a"/>
            <path id="Path_878210" data-name="Path 878210" d="M4151.17,2237.445a9.945,9.945,0,0,0-2.834,2.188c-.85,1.158-.266,2.158.787,2.316s3.052-.568,3.457-.172-.032,1.52.921,1.685a3.99,3.99,0,0,0,3.073-.7c.678-.659-.749-3.578-1.593-4.372a4.622,4.622,0,0,0-3.811-.946" transform="translate(-3759.869 -2028.011)" fill="#61c7aa"/>
            <path id="Path_878211" data-name="Path 878211" d="M4176,2225.167s2.1-.632,3.531,1.867,3.344,5.49,6.262,6.372a3.3,3.3,0,0,0,.558-1.262,4.862,4.862,0,0,1,.131,1.617,16.3,16.3,0,0,1,4.232,1.513s1.536-4.587.946-8.324a11.736,11.736,0,0,0-2.659-.2,7.961,7.961,0,0,1,2.09-.687,4.441,4.441,0,0,0-2.336-1.979,6.062,6.062,0,0,0-4.7-.413,8.5,8.5,0,0,1-3.573.543,6.661,6.661,0,0,0-4.487.957" transform="translate(-3785.316 -2015.363)" fill="#6cd8b7"/>
            <path id="Path_878212" data-name="Path 878212" d="M4243.264,2243.085a19.112,19.112,0,0,0-9.141-10.97l.477-.035a18.046,18.046,0,0,1,8.9,10.772l-.1.316Z" transform="translate(-3838 -2023.258)" fill="#52a38a"/>
            <path id="Path_878213" data-name="Path 878213" d="M4261.471,2272.687l-.233-.153a19.466,19.466,0,0,0,1.989-5.023l.244.242a19.044,19.044,0,0,1-2,4.934" transform="translate(-3862.579 -2055.374)" fill="#52a38a"/>
            <path id="Path_878214" data-name="Path 878214" d="M4266.826,2243.515l-.194-.273a19.769,19.769,0,0,0,5.906-.937l.209.213a19.687,19.687,0,0,1-5.921,1" transform="translate(-3867.469 -2032.526)" fill="#52a38a"/>
            <path id="Path_878215" data-name="Path 878215" d="M4304.137,2292l-.19-.338a13.336,13.336,0,0,1,3.646,1.5l-.04.274a12.492,12.492,0,0,0-3.417-1.432" transform="translate(-3901.292 -2077.269)" fill="#52a38a"/>
            <path id="Path_878216" data-name="Path 878216" d="M4009.605,2432.653h12.522a5.47,5.47,0,0,0,5.47-5.47v-14.975a1.245,1.245,0,0,0-1.245-1.245H4005.38a1.245,1.245,0,0,0-1.245,1.245v14.975a5.47,5.47,0,0,0,5.47,5.47" transform="translate(-3629.529 -2185.405)" fill="#638ac1"/>
            <path id="Path_878217" data-name="Path 878217" d="M4005.565,2410.963h20.6a1.429,1.429,0,0,1,1.429,1.429v13.631q0,.171-.008.34a33,33,0,0,1-9.49,1.47c-6.388,0-11.188-4.819-13.964-14.584v-.857a1.429,1.429,0,0,1,1.429-1.429" transform="translate(-3629.53 -2185.405)" fill="#8fb7f7"/>
            <path id="Path_878218" data-name="Path 878218" d="M3875.857,2925.971c0,1.233,10.735,2.233,23.977,2.233s23.976-1,23.976-2.233-10.734-2.233-23.976-2.233-23.977,1-23.977,2.233" transform="translate(-3513.252 -2650.208)" fill="#b7ebff"/>
            <rect id="Rectangle_404999" data-name="Rectangle 404999" width="21.227" height="2.382" transform="translate(375.671 265.115)" fill="#100a56"/>
            <path id="Path_878219" data-name="Path 878219" d="M4171.333,2684.427l7.644,24.343a.324.324,0,0,0,.309.226h3.737a.322.322,0,0,0,.315-.391l-5.178-24.178Z" transform="translate(-3781.084 -2433.286)" fill="#192d72"/>
            <path id="Path_878220" data-name="Path 878220" d="M4173.72,2692.028h6.756l.538,2.511-6.925-1.339Z" transform="translate(-3783.249 -2440.175)" fill="#100a56"/>
            <path id="Path_878221" data-name="Path 878221" d="M3971.336,2684.427l-7.645,24.343a.323.323,0,0,1-.308.226h-3.737a.323.323,0,0,1-.316-.391l5.179-24.178Z" transform="translate(-3588.909 -2433.286)" fill="#192d72"/>
            <path id="Path_878222" data-name="Path 878222" d="M4019.092,2692.824l-6.562-.535.056-.26h6.756Z" transform="translate(-3637.139 -2440.176)" fill="#100a56"/>
            <path id="Path_878223" data-name="Path 878223" d="M3975.367,2645.177h24.6a2.418,2.418,0,0,0,0-4.835h-24.6a2.418,2.418,0,1,0,0,4.835" transform="translate(-3601.26 -2393.325)" fill="#192d72"/>
            <path id="Path_878224" data-name="Path 878224" d="M3986.5,2762.459h24.936a1.138,1.138,0,0,0,0-2.276H3986.5a1.138,1.138,0,1,0,0,2.276" transform="translate(-3612.513 -2501.954)" fill="#192d72"/>
            <path id="Path_878225" data-name="Path 878225" d="M4202.762,2784.506h5.891l.132.615-5.955-.4Z" transform="translate(-3809.573 -2524.002)" fill="#100a56"/>
            <path id="Path_878226" data-name="Path 878226" d="M3998.572,2784.506l-.271.861-5.687-.553.066-.308Z" transform="translate(-3619.086 -2524.002)" fill="#100a56"/>
          </g>
        </g>
        <g id="Group_1102724" data-name="Group 1102724" transform="translate(0 0)">
          <g id="Group_1102723" data-name="Group 1102723" clip-path="url(#clip-path)">
            <path id="Path_878227" data-name="Path 878227" d="M1682.986,295.9h-87.751a3.579,3.579,0,0,1-3.579-3.579V230.109a3.579,3.579,0,0,1,3.579-3.579h87.751a3.579,3.579,0,0,1,3.579,3.579v62.213a3.579,3.579,0,0,1-3.579,3.579" transform="translate(-1442.748 -205.337)" fill="#eaf0ff"/>
            <path id="Path_878228" data-name="Path 878228" d="M1683.369,226.529h-88.518a3.2,3.2,0,0,0-3.2,3.2v3.007h94.91v-3.007a3.2,3.2,0,0,0-3.2-3.2" transform="translate(-1442.748 -205.336)" fill="#18367d"/>
            <path id="Path_878229" data-name="Path 878229" d="M2464.612,250.043a.995.995,0,1,1-.995-.995.995.995,0,0,1,.995.995" transform="translate(-2232.232 -225.748)" fill="#fff"/>
            <path id="Path_878230" data-name="Path 878230" d="M2506.885,250.043a.995.995,0,1,1-.995-.995.995.995,0,0,1,.995.995" transform="translate(-2270.551 -225.748)" fill="#fff"/>
            <path id="Path_878231" data-name="Path 878231" d="M2549.16,250.043a.995.995,0,1,1-.995-.995.995.995,0,0,1,.995.995" transform="translate(-2308.87 -225.748)" fill="#fff"/>
            <path id="Path_878232" data-name="Path 878232" d="M1747.614,676.289h0a3.121,3.121,0,0,1-3.121-3.121V669.3a3.121,3.121,0,0,1,6.241,0v3.87a3.121,3.121,0,0,1-3.121,3.121" transform="translate(-1581.287 -603.854)" fill="#4c70d6"/>
            <path id="Path_878233" data-name="Path 878233" d="M1876.033,637.687h0a3.121,3.121,0,0,1-3.121-3.121v-7.854a3.121,3.121,0,0,1,6.241,0v7.854a3.121,3.121,0,0,1-3.12,3.121" transform="translate(-1697.692 -565.252)" fill="#4c70d6"/>
            <path id="Path_878234" data-name="Path 878234" d="M2132.872,637.687h0a3.12,3.12,0,0,1-3.121-3.121v-7.854a3.121,3.121,0,0,1,6.241,0v7.854a3.121,3.121,0,0,1-3.121,3.121" transform="translate(-1930.503 -565.252)" fill="#4c70d6"/>
            <path id="Path_878235" data-name="Path 878235" d="M2261.29,594.269h0a3.121,3.121,0,0,1-3.121-3.121V578.814a3.121,3.121,0,1,1,6.241,0v12.335a3.121,3.121,0,0,1-3.121,3.121" transform="translate(-2046.906 -521.834)" fill="#4c70d6"/>
            <path id="Path_878236" data-name="Path 878236" d="M2389.708,516.054h0a3.121,3.121,0,0,1-3.121-3.121V492.526a3.121,3.121,0,0,1,6.241,0v20.408a3.121,3.121,0,0,1-3.121,3.121" transform="translate(-2163.311 -443.619)" fill="#61c7aa"/>
            <path id="Path_878237" data-name="Path 878237" d="M2004.452,564.583h0a3.12,3.12,0,0,1-3.12-3.121v-15.4a3.12,3.12,0,1,1,6.241,0v15.4a3.12,3.12,0,0,1-3.121,3.121" transform="translate(-1814.097 -492.148)" fill="#4c70d6"/>
            <path id="Path_878238" data-name="Path 878238" d="M1762.652,423.243h-16.694a1.464,1.464,0,0,1,0-2.929h16.694a1.464,1.464,0,1,1,0,2.929" transform="translate(-1581.288 -380.991)" fill="#4c70d6"/>
            <path id="Path_878239" data-name="Path 878239" d="M1754.963,477.982h-9.811a.659.659,0,1,1,0-1.318h9.811a.659.659,0,1,1,0,1.318" transform="translate(-1581.287 -432.07)" fill="#4c70d6"/>
            <path id="Path_878240" data-name="Path 878240" d="M2622.995,432.633h-86.561a3.579,3.579,0,0,1-3.579-3.579V367.711a3.579,3.579,0,0,1,3.579-3.579h86.561a3.579,3.579,0,0,1,3.579,3.579v61.343a3.579,3.579,0,0,1-3.579,3.579" transform="translate(-2295.893 -330.065)" fill="#100a56"/>
            <path id="Path_878241" data-name="Path 878241" d="M2623.378,364.132H2536.05a3.2,3.2,0,0,0-3.2,3.2v2.929h93.72v-2.929a3.2,3.2,0,0,0-3.2-3.2" transform="translate(-2295.893 -330.065)" fill="#18367d"/>
            <path id="Path_878242" data-name="Path 878242" d="M3394.864,387.35a.982.982,0,1,1-.982-.982.982.982,0,0,1,.982.982" transform="translate(-3075.477 -350.221)" fill="#fff"/>
            <path id="Path_878243" data-name="Path 878243" d="M3436.608,387.35a.982.982,0,1,1-.982-.982.982.982,0,0,1,.982.982" transform="translate(-3113.316 -350.221)" fill="#fff"/>
            <path id="Path_878244" data-name="Path 878244" d="M3478.352,387.35a.982.982,0,1,1-.982-.982.982.982,0,0,1,.982.982" transform="translate(-3151.155 -350.221)" fill="#fff"/>
            <path id="Path_878245" data-name="Path 878245" d="M2710.162,506.555h-24.487a.6.6,0,1,1,0-1.2h24.487a.6.6,0,1,1,0,1.2" transform="translate(-2433.872 -458.073)" fill="#fff"/>
            <path id="Path_878246" data-name="Path 878246" d="M2697.919,560.158h-12.244a.6.6,0,1,1,0-1.2h12.244a.6.6,0,1,1,0,1.2" transform="translate(-2433.872 -506.661)" fill="#fff"/>
            <path id="Path_878247" data-name="Path 878247" d="M2697.919,597.093h-12.244a.6.6,0,1,1,0-1.2h12.244a.6.6,0,1,1,0,1.2" transform="translate(-2433.872 -540.141)" fill="#fff"/>
            <rect id="Rectangle_405001" data-name="Rectangle 405001" width="4.161" height="18.539" transform="translate(308.034 74.842)" fill="#fff"/>
            <rect id="Rectangle_405002" data-name="Rectangle 405002" width="4.161" height="5.103" transform="translate(308.034 88.279)" fill="#b7ebff"/>
            <rect id="Rectangle_405003" data-name="Rectangle 405003" width="4.161" height="22.009" transform="translate(299.729 71.373)" fill="#fff"/>
            <rect id="Rectangle_405004" data-name="Rectangle 405004" width="4.161" height="8.129" transform="translate(299.729 85.253)" fill="#b7ebff"/>
            <rect id="Rectangle_405005" data-name="Rectangle 405005" width="4.161" height="26.301" transform="translate(291.423 67.081)" fill="#fff"/>
            <rect id="Rectangle_405006" data-name="Rectangle 405006" width="4.161" height="13.059" transform="translate(291.423 80.322)" fill="#b7ebff"/>
            <rect id="Rectangle_405007" data-name="Rectangle 405007" width="4.161" height="24.332" transform="translate(283.118 69.05)" fill="#fff"/>
            <rect id="Rectangle_405008" data-name="Rectangle 405008" width="4.161" height="14.247" transform="translate(283.118 79.134)" fill="#b7ebff"/>
            <rect id="Rectangle_405009" data-name="Rectangle 405009" width="4.161" height="20.915" transform="translate(274.812 72.466)" fill="#fff"/>
            <rect id="Rectangle_405010" data-name="Rectangle 405010" width="4.161" height="9.312" transform="translate(274.812 84.07)" fill="#b7ebff"/>
            <rect id="Rectangle_405011" data-name="Rectangle 405011" width="4.161" height="15.436" transform="translate(266.507 77.946)" fill="#fff"/>
            <rect id="Rectangle_405012" data-name="Rectangle 405012" width="4.161" height="11.852" transform="translate(266.507 81.53)" fill="#b7ebff"/>
            <rect id="Rectangle_405013" data-name="Rectangle 405013" width="4.161" height="13.059" transform="translate(258.201 80.322)" fill="#fff"/>
            <rect id="Rectangle_405014" data-name="Rectangle 405014" width="4.161" height="6.027" transform="translate(258.201 87.354)" fill="#b7ebff"/>
            <path id="Path_878248" data-name="Path 878248" d="M2493.3,987.723h-80.226a3.579,3.579,0,0,1-3.579-3.579V927.431a3.579,3.579,0,0,1,3.579-3.579H2493.3a3.579,3.579,0,0,1,3.579,3.579v56.713a3.579,3.579,0,0,1-3.579,3.579" transform="translate(-2184.073 -837.421)" fill="#fff"/>
            <path id="Path_878249" data-name="Path 878249" d="M2493.68,923.852h-80.992a3.2,3.2,0,0,0-3.2,3.2v2.515h87.384v-2.515a3.2,3.2,0,0,0-3.2-3.2" transform="translate(-2184.073 -837.421)" fill="#18367d"/>
            <path id="Path_878250" data-name="Path 878250" d="M3213.227,945.5a.916.916,0,1,1-.916-.916.916.916,0,0,1,.916.916" transform="translate(-2910.953 -856.213)" fill="#fff"/>
            <path id="Path_878251" data-name="Path 878251" d="M3252.148,945.5a.916.916,0,1,1-.916-.916.916.916,0,0,1,.916.916" transform="translate(-2946.234 -856.213)" fill="#fff"/>
            <path id="Path_878252" data-name="Path 878252" d="M3291.071,945.5a.916.916,0,1,1-.916-.916.916.916,0,0,1,.916.916" transform="translate(-2981.515 -856.213)" fill="#fff"/>
            <path id="Path_878253" data-name="Path 878253" d="M2565.467,1062.65h-20.441a1.311,1.311,0,0,1-1.311-1.311v-.82a1.311,1.311,0,0,1,1.311-1.311h20.441a1.311,1.311,0,0,1,1.311,1.311v.82a1.311,1.311,0,0,1-1.311,1.311" transform="translate(-2305.738 -960.114)" fill="#4c70d6"/>
            <path id="Path_878254" data-name="Path 878254" d="M2556.206,1126.987h-11.9a.59.59,0,0,1-.59-.59v-.369a.59.59,0,0,1,.59-.59h11.9a.59.59,0,0,1,.59.59v.369a.59.59,0,0,1-.59.59" transform="translate(-2305.738 -1020.148)" fill="#4c70d6"/>
            <path id="Path_878255" data-name="Path 878255" d="M2961.617,1326.042v3.09a17.426,17.426,0,0,0,17.426-17.427h-3.09a14.336,14.336,0,0,1-14.336,14.336" transform="translate(-2684.544 -1188.989)" fill="#0284d3"/>
            <path id="Path_878256" data-name="Path 878256" d="M2961.617,1125.438v3.09a14.336,14.336,0,0,1,14.336,14.336h3.09a17.426,17.426,0,0,0-17.426-17.427" transform="translate(-2684.544 -1020.148)" fill="#4c70d6"/>
            <path id="Path_878257" data-name="Path 878257" d="M2792.774,1329.133h0v-3.09a14.336,14.336,0,0,1-14.336-14.336h-3.09a17.426,17.426,0,0,0,17.427,17.426" transform="translate(-2515.701 -1188.99)" fill="#61c7aa"/>
            <path id="Path_878258" data-name="Path 878258" d="M2792.774,1128.527h0v-3.09a17.426,17.426,0,0,0-17.427,17.426h3.09a14.336,14.336,0,0,1,14.336-14.336" transform="translate(-2515.701 -1020.147)" fill="#feaf54"/>
            <path id="Path_878259" data-name="Path 878259" d="M2913.006,1258.045a2.058,2.058,0,0,1,.581-1.5,2.185,2.185,0,0,1,2.995,0,2.129,2.129,0,0,1,.575,1.543v.494a2.032,2.032,0,0,1-.582,1.5,2.005,2.005,0,0,1-1.48.581,2.05,2.05,0,0,1-1.5-.581,2.075,2.075,0,0,1-.592-1.55Zm.961.533a1.319,1.319,0,0,0,.306.9,1.034,1.034,0,0,0,.822.352,1.014,1.014,0,0,0,.8-.342,1.361,1.361,0,0,0,.3-.935v-.51a1.351,1.351,0,0,0-.3-.9,1.11,1.11,0,0,0-1.629,0,1.392,1.392,0,0,0-.3.928Zm1.421,6.891-.731-.46,4.952-7.926.731.459Zm2.556-1.72a2.046,2.046,0,0,1,.581-1.5,2.2,2.2,0,0,1,2.991,0,2.1,2.1,0,0,1,.585,1.553v.495a2.047,2.047,0,0,1-.582,1.5,2,2,0,0,1-1.487.589,2.048,2.048,0,0,1-1.5-.582,2.074,2.074,0,0,1-.592-1.55Zm.961.54a1.327,1.327,0,0,0,.306.9,1.033,1.033,0,0,0,.822.352,1.007,1.007,0,0,0,.8-.346,1.385,1.385,0,0,0,.3-.939v-.516a1.324,1.324,0,0,0-.3-.9,1.113,1.113,0,0,0-1.616,0,1.345,1.345,0,0,0-.31.932Z" transform="translate(-2640.48 -1138.449)" fill="#4c70d6"/>
            <path id="Path_878260" data-name="Path 878260" d="M1318.127,933.993V880.586a5.424,5.424,0,0,1,5.425-5.424h33.6a5.424,5.424,0,0,1,5.424,5.424v53.407a5.425,5.425,0,0,1-5.424,5.424h-33.6a5.425,5.425,0,0,1-5.425-5.424" transform="translate(-1194.81 -793.286)" fill="#fff"/>
            <path id="Path_878261" data-name="Path 878261" d="M1357.7,1388.75H1323a4.868,4.868,0,0,1-4.868-4.868v-13.011h44.445v13.011a4.868,4.868,0,0,1-4.868,4.868" transform="translate(-1194.811 -1242.619)" fill="#eaf0ff"/>
            <path id="Path_878262" data-name="Path 878262" d="M1404.7,1420.346h-21.615a.531.531,0,1,1,0-1.063H1404.7a.531.531,0,0,1,0,1.063" transform="translate(-1253.211 -1286.502)" fill="#fff"/>
            <path id="Path_878263" data-name="Path 878263" d="M1393.895,1486.462h-10.807a.531.531,0,1,1,0-1.063h10.807a.531.531,0,1,1,0,1.063" transform="translate(-1253.211 -1346.433)" fill="#fff"/>
            <path id="Path_878264" data-name="Path 878264" d="M1393.895,1456.13h-10.807a.531.531,0,1,1,0-1.063h10.807a.531.531,0,1,1,0,1.063" transform="translate(-1253.211 -1318.938)" fill="#fff"/>
            <path id="Path_878265" data-name="Path 878265" d="M1454.736,1115.115h-5.448v-14.644a1.348,1.348,0,0,1,1.348-1.348h2.752a1.348,1.348,0,0,1,1.348,1.348Z" transform="translate(-1313.7 -996.295)" fill="#4c70d6"/>
            <path id="Path_878266" data-name="Path 878266" d="M1535.753,1084.241h-5.448v-17.83a1.348,1.348,0,0,1,1.348-1.348h2.752a1.348,1.348,0,0,1,1.348,1.348Z" transform="translate(-1387.138 -965.421)" fill="#4c70d6"/>
            <path id="Path_878267" data-name="Path 878267" d="M1616.769,1036.269h-5.448v-22.782a1.348,1.348,0,0,1,1.348-1.348h2.752a1.348,1.348,0,0,1,1.348,1.348Z" transform="translate(-1460.574 -917.448)" fill="#4c70d6"/>
            <path id="Path_878268" data-name="Path 878268" d="M1434.233,961.19h0a.731.731,0,0,1,.478-.9c2.581-.832,12.02-4.144,19.17-10.175l.943,1.118c-7.438,6.274-16.977,9.6-19.666,10.453a.731.731,0,0,1-.925-.5" transform="translate(-1300.028 -861.228)" fill="#61c7aa"/>
            <path id="Path_878269" data-name="Path 878269" d="M1634.366,937.537l-.911,2.021-.911,2.021-1.3-1.8-1.3-1.8,2.206-.222Z" transform="translate(-1477.464 -849.825)" fill="#61c7aa"/>
          </g>
        </g>
        <g id="Group_1102726" data-name="Group 1102726" transform="translate(317.422 109.388)">
          <g id="Group_1102725" data-name="Group 1102725" clip-path="url(#clip-path-4)">
            <rect id="Rectangle_405016" data-name="Rectangle 405016" width="31.987" height="30.488" transform="translate(0 0)" fill="url(#linear-gradient)"/>
          </g>
        </g>
        <g id="Group_1102728" data-name="Group 1102728" transform="translate(317.422 108.865)">
          <g id="Group_1102727" data-name="Group 1102727" clip-path="url(#clip-path-5)">
            <rect id="Rectangle_405018" data-name="Rectangle 405018" width="31.987" height="30.488" transform="translate(0 0)" fill="url(#linear-gradient-2)"/>
          </g>
        </g>
        <g id="Group_1102739" data-name="Group 1102739" transform="translate(0 0)">
          <g id="Group_1102738" data-name="Group 1102738" clip-path="url(#clip-path)">
            <path id="Path_878270" data-name="Path 878270" d="M3421.289,1163.649H3396.5a3.6,3.6,0,0,0-3.6,3.6v.951h31.987v-.951a3.6,3.6,0,0,0-3.6-3.6" transform="translate(-3075.477 -1054.784)" fill="#4c70d6"/>
            <g id="Group_1102731" data-name="Group 1102731" transform="translate(340.178 110.471)" opacity="0.1">
              <g id="Group_1102730" data-name="Group 1102730">
                <g id="Group_1102729" data-name="Group 1102729" clip-path="url(#clip-path-7)">
                  <path id="Path_878271" data-name="Path 878271" d="M3637.545,1181.513a.7.7,0,1,1-.7-.7.7.7,0,0,1,.7.7" transform="translate(-3636.141 -1180.811)" fill="#0d104f"/>
                </g>
              </g>
            </g>
            <g id="Group_1102734" data-name="Group 1102734" transform="translate(342.858 110.471)" opacity="0.1">
              <g id="Group_1102733" data-name="Group 1102733">
                <g id="Group_1102732" data-name="Group 1102732" clip-path="url(#clip-path-8)">
                  <path id="Path_878272" data-name="Path 878272" d="M3666.187,1181.513a.7.7,0,1,1-.7-.7.7.7,0,0,1,.7.7" transform="translate(-3664.783 -1180.811)" fill="#0d104f"/>
                </g>
              </g>
            </g>
            <g id="Group_1102737" data-name="Group 1102737" transform="translate(345.505 110.471)" opacity="0.1">
              <g id="Group_1102736" data-name="Group 1102736">
                <g id="Group_1102735" data-name="Group 1102735" clip-path="url(#clip-path-8)">
                  <path id="Path_878273" data-name="Path 878273" d="M3694.488,1181.513a.7.7,0,1,1-.7-.7.7.7,0,0,1,.7.7" transform="translate(-3693.084 -1180.811)" fill="#0d104f"/>
                </g>
              </g>
            </g>
            <path id="Path_878274" data-name="Path 878274" d="M3636.921,1180.8a.7.7,0,1,1-.7-.7.7.7,0,0,1,.7.7" transform="translate(-3295.397 -1069.692)" fill="#fff"/>
            <path id="Path_878275" data-name="Path 878275" d="M3665.562,1180.8a.7.7,0,1,1-.7-.7.7.7,0,0,1,.7.7" transform="translate(-3321.359 -1069.692)" fill="#fff"/>
            <path id="Path_878276" data-name="Path 878276" d="M3693.862,1180.8a.7.7,0,1,1-.7-.7.7.7,0,0,1,.7.7" transform="translate(-3347.011 -1069.692)" fill="#fff"/>
            <path id="Path_878277" data-name="Path 878277" d="M3445.609,1262.124h-5.643a.627.627,0,0,1,0-1.254h5.643a.627.627,0,0,1,0,1.254" transform="translate(-3117.573 -1142.909)" fill="#fff"/>
            <path id="Path_878278" data-name="Path 878278" d="M3475.51,1358.528h-5.643a.627.627,0,1,1,0-1.254h5.643a.627.627,0,1,1,0,1.254" transform="translate(-3144.676 -1230.294)" fill="#efd96a"/>
            <path id="Path_878279" data-name="Path 878279" d="M3533.25,1262.124h-5.643a.627.627,0,0,1,0-1.254h5.643a.627.627,0,0,1,0,1.254" transform="translate(-3197.014 -1142.909)" fill="#efd96a"/>
            <path id="Path_878280" data-name="Path 878280" d="M3442.992,1325.019h-3.025a.627.627,0,0,1,0-1.254h3.025a.627.627,0,0,1,0,1.254" transform="translate(-3117.573 -1199.92)" fill="#ea74cd"/>
            <path id="Path_878281" data-name="Path 878281" d="M3445.9,1392.038h-3.025a.627.627,0,0,1,0-1.254h3.025a.627.627,0,0,1,0,1.254" transform="translate(-3120.207 -1260.669)" fill="#f49fe4"/>
            <path id="Path_878282" data-name="Path 878282" d="M3502.879,1325.019h-3.111a.627.627,0,0,1,0-1.254h3.111a.627.627,0,1,1,0,1.254" transform="translate(-3171.78 -1199.92)" fill="#fff"/>
            <path id="Path_878283" data-name="Path 878283" d="M3502.879,1392.038h-3.111a.627.627,0,0,1,0-1.254h3.111a.627.627,0,1,1,0,1.254" transform="translate(-3171.78 -1260.669)" fill="#efd96a"/>
            <path id="Path_878284" data-name="Path 878284" d="M3557.781,1358.528h-3.111a.627.627,0,0,1,0-1.254h3.111a.627.627,0,0,1,0,1.254" transform="translate(-3221.545 -1230.294)" fill="#fff"/>
            <path id="Path_878285" data-name="Path 878285" d="M3616.607,1358.528h-5.745a.627.627,0,1,1,0-1.254h5.745a.627.627,0,0,1,0,1.254" transform="translate(-3272.48 -1230.294)" fill="#fff"/>
            <path id="Path_878286" data-name="Path 878286" d="M3560.618,1325.019h-3.111a.627.627,0,1,1,0-1.254h3.111a.627.627,0,0,1,0,1.254" transform="translate(-3224.117 -1199.92)" fill="#fff"/>
            <path id="Path_878287" data-name="Path 878287" d="M3476.846,1293.572h-11.1a.627.627,0,0,1,0-1.254h11.1a.627.627,0,1,1,0,1.254" transform="translate(-3140.938 -1171.415)" fill="#fff"/>
            <path id="Path_878288" data-name="Path 878288" d="M3565.772,1423.485h-11.1a.627.627,0,0,1,0-1.254h11.1a.627.627,0,1,1,0,1.254" transform="translate(-3221.545 -1289.174)" fill="#fff"/>
            <path id="Path_878289" data-name="Path 878289" d="M3620.945,1293.572h-6.213a.627.627,0,0,1,0-1.254h6.213a.627.627,0,0,1,0,1.254" transform="translate(-3275.988 -1171.415)" fill="#fff"/>
            <path id="Path_878290" data-name="Path 878290" d="M3473.034,1423.485h-6.213a.627.627,0,0,1,0-1.254h6.213a.627.627,0,0,1,0,1.254" transform="translate(-3141.916 -1289.174)" fill="#fff"/>
            <path id="Path_878291" data-name="Path 878291" d="M683.579,1072.771h-46.2a2.91,2.91,0,0,1-2.91-2.91v-26.733a2.91,2.91,0,0,1,2.91-2.91h46.2a2.91,2.91,0,0,1,2.91,2.91v26.733a2.91,2.91,0,0,1-2.91,2.91" transform="translate(-575.111 -942.901)" fill="#fff"/>
            <rect id="Rectangle_405023" data-name="Rectangle 405023" width="2.219" height="5.716" transform="translate(67.107 114.565)" fill="#4c70d6"/>
            <rect id="Rectangle_405024" data-name="Rectangle 405024" width="2.219" height="7.704" transform="translate(70.195 112.578)" fill="#4c70d6"/>
            <rect id="Rectangle_405025" data-name="Rectangle 405025" width="2.219" height="9.372" transform="translate(73.282 110.91)" fill="#4c70d6"/>
            <rect id="Rectangle_405026" data-name="Rectangle 405026" width="2.219" height="10.67" transform="translate(76.369 109.612)" fill="#4c70d6"/>
            <rect id="Rectangle_405027" data-name="Rectangle 405027" width="2.219" height="14.002" transform="translate(79.456 106.28)" fill="#4c70d6"/>
            <path id="Path_878292" data-name="Path 878292" d="M721.21,1151.4H703.336v-15.383h.219v15.164H721.21Z" transform="translate(-637.535 -1029.737)" fill="#61c7aa"/>
            <path id="Path_878293" data-name="Path 878293" d="M696.9,1126.4l.393.68.393.68-.786-.232-.785.232.393-.68Z" transform="translate(-630.986 -1021.018)" fill="#61c7aa"/>
            <path id="Path_878294" data-name="Path 878294" d="M890.568,1291.662l-.68.393-.68.393.232-.785-.232-.786.68.393Z" transform="translate(-806.018 -1170.108)" fill="#61c7aa"/>
            <path id="Path_878295" data-name="Path 878295" d="M955.359,1143.577H937.491a.439.439,0,1,1,0-.879h17.867a.439.439,0,0,1,0,.879" transform="translate(-849.386 -1035.793)" fill="#4c70d6"/>
            <path id="Path_878296" data-name="Path 878296" d="M947.8,1181.687h-10.3a.439.439,0,1,1,0-.879h10.3a.439.439,0,0,1,0,.879" transform="translate(-849.387 -1070.338)" fill="#4c70d6"/>
            <path id="Path_878297" data-name="Path 878297" d="M949.033,1204.211h-11.54a.439.439,0,1,1,0-.879h11.54a.439.439,0,1,1,0,.879" transform="translate(-849.387 -1090.754)" fill="#4c70d6"/>
            <path id="Path_878298" data-name="Path 878298" d="M943.767,1226.736h-6.275a.439.439,0,1,1,0-.878h6.275a.439.439,0,1,1,0,.878" transform="translate(-849.387 -1111.172)" fill="#4c70d6"/>
            <path id="Path_878299" data-name="Path 878299" d="M1186.849,2970.637c0,3.961-59.932,7.173-133.862,7.173s-133.862-3.211-133.862-7.173,59.932-7.173,133.862-7.173,133.862,3.211,133.862,7.173" transform="translate(-833.136 -2686.218)" fill="#b7ebff"/>
            <path id="Path_878300" data-name="Path 878300" d="M1309.333,2926.893h1.691a.6.6,0,0,0,.593-.594v-7.231a.6.6,0,0,0-.593-.593h-1.691a.6.6,0,0,0-.593.593v7.231a.6.6,0,0,0,.593.594" transform="translate(-1186.301 -2645.438)" fill="#e3f1fc"/>
            <path id="Path_878301" data-name="Path 878301" d="M1257,2926.893h1.691a.6.6,0,0,0,.593-.594v-7.231a.6.6,0,0,0-.593-.593H1257a.6.6,0,0,0-.593.593v7.231a.6.6,0,0,0,.593.594" transform="translate(-1138.862 -2645.438)" fill="#e3f1fc"/>
            <rect id="Rectangle_405028" data-name="Rectangle 405028" width="2.835" height="8.074" transform="translate(120.034 271.706)" fill="#e3f1fc"/>
            <path id="Path_878302" data-name="Path 878302" d="M1540.062,2926.893h1.691a.6.6,0,0,0,.593-.594v-7.231a.6.6,0,0,0-.593-.593h-1.691a.6.6,0,0,0-.593.593v7.231a.6.6,0,0,0,.593.594" transform="translate(-1395.444 -2645.438)" fill="#e3f1fc"/>
            <path id="Path_878303" data-name="Path 878303" d="M1487.728,2926.893h1.691a.6.6,0,0,0,.593-.594v-7.231a.6.6,0,0,0-.593-.593h-1.691a.6.6,0,0,0-.593.593v7.231a.6.6,0,0,0,.593.594" transform="translate(-1348.006 -2645.438)" fill="#e3f1fc"/>
            <rect id="Rectangle_405029" data-name="Rectangle 405029" width="2.835" height="8.074" transform="translate(141.62 271.706)" fill="#e3f1fc"/>
            <path id="Path_878304" data-name="Path 878304" d="M2012.086,2926.893h1.691a.6.6,0,0,0,.593-.594v-7.231a.6.6,0,0,0-.593-.593h-1.691a.6.6,0,0,0-.593.593v7.231a.6.6,0,0,0,.593.594" transform="translate(-1823.308 -2645.438)" fill="#e3f1fc"/>
            <path id="Path_878305" data-name="Path 878305" d="M1959.752,2926.893h1.691a.6.6,0,0,0,.593-.594v-7.231a.6.6,0,0,0-.593-.593h-1.691a.6.6,0,0,0-.593.593v7.231a.6.6,0,0,0,.593.594" transform="translate(-1775.87 -2645.438)" fill="#e3f1fc"/>
            <rect id="Rectangle_405030" data-name="Rectangle 405030" width="2.835" height="8.074" transform="translate(185.78 271.706)" fill="#e3f1fc"/>
            <path id="Path_878306" data-name="Path 878306" d="M1067.726,1344.768h49.305s13.228,9.62,10.479,25.426c0,0,14.774,20.272,9.277,35.046,0,0,14.431,21.3,7.559,36.42h0l-.344,6.719-50.508-1.565Z" transform="translate(-967.835 -1218.958)" fill="#f4a800"/>
            <rect id="Rectangle_405031" data-name="Rectangle 405031" width="5.154" height="42.758" transform="translate(147.65 229.421)" fill="#d0d2d3"/>
            <rect id="Rectangle_405032" data-name="Rectangle 405032" width="71.681" height="3.779" transform="translate(117.543 268.399)" fill="#d0d2d3"/>
            <path id="Path_878307" data-name="Path 878307" d="M1829.729,2309.983l-20.1,8.5h-36.764l3.092-17.008h53.772Z" transform="translate(-1607.005 -2086.164)" fill="#f4a800"/>
            <path id="Path_878308" data-name="Path 878308" d="M1056.3,1441.66s5.154-20.615-9.277-37.108c0,0,5.154-19.928-7.215-33.328,0,0,3.092-18.554-12.026-26.456h-4.123l28.174,106.513h78.682v-9.62Z" transform="translate(-927.887 -1218.958)" fill="#af7600"/>
            <path id="Path_878309" data-name="Path 878309" d="M2386.266,1768.882s13.182.513,18.283,5.258-2.729,3.674-2.729,3.674-8.185-2.145-10.439-2.138c0,0,2.774.23,2.87,1.483s-6.666.659-6.666.659l-4.084-1.561Z" transform="translate(-2160.513 -1603.394)" fill="#eda18a"/>
            <path id="Path_878310" data-name="Path 878310" d="M2443.258,2801.508l.728,8.662,9.867.214-.5-9.536Z" transform="translate(-2214.679 -2538.815)" fill="#100a56"/>
            <path id="Path_878311" data-name="Path 878311" d="M2431.475,2882.714s1.321,1.917,9.984.663c0,0,13.852,2.962,16.176,3.234s3.418.962,3.717,2.521a12.947,12.947,0,0,1-.082,3.77l-31.795.2s-.593-8.443,2-10.383" transform="translate(-2202.132 -2613.022)" fill="#192d72"/>
            <path id="Path_878312" data-name="Path 878312" d="M2208.792,2830.3l-.161,7.374,9.244.2,1.005-7.979Z" transform="translate(-2002.004 -2565.146)" fill="#100a56"/>
            <path id="Path_878313" data-name="Path 878313" d="M2190.306,2896.384s1.237,1.8,9.353.621c0,0,12.976,2.775,15.153,3.03s3.2.9,3.481,2.362a12.144,12.144,0,0,1-.077,3.531l-29.785.183s-.555-7.909,1.874-9.727" transform="translate(-1983.644 -2625.413)" fill="#192d72"/>
            <path id="Path_878314" data-name="Path 878314" d="M1688.106,2034.689a16.606,16.606,0,0,1,0,3.742s36.289,1.21,45.819,1.166c8.616-.039,9.281,12.477,10.254,19.932.633,4.849,2.128,42.126,2.009,49.564h-11.3s-2.1-35.339-3.305-40.424c-1.577-6.668-4.4-11.56-5.022-14.264-.386-1.678-1.053-1.824-7.61-.214s-27.36,4.181-42.455,5.867-14.095-26.253-14.095-26.253Z" transform="translate(-1506.856 -1843.533)" fill="#100a56"/>
            <path id="Path_878315" data-name="Path 878315" d="M1603.725,2030.3a14.523,14.523,0,0,1-.158,3.547s28.624,2.383,38.04,3.854,5.738,14.124,4.414,18.832-9.547,43.046-9.989,50.472h-12.109s.774-24.214,1.394-29.4a172.884,172.884,0,0,1,3.63-19.685c.7-2.758-1.394-2.833-4.747-2.792-4.464.055-23.729.415-41.639,1.767-20.52,1.55-18.026-28.08-18.026-28.08Z" transform="translate(-1418.079 -1839.006)" fill="#192d72"/>
            <path id="Path_878316" data-name="Path 878316" d="M1580.441,2055.47s-6.186,1.157-15.971-.809l.107,3.926s11.791.949,15.863-3.117" transform="translate(-1418.106 -1862.438)" fill="#100a56"/>
            <path id="Path_878317" data-name="Path 878317" d="M1899.225,1391.677s1.431,27.569,2.014,30.422,34.167.452,34.167.452l-2.056,8.066s-33.63,6.248-39.273.41-7.282-26.264-7.282-26.264-4.72-10.062,3.162-15.2,9.268,2.114,9.268,2.114" transform="translate(-1709.006 -1257.894)" fill="#0284d3"/>
            <path id="Path_878318" data-name="Path 878318" d="M1665.013,2027.622s-15.516-1.6-24.34-3.182a1.924,1.924,0,0,0-.132,1.784s18.746,2.752,31.884,3.658l.015-1.772Z" transform="translate(-1486.938 -1835.044)" fill="#100a56"/>
            <path id="Path_878319" data-name="Path 878319" d="M1908.715,2055.274l-4.4-.389-.243,2.36,4.516.434Z" transform="translate(-1725.934 -1862.64)" fill="#dd4e4e"/>
            <path id="Path_878320" data-name="Path 878320" d="M1645.453,1231.673s-11.154,3.108-13.19,8.1-3.427,46.945-4.223,65.577c0,0,26.525,3.968,33.335,2.384,0,0,3.695-25.769,4.538-36.516s2.034-28.612-7.682-34.194a62.385,62.385,0,0,0-12.777-5.352" transform="translate(-1475.729 -1116.444)" fill="#f4f4f4"/>
            <path id="Path_878321" data-name="Path 878321" d="M1973.393,1312.424l-2.052,5.04s1.269,6.622,2.088,12.775c1.219,9.16,1.156,7.8-.735,23.143l.5,22.957s4.113-22.491,5.344-33.363c1.579-13.939-1.028-29.049-5.141-30.554" transform="translate(-1786.912 -1189.64)" fill="#0284d3"/>
            <path id="Path_878322" data-name="Path 878322" d="M1579.1,1235.661s12.328,9.13,12.882,11.651,1.053,18.517-2.868,29.047-4.517,9.929-6.909,23.456-11.674,14.866-11.674,14.866l-12.134-2.4s-3.477-23.27,5.947-59.337c1.717-6.573,3.213-15.8,14.756-17.285" transform="translate(-1412.033 -1120.059)" fill="#0284d3"/>
            <path id="Path_878323" data-name="Path 878323" d="M1951.571,1291.934l1.849,3.516,2.052-5.04a5.321,5.321,0,0,0-3.045-2.272Z" transform="translate(-1768.992 -1167.625)" fill="#e5e6e7"/>
            <path id="Path_878324" data-name="Path 878324" d="M1837.447,850.4s2.322,4.59.583,11.606c0,0,2.154,3.912,1.985,6.542-.055.862-3,1.078-3,1.078s-.832,4.671-1.216,6.511-.681,3.353-3.011,3.337-5.112-.84-6.367,1.078-2.853,9.825-2.853,9.825a65.368,65.368,0,0,0-6.812-5.4c-4.245-2.4-1.4-1.792-6.4-3.171,0,0,3.977-11.636,1.892-17.565s-1.965-14.047,3.545-16.891,19.038-3.977,21.652,3.051" transform="translate(-1640.99 -766.072)" fill="#eda18a"/>
            <path id="Path_878325" data-name="Path 878325" d="M1817.582,1070.844a5.879,5.879,0,0,0,1.152.74s.036,3.6.454,4.358,6,4.547,12.147,6.905c0,0-9.917-3.232-11.978-3.3s-1.519.835-1.022,1.4,2.512,10.2,2.512,10.2a87.9,87.9,0,0,0-10.488-5.814s2.7-11.385,2.749-14.313,4.474-.18,4.474-.18" transform="translate(-1640.99 -969.601)" fill="#c97567"/>
            <path id="Path_878326" data-name="Path 878326" d="M1831.866,816.71s-2.284,1.9-3.705.89-3.03-4.048-7.539-4.337-11.187-1.049-14.663,2.259c0,0-5.217.332-6.031,6.808a29.066,29.066,0,0,0,1.686,12.73c.438,1.629,1.223,3.846,1.986,3.889a11.384,11.384,0,0,0,4.38-.785s-4.112-3.394-3.784-6.437,3.225-2.524,3.872-2.217,2.121,1.2,2.053,2.263a6,6,0,0,0,.7,2.51s2.542-.17,1.054-6.06c0,0,2.751,1.975,4.037-1.673.9-2.54-.479-5.377.385-4.971a10.5,10.5,0,0,0,3.751.68h0s7.507,1.387,9.488.607,3-4.052,2.332-6.156" transform="translate(-1631.389 -736.92)" fill="#100a56"/>
            <path id="Path_878327" data-name="Path 878327" d="M2058.223,1123.756l-.554,2.671a6.5,6.5,0,0,1-2.962-3.176Z" transform="translate(-1862.479 -1018.165)" fill="#fff"/>
            <path id="Path_878328" data-name="Path 878328" d="M2068.536,1017.508a.983.983,0,1,0,1.112-.833.983.983,0,0,0-1.112.833" transform="translate(-1875.006 -921.551)" fill="#100a56"/>
            <path id="Path_878329" data-name="Path 878329" d="M1785.763,1216.82s8.616,6.275,12.882,11.652l2.63-2.945a61.773,61.773,0,0,0-10.011-8.706l-2.6-1.945Z" transform="translate(-1618.696 -1101.217)" fill="#e5e6e7"/>
            <path id="Path_878330" data-name="Path 878330" d="M1706.765,1390.912c1.423,2.846,4.894,4.66,4.9,4.671,14.916,2.2,34.9,1.658,34.9,1.658l4.12-10.99s-32.644-.494-33.44-3.392-6.175-28.594-6.175-28.594-2.026-10.078-10.631-3.472a5.422,5.422,0,0,0-1.377,1.657,87.307,87.307,0,0,0,.841,12.727c.968,6.67,5.436,22.884,6.86,25.734" transform="translate(-1540.103 -1222.385)" fill="#0284d3"/>
            <path id="Path_878331" data-name="Path 878331" d="M1694.081,1432.939c.8.722,1.895,1.627,3.195,2.653a44.292,44.292,0,0,1-4.9-6.872c-1.425-2.85-5.893-19.064-6.86-25.734a87.286,87.286,0,0,1-.841-12.727c-4.981,8.784,3.639,37.457,9.409,42.681" transform="translate(-1525.711 -1260.192)" fill="#006cb5"/>
            <path id="Path_878332" data-name="Path 878332" d="M2217.624,1768.882s13.182.513,18.283,5.258-2.729,3.674-2.729,3.674-8.185-2.145-10.439-2.138c0,0,2.774.23,2.87,1.483s-6.666.659-6.666.659l-4.084-1.561Z" transform="translate(-2007.648 -1603.394)" fill="#eda18a"/>
            <path id="Path_878333" data-name="Path 878333" d="M2256.314,1807.616h49.814v-1.706a2.076,2.076,0,0,0-2.077-2.076h-45.661a2.076,2.076,0,0,0-2.077,2.076Z" transform="translate(-2045.225 -1635.076)" fill="#6d6e71"/>
            <rect id="Rectangle_405033" data-name="Rectangle 405033" width="47.329" height="106.19" transform="translate(293.478 177.323)" fill="#d0d2d3"/>
            <path id="Path_878334" data-name="Path 878334" d="M1569.824,1969.078a1.383,1.383,0,0,0,.3-.034,1.339,1.339,0,0,0,1-1.606l-24.706-106.848a1.339,1.339,0,0,0-1.3-1.037h-.009a1.339,1.339,0,0,0-1.3,1.053l-23.253,106.848a1.339,1.339,0,0,0,2.616.57L1545.158,1867l23.362,101.038a1.34,1.34,0,0,0,1.3,1.037" transform="translate(-1378.274 -1685.583)" fill="#808184"/>
            <path id="Path_878335" data-name="Path 878335" d="M1154.532,1969.078a1.385,1.385,0,0,0,.3-.034,1.339,1.339,0,0,0,1-1.606l-24.707-106.848a1.384,1.384,0,0,0-1.313-1.037,1.339,1.339,0,0,0-1.3,1.053l-23.253,106.848a1.338,1.338,0,1,0,2.615.57L1129.865,1867l23.363,101.038a1.34,1.34,0,0,0,1.3,1.037" transform="translate(-1001.834 -1685.583)" fill="#808184"/>
            <rect id="Rectangle_405034" data-name="Rectangle 405034" width="59.082" height="106.19" transform="translate(255.11 177.323)" fill="#808184"/>
            <rect id="Rectangle_405035" data-name="Rectangle 405035" width="181.763" height="5.813" transform="translate(164.422 172.402)" fill="#f4f4f4"/>
            <rect id="Rectangle_405036" data-name="Rectangle 405036" width="59.683" height="5.813" transform="translate(104.739 172.402)" fill="#bbbdbf"/>
            <rect id="Rectangle_405037" data-name="Rectangle 405037" width="50.353" height="3.734" transform="translate(286.25 160.747)" fill="#dd4e4e"/>
            <path id="Path_878336" data-name="Path 878336" d="M3061.734,1621.734h50.7v-9.958h-50.7a2.032,2.032,0,0,0-2.032,2.032v5.894a2.032,2.032,0,0,0,2.032,2.032" transform="translate(-2773.452 -1460.986)" fill="#49c5f5"/>
            <path id="Path_878337" data-name="Path 878337" d="M3268.047,1632.548H3299.9v-7.468h-31.856a1.524,1.524,0,0,0-1.524,1.524v4.42a1.524,1.524,0,0,0,1.524,1.524" transform="translate(-2960.924 -1473.046)" fill="#f4f4f4"/>
            <path id="Path_878338" data-name="Path 878338" d="M3158.89,1766.043h-52.018v-7.921h52.018a1.616,1.616,0,0,1,1.616,1.616v4.688a1.616,1.616,0,0,1-1.616,1.616" transform="translate(-2816.209 -1593.641)" fill="#192d72"/>
            <path id="Path_878339" data-name="Path 878339" d="M3138.689,1775.006h-31.816v-6h31.816a1.224,1.224,0,0,1,1.224,1.224v3.55a1.224,1.224,0,0,1-1.224,1.224" transform="translate(-2816.209 -1603.51)" fill="#f4f4f4"/>
            <rect id="Rectangle_405038" data-name="Rectangle 405038" width="82.937" height="57.764" transform="translate(213.448 104.85)" fill="#f4f4f4"/>
            <rect id="Rectangle_405039" data-name="Rectangle 405039" width="2.228" height="57.764" transform="translate(211.219 104.85)" fill="#808184"/>
            <path id="Path_878340" data-name="Path 878340" d="M2682.315,1335.134a4.166,4.166,0,1,0,4.166-4.166,4.166,4.166,0,0,0-4.166,4.166" transform="translate(-2431.372 -1206.449)" fill="#808184"/>
            <path id="Path_878341" data-name="Path 878341" d="M2678.86,1561.963c2.054,3.207,5.522,10.448,7.1,24.35h-15.5s-.623-7.32-2.846-11.809a8.013,8.013,0,0,1-.836-3.56v-8.557a2.545,2.545,0,0,1,2.545-2.545h5.683a4.574,4.574,0,0,1,3.851,2.121" transform="translate(-2417.291 -1413.911)" fill="#808184"/>
            <rect id="Rectangle_405040" data-name="Rectangle 405040" width="31.586" height="2.055" transform="translate(244.646 170.347)" fill="#808184"/>
            <path id="Path_878342" data-name="Path 878342" d="M2724.97,1920.085l59.082-15.16-59.276.094Z" transform="translate(-2469.861 -1726.709)" fill="#6d6e71"/>
          </g>
        </g>
      </g>
    </g>
  </g>
</svg>
