<svg xmlns="http://www.w3.org/2000/svg" xmlns:xlink="http://www.w3.org/1999/xlink" width="190.293" height="191" viewBox="0 0 190.293 191">
  <defs>
    <clipPath id="clip-path">
      <rect id="Rectangle_405052" data-name="Rectangle 405052" width="84.951" height="103.461" fill="none"/>
    </clipPath>
  </defs>
  <g id="img3" transform="translate(1.61)">
    <g id="Group_1101015" data-name="Group 1101015" transform="translate(-0.3)">
      <g id="Group_1101010" data-name="Group 1101010" transform="translate(67.857)">
        <path id="Path_875656" data-name="Path 875656" d="M258.9,10.626,141.848,127.684v4.067h4.066L262.972,14.693V10.626Z" transform="translate(-141.847 -10.626)" fill="#225a78"/>
        <path id="Path_875657" data-name="Path 875657" d="M240.971,10.626l-99.124,99.125v8.134L249.106,10.626Z" transform="translate(-141.847 -10.626)" fill="#225a78"/>
        <path id="Path_875658" data-name="Path 875658" d="M223.037,10.626l-81.19,81.192v8.134l89.325-89.325Z" transform="translate(-141.847 -10.626)" fill="#225a78"/>
        <path id="Path_875659" data-name="Path 875659" d="M205.1,10.626,141.847,73.884v8.134l71.391-71.392Z" transform="translate(-141.847 -10.626)" fill="#225a78"/>
        <path id="Path_875660" data-name="Path 875660" d="M187.17,10.626,141.847,55.95v8.134L195.3,10.626Z" transform="translate(-141.847 -10.626)" fill="#225a78"/>
        <path id="Path_875661" data-name="Path 875661" d="M169.236,10.626l-27.389,27.39V46.15l35.524-35.524Z" transform="translate(-141.847 -10.626)" fill="#225a78"/>
        <path id="Path_875662" data-name="Path 875662" d="M151.3,10.626l-9.456,9.456v8.135l17.591-17.591Z" transform="translate(-141.847 -10.626)" fill="#225a78"/>
        <path id="Path_875663" data-name="Path 875663" d="M268.109,154.478h8.134l9.455-9.456v-8.134Z" transform="translate(-164.574 -33.352)" fill="#225a78"/>
        <path id="Path_875664" data-name="Path 875664" d="M246.238,150.541h8.134l27.389-27.391v-8.134Z" transform="translate(-160.636 -29.415)" fill="#225a78"/>
        <path id="Path_875665" data-name="Path 875665" d="M224.368,146.605H232.5l45.323-45.324V93.147Z" transform="translate(-156.7 -25.479)" fill="#225a78"/>
        <path id="Path_875666" data-name="Path 875666" d="M202.5,142.669h8.134l63.256-63.258V71.277Z" transform="translate(-152.764 -21.542)" fill="#225a78"/>
        <path id="Path_875667" data-name="Path 875667" d="M180.628,138.732h8.134l81.19-81.192V49.407Z" transform="translate(-148.826 -17.606)" fill="#225a78"/>
        <path id="Path_875668" data-name="Path 875668" d="M158.757,134.8h8.134l99.123-99.125V27.536Z" transform="translate(-144.89 -13.669)" fill="#225a78"/>
      </g>
      <rect id="Rectangle_403642" data-name="Rectangle 403642" width="91" height="90" transform="translate(-0.31 100)" fill="none" stroke="#225a78" stroke-linecap="round" stroke-linejoin="round" stroke-width="2"/>
      <rect id="Rectangle_403641" data-name="Rectangle 403641" width="158.256" height="158.156" transform="translate(17.435 13.342)" fill="#b0d5e9"/>
    </g>
    <g id="Group_1102754" data-name="Group 1102754" transform="translate(51.39 43)">
      <g id="Group_1102754-2" data-name="Group 1102754" clip-path="url(#clip-path)">
        <path id="Path_879027" data-name="Path 879027" d="M75.5.118V54.192c-.3-.046-.442.109-.4.4-.336-.006-.688.043-.807.4-5.612-.284-11.319.211-16.939,0v6.053H75.094c-.035.321.095.4.4.4V66.3c-.3-.033-.441.1-.4.4H57.348v6.457c6.043.012,12.106-.016,18.149,0-.008,2.013,0,4.04,0,6.053-10,0-20.413-.541-30.249-.4V.118C55.3-.146,65.442.117,75.5.118" transform="translate(-26.928 0)" fill="#00d1a1"/>
        <path id="Path_879028" data-name="Path 879028" d="M138.106.285c6.044.016,12.107-.011,18.152,0-.2,26.355.262,52.743,0,79.1q-18.14,0-36.3,0c0-2.013-.008-4.04,0-6.053,7.119.019,14.257-.014,21.376,0V67.273H120.36c.022-.13-.017-.271,0-.4.036-.347-.1-.37-.4-.4V61.623c.309,0,.438-.082.4-.4h2.42a118.63,118.63,0,0,0,16.78.022c.382-.045.766,0,.966-.426l.4-.4V55.57l-.4-.4c-6.368.436-13.489-.587-19.762,0-.18-.37-.336-.734-.807-.807V30.55l9.108-5.657c1.5-.079,7.2,4.845,9.037,5.657Z" transform="translate(-71.388 -0.167)" fill="#ccf6ec"/>
        <path id="Path_879029" data-name="Path 879029" d="M18.32,98.373v38.74c-2.075.029-6.207.172-8.234.438-4.572.6-7.944,4.6-9.916,8.44-.352-15.96-.059-32.053,0-48.022Z" transform="translate(0 -58.304)" fill="#00513f"/>
        <path id="Path_879030" data-name="Path 879030" d="M48.8,195.022c0,2.013,0,4.04,0,6.053-12.418.02-24.85-.045-37.271.036-6.776.924-7.148,11.063.413,12.025,12.284.1,24.578.026,36.858.045v6.053c-12.9.017-25.835.14-38.738-.183a12.957,12.957,0,0,1-8.379-6.144C-.03,209.666.477,206.975.4,203.5c1.971-3.845,5.343-7.842,9.915-8.44,2.027-.265,6.159-.409,8.234-.438,9.836-.138,20.247.4,30.249.4" transform="translate(-0.23 -115.81)" fill="#99edd9"/>
        <path id="Path_879031" data-name="Path 879031" d="M138.11.28l0,30.266c-1.832-.812-7.535-5.735-9.037-5.657l-9.108,5.657V.28c6.043,0,12.106-.016,18.149,0" transform="translate(-71.392 -0.162)" fill="#00513f"/>
        <path id="Path_879032" data-name="Path 879032" d="M18.358.29V27.327l-18.149.4C.3,17.494-2.091,6.067,9.614,1.428,12.979.094,14.891.381,18.358.29" transform="translate(-0.038 -0.173)" fill="#00513f"/>
        <path id="Path_879033" data-name="Path 879033" d="M149.807,210.6V222.7c-9.94-.077-19.905.016-29.845,0,0-4.03,0-8.076,0-12.106,9.939-.016,19.907.109,29.845,0" transform="translate(-71.392 -125.332)" fill="#eae4f1"/>
        <path id="Path_879034" data-name="Path 879034" d="M18.552,79.984.4,79.581C.418,75.552.368,71.5.4,67.475l18.149-.4Z" transform="translate(-0.232 -39.916)" fill="#00513f"/>
        <path id="Path_879035" data-name="Path 879035" d="M149.807,240.454c2.145.017,4.308-.012,6.453,0v6.053c-12.093.012-24.206-.016-36.3,0v-6.053c9.94.016,19.905-.077,29.845,0" transform="translate(-71.393 -143.083)" fill="#99edd9"/>
        <path id="Path_879036" data-name="Path 879036" d="M156.258,195.647c-.017,1.687.153,3.613,0,5.246l-.4.807c-2.011.016-4.039-.022-6.05,0-9.938.109-19.906-.016-29.845,0,0-2.013,0-4.04,0-6.053q18.14.005,36.3,0" transform="translate(-71.39 -116.435)" fill="#99edd9"/>
        <path id="Path_879037" data-name="Path 879037" d="M208.62,209.413l.4-.807c-.034.358.106.76-.4.807" transform="translate(-124.156 -124.148)" fill="#fb4760"/>
        <path id="Path_879038" data-name="Path 879038" d="M92.88,164.749h.806c-.017.132.022.274,0,.4a32.459,32.459,0,0,0-.4,6.053c-6.043-.016-12.106.012-18.149,0v-6.457Z" transform="translate(-44.715 -98.047)" fill="#225a78"/>
        <path id="Path_879039" data-name="Path 879039" d="M92.073,135.712a6.155,6.155,0,0,1,.807,0l.4.4c-.1,1.583.143,3.275,0,4.842,0,.038-.238.1-.292.226l.292.178c.134.008.27-.011.4,0,.923.079,1.879.36,2.42.4H75.134v-6.053c5.62.211,11.327-.284,16.939,0" transform="translate(-44.715 -80.712)" fill="#225a78"/>
        <path id="Path_879040" data-name="Path 879040" d="M117.78,134.832a2.393,2.393,0,0,1,.4,0c.028.006.065.45.4.4l-.4.4c.04-.376-.13-.344-.4-.4a6.147,6.147,0,0,0-.806,0c.119-.361.47-.409.806-.4" transform="translate(-69.614 -80.237)" fill="#e7f0fd"/>
        <path id="Path_879041" data-name="Path 879041" d="M119.36,151.2c-.309,0-.438-.082-.4-.4h.4Z" transform="translate(-70.792 -89.743)" fill="#fb6455"/>
        <path id="Path_879042" data-name="Path 879042" d="M119.359,164.149h-.4c-.038-.3.1-.437.4-.4Z" transform="translate(-70.791 -97.447)" fill="#fb6356"/>
        <path id="Path_879043" data-name="Path 879043" d="M119.359,134.243a2.4,2.4,0,0,0-.4,0c-.039-.3.107-.449.4-.4Z" transform="translate(-70.791 -79.647)" fill="#fb6153"/>
        <path id="Path_879044" data-name="Path 879044" d="M120.364,165.746h20.973V171.8c-7.119-.014-14.257.019-21.376,0a32.461,32.461,0,0,1,.4-6.053" transform="translate(-71.392 -98.64)" fill="#225a78"/>
        <path id="Path_879045" data-name="Path 879045" d="M140.493,135.57l.4.4v4.842l-.4.4c-.2.422-.583.381-.966.426a118.63,118.63,0,0,1-16.78-.022c-.54-.044-1.5-.325-2.42-.4l-.4-.4c.143-1.567-.1-3.259,0-4.842l.4-.4c.134-.009.27.013.4,0,6.273-.587,13.394.436,19.762,0" transform="translate(-71.355 -80.571)" fill="#225a78"/>
        <path id="Path_879046" data-name="Path 879046" d="M120.768,134.659c-.133.013-.27-.009-.4,0-.338.046-.375-.4-.4-.4v-.4c.471.073.626.437.807.807" transform="translate(-71.393 -79.659)" fill="#fd3952"/>
        <path id="Path_879047" data-name="Path 879047" d="M119.961,151.2v-.4h.4c.035.322-.095.4-.4.4" transform="translate(-71.392 -89.743)" fill="#fd3c56"/>
        <path id="Path_879048" data-name="Path 879048" d="M120.364,164.156h-.4v-.4c.3.034.439.057.4.4" transform="translate(-71.392 -97.454)" fill="#fd3c55"/>
        <path id="Path_879049" data-name="Path 879049" d="M170.766,149.206l.4-.4Z" transform="translate(-101.628 -88.557)" fill="#e7effb"/>
        <path id="Path_879050" data-name="Path 879050" d="M171.169,136.248l-.4-.4Z" transform="translate(-101.628 -80.845)" fill="#e7f0fd"/>
        <path id="Path_879051" data-name="Path 879051" d="M57.575,210.59c0,4.03,0,8.076,0,12.106-12.28-.019-24.574.053-36.858-.046-7.561-.962-7.189-11.1-.413-12.025,12.422-.081,24.854-.015,37.271-.036" transform="translate(-9.007 -125.325)" fill="#fef3f5"/>
        <path id="Path_879052" data-name="Path 879052" d="M120.364,149.206c-.133-.011-.27.008-.4,0v-.4Z" transform="translate(-71.392 -88.557)" fill="#e7effb"/>
      </g>
    </g>
  </g>
</svg>
