<svg xmlns="http://www.w3.org/2000/svg" xmlns:xlink="http://www.w3.org/1999/xlink" width="74" height="74" viewBox="0 0 74 74">
  <defs>
    <clipPath id="clip-path">
      <rect id="Rectangle_405063" data-name="Rectangle 405063" width="40.66" height="39.407" fill="#225a78"/>
    </clipPath>
  </defs>
  <g id="img32" transform="translate(-206.66 -9153.5)">
    <g id="Group_1101010" data-name="Group 1101010" transform="translate(230.045 9153.5)">
      <path id="Path_875656" data-name="Path 875656" d="M190.763,10.626,141.848,59.541v1.7h1.7l48.915-48.916v-1.7Z" transform="translate(-141.847 -10.626)" fill="#225a78"/>
      <path id="Path_875657" data-name="Path 875657" d="M183.269,10.626,141.848,52.047v3.4l44.82-44.821Z" transform="translate(-141.847 -10.626)" fill="#225a78"/>
      <path id="Path_875658" data-name="Path 875658" d="M175.774,10.626,141.847,44.553v3.4l37.326-37.327Z" transform="translate(-141.847 -10.626)" fill="#225a78"/>
      <path id="Path_875659" data-name="Path 875659" d="M168.28,10.626,141.847,37.059v3.4l29.832-29.833Z" transform="translate(-141.847 -10.626)" fill="#225a78"/>
      <path id="Path_875660" data-name="Path 875660" d="M160.786,10.626l-18.94,18.94v3.4l22.339-22.339Z" transform="translate(-141.847 -10.626)" fill="#225a78"/>
      <path id="Path_875661" data-name="Path 875661" d="M153.292,10.626,141.847,22.071v3.4l14.844-14.845Z" transform="translate(-141.847 -10.626)" fill="#225a78"/>
      <path id="Path_875662" data-name="Path 875662" d="M145.8,10.626l-3.951,3.952v3.4l7.351-7.351Z" transform="translate(-141.847 -10.626)" fill="#225a78"/>
      <path id="Path_875663" data-name="Path 875663" d="M268.109,144.238h3.4l3.951-3.952v-3.4Z" transform="translate(-224.844 -93.623)" fill="#225a78"/>
      <path id="Path_875664" data-name="Path 875664" d="M246.238,129.862h3.4l11.445-11.446v-3.4Z" transform="translate(-210.467 -79.246)" fill="#225a78"/>
      <path id="Path_875665" data-name="Path 875665" d="M224.368,115.486h3.4l18.939-18.94v-3.4Z" transform="translate(-196.091 -64.87)" fill="#225a78"/>
      <path id="Path_875666" data-name="Path 875666" d="M202.5,101.11h3.4L232.33,74.676v-3.4Z" transform="translate(-181.716 -50.494)" fill="#225a78"/>
      <path id="Path_875667" data-name="Path 875667" d="M180.628,86.734h3.4l33.927-33.928v-3.4Z" transform="translate(-167.339 -36.118)" fill="#225a78"/>
      <path id="Path_875668" data-name="Path 875668" d="M158.757,72.357h3.4l41.421-41.422v-3.4Z" transform="translate(-152.963 -21.741)" fill="#225a78"/>
    </g>
    <rect id="Rectangle_403642" data-name="Rectangle 403642" width="37.097" height="37.097" transform="translate(207.66 9189.403)" fill="none" stroke="#225a78" stroke-linecap="round" stroke-linejoin="round" stroke-width="2"/>
    <rect id="Rectangle_403641" data-name="Rectangle 403641" width="60.032" height="59.99" transform="translate(215 9159.352)" fill="#f4f0cd"/>
    <g id="Group_1102773" data-name="Group 1102773" transform="translate(225 9169.352)">
      <g id="Group_1102772" data-name="Group 1102772" clip-path="url(#clip-path)">
        <path id="Path_879163" data-name="Path 879163" d="M86.541,105.47c-.7-.084-2.946.4-2.555-.822l5.928-8.009c.464-.432.83-.482,1.212.072l5.865,7.9c.414,1.585-1.918.39-2.585,1.106v13.923l-.246.246H86.95a2.742,2.742,0,0,1-.41-.41Z" transform="translate(-70.145 -80.478)" fill="#225a78"/>
        <path id="Path_879164" data-name="Path 879164" d="M170.265,137.358c-.7-.081-2.953.394-2.557-.824l6.046-8.133.529-.208c.331.027.527.358.728.572,2.016,2.149,3.7,5.333,5.668,7.6.573,1.761-1.792.516-2.55,1.238v8.682l-.246.246h-7.209a2.742,2.742,0,0,1-.41-.41Z" transform="translate(-140.107 -107.125)" fill="#225a78"/>
        <path id="Path_879165" data-name="Path 879165" d="M94.662,11.338c-6.052,6.05-15.421-3.12-9.368-9.284C91.417-4.183,100.8,5.2,94.662,11.338M90.639,3.354c-.143-.175.236-1.69-1-1.219-.412.25-.247,1.093-.344,1.214a4.835,4.835,0,0,0-1.133.424,1.944,1.944,0,0,0,.921,3.514c1,.137,2.433-.457,2.176,1.14a4.415,4.415,0,0,1-2.275.105c-.436-.221-.215-1.048-.767-1.208-1.205-.349-1.146,1.847.441,2.521a4.448,4.448,0,0,0,.649.082c.093.1-.242,1.239.588,1.312.989.086.642-1.214.735-1.311A4.751,4.751,0,0,0,91.4,9.8,1.971,1.971,0,0,0,90.855,6c-.858-.113-2.488.4-2.12-1,.21-.542,2.381-.363,2.519-.137,0,.648.109,1.24.892,1.1l.295-.208c.483-.619-.118-1.766-.718-2.1a11.175,11.175,0,0,0-1.083-.309" transform="translate(-69.64 0.001)" fill="#225a78"/>
        <path id="Path_879166" data-name="Path 879166" d="M12.956,161.408H10.5v4.832c0,.054-.217.249-.164.41H3.044a2.734,2.734,0,0,1-.41-.41v-4.832c-.688-.08-2.951.4-2.6-.864.907-.928,5.811-8.216,6.472-8.274a.98.98,0,0,1,.711.376l5.9,8.034Z" transform="translate(0 -127.243)" fill="#225a78"/>
      </g>
    </g>
  </g>
</svg>
