<svg xmlns="http://www.w3.org/2000/svg" xmlns:xlink="http://www.w3.org/1999/xlink" width="74" height="74" viewBox="0 0 74 74">
  <defs>
    <clipPath id="clip-path">
      <rect id="Rectangle_405064" data-name="Rectangle 405064" width="47.711" height="43.92" fill="#225a78"/>
    </clipPath>
  </defs>
  <g id="img31" transform="translate(-206.66 -9153.5)">
    <g id="Group_1101010" data-name="Group 1101010" transform="translate(230.045 9153.5)">
      <path id="Path_875656" data-name="Path 875656" d="M190.763,10.626,141.848,59.541v1.7h1.7l48.915-48.916v-1.7Z" transform="translate(-141.847 -10.626)" fill="#225a78"/>
      <path id="Path_875657" data-name="Path 875657" d="M183.269,10.626,141.848,52.047v3.4l44.82-44.821Z" transform="translate(-141.847 -10.626)" fill="#225a78"/>
      <path id="Path_875658" data-name="Path 875658" d="M175.774,10.626,141.847,44.553v3.4l37.326-37.327Z" transform="translate(-141.847 -10.626)" fill="#225a78"/>
      <path id="Path_875659" data-name="Path 875659" d="M168.28,10.626,141.847,37.059v3.4l29.832-29.833Z" transform="translate(-141.847 -10.626)" fill="#225a78"/>
      <path id="Path_875660" data-name="Path 875660" d="M160.786,10.626l-18.94,18.94v3.4l22.339-22.339Z" transform="translate(-141.847 -10.626)" fill="#225a78"/>
      <path id="Path_875661" data-name="Path 875661" d="M153.292,10.626,141.847,22.071v3.4l14.844-14.845Z" transform="translate(-141.847 -10.626)" fill="#225a78"/>
      <path id="Path_875662" data-name="Path 875662" d="M145.8,10.626l-3.951,3.952v3.4l7.351-7.351Z" transform="translate(-141.847 -10.626)" fill="#225a78"/>
      <path id="Path_875663" data-name="Path 875663" d="M268.109,144.238h3.4l3.951-3.952v-3.4Z" transform="translate(-224.844 -93.623)" fill="#225a78"/>
      <path id="Path_875664" data-name="Path 875664" d="M246.238,129.862h3.4l11.445-11.446v-3.4Z" transform="translate(-210.467 -79.246)" fill="#225a78"/>
      <path id="Path_875665" data-name="Path 875665" d="M224.368,115.486h3.4l18.939-18.94v-3.4Z" transform="translate(-196.091 -64.87)" fill="#225a78"/>
      <path id="Path_875666" data-name="Path 875666" d="M202.5,101.11h3.4L232.33,74.676v-3.4Z" transform="translate(-181.716 -50.494)" fill="#225a78"/>
      <path id="Path_875667" data-name="Path 875667" d="M180.628,86.734h3.4l33.927-33.928v-3.4Z" transform="translate(-167.339 -36.118)" fill="#225a78"/>
      <path id="Path_875668" data-name="Path 875668" d="M158.757,72.357h3.4l41.421-41.422v-3.4Z" transform="translate(-152.963 -21.741)" fill="#225a78"/>
    </g>
    <rect id="Rectangle_403642" data-name="Rectangle 403642" width="37.097" height="37.097" transform="translate(207.66 9189.403)" fill="none" stroke="#225a78" stroke-linecap="round" stroke-linejoin="round" stroke-width="2"/>
    <rect id="Rectangle_403641" data-name="Rectangle 403641" width="60.032" height="59.99" transform="translate(214.996 9159.352)" fill="#f4f0cd"/>
    <g id="Group_1102774" data-name="Group 1102774" transform="translate(220.996 9167.352)">
      <g id="Group_1102774-2" data-name="Group 1102774" clip-path="url(#clip-path)">
        <path id="Path_879167" data-name="Path 879167" d="M72.7,2.4l2.99,1.128c.584-.337.912-1.3,1.7-1.083a28.589,28.589,0,0,1,3.022,3.018c.2.785-1.182,1.44-1.113,1.863l1.158,2.828c.577.108,1.708-.234,2.019.406a20.276,20.276,0,0,1,.1,3.791c-.166,1.247-1.16.776-2.123.883.153.677-1.152,2.7-1.13,2.989.037.47,2.567,1.8-.246,3,.183-2.014-1.442-3.451-2.907-4.555a7.31,7.31,0,1,0-12.245,0,6.306,6.306,0,0,0-2.982,4.551c-2.339-1.6-.118-2.275-.1-3l-1.138-2.9-1.768-.211c-.571-.278-.459-3.206-.387-3.882.149-1.395.962-.981,2.107-1.089.032-.814,1.357-2.694,1.1-3.264-.239-.531-1.283-.669-.781-1.749a30.306,30.306,0,0,1,2.756-2.69c.953-.264,1.659,1.1,1.895,1.1.544-.716,2.877-.881,3.011-1.613.077-.423-.146-1.114.086-1.465C69.6-.137,73.341-.684,72.7,2.4" transform="translate(-46.306 0)" fill="#225a78"/>
        <path id="Path_879168" data-name="Path 879168" d="M81.448,185.987c.257-1.55,2.892-3.9,4.4-3.933.256,0,1.426.868,2,1.026a6.669,6.669,0,0,0,3.108,0c.686-.19,1.669-1.056,2.134-1a9.651,9.651,0,0,1,3,1.674,7.718,7.718,0,0,1,1.263,2.228v4.266l-.291.291H81.739l-.291-.291c.151-1.3-.206-3.025,0-4.266" transform="translate(-65.545 -146.624)" fill="#225a78"/>
        <path id="Path_879169" data-name="Path 879169" d="M81.72,95.167V90.416c0-1.386,2.859-3.415,4.123-3.656l.341-.015a5.5,5.5,0,0,0,5.034.951c1.732-.531,1.324-1.454,3.375-.456,1.33.647,3.03,2.387,3.03,3.951v3.684l-.291.291Z" transform="translate(-65.816 -69.863)" fill="#225a78"/>
        <path id="Path_879170" data-name="Path 879170" d="M15.9,138.536H0v-4.363a7.718,7.718,0,0,1,1.263-2.228,9.508,9.508,0,0,1,3.137-1.7c.319-.006.891.569,1.318.737a5.631,5.631,0,0,0,4.737-.12c.449-.18.62-.66,1.186-.587a9.658,9.658,0,0,1,3,1.674,7.718,7.718,0,0,1,1.263,2.228Z" transform="translate(0 -104.894)" fill="#225a78"/>
        <path id="Path_879171" data-name="Path 879171" d="M179.344,138.536h-15.9v-4.363a7.717,7.717,0,0,1,1.263-2.228c.485-.494,2.784-1.864,3.382-1.652.236.083.511.447.8.565a6.064,6.064,0,0,0,4.056.408c.572-.158,1.742-1.031,2-1.026a9.511,9.511,0,0,1,3.137,1.7,7.718,7.718,0,0,1,1.263,2.228Z" transform="translate(-131.633 -104.894)" fill="#225a78"/>
        <path id="Path_879172" data-name="Path 879172" d="M104.991,43.532c4.674-.234,6.067,6.522,1.722,8.137-6.269,2.33-8.073-7.819-1.722-8.137" transform="translate(-81.367 -35.055)" fill="#225a78"/>
        <path id="Path_879173" data-name="Path 879173" d="M23.282,87.3c4.731-.494,6.519,6.3,2.056,8.076-6.056,2.413-8.277-7.427-2.056-8.076" transform="translate(-15.761 -70.291)" fill="#225a78"/>
        <path id="Path_879174" data-name="Path 879174" d="M186.722,87.3c4.731-.494,6.518,6.3,2.056,8.076-6.056,2.413-8.277-7.427-2.056-8.076" transform="translate(-147.393 -70.291)" fill="#225a78"/>
        <path id="Path_879175" data-name="Path 879175" d="M105,139.115c4.731-.494,6.519,6.3,2.056,8.076C101,149.6,98.781,139.764,105,139.115" transform="translate(-81.577 -112.021)" fill="#225a78"/>
      </g>
    </g>
  </g>
</svg>
