<svg xmlns="http://www.w3.org/2000/svg" xmlns:xlink="http://www.w3.org/1999/xlink" width="190" height="139.998" viewBox="0 0 190 139.998">
  <defs>
    <clipPath id="clip-path">
      <rect id="Rectangle_405169" data-name="Rectangle 405169" width="80.613" height="77.443" fill="none"/>
    </clipPath>
  </defs>
  <g id="img5" transform="translate(-285 -3401)">
    <g id="Group_1102420" data-name="Group 1102420" transform="translate(-417.14 -1067.839)">
      <g id="Group_1101015" data-name="Group 1101015" transform="translate(728.14 4469.839)">
        <g id="Group_1101010" data-name="Group 1101010" transform="translate(49.271)">
          <path id="Path_875656" data-name="Path 875656" d="M227.288,10.626l-85.44,85.442v2.969h2.968l85.441-85.442V10.626Z" transform="translate(-141.847 -10.626)" fill="#225a78"/>
          <path id="Path_875657" data-name="Path 875657" d="M214.2,10.626,141.848,82.978v5.937l78.288-78.289Z" transform="translate(-141.847 -10.626)" fill="#225a78"/>
          <path id="Path_875658" data-name="Path 875658" d="M201.108,10.626,141.847,69.888v5.937l65.2-65.2Z" transform="translate(-141.847 -10.626)" fill="#225a78"/>
          <path id="Path_875659" data-name="Path 875659" d="M188.018,10.626,141.847,56.8v5.937l52.109-52.109Z" transform="translate(-141.847 -10.626)" fill="#225a78"/>
          <path id="Path_875660" data-name="Path 875660" d="M174.929,10.626,141.847,43.708v5.937l39.019-39.019Z" transform="translate(-141.847 -10.626)" fill="#225a78"/>
          <path id="Path_875661" data-name="Path 875661" d="M161.839,10.626,141.847,30.618v5.937l25.929-25.93Z" transform="translate(-141.847 -10.626)" fill="#225a78"/>
          <path id="Path_875662" data-name="Path 875662" d="M148.749,10.626l-6.9,6.9v5.937l12.839-12.84Z" transform="translate(-141.847 -10.626)" fill="#225a78"/>
          <path id="Path_875663" data-name="Path 875663" d="M268.109,149.727h5.937l6.9-6.9v-5.937Z" transform="translate(-192.538 -61.316)" fill="#225a78"/>
          <path id="Path_875664" data-name="Path 875664" d="M246.238,140.947h5.937l19.992-19.993v-5.937Z" transform="translate(-183.756 -52.536)" fill="#225a78"/>
          <path id="Path_875665" data-name="Path 875665" d="M224.368,132.166h5.937l33.081-33.083V93.147Z" transform="translate(-174.977 -43.755)" fill="#225a78"/>
          <path id="Path_875666" data-name="Path 875666" d="M202.5,123.386h5.937l46.171-46.172V71.277Z" transform="translate(-166.197 -34.975)" fill="#225a78"/>
          <path id="Path_875667" data-name="Path 875667" d="M180.628,114.606h5.937l59.261-59.262V49.407Z" transform="translate(-157.416 -26.195)" fill="#225a78"/>
          <path id="Path_875668" data-name="Path 875668" d="M158.757,105.825h5.937l72.351-72.352V27.536Z" transform="translate(-148.636 -17.415)" fill="#225a78"/>
        </g>
        <rect id="Rectangle_403642" data-name="Rectangle 403642" width="65" height="65" transform="translate(0 72.998)" fill="none" stroke="#225a78" stroke-linecap="round" stroke-linejoin="round" stroke-width="2"/>
        <rect id="Rectangle_403641" data-name="Rectangle 403641" width="115.512" height="115.439" transform="translate(12.469 9.738)" fill="#b0d5e9"/>
      </g>
      <g id="Group_1102937" data-name="Group 1102937" transform="translate(756.956 4499.936)">
        <g id="Group_1102937-2" data-name="Group 1102937" transform="translate(0 0)" clip-path="url(#clip-path)">
          <path id="Path_879665" data-name="Path 879665" d="M17.51,11.142V11.3c0,.027,0,.054,0,.081a2.9,2.9,0,0,0-.081,4.337c.246.216.831.393.927.531.075.11.358,1.766.5,2.18a10.261,10.261,0,0,0,2.669,4.14c.281.275,1.447.984,1.486,1.067.087.176-.057.464.1.8-.049.59.135,3.989-.134,4.122l-13.89.173a6.513,6.513,0,0,0-5.744,5L.242,70.672c3.265.092,6.542.04,9.811.048,2.836.006,5.676,0,8.512,0h.081V70.8c-6.214-.006-12.43,0-18.645,0L3.025,34.146c.372-2.567,3.254-5.658,5.933-5.658H22.941l-.04-4.62a11.368,11.368,0,0,1-3.145-3.1A14.089,14.089,0,0,1,18.569,18.3c-.089-.293-.262-1.968-.329-2.048a1.514,1.514,0,0,1-.525-.087,3.148,3.148,0,0,1-1.03-4.183c.245-.474.623-.447.663-1,.078.006.151.159.162.162" transform="translate(0 6.475)" fill="#f7eeea"/>
          <path id="Path_879666" data-name="Path 879666" d="M30.129,48.455c.016.017.224-.051.162.162-.033,0-.067.049-.081.081-6.159-.017-12.322.006-18.483,0v-.081c5.962,0,12.2.232,18.122,0,.156-.006.326.083.28-.162" transform="translate(6.916 28.577)" fill="#beaf8d"/>
          <path id="Path_879667" data-name="Path 879667" d="M51.936,27.641l0,15.364a9.588,9.588,0,0,0-.728,4.693c.059.482.725,1.922.725,2.032v3.4l-.122.122H49.747l-.156-4.587c-.2-.307-4.277-.3-4.47,0-.444.7.188,8.5-.079,9.9-.068.151.34.44.369.44h1.744v2.513H27.5c-.383,0-.636-.533-.933-.649a4.7,4.7,0,0,1-.165-.928c-.766-10.163.585-21.279,0-31.54.041-.886.3-1.517,1.261-1.657,2.157-.318,6.241-.057,8.633-.083,4.021-.041,10.563-.5,14.308,0a1.413,1.413,0,0,1,1.337.973M28.568,29.2a.454.454,0,0,0-.291.2,21.57,21.57,0,0,0-.029,5.682.452.452,0,0,0,.32.248c7.16-.033,14.391.156,21.511-.1a.8.8,0,0,0,.2-.367,40.357,40.357,0,0,0,.035-4.99.761.761,0,0,0-.383-.672Zm4.862,12.117c.062-.186.083-3.636.029-3.912a.637.637,0,0,0-.285-.445c-.385-.191-4.219-.161-4.378.169l.07,4.383a29.035,29.035,0,0,0,4.149.079.893.893,0,0,0,.415-.273m1.056-4.256-.1,4.362,4.227.006.04-4.272Zm5.428,0-.1,4.364,4.226.006.04-4.272Zm5.431,0-.1,4.364,4.224.006V37.117ZM33.189,47.235a11.605,11.605,0,0,0,.019-4.313c-.246-.223-4.121-.208-4.3.073a16.042,16.042,0,0,0,.079,4.23Zm1.377-4.418a.479.479,0,0,0-.305.424,24.459,24.459,0,0,0,.118,3.943,13.8,13.8,0,0,0,4.191.041,16.558,16.558,0,0,0,.075-4.307,21.9,21.9,0,0,0-4.078-.1m9.588,4.359V43c0-.32-4.2-.254-4.356-.1a24.369,24.369,0,0,0-.108,3.916c.057.334.073.448.448.525a19.046,19.046,0,0,0,4.016-.165m1.356-4.359a.447.447,0,0,0-.388.424,24.856,24.856,0,0,0,.118,3.943,15.253,15.253,0,0,0,4.148.078c.426-.224.377-4.1.114-4.34a21.209,21.209,0,0,0-3.992-.1M28.833,52.931a16.993,16.993,0,0,0,4.345.089,11.077,11.077,0,0,0,.035-4.265c-.293-.332-4.38-.326-4.38.083Zm5.814-4.359c-.258.065-.332.169-.386.424a26.539,26.539,0,0,0,.083,3.978,16.364,16.364,0,0,0,4.3,0l0-4.224c-.161-.254-3.58-.285-4-.178M39.8,52.993l4.245.027.038-4.27c-.178-.28-3.954-.3-4.219-.072a14.884,14.884,0,0,0-.064,4.315M29.135,54.408a.476.476,0,0,0-.305.424,28.54,28.54,0,0,0,.076,3.9c.2.294,3.968.3,4.265.035a10.183,10.183,0,0,0,.006-4.305,27.951,27.951,0,0,0-4.043-.056m9.588,4.359V54.592c0-.113-.262-.183-.361-.207-.226-.052-3.405-.051-3.656,0-.374.078-.39.191-.447.526a23.124,23.124,0,0,0,.122,3.86,12.958,12.958,0,0,0,4.342,0m5.431,0V54.592c0-.323-4.2-.256-4.358-.1a24.451,24.451,0,0,0-.1,3.835c.056.356.049.507.456.6a19.044,19.044,0,0,0,4.006-.156" transform="translate(15.426 15.591)" fill="#6775e8"/>
          <path id="Path_879668" data-name="Path 879668" d="M33.66,22.146c3.593.3,5.873,3.5,5.917,6.971a64.414,64.414,0,0,0-8.707,0,1.568,1.568,0,0,0-1.162,1.11l-.025,32.732.329.684a.531.531,0,0,0,.162.243c-1.72-.076-3.58.355-5.269-.081-.048-.065-.076-.135-.162-.162a15.88,15.88,0,0,0-.892-1.946,1.114,1.114,0,0,0-.081-.568c.075-.35-.113-.644-.162-.971-.774-5.208-.973-11.063-1.458-16.375l5.766-11.782c1.04-2.928-2.817-2.364-2.925-3.021-.043-.264,2.475-1.806,2.591-2.742.14-1.13-1.575-2.9-1.97-3.992l-5.165-.1Z" transform="translate(12.059 13.06)" fill="#fcdd8b"/>
          <path id="Path_879669" data-name="Path 879669" d="M54.614,44.837h-.081a11.1,11.1,0,0,0,.736-1.9c.06-.515-.025-3.558-.331-3.855-.092-.091-.9.353-.971.324-.126-.056-.975-2.207-1.7-2.108-.062-.054-.122-.13-.162-.162a5.652,5.652,0,0,0-6.728-.081,5.284,5.284,0,0,0-2.354,4.415c-.006.393.291,2,.251,2.1-.076.188-.981.141-.733.7a7.034,7.034,0,0,1,.243-6.079c3.952-7.356,16.232-1.639,11.834,6.647" transform="translate(24.747 20.523)" fill="#fce196"/>
          <path id="Path_879670" data-name="Path 879670" d="M54.369,41.113a6.249,6.249,0,0,1-4.782,3.405c-.033.083.186.161.2.161h4.256l.081,2.757H55.3a.767.767,0,0,1,.288.134c-.107.428.165,2.668-.056,2.773-.145.068-.714-.033-.758.011-.1.1.143,2.533-.081,2.757.013-.159-.017-.327,0-.486,0-.027,0-.054,0-.081.056-.72-.041-1.466,0-2.189v-.081c.151-.014.782.029.811,0,.079-.076-.073-.4-.081-.485-.04-.4,0-2.113-.081-2.189-.049-.049-1.11-.056-1.378-.081V44.76H52.18v2.108H49.669l-.081-2.108a4.523,4.523,0,0,0-1.739,0c-1.687,0-3.854-.169-5.475,0v-.081c.037,0,.119-.079.162-.081a32.66,32.66,0,0,0,4.782,0,6.683,6.683,0,0,1-2.757-1.215h.081a6.8,6.8,0,0,0,9.647-2.27Z" transform="translate(24.991 24.247)" fill="#fce39c"/>
          <path id="Path_879671" data-name="Path 879671" d="M51.947,42.675a7.039,7.039,0,0,0-.243,6.079c.052.116.1.213.162.324a2.651,2.651,0,0,0,.081.405c.081,1.073-.059,2.238,0,3.323-.041,0-.124.081-.162.081-.755,0-1.513,0-2.27,0-.013-.032-.048-.078-.081-.081l-.113-4.547a27.316,27.316,0,0,0-3.986-.078c-.2.041-.242.03-.323.243l0,9.739c.164.471,2.327.134,2.8.235-.111.2-.515-.035-.649.162-.078.078.038,1.852,0,2.189-.01.078-.156.251-.081.405H47c-6.645-.04-13.3,0-19.942,0a.649.649,0,0,0-.405-.243.519.519,0,0,1-.162-.243c-.029-.068-.059-.17-.081-.243.3.116.55.649.933.649H47V58.562H45.259c-.029,0-.437-.289-.369-.44.267-1.4-.364-9.2.079-9.9.194-.305,4.275-.308,4.47,0l.156,4.585h2.068l.121-.121V49.281a21.37,21.37,0,0,1-.723-2.032,9.59,9.59,0,0,1,.727-4.693l0-15.362a1.366,1.366,0,0,1,.165.685Z" transform="translate(15.577 16.038)" fill="#9092ce"/>
          <path id="Path_879672" data-name="Path 879672" d="M36.21,26.585c.016,0,.052.065.081.081-2.389.025-6.475-.235-8.633.081-.955.141-1.219.771-1.261,1.658.585,10.26-.766,21.376,0,31.538a4.676,4.676,0,0,0,.165.928c.022.073.052.175.081.243l-.331-.682L26.341,27.7A1.562,1.562,0,0,1,27.5,26.591a64.177,64.177,0,0,1,8.709-.006" transform="translate(15.426 15.593)" fill="#d8c5a1"/>
          <path id="Path_879673" data-name="Path 879673" d="M56.468,48.719l-16.663.086-.442-.248h.081c.037,0,.289.238.44.169Z" transform="translate(23.216 28.637)" fill="#fbdc8c"/>
          <path id="Path_879674" data-name="Path 879674" d="M20.243.12a2.657,2.657,0,0,1,2.108,2.472V3.767a2.832,2.832,0,0,1,1.459-.243l-1.625.451C22.3,2.365,22.054.653,20.243.2Z" transform="translate(11.939 0.07)" fill="#dbdbdf"/>
          <path id="Path_879675" data-name="Path 879675" d="M22.528.191V.272c-1.289-.321-4.695.027-6.16.162a17.62,17.62,0,0,1,6.16-.243" transform="translate(9.654 -0.001)" fill="#6b6b80"/>
          <path id="Path_879676" data-name="Path 879676" d="M28.521,48.434a.649.649,0,0,1,.405.243c-1.671,0-3.825-.162-5.431,0,.06-.213-.148-.145-.162-.162-.033-.035-.048-.116-.081-.162,1.688.436,3.548,0,5.269.081" transform="translate(13.714 28.517)" fill="#f3d889"/>
          <path id="Path_879677" data-name="Path 879677" d="M24.083,5.666c.8-1.318.924-2.779-.73-3.4,1.984.262,1.55,2.145.73,3.4" transform="translate(13.773 1.333)" fill="#8e8d9e"/>
          <path id="Path_879678" data-name="Path 879678" d="M5.711,22.185l5.544-.07c-1.906-.043-3.854-.068-5.544.07" transform="translate(3.368 13.022)" fill="#fcc6b3"/>
          <path id="Path_879679" data-name="Path 879679" d="M40.294,30.959l-13.178-.237.086-4.707a9.757,9.757,0,0,0,3.984-4.609c.227-.577.622-2.812.717-2.932a7.823,7.823,0,0,0,1.056-.563,2.9,2.9,0,0,0-.366-4.542c-.016.075-.062.278-.081.324a5.862,5.862,0,0,1-.568,1.014,4.82,4.82,0,0,1-1.2.027,17.383,17.383,0,0,1-.273-2.035c-.094-.351-.405-.738-.55-1.194-.436-1.386-1.065-2.55-.243-4.054a2.432,2.432,0,0,0,0-.243,25.061,25.061,0,0,0-2.431.73c-.068.277-.922.417-1.2.467a16.735,16.735,0,0,1-6.424.019A20.621,20.621,0,0,1,17.5,8c-.329-.076-1.933-.715-2.038-.693-.426.091-.763,1.711-.782,2.1-.037.784.188,1.383.156,2.141A13.021,13.021,0,0,1,14.11,14.5c-.216.79-.235,1.415-1.3.973-.191-.079-.466-.9-.644.045-.145.774.374.935.388,1.23.037.741-1.073-.216-.781-1.459.068-.291.5-.631.528-.757.043-.215-.2-.618-.221-.924A2.9,2.9,0,0,0,12,17.95c.246.216.831.393.927.533.075.108.356,1.765.5,2.178A10.279,10.279,0,0,0,16.094,24.8c.283.273,1.447.984,1.488,1.065.086.178-.057.464.1.8.011-.143-.1-.583.122-.569a9.762,9.762,0,0,0,9.2.083,23.583,23.583,0,0,1,0,2.553c-.111.378-2.348.169-2.795.119-.949-.1-6.2-1.467-6.528-2.186-.049.59.135,3.989-.134,4.122l-8.346.1c1.221.027,2.424.064,3.536.068,1.7.01,3.405-.006,5.106,0l-.405,6.809c.068-.808.175-1.618.243-2.431.01-.108-.01-.218,0-.324.03-.364.118-4.135.324-4.135h8.714l.205.14.079.914c0-.18-.067-.892.081-.973ZM32.561,15.106c-.014-.04-.539-.442-.078-.506.525-.072.733,1.121.679,1.488-.086.6-.924,1.3-.871.644.03-.388.774-.28.27-1.626M18.551,13.872c1.308-.151,1.391,2.539.14,2.566-1.157.024-1.28-2.436-.14-2.566m1.087,8.44c-.313-.483-1.021-1.922-.218-2.051.512-.083,6.1-.17,6.27.092a3.32,3.32,0,0,1-6.052,1.959m5.66-6.834a1.042,1.042,0,0,1,.048-1.046c.887-1.591,2.332.7,1.25,1.695-.657.6-1.106.011-1.3-.649" transform="translate(5.425 4.247)" fill="#fcc6b3"/>
          <path id="Path_879680" data-name="Path 879680" d="M8.99,22.185c2.773-.226,6.235-.016,9.079,0-.409.97-2.122,2.919-2.084,3.911.043,1.181,2.828,2.684,2.571,3.059-.294.424-3.374.246-3.156,2.223,2,4.156,3.858,8.418,6.073,12.45-.55,5.23-.623,11.418-1.458,16.456a11.347,11.347,0,0,1-.649,2.269,6.817,6.817,0,0,1-.568,1.135c-.056.083-.278.245-.324.324l-8.512.162c-3.269-.008-6.545.045-9.811-.048L3.246,27.181a6.512,6.512,0,0,1,5.744-5m.162,41.907c.078-.011.164.01.243,0l1.191-25.4c-.021-.452-1.3-.386-1.456-.113a6.448,6.448,0,0,0-.143.992c-.615,7.038-.819,14.942-1.054,22.047a15.179,15.179,0,0,1-.079,2.434l.164.041c.356-.035.793.049,1.135,0" transform="translate(0.09 13.022)" fill="#fcdd8b"/>
          <path id="Path_879681" data-name="Path 879681" d="M12,48.251l-.04.405H30.039a3.04,3.04,0,0,1-.121-.405c.086.027.114.1.162.162.033.046.048.127.081.162.045.245-.124.156-.28.162-5.927.232-12.162,0-18.122,0h-.081c.011-.048-.016-.135,0-.162.046-.079.269-.242.324-.324" transform="translate(6.885 28.457)" fill="#6e655f"/>
          <path id="Path_879682" data-name="Path 879682" d="M14.835,48.455c-.016.027.011.114,0,.162-2.836,0-5.676.006-8.512,0Z" transform="translate(3.729 28.577)" fill="#f3d889"/>
          <path id="Path_879683" data-name="Path 879683" d="M11.876,13.13c-.189-.079-.466-.9-.642.045-.146.774.372.935.386,1.23.037.741-1.072-.216-.781-1.459.068-.291.5-.631.528-.757.043-.215-.2-.618-.221-.924,0-.025,0-.054,0-.081Z" transform="translate(6.364 6.595)" fill="#f1b8a6"/>
          <path id="Path_879684" data-name="Path 879684" d="M27.856,28.174l21.365,0a.753.753,0,0,1,.382.671,40.05,40.05,0,0,1-.033,4.99.8.8,0,0,1-.2.367c-7.121.251-14.351.062-21.513.1a.453.453,0,0,1-.318-.248,21.638,21.638,0,0,1,.027-5.682.458.458,0,0,1,.291-.2m20.856.874H28.285V33.3l.121.121H48.712Z" transform="translate(16.139 16.616)" fill="#4b4ee0"/>
          <path id="Path_879685" data-name="Path 879685" d="M38.485,36.758a21.226,21.226,0,0,1,3.994.1c.261.237.312,4.116-.114,4.34a15.265,15.265,0,0,1-4.149-.078,24.863,24.863,0,0,1-.116-3.943c.054-.256.129-.359.386-.424" transform="translate(22.451 21.65)" fill="#fcdd8c"/>
          <path id="Path_879686" data-name="Path 879686" d="M39.143,48.407a19.044,19.044,0,0,1-4.006.156c-.407-.091-.4-.242-.456-.6a24.45,24.45,0,0,1,.1-3.835c.154-.154,4.358-.221,4.358.1Z" transform="translate(20.437 25.951)" fill="#4b39a7"/>
          <path id="Path_879687" data-name="Path 879687" d="M32.45,37.456a.881.881,0,0,1-.415.273,29.037,29.037,0,0,1-4.149-.079l-.07-4.383c.161-.327,3.994-.359,4.378-.169a.637.637,0,0,1,.285.447c.054.275.032,3.725-.029,3.911m-.238-4.172a14.9,14.9,0,0,0-4.245.054,13.7,13.7,0,0,0,.043,4.191l4.183.033a17.429,17.429,0,0,0,.019-4.278" transform="translate(16.405 19.451)" fill="#838fea"/>
          <path id="Path_879688" data-name="Path 879688" d="M20.482,22.146l5.165.1c.394,1.091,2.11,2.862,1.97,3.992-.114.936-2.634,2.478-2.591,2.742.108.657,3.967.092,2.925,3.021L22.185,43.788c-.242-2.645-.424-5.3-.73-7.943-.251-3.108-.6-6.211-.811-9.322-.073-1.062-.256-2.374-.243-3.4,0-.18-.065-.893.081-.973" transform="translate(12.024 13.06)" fill="#f0ce77"/>
          <path id="Path_879689" data-name="Path 879689" d="M12.463,48.352l.932-2.2,15.119.008a3.8,3.8,0,0,0,.405,1.377,16.009,16.009,0,0,1,.892,1.946,3.04,3.04,0,0,0,.121.405H11.856l.04-.405a6.757,6.757,0,0,0,.568-1.135" transform="translate(6.992 27.222)" fill="#34334c"/>
          <path id="Path_879690" data-name="Path 879690" d="M21.789,38.707c.486,5.31.685,11.165,1.459,16.373-.052-.014-.119-.076-.162-.081-.728-8.073-1.374-16.154-2.027-24.236.305,2.639.488,5.3.73,7.944" transform="translate(12.42 18.143)" fill="#f3e0a3"/>
          <path id="Path_879691" data-name="Path 879691" d="M28.613,47.081a1.129,1.129,0,0,1,.081.568,3.815,3.815,0,0,1-.407-1.378L13.17,46.264l-.932,2.2a11.228,11.228,0,0,0,.649-2.27.657.657,0,0,1,.243-.081c2.933-.264,6.76-.049,9.809-.081l5.3.094c.149.064.327.774.377.96" transform="translate(7.218 27.114)" fill="#5f5759"/>
          <path id="Path_879692" data-name="Path 879692" d="M24.317,46.035c.045,0,.111.065.162.081a2.659,2.659,0,0,1,.164.973c-.049-.186-.227-.9-.378-.962l-5.3-.092c1.623-.017,3.782-.154,5.348,0" transform="translate(11.188 27.107)" fill="#beaf8d"/>
          <path id="Path_879693" data-name="Path 879693" d="M15.6,25.739l2.54-2.261.865.781a5.474,5.474,0,0,0-.162,1.8c-.073.989-.237,2-.324,3a65.518,65.518,0,0,0-.73,6.809c-.154,1.649-.332,3.3-.486,4.944-.423,2.275-.52,4.591-.73,6.89a47.079,47.079,0,0,0-.526,5.346,43.472,43.472,0,0,0,4.178,4.1c.277.094.762-.342.806-.61.134-.107.221-.231.324-.324.224-.2.432-.439.649-.649.157.122.2.059.327-.035.785-.568,1.653-1.779,2.434-2.436-.448-6.167-1.32-12.3-1.951-18.441-.1-.944-.234-1.892-.324-2.838l-.6-7.537.642-.73,2.636,2.188c.213,3.111.56,6.214.811,9.321.653,8.082,1.3,16.163,2.025,24.236-1.564-.154-3.723-.016-5.35,0-3.049.032-6.876-.183-9.809.081-.183-.205-.1-.6-.078-.849C13.326,52.6,13.8,46.665,14.3,40.733q.529-6.274,1.054-12.562c.068-.809.175-1.618.243-2.432" transform="translate(7.505 13.846)" fill="#d7e8f8"/>
          <path id="Path_879694" data-name="Path 879694" d="M12.416,22.147c1.7.01,3.407-.006,5.108,0l-.407,6.809q-.532,6.279-1.052,12.564a8.581,8.581,0,0,0-.243,2.269c-2.216-4.033-4.073-8.294-6.075-12.45-.218-1.976,2.863-1.8,3.156-2.223.259-.375-2.528-1.878-2.571-3.059-.037-.992,1.676-2.941,2.084-3.911" transform="translate(5.742 13.06)" fill="#f0ce77"/>
          <path id="Path_879695" data-name="Path 879695" d="M14.532,26.229c.03-.364.118-4.133.324-4.133H23.57l.205.138.079.916c-.014,1.03.17,2.342.243,3.4l-2.636-2.189-.642.731.6,7.537-.8-7.421.709-1.033-2.262-1.92-4.133,0Z" transform="translate(8.571 13.031)" fill="#c5d9f4"/>
          <path id="Path_879696" data-name="Path 879696" d="M23.861,19.169a23.584,23.584,0,0,1,0,2.553c-.11.378-2.347.169-2.795.119-.948-.1-6.2-1.467-6.528-2.186.013-.143-.1-.583.122-.569a9.766,9.766,0,0,0,9.2.083" transform="translate(8.564 11.256)" fill="#efb5a3"/>
          <path id="Path_879697" data-name="Path 879697" d="M19.073,22.2l-1.857,1.836c1.162.981.714,1.491.641,2.784h-.081a5.474,5.474,0,0,1,.162-1.8l-.865-.781-2.539,2.261c.008-.107-.01-.218,0-.324l.4-3.971Z" transform="translate(8.57 13.091)" fill="#c5d9f4"/>
          <path id="Path_879698" data-name="Path 879698" d="M51.674,36.7c-.655-.215.331.892.461,1.2a5.627,5.627,0,0,1-1.9,7.054c-1.695,1.127-3.1,1.046-5.051.825a5.725,5.725,0,0,0,7.62-1.377c-5.394,6.76-14.337-2.1-7.863-7.782a5.649,5.649,0,0,1,6.728.081m-.245.971a4.771,4.771,0,0,0-8.1,3.93c.024.315.375,1.944.688,1.987s-.1-.672-.124-.849c-.552-4.532,3.607-7.257,7.539-5.068m-1.863,2.189c.388-.372-.782-.521-.849-.571-.153-.116-.137-.482-.245-.48s-.1.356-.2.444c-.3.254-.831.211-1,.782-.388,1.3,1.372.793,1.084,2.059-.153.668-1.359-.2-1.127.389.191.486,1.343.114,1.124.862.429-.663,1.843-.747,1.286-1.893-.234-.48-.925-.283-1.049-.816-.315-1.382.811-.615.979-.776" transform="translate(25.175 20.963)" fill="#f0ce77"/>
          <path id="Path_879699" data-name="Path 879699" d="M45.175,36.219C38.7,41.9,47.645,50.762,53.038,44a5.505,5.505,0,0,0-.973-7.539c.73-.1,1.577,2.052,1.7,2.106.068.03.879-.413.971-.324.305.3.389,3.34.331,3.855a11.249,11.249,0,0,1-.736,1.9,6.8,6.8,0,0,1-9.647,2.269A12.808,12.808,0,0,1,42.5,43.758c-.059-.111-.108-.21-.162-.324-.246-.56.657-.514.734-.7.04-.1-.258-1.706-.251-2.1a5.281,5.281,0,0,1,2.354-4.413" transform="translate(24.944 21.36)" fill="#fcdd8c"/>
          <path id="Path_879700" data-name="Path 879700" d="M50.744,36.28c.04.03.1.108.162.162a5.505,5.505,0,0,1,.973,7.539,5.725,5.725,0,0,1-7.62,1.377c1.947.221,3.356.3,5.051-.825a5.622,5.622,0,0,0,1.9-7.052c-.132-.308-1.118-1.415-.463-1.2" transform="translate(26.103 21.38)" fill="#e3c270"/>
          <path id="Path_879701" data-name="Path 879701" d="M53.574,45.192c.269.025,1.329.032,1.378.081.076.078.041,1.793.079,2.189-3.97-.016-7.946.022-11.915,0l-.081-2.27c3.278-.019,7.359-.3,10.539,0m-2.757,2.189h2.391c.281,0,.321-2.189,0-2.189H50.857l-.121.122V47.18Z" transform="translate(25.381 26.571)" fill="#fcdd8b"/>
          <path id="Path_879702" data-name="Path 879702" d="M54.634,46.875v.081a1.385,1.385,0,0,0,0,2.189c0,.027,0,.054,0,.081H52.607c.03-.078.1-.067.162-.081.863-.2.819-2.025,0-2.189-.68-.137-1.782.1-2.513,0l0,2.27h-7.7l-.081-2.27c3.809-.022,8.45.27,12.159-.081" transform="translate(25.051 27.645)" fill="#fcdd8b"/>
          <path id="Path_879703" data-name="Path 879703" d="M49.767,43.445v2.189h-7.7V43.445c.161-.013.327.016.486,0,1.622-.164,3.79,0,5.478,0a4.476,4.476,0,0,1,1.736,0" transform="translate(24.81 25.564)" fill="#fcdd8b"/>
          <path id="Path_879704" data-name="Path 879704" d="M40.638,44.814c1.079,0,2.164,0,3.243,0H55.959v.568c-3.178-.3-7.259-.019-10.539,0-1.1.006-2.218-.022-3.323,0-.229,0-1.486-.056-1.54,0-.081.079.011,1.938,0,2.27l-.116-2.275L39.016,45.3c-.087-.184.079-.479.081-.568a5.244,5.244,0,0,0,1.54.081" transform="translate(22.996 26.382)" fill="#f1cf77"/>
          <path id="Path_879705" data-name="Path 879705" d="M41.547,46.571c1.13.032,2.273-.006,3.405,0,3.97.022,7.944-.016,11.915,0,.008.084.162.41.081.486-.029.029-.66-.014-.811,0-3.707.35-8.35.059-12.159.081-1.052.006-2.11-.019-3.162,0-.294,0-.6-.019-.892,0a1.637,1.637,0,0,0,.081-.568c.512.011,1.029-.014,1.54,0" transform="translate(23.547 27.463)" fill="#f1cf77"/>
          <path id="Path_879706" data-name="Path 879706" d="M41.044,48.383c1.106,0,2.218,0,3.324,0q3.846,0,7.7,0h4.377c-.017.159.013.327,0,.486l-16.583,0c-.151.072-.4-.167-.44-.167-.073-.154.073-.327.081-.405a5.48,5.48,0,0,0,1.541.081" transform="translate(23.239 28.487)" fill="#f1cf77"/>
          <path id="Path_879707" data-name="Path 879707" d="M42.058,43.363c.755,0,1.513,0,2.27,0v.081c-.161.016-.327-.013-.488,0l0,2.189H40.6l.081-2.189H39.058a20.1,20.1,0,0,1,3-.081" transform="translate(23.036 25.565)" fill="#eed084"/>
          <path id="Path_879708" data-name="Path 879708" d="M48.674,43.408H50.3V45.6h-1.7Z" transform="translate(28.659 25.6)" fill="#fcdd8b"/>
          <path id="Path_879709" data-name="Path 879709" d="M50.322,49.114a1.385,1.385,0,0,1,0-2.189c-.041.723.056,1.469,0,2.189" transform="translate(29.362 27.675)" fill="#fcdd8c"/>
          <path id="Path_879710" data-name="Path 879710" d="M46.911,43.408l.081,2.108h2.513V43.408h.162L49.586,45.6H46.911Z" transform="translate(27.667 25.6)" fill="#fcde8d"/>
          <path id="Path_879711" data-name="Path 879711" d="M42.423,40.96a12.863,12.863,0,0,0,2.189,2.513h-.081A7.062,7.062,0,0,1,42.5,41.365a2.652,2.652,0,0,1-.081-.405" transform="translate(25.02 24.157)" fill="#fce196"/>
          <path id="Path_879712" data-name="Path 879712" d="M42.535,45.036a21.1,21.1,0,0,0-2.8,0c-.7.157-.254,2.229-.326,2.844l1.5.157c-.1.426.126,2.366,0,2.595-.474-.1-2.637.235-2.8-.237V40.654c.083-.213.122-.2.324-.243a27.325,27.325,0,0,1,3.986.076Z" transform="translate(22.478 23.811)" fill="#fe7581"/>
          <path id="Path_879713" data-name="Path 879713" d="M40.206,46.93c.293-.019.6,0,.892,0l-.081,2.27a5.54,5.54,0,0,1-1.541-.081c.038-.337-.078-2.113,0-2.189.025-.025.6.008.73,0" transform="translate(23.266 27.672)" fill="#fbdc8c"/>
          <path id="Path_879714" data-name="Path 879714" d="M42.081,43.324c.033,0,.067.049.081.081a20.1,20.1,0,0,0-3,.081c-.01.7.014,1.407,0,2.108,0,.087-.169.383-.081.568l1.424.075.116,2.275a1.632,1.632,0,0,1-.081.568c-.132.008-.7-.025-.73,0,.135-.2.539.038.649-.162.126-.229-.1-2.168,0-2.595l-1.5-.157c.072-.615-.37-2.687.326-2.844a21.1,21.1,0,0,1,2.8,0" transform="translate(22.932 25.522)" fill="#fd9282"/>
          <path id="Path_879715" data-name="Path 879715" d="M20.622,13.594c-.657.6-1.106.011-1.3-.649.3-2.587,2.079-1.289,1.3.649" transform="translate(11.398 6.78)" fill="#393754"/>
          <path id="Path_879716" data-name="Path 879716" d="M24,12.362c-.014-.038-.537-.44-.076-.5.525-.073.733,1.121.679,1.486-.087.6-.925,1.3-.873.645.032-.388.774-.281.27-1.628" transform="translate(13.991 6.991)" fill="#f0b6a4"/>
          <path id="Path_879717" data-name="Path 879717" d="M6.234,57.978c-.342.049-.779-.035-1.135,0L6.315,32.445l1.194.118Z" transform="translate(3.007 19.135)" fill="#f0ce77"/>
          <path id="Path_879718" data-name="Path 879718" d="M5.16,58.051,5,58.01a15.178,15.178,0,0,0,.079-2.434c.235-7.1.439-15.009,1.054-22.047a6.259,6.259,0,0,1,.143-.992c.154-.273,1.436-.339,1.456.113l-1.191,25.4c-.079.01-.165-.011-.243,0L7.568,32.636l-1.192-.118Z" transform="translate(2.947 19.062)" fill="#f6d580"/>
          <path id="Path_879719" data-name="Path 879719" d="M12.889,52.975a.657.657,0,0,0-.243.081c.836-5.038.908-11.225,1.459-16.454a8.52,8.52,0,0,1,.243-2.27c-.5,5.931-.975,11.869-1.537,17.794-.025.251-.1.642.078.849" transform="translate(7.458 20.248)" fill="#f3e1a6"/>
          <path id="Path_879720" data-name="Path 879720" d="M18.719,24.56,20.5,41.1c.056.62.1,1.245.162,1.865.293,3.151.548,6.3.9,9.448a20.123,20.123,0,0,1-1.625,1.819c-.286.3-.593.6-.892.892-.216.21-.424.445-.649.649-.347,0-.235.054-.149-.189.358-1.01,2.267-3.2,2.345-4.063L17.741,25.083c.223-.409.814-1.331.978-.523" transform="translate(10.463 14.295)" fill="#4b4ee0"/>
          <path id="Path_879721" data-name="Path 879721" d="M18.731,24.651c-.164-.808-.755.114-.978.523L20.6,51.606c-.078.866-1.987,3.054-2.345,4.063-.086.243-.2.184.149.189-.1.094-.191.218-.324.324-.041.033-.3.229-.324.243L20.44,51.6,17.72,24.9l.809-.811Z" transform="translate(10.451 14.204)" fill="#555be3"/>
          <path id="Path_879722" data-name="Path 879722" d="M19.371,30.508c.631,6.146,1.5,12.276,1.951,18.441-.781.658-1.649,1.868-2.434,2.437-.13.094-.17.157-.327.033.3-.291.606-.587.892-.89l1.787-1.661-1.057-9.605c-.057-.62-.107-1.245-.162-1.865-.21-2.3-.471-4.59-.649-6.89" transform="translate(10.946 17.992)" fill="#b7c5f3"/>
          <path id="Path_879723" data-name="Path 879723" d="M15.431,38.717c-.156,1.781-.374,3.561-.444,5.348l4.2,3.96c.162,0,.238-.194.3-.231.022-.013.283-.208.324-.242-.045.269-.529.7-.806.61a43.472,43.472,0,0,1-4.178-4.1,47.079,47.079,0,0,1,.526-5.346Z" transform="translate(8.726 22.834)" fill="#8191ec"/>
          <path id="Path_879724" data-name="Path 879724" d="M15.552,40.991c.035-.377.046-.762.081-1.135.154-1.649.332-3.3.486-4.944.323-2.259.529-4.536.73-6.809.087-1,.251-2.009.324-3h.081c-.3,5.308-1.132,10.605-1.7,15.887" transform="translate(9.172 14.805)" fill="#8c9bed"/>
          <path id="Path_879725" data-name="Path 879725" d="M18.846,22.2l2.262,1.92L20.4,25.151l.8,7.421c.091.946.227,1.893.324,2.838.178,2.3.439,4.591.649,6.89L20.386,25.763l-.2-.564-.808.811L22.1,52.716l-2.682,4.822c-.06.037-.135.229-.3.231l-4.2-3.962c.072-1.787.288-3.566.444-5.346.169-1.922.394-3.836.568-5.755.571-5.281,1.4-10.578,1.7-15.888.073-1.292.521-1.8-.641-2.784Z" transform="translate(8.797 13.091)" fill="#6775e8"/>
          <path id="Path_879726" data-name="Path 879726" d="M15.793,35.518c-.173,1.919-.4,3.835-.568,5.755h-.081c.21-2.3.307-4.615.73-6.89-.035.374-.046.758-.081,1.135" transform="translate(8.932 20.278)" fill="#abbbf2"/>
          <path id="Path_879727" data-name="Path 879727" d="M15.909,33.8a65.473,65.473,0,0,1,.73-6.809c-.2,2.273-.407,4.55-.73,6.809" transform="translate(9.383 15.917)" fill="#c5d9f4"/>
          <path id="Path_879728" data-name="Path 879728" d="M51.2,37.409c-3.932-2.189-8.09.536-7.54,5.068.022.176.442.892.126.849s-.665-1.674-.688-1.987a4.771,4.771,0,0,1,8.1-3.93" transform="translate(25.406 21.223)" fill="#f2d383"/>
          <path id="Path_879729" data-name="Path 879729" d="M47.892,38.648c-.169.161-1.294-.606-.979.776.124.533.816.335,1.049.816.556,1.146-.857,1.23-1.286,1.893.219-.747-.933-.375-1.124-.862-.232-.585.975.278,1.127-.389.288-1.265-1.472-.755-1.084-2.059.169-.571.7-.528,1-.782.1-.087.091-.444.2-.444s.092.364.245.48c.067.049,1.237.2.849.571" transform="translate(26.848 22.173)" fill="#d4b055"/>
          <path id="Path_879730" data-name="Path 879730" d="M44.268,45.144l.081,2.27c-1.132-.006-2.273.032-3.405,0v-2.27c1.106-.022,2.218.006,3.324,0" transform="translate(24.148 26.619)" fill="#eed084"/>
          <path id="Path_879731" data-name="Path 879731" d="M47.96,47.33l-.081-.2V45.263L48,45.141h2.351c.321,0,.281,2.189,0,2.189Z" transform="translate(28.238 26.623)" fill="#fce39c"/>
          <path id="Path_879732" data-name="Path 879732" d="M43.677,46.929l.081,2.27c-1.106,0-2.218,0-3.324,0l.081-2.27c1.052-.019,2.11.006,3.162,0" transform="translate(23.847 27.673)" fill="#eed084"/>
          <path id="Path_879733" data-name="Path 879733" d="M49.882,46.942v2.189c-.064.014-.132,0-.162.081H47.369v-2.27c.731.1,1.833-.137,2.513,0" transform="translate(27.937 27.659)" fill="#fce39c"/>
          <path id="Path_879734" data-name="Path 879734" d="M48.95,49.114V46.925c.819.164.862,1.994,0,2.189" transform="translate(28.87 27.675)" fill="#fcdd8c"/>
          <path id="Path_879735" data-name="Path 879735" d="M41.529,45.15v2.27c-.512-.014-1.029.01-1.54,0,.011-.332-.081-2.191,0-2.27.054-.056,1.312,0,1.54,0" transform="translate(23.565 26.614)" fill="#fcdd8b"/>
          <path id="Path_879736" data-name="Path 879736" d="M39.059,43.408h1.622L40.6,45.6a5.355,5.355,0,0,1-1.54-.081c.014-.7-.011-1.407,0-2.108" transform="translate(23.035 25.6)" fill="#fcdd8b"/>
          <path id="Path_879737" data-name="Path 879737" d="M33.059,9.409c-.24-.529-1.469-1.968-1.471-2.1,0-.024.254-.259.323-.366.8-1.318.924-2.779-.73-3.4a10.2,10.2,0,0,0-1.377,0l-1.625.45C28.3,2.385,28.048.671,26.237.221c-1.289-.323-4.695.027-6.16.162-3.625.332-7.706.92-8.109,5.469-.043.486.176,1.852.148,2.016-.04.216-.345.25-.388.3a4.879,4.879,0,0,0-1.54,3,9.183,9.183,0,0,0,1.135,5.917,2.834,2.834,0,0,1,.081.324c.076.006.151.157.162.162v.162l.73,1.944c1.06.444,1.081-.181,1.3-.973a1.984,1.984,0,0,0,.038-.307,1.984,1.984,0,0,1-.038.307,13.1,13.1,0,0,0,.722-2.965c.032-.758-.191-1.358-.154-2.141.017-.385.355-2,.781-2.094.1-.022,1.709.615,2.04.693a20.585,20.585,0,0,0,2.124.428,16.735,16.735,0,0,0,6.424-.019c.273-.051,1.127-.191,1.2-.466a24.619,24.619,0,0,1,2.431-.73,2.331,2.331,0,0,1,0,.243c-.824,1.5-.194,2.668.243,4.052.143.458.456.843.548,1.194a17.413,17.413,0,0,0,.273,2.037,2.718,2.718,0,0,0,.587.024c.022,0,.045,0,.065,0l.033-.006a2.434,2.434,0,0,0,.518-.049,5.845,5.845,0,0,0,.568-1.013c.019-.048.065-.251.081-.324.011-.049-.006-.111,0-.162,1.146-2.351,2.108-5.52.986-8M11.791,17.634a.811.811,0,0,0-.065-.149.811.811,0,0,1,.065.149c.027.07.056.159.087.262-.032-.1-.06-.192-.087-.262M13.308,19.2c-.083.235-.2.421-.4.472a.521.521,0,0,1-.135.013.521.521,0,0,0,.135-.013c.205-.051.321-.237.4-.472.065-.188.108-.407.161-.614-.052.207-.1.426-.161.614m.2-.765a1.307,1.307,0,0,1,.165-.383,1.307,1.307,0,0,0-.165.383m16.028-2.6a2.518,2.518,0,0,0,.162.278,2.518,2.518,0,0,1-.162-.278m.679,2.5c-.014-.1-.027-.216-.038-.334.011.118.024.231.038.334a1.969,1.969,0,0,0,.081.375,1.969,1.969,0,0,1-.081-.375" transform="translate(5.945 0.051)" fill="#3a3854"/>
          <path id="Path_879738" data-name="Path 879738" d="M15.376,11.4c-1.14.132-1.017,2.59.14,2.566,1.251-.025,1.168-2.717-.14-2.566" transform="translate(8.6 6.719)" fill="#3a3854"/>
          <path id="Path_879739" data-name="Path 879739" d="M19.417,11.953A1.042,1.042,0,0,0,19.369,13c.3-2.588,2.079-1.289,1.3.647,1.083-1-.362-3.284-1.25-1.693" transform="translate(11.353 6.726)" fill="#3a3854"/>
          <path id="Path_879740" data-name="Path 879740" d="M19.851,36.015l1.057,9.607-1.787,1.66a19.674,19.674,0,0,0,1.625-1.819c-.347-3.146-.6-6.3-.9-9.448" transform="translate(11.277 21.24)" fill="#555be3"/>
          <path id="Path_879741" data-name="Path 879741" d="M22.035,15.54c-.172-.262-5.758-.175-6.27-.092-.8.129-.1,1.568.218,2.051a3.32,3.32,0,0,0,6.052-1.959" transform="translate(9.08 9.061)" fill="#fff"/>
        </g>
      </g>
    </g>
    <rect id="Rectangle_404724" data-name="Rectangle 404724" width="190" height="139" transform="translate(285 3401)" fill="none"/>
  </g>
</svg>
