<svg xmlns="http://www.w3.org/2000/svg" xmlns:xlink="http://www.w3.org/1999/xlink" width="151" height="151" viewBox="0 0 151 151">
  <defs>
    <clipPath id="clip-path">
      <rect id="Rectangle_404767" data-name="Rectangle 404767" width="83.402" height="83.493" fill="#00513f"/>
    </clipPath>
  </defs>
  <g id="img7" transform="translate(-505.713 -7988)">
    <g id="Group_1101010" data-name="Group 1101010" transform="translate(559.448 7988)">
      <path id="Path_875656" data-name="Path 875656" d="M235.845,10.626l-94,94v3.266h3.265l94-94V10.626Z" transform="translate(-141.847 -10.626)" fill="#00503e"/>
      <path id="Path_875657" data-name="Path 875657" d="M221.444,10.626l-79.6,79.6v6.532l86.128-86.13Z" transform="translate(-141.847 -10.626)" fill="#00503e"/>
      <path id="Path_875658" data-name="Path 875658" d="M207.043,10.626l-65.2,65.2v6.531l71.728-71.728Z" transform="translate(-141.847 -10.626)" fill="#00503e"/>
      <path id="Path_875659" data-name="Path 875659" d="M192.642,10.626l-50.8,50.8v6.531l57.327-57.328Z" transform="translate(-141.847 -10.626)" fill="#00503e"/>
      <path id="Path_875660" data-name="Path 875660" d="M178.242,10.626l-36.395,36.4v6.531l42.927-42.927Z" transform="translate(-141.847 -10.626)" fill="#00503e"/>
      <path id="Path_875661" data-name="Path 875661" d="M163.841,10.626,141.847,32.62v6.532l28.526-28.526Z" transform="translate(-141.847 -10.626)" fill="#00503e"/>
      <path id="Path_875662" data-name="Path 875662" d="M149.44,10.626l-7.593,7.593v6.532l14.125-14.125Z" transform="translate(-141.847 -10.626)" fill="#00503e"/>
      <path id="Path_875663" data-name="Path 875663" d="M268.109,151.013h6.532l7.593-7.593v-6.531Z" transform="translate(-184.97 -53.748)" fill="#00503e"/>
      <path id="Path_875664" data-name="Path 875664" d="M246.238,143.543h6.532l21.994-21.995v-6.531Z" transform="translate(-177.499 -46.278)" fill="#00503e"/>
      <path id="Path_875665" data-name="Path 875665" d="M224.368,136.074H230.9l36.394-36.4V93.147Z" transform="translate(-170.03 -38.809)" fill="#00503e"/>
      <path id="Path_875666" data-name="Path 875666" d="M202.5,128.6h6.532l50.795-50.8V71.277Z" transform="translate(-162.562 -31.34)" fill="#00503e"/>
      <path id="Path_875667" data-name="Path 875667" d="M180.628,121.135h6.531l65.2-65.2V49.407Z" transform="translate(-155.091 -23.871)" fill="#00503e"/>
      <path id="Path_875668" data-name="Path 875668" d="M158.757,113.666h6.532l79.6-79.6V27.536Z" transform="translate(-147.622 -16.401)" fill="#00503e"/>
    </g>
    <rect id="Rectangle_403642" data-name="Rectangle 403642" width="71.286" height="71.286" transform="translate(506.713 8066.713)" fill="none" stroke="#00513f" stroke-linecap="round" stroke-linejoin="round" stroke-width="2"/>
    <rect id="Rectangle_403641" data-name="Rectangle 403641" width="125.08" height="125" transform="translate(520.713 7998.799)" fill="#ccf6ec"/>
    <g id="Group_1102473" data-name="Group 1102473" transform="translate(541.713 8019.799)">
      <g id="Group_1102473-2" data-name="Group 1102473" clip-path="url(#clip-path)">
        <path id="Path_877179" data-name="Path 877179" d="M61.889,18.954h4.579c3.761-3.4,9.33-11.911,14.993-6.473,4.411,4.236.422,9.349-3.384,12.117,1.626,1.369,2.977,2.928,5.324,2.451V40.467c-4.008-.459-7.471,2.254-11.388,2.564A13.749,13.749,0,0,1,62.595,40.5c-.659.075-.666.6-.719,1.13-.771,7.7.706,16.726.009,24.5a6.87,6.87,0,0,1-6.058,6.509L26.212,72.63c-.916.168-1.331,3.392-2.023,4.154v6.709H5.444V77c0-.294-1.947-4.55-2.228-5.44A104.49,104.49,0,0,1,.148,55.242C-.8,47.286,2.879,43.462,8,38.226l0-31.74A7.039,7.039,0,0,1,14.5,0H55.389c2.814-.061,6.5,3.265,6.5,6.067Zm-5.538-6.283v8.2l2.637-1.256.148-.333c-.36-4.128.44-8.935-.039-12.978a4.076,4.076,0,0,0-3.909-3.546h-40.7a3.951,3.951,0,0,0-3.727,3.727l.114,54.856,1.071.634c1.261-.033,2.485-4.622,3.07-5.651a3.145,3.145,0,0,1-1.7-2.964V13.942c.116-1.354.552-2.5,1.918-2.981H54.653a2.84,2.84,0,0,1,1.7,1.71M53.8,23.747V13.736l-.319-.319H16.094V51.969l1.06-3.52a4.422,4.422,0,0,1,6.594-1.9c2.661,1.82,1.847,4.573,2.357,7.335H53.8V48.561c-3.053.84-7.742,4.6-10.226.96-1.173-1.721-.347-3.148.264-4.851,1.059-2.949,2.176-6.26,5.061-7.828l0-.311c-5.258-5.312,1.663-9.082,4.9-12.785M77.153,13.5a3.946,3.946,0,0,0-2.486,1.089L61.882,27.361c-.61.666.993,1.163,1.478,1.517a40.383,40.383,0,0,0,3.747,2.864L79.36,19.7c2.386-2.183,1.153-6.277-2.207-6.208M63.8,21.511a7.99,7.99,0,0,0-5.329,1.378c-2.865,2.206-5.55,6.048-8.4,8.428a2.21,2.21,0,0,0,.813,3.169c2.178-1.272,1.279-2.485,1.728-4.249A5.42,5.42,0,0,1,55.867,27.1c.81-.163,1.937.147,2.61-.159.59-.268,4.1-4.1,5.057-4.94.144-.127.409.012.271-.486m6.817,10.862H74.03v2.556H66.681c-2.777-1.9-5.533-5.271-9.169-5.331-2.193-.036-3.334,2.209-1.475,3.835,1.755,1.536,10.225,6.328,12.407,6.763,4.209.839,8.3-1.319,12.2-2.638l0-7.821-4.379-3.106Zm-16.69,3L49.1,40.361l4.616,4.777,6.251-6.055ZM8,61.447V42.384A13.108,13.108,0,0,0,2.7,53.965,116,116,0,0,0,5.085,68.2a46.017,46.017,0,0,0,2.524,7.167l14.24-.067a22.931,22.931,0,0,0,2.337-11.291c-.753-4.461-.418-9.415-1.076-13.834a1.823,1.823,0,0,0-3.437-.7c-1,1.875-1.652,6.464-2.567,8.935-1.1,2.977-2.455,7.153-6.512,5.981A4.416,4.416,0,0,1,8,61.447M47.408,43.024c-.084,1.1-3,5.365-.751,5.453a23.746,23.746,0,0,0,4.578-1.94c-1.1-.849-2.212-2.559-3.294-3.3-.18-.124-.212-.3-.533-.209M26.531,70.074H55.18a4.894,4.894,0,0,0,3.267-1.845,11.9,11.9,0,0,0,.674-1.456v-22.9l-2.725,2.706c-.348,2.48.322,5.647-.056,8.038-.087.551-1.123,1.823-1.585,1.823H26.318c.105,4.577.994,9.077.213,13.632m-5.112,7.881H8.32c-.64.677-.2,1.886-.319,2.769H21.419Z" transform="translate(0 0)" fill="#00513f"/>
        <path id="Path_877180" data-name="Path 877180" d="M120.723,84.082H88.56V75.988h32.163Zm-2.556-5.325H91.116v2.556h27.051Z" transform="translate(-69.697 -59.803)" fill="#00513f"/>
        <path id="Path_877181" data-name="Path 877181" d="M144.026,176.988c-.122.883.32,2.092-.32,2.769H126.56v-2.769Z" transform="translate(-99.603 -139.29)" fill="#00513f"/>
        <rect id="Rectangle_404761" data-name="Rectangle 404761" width="17.466" height="2.556" transform="translate(26.957 27.048)" fill="#00513f"/>
        <rect id="Rectangle_404762" data-name="Rectangle 404762" width="14.697" height="2.769" transform="translate(26.957 43.023)" fill="#00513f"/>
        <rect id="Rectangle_404763" data-name="Rectangle 404763" width="14.697" height="2.556" transform="translate(26.957 48.561)" fill="#00513f"/>
        <rect id="Rectangle_404764" data-name="Rectangle 404764" width="11.928" height="2.556" transform="translate(26.957 32.373)" fill="#00513f"/>
        <rect id="Rectangle_404765" data-name="Rectangle 404765" width="2.771" height="2.558" transform="translate(41.653 32.372)" fill="#00513f"/>
        <rect id="Rectangle_404766" data-name="Rectangle 404766" width="10.863" height="2.556" transform="translate(29.513 5.535)" fill="#00513f"/>
        <path id="Path_877182" data-name="Path 877182" d="M227.583,25.87c1.272-1.273,3.421,1.1,1.774,2.091-1.6.965-2.677-1.187-1.774-2.091" transform="translate(-178.85 -20.071)" fill="#00513f"/>
        <path id="Path_877183" data-name="Path 877183" d="M254.563,25.87c.9.9-.176,3.056-1.774,2.091-1.647-.995.5-3.364,1.774-2.091" transform="translate(-198.475 -20.071)" fill="#00513f"/>
        <path id="Path_877184" data-name="Path 877184" d="M128.369,277.447a83.484,83.484,0,0,1,11.829,0c3.937.8,1.949,7.054-2.018,7.9a33.111,33.111,0,0,1-7.634.053c-4.216-.768-6.094-7.236-2.176-7.947m11.345,2.718H128.851a2.7,2.7,0,0,0,2.439,2.566,35.168,35.168,0,0,0,6.685-.151,2.886,2.886,0,0,0,1.738-2.415" transform="translate(-99.338 -218.185)" fill="#00513f"/>
      </g>
    </g>
  </g>
</svg>
