<svg xmlns="http://www.w3.org/2000/svg" xmlns:xlink="http://www.w3.org/1999/xlink" width="180" height="180" viewBox="0 0 180 180">
  <defs>
    <clipPath id="clip-path">
      <rect id="Rectangle_405171" data-name="Rectangle 405171" width="89.617" height="89.71" fill="#12263f"/>
    </clipPath>
  </defs>
  <g id="img7" transform="translate(-358.668 -5326)">
    <rect id="Rectangle_403656" data-name="Rectangle 403656" width="180" height="180" transform="translate(358.668 5326)" fill="none"/>
    <g id="Group_1101106" data-name="Group 1101106" transform="translate(-148.045 -2662)">
      <g id="Group_1101010" data-name="Group 1101010" transform="translate(601.04 7999.387)">
        <path id="Path_875656" data-name="Path 875656" d="M213.638,10.626,141.848,82.417v2.494h2.494L216.133,13.12V10.626Z" transform="translate(-141.846 -10.626)" fill="#225a78"/>
        <path id="Path_875657" data-name="Path 875657" d="M202.64,10.626,141.848,71.419v4.989l65.781-65.782Z" transform="translate(-141.846 -10.626)" fill="#225a78"/>
        <path id="Path_875658" data-name="Path 875658" d="M191.64,10.626,141.847,60.42v4.988l54.782-54.783Z" transform="translate(-141.846 -10.626)" fill="#225a78"/>
        <path id="Path_875659" data-name="Path 875659" d="M180.642,10.626l-38.8,38.8V54.41l43.784-43.784Z" transform="translate(-141.846 -10.626)" fill="#225a78"/>
        <path id="Path_875660" data-name="Path 875660" d="M169.644,10.626l-27.8,27.8v4.988l32.786-32.786Z" transform="translate(-141.846 -10.626)" fill="#225a78"/>
        <path id="Path_875661" data-name="Path 875661" d="M158.645,10.626l-16.8,16.8v4.989l21.787-21.787Z" transform="translate(-141.846 -10.626)" fill="#225a78"/>
        <path id="Path_875662" data-name="Path 875662" d="M147.646,10.626l-5.8,5.8v4.989l10.788-10.788Z" transform="translate(-141.846 -10.626)" fill="#225a78"/>
        <path id="Path_875663" data-name="Path 875663" d="M268.109,147.676H273.1l5.8-5.8v-4.988Z" transform="translate(-204.61 -73.39)" fill="#225a78"/>
        <path id="Path_875664" data-name="Path 875664" d="M246.238,136.8h4.989l16.8-16.8v-4.988Z" transform="translate(-193.738 -62.518)" fill="#225a78"/>
        <path id="Path_875665" data-name="Path 875665" d="M224.368,125.933h4.989l27.8-27.8V93.147Z" transform="translate(-182.867 -51.646)" fill="#225a78"/>
        <path id="Path_875666" data-name="Path 875666" d="M202.5,115.061h4.989l38.795-38.8V71.277Z" transform="translate(-171.996 -40.775)" fill="#225a78"/>
        <path id="Path_875667" data-name="Path 875667" d="M180.628,104.19h4.988L235.41,54.4V49.407Z" transform="translate(-161.123 -29.904)" fill="#225a78"/>
        <path id="Path_875668" data-name="Path 875668" d="M158.757,93.318h4.989l60.792-60.793V27.536Z" transform="translate(-150.252 -19.032)" fill="#225a78"/>
      </g>
      <rect id="Rectangle_403642" data-name="Rectangle 403642" width="62.268" height="62.267" transform="translate(518.1 8094.346)" fill="none" stroke="#225a78" stroke-linecap="round" stroke-linejoin="round" stroke-width="2"/>
      <rect id="Rectangle_403641" data-name="Rectangle 403641" width="135.46" height="135.39" transform="translate(530.428 8008.8)" fill="#88c0de"/>
      <g id="Group_1102939" data-name="Group 1102939" transform="translate(553.427 8031.8)">
        <g id="Group_1102939-2" data-name="Group 1102939" clip-path="url(#clip-path)">
          <path id="Path_879790" data-name="Path 879790" d="M66.337,43.082H73.43c-.28-1.568.8-3.6,2.457-3.853a19.6,19.6,0,0,1,3.217,0,3.333,3.333,0,0,1,2.459,3.85c3.238-.253,6.8.21,7.9,3.733.316,12.756.041,25.575.139,38.354a5.073,5.073,0,0,1-2.991,4,6.956,6.956,0,0,0-1.438.544H1.1C.614,89.392.024,89.063,0,88.4L.032,1.023A1.727,1.727,0,0,1,1.3,0l61.2.032A1.79,1.79,0,0,1,63.44.87l.08,38.092.1.21a3.381,3.381,0,0,1,2.714,3.909M60.706,2.823H2.823V86.729l.156.156H35.936l.158-.257-.423-1.46V47.509c.567-3.514,3.969-4.785,7.2-4.428-.223-1.52.758-3.536,2.371-3.835a19.982,19.982,0,0,1,3.316-.027c1.751.214,2.737,2.251,2.552,3.862l6.995-.046.083-.125a3.221,3.221,0,0,1,2.518-3.688ZM45.687,42.3v5.528c0,.078.253.236.368.258a11.816,11.816,0,0,0,1.875,0c.335-.061.345-.4.37-.673a37.351,37.351,0,0,0,0-4.807,1.343,1.343,0,0,0-.1-.5,4.451,4.451,0,0,0-2.329-.066.509.509,0,0,0-.184.26m17.834,5.684V42.195a2.728,2.728,0,0,0-2.5,0v5.736l.157.156h2.086c.035,0,.158-.138.261-.1m12.828.1h2.242l.156-.156V42.195a2.88,2.88,0,0,0-2.5,0v5.632c0,.034.138.158.1.261M42.871,45.9H40.629c-.041,0-.685.216-.783.26-.35.157-1.355.993-1.355,1.356V53.2H86.779v-5.58c0-.543-1.082-1.371-1.587-1.542a11.535,11.535,0,0,0-3.367-.179.337.337,0,0,0-.261.156v2.294a3.524,3.524,0,0,1-1.644,2.215,8.4,8.4,0,0,1-4.476.151,3.371,3.371,0,0,1-2.014-2.47v-2.19l-.157-.156H66.337v2.347a3.463,3.463,0,0,1-2.012,2.473,8.227,8.227,0,0,1-4.546-.19c-1.947-1.055-1.45-2.789-1.681-4.629H51.11v2.034A3.482,3.482,0,0,1,49.1,50.716a10.489,10.489,0,0,1-4.14.03,3.468,3.468,0,0,1-2.087-2.711ZM86.779,56.014H38.491V85.165a6.318,6.318,0,0,0,.372.671,3.039,3.039,0,0,0,2.18,1.053H84.124c.819.142,2.655-.876,2.655-1.725Z" fill="#12263f"/>
          <path id="Path_879791" data-name="Path 879791" d="M98.206,97.093V92.921c-1.327.718-2.784,3.556-4.487,2.245a30.807,30.807,0,0,1-3.129-3.129c-1.274-1.6.418-3.158,1.78-2.2.567.4,1.729,1.988,2.19,2.2a.317.317,0,0,0,.312.008l7.084-6.273a1.437,1.437,0,0,1,1.876,1.562c-.145.975-2.251,2.172-2.788,3.053l-.022,8.218a1.5,1.5,0,0,1-1.508,1.308c-5.083.448-10.814-.347-15.965,0A1.571,1.571,0,0,1,81.932,98.3l.029-15a1.6,1.6,0,0,1,1.593-1.327l15.956,0a1.454,1.454,0,0,1,1.285,2.225c-.123.2-.544.591-.764.591H84.909l-.156.156V96.936l.156.156Z" transform="translate(-73.378 -73.411)" fill="#12263f"/>
          <path id="Path_879792" data-name="Path 879792" d="M84.786,608.2v12.2H98.24v-4.172l-2.777,2.49a1.62,1.62,0,0,1-1.606-.141,36,36,0,0,1-3.39-3.389,1.347,1.347,0,0,1,.056-1.827c1.453-1.645,3.19,1.474,4.313,2.13l6.792-6.148a1.428,1.428,0,0,1,2.237,1.4c-.139.947-2.223,2.114-2.788,2.949l-.019,8.325a1.372,1.372,0,0,1-.865,1.117l-16.819.084a1.485,1.485,0,0,1-1.4-1.412l.025-15.2a1.542,1.542,0,0,1,1.276-1.227H99.755a1.435,1.435,0,0,1,.833,2.507,4.077,4.077,0,0,1-.523.311Z" transform="translate(-73.412 -542.178)" fill="#12263f"/>
          <path id="Path_879793" data-name="Path 879793" d="M98.055,354.622a26.389,26.389,0,0,0-2.469,2.172,1.437,1.437,0,0,1-2.108-.051A33.144,33.144,0,0,1,90.7,354a4.689,4.689,0,0,1-.644-.814,1.409,1.409,0,0,1,2.052-1.739c.7.452,1.593,1.863,2.243,2.245.137.081.211.133.376.057l6.674-6.054a1.423,1.423,0,0,1,2.281,1.342c-.136.926-2.2,2.175-2.788,2.949l-.019,8.325a1.318,1.318,0,0,1-1.406,1.2c-5.305.37-11.034-.29-16.384,0a1.292,1.292,0,0,1-1.172-.914c-.277-5.2-.075-10.477-.1-15.7a1.634,1.634,0,0,1,1.382-1.225l16.273,0a1.436,1.436,0,0,1,.94,2.5,4.075,4.075,0,0,1-.523.311H84.758l-.156.156v12.046H98.055Z" transform="translate(-73.227 -307.786)" fill="#12263f"/>
          <path id="Path_879794" data-name="Path 879794" d="M342.912,82.012l17.908-.029a1.423,1.423,0,0,1,.418,2.815l-18.671,0a1.411,1.411,0,0,1,.345-2.789" transform="translate(-305.799 -73.424)" fill="#12263f"/>
          <path id="Path_879795" data-name="Path 879795" d="M342.5,154.922l18.748-.025a1.367,1.367,0,0,1,0,2.712l-18.671,0a1.378,1.378,0,0,1-.077-2.689" transform="translate(-305.805 -138.724)" fill="#12263f"/>
          <path id="Path_879796" data-name="Path 879796" d="M680.1,576.713a2.459,2.459,0,0,1,.959-.345,49.836,49.836,0,0,1,6.992,0,1.534,1.534,0,0,1,1.612,1.517,50.378,50.378,0,0,1,.006,6.991,1.494,1.494,0,0,1-1.412,1.508,51.8,51.8,0,0,1-6.993,0c-.845-.062-1.436-.308-1.615-1.2.183-2.373-.233-5.081,0-7.413a2.036,2.036,0,0,1,.454-1.058m2.524,2.471-.156.156v4.068l.156.157h4.067l.156-.157V579.34l-.156-.156Z" transform="translate(-608.62 -516.078)" fill="#12263f"/>
          <path id="Path_879797" data-name="Path 879797" d="M423.989,576.825c2.32.121,4.993-.256,7.272-.026a1.45,1.45,0,0,1,1.413,1.4c.22,2.347-.174,5.028,0,7.412a1.385,1.385,0,0,1-1.306,1.2,51.258,51.258,0,0,1-7.2,0c-1.107-.1-1.431-.689-1.512-1.721a50.009,50.009,0,0,1,.005-6.573c.082-.919.341-1.544,1.329-1.7m5.865,2.789h-4.276c.034.1-.1.226-.1.261v3.963l.156.156h4.224Z" transform="translate(-378.431 -516.508)" fill="#12263f"/>
          <path id="Path_879798" data-name="Path 879798" d="M560.17,576.785a1.6,1.6,0,0,1,.458,1.054,54.015,54.015,0,0,1,0,7.2,1.365,1.365,0,0,1-1.408,1.408,51.046,51.046,0,0,1-7.2,0,1.353,1.353,0,0,1-1.31-1.193c-.256-2.409.209-5.27,0-7.729a1.479,1.479,0,0,1,1.513-1.094,52.282,52.282,0,0,1,6.891,0,1.816,1.816,0,0,1,1.055.353m-2.362,6.847v-4.224l-.156-.156h-4.12c.034.1-.1.226-.1.261v3.963l.156.156Z" transform="translate(-493.139 -516.145)" fill="#12263f"/>
          <path id="Path_879799" data-name="Path 879799" d="M680.659,694.476c2.211-.372,5.284.226,7.588-.025a1.5,1.5,0,0,1,1.3,1.408,49.57,49.57,0,0,1,0,6.992c-.066.744-.388,1.413-1.2,1.511-2.341.282-5.222-.221-7.622,0a1.373,1.373,0,0,1-1.2-1.2c.214-2.364-.278-5.209,0-7.514a1.329,1.329,0,0,1,1.123-1.172m6.076,7.067v-4.12l-.156-.156h-4.224v4.224l.156.156h3.963c.034,0,.158-.138.261-.1" transform="translate(-608.508 -621.853)" fill="#12263f"/>
          <path id="Path_879800" data-name="Path 879800" d="M423.744,694.626c2.408.144,5.229-.278,7.589-.025a1.35,1.35,0,0,1,1.306,1.2c-.173,2.383.222,5.065,0,7.411a1.326,1.326,0,0,1-1.1,1.3c-2.445-.182-5.216.234-7.621,0-.94-.09-1.218-.76-1.3-1.624a48.508,48.508,0,0,1,0-6.671,1.564,1.564,0,0,1,1.118-1.594m6.076,2.791H425.6l-.156.156v3.963c0,.035.138.158.1.261h4.276Z" transform="translate(-378.397 -622.004)" fill="#12263f"/>
          <path id="Path_879801" data-name="Path 879801" d="M551.677,694.532c2.41.169,5.347-.31,7.7-.027a1.36,1.36,0,0,1,1.2,1.406,53.119,53.119,0,0,1,0,7.2,1.326,1.326,0,0,1-1.1,1.3c-2.444-.183-5.218.236-7.621,0a1.188,1.188,0,0,1-1.2-1.1c-.285-2.369.22-5.293,0-7.723a1.347,1.347,0,0,1,1.018-1.068m6.076,2.791H553.53l-.156.156v3.963a1.741,1.741,0,0,0,.261.261H557.6l.156-.156Z" transform="translate(-493.085 -621.91)" fill="#12263f"/>
        </g>
      </g>
    </g>
  </g>
</svg>
