<svg xmlns="http://www.w3.org/2000/svg" xmlns:xlink="http://www.w3.org/1999/xlink" width="400" height="996.045" viewBox="0 0 400 996.045">
  <defs>
    <clipPath id="clip-path">
      <path id="Path_611005" data-name="Path 611005" d="M0,0H400V995.045H0Z" fill="#d8eaf4"/>
    </clipPath>
    <clipPath id="clip-path-2">
      <rect id="Rectangle_404728" data-name="Rectangle 404728" width="33.127" height="9.625" fill="#173f55"/>
    </clipPath>
    <clipPath id="clip-path-3">
      <rect id="Rectangle_404729" data-name="Rectangle 404729" width="33.126" height="9.625" fill="#173f55"/>
    </clipPath>
    <clipPath id="clip-path-4">
      <rect id="Rectangle_404730" data-name="Rectangle 404730" width="36.25" height="27.967" fill="none"/>
    </clipPath>
    <clipPath id="clip-path-6">
      <rect id="Rectangle_404734" data-name="Rectangle 404734" width="29.861" height="23.75" fill="#225a78"/>
    </clipPath>
    <clipPath id="clip-path-7">
      <rect id="Rectangle_404735" data-name="Rectangle 404735" width="34.49" height="23.701" fill="#05ac85"/>
    </clipPath>
  </defs>
  <g id="img8_1" transform="translate(-285 -5961)">
    <g id="Group_1102439" data-name="Group 1102439" transform="translate(0 5514.5)">
      <path id="Path_608309" data-name="Path 608309" d="M0,0H400V995.045H0Z" transform="translate(285 446.5)" fill="#d8eaf4"/>
    </g>
    <rect id="Rectangle_404733" data-name="Rectangle 404733" width="358" height="56" rx="28" transform="translate(306 5990)" fill="#d7ca51"/>
    <path id="Path_879934" data-name="Path 879934" d="M30.721,13.061H25.939V18h-2.49V5.914h7.869V7.931H25.939v3.121h4.781ZM35.137,18H32.729V5.25h2.407Zm7.354-.913a3.008,3.008,0,0,1-2.457,1.079,2.837,2.837,0,0,1-2.2-.83,3.543,3.543,0,0,1-.776-2.432V9.019h2.4v5.809q0,1.4,1.278,1.4a1.732,1.732,0,0,0,1.677-.848V9.019h2.407V18H42.558Zm6.674-8.068V18.49a3.213,3.213,0,0,1-.789,2.312,3,3,0,0,1-2.274.826,4.878,4.878,0,0,1-1.187-.141v-1.9a4.5,4.5,0,0,0,.755.075q1.087,0,1.087-1.154V9.019Zm-2.6-2.324a1.181,1.181,0,0,1,.361-.888,1.562,1.562,0,0,1,1.967,0,1.181,1.181,0,0,1,.361.888,1.178,1.178,0,0,1-.369.9,1.539,1.539,0,0,1-1.951,0A1.178,1.178,0,0,1,46.567,6.694Zm4.1,6.732a5.327,5.327,0,0,1,.515-2.382,3.767,3.767,0,0,1,1.482-1.619,4.323,4.323,0,0,1,2.245-.573,4.09,4.09,0,0,1,2.968,1.112,4.464,4.464,0,0,1,1.282,3.021l.017.614a4.694,4.694,0,0,1-1.154,3.316,4.472,4.472,0,0,1-6.2,0,4.777,4.777,0,0,1-1.158-3.387Zm2.4.17a3.357,3.357,0,0,0,.481,1.958,1.73,1.73,0,0,0,2.739.008,3.674,3.674,0,0,0,.49-2.141,3.324,3.324,0,0,0-.49-1.945,1.592,1.592,0,0,0-1.378-.69,1.566,1.566,0,0,0-1.361.686A3.735,3.735,0,0,0,53.066,13.6Zm11.447-.154a5.413,5.413,0,0,1,.942-3.345,3.057,3.057,0,0,1,2.577-1.245,2.751,2.751,0,0,1,2.167.979V5.25h2.407V18H70.44l-.116-.955a2.823,2.823,0,0,1-2.308,1.121,3.049,3.049,0,0,1-2.544-1.249A5.587,5.587,0,0,1,64.513,13.443Zm2.4.179a3.546,3.546,0,0,0,.44,1.937,1.433,1.433,0,0,0,1.278.673,1.605,1.605,0,0,0,1.569-.939v-3.55a1.582,1.582,0,0,0-1.552-.939Q66.912,10.8,66.912,13.621ZM78.6,18.166a4.409,4.409,0,0,1-3.217-1.212,4.308,4.308,0,0,1-1.241-3.229v-.232a5.426,5.426,0,0,1,.523-2.42,3.838,3.838,0,0,1,1.482-1.644,4.159,4.159,0,0,1,2.187-.577,3.727,3.727,0,0,1,2.9,1.162,4.722,4.722,0,0,1,1.058,3.3v.979H76.574a2.229,2.229,0,0,0,.7,1.411,2.12,2.12,0,0,0,1.482.531,2.589,2.589,0,0,0,2.167-1l1.179,1.32a3.6,3.6,0,0,1-1.461,1.191A4.793,4.793,0,0,1,78.6,18.166Zm-.274-7.379a1.5,1.5,0,0,0-1.158.484,2.5,2.5,0,0,0-.569,1.384h3.337v-.192a1.786,1.786,0,0,0-.432-1.238A1.547,1.547,0,0,0,78.326,10.787ZM86.187,18H83.779V5.25h2.407Zm9.944-1.768a1.573,1.573,0,0,0,1.079-.365,1.28,1.28,0,0,0,.432-.971h2.25a3.077,3.077,0,0,1-.5,1.673,3.286,3.286,0,0,1-1.341,1.179,4.2,4.2,0,0,1-1.88.419,3.9,3.9,0,0,1-3.038-1.224,4.845,4.845,0,0,1-1.112-3.383V13.4a4.79,4.79,0,0,1,1.1-3.312,3.854,3.854,0,0,1,3.03-1.237,3.778,3.778,0,0,1,2.7.959,3.4,3.4,0,0,1,1.033,2.552h-2.25a1.648,1.648,0,0,0-.432-1.139,1.6,1.6,0,0,0-2.362.173,3.541,3.541,0,0,0-.427,1.983v.249a3.586,3.586,0,0,0,.423,2A1.463,1.463,0,0,0,96.131,16.232ZM103.792,18h-2.407V9.019h2.407ZM101.244,6.694a1.181,1.181,0,0,1,.361-.888,1.556,1.556,0,0,1,1.963,0,1.175,1.175,0,0,1,.365.888,1.178,1.178,0,0,1-.369.9,1.539,1.539,0,0,1-1.951,0A1.178,1.178,0,0,1,101.244,6.694Zm8.259,9.538a1.573,1.573,0,0,0,1.079-.365,1.28,1.28,0,0,0,.432-.971h2.25a3.077,3.077,0,0,1-.5,1.673,3.286,3.286,0,0,1-1.341,1.179,4.2,4.2,0,0,1-1.88.419,3.9,3.9,0,0,1-3.038-1.224,4.845,4.845,0,0,1-1.112-3.383V13.4a4.79,4.79,0,0,1,1.1-3.312,3.854,3.854,0,0,1,3.03-1.237,3.778,3.778,0,0,1,2.7.959,3.4,3.4,0,0,1,1.033,2.552h-2.25a1.648,1.648,0,0,0-.432-1.139,1.6,1.6,0,0,0-2.362.173,3.541,3.541,0,0,0-.427,1.983v.249a3.586,3.586,0,0,0,.423,2A1.463,1.463,0,0,0,109.5,16.232ZM117.165,18h-2.407V5.25h2.407Zm1.6-4.574a5.326,5.326,0,0,1,.515-2.382,3.768,3.768,0,0,1,1.482-1.619,4.323,4.323,0,0,1,2.245-.573,4.09,4.09,0,0,1,2.968,1.112,4.464,4.464,0,0,1,1.282,3.021l.017.614a4.694,4.694,0,0,1-1.154,3.316,4.472,4.472,0,0,1-6.2,0,4.777,4.777,0,0,1-1.158-3.387Zm2.4.17a3.357,3.357,0,0,0,.481,1.958,1.73,1.73,0,0,0,2.739.008,3.674,3.674,0,0,0,.49-2.141,3.324,3.324,0,0,0-.49-1.945,1.592,1.592,0,0,0-1.378-.69,1.566,1.566,0,0,0-1.361.686A3.736,3.736,0,0,0,121.166,13.6Zm15.556,2.635a1.573,1.573,0,0,0,1.079-.365,1.28,1.28,0,0,0,.432-.971h2.25a3.077,3.077,0,0,1-.5,1.673,3.286,3.286,0,0,1-1.341,1.179,4.2,4.2,0,0,1-1.88.419,3.9,3.9,0,0,1-3.038-1.224,4.845,4.845,0,0,1-1.112-3.383V13.4a4.79,4.79,0,0,1,1.1-3.312,3.854,3.854,0,0,1,3.03-1.237,3.778,3.778,0,0,1,2.7.959,3.4,3.4,0,0,1,1.033,2.552h-2.25a1.648,1.648,0,0,0-.432-1.139,1.6,1.6,0,0,0-2.362.173,3.541,3.541,0,0,0-.427,1.983v.249a3.586,3.586,0,0,0,.423,2A1.463,1.463,0,0,0,136.722,16.232Zm4.756-2.806a5.327,5.327,0,0,1,.515-2.382,3.767,3.767,0,0,1,1.482-1.619,4.323,4.323,0,0,1,2.245-.573,4.09,4.09,0,0,1,2.968,1.112,4.464,4.464,0,0,1,1.282,3.021l.017.614a4.694,4.694,0,0,1-1.154,3.316,4.472,4.472,0,0,1-6.2,0,4.777,4.777,0,0,1-1.158-3.387Zm2.4.17a3.357,3.357,0,0,0,.481,1.958,1.73,1.73,0,0,0,2.739.008,3.674,3.674,0,0,0,.49-2.141,3.324,3.324,0,0,0-.49-1.945,1.592,1.592,0,0,0-1.378-.69,1.566,1.566,0,0,0-1.361.686A3.735,3.735,0,0,0,143.877,13.6Zm9.795-4.578.075,1.038a3.136,3.136,0,0,1,2.582-1.2,2.606,2.606,0,0,1,2.125.838,3.912,3.912,0,0,1,.714,2.507V18h-2.4V12.256a1.556,1.556,0,0,0-.332-1.108,1.486,1.486,0,0,0-1.1-.344,1.65,1.65,0,0,0-1.519.863V18h-2.4V9.019Zm10.185-2.208V9.019h1.536v1.76h-1.536v4.482a1.07,1.07,0,0,0,.191.714.959.959,0,0,0,.73.216,3.826,3.826,0,0,0,.706-.058V17.95a4.939,4.939,0,0,1-1.453.216,2.29,2.29,0,0,1-2.573-2.548V10.778h-1.312V9.019h1.312V6.811ZM171.934,18a2.664,2.664,0,0,1-.241-.805,2.9,2.9,0,0,1-2.266.971,3.189,3.189,0,0,1-2.187-.764,2.456,2.456,0,0,1-.867-1.926,2.538,2.538,0,0,1,1.058-2.191,5.222,5.222,0,0,1,3.059-.772h1.1V12a1.48,1.48,0,0,0-.32-1,1.257,1.257,0,0,0-1.009-.374,1.429,1.429,0,0,0-.95.291.987.987,0,0,0-.344.8h-2.4a2.41,2.41,0,0,1,.481-1.444,3.182,3.182,0,0,1,1.361-1.042,4.961,4.961,0,0,1,1.976-.378,3.92,3.92,0,0,1,2.635.834A2.918,2.918,0,0,1,174,12.032v3.893a4.294,4.294,0,0,0,.357,1.934V18Zm-1.984-1.668a2.066,2.066,0,0,0,.979-.237,1.554,1.554,0,0,0,.664-.635V13.916h-.9q-1.8,0-1.917,1.245l-.008.141a.96.96,0,0,0,.315.739A1.225,1.225,0,0,0,169.95,16.332Zm13.987-2.739a5.439,5.439,0,0,1-.921,3.366,3.052,3.052,0,0,1-2.573,1.208,2.8,2.8,0,0,1-2.333-1.121L178,18h-2.158V5.25h2.4V9.824a2.732,2.732,0,0,1,2.183-.971A3.077,3.077,0,0,1,183,10.06a5.446,5.446,0,0,1,.934,3.4Zm-2.4-.174a3.573,3.573,0,0,0-.432-1.988,1.46,1.46,0,0,0-1.287-.627,1.582,1.582,0,0,0-1.577.938v3.544a1.6,1.6,0,0,0,1.594.946,1.481,1.481,0,0,0,1.527-1.146A5.909,5.909,0,0,0,181.538,13.418ZM187.946,18h-2.407V5.25h2.407Zm6.109.166a4.409,4.409,0,0,1-3.217-1.212,4.308,4.308,0,0,1-1.241-3.229v-.232a5.426,5.426,0,0,1,.523-2.42A3.838,3.838,0,0,1,191.6,9.429a4.159,4.159,0,0,1,2.187-.577,3.727,3.727,0,0,1,2.9,1.162,4.722,4.722,0,0,1,1.058,3.3v.979H192.03a2.228,2.228,0,0,0,.7,1.411,2.12,2.12,0,0,0,1.482.531,2.589,2.589,0,0,0,2.167-1l1.179,1.32a3.6,3.6,0,0,1-1.461,1.191A4.793,4.793,0,0,1,194.055,18.166Zm-.274-7.379a1.5,1.5,0,0,0-1.158.484,2.5,2.5,0,0,0-.569,1.384h3.337v-.192a1.786,1.786,0,0,0-.432-1.238A1.547,1.547,0,0,0,193.781,10.787Zm11.9-.789a2.994,2.994,0,0,1,2.4-1.146q2.922,0,2.963,3.4V18h-2.4V12.314a1.669,1.669,0,0,0-.332-1.141,1.423,1.423,0,0,0-1.1-.369,1.633,1.633,0,0,0-1.527.813V18h-2.4V5.25h2.4Zm12.376,8a2.664,2.664,0,0,1-.241-.805,2.9,2.9,0,0,1-2.266.971,3.189,3.189,0,0,1-2.187-.764,2.456,2.456,0,0,1-.867-1.926,2.538,2.538,0,0,1,1.058-2.191,5.222,5.222,0,0,1,3.059-.772h1.1V12a1.48,1.48,0,0,0-.32-1,1.257,1.257,0,0,0-1.009-.374,1.429,1.429,0,0,0-.95.291.987.987,0,0,0-.344.8h-2.4a2.41,2.41,0,0,1,.481-1.444,3.182,3.182,0,0,1,1.361-1.042,4.961,4.961,0,0,1,1.976-.378,3.92,3.92,0,0,1,2.635.834,2.918,2.918,0,0,1,.975,2.345v3.893a4.294,4.294,0,0,0,.357,1.934V18Zm-1.984-1.668a2.066,2.066,0,0,0,.979-.237,1.554,1.554,0,0,0,.664-.635V13.916h-.9q-1.8,0-1.917,1.245l-.008.141a.96.96,0,0,0,.315.739A1.225,1.225,0,0,0,216.077,16.332Zm9.629-.1a1.573,1.573,0,0,0,1.079-.365,1.28,1.28,0,0,0,.432-.971h2.25a3.077,3.077,0,0,1-.5,1.673,3.286,3.286,0,0,1-1.341,1.179,4.2,4.2,0,0,1-1.88.419,3.9,3.9,0,0,1-3.038-1.224,4.845,4.845,0,0,1-1.112-3.383V13.4a4.79,4.79,0,0,1,1.1-3.312,3.854,3.854,0,0,1,3.03-1.237,3.778,3.778,0,0,1,2.7.959,3.4,3.4,0,0,1,1.033,2.552h-2.25a1.648,1.648,0,0,0-.432-1.139,1.6,1.6,0,0,0-2.362.173A3.541,3.541,0,0,0,224,13.38v.249a3.586,3.586,0,0,0,.423,2A1.463,1.463,0,0,0,225.706,16.232ZM233.368,18H230.96V9.019h2.407ZM230.819,6.694a1.181,1.181,0,0,1,.361-.888,1.556,1.556,0,0,1,1.963,0,1.175,1.175,0,0,1,.365.888,1.178,1.178,0,0,1-.369.9,1.539,1.539,0,0,1-1.951,0A1.178,1.178,0,0,1,230.819,6.694ZM240.548,18a2.664,2.664,0,0,1-.241-.805,2.9,2.9,0,0,1-2.266.971,3.189,3.189,0,0,1-2.187-.764,2.456,2.456,0,0,1-.867-1.926,2.538,2.538,0,0,1,1.058-2.191,5.222,5.222,0,0,1,3.059-.772h1.1V12a1.48,1.48,0,0,0-.32-1,1.257,1.257,0,0,0-1.009-.374,1.429,1.429,0,0,0-.95.291.987.987,0,0,0-.344.8h-2.4a2.41,2.41,0,0,1,.481-1.444,3.182,3.182,0,0,1,1.361-1.042A4.961,4.961,0,0,1,239,8.853a3.92,3.92,0,0,1,2.635.834,2.918,2.918,0,0,1,.975,2.345v3.893a4.294,4.294,0,0,0,.357,1.934V18Zm-1.984-1.668a2.066,2.066,0,0,0,.979-.237,1.554,1.554,0,0,0,.664-.635V13.916h-.9q-1.8,0-1.917,1.245l-.008.141a.96.96,0,0,0,.315.739A1.225,1.225,0,0,0,238.564,16.332ZM251.223,18h-2.407V5.25h2.407Zm1.6-4.574a5.327,5.327,0,0,1,.515-2.382,3.767,3.767,0,0,1,1.482-1.619,4.323,4.323,0,0,1,2.245-.573,4.09,4.09,0,0,1,2.968,1.112,4.464,4.464,0,0,1,1.282,3.021l.017.614a4.694,4.694,0,0,1-1.154,3.316,4.472,4.472,0,0,1-6.2,0,4.777,4.777,0,0,1-1.158-3.387Zm2.4.17a3.357,3.357,0,0,0,.481,1.958,1.73,1.73,0,0,0,2.739.008,3.673,3.673,0,0,0,.49-2.141,3.324,3.324,0,0,0-.49-1.945,1.592,1.592,0,0,0-1.378-.69,1.566,1.566,0,0,0-1.361.686A3.735,3.735,0,0,0,255.224,13.6Zm12.451,1.922a.773.773,0,0,0-.436-.693,4.95,4.95,0,0,0-1.4-.452q-3.2-.672-3.2-2.723a2.468,2.468,0,0,1,.992-2,4,4,0,0,1,2.594-.8,4.307,4.307,0,0,1,2.735.805,2.537,2.537,0,0,1,1.025,2.092h-2.4a1.161,1.161,0,0,0-.332-.851,1.405,1.405,0,0,0-1.038-.336,1.436,1.436,0,0,0-.938.274.865.865,0,0,0-.332.7.739.739,0,0,0,.378.643,3.885,3.885,0,0,0,1.274.423,10.407,10.407,0,0,1,1.511.4,2.482,2.482,0,0,1,1.9,2.416,2.343,2.343,0,0,1-1.054,1.988,4.548,4.548,0,0,1-2.723.76,4.75,4.75,0,0,1-2-.4,3.363,3.363,0,0,1-1.374-1.1,2.565,2.565,0,0,1-.5-1.515h2.274a1.252,1.252,0,0,0,.473.979,1.877,1.877,0,0,0,1.179.34,1.737,1.737,0,0,0,1.042-.261A.814.814,0,0,0,267.675,15.518ZM70.888,40H68.481V31.019h2.407ZM68.34,28.694a1.181,1.181,0,0,1,.361-.888,1.556,1.556,0,0,1,1.963,0,1.268,1.268,0,0,1,0,1.785,1.539,1.539,0,0,1-1.951,0A1.178,1.178,0,0,1,68.34,28.694Zm6.732,2.324.075,1.038a3.136,3.136,0,0,1,2.582-1.2,2.606,2.606,0,0,1,2.125.838,3.912,3.912,0,0,1,.714,2.507V40h-2.4V34.256a1.556,1.556,0,0,0-.332-1.108,1.486,1.486,0,0,0-1.1-.344,1.65,1.65,0,0,0-1.519.863V40h-2.4V31.019ZM83.041,40V32.778H81.7v-1.76h1.336v-.764a3.1,3.1,0,0,1,.867-2.345,3.359,3.359,0,0,1,2.428-.834,5.608,5.608,0,0,1,1.22.166L87.531,29.1a3.058,3.058,0,0,0-.73-.075q-1.353,0-1.353,1.27v.722h1.785v1.76H85.448V40ZM88.1,35.426a5.326,5.326,0,0,1,.515-2.382A3.768,3.768,0,0,1,90.1,31.425a4.323,4.323,0,0,1,2.245-.573,4.09,4.09,0,0,1,2.968,1.112A4.464,4.464,0,0,1,96.6,34.986l.017.614a4.694,4.694,0,0,1-1.154,3.316,4.472,4.472,0,0,1-6.2,0A4.777,4.777,0,0,1,88.1,35.534Zm2.4.17a3.357,3.357,0,0,0,.481,1.958,1.73,1.73,0,0,0,2.739.008,3.674,3.674,0,0,0,.49-2.141,3.324,3.324,0,0,0-.49-1.945,1.592,1.592,0,0,0-1.378-.69,1.566,1.566,0,0,0-1.361.686A3.735,3.735,0,0,0,90.5,35.6Zm12.634-2.328a6.517,6.517,0,0,0-.863-.066,1.757,1.757,0,0,0-1.785.921V40h-2.4V31.019h2.266l.066,1.071a2.223,2.223,0,0,1,2-1.237,2.514,2.514,0,0,1,.747.108Zm3.4-2.25.075,1a3.156,3.156,0,0,1,2.582-1.17,2.4,2.4,0,0,1,2.382,1.37,3.084,3.084,0,0,1,2.7-1.37,2.679,2.679,0,0,1,2.175.851,3.911,3.911,0,0,1,.714,2.561V40h-2.407V34.272a1.71,1.71,0,0,0-.3-1.116A1.324,1.324,0,0,0,113.4,32.8a1.5,1.5,0,0,0-1.494,1.029L111.919,40h-2.4V34.281a1.689,1.689,0,0,0-.307-1.129,1.337,1.337,0,0,0-1.046-.349,1.555,1.555,0,0,0-1.478.847V40h-2.4V31.019Zm16.6,9.147a4.409,4.409,0,0,1-3.217-1.212,4.308,4.308,0,0,1-1.241-3.229v-.232a5.426,5.426,0,0,1,.523-2.42,3.838,3.838,0,0,1,1.482-1.644,4.159,4.159,0,0,1,2.187-.577,3.727,3.727,0,0,1,2.9,1.162,4.722,4.722,0,0,1,1.058,3.3v.979h-5.719a2.229,2.229,0,0,0,.7,1.411,2.12,2.12,0,0,0,1.482.531,2.589,2.589,0,0,0,2.167-1l1.179,1.32a3.6,3.6,0,0,1-1.461,1.191A4.793,4.793,0,0,1,123.142,40.166Zm-.274-7.379a1.5,1.5,0,0,0-1.158.484,2.5,2.5,0,0,0-.569,1.384h3.337v-.192a1.786,1.786,0,0,0-.432-1.238A1.547,1.547,0,0,0,122.868,32.787Zm10.193,4.731a.773.773,0,0,0-.436-.693,4.95,4.95,0,0,0-1.4-.452q-3.2-.672-3.2-2.723a2.468,2.468,0,0,1,.992-2,4,4,0,0,1,2.594-.8,4.307,4.307,0,0,1,2.735.805,2.538,2.538,0,0,1,1.025,2.092h-2.4a1.161,1.161,0,0,0-.332-.851,1.405,1.405,0,0,0-1.038-.336,1.436,1.436,0,0,0-.938.274.865.865,0,0,0-.332.7.739.739,0,0,0,.378.643,3.885,3.885,0,0,0,1.274.423,10.407,10.407,0,0,1,1.511.4,2.482,2.482,0,0,1,1.9,2.416,2.343,2.343,0,0,1-1.054,1.988,4.548,4.548,0,0,1-2.723.76,4.75,4.75,0,0,1-2-.4,3.363,3.363,0,0,1-1.374-1.1,2.565,2.565,0,0,1-.5-1.515h2.274a1.252,1.252,0,0,0,.473.979,1.877,1.877,0,0,0,1.179.34,1.737,1.737,0,0,0,1.042-.261A.814.814,0,0,0,133.061,37.518ZM141.752,40V32.778h-1.336v-1.76h1.336V30.6a3.368,3.368,0,0,1,1.042-2.611,4.191,4.191,0,0,1,2.893-.917,9.6,9.6,0,0,1,2.723.49l-.349,1.984a10.622,10.622,0,0,0-1.262-.311,6.2,6.2,0,0,0-.963-.071q-1.677,0-1.677,1.486v.365h1.768v1.76h-1.768V40Zm7.778,0h-2.407V31.019h2.407Zm4.192-8.981.075,1.038a3.136,3.136,0,0,1,2.582-1.2,2.606,2.606,0,0,1,2.125.838,3.912,3.912,0,0,1,.714,2.507V40h-2.4V34.256a1.556,1.556,0,0,0-.332-1.108,1.486,1.486,0,0,0-1.1-.344,1.65,1.65,0,0,0-1.519.863V40h-2.4V31.019ZM166.239,40a2.664,2.664,0,0,1-.241-.805,2.9,2.9,0,0,1-2.266.971,3.189,3.189,0,0,1-2.187-.764,2.456,2.456,0,0,1-.867-1.926,2.538,2.538,0,0,1,1.058-2.191,5.222,5.222,0,0,1,3.059-.772h1.1V34a1.48,1.48,0,0,0-.32-1,1.257,1.257,0,0,0-1.009-.374,1.429,1.429,0,0,0-.95.291.987.987,0,0,0-.344.8h-2.4a2.41,2.41,0,0,1,.481-1.444,3.182,3.182,0,0,1,1.361-1.042,4.961,4.961,0,0,1,1.976-.378,3.92,3.92,0,0,1,2.635.834,2.918,2.918,0,0,1,.975,2.345v3.893a4.294,4.294,0,0,0,.357,1.934V40Zm-1.984-1.668a2.066,2.066,0,0,0,.979-.237,1.554,1.554,0,0,0,.664-.635V35.916H165q-1.8,0-1.917,1.245l-.008.141a.96.96,0,0,0,.315.739A1.225,1.225,0,0,0,164.255,38.332Zm8.1-7.313.075,1.038a3.136,3.136,0,0,1,2.582-1.2,2.606,2.606,0,0,1,2.125.838,3.912,3.912,0,0,1,.714,2.507V40h-2.4V34.256a1.556,1.556,0,0,0-.332-1.108,1.486,1.486,0,0,0-1.1-.344,1.65,1.65,0,0,0-1.519.863V40h-2.4V31.019Zm11.048,7.213a1.573,1.573,0,0,0,1.079-.365,1.28,1.28,0,0,0,.432-.971h2.25a3.077,3.077,0,0,1-.5,1.673,3.286,3.286,0,0,1-1.341,1.179,4.2,4.2,0,0,1-1.88.419,3.9,3.9,0,0,1-3.038-1.224,4.845,4.845,0,0,1-1.112-3.383V35.4a4.79,4.79,0,0,1,1.1-3.312,3.854,3.854,0,0,1,3.03-1.237,3.778,3.778,0,0,1,2.7.959,3.4,3.4,0,0,1,1.033,2.552h-2.25a1.648,1.648,0,0,0-.432-1.139,1.6,1.6,0,0,0-2.362.173,3.541,3.541,0,0,0-.427,1.983v.249a3.586,3.586,0,0,0,.423,2A1.463,1.463,0,0,0,183.405,38.232ZM191.067,40H188.66V31.019h2.407Zm-2.548-11.306a1.181,1.181,0,0,1,.361-.888,1.556,1.556,0,0,1,1.963,0,1.268,1.268,0,0,1,0,1.785,1.539,1.539,0,0,1-1.951,0A1.178,1.178,0,0,1,188.519,28.694Zm8.658,11.472a4.409,4.409,0,0,1-3.217-1.212,4.308,4.308,0,0,1-1.241-3.229v-.232a5.426,5.426,0,0,1,.523-2.42,3.838,3.838,0,0,1,1.482-1.644,4.159,4.159,0,0,1,2.187-.577,3.727,3.727,0,0,1,2.9,1.162,4.722,4.722,0,0,1,1.058,3.3v.979h-5.719a2.228,2.228,0,0,0,.7,1.411,2.12,2.12,0,0,0,1.482.531,2.589,2.589,0,0,0,2.167-1l1.179,1.32a3.6,3.6,0,0,1-1.461,1.191A4.793,4.793,0,0,1,197.176,40.166Zm-.274-7.379a1.5,1.5,0,0,0-1.158.484,2.5,2.5,0,0,0-.569,1.384h3.337v-.192a1.786,1.786,0,0,0-.432-1.238A1.547,1.547,0,0,0,196.9,32.787Zm10.376.481a6.517,6.517,0,0,0-.863-.066,1.757,1.757,0,0,0-1.785.921V40h-2.4V31.019H204.5l.066,1.071a2.223,2.223,0,0,1,2-1.237,2.514,2.514,0,0,1,.747.108Zm.481,2.158a5.327,5.327,0,0,1,.515-2.382,3.767,3.767,0,0,1,1.482-1.619A4.323,4.323,0,0,1,212,30.853a4.09,4.09,0,0,1,2.968,1.112,4.464,4.464,0,0,1,1.282,3.021l.017.614a4.694,4.694,0,0,1-1.154,3.316,4.472,4.472,0,0,1-6.2,0,4.777,4.777,0,0,1-1.158-3.387Zm2.4.17a3.357,3.357,0,0,0,.481,1.958,1.73,1.73,0,0,0,2.739.008,3.674,3.674,0,0,0,.49-2.141,3.324,3.324,0,0,0-.49-1.945,1.592,1.592,0,0,0-1.378-.69,1.566,1.566,0,0,0-1.361.686A3.735,3.735,0,0,0,210.159,35.6Zm12.451,1.922a.773.773,0,0,0-.436-.693,4.95,4.95,0,0,0-1.4-.452q-3.2-.672-3.2-2.723a2.468,2.468,0,0,1,.992-2,4,4,0,0,1,2.594-.8,4.307,4.307,0,0,1,2.735.805,2.538,2.538,0,0,1,1.025,2.092h-2.4a1.161,1.161,0,0,0-.332-.851,1.405,1.405,0,0,0-1.038-.336,1.436,1.436,0,0,0-.938.274.865.865,0,0,0-.332.7.739.739,0,0,0,.378.643,3.885,3.885,0,0,0,1.274.423,10.407,10.407,0,0,1,1.511.4,2.482,2.482,0,0,1,1.9,2.416,2.343,2.343,0,0,1-1.054,1.988,4.548,4.548,0,0,1-2.723.76,4.75,4.75,0,0,1-2-.4,3.363,3.363,0,0,1-1.374-1.1,2.565,2.565,0,0,1-.5-1.515h2.274a1.252,1.252,0,0,0,.473.979,1.877,1.877,0,0,0,1.179.34,1.737,1.737,0,0,0,1.042-.261A.814.814,0,0,0,222.61,37.518Z" transform="translate(339 5997)" fill="#12263f"/>
    <path id="Path_879935" data-name="Path 879935" d="M32.512,17H30.168V12.125H25.6V17H23.254V5.625H25.6v4.609h4.57V5.625h2.344Zm5.789.156a4.15,4.15,0,0,1-3.027-1.141,4.054,4.054,0,0,1-1.168-3.039v-.219A5.106,5.106,0,0,1,34.6,10.48a3.612,3.612,0,0,1,1.395-1.547,3.914,3.914,0,0,1,2.059-.543,3.508,3.508,0,0,1,2.73,1.094,4.444,4.444,0,0,1,1,3.1v.922H36.395a2.1,2.1,0,0,0,.66,1.328,2,2,0,0,0,1.395.5,2.437,2.437,0,0,0,2.039-.945L41.6,15.633a3.389,3.389,0,0,1-1.375,1.121A4.511,4.511,0,0,1,38.3,17.156Zm-.258-6.945a1.411,1.411,0,0,0-1.09.455,2.357,2.357,0,0,0-.535,1.3h3.141v-.181a1.681,1.681,0,0,0-.406-1.165A1.456,1.456,0,0,0,38.043,10.211Zm8.531,5.125a1.481,1.481,0,0,0,1.016-.344A1.2,1.2,0,0,0,48,14.078h2.117a2.9,2.9,0,0,1-.469,1.574,3.093,3.093,0,0,1-1.262,1.109,3.949,3.949,0,0,1-1.77.395A3.67,3.67,0,0,1,43.754,16a4.56,4.56,0,0,1-1.047-3.184v-.148a4.508,4.508,0,0,1,1.039-3.117A3.627,3.627,0,0,1,46.6,8.391a3.555,3.555,0,0,1,2.543.9,3.2,3.2,0,0,1,.973,2.4H48a1.551,1.551,0,0,0-.406-1.072,1.51,1.51,0,0,0-2.223.163,3.333,3.333,0,0,0-.4,1.866v.235a3.375,3.375,0,0,0,.4,1.878A1.377,1.377,0,0,0,46.574,15.336Zm7.031-5.867a2.818,2.818,0,0,1,2.258-1.078q2.75,0,2.789,3.2V17H56.395V11.648a1.57,1.57,0,0,0-.312-1.074,1.34,1.34,0,0,0-1.039-.348,1.537,1.537,0,0,0-1.437.766V17H51.348V5h2.258ZM60,12.7a5.013,5.013,0,0,1,.484-2.242A3.546,3.546,0,0,1,61.883,8.93,4.069,4.069,0,0,1,64,8.391a3.849,3.849,0,0,1,2.793,1.047A4.2,4.2,0,0,1,68,12.281l.016.578a4.418,4.418,0,0,1-1.086,3.121,4.209,4.209,0,0,1-5.832,0A4.5,4.5,0,0,1,60,12.8Zm2.258.16a3.16,3.16,0,0,0,.453,1.843,1.628,1.628,0,0,0,2.578.008,3.457,3.457,0,0,0,.461-2.015,3.128,3.128,0,0,0-.461-1.831,1.5,1.5,0,0,0-1.3-.649,1.474,1.474,0,0,0-1.281.646A3.516,3.516,0,0,0,62.262,12.856ZM73.98,14.664a.727.727,0,0,0-.41-.652,4.659,4.659,0,0,0-1.316-.426q-3.016-.633-3.016-2.562a2.323,2.323,0,0,1,.934-1.879,3.766,3.766,0,0,1,2.441-.754,4.053,4.053,0,0,1,2.574.758,2.388,2.388,0,0,1,.965,1.969H73.895a1.092,1.092,0,0,0-.312-.8A1.322,1.322,0,0,0,72.605,10a1.351,1.351,0,0,0-.883.258.814.814,0,0,0-.312.656.7.7,0,0,0,.355.605,3.657,3.657,0,0,0,1.2.4,9.8,9.8,0,0,1,1.422.379,2.336,2.336,0,0,1,1.789,2.273,2.2,2.2,0,0,1-.992,1.871,4.28,4.28,0,0,1-2.562.715,4.47,4.47,0,0,1-1.887-.379,3.166,3.166,0,0,1-1.293-1.039,2.414,2.414,0,0,1-.469-1.426h2.141a1.179,1.179,0,0,0,.445.922,1.766,1.766,0,0,0,1.109.32,1.635,1.635,0,0,0,.98-.246A.766.766,0,0,0,73.98,14.664Zm-63.6,24.492a4.15,4.15,0,0,1-3.027-1.141,4.054,4.054,0,0,1-1.168-3.039v-.219a5.106,5.106,0,0,1,.492-2.277A3.612,3.612,0,0,1,8.07,30.934a3.914,3.914,0,0,1,2.059-.543,3.508,3.508,0,0,1,2.73,1.094,4.444,4.444,0,0,1,1,3.1v.922H8.473a2.1,2.1,0,0,0,.66,1.328,2,2,0,0,0,1.395.5,2.437,2.437,0,0,0,2.039-.945l1.109,1.242A3.389,3.389,0,0,1,12.3,38.754,4.511,4.511,0,0,1,10.379,39.156Zm-.258-6.945a1.411,1.411,0,0,0-1.09.455,2.357,2.357,0,0,0-.535,1.3h3.141v-.181a1.681,1.681,0,0,0-.406-1.165A1.456,1.456,0,0,0,10.121,32.211Zm8.531,5.125a1.481,1.481,0,0,0,1.016-.344,1.2,1.2,0,0,0,.406-.914h2.117a2.9,2.9,0,0,1-.469,1.574,3.093,3.093,0,0,1-1.262,1.109,3.949,3.949,0,0,1-1.77.395A3.67,3.67,0,0,1,15.832,38a4.56,4.56,0,0,1-1.047-3.184v-.148a4.508,4.508,0,0,1,1.039-3.117,3.627,3.627,0,0,1,2.852-1.164,3.555,3.555,0,0,1,2.543.9,3.2,3.2,0,0,1,.973,2.4H20.074a1.551,1.551,0,0,0-.406-1.072,1.51,1.51,0,0,0-2.223.163,3.333,3.333,0,0,0-.4,1.866v.235a3.375,3.375,0,0,0,.4,1.878A1.377,1.377,0,0,0,18.652,37.336ZM23.129,34.7a5.013,5.013,0,0,1,.484-2.242,3.546,3.546,0,0,1,1.395-1.523,4.069,4.069,0,0,1,2.113-.539,3.849,3.849,0,0,1,2.793,1.047,4.2,4.2,0,0,1,1.207,2.844l.016.578a4.418,4.418,0,0,1-1.086,3.121,3.775,3.775,0,0,1-2.914,1.176,3.793,3.793,0,0,1-2.918-1.172,4.5,4.5,0,0,1-1.09-3.187Zm2.258.16A3.16,3.16,0,0,0,25.84,36.7a1.628,1.628,0,0,0,2.578.008,3.457,3.457,0,0,0,.461-2.015,3.128,3.128,0,0,0-.461-1.831,1.5,1.5,0,0,0-1.3-.649,1.474,1.474,0,0,0-1.281.646A3.516,3.516,0,0,0,25.387,34.856Zm9.219-4.309.07.977a2.951,2.951,0,0,1,2.43-1.133,2.453,2.453,0,0,1,2,.789,3.682,3.682,0,0,1,.672,2.359V39H37.52V33.594a1.465,1.465,0,0,0-.312-1.043,1.4,1.4,0,0,0-1.039-.324,1.553,1.553,0,0,0-1.43.813V39H32.48V30.547ZM41.137,34.7a5.013,5.013,0,0,1,.484-2.242,3.546,3.546,0,0,1,1.395-1.523,4.069,4.069,0,0,1,2.113-.539,3.849,3.849,0,0,1,2.793,1.047,4.2,4.2,0,0,1,1.207,2.844l.016.578a4.418,4.418,0,0,1-1.086,3.121,4.209,4.209,0,0,1-5.832,0,4.5,4.5,0,0,1-1.09-3.187Zm2.258.16a3.16,3.16,0,0,0,.453,1.843,1.628,1.628,0,0,0,2.578.008,3.457,3.457,0,0,0,.461-2.015,3.128,3.128,0,0,0-.461-1.831,1.5,1.5,0,0,0-1.3-.649,1.474,1.474,0,0,0-1.281.646A3.516,3.516,0,0,0,43.395,34.856ZM45.574,27h2.461l-2.164,2.422H44.035Zm7.078,3.547.07.945a2.971,2.971,0,0,1,2.43-1.1,2.255,2.255,0,0,1,2.242,1.289,2.9,2.9,0,0,1,2.539-1.289,2.521,2.521,0,0,1,2.047.8,3.681,3.681,0,0,1,.672,2.41V39H60.387V33.609a1.61,1.61,0,0,0-.281-1.051,1.246,1.246,0,0,0-.992-.332,1.409,1.409,0,0,0-1.406.969l.008,5.8H55.457V33.617a1.59,1.59,0,0,0-.289-1.062,1.259,1.259,0,0,0-.984-.328,1.463,1.463,0,0,0-1.391.8V39H50.535V30.547ZM66.77,39H64.5V30.547H66.77Zm-2.4-10.641a1.112,1.112,0,0,1,.34-.836,1.465,1.465,0,0,1,1.848,0,1.193,1.193,0,0,1,0,1.68,1.448,1.448,0,0,1-1.836,0A1.108,1.108,0,0,1,64.371,28.359Zm7.773,8.977a1.481,1.481,0,0,0,1.016-.344,1.2,1.2,0,0,0,.406-.914h2.117a2.9,2.9,0,0,1-.469,1.574,3.093,3.093,0,0,1-1.262,1.109,3.949,3.949,0,0,1-1.77.395A3.67,3.67,0,0,1,69.324,38a4.56,4.56,0,0,1-1.047-3.184v-.148a4.508,4.508,0,0,1,1.039-3.117,3.627,3.627,0,0,1,2.852-1.164,3.555,3.555,0,0,1,2.543.9,3.2,3.2,0,0,1,.973,2.4H73.566a1.551,1.551,0,0,0-.406-1.072,1.51,1.51,0,0,0-2.223.163,3.333,3.333,0,0,0-.4,1.866v.235a3.375,3.375,0,0,0,.4,1.878A1.377,1.377,0,0,0,72.145,37.336ZM76.621,34.7a5.013,5.013,0,0,1,.484-2.242A3.546,3.546,0,0,1,78.5,30.93a4.069,4.069,0,0,1,2.113-.539,3.849,3.849,0,0,1,2.793,1.047,4.2,4.2,0,0,1,1.207,2.844l.016.578a4.418,4.418,0,0,1-1.086,3.121,4.209,4.209,0,0,1-5.832,0,4.5,4.5,0,0,1-1.09-3.187Zm2.258.16a3.16,3.16,0,0,0,.453,1.843,1.628,1.628,0,0,0,2.578.008,3.457,3.457,0,0,0,.461-2.015,3.128,3.128,0,0,0-.461-1.831,1.5,1.5,0,0,0-1.3-.649,1.474,1.474,0,0,0-1.281.646A3.516,3.516,0,0,0,78.879,34.856ZM90.6,36.664a.727.727,0,0,0-.41-.652,4.659,4.659,0,0,0-1.316-.426q-3.016-.633-3.016-2.562a2.323,2.323,0,0,1,.934-1.879,3.766,3.766,0,0,1,2.441-.754,4.053,4.053,0,0,1,2.574.758,2.388,2.388,0,0,1,.965,1.969H90.512a1.092,1.092,0,0,0-.312-.8A1.322,1.322,0,0,0,89.223,32a1.351,1.351,0,0,0-.883.258.814.814,0,0,0-.312.656.7.7,0,0,0,.355.605,3.657,3.657,0,0,0,1.2.4A9.8,9.8,0,0,1,91,34.3a2.336,2.336,0,0,1,1.789,2.273,2.2,2.2,0,0,1-.992,1.871,4.28,4.28,0,0,1-2.562.715,4.47,4.47,0,0,1-1.887-.379,3.166,3.166,0,0,1-1.293-1.039,2.414,2.414,0,0,1-.469-1.426H87.73a1.179,1.179,0,0,0,.445.922,1.766,1.766,0,0,0,1.109.32,1.635,1.635,0,0,0,.98-.246A.766.766,0,0,0,90.6,36.664Z" transform="translate(539.586 6215.188)" fill="#12263f"/>
    <path id="Path_879936" data-name="Path 879936" d="M23.691,14.016A1.2,1.2,0,0,0,23.223,13a6.148,6.148,0,0,0-1.687-.75,11.963,11.963,0,0,1-1.93-.777,3.153,3.153,0,0,1-1.937-2.82A2.747,2.747,0,0,1,18.188,7,3.389,3.389,0,0,1,19.68,5.875a5.616,5.616,0,0,1,2.184-.406,5.112,5.112,0,0,1,2.172.441,3.458,3.458,0,0,1,1.48,1.246,3.261,3.261,0,0,1,.527,1.828H23.7a1.534,1.534,0,0,0-.492-1.215,2.023,2.023,0,0,0-1.383-.434,2.162,2.162,0,0,0-1.336.363,1.146,1.146,0,0,0-.477.957,1.1,1.1,0,0,0,.559.93,6.311,6.311,0,0,0,1.645.7,7.106,7.106,0,0,1,2.914,1.492A2.972,2.972,0,0,1,26.043,14a2.737,2.737,0,0,1-1.117,2.316,4.891,4.891,0,0,1-3.008.84,5.808,5.808,0,0,1-2.391-.48,3.783,3.783,0,0,1-1.645-1.316,3.371,3.371,0,0,1-.566-1.937h2.352q0,1.883,2.25,1.883a2.189,2.189,0,0,0,1.3-.34A1.106,1.106,0,0,0,23.691,14.016Zm3.438-1.32a5.013,5.013,0,0,1,.484-2.242A3.546,3.546,0,0,1,29.008,8.93a4.069,4.069,0,0,1,2.113-.539,3.849,3.849,0,0,1,2.793,1.047,4.2,4.2,0,0,1,1.207,2.844l.016.578a4.418,4.418,0,0,1-1.086,3.121,3.775,3.775,0,0,1-2.914,1.176,3.793,3.793,0,0,1-2.918-1.172,4.5,4.5,0,0,1-1.09-3.187Zm2.258.16A3.16,3.16,0,0,0,29.84,14.7a1.628,1.628,0,0,0,2.578.008,3.457,3.457,0,0,0,.461-2.015,3.128,3.128,0,0,0-.461-1.831,1.5,1.5,0,0,0-1.3-.649,1.474,1.474,0,0,0-1.281.646A3.516,3.516,0,0,0,29.387,12.856Zm14.75,0a5.07,5.07,0,0,1-.887,3.129,2.843,2.843,0,0,1-2.395,1.176,2.633,2.633,0,0,1-2.07-.891V20.25H36.527V8.547h2.094l.078.828a2.654,2.654,0,0,1,2.141-.984,2.862,2.862,0,0,1,2.43,1.156,5.207,5.207,0,0,1,.867,3.188Zm-2.258-.164a3.327,3.327,0,0,0-.418-1.82,1.361,1.361,0,0,0-1.215-.641,1.479,1.479,0,0,0-1.461.813V14.5a1.5,1.5,0,0,0,1.477.836Q41.879,15.336,41.879,12.688Zm3.3.008a5.013,5.013,0,0,1,.484-2.242A3.546,3.546,0,0,1,47.063,8.93a4.069,4.069,0,0,1,2.113-.539,3.849,3.849,0,0,1,2.793,1.047,4.2,4.2,0,0,1,1.207,2.844l.016.578a4.418,4.418,0,0,1-1.086,3.121,4.209,4.209,0,0,1-5.832,0,4.5,4.5,0,0,1-1.09-3.187Zm2.258.16a3.16,3.16,0,0,0,.453,1.843,1.628,1.628,0,0,0,2.578.008,3.457,3.457,0,0,0,.461-2.015,3.128,3.128,0,0,0-.461-1.831,1.5,1.5,0,0,0-1.3-.649,1.474,1.474,0,0,0-1.281.646A3.516,3.516,0,0,0,47.441,12.856Zm11.891-2.192a6.134,6.134,0,0,0-.812-.062,1.654,1.654,0,0,0-1.68.867V17H54.582V8.547h2.133l.063,1.008A2.092,2.092,0,0,1,58.66,8.391a2.366,2.366,0,0,1,.7.1Zm4.18-4.2V8.547h1.445V10.2H63.512v4.219a1.007,1.007,0,0,0,.18.672.9.9,0,0,0,.688.2,3.6,3.6,0,0,0,.664-.055v1.711a4.648,4.648,0,0,1-1.367.2,2.156,2.156,0,0,1-2.422-2.4V10.2H60.02V8.547h1.234V6.469Zm6.594,10.688a4.15,4.15,0,0,1-3.027-1.141,4.054,4.054,0,0,1-1.168-3.039v-.219A5.106,5.106,0,0,1,66.4,10.48,3.612,3.612,0,0,1,67.8,8.934a3.914,3.914,0,0,1,2.059-.543,3.508,3.508,0,0,1,2.73,1.094,4.444,4.444,0,0,1,1,3.1v.922H68.2a2.1,2.1,0,0,0,.66,1.328,2,2,0,0,0,1.395.5,2.437,2.437,0,0,0,2.039-.945L73.4,15.633a3.389,3.389,0,0,1-1.375,1.121A4.511,4.511,0,0,1,70.105,17.156Zm-.258-6.945a1.411,1.411,0,0,0-1.09.455,2.357,2.357,0,0,0-.535,1.3h3.141v-.181a1.681,1.681,0,0,0-.406-1.165A1.456,1.456,0,0,0,69.848,10.211Zm9.594,4.453a.727.727,0,0,0-.41-.652,4.659,4.659,0,0,0-1.316-.426Q74.7,12.953,74.7,11.023a2.323,2.323,0,0,1,.934-1.879,3.766,3.766,0,0,1,2.441-.754,4.053,4.053,0,0,1,2.574.758,2.388,2.388,0,0,1,.965,1.969H79.355a1.092,1.092,0,0,0-.312-.8A1.322,1.322,0,0,0,78.066,10a1.351,1.351,0,0,0-.883.258.814.814,0,0,0-.312.656.7.7,0,0,0,.355.605,3.657,3.657,0,0,0,1.2.4,9.8,9.8,0,0,1,1.422.379,2.336,2.336,0,0,1,1.789,2.273,2.2,2.2,0,0,1-.992,1.871,4.28,4.28,0,0,1-2.562.715,4.47,4.47,0,0,1-1.887-.379A3.166,3.166,0,0,1,74.9,15.738a2.414,2.414,0,0,1-.469-1.426h2.141a1.179,1.179,0,0,0,.445.922,1.766,1.766,0,0,0,1.109.32,1.635,1.635,0,0,0,.98-.246A.766.766,0,0,0,79.441,14.664ZM18.652,37.336a1.481,1.481,0,0,0,1.016-.344,1.2,1.2,0,0,0,.406-.914h2.117a2.9,2.9,0,0,1-.469,1.574,3.093,3.093,0,0,1-1.262,1.109,3.949,3.949,0,0,1-1.77.395A3.67,3.67,0,0,1,15.832,38a4.56,4.56,0,0,1-1.047-3.184v-.148a4.508,4.508,0,0,1,1.039-3.117,3.627,3.627,0,0,1,2.852-1.164,3.555,3.555,0,0,1,2.543.9,3.2,3.2,0,0,1,.973,2.4H20.074a1.551,1.551,0,0,0-.406-1.072,1.51,1.51,0,0,0-2.223.163,3.333,3.333,0,0,0-.4,1.866v.235a3.375,3.375,0,0,0,.4,1.878A1.377,1.377,0,0,0,18.652,37.336ZM23.129,34.7a5.013,5.013,0,0,1,.484-2.242,3.546,3.546,0,0,1,1.395-1.523,4.069,4.069,0,0,1,2.113-.539,3.849,3.849,0,0,1,2.793,1.047,4.2,4.2,0,0,1,1.207,2.844l.016.578a4.418,4.418,0,0,1-1.086,3.121,3.775,3.775,0,0,1-2.914,1.176,3.793,3.793,0,0,1-2.918-1.172,4.5,4.5,0,0,1-1.09-3.187Zm2.258.16A3.16,3.16,0,0,0,25.84,36.7a1.628,1.628,0,0,0,2.578.008,3.457,3.457,0,0,0,.461-2.015,3.128,3.128,0,0,0-.461-1.831,1.5,1.5,0,0,0-1.3-.649,1.474,1.474,0,0,0-1.281.646A3.516,3.516,0,0,0,25.387,34.856Zm9.219-4.309.07.977a2.951,2.951,0,0,1,2.43-1.133,2.453,2.453,0,0,1,2,.789,3.682,3.682,0,0,1,.672,2.359V39H37.52V33.594a1.465,1.465,0,0,0-.312-1.043,1.4,1.4,0,0,0-1.039-.324,1.553,1.553,0,0,0-1.43.813V39H32.48V30.547Zm9.586-2.078v2.078h1.445V32.2H44.191v4.219a1.007,1.007,0,0,0,.18.672.9.9,0,0,0,.688.2,3.6,3.6,0,0,0,.664-.055v1.711a4.648,4.648,0,0,1-1.367.2,2.156,2.156,0,0,1-2.422-2.4V32.2H40.7V30.547h1.234V28.469ZM51.793,39a2.507,2.507,0,0,1-.227-.758,2.732,2.732,0,0,1-2.133.914,3,3,0,0,1-2.059-.719,2.312,2.312,0,0,1-.816-1.812,2.389,2.389,0,0,1,1-2.062,4.915,4.915,0,0,1,2.879-.727h1.039v-.484a1.393,1.393,0,0,0-.3-.937,1.183,1.183,0,0,0-.949-.352,1.345,1.345,0,0,0-.895.273.929.929,0,0,0-.324.75H46.746a2.268,2.268,0,0,1,.453-1.359,3,3,0,0,1,1.281-.98,4.669,4.669,0,0,1,1.859-.355,3.689,3.689,0,0,1,2.48.785,2.747,2.747,0,0,1,.918,2.207v3.664a4.041,4.041,0,0,0,.336,1.82V39Zm-1.867-1.57a1.945,1.945,0,0,0,.922-.223,1.462,1.462,0,0,0,.625-.6V35.156h-.844q-1.7,0-1.8,1.172l-.008.133a.9.9,0,0,0,.3.7A1.153,1.153,0,0,0,49.926,37.43ZM63.09,34.852a5.119,5.119,0,0,1-.867,3.168A2.872,2.872,0,0,1,59.8,39.156a2.639,2.639,0,0,1-2.2-1.055l-.1.9H55.473V27H57.73v4.3a2.571,2.571,0,0,1,2.055-.914,2.9,2.9,0,0,1,2.426,1.137,5.126,5.126,0,0,1,.879,3.2Zm-2.258-.164a3.363,3.363,0,0,0-.406-1.871,1.374,1.374,0,0,0-1.211-.59,1.489,1.489,0,0,0-1.484.883v3.336a1.509,1.509,0,0,0,1.5.891,1.394,1.394,0,0,0,1.438-1.078A5.562,5.562,0,0,0,60.832,34.688ZM66.863,39H64.6V27h2.266Zm5.75.156a4.15,4.15,0,0,1-3.027-1.141,4.054,4.054,0,0,1-1.168-3.039v-.219a5.106,5.106,0,0,1,.492-2.277A3.612,3.612,0,0,1,70.3,30.934a3.914,3.914,0,0,1,2.059-.543,3.508,3.508,0,0,1,2.73,1.094,4.444,4.444,0,0,1,1,3.1v.922H70.707a2.1,2.1,0,0,0,.66,1.328,2,2,0,0,0,1.395.5,2.437,2.437,0,0,0,2.039-.945l1.109,1.242a3.389,3.389,0,0,1-1.375,1.121A4.511,4.511,0,0,1,72.613,39.156Zm-.258-6.945a1.411,1.411,0,0,0-1.09.455,2.357,2.357,0,0,0-.535,1.3h3.141v-.181a1.681,1.681,0,0,0-.406-1.165A1.456,1.456,0,0,0,72.355,32.211Zm9.594,4.453a.727.727,0,0,0-.41-.652,4.659,4.659,0,0,0-1.316-.426q-3.016-.633-3.016-2.562a2.323,2.323,0,0,1,.934-1.879,3.766,3.766,0,0,1,2.441-.754,4.053,4.053,0,0,1,2.574.758,2.388,2.388,0,0,1,.965,1.969H81.863a1.092,1.092,0,0,0-.312-.8A1.322,1.322,0,0,0,80.574,32a1.351,1.351,0,0,0-.883.258.814.814,0,0,0-.312.656.7.7,0,0,0,.355.605,3.657,3.657,0,0,0,1.2.4,9.8,9.8,0,0,1,1.422.379,2.336,2.336,0,0,1,1.789,2.273,2.2,2.2,0,0,1-.992,1.871,4.28,4.28,0,0,1-2.562.715,4.47,4.47,0,0,1-1.887-.379,3.166,3.166,0,0,1-1.293-1.039,2.414,2.414,0,0,1-.469-1.426h2.141a1.179,1.179,0,0,0,.445.922,1.766,1.766,0,0,0,1.109.32,1.635,1.635,0,0,0,.98-.246A.766.766,0,0,0,81.949,36.664Z" transform="translate(330.325 6302.611)" fill="#12263f"/>
    <path id="Path_879937" data-name="Path 879937" d="M14.5,14.656H10.387L9.605,17H7.113L11.348,5.625H13.52L17.777,17H15.285Zm-3.477-1.9h2.844L12.434,8.5Zm12.25,1.906a.727.727,0,0,0-.41-.652,4.659,4.659,0,0,0-1.316-.426q-3.016-.633-3.016-2.562a2.323,2.323,0,0,1,.934-1.879A3.766,3.766,0,0,1,21.9,8.391a4.053,4.053,0,0,1,2.574.758,2.388,2.388,0,0,1,.965,1.969H23.184a1.092,1.092,0,0,0-.312-.8A1.322,1.322,0,0,0,21.895,10a1.351,1.351,0,0,0-.883.258.814.814,0,0,0-.312.656.7.7,0,0,0,.355.605,3.657,3.657,0,0,0,1.2.4,9.8,9.8,0,0,1,1.422.379,2.336,2.336,0,0,1,1.789,2.273,2.2,2.2,0,0,1-.992,1.871,4.28,4.28,0,0,1-2.562.715,4.47,4.47,0,0,1-1.887-.379,3.166,3.166,0,0,1-1.293-1.039,2.414,2.414,0,0,1-.469-1.426H20.4a1.179,1.179,0,0,0,.445.922,1.766,1.766,0,0,0,1.109.32,1.635,1.635,0,0,0,.98-.246A.766.766,0,0,0,23.27,14.664ZM29.3,17H27.035V8.547H29.3ZM26.9,6.359a1.112,1.112,0,0,1,.34-.836,1.465,1.465,0,0,1,1.848,0,1.105,1.105,0,0,1,.344.836,1.108,1.108,0,0,1-.348.844,1.448,1.448,0,0,1-1.836,0A1.108,1.108,0,0,1,26.9,6.359Zm8.148,10.8a4.15,4.15,0,0,1-3.027-1.141,4.054,4.054,0,0,1-1.168-3.039v-.219a5.106,5.106,0,0,1,.492-2.277,3.612,3.612,0,0,1,1.395-1.547A3.914,3.914,0,0,1,34.8,8.391a3.508,3.508,0,0,1,2.73,1.094,4.444,4.444,0,0,1,1,3.1v.922H33.145a2.1,2.1,0,0,0,.66,1.328,2,2,0,0,0,1.395.5,2.437,2.437,0,0,0,2.039-.945l1.109,1.242a3.389,3.389,0,0,1-1.375,1.121A4.511,4.511,0,0,1,35.051,17.156Zm-.258-6.945a1.411,1.411,0,0,0-1.09.455,2.357,2.357,0,0,0-.535,1.3h3.141v-.181a1.681,1.681,0,0,0-.406-1.165A1.456,1.456,0,0,0,34.793,10.211Zm7.094-1.664.07.977a2.951,2.951,0,0,1,2.43-1.133,2.453,2.453,0,0,1,2,.789,3.682,3.682,0,0,1,.672,2.359V17H44.8V11.594a1.465,1.465,0,0,0-.312-1.043,1.4,1.4,0,0,0-1.039-.324,1.553,1.553,0,0,0-1.43.813V17H39.762V8.547Zm9.586-2.078V8.547h1.445V10.2H51.473v4.219a1.007,1.007,0,0,0,.18.672.9.9,0,0,0,.688.2A3.6,3.6,0,0,0,53,15.242v1.711a4.648,4.648,0,0,1-1.367.2,2.156,2.156,0,0,1-2.422-2.4V10.2H47.98V8.547h1.234V6.469ZM53.59,12.7a5.013,5.013,0,0,1,.484-2.242A3.546,3.546,0,0,1,55.469,8.93a4.069,4.069,0,0,1,2.113-.539,3.849,3.849,0,0,1,2.793,1.047,4.2,4.2,0,0,1,1.207,2.844l.016.578a4.418,4.418,0,0,1-1.086,3.121,4.209,4.209,0,0,1-5.832,0A4.5,4.5,0,0,1,53.59,12.8Zm2.258.16A3.16,3.16,0,0,0,56.3,14.7a1.628,1.628,0,0,0,2.578.008,3.457,3.457,0,0,0,.461-2.015,3.128,3.128,0,0,0-.461-1.831,1.5,1.5,0,0,0-1.3-.649,1.474,1.474,0,0,0-1.281.646A3.516,3.516,0,0,0,55.848,12.856Zm11.719,1.808a.727.727,0,0,0-.41-.652,4.659,4.659,0,0,0-1.316-.426q-3.016-.633-3.016-2.562a2.323,2.323,0,0,1,.934-1.879A3.766,3.766,0,0,1,66.2,8.391a4.053,4.053,0,0,1,2.574.758,2.388,2.388,0,0,1,.965,1.969H67.48a1.092,1.092,0,0,0-.312-.8A1.322,1.322,0,0,0,66.191,10a1.351,1.351,0,0,0-.883.258.814.814,0,0,0-.312.656.7.7,0,0,0,.355.605,3.657,3.657,0,0,0,1.2.4,9.8,9.8,0,0,1,1.422.379,2.336,2.336,0,0,1,1.789,2.273,2.2,2.2,0,0,1-.992,1.871,4.28,4.28,0,0,1-2.562.715,4.47,4.47,0,0,1-1.887-.379,3.166,3.166,0,0,1-1.293-1.039,2.414,2.414,0,0,1-.469-1.426H64.7a1.179,1.179,0,0,0,.445.922,1.766,1.766,0,0,0,1.109.32,1.635,1.635,0,0,0,.98-.246A.766.766,0,0,0,67.566,14.664ZM79.09,17.156a4.15,4.15,0,0,1-3.027-1.141,4.054,4.054,0,0,1-1.168-3.039v-.219a5.106,5.106,0,0,1,.492-2.277,3.612,3.612,0,0,1,1.395-1.547,3.914,3.914,0,0,1,2.059-.543,3.508,3.508,0,0,1,2.73,1.094,4.444,4.444,0,0,1,1,3.1v.922H77.184a2.1,2.1,0,0,0,.66,1.328,2,2,0,0,0,1.395.5,2.437,2.437,0,0,0,2.039-.945l1.109,1.242a3.389,3.389,0,0,1-1.375,1.121A4.511,4.511,0,0,1,79.09,17.156Zm-.258-6.945a1.411,1.411,0,0,0-1.09.455,2.357,2.357,0,0,0-.535,1.3h3.141v-.181a1.681,1.681,0,0,0-.406-1.165A1.456,1.456,0,0,0,78.832,10.211Zm7.094-1.664.07.977a2.951,2.951,0,0,1,2.43-1.133,2.453,2.453,0,0,1,2,.789,3.682,3.682,0,0,1,.672,2.359V17H88.84V11.594a1.465,1.465,0,0,0-.312-1.043,1.4,1.4,0,0,0-1.039-.324,1.553,1.553,0,0,0-1.43.813V17H83.8V8.547ZM7.3,39.156a4.15,4.15,0,0,1-3.027-1.141,4.054,4.054,0,0,1-1.168-3.039v-.219A5.106,5.106,0,0,1,3.6,32.48a3.612,3.612,0,0,1,1.395-1.547,3.914,3.914,0,0,1,2.059-.543,3.508,3.508,0,0,1,2.73,1.094,4.444,4.444,0,0,1,1,3.1v.922H5.395a2.1,2.1,0,0,0,.66,1.328,2,2,0,0,0,1.395.5,2.437,2.437,0,0,0,2.039-.945L10.6,37.633a3.389,3.389,0,0,1-1.375,1.121A4.511,4.511,0,0,1,7.3,39.156Zm-.258-6.945a1.411,1.411,0,0,0-1.09.455,2.357,2.357,0,0,0-.535,1.3H8.559v-.181a1.681,1.681,0,0,0-.406-1.165A1.456,1.456,0,0,0,7.043,32.211ZM14.441,39H12.176V27h2.266Zm8.227,0H20.4V27h2.266Zm4.242,0H24.645V30.547H26.91Zm-2.4-10.641a1.112,1.112,0,0,1,.34-.836,1.465,1.465,0,0,1,1.848,0,1.193,1.193,0,0,1,0,1.68,1.448,1.448,0,0,1-1.836,0A1.108,1.108,0,0,1,24.512,28.359Zm11.875,6.492a5.119,5.119,0,0,1-.867,3.168A2.872,2.872,0,0,1,33.1,39.156,2.639,2.639,0,0,1,30.9,38.1l-.1.9H28.77V27h2.258v4.3a2.571,2.571,0,0,1,2.055-.914,2.9,2.9,0,0,1,2.426,1.137,5.126,5.126,0,0,1,.879,3.2Zm-2.258-.164a3.363,3.363,0,0,0-.406-1.871,1.374,1.374,0,0,0-1.211-.59,1.489,1.489,0,0,0-1.484.883v3.336a1.509,1.509,0,0,0,1.5.891,1.394,1.394,0,0,0,1.438-1.078A5.562,5.562,0,0,0,34.129,34.688Zm8.4-2.023a6.134,6.134,0,0,0-.812-.062,1.654,1.654,0,0,0-1.68.867V39H37.777V30.547H39.91l.063,1.008a2.092,2.092,0,0,1,1.883-1.164,2.366,2.366,0,0,1,.7.1ZM42.98,34.7a5.013,5.013,0,0,1,.484-2.242,3.546,3.546,0,0,1,1.395-1.523,4.069,4.069,0,0,1,2.113-.539,3.849,3.849,0,0,1,2.793,1.047,4.2,4.2,0,0,1,1.207,2.844l.016.578A4.418,4.418,0,0,1,49.9,37.98a4.209,4.209,0,0,1-5.832,0A4.5,4.5,0,0,1,42.98,34.8Zm2.258.16a3.16,3.16,0,0,0,.453,1.843,1.628,1.628,0,0,0,2.578.008,3.457,3.457,0,0,0,.461-2.015,3.128,3.128,0,0,0-.461-1.831,1.5,1.5,0,0,0-1.3-.649,1.474,1.474,0,0,0-1.281.646A3.516,3.516,0,0,0,45.238,34.856Zm10.773-.145a5.094,5.094,0,0,1,.887-3.148,2.877,2.877,0,0,1,2.426-1.172,2.589,2.589,0,0,1,2.039.922V27h2.266V39H61.59l-.109-.9a2.657,2.657,0,0,1-2.172,1.055,2.869,2.869,0,0,1-2.395-1.176A5.258,5.258,0,0,1,56.012,34.711Zm2.258.168a3.337,3.337,0,0,0,.414,1.823,1.349,1.349,0,0,0,1.2.634,1.511,1.511,0,0,0,1.477-.884V33.111a1.489,1.489,0,0,0-1.461-.884Q58.27,32.227,58.27,34.879ZM67.762,39H65.5V30.547h2.266Zm-2.4-10.641a1.112,1.112,0,0,1,.34-.836,1.465,1.465,0,0,1,1.848,0,1.193,1.193,0,0,1,0,1.68,1.448,1.448,0,0,1-1.836,0A1.108,1.108,0,0,1,65.363,28.359ZM74.52,39a2.507,2.507,0,0,1-.227-.758,2.732,2.732,0,0,1-2.133.914,3,3,0,0,1-2.059-.719,2.312,2.312,0,0,1-.816-1.812,2.389,2.389,0,0,1,1-2.062,4.915,4.915,0,0,1,2.879-.727H74.2v-.484a1.393,1.393,0,0,0-.3-.937,1.183,1.183,0,0,0-.949-.352,1.345,1.345,0,0,0-.895.273.929.929,0,0,0-.324.75H69.473a2.268,2.268,0,0,1,.453-1.359,3,3,0,0,1,1.281-.98,4.669,4.669,0,0,1,1.859-.355,3.689,3.689,0,0,1,2.48.785,2.747,2.747,0,0,1,.918,2.207v3.664a4.041,4.041,0,0,0,.336,1.82V39Zm-1.867-1.57a1.945,1.945,0,0,0,.922-.223,1.462,1.462,0,0,0,.625-.6V35.156h-.844q-1.7,0-1.8,1.172l-.008.133a.9.9,0,0,0,.3.7A1.153,1.153,0,0,0,72.652,37.43Zm10.3-4.766a6.134,6.134,0,0,0-.812-.062,1.654,1.654,0,0,0-1.68.867V39H78.2V30.547h2.133l.063,1.008a2.092,2.092,0,0,1,1.883-1.164,2.366,2.366,0,0,1,.7.1ZM86.418,39H84.152V30.547h2.266Zm-2.4-10.641a1.112,1.112,0,0,1,.34-.836,1.465,1.465,0,0,1,1.848,0,1.193,1.193,0,0,1,0,1.68,1.448,1.448,0,0,1-1.836,0A1.108,1.108,0,0,1,84.02,28.359ZM87.926,34.7a5.013,5.013,0,0,1,.484-2.242A3.546,3.546,0,0,1,89.8,30.93a4.069,4.069,0,0,1,2.113-.539,3.849,3.849,0,0,1,2.793,1.047,4.2,4.2,0,0,1,1.207,2.844l.016.578a4.418,4.418,0,0,1-1.086,3.121,4.209,4.209,0,0,1-5.832,0,4.5,4.5,0,0,1-1.09-3.187Zm2.258.16a3.16,3.16,0,0,0,.453,1.843,1.628,1.628,0,0,0,2.578.008,3.457,3.457,0,0,0,.461-2.015,3.128,3.128,0,0,0-.461-1.831,1.5,1.5,0,0,0-1.3-.649,1.474,1.474,0,0,0-1.281.646A3.516,3.516,0,0,0,90.184,34.856Z" transform="translate(540.68 6392.701)" fill="#12263f"/>
    <path id="Path_879938" data-name="Path 879938" d="M9.938,15.117h4.977V17H7.594V5.625H9.938ZM18.492,17H16.227V8.547h2.266Zm-2.4-10.641a1.112,1.112,0,0,1,.34-.836,1.465,1.465,0,0,1,1.848,0,1.105,1.105,0,0,1,.344.836,1.108,1.108,0,0,1-.348.844,1.448,1.448,0,0,1-1.836,0A1.108,1.108,0,0,1,16.094,6.359Zm11.875,6.492A5.119,5.119,0,0,1,27.1,16.02a2.872,2.872,0,0,1-2.422,1.137,2.639,2.639,0,0,1-2.2-1.055l-.1.9H20.352V5h2.258V9.3a2.571,2.571,0,0,1,2.055-.914A2.9,2.9,0,0,1,27.09,9.527a5.126,5.126,0,0,1,.879,3.2Zm-2.258-.164a3.363,3.363,0,0,0-.406-1.871,1.374,1.374,0,0,0-1.211-.59,1.489,1.489,0,0,0-1.484.883v3.336a1.509,1.509,0,0,0,1.5.891,1.394,1.394,0,0,0,1.438-1.078A5.562,5.562,0,0,0,25.711,12.688Zm8.4-2.023A6.134,6.134,0,0,0,33.3,10.6a1.654,1.654,0,0,0-1.68.867V17H29.359V8.547h2.133l.063,1.008a2.092,2.092,0,0,1,1.883-1.164,2.366,2.366,0,0,1,.7.1Zm.453,2.031a5.013,5.013,0,0,1,.484-2.242A3.546,3.546,0,0,1,36.441,8.93a4.069,4.069,0,0,1,2.113-.539,3.849,3.849,0,0,1,2.793,1.047,4.2,4.2,0,0,1,1.207,2.844l.016.578a4.418,4.418,0,0,1-1.086,3.121,4.209,4.209,0,0,1-5.832,0,4.5,4.5,0,0,1-1.09-3.187Zm2.258.16a3.16,3.16,0,0,0,.453,1.843,1.628,1.628,0,0,0,2.578.008,3.457,3.457,0,0,0,.461-2.015,3.128,3.128,0,0,0-.461-1.831,1.5,1.5,0,0,0-1.3-.649,1.474,1.474,0,0,0-1.281.646A3.516,3.516,0,0,0,36.82,12.856ZM50.063,8.547l.07.945a2.971,2.971,0,0,1,2.43-1.1A2.255,2.255,0,0,1,54.8,9.68a2.9,2.9,0,0,1,2.539-1.289,2.521,2.521,0,0,1,2.047.8,3.681,3.681,0,0,1,.672,2.41V17H57.8V11.609a1.61,1.61,0,0,0-.281-1.051,1.246,1.246,0,0,0-.992-.332,1.409,1.409,0,0,0-1.406.969l.008,5.8H52.867V11.617a1.59,1.59,0,0,0-.289-1.062,1.259,1.259,0,0,0-.984-.328,1.463,1.463,0,0,0-1.391.8V17H47.945V8.547ZM66.7,17a2.507,2.507,0,0,1-.227-.758,2.732,2.732,0,0,1-2.133.914,3,3,0,0,1-2.059-.719,2.312,2.312,0,0,1-.816-1.812,2.389,2.389,0,0,1,1-2.062,4.915,4.915,0,0,1,2.879-.727h1.039v-.484a1.393,1.393,0,0,0-.3-.937,1.183,1.183,0,0,0-.949-.352,1.345,1.345,0,0,0-.895.273.929.929,0,0,0-.324.75H61.648A2.268,2.268,0,0,1,62.1,9.727a3,3,0,0,1,1.281-.98,4.669,4.669,0,0,1,1.859-.355,3.689,3.689,0,0,1,2.48.785,2.747,2.747,0,0,1,.918,2.207v3.664a4.041,4.041,0,0,0,.336,1.82V17Zm-1.867-1.57a1.945,1.945,0,0,0,.922-.223,1.462,1.462,0,0,0,.625-.6V13.156h-.844q-1.7,0-1.8,1.172l-.008.133a.9.9,0,0,0,.3.7A1.153,1.153,0,0,0,64.828,15.43Zm8.7-1.625,1.563-5.258h2.422l-3.4,9.766-.187.445a2.577,2.577,0,0,1-2.5,1.656,3.552,3.552,0,0,1-1-.148V18.555l.344.008a1.857,1.857,0,0,0,.957-.2,1.283,1.283,0,0,0,.5-.648l.266-.7L69.531,8.547h2.43ZM78.055,12.7a5.013,5.013,0,0,1,.484-2.242A3.546,3.546,0,0,1,79.934,8.93a4.069,4.069,0,0,1,2.113-.539A3.849,3.849,0,0,1,84.84,9.438a4.2,4.2,0,0,1,1.207,2.844l.016.578a4.418,4.418,0,0,1-1.086,3.121,4.209,4.209,0,0,1-5.832,0,4.5,4.5,0,0,1-1.09-3.187Zm2.258.16a3.16,3.16,0,0,0,.453,1.843,1.628,1.628,0,0,0,2.578.008,3.457,3.457,0,0,0,.461-2.015,3.128,3.128,0,0,0-.461-1.831,1.5,1.5,0,0,0-1.3-.649,1.474,1.474,0,0,0-1.281.646A3.516,3.516,0,0,0,80.313,12.856ZM92.2,10.664a6.134,6.134,0,0,0-.812-.062,1.654,1.654,0,0,0-1.68.867V17H87.453V8.547h2.133l.063,1.008a2.092,2.092,0,0,1,1.883-1.164,2.366,2.366,0,0,1,.7.1Z" transform="translate(331.734 6481.387)" fill="#12263f"/>
    <path id="Path_879939" data-name="Path 879939" d="M14.772,17V5.625h3.984a5.232,5.232,0,0,1,3.141.793,2.712,2.712,0,0,1,1.07,2.324,2.57,2.57,0,0,1-.43,1.473,2.482,2.482,0,0,1-1.2.934,2.4,2.4,0,0,1,1.379.883,2.61,2.61,0,0,1,.5,1.625,3,3,0,0,1-1.047,2.484A4.713,4.713,0,0,1,19.194,17Zm2.344-4.953v3.07h2.008a1.938,1.938,0,0,0,1.293-.395,1.353,1.353,0,0,0,.465-1.09,1.428,1.428,0,0,0-1.617-1.586Zm0-1.656H18.85q1.773-.031,1.773-1.414a1.307,1.307,0,0,0-.449-1.113,2.363,2.363,0,0,0-1.418-.34H17.116ZM29.733,17a2.507,2.507,0,0,1-.227-.758,2.732,2.732,0,0,1-2.133.914,3,3,0,0,1-2.059-.719,2.312,2.312,0,0,1-.816-1.812,2.389,2.389,0,0,1,1-2.062,4.915,4.915,0,0,1,2.879-.727h1.039v-.484a1.393,1.393,0,0,0-.3-.937,1.183,1.183,0,0,0-.949-.352,1.345,1.345,0,0,0-.895.273.929.929,0,0,0-.324.75H24.686a2.268,2.268,0,0,1,.453-1.359,3,3,0,0,1,1.281-.98,4.669,4.669,0,0,1,1.859-.355,3.689,3.689,0,0,1,2.48.785,2.747,2.747,0,0,1,.918,2.207v3.664a4.041,4.041,0,0,0,.336,1.82V17Zm-1.867-1.57a1.945,1.945,0,0,0,.922-.223,1.462,1.462,0,0,0,.625-.6V13.156h-.844q-1.7,0-1.8,1.172l-.008.133a.9.9,0,0,0,.3.7A1.153,1.153,0,0,0,27.866,15.43ZM35.8,17H33.53V5H35.8Zm6.758,0a2.507,2.507,0,0,1-.227-.758,2.732,2.732,0,0,1-2.133.914,3,3,0,0,1-2.059-.719,2.312,2.312,0,0,1-.816-1.812,2.389,2.389,0,0,1,1-2.062,4.915,4.915,0,0,1,2.879-.727h1.039v-.484a1.393,1.393,0,0,0-.3-.937,1.183,1.183,0,0,0-.949-.352,1.345,1.345,0,0,0-.895.273.929.929,0,0,0-.324.75H37.506a2.268,2.268,0,0,1,.453-1.359,3,3,0,0,1,1.281-.98A4.669,4.669,0,0,1,41.1,8.391a3.689,3.689,0,0,1,2.48.785,2.747,2.747,0,0,1,.918,2.207v3.664a4.041,4.041,0,0,0,.336,1.82V17Zm-1.867-1.57a1.945,1.945,0,0,0,.922-.223,1.462,1.462,0,0,0,.625-.6V13.156h-.844q-1.7,0-1.8,1.172l-.008.133a.9.9,0,0,0,.3.7A1.153,1.153,0,0,0,40.686,15.43Zm7.625-6.883.07.977a2.951,2.951,0,0,1,2.43-1.133,2.453,2.453,0,0,1,2,.789,3.682,3.682,0,0,1,.672,2.359V17H51.225V11.594a1.465,1.465,0,0,0-.312-1.043,1.4,1.4,0,0,0-1.039-.324,1.553,1.553,0,0,0-1.43.813V17H46.186V8.547Zm10.4,6.789a1.481,1.481,0,0,0,1.016-.344,1.2,1.2,0,0,0,.406-.914h2.117a2.9,2.9,0,0,1-.469,1.574,3.093,3.093,0,0,1-1.262,1.109,3.949,3.949,0,0,1-1.77.395A3.67,3.67,0,0,1,55.889,16a4.56,4.56,0,0,1-1.047-3.184v-.148a4.508,4.508,0,0,1,1.039-3.117,3.627,3.627,0,0,1,2.852-1.164,3.555,3.555,0,0,1,2.543.9,3.2,3.2,0,0,1,.973,2.4H60.131a1.551,1.551,0,0,0-.406-1.072,1.51,1.51,0,0,0-2.223.163,3.333,3.333,0,0,0-.4,1.866v.235a3.375,3.375,0,0,0,.4,1.878A1.377,1.377,0,0,0,58.709,15.336Zm8.719,1.82A4.15,4.15,0,0,1,64.4,16.016a4.054,4.054,0,0,1-1.168-3.039v-.219a5.106,5.106,0,0,1,.492-2.277A3.612,3.612,0,0,1,65.12,8.934a3.914,3.914,0,0,1,2.059-.543,3.508,3.508,0,0,1,2.73,1.094,4.444,4.444,0,0,1,1,3.1v.922H65.522a2.1,2.1,0,0,0,.66,1.328,2,2,0,0,0,1.395.5,2.437,2.437,0,0,0,2.039-.945l1.109,1.242a3.389,3.389,0,0,1-1.375,1.121A4.511,4.511,0,0,1,67.428,17.156Zm-.258-6.945a1.411,1.411,0,0,0-1.09.455,2.357,2.357,0,0,0-.535,1.3h3.141v-.181a1.681,1.681,0,0,0-.406-1.165A1.456,1.456,0,0,0,67.17,10.211Zm8.648,2.5a5.094,5.094,0,0,1,.887-3.148,2.877,2.877,0,0,1,2.426-1.172,2.589,2.589,0,0,1,2.039.922V5h2.266V17H81.4l-.109-.9a2.657,2.657,0,0,1-2.172,1.055,2.869,2.869,0,0,1-2.395-1.176A5.258,5.258,0,0,1,75.819,12.711Zm2.258.168a3.337,3.337,0,0,0,.414,1.823,1.349,1.349,0,0,0,1.2.634,1.511,1.511,0,0,0,1.477-.884V11.111a1.489,1.489,0,0,0-1.461-.884Q78.077,10.227,78.077,12.879Zm11,4.277a4.15,4.15,0,0,1-3.027-1.141,4.054,4.054,0,0,1-1.168-3.039v-.219a5.106,5.106,0,0,1,.492-2.277,3.612,3.612,0,0,1,1.395-1.547,3.914,3.914,0,0,1,2.059-.543,3.508,3.508,0,0,1,2.73,1.094,4.444,4.444,0,0,1,1,3.1v.922H87.17a2.1,2.1,0,0,0,.66,1.328,2,2,0,0,0,1.395.5,2.437,2.437,0,0,0,2.039-.945l1.109,1.242A3.389,3.389,0,0,1,91,16.754,4.511,4.511,0,0,1,89.077,17.156Zm-.258-6.945a1.411,1.411,0,0,0-1.09.455,2.357,2.357,0,0,0-.535,1.3h3.141v-.181a1.681,1.681,0,0,0-.406-1.165A1.456,1.456,0,0,0,88.819,10.211ZM6.229,37.336a1.481,1.481,0,0,0,1.016-.344,1.2,1.2,0,0,0,.406-.914H9.768A2.9,2.9,0,0,1,9.3,37.652a3.093,3.093,0,0,1-1.262,1.109,3.949,3.949,0,0,1-1.77.395A3.67,3.67,0,0,1,3.409,38,4.56,4.56,0,0,1,2.362,34.82v-.148A4.508,4.508,0,0,1,3.4,31.555a3.627,3.627,0,0,1,2.852-1.164,3.555,3.555,0,0,1,2.543.9,3.2,3.2,0,0,1,.973,2.4H7.651a1.551,1.551,0,0,0-.406-1.072,1.354,1.354,0,0,0-1.031-.412,1.36,1.36,0,0,0-1.191.575,3.333,3.333,0,0,0-.4,1.866v.235a3.375,3.375,0,0,0,.4,1.878A1.377,1.377,0,0,0,6.229,37.336ZM10.706,34.7a5.013,5.013,0,0,1,.484-2.242,3.546,3.546,0,0,1,1.395-1.523,4.069,4.069,0,0,1,2.113-.539,3.849,3.849,0,0,1,2.793,1.047A4.2,4.2,0,0,1,18.7,34.281l.016.578a4.418,4.418,0,0,1-1.086,3.121,3.775,3.775,0,0,1-2.914,1.176A3.793,3.793,0,0,1,11.8,37.984a4.5,4.5,0,0,1-1.09-3.187Zm2.258.16a3.16,3.16,0,0,0,.453,1.843,1.628,1.628,0,0,0,2.578.008,3.457,3.457,0,0,0,.461-2.015,3.128,3.128,0,0,0-.461-1.831,1.5,1.5,0,0,0-1.3-.649,1.474,1.474,0,0,0-1.281.646A3.516,3.516,0,0,0,12.963,34.856Zm9.258-4.309.07.945a2.971,2.971,0,0,1,2.43-1.1,2.255,2.255,0,0,1,2.242,1.289A2.9,2.9,0,0,1,29.5,30.391a2.521,2.521,0,0,1,2.047.8,3.681,3.681,0,0,1,.672,2.41V39H29.956V33.609a1.61,1.61,0,0,0-.281-1.051,1.246,1.246,0,0,0-.992-.332,1.409,1.409,0,0,0-1.406.969l.008,5.8H25.026V33.617a1.59,1.59,0,0,0-.289-1.062,1.259,1.259,0,0,0-.984-.328,1.463,1.463,0,0,0-1.391.8V39H20.1V30.547Zm19.344,4.3a5.07,5.07,0,0,1-.887,3.129,2.843,2.843,0,0,1-2.395,1.176,2.633,2.633,0,0,1-2.07-.891V42.25H33.956v-11.7h2.094l.078.828a2.654,2.654,0,0,1,2.141-.984,2.862,2.862,0,0,1,2.43,1.156,5.207,5.207,0,0,1,.867,3.188Zm-2.258-.164a3.327,3.327,0,0,0-.418-1.82,1.361,1.361,0,0,0-1.215-.641,1.478,1.478,0,0,0-1.461.813V36.5a1.5,1.5,0,0,0,1.477.836Q39.307,37.336,39.307,34.688Zm8.406-2.023A6.134,6.134,0,0,0,46.9,32.6a1.654,1.654,0,0,0-1.68.867V39H42.963V30.547H45.1l.063,1.008a2.092,2.092,0,0,1,1.883-1.164,2.366,2.366,0,0,1,.7.1Zm.453,2.031a5.013,5.013,0,0,1,.484-2.242,3.546,3.546,0,0,1,1.395-1.523,4.069,4.069,0,0,1,2.113-.539,3.849,3.849,0,0,1,2.793,1.047,4.2,4.2,0,0,1,1.207,2.844l.016.578a4.418,4.418,0,0,1-1.086,3.121,4.209,4.209,0,0,1-5.832,0,4.5,4.5,0,0,1-1.09-3.187Zm2.258.16a3.16,3.16,0,0,0,.453,1.843,1.628,1.628,0,0,0,2.578.008,3.457,3.457,0,0,0,.461-2.015,3.128,3.128,0,0,0-.461-1.831,1.5,1.5,0,0,0-1.3-.649,1.474,1.474,0,0,0-1.281.646A3.516,3.516,0,0,0,50.424,34.856Zm14.758,0a5.119,5.119,0,0,1-.867,3.168,2.872,2.872,0,0,1-2.422,1.137A2.639,2.639,0,0,1,59.7,38.1l-.1.9H57.565V27h2.258v4.3a2.571,2.571,0,0,1,2.055-.914A2.9,2.9,0,0,1,64.3,31.527a5.126,5.126,0,0,1,.879,3.2Zm-2.258-.164a3.363,3.363,0,0,0-.406-1.871,1.374,1.374,0,0,0-1.211-.59,1.489,1.489,0,0,0-1.484.883v3.336a1.509,1.509,0,0,0,1.5.891,1.394,1.394,0,0,0,1.438-1.078A5.562,5.562,0,0,0,62.924,34.688ZM71.471,39a2.507,2.507,0,0,1-.227-.758,2.732,2.732,0,0,1-2.133.914,3,3,0,0,1-2.059-.719,2.312,2.312,0,0,1-.816-1.812,2.389,2.389,0,0,1,1-2.062,4.915,4.915,0,0,1,2.879-.727h1.039v-.484a1.393,1.393,0,0,0-.3-.937,1.183,1.183,0,0,0-.949-.352,1.345,1.345,0,0,0-.895.273.929.929,0,0,0-.324.75H66.424a2.268,2.268,0,0,1,.453-1.359,3,3,0,0,1,1.281-.98,4.669,4.669,0,0,1,1.859-.355,3.689,3.689,0,0,1,2.48.785,2.747,2.747,0,0,1,.918,2.207v3.664a4.041,4.041,0,0,0,.336,1.82V39ZM69.6,37.43a1.945,1.945,0,0,0,.922-.223,1.462,1.462,0,0,0,.625-.6V35.156h-.844q-1.7,0-1.8,1.172l-.008.133a.9.9,0,0,0,.3.7A1.153,1.153,0,0,0,69.6,37.43Zm9.063-.094a1.481,1.481,0,0,0,1.016-.344,1.2,1.2,0,0,0,.406-.914h2.117a2.9,2.9,0,0,1-.469,1.574,3.093,3.093,0,0,1-1.262,1.109,3.949,3.949,0,0,1-1.77.395A3.67,3.67,0,0,1,75.846,38,4.56,4.56,0,0,1,74.8,34.82v-.148a4.508,4.508,0,0,1,1.039-3.117,3.627,3.627,0,0,1,2.852-1.164,3.555,3.555,0,0,1,2.543.9,3.2,3.2,0,0,1,.973,2.4H80.088a1.551,1.551,0,0,0-.406-1.072,1.51,1.51,0,0,0-2.223.163,3.333,3.333,0,0,0-.4,1.866v.235a3.375,3.375,0,0,0,.4,1.878A1.377,1.377,0,0,0,78.667,37.336ZM85.877,39H83.612V30.547h2.266Zm-2.4-10.641a1.112,1.112,0,0,1,.34-.836,1.465,1.465,0,0,1,1.848,0,1.193,1.193,0,0,1,0,1.68,1.448,1.448,0,0,1-1.836,0A1.108,1.108,0,0,1,83.479,28.359ZM87.385,34.7a5.013,5.013,0,0,1,.484-2.242,3.546,3.546,0,0,1,1.395-1.523,4.069,4.069,0,0,1,2.113-.539,3.849,3.849,0,0,1,2.793,1.047,4.2,4.2,0,0,1,1.207,2.844l.016.578a4.418,4.418,0,0,1-1.086,3.121,4.209,4.209,0,0,1-5.832,0,4.5,4.5,0,0,1-1.09-3.187Zm2.258.16A3.16,3.16,0,0,0,90.1,36.7a1.628,1.628,0,0,0,2.578.008,3.457,3.457,0,0,0,.461-2.015,3.128,3.128,0,0,0-.461-1.831,1.5,1.5,0,0,0-1.3-.649,1.474,1.474,0,0,0-1.281.646A3.516,3.516,0,0,0,89.643,34.856ZM91.823,27h2.461L92.12,29.422H90.284Zm7.039,3.547.07.977a2.951,2.951,0,0,1,2.43-1.133,2.453,2.453,0,0,1,2,.789,3.682,3.682,0,0,1,.672,2.359V39h-2.258V33.594a1.465,1.465,0,0,0-.312-1.043,1.4,1.4,0,0,0-1.039-.324,1.553,1.553,0,0,0-1.43.813V39H96.737V30.547Z" transform="translate(537 6570)" fill="#12263f"/>
    <path id="Path_879941" data-name="Path 879941" d="M28.609,12.07h-4.5v3.047h5.281V17H21.766V5.625h7.609v1.9H24.109v2.711h4.5ZM35.2,14.664a.727.727,0,0,0-.41-.652,4.659,4.659,0,0,0-1.316-.426q-3.016-.633-3.016-2.562a2.323,2.323,0,0,1,.934-1.879,3.766,3.766,0,0,1,2.441-.754,4.053,4.053,0,0,1,2.574.758,2.388,2.388,0,0,1,.965,1.969H35.109a1.092,1.092,0,0,0-.312-.8A1.322,1.322,0,0,0,33.82,10a1.351,1.351,0,0,0-.883.258.814.814,0,0,0-.312.656.7.7,0,0,0,.355.605,3.657,3.657,0,0,0,1.2.4A9.8,9.8,0,0,1,35.6,12.3a2.336,2.336,0,0,1,1.789,2.273,2.2,2.2,0,0,1-.992,1.871,4.28,4.28,0,0,1-2.562.715,4.47,4.47,0,0,1-1.887-.379,3.166,3.166,0,0,1-1.293-1.039,2.414,2.414,0,0,1-.469-1.426h2.141a1.179,1.179,0,0,0,.445.922,1.766,1.766,0,0,0,1.109.32,1.635,1.635,0,0,0,.98-.246A.766.766,0,0,0,35.2,14.664Zm6.352-8.2V8.547h1.445V10.2H41.547v4.219a1.007,1.007,0,0,0,.18.672.9.9,0,0,0,.688.2,3.6,3.6,0,0,0,.664-.055v1.711a4.648,4.648,0,0,1-1.367.2,2.156,2.156,0,0,1-2.422-2.4V10.2H38.055V8.547h1.234V6.469ZM49.148,17a2.507,2.507,0,0,1-.227-.758,2.732,2.732,0,0,1-2.133.914,3,3,0,0,1-2.059-.719,2.312,2.312,0,0,1-.816-1.812,2.389,2.389,0,0,1,1-2.062,4.915,4.915,0,0,1,2.879-.727h1.039v-.484a1.393,1.393,0,0,0-.3-.937,1.183,1.183,0,0,0-.949-.352,1.345,1.345,0,0,0-.895.273.929.929,0,0,0-.324.75H44.1a2.268,2.268,0,0,1,.453-1.359,3,3,0,0,1,1.281-.98A4.669,4.669,0,0,1,47.7,8.391a3.689,3.689,0,0,1,2.48.785,2.747,2.747,0,0,1,.918,2.207v3.664a4.041,4.041,0,0,0,.336,1.82V17Zm-1.867-1.57a1.945,1.945,0,0,0,.922-.223,1.462,1.462,0,0,0,.625-.6V13.156h-.844q-1.7,0-1.8,1.172l-.008.133a.9.9,0,0,0,.3.7A1.153,1.153,0,0,0,47.281,15.43Zm5.2-2.719a5.094,5.094,0,0,1,.887-3.148,2.877,2.877,0,0,1,2.426-1.172,2.589,2.589,0,0,1,2.039.922V5h2.266V17H58.055l-.109-.9a2.657,2.657,0,0,1-2.172,1.055,2.869,2.869,0,0,1-2.395-1.176A5.258,5.258,0,0,1,52.477,12.711Zm2.258.168a3.337,3.337,0,0,0,.414,1.823,1.349,1.349,0,0,0,1.2.634,1.511,1.511,0,0,0,1.477-.884V11.111a1.489,1.489,0,0,0-1.461-.884Q54.734,10.227,54.734,12.879Zm6.758-.184a5.013,5.013,0,0,1,.484-2.242A3.546,3.546,0,0,1,63.371,8.93a4.069,4.069,0,0,1,2.113-.539,3.849,3.849,0,0,1,2.793,1.047,4.2,4.2,0,0,1,1.207,2.844l.016.578a4.418,4.418,0,0,1-1.086,3.121,4.209,4.209,0,0,1-5.832,0,4.5,4.5,0,0,1-1.09-3.187Zm2.258.16A3.16,3.16,0,0,0,64.2,14.7a1.628,1.628,0,0,0,2.578.008,3.457,3.457,0,0,0,.461-2.015,3.128,3.128,0,0,0-.461-1.831,1.5,1.5,0,0,0-1.3-.649,1.474,1.474,0,0,0-1.281.646A3.516,3.516,0,0,0,63.75,12.856Zm11.719,1.808a.727.727,0,0,0-.41-.652,4.659,4.659,0,0,0-1.316-.426q-3.016-.633-3.016-2.562a2.323,2.323,0,0,1,.934-1.879A3.766,3.766,0,0,1,74.1,8.391a4.053,4.053,0,0,1,2.574.758,2.388,2.388,0,0,1,.965,1.969H75.383a1.092,1.092,0,0,0-.312-.8A1.322,1.322,0,0,0,74.094,10a1.351,1.351,0,0,0-.883.258.814.814,0,0,0-.312.656.7.7,0,0,0,.355.605,3.657,3.657,0,0,0,1.2.4,9.8,9.8,0,0,1,1.422.379,2.336,2.336,0,0,1,1.789,2.273,2.2,2.2,0,0,1-.992,1.871,4.28,4.28,0,0,1-2.562.715,4.47,4.47,0,0,1-1.887-.379,3.166,3.166,0,0,1-1.293-1.039,2.414,2.414,0,0,1-.469-1.426H72.6a1.179,1.179,0,0,0,.445.922,1.766,1.766,0,0,0,1.109.32,1.635,1.635,0,0,0,.98-.246A.766.766,0,0,0,75.469,14.664ZM10.766,39V32.2H9.508V30.547h1.258v-.391a3.17,3.17,0,0,1,.98-2.457,3.945,3.945,0,0,1,2.723-.863,9.031,9.031,0,0,1,2.563.461L16.7,29.164a10,10,0,0,0-1.187-.293,5.834,5.834,0,0,0-.906-.066q-1.578,0-1.578,1.4v.344H14.7V32.2H13.031V39Zm7.32,0H15.82V30.547h2.266Zm3.945-8.453.07.977a2.951,2.951,0,0,1,2.43-1.133,2.453,2.453,0,0,1,2,.789,3.682,3.682,0,0,1,.672,2.359V39H24.945V33.594a1.465,1.465,0,0,0-.312-1.043,1.4,1.4,0,0,0-1.039-.324,1.553,1.553,0,0,0-1.43.813V39H19.906V30.547ZM33.813,39a2.507,2.507,0,0,1-.227-.758,2.732,2.732,0,0,1-2.133.914,3,3,0,0,1-2.059-.719,2.312,2.312,0,0,1-.816-1.812,2.389,2.389,0,0,1,1-2.062,4.915,4.915,0,0,1,2.879-.727h1.039v-.484a1.393,1.393,0,0,0-.3-.937,1.183,1.183,0,0,0-.949-.352,1.345,1.345,0,0,0-.895.273.929.929,0,0,0-.324.75H28.766a2.268,2.268,0,0,1,.453-1.359,3,3,0,0,1,1.281-.98,4.669,4.669,0,0,1,1.859-.355,3.689,3.689,0,0,1,2.48.785,2.747,2.747,0,0,1,.918,2.207v3.664a4.041,4.041,0,0,0,.336,1.82V39Zm-1.867-1.57a1.945,1.945,0,0,0,.922-.223,1.462,1.462,0,0,0,.625-.6V35.156h-.844q-1.7,0-1.8,1.172l-.008.133a.9.9,0,0,0,.3.7A1.153,1.153,0,0,0,31.945,37.43Zm7.625-6.883.07.977a2.951,2.951,0,0,1,2.43-1.133,2.453,2.453,0,0,1,2,.789,3.682,3.682,0,0,1,.672,2.359V39H42.484V33.594a1.465,1.465,0,0,0-.312-1.043,1.4,1.4,0,0,0-1.039-.324,1.553,1.553,0,0,0-1.43.813V39H37.445V30.547Zm10.4,6.789a1.481,1.481,0,0,0,1.016-.344,1.2,1.2,0,0,0,.406-.914h2.117a2.9,2.9,0,0,1-.469,1.574,3.093,3.093,0,0,1-1.262,1.109,3.949,3.949,0,0,1-1.77.395A3.67,3.67,0,0,1,47.148,38,4.56,4.56,0,0,1,46.1,34.82v-.148a4.508,4.508,0,0,1,1.039-3.117,3.627,3.627,0,0,1,2.852-1.164,3.555,3.555,0,0,1,2.543.9,3.2,3.2,0,0,1,.973,2.4H51.391a1.551,1.551,0,0,0-.406-1.072,1.51,1.51,0,0,0-2.223.163,3.333,3.333,0,0,0-.4,1.866v.235a3.375,3.375,0,0,0,.4,1.878A1.377,1.377,0,0,0,49.969,37.336ZM57.18,39H54.914V30.547H57.18Zm-2.4-10.641a1.112,1.112,0,0,1,.34-.836,1.465,1.465,0,0,1,1.848,0,1.193,1.193,0,0,1,0,1.68,1.448,1.448,0,0,1-1.836,0A1.108,1.108,0,0,1,54.781,28.359Zm8.148,10.8A4.15,4.15,0,0,1,59.9,38.016a4.054,4.054,0,0,1-1.168-3.039v-.219a5.106,5.106,0,0,1,.492-2.277,3.612,3.612,0,0,1,1.395-1.547,3.914,3.914,0,0,1,2.059-.543,3.508,3.508,0,0,1,2.73,1.094,4.444,4.444,0,0,1,1,3.1v.922H61.023a2.1,2.1,0,0,0,.66,1.328,2,2,0,0,0,1.395.5,2.437,2.437,0,0,0,2.039-.945l1.109,1.242a3.389,3.389,0,0,1-1.375,1.121A4.511,4.511,0,0,1,62.93,39.156Zm-.258-6.945a1.411,1.411,0,0,0-1.09.455,2.357,2.357,0,0,0-.535,1.3h3.141v-.181a1.681,1.681,0,0,0-.406-1.165A1.456,1.456,0,0,0,62.672,32.211Zm9.766.453a6.134,6.134,0,0,0-.812-.062,1.654,1.654,0,0,0-1.68.867V39H67.688V30.547H69.82l.063,1.008a2.092,2.092,0,0,1,1.883-1.164,2.366,2.366,0,0,1,.7.1Zm.453,2.031a5.013,5.013,0,0,1,.484-2.242A3.546,3.546,0,0,1,74.77,30.93a4.069,4.069,0,0,1,2.113-.539,3.849,3.849,0,0,1,2.793,1.047,4.2,4.2,0,0,1,1.207,2.844l.016.578a4.418,4.418,0,0,1-1.086,3.121,4.209,4.209,0,0,1-5.832,0,4.5,4.5,0,0,1-1.09-3.187Zm2.258.16A3.16,3.16,0,0,0,75.6,36.7a1.628,1.628,0,0,0,2.578.008,3.457,3.457,0,0,0,.461-2.015,3.128,3.128,0,0,0-.461-1.831,1.5,1.5,0,0,0-1.3-.649,1.474,1.474,0,0,0-1.281.646A3.516,3.516,0,0,0,75.148,34.856Zm11.719,1.808a.727.727,0,0,0-.41-.652,4.659,4.659,0,0,0-1.316-.426q-3.016-.633-3.016-2.562a2.323,2.323,0,0,1,.934-1.879,3.766,3.766,0,0,1,2.441-.754,4.053,4.053,0,0,1,2.574.758,2.388,2.388,0,0,1,.965,1.969H86.781a1.092,1.092,0,0,0-.312-.8A1.322,1.322,0,0,0,85.492,32a1.351,1.351,0,0,0-.883.258.814.814,0,0,0-.312.656.7.7,0,0,0,.355.605,3.657,3.657,0,0,0,1.2.4,9.8,9.8,0,0,1,1.422.379,2.336,2.336,0,0,1,1.789,2.273,2.2,2.2,0,0,1-.992,1.871,4.28,4.28,0,0,1-2.562.715,4.47,4.47,0,0,1-1.887-.379,3.166,3.166,0,0,1-1.293-1.039,2.414,2.414,0,0,1-.469-1.426H84a1.179,1.179,0,0,0,.445.922,1.766,1.766,0,0,0,1.109.32,1.635,1.635,0,0,0,.98-.246A.766.766,0,0,0,86.867,36.664Z" transform="translate(539.086 6747)" fill="#12263f"/>
    <path id="Path_879940" data-name="Path 879940" d="M29.746,14.656H25.637L24.855,17H22.363L26.6,5.625H28.77L33.027,17H30.535Zm-3.477-1.9h2.844L27.684,8.5ZM36.332,8.547v8.914a3.024,3.024,0,0,1-.742,2.176,2.821,2.821,0,0,1-2.141.777,4.591,4.591,0,0,1-1.117-.133V18.492a4.238,4.238,0,0,0,.711.07q1.023,0,1.023-1.086V8.547ZM33.887,6.359a1.112,1.112,0,0,1,.34-.836,1.47,1.47,0,0,1,1.852,0,1.112,1.112,0,0,1,.34.836,1.108,1.108,0,0,1-.348.844,1.448,1.448,0,0,1-1.836,0A1.108,1.108,0,0,1,33.887,6.359Zm9.273,9.781a2.831,2.831,0,0,1-2.312,1.016,2.67,2.67,0,0,1-2.074-.781,3.335,3.335,0,0,1-.73-2.289V8.547H40.3v5.467q0,1.322,1.2,1.322a1.63,1.63,0,0,0,1.578-.8V8.547h2.266V17H43.223Zm8.469-1.477a.727.727,0,0,0-.41-.652,4.659,4.659,0,0,0-1.316-.426q-3.016-.633-3.016-2.562a2.323,2.323,0,0,1,.934-1.879,3.766,3.766,0,0,1,2.441-.754,4.053,4.053,0,0,1,2.574.758,2.388,2.388,0,0,1,.965,1.969H51.543a1.092,1.092,0,0,0-.312-.8A1.322,1.322,0,0,0,50.254,10a1.351,1.351,0,0,0-.883.258.814.814,0,0,0-.312.656.7.7,0,0,0,.355.605,3.657,3.657,0,0,0,1.2.4,9.8,9.8,0,0,1,1.422.379,2.336,2.336,0,0,1,1.789,2.273,2.2,2.2,0,0,1-.992,1.871,4.28,4.28,0,0,1-2.562.715,4.47,4.47,0,0,1-1.887-.379,3.166,3.166,0,0,1-1.293-1.039,2.414,2.414,0,0,1-.469-1.426h2.141a1.179,1.179,0,0,0,.445.922,1.766,1.766,0,0,0,1.109.32,1.635,1.635,0,0,0,.98-.246A.766.766,0,0,0,51.629,14.664Zm6.352-8.2V8.547h1.445V10.2H57.98v4.219a1.007,1.007,0,0,0,.18.672.9.9,0,0,0,.688.2,3.6,3.6,0,0,0,.664-.055v1.711a4.648,4.648,0,0,1-1.367.2,2.156,2.156,0,0,1-2.422-2.4V10.2H54.488V8.547h1.234V6.469Zm6.594,10.688a4.15,4.15,0,0,1-3.027-1.141,4.054,4.054,0,0,1-1.168-3.039v-.219a5.106,5.106,0,0,1,.492-2.277,3.612,3.612,0,0,1,1.395-1.547,3.914,3.914,0,0,1,2.059-.543,3.508,3.508,0,0,1,2.73,1.094,4.444,4.444,0,0,1,1,3.1v.922H62.668a2.1,2.1,0,0,0,.66,1.328,2,2,0,0,0,1.395.5,2.437,2.437,0,0,0,2.039-.945l1.109,1.242A3.389,3.389,0,0,1,66.5,16.754,4.511,4.511,0,0,1,64.574,17.156Zm-.258-6.945a1.411,1.411,0,0,0-1.09.455,2.357,2.357,0,0,0-.535,1.3h3.141v-.181a1.681,1.681,0,0,0-.406-1.165A1.456,1.456,0,0,0,64.316,10.211Zm9.594,4.453a.727.727,0,0,0-.41-.652,4.659,4.659,0,0,0-1.316-.426q-3.016-.633-3.016-2.562A2.323,2.323,0,0,1,70.1,9.145a3.766,3.766,0,0,1,2.441-.754,4.053,4.053,0,0,1,2.574.758,2.388,2.388,0,0,1,.965,1.969H73.824a1.092,1.092,0,0,0-.312-.8A1.322,1.322,0,0,0,72.535,10a1.351,1.351,0,0,0-.883.258.814.814,0,0,0-.312.656.7.7,0,0,0,.355.605,3.657,3.657,0,0,0,1.2.4,9.8,9.8,0,0,1,1.422.379,2.336,2.336,0,0,1,1.789,2.273,2.2,2.2,0,0,1-.992,1.871,4.28,4.28,0,0,1-2.562.715,4.47,4.47,0,0,1-1.887-.379,3.166,3.166,0,0,1-1.293-1.039,2.414,2.414,0,0,1-.469-1.426h2.141a1.179,1.179,0,0,0,.445.922,1.766,1.766,0,0,0,1.109.32,1.635,1.635,0,0,0,.98-.246A.766.766,0,0,0,73.91,14.664Z" transform="translate(330 6656.069)" fill="#12263f"/>
    <path id="Path_879942" data-name="Path 879942" d="M13.813,17H11.469V5.625h2.344Zm4.1-8.453.07.977a2.951,2.951,0,0,1,2.43-1.133,2.453,2.453,0,0,1,2,.789,3.682,3.682,0,0,1,.672,2.359V17H20.828V11.594a1.465,1.465,0,0,0-.312-1.043,1.4,1.4,0,0,0-1.039-.324,1.553,1.553,0,0,0-1.43.813V17H15.789V8.547ZM25.414,17V10.2H24.156V8.547h1.258V7.828a2.918,2.918,0,0,1,.816-2.207,3.162,3.162,0,0,1,2.285-.785,5.278,5.278,0,0,1,1.148.156l-.023,1.75a2.878,2.878,0,0,0-.687-.07q-1.273,0-1.273,1.2v.68h1.68V10.2H27.68V17Zm4.766-4.3a5.013,5.013,0,0,1,.484-2.242A3.546,3.546,0,0,1,32.059,8.93a4.069,4.069,0,0,1,2.113-.539,3.849,3.849,0,0,1,2.793,1.047,4.2,4.2,0,0,1,1.207,2.844l.016.578A4.418,4.418,0,0,1,37.1,15.98a3.775,3.775,0,0,1-2.914,1.176,3.793,3.793,0,0,1-2.918-1.172A4.5,4.5,0,0,1,30.18,12.8Zm2.258.16a3.16,3.16,0,0,0,.453,1.843,1.628,1.628,0,0,0,2.578.008,3.457,3.457,0,0,0,.461-2.015,3.128,3.128,0,0,0-.461-1.831,1.5,1.5,0,0,0-1.3-.649,1.474,1.474,0,0,0-1.281.646A3.516,3.516,0,0,0,32.438,12.856Zm11.891-2.192a6.134,6.134,0,0,0-.812-.062,1.654,1.654,0,0,0-1.68.867V17H39.578V8.547h2.133l.063,1.008a2.092,2.092,0,0,1,1.883-1.164,2.366,2.366,0,0,1,.7.1Zm3.2-2.117.07.945a2.971,2.971,0,0,1,2.43-1.1A2.255,2.255,0,0,1,52.273,9.68a2.9,2.9,0,0,1,2.539-1.289,2.521,2.521,0,0,1,2.047.8,3.681,3.681,0,0,1,.672,2.41V17H55.266V11.609a1.61,1.61,0,0,0-.281-1.051,1.246,1.246,0,0,0-.992-.332,1.409,1.409,0,0,0-1.406.969l.008,5.8H50.336V11.617a1.59,1.59,0,0,0-.289-1.062,1.259,1.259,0,0,0-.984-.328,1.463,1.463,0,0,0-1.391.8V17H45.414V8.547Zm15.625,8.609a4.15,4.15,0,0,1-3.027-1.141,4.054,4.054,0,0,1-1.168-3.039v-.219a5.106,5.106,0,0,1,.492-2.277,3.612,3.612,0,0,1,1.395-1.547,3.914,3.914,0,0,1,2.059-.543,3.508,3.508,0,0,1,2.73,1.094,4.444,4.444,0,0,1,1,3.1v.922H61.25a2.1,2.1,0,0,0,.66,1.328,2,2,0,0,0,1.395.5,2.437,2.437,0,0,0,2.039-.945l1.109,1.242a3.389,3.389,0,0,1-1.375,1.121A4.511,4.511,0,0,1,63.156,17.156ZM62.9,10.211a1.411,1.411,0,0,0-1.09.455,2.357,2.357,0,0,0-.535,1.3h3.141v-.181a1.681,1.681,0,0,0-.406-1.165A1.456,1.456,0,0,0,62.9,10.211Zm8.648,2.5a5.094,5.094,0,0,1,.887-3.148,2.877,2.877,0,0,1,2.426-1.172,2.589,2.589,0,0,1,2.039.922V5h2.266V17H77.125l-.109-.9a2.657,2.657,0,0,1-2.172,1.055,2.869,2.869,0,0,1-2.395-1.176A5.258,5.258,0,0,1,71.547,12.711Zm2.258.168a3.337,3.337,0,0,0,.414,1.823,1.349,1.349,0,0,0,1.2.634,1.511,1.511,0,0,0,1.477-.884V11.111a1.489,1.489,0,0,0-1.461-.884Q73.8,10.227,73.8,12.879Zm11,4.277a4.15,4.15,0,0,1-3.027-1.141,4.054,4.054,0,0,1-1.168-3.039v-.219A5.106,5.106,0,0,1,81.1,10.48,3.612,3.612,0,0,1,82.5,8.934a3.914,3.914,0,0,1,2.059-.543,3.508,3.508,0,0,1,2.73,1.094,4.444,4.444,0,0,1,1,3.1v.922H82.9a2.1,2.1,0,0,0,.66,1.328,2,2,0,0,0,1.395.5,2.437,2.437,0,0,0,2.039-.945L88.1,15.633a3.389,3.389,0,0,1-1.375,1.121A4.511,4.511,0,0,1,84.8,17.156Zm-.258-6.945a1.411,1.411,0,0,0-1.09.455,2.357,2.357,0,0,0-.535,1.3h3.141v-.181a1.681,1.681,0,0,0-.406-1.165A1.456,1.456,0,0,0,84.547,10.211Zm-61.34,24.5a4.954,4.954,0,0,1,.926-3.133,3,3,0,0,1,2.5-1.187,2.631,2.631,0,0,1,2.164.953l.094-.8h2.047v8.172a3.613,3.613,0,0,1-.5,1.93,3.236,3.236,0,0,1-1.418,1.25,4.985,4.985,0,0,1-2.141.43,4.635,4.635,0,0,1-1.812-.371A3.217,3.217,0,0,1,23.723,41l1-1.375a2.645,2.645,0,0,0,2.047.945,1.936,1.936,0,0,0,1.4-.48,1.8,1.8,0,0,0,.5-1.363v-.453a2.612,2.612,0,0,1-2.055.883,2.992,2.992,0,0,1-2.465-1.191,4.953,4.953,0,0,1-.941-3.16Zm2.258.168a3.085,3.085,0,0,0,.461,1.8,1.466,1.466,0,0,0,1.266.653,1.568,1.568,0,0,0,1.477-.775V33a1.564,1.564,0,0,0-1.461-.775,1.476,1.476,0,0,0-1.277.665A3.477,3.477,0,0,0,25.465,34.879Zm11.094,4.277a4.15,4.15,0,0,1-3.027-1.141,4.054,4.054,0,0,1-1.168-3.039v-.219a5.106,5.106,0,0,1,.492-2.277,3.612,3.612,0,0,1,1.395-1.547,3.914,3.914,0,0,1,2.059-.543,3.508,3.508,0,0,1,2.73,1.094,4.444,4.444,0,0,1,1,3.1v.922H34.652a2.1,2.1,0,0,0,.66,1.328,2,2,0,0,0,1.395.5,2.437,2.437,0,0,0,2.039-.945l1.109,1.242a3.389,3.389,0,0,1-1.375,1.121A4.511,4.511,0,0,1,36.559,39.156ZM36.3,32.211a1.411,1.411,0,0,0-1.09.455,2.357,2.357,0,0,0-.535,1.3h3.141v-.181a1.681,1.681,0,0,0-.406-1.165A1.456,1.456,0,0,0,36.3,32.211Zm9.594,4.453a.727.727,0,0,0-.41-.652,4.659,4.659,0,0,0-1.316-.426q-3.016-.633-3.016-2.562a2.323,2.323,0,0,1,.934-1.879,3.766,3.766,0,0,1,2.441-.754,4.053,4.053,0,0,1,2.574.758,2.388,2.388,0,0,1,.965,1.969H45.809a1.092,1.092,0,0,0-.312-.8A1.322,1.322,0,0,0,44.52,32a1.351,1.351,0,0,0-.883.258.814.814,0,0,0-.312.656.7.7,0,0,0,.355.605,3.657,3.657,0,0,0,1.2.4A9.8,9.8,0,0,1,46.3,34.3,2.336,2.336,0,0,1,48.09,36.57a2.205,2.205,0,0,1-.992,1.871,4.28,4.28,0,0,1-2.562.715,4.47,4.47,0,0,1-1.887-.379,3.166,3.166,0,0,1-1.293-1.039,2.414,2.414,0,0,1-.469-1.426h2.141a1.179,1.179,0,0,0,.445.922,1.766,1.766,0,0,0,1.109.32,1.635,1.635,0,0,0,.98-.246A.766.766,0,0,0,45.895,36.664Zm6.352-8.2v2.078h1.445V32.2H52.246v4.219a1.007,1.007,0,0,0,.18.672.9.9,0,0,0,.688.2,3.6,3.6,0,0,0,.664-.055v1.711a4.648,4.648,0,0,1-1.367.2,2.156,2.156,0,0,1-2.422-2.4V32.2H48.754V30.547h1.234V28.469ZM57.332,39H55.066V30.547h2.266Zm-2.4-10.641a1.112,1.112,0,0,1,.34-.836,1.465,1.465,0,0,1,1.848,0,1.193,1.193,0,0,1,0,1.68,1.448,1.448,0,0,1-1.836,0A1.108,1.108,0,0,1,54.934,28.359ZM58.84,34.7a5.013,5.013,0,0,1,.484-2.242,3.546,3.546,0,0,1,1.395-1.523,4.069,4.069,0,0,1,2.113-.539,3.849,3.849,0,0,1,2.793,1.047,4.2,4.2,0,0,1,1.207,2.844l.016.578a4.418,4.418,0,0,1-1.086,3.121,4.209,4.209,0,0,1-5.832,0A4.5,4.5,0,0,1,58.84,34.8Zm2.258.16a3.16,3.16,0,0,0,.453,1.843,1.628,1.628,0,0,0,2.578.008,3.457,3.457,0,0,0,.461-2.015,3.128,3.128,0,0,0-.461-1.831,1.5,1.5,0,0,0-1.3-.649,1.474,1.474,0,0,0-1.281.646A3.516,3.516,0,0,0,61.1,34.856ZM63.277,27h2.461l-2.164,2.422H61.738Zm7.039,3.547.07.977a2.951,2.951,0,0,1,2.43-1.133,2.453,2.453,0,0,1,2,.789,3.682,3.682,0,0,1,.672,2.359V39H73.23V33.594a1.465,1.465,0,0,0-.312-1.043,1.4,1.4,0,0,0-1.039-.324,1.553,1.553,0,0,0-1.43.813V39H68.191V30.547Z" transform="translate(330.325 6836.136)" fill="#12263f"/>
    <path id="Path_877104" data-name="Path 877104" d="M228.56,112.456H74.657A54.751,54.751,0,0,1,77.813,130.8a33.5,33.5,0,0,0,5.463,18.343h153.9a54.806,54.806,0,0,1-3.154-18.343,33.507,33.507,0,0,0-5.463-18.343" transform="translate(615.82 6148.39) rotate(90)" fill="#88c0de"/>
    <path id="Path_877105" data-name="Path 877105" d="M322.429,112.456h-153.9a54.751,54.751,0,0,1,3.156,18.343,33.5,33.5,0,0,0,5.463,18.343h153.9a54.807,54.807,0,0,1-3.154-18.343,33.507,33.507,0,0,0-5.463-18.343" transform="translate(615.82 6232.032) rotate(90)" fill="#88c0de"/>
    <path id="Path_877106" data-name="Path 877106" d="M416.3,112.456H262.4a54.752,54.752,0,0,1,3.156,18.343,33.5,33.5,0,0,0,5.463,18.343h153.9a54.806,54.806,0,0,1-3.154-18.343,33.507,33.507,0,0,0-5.463-18.343" transform="translate(615.82 6315.675) rotate(90)" fill="#88c0de"/>
    <path id="Path_877107" data-name="Path 877107" d="M117.571,112.456H0L17.553,130.8,0,149.142H126.188a54.806,54.806,0,0,1-3.154-18.343,33.507,33.507,0,0,0-5.463-18.343" transform="translate(615.82 6081.866) rotate(90)" fill="#88c0de"/>
    <path id="Path_877108" data-name="Path 877108" d="M509.446,112.456H356.265a54.751,54.751,0,0,1,3.156,18.343,33.5,33.5,0,0,0,5.463,18.343h56.546a33.61,33.61,0,0,0,4.506-10.425,10.522,10.522,0,0,1,10.287-7.918,10.669,10.669,0,0,1,10.338,13.254c-.429,1.734-.966,3.425-1.556,5.089h64.44L527,130.8Z" transform="translate(615.82 6399.317) rotate(90)" fill="#88c0de"/>
    <path id="Path_877109" data-name="Path 877109" d="M412.624,122.155a10.523,10.523,0,0,0-10.287,7.918A33.527,33.527,0,0,1,397.83,140.5h23.576c.592-1.664,1.127-3.355,1.556-5.087a10.669,10.669,0,0,0-10.338-13.256" transform="translate(607.177 6436.354) rotate(90)" fill="#719db5"/>
    <path id="Path_877110" data-name="Path 877110" d="M377.65,130.8a54.759,54.759,0,0,0-3.156-18.343H350.886a33.507,33.507,0,0,1,5.463,18.343,54.75,54.75,0,0,0,3.154,18.343h23.61A33.507,33.507,0,0,1,377.65,130.8" transform="translate(615.821 6394.524) rotate(90)" fill="#719db5"/>
    <path id="Path_877111" data-name="Path 877111" d="M303.951,131.855Z" transform="translate(598.534 6352.702) rotate(90)" fill="#b1b1b1"/>
    <path id="Path_877112" data-name="Path 877112" d="M283.78,130.8a54.807,54.807,0,0,0-3.154-18.343h-23.61a33.507,33.507,0,0,1,5.463,18.343,54.75,54.75,0,0,0,3.154,18.343h23.61A33.507,33.507,0,0,1,283.78,130.8" transform="translate(615.821 6310.881) rotate(90)" fill="#719db5"/>
    <path id="Path_877113" data-name="Path 877113" d="M189.911,130.8a54.76,54.76,0,0,0-3.156-18.343H163.147A33.507,33.507,0,0,1,168.61,130.8a54.75,54.75,0,0,0,3.154,18.343h23.61a33.507,33.507,0,0,1-5.463-18.343" transform="translate(615.821 6227.239) rotate(90)" fill="#719db5"/>
    <path id="Path_877114" data-name="Path 877114" d="M210.081,131.855Z" transform="translate(598.534 6269.06) rotate(90)" fill="#b1b1b1"/>
    <path id="Path_877115" data-name="Path 877115" d="M116.212,131.855Z" transform="translate(598.534 6185.417) rotate(90)" fill="#b1b1b1"/>
    <path id="Path_877116" data-name="Path 877116" d="M96.041,130.8a54.76,54.76,0,0,0-3.156-18.343H69.277A33.507,33.507,0,0,1,74.74,130.8a54.75,54.75,0,0,0,3.154,18.343H101.5A33.507,33.507,0,0,1,96.041,130.8" transform="translate(615.821 6143.596) rotate(90)" fill="#719db5"/>
    <path id="Path_877117" data-name="Path 877117" d="M325.013,129.742c.042-.066.091-.127.132-.193.155-.233.32-.458.478-.686.238-.34.473-.681.722-1.012.038-.051.079-.1.119-.151a34.081,34.081,0,0,1,6.692-6.638A33.735,33.735,0,0,1,387,148.086h21.3A54.992,54.992,0,0,0,305.4,121.062c-.095.166-.2.327-.291.494-.248.45-.48.91-.717,1.365-.367.711-.722,1.428-1.059,2.154-.21.458-.418.915-.617,1.379-.348.809-.671,1.63-.981,2.46-.1.278-.231.547-.331.828Z" transform="translate(633.106 6350.432) rotate(90)" fill="#225a78"/>
    <path id="Path_877118" data-name="Path 877118" d="M231.144,129.742h.013c.042-.064.079-.13.121-.193.153-.231.316-.454.473-.681.24-.342.477-.686.728-1.019.036-.047.074-.093.11-.14a34.284,34.284,0,0,1,6.723-6.647h-.023a33.733,33.733,0,0,1,53.846,27.023h21.3a54.991,54.991,0,0,0-102.905-27.023H211.5c-.093.163-.17.331-.259.494-.25.45-.482.91-.719,1.365q-.55,1.067-1.059,2.154c-.21.458-.418.915-.616,1.379-.348.809-.671,1.63-.981,2.46-.1.278-.231.547-.331.828Z" transform="translate(633.106 6266.79) rotate(90)" fill="#225a78"/>
    <path id="Path_877119" data-name="Path 877119" d="M137.274,129.742c.043-.066.091-.127.132-.193.155-.233.32-.458.478-.686.238-.34.473-.681.722-1.012.038-.051.079-.1.119-.151a34.08,34.08,0,0,1,6.692-6.638,33.733,33.733,0,0,1,53.846,27.023h21.3A54.992,54.992,0,0,0,117.66,121.062c-.093.166-.2.327-.291.494-.248.45-.48.91-.717,1.365-.367.711-.722,1.428-1.059,2.154-.21.458-.418.915-.616,1.379-.348.809-.671,1.63-.981,2.46-.1.278-.231.547-.331.828Z" transform="translate(633.106 6183.147) rotate(90)" fill="#225a78"/>
    <g id="Group_1102428" data-name="Group 1102428" transform="translate(512.989 6651.835) rotate(90)" style="mix-blend-mode: multiply;isolation: isolate">
      <g id="Group_1102427" data-name="Group 1102427">
        <g id="Group_1102426" data-name="Group 1102426" clip-path="url(#clip-path-2)">
          <path id="Path_877120" data-name="Path 877120" d="M305.965,107.366c-.187.316-.384.626-.565.946-.094.166-.2.327-.291.494-.25.45-.482.91-.719,1.365q-.55,1.067-1.057,2.154c-.212.458-.418.915-.618,1.377q-.519,1.217-.981,2.462c-.1.278-.231.547-.329.828h23.61c.042-.066.089-.127.132-.193.153-.233.318-.458.478-.686.236-.34.473-.681.72-1.012.04-.051.081-.1.119-.151a34.091,34.091,0,0,1,6.694-6.638c.444-.333.911-.635,1.371-.946Z" transform="translate(-301.402 -107.366)" fill="#173f55"/>
        </g>
      </g>
    </g>
    <g id="Group_1102431" data-name="Group 1102431" transform="translate(512.989 6474.324) rotate(90)" style="mix-blend-mode: multiply;isolation: isolate">
      <g id="Group_1102430" data-name="Group 1102430">
        <g id="Group_1102429" data-name="Group 1102429" clip-path="url(#clip-path-3)">
          <path id="Path_877121" data-name="Path 877121" d="M240.66,107.366H212.1c-.187.316-.384.626-.565.946H211.5c-.091.161-.17.331-.259.494-.25.45-.482.91-.719,1.365q-.55,1.067-1.057,2.154c-.212.458-.418.915-.618,1.377-.348.811-.671,1.632-.981,2.462-.1.278-.231.547-.331.828h23.623c.042-.064.079-.13.121-.193.153-.231.316-.454.473-.681.24-.342.477-.686.728-1.019.036-.047.076-.093.112-.14a34.232,34.232,0,0,1,6.723-6.647h-.023c.444-.333.91-.635,1.371-.946" transform="translate(-207.535 -107.366)" fill="#173f55"/>
        </g>
      </g>
    </g>
    <g id="Group_1102434" data-name="Group 1102434" transform="translate(512.989 6367.464) rotate(90)" style="mix-blend-mode: multiply;isolation: isolate">
      <g id="Group_1102433" data-name="Group 1102433">
        <g id="Group_1102432" data-name="Group 1102432" clip-path="url(#clip-path-4)">
          <path id="Path_877122" data-name="Path 877122" d="M179.587,107.366H151.026a34.06,34.06,0,0,1,9.486,9.625,33.507,33.507,0,0,1,5.463,18.343h21.3a54.377,54.377,0,0,0-7.689-27.969" transform="translate(-151.026 -107.366)" fill="#dbdddf"/>
        </g>
      </g>
    </g>
    <g id="Group_1102437" data-name="Group 1102437" transform="translate(512.989 6296.811) rotate(90)" style="mix-blend-mode: multiply;isolation: isolate">
      <g id="Group_1102436" data-name="Group 1102436">
        <g id="Group_1102435" data-name="Group 1102435" clip-path="url(#clip-path-2)">
          <path id="Path_877123" data-name="Path 877123" d="M118.226,107.366c-.187.316-.384.626-.565.946-.095.166-.2.327-.291.494-.25.45-.482.91-.719,1.365q-.55,1.067-1.057,2.154c-.212.458-.418.915-.618,1.377q-.519,1.217-.981,2.462c-.1.278-.231.547-.329.828h23.608c.043-.066.091-.127.134-.193.153-.233.318-.458.478-.686.236-.34.473-.681.72-1.012.04-.051.081-.1.119-.151a34.09,34.09,0,0,1,6.694-6.638c.444-.333.911-.635,1.371-.946Z" transform="translate(-113.663 -107.366)" fill="#173f55"/>
        </g>
      </g>
    </g>
    <path id="Path_877124" data-name="Path 877124" d="M69.619,114.357a33.812,33.812,0,0,1,33.727,33.727h21.3A54.99,54.99,0,0,0,22.095,120.448H50.344a33.509,33.509,0,0,1,19.275-6.091" transform="translate(633.106 6101.554) rotate(90)" fill="#225a78"/>
    <path id="Path_877125" data-name="Path 877125" d="M215.018,133.032h0l-.009.026.011-.026" transform="translate(597.485 6273.449) rotate(90)" fill="#e7342b"/>
    <path id="Path_877126" data-name="Path 877126" d="M233.485,149.6a33.728,33.728,0,0,1-53.252-27.445h-21.3a55.006,55.006,0,0,0,102.578,27.638H233.235c.085-.061.163-.132.25-.193" transform="translate(607.177 6223.481) rotate(90)" fill="#00d1a1"/>
    <path id="Path_877127" data-name="Path 877127" d="M121.148,133.032h0l-.009.025.011-.025" transform="translate(597.485 6189.806) rotate(90)" fill="#00bbb4"/>
    <path id="Path_877128" data-name="Path 877128" d="M139.614,149.6a33.729,33.729,0,0,1-53.25-27.445h-21.3a55,55,0,0,0,102.576,27.638H139.366c.085-.061.163-.132.248-.193" transform="translate(607.177 6139.839) rotate(90)" fill="#00d1a1"/>
    <path id="Path_877129" data-name="Path 877129" d="M307.83,155.883A33.812,33.812,0,0,1,274.1,122.156H252.8a55,55,0,0,0,102.569,27.636H327.115a33.48,33.48,0,0,1-19.285,6.091" transform="translate(607.176 6307.125) rotate(90)" fill="#00d1a1"/>
    <path id="Path_877130" data-name="Path 877130" d="M308.9,133.366h-.019c-.1.234-.2.467-.3.7.1-.236.223-.461.323-.7" transform="translate(597.188 6356.827) rotate(90)" fill="#1aacff"/>
    <path id="Path_877131" data-name="Path 877131" d="M444.775,122.155a10.522,10.522,0,0,0-10.287,7.918,33.737,33.737,0,0,1-66.516-7.918h-21.3A55.015,55.015,0,0,0,453.557,140.5c.59-1.664,1.127-3.355,1.556-5.087a10.669,10.669,0,0,0-10.338-13.256" transform="translate(607.177 6390.767) rotate(90)" fill="#00d1a1"/>
    <path id="Path_877132" data-name="Path 877132" d="M49.814,109.536l.008-.006q1.234-1.055,2.572-1.989H24.113c-.079.134-.14.278-.217.412-.764,1.339-1.492,2.7-2.146,4.1l-.021.047q-.528,1.137-1.008,2.3c-.008.023-.017.045-.026.068-.316.779-.618,1.564-.9,2.358H43.4a34.022,34.022,0,0,1,6.411-7.3" transform="translate(620.199 6099.504) rotate(90)" fill="#173f55"/>
    <path id="Path_877133" data-name="Path 877133" d="M301.081,131.855h0a33.933,33.933,0,0,1-4.011,5.036c-.023.025-.047.051-.072.076-.736.758-1.507,1.484-2.311,2.171l-.053.045q-1.223,1.041-2.542,1.967h28.279c.461-.792.9-1.6,1.324-2.411.189-.367.367-.741.548-1.112q.536-1.095,1.025-2.214c.1-.234.208-.465.306-.7.4-.942.773-1.891,1.116-2.857Z" transform="translate(598.534 6342.137) rotate(90)" fill="#05ac85"/>
    <path id="Path_877134" data-name="Path 877134" d="M207.213,131.855h0c-.53.809-1.1,1.583-1.693,2.343-.2.261-.42.516-.632.772-.437.526-.885,1.04-1.352,1.537q-.369.4-.751.781-.777.78-1.605,1.509c-.208.183-.414.369-.626.548q-1.01.845-2.084,1.611c-.085.061-.163.132-.248.193H226.5c.575-.983,1.106-1.993,1.623-3.012.113-.231.227-.461.34-.694.531-1.093,1.036-2.2,1.5-3.336l.008-.026c.3-.734.584-1.475.851-2.226Z" transform="translate(598.534 6258.493) rotate(90)" fill="#05ac85"/>
    <path id="Path_877135" data-name="Path 877135" d="M113.342,131.855h0c-.526.809-1.1,1.583-1.689,2.341-.206.263-.422.518-.635.775q-.652.786-1.346,1.534c-.25.265-.5.528-.756.785q-.777.78-1.6,1.505c-.21.183-.416.371-.63.55q-1.007.845-2.082,1.611c-.085.061-.163.132-.248.193h28.279c.575-.983,1.108-1.993,1.621-3.014.115-.229.229-.46.342-.69.531-1.095,1.036-2.2,1.5-3.338l.009-.026c.3-.734.584-1.475.851-2.226Z" transform="translate(598.534 6174.851) rotate(90)" fill="#05ac85"/>
    <path id="Path_877136" data-name="Path 877136" d="M57.612,125.313a6.667,6.667,0,1,0-6.666,6.666,6.665,6.665,0,0,0,6.666-6.666" transform="translate(610.303 6121.32) rotate(90)" fill="#225a78"/>
    <line id="Line_3356" data-name="Line 3356" x2="72.832" transform="translate(483.138 6172.267)" fill="none" stroke="#225a78" stroke-miterlimit="10" stroke-width="1.894"/>
    <path id="Path_877137" data-name="Path 877137" d="M96.095,33.771A32.824,32.824,0,1,0,63.27,66.6,32.825,32.825,0,0,0,96.095,33.771Z" transform="translate(622.857 6108.996) rotate(90)" fill="none" stroke="#225a78" stroke-miterlimit="10" stroke-width="1.894"/>
    <line id="Line_3357" data-name="Line 3357" x1="75.326" transform="translate(412.97 6259.65)" fill="none" stroke="#05ac85" stroke-miterlimit="10" stroke-width="1.894"/>
    <path id="Path_877138" data-name="Path 877138" d="M76.656,240.858a32.824,32.824,0,1,0,32.825-32.825A32.825,32.825,0,0,0,76.656,240.858Z" transform="translate(620.683 6150.171) rotate(90)" fill="none" stroke="#05ac85" stroke-miterlimit="10" stroke-width="1.894"/>
    <path id="Path_877139" data-name="Path 877139" d="M90.488,125.312a6.666,6.666,0,1,0,6.666-6.666,6.666,6.666,0,0,0-6.666,6.666" transform="translate(610.304 6162.496) rotate(90)" fill="#05ac85"/>
    <line id="Line_3358" data-name="Line 3358" y2="73.515" transform="translate(486.164 6438.717) rotate(90)" fill="none" stroke="#05ac85" stroke-miterlimit="10" stroke-width="1.894"/>
    <path id="Path_877140" data-name="Path 877140" d="M171.347,193.251a32.824,32.824,0,1,0,32.825-32.825A32.825,32.825,0,0,0,171.347,193.251Z" transform="translate(573.076 6234.545) rotate(90)" fill="none" stroke="#05ac85" stroke-miterlimit="10" stroke-width="1.894"/>
    <path id="Path_877141" data-name="Path 877141" d="M185.18,125.312a6.666,6.666,0,1,0,6.666-6.666,6.665,6.665,0,0,0-6.666,6.666" transform="translate(610.304 6246.871) rotate(90)" fill="#05ac85"/>
    <path id="Path_877142" data-name="Path 877142" d="M283.4,33.771A32.824,32.824,0,1,0,250.577,66.6,32.825,32.825,0,0,0,283.4,33.771Z" transform="translate(623.857 6275.896) rotate(90)" fill="none" stroke="#225a78" stroke-miterlimit="10" stroke-width="1.894"/>
    <path id="Path_877143" data-name="Path 877143" d="M244.919,125.3a6.666,6.666,0,1,0-6.666,6.666,6.665,6.665,0,0,0,6.666-6.666" transform="translate(610.317 6288.223) rotate(90)" fill="#225a78"/>
    <line id="Line_3360" data-name="Line 3360" x2="71.199" transform="translate(485.771 6526.475)" fill="none" stroke="#225a78" stroke-miterlimit="10" stroke-width="1.894"/>
    <line id="Line_3361" data-name="Line 3361" x1="73.194" transform="translate(412.97 6613.858)" fill="none" stroke="#05ac85" stroke-miterlimit="10" stroke-width="2"/>
    <path id="Path_877144" data-name="Path 877144" d="M263.963,240.858a32.824,32.824,0,1,0,32.825-32.825A32.825,32.825,0,0,0,263.963,240.858Z" transform="translate(620.683 6317.071) rotate(90)" fill="none" stroke="#05ac85" stroke-miterlimit="10" stroke-width="1.894"/>
    <path id="Path_877145" data-name="Path 877145" d="M277.8,125.312a6.665,6.665,0,1,0,6.664-6.666,6.664,6.664,0,0,0-6.664,6.666" transform="translate(610.304 6329.397) rotate(90)" fill="#05ac85"/>
    <path id="Path_877146" data-name="Path 877146" d="M377.535,82.014a32.824,32.824,0,1,0-32.825,32.825A32.825,32.825,0,0,0,377.535,82.014Z" transform="translate(672.194 6359.774) rotate(90)" fill="none" stroke="#225a78" stroke-miterlimit="10" stroke-width="1.894"/>
    <path id="Path_877147" data-name="Path 877147" d="M339.052,125.281a6.667,6.667,0,1,0-6.666,6.666,6.666,6.666,0,0,0,6.666-6.666" transform="translate(610.332 6372.098) rotate(90)" fill="#225a78"/>
    <line id="Line_3362" data-name="Line 3362" y1="71.251" transform="translate(557.354 6704.484) rotate(90)" fill="none" stroke="#225a78" stroke-miterlimit="10" stroke-width="2"/>
    <line id="Line_3363" data-name="Line 3363" y2="74.882" transform="translate(487.532 6792.925) rotate(90)" fill="none" stroke="#05ac85" stroke-miterlimit="10" stroke-width="2"/>
    <path id="Path_877148" data-name="Path 877148" d="M358.655,193.251a32.824,32.824,0,1,0,32.825-32.825A32.825,32.825,0,0,0,358.655,193.251Z" transform="translate(573.076 6401.447) rotate(90)" fill="none" stroke="#05ac85" stroke-miterlimit="10" stroke-width="1.894"/>
    <path id="Path_877149" data-name="Path 877149" d="M372.487,125.312a6.666,6.666,0,1,0,6.666-6.666,6.665,6.665,0,0,0-6.666,6.666" transform="translate(610.304 6413.771) rotate(90)" fill="#05ac85"/>
    <path id="Path_877150" data-name="Path 877150" d="M151.744,125.3a6.666,6.666,0,1,0-6.666,6.666,6.666,6.666,0,0,0,6.666-6.666" transform="translate(610.317 6205.199) rotate(90)" fill="#225a78"/>
    <line id="Line_3364" data-name="Line 3364" y1="76.23" transform="translate(557.354 6350.276) rotate(90)" fill="none" stroke="#225a78" stroke-miterlimit="10" stroke-width="2"/>
    <path id="Path_877151" data-name="Path 877151" d="M190.227,82.014A32.824,32.824,0,1,0,157.4,114.839,32.825,32.825,0,0,0,190.227,82.014Z" transform="translate(672.194 6192.873) rotate(90)" fill="none" stroke="#225a78" stroke-miterlimit="10" stroke-width="1.894"/>
    <g id="Group_1102447" data-name="Group 1102447" transform="translate(574.156 6160.391)">
      <g id="Group_1102443" data-name="Group 1102443" transform="translate(0 0)" clip-path="url(#clip-path-6)">
        <path id="Path_877152" data-name="Path 877152" d="M15.622,13.875q0,4.794-1.984,7.334A6.926,6.926,0,0,1,7.827,23.75a6.976,6.976,0,0,1-5.78-2.494Q.05,18.766,0,14.113V9.858q0-4.841,2.008-7.35A6.976,6.976,0,0,1,7.8,0a6.983,6.983,0,0,1,5.778,2.484q2,2.485,2.047,7.136ZM11.033,9.2a8.488,8.488,0,0,0-.784-4.188A2.66,2.66,0,0,0,7.8,3.7,2.61,2.61,0,0,0,5.405,4.946a7.917,7.917,0,0,0-.817,3.9v5.626a8.888,8.888,0,0,0,.77,4.2A2.62,2.62,0,0,0,7.827,20.05a2.576,2.576,0,0,0,2.428-1.319,8.659,8.659,0,0,0,.778-4.036Z" transform="translate(0 0)" fill="#225a78"/>
        <path id="Path_877153" data-name="Path 877153" d="M22.18,23.321H17.591V5.636l-5.476,1.7V3.6L21.688.175h.492Z" transform="translate(7.682 0.111)" fill="#225a78"/>
      </g>
    </g>
    <g id="Group_1102448" data-name="Group 1102448" transform="translate(362.58 6247.8)">
      <g id="Group_1102445" data-name="Group 1102445" transform="translate(0 0)" clip-path="url(#clip-path-7)">
        <path id="Path_877154" data-name="Path 877154" d="M15.59,13.847q0,4.785-1.98,7.32a6.915,6.915,0,0,1-5.8,2.534,6.966,6.966,0,0,1-5.768-2.487Q.05,18.727,0,14.085V9.838Q0,5.007,2,2.5A6.967,6.967,0,0,1,7.78,0a6.969,6.969,0,0,1,5.766,2.48q2,2.478,2.043,7.121ZM11.011,9.179A8.463,8.463,0,0,0,10.228,5,2.652,2.652,0,0,0,7.78,3.692,2.607,2.607,0,0,0,5.395,4.936,7.9,7.9,0,0,0,4.579,8.83v5.615a8.879,8.879,0,0,0,.768,4.194,2.618,2.618,0,0,0,2.464,1.371,2.569,2.569,0,0,0,2.423-1.318,8.636,8.636,0,0,0,.776-4.028Z" transform="translate(0 0)" fill="#05ac85"/>
        <path id="Path_877155" data-name="Path 877155" d="M27.444,23.385H11.632V20.247l7.462-7.953a18.349,18.349,0,0,0,2.273-2.93A4.712,4.712,0,0,0,22.1,6.986a3.523,3.523,0,0,0-.776-2.415,2.8,2.8,0,0,0-2.218-.879,3.021,3.021,0,0,0-2.448,1.07,4.226,4.226,0,0,0-.9,2.811h-4.6a7.572,7.572,0,0,1,1.006-3.85A7.1,7.1,0,0,1,15.022.991,8.639,8.639,0,0,1,19.189,0a8.175,8.175,0,0,1,5.536,1.712A6.047,6.047,0,0,1,26.7,6.544a7.748,7.748,0,0,1-.887,3.485,19.388,19.388,0,0,1-3.041,4.136l-5.244,5.528h9.918Z" transform="translate(7.047 0)" fill="#05ac85"/>
      </g>
    </g>
    <g id="Group_1102450" data-name="Group 1102450" transform="translate(-49.229 868.453)">
      <path id="Path_877166" data-name="Path 877166" d="M15.537,63.043q0,4.768-1.973,7.294a6.888,6.888,0,0,1-5.779,2.527,6.938,6.938,0,0,1-5.748-2.48Q.05,67.907,0,63.28V59.048q0-4.814,2-7.31a6.938,6.938,0,0,1,5.756-2.495,6.945,6.945,0,0,1,5.747,2.47q1.989,2.472,2.036,7.1ZM10.973,58.39a8.442,8.442,0,0,0-.78-4.165,2.646,2.646,0,0,0-2.439-1.3,2.6,2.6,0,0,0-2.378,1.242,7.874,7.874,0,0,0-.813,3.879v5.6a8.839,8.839,0,0,0,.765,4.18,2.606,2.606,0,0,0,2.456,1.367A2.562,2.562,0,0,0,10.2,67.873a8.611,8.611,0,0,0,.774-4.014Z" transform="translate(622.397 5420.756)" fill="#225a78"/>
      <path id="Path_877167" data-name="Path 877167" d="M16.309,59.032H18.74a3.426,3.426,0,0,0,2.573-.868,3.184,3.184,0,0,0,.837-2.306,2.822,2.822,0,0,0-.827-2.163,3.22,3.22,0,0,0-2.283-.774,3.36,3.36,0,0,0-2.194.72,2.292,2.292,0,0,0-.884,1.869H11.4a5.61,5.61,0,0,1,.969-3.228,6.5,6.5,0,0,1,2.716-2.235,9.074,9.074,0,0,1,3.847-.8,8.6,8.6,0,0,1,5.716,1.744,5.954,5.954,0,0,1,2.066,4.807A4.837,4.837,0,0,1,25.75,58.7a6.25,6.25,0,0,1-2.526,2.036,5.715,5.715,0,0,1,2.9,2.085,5.65,5.65,0,0,1,.956,3.284,6.054,6.054,0,0,1-2.235,4.91,8.974,8.974,0,0,1-5.911,1.848A8.528,8.528,0,0,1,13.3,71.048a5.935,5.935,0,0,1-2.184-4.8h4.562a2.65,2.65,0,0,0,.97,2.116,3.576,3.576,0,0,0,2.392.821,3.6,3.6,0,0,0,2.55-.86,2.972,2.972,0,0,0,.923-2.282q0-3.442-3.788-3.442H16.309Z" transform="translate(629.346 5420.756)" fill="#225a78"/>
    </g>
    <g id="Group_1102452" data-name="Group 1102452" transform="translate(-348.025 747.938)">
      <path id="Path_877156" data-name="Path 877156" d="M62.449,173.706q0,4.826-2,7.384a6.975,6.975,0,0,1-5.849,2.556,7.026,7.026,0,0,1-5.818-2.508q-2.011-2.509-2.061-7.191v-4.283q0-4.873,2.022-7.4a7.027,7.027,0,0,1,5.826-2.525,7.03,7.03,0,0,1,5.816,2.5q2.013,2.5,2.061,7.183ZM57.83,169a8.535,8.535,0,0,0-.79-4.216,2.675,2.675,0,0,0-2.469-1.319,2.63,2.63,0,0,0-2.406,1.255,7.971,7.971,0,0,0-.822,3.928v5.663a8.955,8.955,0,0,0,.775,4.23,2.64,2.64,0,0,0,2.485,1.383,2.591,2.591,0,0,0,2.444-1.329,8.711,8.711,0,0,0,.783-4.063Z" transform="translate(663.556 5519.086)" fill="#05ac85"/>
      <path id="Path_877157" data-name="Path 877157" d="M72.117,174.444h2.637v3.724H72.117V183.2H67.5v-5.033h-9.54l-.207-2.908,9.7-15.325h4.666Zm-9.764,0H67.5v-8.213l-.3.526Z" transform="translate(670.667 5519.212)" fill="#05ac85"/>
    </g>
    <g id="Group_1102454" data-name="Group 1102454" transform="translate(-225.414 1137.396)">
      <path id="Path_877158" data-name="Path 877158" d="M108.857,13.93q0,4.813-1.991,7.362a7.961,7.961,0,0,1-11.636.048q-2.005-2.5-2.055-7.17V9.9q0-4.86,2.018-7.379A7.976,7.976,0,0,1,106.8,2.494q2.008,2.5,2.055,7.164Zm-4.606-4.7a8.521,8.521,0,0,0-.787-4.2A2.672,2.672,0,0,0,101,3.713a2.614,2.614,0,0,0-2.4,1.253,7.927,7.927,0,0,0-.822,3.916V14.53a8.922,8.922,0,0,0,.773,4.219,2.63,2.63,0,0,0,2.479,1.38,2.584,2.584,0,0,0,2.438-1.324,8.713,8.713,0,0,0,.781-4.052Z" transform="translate(705.033 5377.157)" fill="#225a78"/>
      <path id="Path_877159" data-name="Path 877159" d="M105.277,11.988,106.614.195h13.005v3.84h-9.227l-.573,4.989a7.3,7.3,0,0,1,3.489-.876,6.685,6.685,0,0,1,5.2,2.055,8.217,8.217,0,0,1,1.882,5.753,8.42,8.42,0,0,1-.948,4.024,6.706,6.706,0,0,1-2.717,2.758,8.5,8.5,0,0,1-4.177.979,8.99,8.99,0,0,1-3.9-.853,6.9,6.9,0,0,1-2.846-2.4,6.53,6.53,0,0,1-1.106-3.522h4.557a3.409,3.409,0,0,0,1.012,2.256,3.21,3.21,0,0,0,2.27.805,2.833,2.833,0,0,0,2.406-1.124,5.21,5.21,0,0,0,.845-3.179,4.316,4.316,0,0,0-.971-3.03,3.574,3.574,0,0,0-2.758-1.052,3.989,3.989,0,0,0-2.662.861l-.446.415Z" transform="translate(712.407 5377.282)" fill="#225a78"/>
    </g>
    <path id="Path_877168" data-name="Path 877168" d="M155,221.221q0,4.809-1.99,7.358a7.958,7.958,0,0,1-11.626.048q-2-2.5-2.054-7.166v-4.268q0-4.856,2.016-7.373a7.968,7.968,0,0,1,11.6-.023q2.006,2.491,2.054,7.158Zm-4.6-4.691a8.506,8.506,0,0,0-.787-4.2,2.667,2.667,0,0,0-2.46-1.315,2.614,2.614,0,0,0-2.4,1.251,7.923,7.923,0,0,0-.821,3.914v5.643a8.924,8.924,0,0,0,.772,4.216,2.631,2.631,0,0,0,2.477,1.378,2.581,2.581,0,0,0,2.436-1.324,8.7,8.7,0,0,0,.78-4.049Z" transform="translate(223.114 6394.644)" fill="#05ac85"/>
    <path id="Path_877169" data-name="Path 877169" d="M163.26,207.351v3.791h-.444a7.821,7.821,0,0,0-5.026,1.623,6.605,6.605,0,0,0-2.283,4.38,6.268,6.268,0,0,1,4.663-1.88,5.91,5.91,0,0,1,4.811,2.167,8.672,8.672,0,0,1,1.783,5.7,8.528,8.528,0,0,1-.98,4.093,7.024,7.024,0,0,1-2.77,2.849,8.029,8.029,0,0,1-4.054,1.021,7.517,7.517,0,0,1-5.914-2.549,9.886,9.886,0,0,1-2.254-6.8v-1.654a14.909,14.909,0,0,1,1.424-6.666,10.44,10.44,0,0,1,4.093-4.473,11.993,11.993,0,0,1,6.186-1.6Zm-4.49,11.624a3.673,3.673,0,0,0-2.021.58,3.492,3.492,0,0,0-1.339,1.534v1.4a6.2,6.2,0,0,0,.908,3.6,2.937,2.937,0,0,0,2.549,1.295,2.9,2.9,0,0,0,2.4-1.169,5.488,5.488,0,0,0-.008-6.079,3.012,3.012,0,0,0-2.485-1.16" transform="translate(230.441 6394.675)" fill="#05ac85"/>
    <path id="Path_877170" data-name="Path 877170" d="M202.1,62.269q0,4.847-2.005,7.414a8.016,8.016,0,0,1-11.717.048q-2.019-2.517-2.07-7.22v-4.3q0-4.894,2.032-7.43a8.032,8.032,0,0,1,11.691-.025q2.022,2.513,2.07,7.214Zm-4.639-4.729a8.581,8.581,0,0,0-.793-4.234,2.691,2.691,0,0,0-2.48-1.325,2.633,2.633,0,0,0-2.415,1.262,7.982,7.982,0,0,0-.828,3.943v5.687a8.984,8.984,0,0,0,.778,4.249,2.649,2.649,0,0,0,2.5,1.389,2.6,2.6,0,0,0,2.455-1.333,8.774,8.774,0,0,0,.786-4.08Z" transform="translate(386.487 6644.235)" fill="#225a78"/>
    <path id="Path_877171" data-name="Path 877171" d="M213.89,51.026,204.854,71.8h-4.895l9.051-19.628H197.392V48.438h16.5Z" transform="translate(393.713 6644.362)" fill="#225a78"/>
    <path id="Path_877172" data-name="Path 877172" d="M249.837,173.779q0,4.851-2.007,7.422a8.027,8.027,0,0,1-11.727.048q-2.021-2.522-2.072-7.228v-4.305q0-4.9,2.034-7.437a8.037,8.037,0,0,1,11.7-.023q2.024,2.512,2.072,7.22Zm-4.643-4.732a8.58,8.58,0,0,0-.794-4.238,2.69,2.69,0,0,0-2.482-1.326,2.637,2.637,0,0,0-2.417,1.262,7.992,7.992,0,0,0-.828,3.948v5.693a9,9,0,0,0,.779,4.252,2.654,2.654,0,0,0,2.5,1.391,2.6,2.6,0,0,0,2.457-1.336,8.777,8.777,0,0,0,.787-4.084Z" transform="translate(128.455 6621.17)" fill="#05ac85"/>
    <path id="Path_877173" data-name="Path 877173" d="M260.755,166.277a5.448,5.448,0,0,1-.852,3.019,6.149,6.149,0,0,1-2.348,2.106,6.8,6.8,0,0,1,2.7,2.255,5.8,5.8,0,0,1,.994,3.383,6.127,6.127,0,0,1-2.12,4.924,10.118,10.118,0,0,1-11.549-.008,6.114,6.114,0,0,1-2.134-4.915,5.849,5.849,0,0,1,.994-3.391,6.687,6.687,0,0,1,2.683-2.247,6.072,6.072,0,0,1-2.338-2.106,5.5,5.5,0,0,1-.843-3.019,6.072,6.072,0,0,1,1.992-4.763,9.16,9.16,0,0,1,10.818-.013,6.037,6.037,0,0,1,2,4.777M256.592,176.7a3.37,3.37,0,0,0-.883-2.442,3.534,3.534,0,0,0-4.739-.008,3.8,3.8,0,0,0-.015,4.859,3.62,3.62,0,0,0,4.778.031,3.346,3.346,0,0,0,.858-2.44m-.479-10.2a3.219,3.219,0,0,0-.724-2.192,2.942,2.942,0,0,0-4.066-.023,3.193,3.193,0,0,0-.719,2.216,3.356,3.356,0,0,0,.719,2.249,2.536,2.536,0,0,0,2.042.851,2.5,2.5,0,0,0,2.03-.851,3.373,3.373,0,0,0,.718-2.249" transform="translate(135.913 6621.17)" fill="#05ac85"/>
  </g>
</svg>
